<?xml version="1.0" encoding="UTF-8" standalone="no"?>
<!DOCTYPE svg PUBLIC "-//W3C//DTD SVG 1.0//EN" "http://www.w3.org/TR/2001/REC-SVG-20010904/DTD/svg10.dtd">
<!-- Generated by Microsoft Visio 11.0, SVG Export, v1.0 LoadHaulDump-GoBackToLoadingSite_RDM.svg Page-1 -->
<svg xmlns="http://www.w3.org/2000/svg" xmlns:xlink="http://www.w3.org/1999/xlink" xmlns:ev="http://www.w3.org/2001/xml-events"
		xmlns:v="http://schemas.microsoft.com/visio/2003/SVGExtensions/" width="2.74984in" height="1.37868in"
		viewBox="0 0 197.988 99.2653" xml:space="preserve" color-interpolation-filters="sRGB" class="st9">
	<v:documentProperties v:langID="1033" v:viewMarkup="false"/>

	<style type="text/css">
	<![CDATA[
		.st1 {fill:#ffffff;stroke:#000000;stroke-linecap:round;stroke-linejoin:round;stroke-width:0.72}
		.st2 {fill:none;stroke:none;stroke-linecap:round;stroke-linejoin:round;stroke-width:0.75}
		.st3 {fill:#000000;font-family:Calibri;font-size:0.666664em}
		.st4 {marker-end:url(#mrkr26-22);stroke:#000000;stroke-linecap:round;stroke-linejoin:round;stroke-width:0.5}
		.st5 {fill:#000000;fill-opacity:1;stroke:#000000;stroke-opacity:1;stroke-width:0.13368983957219}
		.st6 {marker-end:url(#mrkr13-38);stroke:#000000;stroke-linecap:round;stroke-linejoin:round;stroke-width:0.5}
		.st7 {fill:#000000;fill-opacity:1;stroke:#000000;stroke-opacity:1;stroke-width:0.21739130434783}
		.st8 {stroke:#000000;stroke-linecap:round;stroke-linejoin:round;stroke-width:0.5}
		.st9 {fill:none;fill-rule:evenodd;font-size:12px;overflow:visible;stroke-linecap:square;stroke-miterlimit:3}
	]]>
	</style>

	<defs id="Markers">
		<g id="lend26">
			<path d="M 1.5 -0.75 L 1.5 0.75 M 2.25 -0.75 L 2.25 0.75 M 3 -0.75 L 3 0.75 "
					style="stroke-linecap:round;stroke-linejoin:round;fill:none"/>
		</g>
		<marker id="mrkr26-22" class="st5" v:arrowType="26" v:arrowSize="3" orient="auto" markerUnits="strokeWidth"
				overflow="visible">
			<use xlink:href="#lend26" transform="scale(-7.48,-7.48) "/>
		</marker>
		<g id="lend13">
			<path d="M 3 1 L 0 0 L 3 -1 L 3 1 " style="stroke:none"/>
		</g>
		<marker id="mrkr13-38" class="st7" v:arrowType="13" v:arrowSize="1" v:setback="13.8" refX="-13.8" orient="auto"
				markerUnits="strokeWidth" overflow="visible">
			<use xlink:href="#lend13" transform="scale(-4.6,-4.6) "/>
		</marker>
	</defs>
	<g v:mID="0" v:index="1" v:groupContext="foregroundPage">
		<title>Page-1</title>
		<v:pageProperties v:drawingScale="0.0393701" v:pageScale="0.0393701" v:drawingUnits="24" v:shadowOffsetX="8.50394"
				v:shadowOffsetY="-8.50394"/>
		<g id="group7-1" transform="translate(0.75,-73.0335)" v:mID="7" v:groupContext="group">
			<v:userDefs>
				<v:ud v:nameU="UMLShapeType" v:val="VT0(40):26"/>
				<v:ud v:nameU="UMLObjectGUID" v:val="VT4({B3769C9B-04C6-4070-B8D6-6436A47F5515})"/>
				<v:ud v:nameU="UMLError" v:val="VT0(0):26"/>
				<v:ud v:nameU="UMLPresOption1" v:val="VT0(1):26"/>
				<v:ud v:nameU="UMLSuppressOption" v:val="VT0(32):26"/>
				<v:ud v:nameU="UMLVersion" v:val="VT0(2):26"/>
				<v:ud v:nameU="UMLAutoLockTextEdit" v:val="VT0(1):26"/>
				<v:ud v:nameU="visDescription"
						v:val="VT4(Represents a condition during which an object satisfies some condition, performs an action or waits for an event.)"/>
				<v:ud v:nameU="visVersion" v:val="VT0(14):26"/>
			</v:userDefs>
			<title>State.9</title>
			<g id="shape8-2" v:mID="8" v:groupContext="shape">
				<title>Sheet.8</title>
				<path d="M9 99.27 L45 99.27 A9 9 -180 0 0 54 90.27 L54 82.75 A9 9 -180 0 0 45 73.75 L9 73.75 A9 9 -180 0 0 0 82.75
							 L0 90.27 A9 9 -180 0 0 9 99.27 Z" class="st1"/>
			</g>
			<g id="shape9-4" v:mID="9" v:groupContext="shape">
				<title>Transitions</title>
				<path d="M0 99.27 L53.86 99.27 L0 99.27 Z" class="st2"/>
			</g>
			<g id="shape10-6" v:mID="10" v:groupContext="shape">
				<title>Name</title>
				<desc>Load</desc>
				<v:textBlock v:margins="rect(4,4,4,4)" v:tabSpace="42.5197"/>
				<v:textRect cx="27" cy="86.6653" width="54" height="25.2"/>
				<rect x="0" y="74.0653" width="54" height="25.2" class="st2"/>
				<text x="19.19" y="89.07" class="st3" v:langID="1031"><v:paragraph v:horizAlign="1"/><v:tabList/>Load</text>			</g>
		</g>
		<g id="group29-9" transform="translate(38.1876,-24.8445)" v:mID="29" v:groupContext="group">
			<v:userDefs>
				<v:ud v:nameU="UMLShapeType" v:val="VT0(40):26"/>
				<v:ud v:nameU="UMLObjectGUID" v:val="VT4({1C5894BA-110D-4665-A507-5755075ADFCB})"/>
				<v:ud v:nameU="UMLError" v:val="VT0(0):26"/>
				<v:ud v:nameU="UMLPresOption1" v:val="VT0(1):26"/>
				<v:ud v:nameU="UMLSuppressOption" v:val="VT0(32):26"/>
				<v:ud v:nameU="UMLVersion" v:val="VT0(2):26"/>
				<v:ud v:nameU="UMLAutoLockTextEdit" v:val="VT0(1):26"/>
				<v:ud v:nameU="visDescription"
						v:val="VT4(Represents a condition during which an object satisfies some condition, performs an action or waits for an event.)"/>
				<v:ud v:nameU="visVersion" v:val="VT0(14):26"/>
			</v:userDefs>
			<title>State.30</title>
			<g id="shape30-10" v:mID="30" v:groupContext="shape">
				<title>Sheet.30</title>
				<path d="M9 99.27 L70.99 99.27 A9 9 -180 0 0 79.99 90.27 L79.99 82.75 A9 9 -180 0 0 70.99 73.75 L9 73.75 A9 9 -180
							 0 0 0 82.75 L0 90.27 A9 9 -180 0 0 9 99.27 Z" class="st1"/>
			</g>
			<g id="shape31-12" v:mID="31" v:groupContext="shape">
				<title>Transitions</title>
				<path d="M0 99.27 L53.86 99.27 L0 99.27 Z" class="st2"/>
			</g>
			<g id="shape32-14" v:mID="32" v:groupContext="shape">
				<title>Name</title>
				<desc>GoBackToLoadingSite</desc>
				<v:textBlock v:margins="rect(4,4,4,4)" v:tabSpace="42.5197"/>
				<v:textRect cx="39.9955" cy="86.6653" width="80" height="25.2"/>
				<rect x="0" y="74.0653" width="79.991" height="25.2" class="st2"/>
				<text x="4.91" y="89.07" class="st3" v:langID="1031"><v:paragraph v:horizAlign="1"/><v:tabList/>GoBackToLoadingSite</text>			</g>
		</g>
		<g id="shape33-17" v:mID="33" v:groupContext="shape" transform="translate(-71.5389,51.6517) rotate(-89.9469)">
			<title>Sheet.33</title>
			<path d="M0 99.27 L25.51 99.27" class="st4"/>
		</g>
		<g id="group35-23" transform="translate(143.238,-0.75)" v:mID="35" v:groupContext="group">
			<v:userDefs>
				<v:ud v:nameU="UMLShapeType" v:val="VT0(40):26"/>
				<v:ud v:nameU="UMLObjectGUID" v:val="VT4({CF885012-0889-4A77-9A30-2DCD8EDF2EB8})"/>
				<v:ud v:nameU="UMLError" v:val="VT0(0):26"/>
				<v:ud v:nameU="UMLPresOption1" v:val="VT0(1):26"/>
				<v:ud v:nameU="UMLSuppressOption" v:val="VT0(32):26"/>
				<v:ud v:nameU="UMLVersion" v:val="VT0(2):26"/>
				<v:ud v:nameU="UMLAutoLockTextEdit" v:val="VT0(1):26"/>
				<v:ud v:nameU="visDescription"
						v:val="VT4(Represents a condition during which an object satisfies some condition, performs an action or waits for an event.)"/>
				<v:ud v:nameU="visVersion" v:val="VT0(14):26"/>
			</v:userDefs>
			<title>State.36</title>
			<g id="shape36-24" v:mID="36" v:groupContext="shape">
				<title>Sheet.36</title>
				<path d="M9 99.27 L45 99.27 A9 9 -180 0 0 54 90.27 L54 82.75 A9 9 -180 0 0 45 73.75 L9 73.75 A9 9 -180 0 0 0 82.75
							 L0 90.27 A9 9 -180 0 0 9 99.27 Z" class="st1"/>
			</g>
			<g id="shape37-26" v:mID="37" v:groupContext="shape">
				<title>Transitions</title>
				<path d="M0 99.27 L53.86 99.27 L0 99.27 Z" class="st2"/>
			</g>
			<g id="shape38-28" v:mID="38" v:groupContext="shape">
				<title>Name</title>
				<desc>GoHome</desc>
				<v:textBlock v:margins="rect(4,4,4,4)" v:tabSpace="42.5197"/>
				<v:textRect cx="27" cy="86.6653" width="54" height="25.2"/>
				<rect x="0" y="74.0653" width="54" height="25.2" class="st2"/>
				<text x="12.58" y="89.07" class="st3" v:langID="1031"><v:paragraph v:horizAlign="1"/><v:tabList/>GoHome</text>			</g>
		</g>
		<g id="shape43-31" v:mID="43" v:groupContext="shape" transform="translate(17.8051,-27.6791)">
			<title>Decision.44</title>
			<v:userDefs>
				<v:ud v:nameU="UMLShapeType" v:val="VT0(62):26"/>
				<v:ud v:nameU="UMLObjectGUID" v:val="VT4({A0359BAA-543E-4CF3-A241-64ED718D2650})"/>
				<v:ud v:nameU="UMLError" v:val="VT0(0):26"/>
				<v:ud v:nameU="UMLPresOption1" v:val="VT0(3):26"/>
				<v:ud v:nameU="UMLVersion" v:val="VT0(2):26"/>
				<v:ud v:nameU="visDescription"
						v:val="VT4(Expresses a decision when guard conditions are used to indicate different possible transitions that are Boolean dependent.)"/>
				<v:ud v:nameU="visVersion" v:val="VT0(14):26"/>
			</v:userDefs>
			<path d="M9.92 79.42 L19.84 89.34 L9.92 99.27 L0 89.34 L9.92 79.42 Z" class="st1"/>
		</g>
		<g id="shape45-33" v:mID="45" v:groupContext="shape" transform="translate(28.2933,-13.5059)">
			<title>Sheet.45</title>
			<path d="M0 99.27 L108.04 99.27" class="st6"/>
		</g>
		<g id="shape46-39" v:mID="46" v:groupContext="shape" transform="translate(126.992,71.5861) rotate(90)">
			<title>Sheet.46</title>
			<path d="M0 99.27 L14.17 99.27" class="st8"/>
		</g>
		<g id="shape34-42" v:mID="34" v:groupContext="shape" transform="translate(30.939,-51.7586)">
			<title>Sheet.34</title>
			<desc>[nmrOfLoads &#62; 0]</desc>
			<v:textBlock v:margins="rect(0,0,0,0)" v:tabSpace="42.5197"/>
			<v:textRect cx="31.1811" cy="93.596" width="62.37" height="11.3386"/>
			<rect x="0" y="87.9267" width="62.3622" height="11.3386" class="st2"/>
			<text x="2.97" y="96" class="st3" v:langID="1031"><v:paragraph v:horizAlign="1"/><v:tabList/>[nmrOfLoads &#62; 0]</text>		</g>
		<g id="shape40-45" v:mID="40" v:groupContext="shape" transform="translate(71.2094,-12.3377) rotate(29.0546)">
			<title>Sheet.40</title>
			<path d="M0 99.27 L11.67 99.27" class="st8"/>
		</g>
	</g>
</svg>
