<?xml version="1.0" encoding="UTF-8"?>
<svg enable-background="new 0 0 500 500" version="1.1" viewBox="0 0 456 356.79" xml:space="preserve" xmlns="http://www.w3.org/2000/svg" xmlns:cc="http://creativecommons.org/ns#" xmlns:dc="http://purl.org/dc/elements/1.1/" xmlns:rdf="http://www.w3.org/1999/02/22-rdf-syntax-ns#"><metadata><rdf:RDF><cc:Work rdf:about=""><dc:format>image/svg+xml</dc:format><dc:type rdf:resource="http://purl.org/dc/dcmitype/StillImage"/><dc:title/></cc:Work></rdf:RDF></metadata><g transform="translate(-24 -89.211)" fill="#474747"><path d="m140.68 153.02c-31.293 0-31.677 36.504-31.677 36.504v234.94c0 7.191 6.065 13.361 13.255 13.492 7.325 0.135 13.745-5.764 13.745-13.059v-122.43c0-2.597 2.403-4.702 5-4.702s5 2.105 5 4.702v121.99c0 7.191 5.565 13.361 12.755 13.492 7.325 0.135 13.245-5.764 13.245-13.059v-236.32s-0.03-35.565-31.323-35.565z"/><circle cx="143.97" cy="117.73" r="28.522"/><path d="m55.677 153.02c-31.294 0-31.677 36.504-31.677 36.504v234.94c0 7.191 5.565 13.361 12.755 13.492 7.325 0.135 13.245-5.764 13.245-13.059v-122.43c0-2.597 2.903-4.702 5.5-4.702s5.5 2.105 5.5 4.702v121.99c0 7.191 5.565 13.361 12.755 13.492 7.325 0.135 13.245-5.764 13.245-13.059v-236.32s-0.03-35.565-31.323-35.565z"/><circle cx="58.483" cy="117.73" r="28.522"/><circle cx="241.66" cy="117.73" r="28.522"/><path d="m239.09 207.14 5.606 14.79c1.841 4.857 6.494 8.069 11.688 8.069h54.615c6.981 0 12.626-5.723 12.498-12.734-0.125-6.882-6.03-12.266-12.912-12.266h-45.57l-11.311-29.84c-3.186-10.075-10.802-22.136-29.028-22.136-31.293 0-31.677 36.504-31.677 36.504v235.03c0 7.056 5.448 13.133 12.499 13.397 7.443 0.278 13.501-5.672 13.501-13.052v-122.43c0-2.597 2.903-4.702 5.5-4.702s5.5 2.105 5.5 4.702v122.08c0 7.056 5.448 13.133 12.499 13.397 7.443 0.278 13.501-5.672 13.501-13.052v-183.91h-5.251c-6.287 0-11.595-4.669-12.398-10.905l-2.839-22.059c-0.281-2.184 2.798-2.954 3.579-0.895z"/><circle cx="419.43" cy="117.73" r="28.522"/><path d="m351 230h53.706c5.224 0 9.898-3.249 11.717-8.146l5.594-15.056c0.769-2.07 3.863-1.308 3.583 0.882l-2.859 22.403c-0.796 6.241-6.108 10.918-12.399 10.918h-5.342v28h63v-79.472s-0.383-36.504-31.677-36.504c-27.243 0-31.979 26.439-32.323 27.555-0.306 0.851-7.985 24.421-7.985 24.421h-44.601c-6.883 0-12.787 5.385-12.912 12.266-0.128 7.01 5.517 12.733 12.498 12.733z"/><path d="m474.02 282h-82.958c-3.901 0-7.064-3.163-7.064-7.064v-27.958c0-3.301-2.676-5.978-5.978-5.978h-85.519c-3.577 0-6.504 2.927-6.504 6.504v0.036c0 3.553 2.907 6.46 6.46 6.46h15.541v192h172v-158.02c0-3.302-2.676-5.978-5.978-5.978z"/></g></svg>
