<?xml version="1.0" encoding="UTF-8" standalone="no"?>
<!DOCTYPE svg PUBLIC "-//W3C//DTD SVG 1.0//EN" "http://www.w3.org/TR/2001/REC-SVG-20010904/DTD/svg10.dtd">
<!-- Generated by Microsoft Visio 11.0, SVG Export, v1.0 LoadHaulDump_CPMa.svg Page-1 -->
<svg xmlns="http://www.w3.org/2000/svg" xmlns:xlink="http://www.w3.org/1999/xlink" xmlns:ev="http://www.w3.org/2001/xml-events"
		xmlns:v="http://schemas.microsoft.com/visio/2003/SVGExtensions/" width="5.0602in" height="1.69406in"
		viewBox="0 0 364.335 121.972" xml:space="preserve" color-interpolation-filters="sRGB" class="st11">
	<v:documentProperties v:langID="1033" v:metric="true" v:viewMarkup="false"/>

	<style type="text/css">
	<![CDATA[
		.st1 {fill:#ffffff;stroke:#000000;stroke-linecap:round;stroke-linejoin:round;stroke-width:0.72}
		.st2 {fill:none;stroke:none;stroke-linecap:round;stroke-linejoin:round;stroke-width:0.75}
		.st3 {fill:#000000;font-family:Calibri;font-size:0.666664em}
		.st4 {fill:#ffffff;stroke:#000000;stroke-linecap:round;stroke-linejoin:round;stroke-width:0.75}
		.st5 {marker-end:url(#mrkr26-24);stroke:#000000;stroke-linecap:round;stroke-linejoin:round;stroke-width:0.5}
		.st6 {fill:#000000;fill-opacity:1;stroke:#000000;stroke-opacity:1;stroke-width:0.13368983957219}
		.st7 {marker-end:url(#mrkr39-30);stroke:#000000;stroke-linecap:round;stroke-linejoin:round;stroke-width:0.5}
		.st8 {fill:#000000;fill-opacity:1;stroke:#000000;stroke-opacity:1;stroke-width:0.21739130434783}
		.st9 {marker-end:url(#mrkr13-44);stroke:#000000;stroke-linecap:round;stroke-linejoin:round;stroke-width:0.5}
		.st10 {font-size:1em}
		.st11 {fill:none;fill-rule:evenodd;font-size:12px;overflow:visible;stroke-linecap:square;stroke-miterlimit:3}
	]]>
	</style>

	<defs id="Markers">
		<g id="lend26">
			<path d="M 1.5 -0.75 L 1.5 0.75 M 2.25 -0.75 L 2.25 0.75 M 3 -0.75 L 3 0.75 "
					style="stroke-linecap:round;stroke-linejoin:round;fill:none"/>
		</g>
		<marker id="mrkr26-24" class="st6" v:arrowType="26" v:arrowSize="3" orient="auto" markerUnits="strokeWidth"
				overflow="visible">
			<use xlink:href="#lend26" transform="scale(-7.48,-7.48) "/>
		</marker>
		<g id="lend39">
			<path d="M 0 0 L 2 -1 L 2 1 L 0 0 M 2 0 L 4 -1 L 4 1 L 2 0 " style="stroke:none"/>
		</g>
		<marker id="mrkr39-30" class="st8" v:arrowType="39" v:arrowSize="1" v:setback="18.4" refX="-18.4" orient="auto"
				markerUnits="strokeWidth" overflow="visible">
			<use xlink:href="#lend39" transform="scale(-4.6,-4.6) "/>
		</marker>
		<g id="lend13">
			<path d="M 3 1 L 0 0 L 3 -1 L 3 1 " style="stroke:none"/>
		</g>
		<marker id="mrkr13-44" class="st8" v:arrowType="13" v:arrowSize="1" v:setback="13.8" refX="-13.8" orient="auto"
				markerUnits="strokeWidth" overflow="visible">
			<use xlink:href="#lend13" transform="scale(-4.6,-4.6) "/>
		</marker>
	</defs>
	<g v:mID="0" v:index="1" v:groupContext="foregroundPage">
		<title>Page-1</title>
		<v:pageProperties v:drawingScale="0.0393701" v:pageScale="0.0393701" v:drawingUnits="24" v:shadowOffsetX="8.50394"
				v:shadowOffsetY="-8.50394"/>
		<g id="group2-1" transform="translate(53.6698,-73.0206)" v:mID="2" v:groupContext="group">
			<v:userDefs>
				<v:ud v:nameU="UMLShapeType" v:val="VT0(40):26"/>
				<v:ud v:nameU="UMLObjectGUID" v:val="VT4({75BC298D-07E4-4B8B-8ECA-F6BACAB3BF8C})"/>
				<v:ud v:nameU="UMLError" v:val="VT0(0):26"/>
				<v:ud v:nameU="UMLPresOption1" v:val="VT0(1):26"/>
				<v:ud v:nameU="UMLSuppressOption" v:val="VT0(32):26"/>
				<v:ud v:nameU="UMLVersion" v:val="VT0(2):26"/>
				<v:ud v:nameU="UMLAutoLockTextEdit" v:val="VT0(1):26"/>
				<v:ud v:nameU="visDescription"
						v:val="VT4(Represents a condition during which an object satisfies some condition, performs an action or waits for an event.)"/>
				<v:ud v:nameU="visVersion" v:val="VT0(14):26"/>
			</v:userDefs>
			<title>State</title>
			<g id="shape3-2" v:mID="3" v:groupContext="shape">
				<title>Sheet.3</title>
				<path d="M9 121.97 L56.64 121.97 A9 9 -180 0 0 65.64 112.97 L65.64 105.46 A9 9 -180 0 0 56.64 96.46 L9 96.46 A9 9
							 -180 0 0 0 105.46 L0 112.97 A9 9 -180 0 0 9 121.97 Z" class="st1"/>
			</g>
			<g id="shape4-4" v:mID="4" v:groupContext="shape">
				<title>Transitions</title>
				<path d="M0 121.97 L53.86 121.97 L0 121.97 Z" class="st2"/>
			</g>
			<g id="shape5-6" v:mID="5" v:groupContext="shape">
				<title>Name</title>
				<desc>go to loading site</desc>
				<v:textBlock v:margins="rect(4,4,4,4)" v:tabSpace="42.5197"/>
				<v:textRect cx="32.8198" cy="109.372" width="65.64" height="25.2"/>
				<rect x="0" y="96.7724" width="65.6395" height="25.2" class="st2"/>
				<text x="4.91" y="111.77" class="st3" v:langID="1031"><v:paragraph v:horizAlign="1"/><v:tabList/>go to loading site</text>			</g>
		</g>
		<g id="shape6-9" v:mID="6" v:groupContext="shape" transform="translate(19.1752,-77.2725)">
			<title>Initial State</title>
			<v:userDefs>
				<v:ud v:nameU="UMLShapeType" v:val="VT0(42):26"/>
				<v:ud v:nameU="UMLObjectGUID" v:val="VT4({12E6E42C-706B-4752-AD0F-4FDDC4619606})"/>
				<v:ud v:nameU="UMLError" v:val="VT0(0):26"/>
				<v:ud v:nameU="UMLPresOptions" v:val="VT0(3):26"/>
				<v:ud v:nameU="UMLVersion" v:val="VT0(2):26"/>
				<v:ud v:nameU="visDescription" v:val="VT4(Represents the point at which a newly created object starts. )"/>
				<v:ud v:nameU="visVersion" v:val="VT0(14):26"/>
			</v:userDefs>
			<path d="M0 113.47 A8.50394 8.50394 0 1 1 17.01 113.47 A8.50394 8.50394 0 0 1 0 113.47 Z" class="st4"/>
		</g>
		<g id="group8-11" transform="translate(141.561,-73.0335)" v:mID="8" v:groupContext="group">
			<v:userDefs>
				<v:ud v:nameU="UMLShapeType" v:val="VT0(40):26"/>
				<v:ud v:nameU="UMLObjectGUID" v:val="VT4({F3DF82E9-5957-4D47-B595-5E7427BFA0E3})"/>
				<v:ud v:nameU="UMLError" v:val="VT0(0):26"/>
				<v:ud v:nameU="UMLPresOption1" v:val="VT0(1):26"/>
				<v:ud v:nameU="UMLSuppressOption" v:val="VT0(32):26"/>
				<v:ud v:nameU="UMLVersion" v:val="VT0(2):26"/>
				<v:ud v:nameU="UMLAutoLockTextEdit" v:val="VT0(1):26"/>
				<v:ud v:nameU="visDescription"
						v:val="VT4(Represents a condition during which an object satisfies some condition, performs an action or waits for an event.)"/>
				<v:ud v:nameU="visVersion" v:val="VT0(14):26"/>
			</v:userDefs>
			<title>State.9</title>
			<g id="shape9-12" v:mID="9" v:groupContext="shape">
				<title>Sheet.9</title>
				<path d="M9 121.97 L45 121.97 A9 9 -180 0 0 54 112.97 L54 105.46 A9 9 -180 0 0 45 96.46 L9 96.46 A9 9 -180 0 0 0
							 105.46 L0 112.97 A9 9 -180 0 0 9 121.97 Z" class="st1"/>
			</g>
			<g id="shape10-14" v:mID="10" v:groupContext="shape">
				<title>Transitions</title>
				<path d="M0 121.97 L53.86 121.97 L0 121.97 Z" class="st2"/>
			</g>
			<g id="shape11-16" v:mID="11" v:groupContext="shape">
				<title>Name</title>
				<desc>load</desc>
				<v:textBlock v:margins="rect(4,4,4,4)" v:tabSpace="42.5197"/>
				<v:textRect cx="27" cy="109.372" width="54" height="25.2"/>
				<rect x="0" y="96.7724" width="54" height="25.2" class="st2"/>
				<text x="19.96" y="111.77" class="st3" v:langID="1031"><v:paragraph v:horizAlign="1"/><v:tabList/>load</text>			</g>
		</g>
		<g id="shape12-19" v:mID="12" v:groupContext="shape" transform="translate(119.239,-85.7764) rotate(-0.0332163)">
			<title>Sheet.12</title>
			<path d="M0 121.97 L22.25 121.97" class="st5"/>
		</g>
		<g id="shape13-25" v:mID="13" v:groupContext="shape" transform="translate(36.1831,-85.7765)">
			<title>Sheet.13</title>
			<path d="M0 121.97 L8.29 121.97" class="st7"/>
		</g>
		<g id="group17-31" transform="translate(214.695,-72.6071)" v:mID="17" v:groupContext="group">
			<v:userDefs>
				<v:ud v:nameU="UMLShapeType" v:val="VT0(40):26"/>
				<v:ud v:nameU="UMLObjectGUID" v:val="VT4({D1965259-06DF-498C-9510-DEE42AF17386})"/>
				<v:ud v:nameU="UMLError" v:val="VT0(0):26"/>
				<v:ud v:nameU="UMLPresOption1" v:val="VT0(1):26"/>
				<v:ud v:nameU="UMLSuppressOption" v:val="VT0(32):26"/>
				<v:ud v:nameU="UMLVersion" v:val="VT0(2):26"/>
				<v:ud v:nameU="UMLAutoLockTextEdit" v:val="VT0(1):26"/>
				<v:ud v:nameU="visDescription"
						v:val="VT4(Represents a condition during which an object satisfies some condition, performs an action or waits for an event.)"/>
				<v:ud v:nameU="visVersion" v:val="VT0(14):26"/>
			</v:userDefs>
			<title>State.17</title>
			<g id="shape18-32" v:mID="18" v:groupContext="shape">
				<title>Sheet.18</title>
				<path d="M9 121.97 L45 121.97 A9 9 -180 0 0 54 112.97 L54 105.46 A9 9 -180 0 0 45 96.46 L9 96.46 A9 9 -180 0 0 0
							 105.46 L0 112.97 A9 9 -180 0 0 9 121.97 Z" class="st1"/>
			</g>
			<g id="shape19-34" v:mID="19" v:groupContext="shape">
				<title>Transitions</title>
				<path d="M0 121.97 L53.86 121.97 L0 121.97 Z" class="st2"/>
			</g>
			<g id="shape20-36" v:mID="20" v:groupContext="shape">
				<title>Name</title>
				<desc>haul</desc>
				<v:textBlock v:margins="rect(4,4,4,4)" v:tabSpace="42.5197"/>
				<v:textRect cx="27" cy="109.372" width="54" height="25.2"/>
				<rect x="0" y="96.7724" width="54" height="25.2" class="st2"/>
				<text x="19.96" y="111.77" class="st3" v:langID="1031"><v:paragraph v:horizAlign="1"/><v:tabList/>haul</text>			</g>
		</g>
		<g id="shape21-39" v:mID="21" v:groupContext="shape" transform="translate(198.279,-85.7591) rotate(1.27663)">
			<title>Sheet.21</title>
			<path d="M0 121.97 L12.24 121.97" class="st9"/>
		</g>
		<g id="group22-45" transform="translate(282.726,-72.6071)" v:mID="22" v:groupContext="group">
			<v:userDefs>
				<v:ud v:nameU="UMLShapeType" v:val="VT0(40):26"/>
				<v:ud v:nameU="UMLObjectGUID" v:val="VT4({58B56F2A-E548-4E08-B3FE-A1374E62FDB3})"/>
				<v:ud v:nameU="UMLError" v:val="VT0(0):26"/>
				<v:ud v:nameU="UMLPresOption1" v:val="VT0(1):26"/>
				<v:ud v:nameU="UMLSuppressOption" v:val="VT0(32):26"/>
				<v:ud v:nameU="UMLVersion" v:val="VT0(2):26"/>
				<v:ud v:nameU="UMLAutoLockTextEdit" v:val="VT0(1):26"/>
				<v:ud v:nameU="visDescription"
						v:val="VT4(Represents a condition during which an object satisfies some condition, performs an action or waits for an event.)"/>
				<v:ud v:nameU="visVersion" v:val="VT0(14):26"/>
			</v:userDefs>
			<title>State.22</title>
			<g id="shape23-46" v:mID="23" v:groupContext="shape">
				<title>Sheet.23</title>
				<path d="M9 121.97 L45 121.97 A9 9 -180 0 0 54 112.97 L54 105.46 A9 9 -180 0 0 45 96.46 L9 96.46 A9 9 -180 0 0 0
							 105.46 L0 112.97 A9 9 -180 0 0 9 121.97 Z" class="st1"/>
			</g>
			<g id="shape24-48" v:mID="24" v:groupContext="shape">
				<title>Transitions</title>
				<path d="M0 121.97 L53.86 121.97 L0 121.97 Z" class="st2"/>
			</g>
			<g id="shape25-50" v:mID="25" v:groupContext="shape">
				<title>Name</title>
				<desc>dump</desc>
				<v:textBlock v:margins="rect(4,4,4,4)" v:tabSpace="42.5197"/>
				<v:textRect cx="27" cy="109.372" width="54" height="25.2"/>
				<rect x="0" y="96.7724" width="54" height="25.2" class="st2"/>
				<text x="17.5" y="111.77" class="st3" v:langID="1031"><v:paragraph v:horizAlign="1"/><v:tabList/>dump</text>			</g>
		</g>
		<g id="shape26-53" v:mID="26" v:groupContext="shape" transform="translate(268.695,-85.363)">
			<title>Sheet.26</title>
			<path d="M0 121.97 L7.13 121.97" class="st9"/>
		</g>
		<g id="shape27-58" v:mID="27" v:groupContext="shape" transform="translate(301.222,-52.0571)">
			<title>Decision.38</title>
			<v:userDefs>
				<v:ud v:nameU="UMLShapeType" v:val="VT0(62):26"/>
				<v:ud v:nameU="UMLObjectGUID" v:val="VT4({C05D8B15-9409-4E90-832B-9859B6EAF4B2})"/>
				<v:ud v:nameU="UMLError" v:val="VT0(0):26"/>
				<v:ud v:nameU="UMLPresOption1" v:val="VT0(3):26"/>
				<v:ud v:nameU="UMLVersion" v:val="VT0(2):26"/>
				<v:ud v:nameU="visDescription"
						v:val="VT4(Expresses a decision when guard conditions are used to indicate different possible transitions that are Boolean dependent.)"/>
				<v:ud v:nameU="visVersion" v:val="VT0(14):26"/>
			</v:userDefs>
			<path d="M9.92 102.13 L19.84 112.05 L9.92 121.97 L0 112.05 L9.92 102.13 Z" class="st1"/>
		</g>
		<g id="shape28-60" v:mID="28" v:groupContext="shape" transform="translate(351.324,171.202) rotate(155.748)">
			<title>Sheet.28</title>
			<path d="M0 121.97 L36.92 121.97" class="st9"/>
		</g>
		<g id="shape29-65" v:mID="29" v:groupContext="shape" transform="translate(323.9,-56.0256)">
			<title>Sheet.29</title>
			<desc>job done?</desc>
			<v:textBlock v:margins="rect(0,0,0,0)" v:tabSpace="42.5197"/>
			<v:textRect cx="19.8425" cy="116.303" width="39.69" height="11.3386"/>
			<rect x="0" y="110.634" width="39.685" height="11.3386" class="st2"/>
			<text x="3.61" y="118.7" class="st3" v:langID="1031"><v:paragraph v:horizAlign="1"/><v:tabList/>job done?</text>		</g>
		<g id="group30-68" transform="translate(178.766,-24.8445)" v:mID="30" v:groupContext="group">
			<v:userDefs>
				<v:ud v:nameU="UMLShapeType" v:val="VT0(40):26"/>
				<v:ud v:nameU="UMLObjectGUID" v:val="VT4({78871F6A-53BC-4C0F-9097-12E866934EEE})"/>
				<v:ud v:nameU="UMLError" v:val="VT0(0):26"/>
				<v:ud v:nameU="UMLPresOption1" v:val="VT0(1):26"/>
				<v:ud v:nameU="UMLSuppressOption" v:val="VT0(32):26"/>
				<v:ud v:nameU="UMLVersion" v:val="VT0(2):26"/>
				<v:ud v:nameU="UMLAutoLockTextEdit" v:val="VT0(1):26"/>
				<v:ud v:nameU="visDescription"
						v:val="VT4(Represents a condition during which an object satisfies some condition, performs an action or waits for an event.)"/>
				<v:ud v:nameU="visVersion" v:val="VT0(14):26"/>
			</v:userDefs>
			<title>State.30</title>
			<g id="shape31-69" v:mID="31" v:groupContext="shape">
				<title>Sheet.31</title>
				<path d="M9 121.97 L73.5 121.97 A9 9 -180 0 0 82.5 112.97 L82.5 105.46 A9 9 -180 0 0 73.5 96.46 L9 96.46 A9 9 -180
							 0 0 0 105.46 L0 112.97 A9 9 -180 0 0 9 121.97 Z" class="st1"/>
			</g>
			<g id="shape32-71" v:mID="32" v:groupContext="shape">
				<title>Transitions</title>
				<path d="M0 121.97 L53.86 121.97 L0 121.97 Z" class="st2"/>
			</g>
			<g id="shape33-73" v:mID="33" v:groupContext="shape">
				<title>Name</title>
				<desc>go back to loading site</desc>
				<v:textBlock v:margins="rect(4,4,4,4)" v:tabSpace="42.5197"/>
				<v:textRect cx="41.2514" cy="109.372" width="82.51" height="25.2"/>
				<rect x="0" y="96.7724" width="82.5027" height="25.2" class="st2"/>
				<text x="4.91" y="111.77" class="st3" v:langID="1031"><v:paragraph v:horizAlign="1"/><v:tabList/>go back to loading site</text>			</g>
		</g>
		<g id="shape34-76" v:mID="34" v:groupContext="shape" transform="translate(63.6849,118.413) rotate(-109.352)">
			<title>Sheet.34</title>
			<path d="M0 121.97 L30.8 121.97" class="st5"/>
		</g>
		<g id="group36-81" transform="translate(284.073,-0.75)" v:mID="36" v:groupContext="group">
			<v:userDefs>
				<v:ud v:nameU="UMLShapeType" v:val="VT0(40):26"/>
				<v:ud v:nameU="UMLObjectGUID" v:val="VT4({5680744E-F645-4AC9-ACA3-90E85D0EDE47})"/>
				<v:ud v:nameU="UMLError" v:val="VT0(0):26"/>
				<v:ud v:nameU="UMLPresOption1" v:val="VT0(1):26"/>
				<v:ud v:nameU="UMLSuppressOption" v:val="VT0(32):26"/>
				<v:ud v:nameU="UMLVersion" v:val="VT0(2):26"/>
				<v:ud v:nameU="UMLAutoLockTextEdit" v:val="VT0(1):26"/>
				<v:ud v:nameU="visDescription"
						v:val="VT4(Represents a condition during which an object satisfies some condition, performs an action or waits for an event.)"/>
				<v:ud v:nameU="visVersion" v:val="VT0(14):26"/>
			</v:userDefs>
			<title>State.36</title>
			<g id="shape37-82" v:mID="37" v:groupContext="shape">
				<title>Sheet.37</title>
				<path d="M9 121.97 L45 121.97 A9 9 -180 0 0 54 112.97 L54 105.46 A9 9 -180 0 0 45 96.46 L9 96.46 A9 9 -180 0 0 0
							 105.46 L0 112.97 A9 9 -180 0 0 9 121.97 Z" class="st1"/>
			</g>
			<g id="shape38-84" v:mID="38" v:groupContext="shape">
				<title>Transitions</title>
				<path d="M0 121.97 L53.86 121.97 L0 121.97 Z" class="st2"/>
			</g>
			<g id="shape39-86" v:mID="39" v:groupContext="shape">
				<title>Name</title>
				<desc>go home</desc>
				<v:textBlock v:margins="rect(4,4,4,4)" v:tabSpace="42.5197"/>
				<v:textRect cx="27" cy="109.372" width="54" height="25.2"/>
				<rect x="0" y="96.7724" width="54" height="25.2" class="st2"/>
				<text x="12.71" y="111.77" class="st3" v:langID="1031"><v:paragraph v:horizAlign="1"/><v:tabList/>go home</text>			</g>
		</g>
		<g id="shape40-89" v:mID="40" v:groupContext="shape" transform="translate(433.116,70.2504) rotate(90.1574)">
			<title>Sheet.40</title>
			<path d="M0 121.97 L18.9 121.97" class="st9"/>
		</g>
		<g id="shape41-94" v:mID="41" v:groupContext="shape" transform="translate(322.482,-41.8524)">
			<title>Sheet.41</title>
			<desc>yes</desc>
			<v:textBlock v:margins="rect(0,0,0,0)" v:tabSpace="42.5197"/>
			<v:textRect cx="7.08661" cy="116.303" width="14.18" height="11.3386"/>
			<rect x="0" y="110.634" width="14.1732" height="11.3386" class="st2"/>
			<text x="1.72" y="118.7" class="st3" v:langID="1031"><v:paragraph v:horizAlign="1"/><v:tabList/>yes</text>		</g>
		<g id="shape42-97" v:mID="42" v:groupContext="shape" transform="translate(275.711,-56.0256)">
			<title>Sheet.42</title>
			<desc>no</desc>
			<v:textBlock v:margins="rect(0,0,0,0)" v:tabSpace="42.5197"/>
			<v:textRect cx="7.21417" cy="116.303" width="14.43" height="11.3386"/>
			<rect x="0" y="110.634" width="14.4283" height="11.3386" class="st2"/>
			<text x="3" y="118.7" class="st3" v:langID="1031"><v:paragraph v:horizAlign="1"/><v:tabList/>no</text>		</g>
		<g id="shape43-100" v:mID="43" v:groupContext="shape" transform="translate(0.75,-64.5295)">
			<title>Sheet.43</title>
			<desc>haul requests</desc>
			<v:textBlock v:margins="rect(0,0,0,0)" v:tabSpace="42.5197"/>
			<v:textRect cx="25.5118" cy="116.303" width="51.03" height="11.3386"/>
			<rect x="0" y="110.634" width="51.0236" height="11.3386" class="st2"/>
			<text x="3.52" y="118.7" class="st3" v:langID="1031"><v:paragraph v:horizAlign="1"/><v:tabList/>haul requests</text>		</g>
		<g id="shape50-103" v:mID="50" v:groupContext="shape" transform="translate(60.2776,-98.5453)">
			<title>Sheet.50</title>
			<desc>truck</desc>
			<v:textBlock v:margins="rect(4,4,4,4)" v:tabSpace="42.5197"/>
			<v:textRect cx="12.7559" cy="116.303" width="25.52" height="11.3386"/>
			<rect x="0" y="110.634" width="25.5118" height="11.3386" class="st2"/>
			<text x="4.41" y="118.7" class="st3" v:langID="1031"><v:paragraph v:horizAlign="1"/><v:tabList/>truck</text>		</g>
		<g id="shape51-106" v:mID="51" v:groupContext="shape" transform="translate(219.018,-98.5453)">
			<title>Sheet.51</title>
			<desc>truck</desc>
			<v:textBlock v:margins="rect(4,4,4,4)" v:tabSpace="42.5197"/>
			<v:textRect cx="12.7559" cy="116.303" width="25.52" height="11.3386"/>
			<rect x="0" y="110.634" width="25.5118" height="11.3386" class="st2"/>
			<text x="4.41" y="118.7" class="st3" v:langID="1031"><v:paragraph v:horizAlign="1"/><v:tabList/>truck</text>		</g>
		<g id="shape52-109" v:mID="52" v:groupContext="shape" transform="translate(288.467,-98.5453)">
			<title>Sheet.52</title>
			<desc>truck</desc>
			<v:textBlock v:margins="rect(4,4,4,4)" v:tabSpace="42.5197"/>
			<v:textRect cx="12.7559" cy="116.303" width="25.52" height="11.3386"/>
			<rect x="0" y="110.634" width="25.5118" height="11.3386" class="st2"/>
			<text x="4.41" y="118.7" class="st3" v:langID="1031"><v:paragraph v:horizAlign="1"/><v:tabList/>truck</text>		</g>
		<g id="shape53-112" v:mID="53" v:groupContext="shape" transform="translate(145.317,-98.5453)">
			<title>Sheet.53</title>
			<desc>wheelloader truck</desc>
			<v:textBlock v:margins="rect(4,4,4,4)" v:tabSpace="42.5197" v:verticalAlign="2"/>
			<v:textRect cx="25.5118" cy="110.634" width="51.03" height="22.6772"/>
			<rect x="0" y="99.2953" width="51.0236" height="22.6772" class="st2"/>
			<text x="4" y="105.97" class="st3" v:langID="1031"><v:paragraph/><v:tabList/>wheelloader<v:newlineChar/><tspan x="4"
						dy="1.2em" class="st10">truck</tspan></text>		</g>
		<g id="shape54-116" v:mID="54" v:groupContext="shape" transform="translate(284.215,-27.6791)">
			<title>Sheet.54</title>
			<desc>truck</desc>
			<v:textBlock v:margins="rect(4,4,4,4)" v:tabSpace="42.5197"/>
			<v:textRect cx="12.7559" cy="116.303" width="25.52" height="11.3386"/>
			<rect x="0" y="110.634" width="25.5118" height="11.3386" class="st2"/>
			<text x="4.41" y="118.7" class="st3" v:langID="1031"><v:paragraph v:horizAlign="1"/><v:tabList/>truck</text>		</g>
		<g id="shape55-119" v:mID="55" v:groupContext="shape" transform="translate(183.585,-50.3563)">
			<title>Sheet.55</title>
			<desc>truck</desc>
			<v:textBlock v:margins="rect(4,4,4,4)" v:tabSpace="42.5197"/>
			<v:textRect cx="12.7559" cy="116.303" width="25.52" height="11.3386"/>
			<rect x="0" y="110.634" width="25.5118" height="11.3386" class="st2"/>
			<text x="4.41" y="118.7" class="st3" v:langID="1031"><v:paragraph v:horizAlign="1"/><v:tabList/>truck</text>		</g>
	</g>
</svg>
