<?xml version="1.0" encoding="UTF-8"?>
<svg class="st10" width="5.0394in" height="1.3684in" color-interpolation-filters="sRGB" version="1.1" viewBox="0 0 362.83 98.523" xml:space="preserve" xmlns="http://www.w3.org/2000/svg" xmlns:cc="http://creativecommons.org/ns#" xmlns:dc="http://purl.org/dc/elements/1.1/" xmlns:rdf="http://www.w3.org/1999/02/22-rdf-syntax-ns#" xmlns:v="http://schemas.microsoft.com/visio/2003/SVGExtensions/" xmlns:xlink="http://www.w3.org/1999/xlink"><metadata><rdf:RDF><cc:Work rdf:about=""><dc:format>image/svg+xml</dc:format><dc:type rdf:resource="http://purl.org/dc/dcmitype/StillImage"/><dc:title/></cc:Work></rdf:RDF></metadata>
	<v:documentProperties v:langID="1033" v:viewMarkup="false"/>

	<style type="text/css">
	<![CDATA[
		.st1 {fill:#ffffff;stroke:#000000;stroke-linecap:round;stroke-linejoin:round;stroke-width:0.72}
		.st2 {fill:none;stroke:none;stroke-linecap:round;stroke-linejoin:round;stroke-width:0.75}
		.st3 {fill:#000000;font-family:Calibri;font-size:0.666664em}
		.st4 {fill:#ffffff;stroke:#000000;stroke-linecap:round;stroke-linejoin:round;stroke-width:0.75}
		.st5 {marker-end:url(#mrkr26-24);stroke:#000000;stroke-linecap:round;stroke-linejoin:round;stroke-width:0.5}
		.st6 {fill:#000000;fill-opacity:1;stroke:#000000;stroke-opacity:1;stroke-width:0.13368983957219}
		.st7 {marker-end:url(#mrkr39-30);stroke:#000000;stroke-linecap:round;stroke-linejoin:round;stroke-width:0.5}
		.st8 {fill:#000000;fill-opacity:1;stroke:#000000;stroke-opacity:1;stroke-width:0.21739130434783}
		.st9 {marker-end:url(#mrkr13-44);stroke:#000000;stroke-linecap:round;stroke-linejoin:round;stroke-width:0.5}
		.st10 {fill:none;fill-rule:evenodd;font-size:12px;overflow:visible;stroke-linecap:square;stroke-miterlimit:3}
	]]>
	</style>

	<defs id="Markers"><g id="lend26">
			<path d="m1.5-0.75v1.5m0.75-1.5v1.5m0.75-1.5v1.5" fill="none" stroke-linecap="round" stroke-linejoin="round"/>
		</g><marker id="mrkr26-24" class="st6" overflow="visible" orient="auto" v:arrowSize="3" v:arrowType="26">
			<use transform="scale(-7.48)" width="100%" height="100%" xlink:href="#lend26"/>
		</marker><g id="lend39">
			<path d="m0 0 2-1v2l-2-1m2 0 2-1v2l-2-1"/>
		</g><marker id="mrkr39-30" class="st8" overflow="visible" orient="auto" refX="-18.4" v:arrowSize="1" v:arrowType="39" v:setback="18.4">
			<use transform="scale(-4.6)" width="100%" height="100%" xlink:href="#lend39"/>
		</marker><g id="lend13">
			<path d="m3 1-3-1 3-1v2"/>
		</g><marker id="mrkr13-44" class="st8" overflow="visible" orient="auto" refX="-13.8" v:arrowSize="1" v:arrowType="13" v:setback="13.8">
			<use transform="scale(-4.6)" width="100%" height="100%" xlink:href="#lend13"/>
		</marker></defs>
	<g transform="translate(-.75061 -.3565)" v:groupContext="foregroundPage" v:index="1" v:mID="0">
		<title>Page-1</title>
		<v:pageProperties v:drawingScale="0.0393701" v:drawingUnits="24" v:pageScale="0.0393701" v:shadowOffsetX="8.50394" v:shadowOffsetY="-8.50394"/>
		<g transform="translate(53.67 -73.021)" v:groupContext="group" v:mID="2">
			<v:userDefs>
				<v:ud v:nameU="UMLShapeType" v:val="VT0(40):26"/>
				<v:ud v:nameU="UMLObjectGUID" v:val="VT4({75BC298D-07E4-4B8B-8ECA-F6BACAB3BF8C})"/>
				<v:ud v:nameU="UMLError" v:val="VT0(0):26"/>
				<v:ud v:nameU="UMLPresOption1" v:val="VT0(1):26"/>
				<v:ud v:nameU="UMLSuppressOption" v:val="VT0(32):26"/>
				<v:ud v:nameU="UMLVersion" v:val="VT0(2):26"/>
				<v:ud v:nameU="UMLAutoLockTextEdit" v:val="VT0(1):26"/>
				<v:ud v:nameU="visDescription" v:val="VT4(Represents a condition during which an object satisfies some condition, performs an action or waits for an event.)"/>
				<v:ud v:nameU="visVersion" v:val="VT0(14):26"/>
			</v:userDefs>
			<title>State</title>
			<g v:groupContext="shape" v:mID="3">
				<title>Sheet.3</title>
				<path class="st1" d="m9 99.27h47.64a9 9-180 0 0 9-9v-7.52a9 9-180 0 0-9-9h-47.64a9 9-180 0 0-9 9v7.52a9 9-180 0 0 9 9z"/>
			</g>
			<g v:groupContext="shape" v:mID="4">
				<title>Transitions</title>
				<path class="st2" d="m0 99.27h53.86z"/>
			</g>
			<g v:groupContext="shape" v:mID="5">
				<title>Name</title>
				<desc>go to loading site</desc>
				<v:textBlock v:margins="rect(4,4,4,4)" v:tabSpace="42.5197"/>
				<v:textRect width="65.64" height="25.2" cx="32.8198" cy="86.6653"/>
				<rect class="st2" y="74.065" width="65.64" height="25.2"/>
				<text class="st3" x="4.9099998" y="89.07" v:langID="1031"><v:paragraph v:horizAlign="1"/><v:tabList/>go to loading site</text>			</g>
		</g>
		<g transform="translate(19.175 -77.272)" v:groupContext="shape" v:mID="6">
			<title>Initial State</title>
			<v:userDefs>
				<v:ud v:nameU="UMLShapeType" v:val="VT0(42):26"/>
				<v:ud v:nameU="UMLObjectGUID" v:val="VT4({12E6E42C-706B-4752-AD0F-4FDDC4619606})"/>
				<v:ud v:nameU="UMLError" v:val="VT0(0):26"/>
				<v:ud v:nameU="UMLPresOptions" v:val="VT0(3):26"/>
				<v:ud v:nameU="UMLVersion" v:val="VT0(2):26"/>
				<v:ud v:nameU="visDescription" v:val="VT4(Represents the point at which a newly created object starts. )"/>
				<v:ud v:nameU="visVersion" v:val="VT0(14):26"/>
			</v:userDefs>
			<path class="st4" d="m0 90.76a8.505 8.505 0 1 1 17.01 0 8.505 8.505 0 0 1-17.01 0z"/>
		</g>
		<g transform="translate(141.56 -73.034)" v:groupContext="group" v:mID="8">
			<v:userDefs>
				<v:ud v:nameU="UMLShapeType" v:val="VT0(40):26"/>
				<v:ud v:nameU="UMLObjectGUID" v:val="VT4({F3DF82E9-5957-4D47-B595-5E7427BFA0E3})"/>
				<v:ud v:nameU="UMLError" v:val="VT0(0):26"/>
				<v:ud v:nameU="UMLPresOption1" v:val="VT0(1):26"/>
				<v:ud v:nameU="UMLSuppressOption" v:val="VT0(32):26"/>
				<v:ud v:nameU="UMLVersion" v:val="VT0(2):26"/>
				<v:ud v:nameU="UMLAutoLockTextEdit" v:val="VT0(1):26"/>
				<v:ud v:nameU="visDescription" v:val="VT4(Represents a condition during which an object satisfies some condition, performs an action or waits for an event.)"/>
				<v:ud v:nameU="visVersion" v:val="VT0(14):26"/>
			</v:userDefs>
			<title>State.9</title>
			<g v:groupContext="shape" v:mID="9">
				<title>Sheet.9</title>
				<path class="st1" d="m9 99.27h36a9 9-180 0 0 9-9v-7.52a9 9-180 0 0-9-9h-36a9 9-180 0 0-9 9v7.52a9 9-180 0 0 9 9z"/>
			</g>
			<g v:groupContext="shape" v:mID="10">
				<title>Transitions</title>
				<path class="st2" d="m0 99.27h53.86z"/>
			</g>
			<g v:groupContext="shape" v:mID="11">
				<title>Name</title>
				<desc>load</desc>
				<v:textBlock v:margins="rect(4,4,4,4)" v:tabSpace="42.5197"/>
				<v:textRect width="54" height="25.2" cx="27" cy="86.6653"/>
				<rect class="st2" y="74.065" width="54" height="25.2"/>
				<text class="st3" x="19.959999" y="89.07" v:langID="1031"><v:paragraph v:horizAlign="1"/><v:tabList/>load</text>			</g>
		</g>
		<g transform="rotate(-.033216 -147899 -205744)" v:groupContext="shape" v:mID="12">
			<title>Sheet.12</title>
			<path class="st5" d="m0 99.27h22.25"/>
		</g>
		<g transform="translate(36.183 -85.776)" v:groupContext="shape" v:mID="13">
			<title>Sheet.13</title>
			<path class="st7" d="m0 99.27h8.29"/>
		</g>
		<g transform="translate(214.7 -72.607)" v:groupContext="group" v:mID="17">
			<v:userDefs>
				<v:ud v:nameU="UMLShapeType" v:val="VT0(40):26"/>
				<v:ud v:nameU="UMLObjectGUID" v:val="VT4({D1965259-06DF-498C-9510-DEE42AF17386})"/>
				<v:ud v:nameU="UMLError" v:val="VT0(0):26"/>
				<v:ud v:nameU="UMLPresOption1" v:val="VT0(1):26"/>
				<v:ud v:nameU="UMLSuppressOption" v:val="VT0(32):26"/>
				<v:ud v:nameU="UMLVersion" v:val="VT0(2):26"/>
				<v:ud v:nameU="UMLAutoLockTextEdit" v:val="VT0(1):26"/>
				<v:ud v:nameU="visDescription" v:val="VT4(Represents a condition during which an object satisfies some condition, performs an action or waits for an event.)"/>
				<v:ud v:nameU="visVersion" v:val="VT0(14):26"/>
			</v:userDefs>
			<title>State.17</title>
			<g v:groupContext="shape" v:mID="18">
				<title>Sheet.18</title>
				<path class="st1" d="m9 99.27h36a9 9-180 0 0 9-9v-7.52a9 9-180 0 0-9-9h-36a9 9-180 0 0-9 9v7.52a9 9-180 0 0 9 9z"/>
			</g>
			<g v:groupContext="shape" v:mID="19">
				<title>Transitions</title>
				<path class="st2" d="m0 99.27h53.86z"/>
			</g>
			<g v:groupContext="shape" v:mID="20">
				<title>Name</title>
				<desc>haul</desc>
				<v:textBlock v:margins="rect(4,4,4,4)" v:tabSpace="42.5197"/>
				<v:textRect width="54" height="25.2" cx="27" cy="86.6653"/>
				<rect class="st2" y="74.065" width="54" height="25.2"/>
				<text class="st3" x="19.959999" y="89.07" v:langID="1031"><v:paragraph v:horizAlign="1"/><v:tabList/>haul</text>			</g>
		</g>
		<g transform="rotate(1.2766 3947.9 8832.9)" v:groupContext="shape" v:mID="21">
			<title>Sheet.21</title>
			<path class="st9" d="m0 99.27h12.24"/>
		</g>
		<g transform="translate(282.73 -72.607)" v:groupContext="group" v:mID="22">
			<v:userDefs>
				<v:ud v:nameU="UMLShapeType" v:val="VT0(40):26"/>
				<v:ud v:nameU="UMLObjectGUID" v:val="VT4({58B56F2A-E548-4E08-B3FE-A1374E62FDB3})"/>
				<v:ud v:nameU="UMLError" v:val="VT0(0):26"/>
				<v:ud v:nameU="UMLPresOption1" v:val="VT0(1):26"/>
				<v:ud v:nameU="UMLSuppressOption" v:val="VT0(32):26"/>
				<v:ud v:nameU="UMLVersion" v:val="VT0(2):26"/>
				<v:ud v:nameU="UMLAutoLockTextEdit" v:val="VT0(1):26"/>
				<v:ud v:nameU="visDescription" v:val="VT4(Represents a condition during which an object satisfies some condition, performs an action or waits for an event.)"/>
				<v:ud v:nameU="visVersion" v:val="VT0(14):26"/>
			</v:userDefs>
			<title>State.22</title>
			<g v:groupContext="shape" v:mID="23">
				<title>Sheet.23</title>
				<path class="st1" d="m9 99.27h36a9 9-180 0 0 9-9v-7.52a9 9-180 0 0-9-9h-36a9 9-180 0 0-9 9v7.52a9 9-180 0 0 9 9z"/>
			</g>
			<g v:groupContext="shape" v:mID="24">
				<title>Transitions</title>
				<path class="st2" d="m0 99.27h53.86z"/>
			</g>
			<g v:groupContext="shape" v:mID="25">
				<title>Name</title>
				<desc>dump</desc>
				<v:textBlock v:margins="rect(4,4,4,4)" v:tabSpace="42.5197"/>
				<v:textRect width="54" height="25.2" cx="27" cy="86.6653"/>
				<rect class="st2" y="74.065" width="54" height="25.2"/>
				<text class="st3" x="17.5" y="89.07" v:langID="1031"><v:paragraph v:horizAlign="1"/><v:tabList/>dump</text>			</g>
		</g>
		<g transform="translate(268.7 -85.363)" v:groupContext="shape" v:mID="26">
			<title>Sheet.26</title>
			<path class="st9" d="m0 99.27h7.13"/>
		</g>
		<g transform="translate(301.22 -52.057)" v:groupContext="shape" v:mID="27">
			<title>Decision.38</title>
			<v:userDefs>
				<v:ud v:nameU="UMLShapeType" v:val="VT0(62):26"/>
				<v:ud v:nameU="UMLObjectGUID" v:val="VT4({C05D8B15-9409-4E90-832B-9859B6EAF4B2})"/>
				<v:ud v:nameU="UMLError" v:val="VT0(0):26"/>
				<v:ud v:nameU="UMLPresOption1" v:val="VT0(3):26"/>
				<v:ud v:nameU="UMLVersion" v:val="VT0(2):26"/>
				<v:ud v:nameU="visDescription" v:val="VT4(Expresses a decision when guard conditions are used to indicate different possible transitions that are Boolean dependent.)"/>
				<v:ud v:nameU="visVersion" v:val="VT0(14):26"/>
			</v:userDefs>
			<path class="st1" d="m9.92 79.42 9.92 9.92-9.92 9.93-9.92-9.93z"/>
		</g>
		<g transform="rotate(155.75 157.27 100.64)" v:groupContext="shape" v:mID="28">
			<title>Sheet.28</title>
			<path class="st9" d="m0 99.27h36.92"/>
		</g>
		<g transform="translate(323.9 -56.026)" v:groupContext="shape" v:mID="29">
			<title>Sheet.29</title>
			<desc>job done?</desc>
			<v:textBlock v:margins="rect(0,0,0,0)" v:tabSpace="42.5197"/>
			<v:textRect width="39.69" height="11.3386" cx="19.8425" cy="93.596"/>
			<rect class="st2" y="87.927" width="39.685" height="11.339"/>
			<text class="st3" x="3.6099999" y="96" v:langID="1031"><v:paragraph v:horizAlign="1"/><v:tabList/>job done?</text>		</g>
		<g transform="translate(178.77 -24.844)" v:groupContext="group" v:mID="30">
			<v:userDefs>
				<v:ud v:nameU="UMLShapeType" v:val="VT0(40):26"/>
				<v:ud v:nameU="UMLObjectGUID" v:val="VT4({78871F6A-53BC-4C0F-9097-12E866934EEE})"/>
				<v:ud v:nameU="UMLError" v:val="VT0(0):26"/>
				<v:ud v:nameU="UMLPresOption1" v:val="VT0(1):26"/>
				<v:ud v:nameU="UMLSuppressOption" v:val="VT0(32):26"/>
				<v:ud v:nameU="UMLVersion" v:val="VT0(2):26"/>
				<v:ud v:nameU="UMLAutoLockTextEdit" v:val="VT0(1):26"/>
				<v:ud v:nameU="visDescription" v:val="VT4(Represents a condition during which an object satisfies some condition, performs an action or waits for an event.)"/>
				<v:ud v:nameU="visVersion" v:val="VT0(14):26"/>
			</v:userDefs>
			<title>State.30</title>
			<g v:groupContext="shape" v:mID="31">
				<title>Sheet.31</title>
				<path class="st1" d="m9 99.27h64.5a9 9-180 0 0 9-9v-7.52a9 9-180 0 0-9-9h-64.5a9 9-180 0 0-9 9v7.52a9 9-180 0 0 9 9z"/>
			</g>
			<g v:groupContext="shape" v:mID="32">
				<title>Transitions</title>
				<path class="st2" d="m0 99.27h53.86z"/>
			</g>
			<g v:groupContext="shape" v:mID="33">
				<title>Name</title>
				<desc>go back to loading site</desc>
				<v:textBlock v:margins="rect(4,4,4,4)" v:tabSpace="42.5197"/>
				<v:textRect width="82.51" height="25.2" cx="41.2514" cy="86.6653"/>
				<rect class="st2" y="74.065" width="82.503" height="25.2"/>
				<text class="st3" x="4.9099998" y="89.07" v:langID="1031"><v:paragraph v:horizAlign="1"/><v:tabList/>go back to loading site</text>			</g>
		</g>
		<g transform="rotate(250.65 73.8 13.933)" v:groupContext="shape" v:mID="34">
			<title>Sheet.34</title>
			<path class="st5" d="m0 99.27h30.8"/>
		</g>
		<g transform="translate(284.07 -.75)" v:groupContext="group" v:mID="36">
			<v:userDefs>
				<v:ud v:nameU="UMLShapeType" v:val="VT0(40):26"/>
				<v:ud v:nameU="UMLObjectGUID" v:val="VT4({5680744E-F645-4AC9-ACA3-90E85D0EDE47})"/>
				<v:ud v:nameU="UMLError" v:val="VT0(0):26"/>
				<v:ud v:nameU="UMLPresOption1" v:val="VT0(1):26"/>
				<v:ud v:nameU="UMLSuppressOption" v:val="VT0(32):26"/>
				<v:ud v:nameU="UMLVersion" v:val="VT0(2):26"/>
				<v:ud v:nameU="UMLAutoLockTextEdit" v:val="VT0(1):26"/>
				<v:ud v:nameU="visDescription" v:val="VT4(Represents a condition during which an object satisfies some condition, performs an action or waits for an event.)"/>
				<v:ud v:nameU="visVersion" v:val="VT0(14):26"/>
			</v:userDefs>
			<title>State.36</title>
			<g v:groupContext="shape" v:mID="37">
				<title>Sheet.37</title>
				<path class="st1" d="m9 99.27h36a9 9-180 0 0 9-9v-7.52a9 9-180 0 0-9-9h-36a9 9-180 0 0-9 9v7.52a9 9-180 0 0 9 9z"/>
			</g>
			<g v:groupContext="shape" v:mID="38">
				<title>Transitions</title>
				<path class="st2" d="m0 99.27h53.86z"/>
			</g>
			<g v:groupContext="shape" v:mID="39">
				<title>Name</title>
				<desc>go home</desc>
				<v:textBlock v:margins="rect(4,4,4,4)" v:tabSpace="42.5197"/>
				<v:textRect width="54" height="25.2" cx="27" cy="86.6653"/>
				<rect class="st2" y="74.065" width="54" height="25.2"/>
				<text class="st3" x="12.71" y="89.07" v:langID="1031"><v:paragraph v:horizAlign="1"/><v:tabList/>go home</text>			</g>
		</g>
		<g transform="rotate(90.157 181.53 228.38)" v:groupContext="shape" v:mID="40">
			<title>Sheet.40</title>
			<path class="st9" d="m0 99.27h18.9"/>
		</g>
		<g transform="translate(322.48 -41.852)" v:groupContext="shape" v:mID="41">
			<title>Sheet.41</title>
			<desc>yes</desc>
			<v:textBlock v:margins="rect(0,0,0,0)" v:tabSpace="42.5197"/>
			<v:textRect width="14.18" height="11.3386" cx="7.08661" cy="93.596"/>
			<rect class="st2" y="87.927" width="14.173" height="11.339"/>
			<text class="st3" x="1.72" y="96" v:langID="1031"><v:paragraph v:horizAlign="1"/><v:tabList/>yes</text>		</g>
		<g transform="translate(275.71 -56.026)" v:groupContext="shape" v:mID="42">
			<title>Sheet.42</title>
			<desc>no</desc>
			<v:textBlock v:margins="rect(0,0,0,0)" v:tabSpace="42.5197"/>
			<v:textRect width="14.43" height="11.3386" cx="7.21417" cy="93.596"/>
			<rect class="st2" y="87.927" width="14.428" height="11.339"/>
			<text class="st3" x="3" y="96" v:langID="1031"><v:paragraph v:horizAlign="1"/><v:tabList/>no</text>		</g>
		<g transform="translate(.75 -64.53)" v:groupContext="shape" v:mID="43">
			<title>Sheet.43</title>
			<desc>haul requests</desc>
			<v:textBlock v:margins="rect(0,0,0,0)" v:tabSpace="42.5197"/>
			<v:textRect width="51.03" height="11.3386" cx="25.5118" cy="93.596"/>
			<rect class="st2" y="87.927" width="51.024" height="11.339"/>
			<text class="st3" x="3.52" y="96" v:langID="1031"><v:paragraph v:horizAlign="1"/><v:tabList/>haul requests</text>		</g>
		
	</g>
</svg>
