<?xml version="1.0" encoding="UTF-8" standalone="no"?>
<!-- Created with Inkscape (http://www.inkscape.org/) -->

<svg
   xmlns:dc="http://purl.org/dc/elements/1.1/"
   xmlns:cc="http://creativecommons.org/ns#"
   xmlns:rdf="http://www.w3.org/1999/02/22-rdf-syntax-ns#"
   xmlns:svg="http://www.w3.org/2000/svg"
   xmlns="http://www.w3.org/2000/svg"
   version="1.1"
   width="16.104273"
   height="16.104273"
   viewBox="0 0 161.04273 161.04273"
   id="svg2"
   xml:space="preserve"
   style="fill-rule:nonzero"><title
     id="title4">nav_up icon</title><desc
     id="desc6">nav_up icon from the IconExperience.com O-Collection. Copyright by INCORS GmbH (www.incors.com).</desc><metadata
     id="metadata14"><rdf:RDF><cc:Work
         rdf:about=""><dc:format>image/svg+xml</dc:format><dc:type
           rdf:resource="http://purl.org/dc/dcmitype/StillImage" /><dc:title>nav_up icon</dc:title></cc:Work></rdf:RDF></metadata><defs
     id="defs12" /><path
     d="M 37.870203,66.645801 76.459345,28.056662 c 2.228711,-2.228717 5.895322,-2.228717 8.124033,0 l 38.589142,38.589139 c 2.22872,2.22872 3.36104,4.960697 3.36104,8.124039 l 0,20.8313 c 0,1.186264 -0.68299,2.192769 -1.77938,2.660075 -1.09638,0.449347 -2.28263,0.215693 -3.12739,-0.629067 l -29.602378,-29.602383 0,58.503795 c 0,3.16335 -2.588182,5.75153 -5.751521,5.75153 l -11.503051,0 c -3.163342,0 -5.751528,-2.58818 -5.751528,-5.75153 l 0,-58.503795 -29.602387,29.602383 c -0.844757,0.84476 -2.031009,1.078414 -3.127393,0.629067 -1.096385,-0.467306 -1.779379,-1.473811 -1.779379,-2.660075 l 0,-20.8313 c 0,-3.163342 1.132332,-5.895319 3.36105,-8.124039 z"
     id="curve1"
     style="fill:#4d82b8" /><path
     d="m 161.04272,80.521362 c 0,44.466468 -36.05489,80.521358 -80.521358,80.521358 C 36.054877,161.04272 0,124.98783 0,80.521362 0,36.054877 36.054877,0 80.521362,0 124.98783,0 161.04272,36.054877 161.04272,80.521362 z M 80.521362,149.53967 c 38.121818,0 69.018308,-30.89649 69.018308,-69.018308 0,-38.121835 -30.89649,-69.018311 -69.018308,-69.018311 -38.121835,0 -69.018311,30.896476 -69.018311,69.018311 0,38.121818 30.896476,69.018308 69.018311,69.018308 z"
     id="curve0"
     style="fill:#4d82b8" /></svg>