<?xml version="1.0" encoding="UTF-8" standalone="no"?>
<!DOCTYPE svg PUBLIC "-//W3C//DTD SVG 1.0//EN" "http://www.w3.org/TR/2001/REC-SVG-20010904/DTD/svg10.dtd">
<!-- Generated by Microsoft Visio 11.0, SVG Export, v1.0 CPM.svg Page-1 -->
<svg xmlns="http://www.w3.org/2000/svg" xmlns:xlink="http://www.w3.org/1999/xlink" xmlns:ev="http://www.w3.org/2001/xml-events"
		xmlns:v="http://schemas.microsoft.com/visio/2003/SVGExtensions/" width="5.11926in" height="1.24089in"
		viewBox="0 0 368.587 89.344" xml:space="preserve" color-interpolation-filters="sRGB" class="st10">
	<v:documentProperties v:langID="1033" v:viewMarkup="false"/>

	<style type="text/css">
	<![CDATA[
		.st1 {fill:#ffffff;stroke:#000000;stroke-linecap:round;stroke-linejoin:round;stroke-width:0.72}
		.st2 {fill:none;stroke:none;stroke-linecap:round;stroke-linejoin:round;stroke-width:0.75}
		.st3 {fill:#000000;font-family:Calibri;font-size:0.666664em}
		.st4 {fill:#ffffff;stroke:#000000;stroke-linecap:round;stroke-linejoin:round;stroke-width:0.75}
		.st5 {marker-end:url(#mrkr26-24);stroke:#000000;stroke-linecap:round;stroke-linejoin:round;stroke-width:0.25}
		.st6 {fill:#000000;fill-opacity:1;stroke:#000000;stroke-opacity:1;stroke-width:0.07163323782235}
		.st7 {marker-end:url(#mrkr13-30);stroke:#000000;stroke-linecap:round;stroke-linejoin:round;stroke-width:0.5}
		.st8 {fill:#000000;fill-opacity:1;stroke:#000000;stroke-opacity:1;stroke-width:0.21739130434783}
		.st9 {stroke:#000000;stroke-linecap:round;stroke-linejoin:round;stroke-width:0.25}
		.st10 {fill:none;fill-rule:evenodd;font-size:12px;overflow:visible;stroke-linecap:square;stroke-miterlimit:3}
	]]>
	</style>

	<defs id="Markers">
		<g id="lend26">
			<path d="M 1.5 -0.75 L 1.5 0.75 M 2.25 -0.75 L 2.25 0.75 M 3 -0.75 L 3 0.75 "
					style="stroke-linecap:round;stroke-linejoin:round;fill:none"/>
		</g>
		<marker id="mrkr26-24" class="st6" v:arrowType="26" v:arrowSize="3" orient="auto" markerUnits="strokeWidth"
				overflow="visible">
			<use xlink:href="#lend26" transform="scale(-13.96,-13.96) "/>
		</marker>
		<g id="lend13">
			<path d="M 3 1 L 0 0 L 3 -1 L 3 1 " style="stroke:none"/>
		</g>
		<marker id="mrkr13-30" class="st8" v:arrowType="13" v:arrowSize="1" v:setback="13.8" refX="-13.8" orient="auto"
				markerUnits="strokeWidth" overflow="visible">
			<use xlink:href="#lend13" transform="scale(-4.6,-4.6) "/>
		</marker>
	</defs>
	<g v:mID="0" v:index="1" v:groupContext="foregroundPage">
		<title>Page-1</title>
		<v:pageProperties v:drawingScale="0.0393701" v:pageScale="0.0393701" v:drawingUnits="24" v:shadowOffsetX="8.50394"
				v:shadowOffsetY="-8.50394"/>
		<g id="group2-1" transform="translate(47.9304,-63.0993)" v:mID="2" v:groupContext="group">
			<v:userDefs>
				<v:ud v:nameU="UMLShapeType" v:val="VT0(40):26"/>
				<v:ud v:nameU="UMLObjectGUID" v:val="VT4({75BC298D-07E4-4B8B-8ECA-F6BACAB3BF8C})"/>
				<v:ud v:nameU="UMLError" v:val="VT0(0):26"/>
				<v:ud v:nameU="UMLPresOption1" v:val="VT0(1):26"/>
				<v:ud v:nameU="UMLSuppressOption" v:val="VT0(32):26"/>
				<v:ud v:nameU="UMLVersion" v:val="VT0(2):26"/>
				<v:ud v:nameU="UMLAutoLockTextEdit" v:val="VT0(1):26"/>
				<v:ud v:nameU="visDescription"
						v:val="VT4(Represents a condition during which an object satisfies some condition, performs an action or waits for an event.)"/>
				<v:ud v:nameU="visVersion" v:val="VT0(14):26"/>
			</v:userDefs>
			<title>State</title>
			<g id="shape3-2" v:mID="3" v:groupContext="shape">
				<title>Sheet.3</title>
				<path d="M9 89.34 L55.79 89.34 A9 9 -180 0 0 64.79 80.34 L64.79 72.83 A9 9 -180 0 0 55.79 63.83 L9 63.83 A9 9 -180
							 0 0 0 72.83 L0 80.34 A9 9 -180 0 0 9 89.34 Z" class="st1"/>
			</g>
			<g id="shape4-4" v:mID="4" v:groupContext="shape">
				<title>Transitions</title>
				<path d="M0 89.34 L53.86 89.34 L0 89.34 Z" class="st2"/>
			</g>
			<g id="shape5-6" v:mID="5" v:groupContext="shape">
				<title>Name</title>
				<desc>GoToLoadingSite</desc>
				<v:textBlock v:margins="rect(4,4,4,4)" v:tabSpace="42.5197"/>
				<v:textRect cx="32.394" cy="76.744" width="64.79" height="25.2"/>
				<rect x="0" y="64.144" width="64.7881" height="25.2" class="st2"/>
				<text x="4.91" y="79.14" class="st3" v:langID="1031"><v:paragraph v:horizAlign="1"/><v:tabList/>GoToLoadingSite</text>			</g>
		</g>
		<g id="shape6-9" v:mID="6" v:groupContext="shape" transform="translate(15.3292,-67.3513)">
			<title>Initial State</title>
			<v:userDefs>
				<v:ud v:nameU="UMLShapeType" v:val="VT0(42):26"/>
				<v:ud v:nameU="UMLObjectGUID" v:val="VT4({12E6E42C-706B-4752-AD0F-4FDDC4619606})"/>
				<v:ud v:nameU="UMLError" v:val="VT0(0):26"/>
				<v:ud v:nameU="UMLPresOptions" v:val="VT0(3):26"/>
				<v:ud v:nameU="UMLVersion" v:val="VT0(2):26"/>
				<v:ud v:nameU="visDescription" v:val="VT4(Represents the point at which a newly created object starts. )"/>
				<v:ud v:nameU="visVersion" v:val="VT0(14):26"/>
			</v:userDefs>
			<path d="M0 80.84 A8.50394 8.50394 0 1 1 17.01 80.84 A8.50394 8.50394 0 0 1 0 80.84 Z" class="st4"/>
		</g>
		<g id="group8-11" transform="translate(150.915,-63.1122)" v:mID="8" v:groupContext="group">
			<v:userDefs>
				<v:ud v:nameU="UMLShapeType" v:val="VT0(40):26"/>
				<v:ud v:nameU="UMLObjectGUID" v:val="VT4({F3DF82E9-5957-4D47-B595-5E7427BFA0E3})"/>
				<v:ud v:nameU="UMLError" v:val="VT0(0):26"/>
				<v:ud v:nameU="UMLPresOption1" v:val="VT0(1):26"/>
				<v:ud v:nameU="UMLSuppressOption" v:val="VT0(32):26"/>
				<v:ud v:nameU="UMLVersion" v:val="VT0(2):26"/>
				<v:ud v:nameU="UMLAutoLockTextEdit" v:val="VT0(1):26"/>
				<v:ud v:nameU="visDescription"
						v:val="VT4(Represents a condition during which an object satisfies some condition, performs an action or waits for an event.)"/>
				<v:ud v:nameU="visVersion" v:val="VT0(14):26"/>
			</v:userDefs>
			<title>State.9</title>
			<g id="shape9-12" v:mID="9" v:groupContext="shape">
				<title>Sheet.9</title>
				<path d="M9 89.34 L45 89.34 A9 9 -180 0 0 54 80.34 L54 72.83 A9 9 -180 0 0 45 63.83 L9 63.83 A9 9 -180 0 0 0 72.83
							 L0 80.34 A9 9 -180 0 0 9 89.34 Z" class="st1"/>
			</g>
			<g id="shape10-14" v:mID="10" v:groupContext="shape">
				<title>Transitions</title>
				<path d="M0 89.34 L53.86 89.34 L0 89.34 Z" class="st2"/>
			</g>
			<g id="shape11-16" v:mID="11" v:groupContext="shape">
				<title>Name</title>
				<desc>Load</desc>
				<v:textBlock v:margins="rect(4,4,4,4)" v:tabSpace="42.5197"/>
				<v:textRect cx="27" cy="76.744" width="54" height="25.2"/>
				<rect x="0" y="64.144" width="54" height="25.2" class="st2"/>
				<text x="19.19" y="79.14" class="st3" v:langID="1031"><v:paragraph v:horizAlign="1"/><v:tabList/>Load</text>			</g>
		</g>
		<g id="shape12-19" v:mID="12" v:groupContext="shape" transform="translate(112.654,-75.8552) rotate(-0.041388)">
			<title>Sheet.12</title>
			<path d="M0 89.34 L17.86 89.34" class="st5"/>
		</g>
		<g id="shape13-25" v:mID="13" v:groupContext="shape" transform="translate(32.337,-75.8552)">
			<title>Sheet.13</title>
			<path d="M0 89.34 L8.69 89.34" class="st7"/>
		</g>
		<g id="shape14-31" v:mID="14" v:groupContext="shape" transform="translate(166.752,19.5716) rotate(90)">
			<title>Sheet.14</title>
			<path d="M0 89.34 L2.83 89.34" class="st9"/>
		</g>
		<g id="shape15-34" v:mID="15" v:groupContext="shape" transform="translate(167.886,19.5716) rotate(90)">
			<title>Sheet.15</title>
			<path d="M0 89.34 L2.83 89.34" class="st9"/>
		</g>
		<g id="shape16-37" v:mID="16" v:groupContext="shape" transform="translate(169.02,19.5716) rotate(90)">
			<title>Sheet.16</title>
			<path d="M0 89.34 L2.83 89.34" class="st9"/>
		</g>
		<g id="group17-40" transform="translate(218.947,-62.6858)" v:mID="17" v:groupContext="group">
			<v:userDefs>
				<v:ud v:nameU="UMLShapeType" v:val="VT0(40):26"/>
				<v:ud v:nameU="UMLObjectGUID" v:val="VT4({D1965259-06DF-498C-9510-DEE42AF17386})"/>
				<v:ud v:nameU="UMLError" v:val="VT0(0):26"/>
				<v:ud v:nameU="UMLPresOption1" v:val="VT0(1):26"/>
				<v:ud v:nameU="UMLSuppressOption" v:val="VT0(32):26"/>
				<v:ud v:nameU="UMLVersion" v:val="VT0(2):26"/>
				<v:ud v:nameU="UMLAutoLockTextEdit" v:val="VT0(1):26"/>
				<v:ud v:nameU="visDescription"
						v:val="VT4(Represents a condition during which an object satisfies some condition, performs an action or waits for an event.)"/>
				<v:ud v:nameU="visVersion" v:val="VT0(14):26"/>
			</v:userDefs>
			<title>State.17</title>
			<g id="shape18-41" v:mID="18" v:groupContext="shape">
				<title>Sheet.18</title>
				<path d="M9 89.34 L45 89.34 A9 9 -180 0 0 54 80.34 L54 72.83 A9 9 -180 0 0 45 63.83 L9 63.83 A9 9 -180 0 0 0 72.83
							 L0 80.34 A9 9 -180 0 0 9 89.34 Z" class="st1"/>
			</g>
			<g id="shape19-43" v:mID="19" v:groupContext="shape">
				<title>Transitions</title>
				<path d="M0 89.34 L53.86 89.34 L0 89.34 Z" class="st2"/>
			</g>
			<g id="shape20-45" v:mID="20" v:groupContext="shape">
				<title>Name</title>
				<desc>Haul</desc>
				<v:textBlock v:margins="rect(4,4,4,4)" v:tabSpace="42.5197"/>
				<v:textRect cx="27" cy="76.744" width="54" height="25.2"/>
				<rect x="0" y="64.144" width="54" height="25.2" class="st2"/>
				<text x="19.57" y="79.14" class="st3" v:langID="1031"><v:paragraph v:horizAlign="1"/><v:tabList/>Haul</text>			</g>
		</g>
		<g id="shape21-48" v:mID="21" v:groupContext="shape" transform="translate(207.629,-75.8269) rotate(1.74061)">
			<title>Sheet.21</title>
			<path d="M0 89.34 L7.14 89.34" class="st7"/>
		</g>
		<g id="group22-53" transform="translate(286.978,-62.6858)" v:mID="22" v:groupContext="group">
			<v:userDefs>
				<v:ud v:nameU="UMLShapeType" v:val="VT0(40):26"/>
				<v:ud v:nameU="UMLObjectGUID" v:val="VT4({58B56F2A-E548-4E08-B3FE-A1374E62FDB3})"/>
				<v:ud v:nameU="UMLError" v:val="VT0(0):26"/>
				<v:ud v:nameU="UMLPresOption1" v:val="VT0(1):26"/>
				<v:ud v:nameU="UMLSuppressOption" v:val="VT0(32):26"/>
				<v:ud v:nameU="UMLVersion" v:val="VT0(2):26"/>
				<v:ud v:nameU="UMLAutoLockTextEdit" v:val="VT0(1):26"/>
				<v:ud v:nameU="visDescription"
						v:val="VT4(Represents a condition during which an object satisfies some condition, performs an action or waits for an event.)"/>
				<v:ud v:nameU="visVersion" v:val="VT0(14):26"/>
			</v:userDefs>
			<title>State.22</title>
			<g id="shape23-54" v:mID="23" v:groupContext="shape">
				<title>Sheet.23</title>
				<path d="M9 89.34 L45 89.34 A9 9 -180 0 0 54 80.34 L54 72.83 A9 9 -180 0 0 45 63.83 L9 63.83 A9 9 -180 0 0 0 72.83
							 L0 80.34 A9 9 -180 0 0 9 89.34 Z" class="st1"/>
			</g>
			<g id="shape24-56" v:mID="24" v:groupContext="shape">
				<title>Transitions</title>
				<path d="M0 89.34 L53.86 89.34 L0 89.34 Z" class="st2"/>
			</g>
			<g id="shape25-58" v:mID="25" v:groupContext="shape">
				<title>Name</title>
				<desc>Dump</desc>
				<v:textBlock v:margins="rect(4,4,4,4)" v:tabSpace="42.5197"/>
				<v:textRect cx="27" cy="76.744" width="54" height="25.2"/>
				<rect x="0" y="64.144" width="54" height="25.2" class="st2"/>
				<text x="17.14" y="79.14" class="st3" v:langID="1031"><v:paragraph v:horizAlign="1"/><v:tabList/>Dump</text>			</g>
		</g>
		<g id="shape26-61" v:mID="26" v:groupContext="shape" transform="translate(272.947,-75.4417)">
			<title>Sheet.26</title>
			<path d="M0 89.34 L7.13 89.34" class="st7"/>
		</g>
		<g id="shape27-66" v:mID="27" v:groupContext="shape" transform="translate(305.474,-42.1358)">
			<title>Decision.38</title>
			<v:userDefs>
				<v:ud v:nameU="UMLShapeType" v:val="VT0(62):26"/>
				<v:ud v:nameU="UMLObjectGUID" v:val="VT4({C05D8B15-9409-4E90-832B-9859B6EAF4B2})"/>
				<v:ud v:nameU="UMLError" v:val="VT0(0):26"/>
				<v:ud v:nameU="UMLPresOption1" v:val="VT0(3):26"/>
				<v:ud v:nameU="UMLVersion" v:val="VT0(2):26"/>
				<v:ud v:nameU="visDescription"
						v:val="VT4(Expresses a decision when guard conditions are used to indicate different possible transitions that are Boolean dependent.)"/>
				<v:ud v:nameU="visVersion" v:val="VT0(14):26"/>
			</v:userDefs>
			<path d="M9.92 69.5 L19.84 79.42 L9.92 89.34 L0 79.42 L9.92 69.5 Z" class="st1"/>
		</g>
		<g id="shape28-68" v:mID="28" v:groupContext="shape" transform="translate(340.521,119.47) rotate(156.904)">
			<title>Sheet.28</title>
			<path d="M0 89.34 L38.99 89.34" class="st7"/>
		</g>
		<g id="shape29-73" v:mID="29" v:groupContext="shape" transform="translate(328.152,-46.1043)">
			<title>Sheet.29</title>
			<desc>job done?</desc>
			<v:textBlock v:margins="rect(0,0,0,0)" v:tabSpace="42.5197"/>
			<v:textRect cx="19.8425" cy="83.6747" width="39.69" height="11.3386"/>
			<rect x="0" y="78.0054" width="39.685" height="11.3386" class="st2"/>
			<text x="3.61" y="86.07" class="st3" v:langID="1031"><v:paragraph v:horizAlign="1"/><v:tabList/>job done?</text>		</g>
		<g id="group30-76" transform="translate(183.274,-14.9232)" v:mID="30" v:groupContext="group">
			<v:userDefs>
				<v:ud v:nameU="UMLShapeType" v:val="VT0(40):26"/>
				<v:ud v:nameU="UMLObjectGUID" v:val="VT4({78871F6A-53BC-4C0F-9097-12E866934EEE})"/>
				<v:ud v:nameU="UMLError" v:val="VT0(0):26"/>
				<v:ud v:nameU="UMLPresOption1" v:val="VT0(1):26"/>
				<v:ud v:nameU="UMLSuppressOption" v:val="VT0(32):26"/>
				<v:ud v:nameU="UMLVersion" v:val="VT0(2):26"/>
				<v:ud v:nameU="UMLAutoLockTextEdit" v:val="VT0(1):26"/>
				<v:ud v:nameU="visDescription"
						v:val="VT4(Represents a condition during which an object satisfies some condition, performs an action or waits for an event.)"/>
				<v:ud v:nameU="visVersion" v:val="VT0(14):26"/>
			</v:userDefs>
			<title>State.30</title>
			<g id="shape31-77" v:mID="31" v:groupContext="shape">
				<title>Sheet.31</title>
				<path d="M9 89.34 L70.99 89.34 A9 9 -180 0 0 79.99 80.34 L79.99 72.83 A9 9 -180 0 0 70.99 63.83 L9 63.83 A9 9 -180
							 0 0 0 72.83 L0 80.34 A9 9 -180 0 0 9 89.34 Z" class="st1"/>
			</g>
			<g id="shape32-79" v:mID="32" v:groupContext="shape">
				<title>Transitions</title>
				<path d="M0 89.34 L53.86 89.34 L0 89.34 Z" class="st2"/>
			</g>
			<g id="shape33-81" v:mID="33" v:groupContext="shape">
				<title>Name</title>
				<desc>GoBackToLoadingSite</desc>
				<v:textBlock v:margins="rect(4,4,4,4)" v:tabSpace="42.5197"/>
				<v:textRect cx="39.9955" cy="76.744" width="80" height="25.2"/>
				<rect x="0" y="64.144" width="79.991" height="25.2" class="st2"/>
				<text x="4.91" y="79.14" class="st3" v:langID="1031"><v:paragraph v:horizAlign="1"/><v:tabList/>GoBackToLoadingSite</text>			</g>
		</g>
		<g id="shape34-84" v:mID="34" v:groupContext="shape" transform="translate(123.705,128.252) rotate(-138.184)">
			<title>Sheet.34</title>
			<path d="M0 89.34 L57.4 89.34" class="st5"/>
		</g>
		<g id="shape35-89" v:mID="35" v:groupContext="shape" transform="translate(130.577,-65.9469)">
			<title>Decision.35</title>
			<v:userDefs>
				<v:ud v:nameU="UMLShapeType" v:val="VT0(62):26"/>
				<v:ud v:nameU="UMLObjectGUID" v:val="VT4({C4B1580B-84B4-430E-A572-5D05CD72B613})"/>
				<v:ud v:nameU="UMLError" v:val="VT0(0):26"/>
				<v:ud v:nameU="UMLPresOption1" v:val="VT0(3):26"/>
				<v:ud v:nameU="UMLVersion" v:val="VT0(2):26"/>
				<v:ud v:nameU="visDescription"
						v:val="VT4(Expresses a decision when guard conditions are used to indicate different possible transitions that are Boolean dependent.)"/>
				<v:ud v:nameU="visVersion" v:val="VT0(14):26"/>
			</v:userDefs>
			<path d="M9.92 69.5 L19.84 79.42 L9.92 89.34 L0 79.42 L9.92 69.5 Z" class="st1"/>
		</g>
		<g id="group36-91" transform="translate(288.325,-0.75)" v:mID="36" v:groupContext="group">
			<v:userDefs>
				<v:ud v:nameU="UMLShapeType" v:val="VT0(40):26"/>
				<v:ud v:nameU="UMLObjectGUID" v:val="VT4({5680744E-F645-4AC9-ACA3-90E85D0EDE47})"/>
				<v:ud v:nameU="UMLError" v:val="VT0(0):26"/>
				<v:ud v:nameU="UMLPresOption1" v:val="VT0(1):26"/>
				<v:ud v:nameU="UMLSuppressOption" v:val="VT0(32):26"/>
				<v:ud v:nameU="UMLVersion" v:val="VT0(2):26"/>
				<v:ud v:nameU="UMLAutoLockTextEdit" v:val="VT0(1):26"/>
				<v:ud v:nameU="visDescription"
						v:val="VT4(Represents a condition during which an object satisfies some condition, performs an action or waits for an event.)"/>
				<v:ud v:nameU="visVersion" v:val="VT0(14):26"/>
			</v:userDefs>
			<title>State.36</title>
			<g id="shape37-92" v:mID="37" v:groupContext="shape">
				<title>Sheet.37</title>
				<path d="M9 89.34 L45 89.34 A9 9 -180 0 0 54 80.34 L54 72.83 A9 9 -180 0 0 45 63.83 L9 63.83 A9 9 -180 0 0 0 72.83
							 L0 80.34 A9 9 -180 0 0 9 89.34 Z" class="st1"/>
			</g>
			<g id="shape38-94" v:mID="38" v:groupContext="shape">
				<title>Transitions</title>
				<path d="M0 89.34 L53.86 89.34 L0 89.34 Z" class="st2"/>
			</g>
			<g id="shape39-96" v:mID="39" v:groupContext="shape">
				<title>Name</title>
				<desc>GoHome</desc>
				<v:textBlock v:margins="rect(4,4,4,4)" v:tabSpace="42.5197"/>
				<v:textRect cx="27" cy="76.744" width="54" height="25.2"/>
				<rect x="0" y="64.144" width="54" height="25.2" class="st2"/>
				<text x="12.58" y="79.14" class="st3" v:langID="1031"><v:paragraph v:horizAlign="1"/><v:tabList/>GoHome</text>			</g>
		</g>
		<g id="shape40-99" v:mID="40" v:groupContext="shape" transform="translate(404.739,47.607) rotate(90.2558)">
			<title>Sheet.40</title>
			<path d="M0 89.34 L8.97 89.34" class="st7"/>
		</g>
		<g id="shape41-104" v:mID="41" v:groupContext="shape" transform="translate(326.734,-31.9311)">
			<title>Sheet.41</title>
			<desc>yes</desc>
			<v:textBlock v:margins="rect(0,0,0,0)" v:tabSpace="42.5197"/>
			<v:textRect cx="7.08661" cy="83.6747" width="14.18" height="11.3386"/>
			<rect x="0" y="78.0054" width="14.1732" height="11.3386" class="st2"/>
			<text x="1.72" y="86.07" class="st3" v:langID="1031"><v:paragraph v:horizAlign="1"/><v:tabList/>yes</text>		</g>
		<g id="shape42-107" v:mID="42" v:groupContext="shape" transform="translate(279.963,-46.1043)">
			<title>Sheet.42</title>
			<desc>no</desc>
			<v:textBlock v:margins="rect(0,0,0,0)" v:tabSpace="42.5197"/>
			<v:textRect cx="7.21417" cy="83.6747" width="14.43" height="11.3386"/>
			<rect x="0" y="78.0054" width="14.4283" height="11.3386" class="st2"/>
			<text x="3" y="86.07" class="st3" v:langID="1031"><v:paragraph v:horizAlign="1"/><v:tabList/>no</text>		</g>
		<g id="shape43-110" v:mID="43" v:groupContext="shape" transform="translate(0.75,-54.6083)">
			<title>Sheet.43</title>
			<desc>Request</desc>
			<v:textBlock v:margins="rect(4,4,4,4)" v:tabSpace="42.5197"/>
			<v:textRect cx="24.0945" cy="83.6747" width="48.19" height="11.3386"/>
			<rect x="0" y="78.0054" width="48.189" height="11.3386" class="st2"/>
			<text x="10.83" y="86.07" class="st3" v:langID="1031"><v:paragraph v:horizAlign="1"/><v:tabList/>Request</text>		</g>
	</g>
</svg>
