<?xml version="1.0" encoding="UTF-8" standalone="no"?>
<!DOCTYPE svg PUBLIC "-//W3C//DTD SVG 1.0//EN" "http://www.w3.org/TR/2001/REC-SVG-20010904/DTD/svg10.dtd">
<!-- Generated by Microsoft Visio 11.0, SVG Export, v1.0 LoadHaulDump_CPMb.svg Page-1 -->
<svg xmlns="http://www.w3.org/2000/svg" xmlns:xlink="http://www.w3.org/1999/xlink" xmlns:ev="http://www.w3.org/2001/xml-events"
		xmlns:v="http://schemas.microsoft.com/visio/2003/SVGExtensions/" width="5.12423in" height="1.72989in"
		viewBox="0 0 368.945 124.552" xml:space="preserve" color-interpolation-filters="sRGB" class="st13">
	<v:documentProperties v:langID="1033" v:viewMarkup="false"/>

	<style type="text/css">
	<![CDATA[
		.st1 {fill:#ffffff;stroke:#000000;stroke-linecap:round;stroke-linejoin:round;stroke-width:0.72}
		.st2 {fill:none;stroke:none;stroke-linecap:round;stroke-linejoin:round;stroke-width:0.75}
		.st3 {fill:#000000;font-family:Calibri;font-size:0.666664em}
		.st4 {fill:#ffffff;stroke:#000000;stroke-linecap:round;stroke-linejoin:round;stroke-width:0.75}
		.st5 {marker-end:url(#mrkr26-24);stroke:#000000;stroke-linecap:round;stroke-linejoin:round;stroke-width:0.5}
		.st6 {fill:#000000;fill-opacity:1;stroke:#000000;stroke-opacity:1;stroke-width:0.13368983957219}
		.st7 {marker-end:url(#mrkr13-30);stroke:#000000;stroke-linecap:round;stroke-linejoin:round;stroke-width:0.5}
		.st8 {fill:#000000;fill-opacity:1;stroke:#000000;stroke-opacity:1;stroke-width:0.21739130434783}
		.st9 {stroke:#000000;stroke-linecap:round;stroke-linejoin:round;stroke-width:0.25}
		.st10 {stroke:#000000;stroke-linecap:round;stroke-linejoin:round;stroke-width:0.5}
		.st11 {marker-start:url(#mrkr22-140);stroke:#000000;stroke-linecap:round;stroke-linejoin:round;stroke-width:0.5}
		.st12 {fill:#000000;fill-opacity:1;stroke:#000000;stroke-opacity:1;stroke-width:0.25773195876289}
		.st13 {fill:none;fill-rule:evenodd;font-size:12px;overflow:visible;stroke-linecap:square;stroke-miterlimit:3}
	]]>
	</style>

	<defs id="Markers">
		<g id="lend26">
			<path d="M 1.5 -0.75 L 1.5 0.75 M 2.25 -0.75 L 2.25 0.75 M 3 -0.75 L 3 0.75 "
					style="stroke-linecap:round;stroke-linejoin:round;fill:none"/>
		</g>
		<marker id="mrkr26-24" class="st6" v:arrowType="26" v:arrowSize="3" orient="auto" markerUnits="strokeWidth"
				overflow="visible">
			<use xlink:href="#lend26" transform="scale(-7.48,-7.48) "/>
		</marker>
		<g id="lend13">
			<path d="M 3 1 L 0 0 L 3 -1 L 3 1 " style="stroke:none"/>
		</g>
		<marker id="mrkr13-30" class="st8" v:arrowType="13" v:arrowSize="1" v:setback="13.8" refX="-13.8" orient="auto"
				markerUnits="strokeWidth" overflow="visible">
			<use xlink:href="#lend13" transform="scale(-4.6,-4.6) "/>
		</marker>
		<g id="lend22">
			<path d="M 0 0 L 2.25 -1.125 L 4.5 0 L 2.25 1.125 L 0 0 " style="stroke-linecap:round;stroke-linejoin:round;fill:none"/>
		</g>
		<marker id="mrkr22-140" class="st12" v:arrowType="22" v:arrowSize="0" v:setback="16.74" refX="16.74" orient="auto"
				markerUnits="strokeWidth" overflow="visible">
			<use xlink:href="#lend22" transform="scale(3.88) "/>
		</marker>
	</defs>
	<g v:mID="0" v:index="1" v:groupContext="foregroundPage">
		<title>Page-1</title>
		<v:pageProperties v:drawingScale="0.0393701" v:pageScale="0.0393701" v:drawingUnits="24" v:shadowOffsetX="8.50394"
				v:shadowOffsetY="-8.50394"/>
		<g id="group2-1" transform="translate(47.5047,-73.0206)" v:mID="2" v:groupContext="group">
			<v:userDefs>
				<v:ud v:nameU="UMLShapeType" v:val="VT0(40):26"/>
				<v:ud v:nameU="UMLObjectGUID" v:val="VT4({75BC298D-07E4-4B8B-8ECA-F6BACAB3BF8C})"/>
				<v:ud v:nameU="UMLError" v:val="VT0(0):26"/>
				<v:ud v:nameU="UMLPresOption1" v:val="VT0(1):26"/>
				<v:ud v:nameU="UMLSuppressOption" v:val="VT0(32):26"/>
				<v:ud v:nameU="UMLVersion" v:val="VT0(2):26"/>
				<v:ud v:nameU="UMLAutoLockTextEdit" v:val="VT0(1):26"/>
				<v:ud v:nameU="visDescription"
						v:val="VT4(Represents a condition during which an object satisfies some condition, performs an action or waits for an event.)"/>
				<v:ud v:nameU="visVersion" v:val="VT0(14):26"/>
			</v:userDefs>
			<title>State</title>
			<g id="shape3-2" v:mID="3" v:groupContext="shape">
				<title>Sheet.3</title>
				<path d="M9 124.55 L56.64 124.55 A9 9 -180 0 0 65.64 115.55 L65.64 108.04 A9 9 -180 0 0 56.64 99.04 L9 99.04 A9 9
							 -180 0 0 0 108.04 L0 115.55 A9 9 -180 0 0 9 124.55 Z" class="st1"/>
			</g>
			<g id="shape4-4" v:mID="4" v:groupContext="shape">
				<title>Transitions</title>
				<path d="M0 124.55 L53.86 124.55 L0 124.55 Z" class="st2"/>
			</g>
			<g id="shape5-6" v:mID="5" v:groupContext="shape">
				<title>Name</title>
				<desc>go to loading site</desc>
				<v:textBlock v:margins="rect(4,4,4,4)" v:tabSpace="42.5197"/>
				<v:textRect cx="32.8198" cy="111.952" width="65.64" height="25.2"/>
				<rect x="0" y="99.3518" width="65.6395" height="25.2" class="st2"/>
				<text x="4.91" y="114.35" class="st3" v:langID="1031"><v:paragraph v:horizAlign="1"/><v:tabList/>go to loading site</text>			</g>
		</g>
		<g id="shape6-9" v:mID="6" v:groupContext="shape" transform="translate(15.3292,-77.2725)">
			<title>Initial State</title>
			<v:userDefs>
				<v:ud v:nameU="UMLShapeType" v:val="VT0(42):26"/>
				<v:ud v:nameU="UMLObjectGUID" v:val="VT4({12E6E42C-706B-4752-AD0F-4FDDC4619606})"/>
				<v:ud v:nameU="UMLError" v:val="VT0(0):26"/>
				<v:ud v:nameU="UMLPresOptions" v:val="VT0(3):26"/>
				<v:ud v:nameU="UMLVersion" v:val="VT0(2):26"/>
				<v:ud v:nameU="visDescription" v:val="VT4(Represents the point at which a newly created object starts. )"/>
				<v:ud v:nameU="visVersion" v:val="VT0(14):26"/>
			</v:userDefs>
			<path d="M0 116.05 A8.50394 8.50394 0 1 1 17.01 116.05 A8.50394 8.50394 0 0 1 0 116.05 Z" class="st4"/>
		</g>
		<g id="group8-11" transform="translate(135.396,-73.0335)" v:mID="8" v:groupContext="group">
			<v:userDefs>
				<v:ud v:nameU="UMLShapeType" v:val="VT0(40):26"/>
				<v:ud v:nameU="UMLObjectGUID" v:val="VT4({F3DF82E9-5957-4D47-B595-5E7427BFA0E3})"/>
				<v:ud v:nameU="UMLError" v:val="VT0(0):26"/>
				<v:ud v:nameU="UMLPresOption1" v:val="VT0(1):26"/>
				<v:ud v:nameU="UMLSuppressOption" v:val="VT0(32):26"/>
				<v:ud v:nameU="UMLVersion" v:val="VT0(2):26"/>
				<v:ud v:nameU="UMLAutoLockTextEdit" v:val="VT0(1):26"/>
				<v:ud v:nameU="visDescription"
						v:val="VT4(Represents a condition during which an object satisfies some condition, performs an action or waits for an event.)"/>
				<v:ud v:nameU="visVersion" v:val="VT0(14):26"/>
			</v:userDefs>
			<title>State.9</title>
			<g id="shape9-12" v:mID="9" v:groupContext="shape">
				<title>Sheet.9</title>
				<path d="M9 124.55 L45 124.55 A9 9 -180 0 0 54 115.55 L54 108.04 A9 9 -180 0 0 45 99.04 L9 99.04 A9 9 -180 0 0 0
							 108.04 L0 115.55 A9 9 -180 0 0 9 124.55 Z" class="st1"/>
			</g>
			<g id="shape10-14" v:mID="10" v:groupContext="shape">
				<title>Transitions</title>
				<path d="M0 124.55 L53.86 124.55 L0 124.55 Z" class="st2"/>
			</g>
			<g id="shape11-16" v:mID="11" v:groupContext="shape">
				<title>Name</title>
				<desc>load</desc>
				<v:textBlock v:margins="rect(4,4,4,4)" v:tabSpace="42.5197"/>
				<v:textRect cx="27" cy="111.952" width="54" height="25.2"/>
				<rect x="0" y="99.3518" width="54" height="25.2" class="st2"/>
				<text x="19.96" y="114.35" class="st3" v:langID="1031"><v:paragraph v:horizAlign="1"/><v:tabList/>load</text>			</g>
		</g>
		<g id="shape12-19" v:mID="12" v:groupContext="shape" transform="translate(113.072,-85.7764) rotate(-0.0332163)">
			<title>Sheet.12</title>
			<path d="M0 124.55 L22.25 124.55" class="st5"/>
		</g>
		<g id="shape13-25" v:mID="13" v:groupContext="shape" transform="translate(32.337,-85.7765)">
			<title>Sheet.13</title>
			<path d="M0 124.55 L8.27 124.55" class="st7"/>
		</g>
		<g id="shape14-31" v:mID="14" v:groupContext="shape" transform="translate(201.96,44.8581) rotate(90)">
			<title>Sheet.14</title>
			<path d="M0 124.55 L2.83 124.55" class="st9"/>
		</g>
		<g id="shape15-34" v:mID="15" v:groupContext="shape" transform="translate(203.094,44.8581) rotate(90)">
			<title>Sheet.15</title>
			<path d="M0 124.55 L2.83 124.55" class="st9"/>
		</g>
		<g id="shape16-37" v:mID="16" v:groupContext="shape" transform="translate(204.227,44.8581) rotate(90)">
			<title>Sheet.16</title>
			<path d="M0 124.55 L2.83 124.55" class="st9"/>
		</g>
		<g id="group17-40" transform="translate(208.53,-72.6071)" v:mID="17" v:groupContext="group">
			<v:userDefs>
				<v:ud v:nameU="UMLShapeType" v:val="VT0(40):26"/>
				<v:ud v:nameU="UMLObjectGUID" v:val="VT4({D1965259-06DF-498C-9510-DEE42AF17386})"/>
				<v:ud v:nameU="UMLError" v:val="VT0(0):26"/>
				<v:ud v:nameU="UMLPresOption1" v:val="VT0(1):26"/>
				<v:ud v:nameU="UMLSuppressOption" v:val="VT0(32):26"/>
				<v:ud v:nameU="UMLVersion" v:val="VT0(2):26"/>
				<v:ud v:nameU="UMLAutoLockTextEdit" v:val="VT0(1):26"/>
				<v:ud v:nameU="visDescription"
						v:val="VT4(Represents a condition during which an object satisfies some condition, performs an action or waits for an event.)"/>
				<v:ud v:nameU="visVersion" v:val="VT0(14):26"/>
			</v:userDefs>
			<title>State.17</title>
			<g id="shape18-41" v:mID="18" v:groupContext="shape">
				<title>Sheet.18</title>
				<path d="M9 124.55 L45 124.55 A9 9 -180 0 0 54 115.55 L54 108.04 A9 9 -180 0 0 45 99.04 L9 99.04 A9 9 -180 0 0 0
							 108.04 L0 115.55 A9 9 -180 0 0 9 124.55 Z" class="st1"/>
			</g>
			<g id="shape19-43" v:mID="19" v:groupContext="shape">
				<title>Transitions</title>
				<path d="M0 124.55 L53.86 124.55 L0 124.55 Z" class="st2"/>
			</g>
			<g id="shape20-45" v:mID="20" v:groupContext="shape">
				<title>Name</title>
				<desc>haul</desc>
				<v:textBlock v:margins="rect(4,4,4,4)" v:tabSpace="42.5197"/>
				<v:textRect cx="27" cy="111.952" width="54" height="25.2"/>
				<rect x="0" y="99.3518" width="54" height="25.2" class="st2"/>
				<text x="19.96" y="114.35" class="st3" v:langID="1031"><v:paragraph v:horizAlign="1"/><v:tabList/>haul</text>			</g>
		</g>
		<g id="shape21-48" v:mID="21" v:groupContext="shape" transform="translate(192.171,-85.7585) rotate(1.27663)">
			<title>Sheet.21</title>
			<path d="M0 124.55 L12.24 124.55" class="st7"/>
		</g>
		<g id="group22-53" transform="translate(276.561,-72.6071)" v:mID="22" v:groupContext="group">
			<v:userDefs>
				<v:ud v:nameU="UMLShapeType" v:val="VT0(40):26"/>
				<v:ud v:nameU="UMLObjectGUID" v:val="VT4({58B56F2A-E548-4E08-B3FE-A1374E62FDB3})"/>
				<v:ud v:nameU="UMLError" v:val="VT0(0):26"/>
				<v:ud v:nameU="UMLPresOption1" v:val="VT0(1):26"/>
				<v:ud v:nameU="UMLSuppressOption" v:val="VT0(32):26"/>
				<v:ud v:nameU="UMLVersion" v:val="VT0(2):26"/>
				<v:ud v:nameU="UMLAutoLockTextEdit" v:val="VT0(1):26"/>
				<v:ud v:nameU="visDescription"
						v:val="VT4(Represents a condition during which an object satisfies some condition, performs an action or waits for an event.)"/>
				<v:ud v:nameU="visVersion" v:val="VT0(14):26"/>
			</v:userDefs>
			<title>State.22</title>
			<g id="shape23-54" v:mID="23" v:groupContext="shape">
				<title>Sheet.23</title>
				<path d="M9 124.55 L45 124.55 A9 9 -180 0 0 54 115.55 L54 108.04 A9 9 -180 0 0 45 99.04 L9 99.04 A9 9 -180 0 0 0
							 108.04 L0 115.55 A9 9 -180 0 0 9 124.55 Z" class="st1"/>
			</g>
			<g id="shape24-56" v:mID="24" v:groupContext="shape">
				<title>Transitions</title>
				<path d="M0 124.55 L53.86 124.55 L0 124.55 Z" class="st2"/>
			</g>
			<g id="shape25-58" v:mID="25" v:groupContext="shape">
				<title>Name</title>
				<desc>dump</desc>
				<v:textBlock v:margins="rect(4,4,4,4)" v:tabSpace="42.5197"/>
				<v:textRect cx="27" cy="111.952" width="54" height="25.2"/>
				<rect x="0" y="99.3518" width="54" height="25.2" class="st2"/>
				<text x="17.5" y="114.35" class="st3" v:langID="1031"><v:paragraph v:horizAlign="1"/><v:tabList/>dump</text>			</g>
		</g>
		<g id="shape26-61" v:mID="26" v:groupContext="shape" transform="translate(262.53,-85.363)">
			<title>Sheet.26</title>
			<path d="M0 124.55 L7.13 124.55" class="st7"/>
		</g>
		<g id="shape27-66" v:mID="27" v:groupContext="shape" transform="translate(295.057,-52.0571)">
			<title>Decision.38</title>
			<v:userDefs>
				<v:ud v:nameU="UMLShapeType" v:val="VT0(62):26"/>
				<v:ud v:nameU="UMLObjectGUID" v:val="VT4({C05D8B15-9409-4E90-832B-9859B6EAF4B2})"/>
				<v:ud v:nameU="UMLError" v:val="VT0(0):26"/>
				<v:ud v:nameU="UMLPresOption1" v:val="VT0(3):26"/>
				<v:ud v:nameU="UMLVersion" v:val="VT0(2):26"/>
				<v:ud v:nameU="visDescription"
						v:val="VT4(Expresses a decision when guard conditions are used to indicate different possible transitions that are Boolean dependent.)"/>
				<v:ud v:nameU="visVersion" v:val="VT0(14):26"/>
			</v:userDefs>
			<path d="M9.92 104.71 L19.84 114.63 L9.92 124.55 L0 114.63 L9.92 104.71 Z" class="st1"/>
		</g>
		<g id="shape28-68" v:mID="28" v:groupContext="shape" transform="translate(346.218,176.133) rotate(155.748)">
			<title>Sheet.28</title>
			<path d="M0 124.55 L36.92 124.55" class="st7"/>
		</g>
		<g id="shape29-73" v:mID="29" v:groupContext="shape" transform="translate(317.735,-56.0256)">
			<title>Sheet.29</title>
			<desc>job done?</desc>
			<v:textBlock v:margins="rect(0,0,0,0)" v:tabSpace="42.5197"/>
			<v:textRect cx="19.8425" cy="118.883" width="39.69" height="11.3386"/>
			<rect x="0" y="113.213" width="39.685" height="11.3386" class="st2"/>
			<text x="3.61" y="121.28" class="st3" v:langID="1031"><v:paragraph v:horizAlign="1"/><v:tabList/>job done?</text>		</g>
		<g id="group30-76" transform="translate(172.601,-24.8445)" v:mID="30" v:groupContext="group">
			<v:userDefs>
				<v:ud v:nameU="UMLShapeType" v:val="VT0(40):26"/>
				<v:ud v:nameU="UMLObjectGUID" v:val="VT4({78871F6A-53BC-4C0F-9097-12E866934EEE})"/>
				<v:ud v:nameU="UMLError" v:val="VT0(0):26"/>
				<v:ud v:nameU="UMLPresOption1" v:val="VT0(1):26"/>
				<v:ud v:nameU="UMLSuppressOption" v:val="VT0(32):26"/>
				<v:ud v:nameU="UMLVersion" v:val="VT0(2):26"/>
				<v:ud v:nameU="UMLAutoLockTextEdit" v:val="VT0(1):26"/>
				<v:ud v:nameU="visDescription"
						v:val="VT4(Represents a condition during which an object satisfies some condition, performs an action or waits for an event.)"/>
				<v:ud v:nameU="visVersion" v:val="VT0(14):26"/>
			</v:userDefs>
			<title>State.30</title>
			<g id="shape31-77" v:mID="31" v:groupContext="shape">
				<title>Sheet.31</title>
				<path d="M9 124.55 L73.5 124.55 A9 9 -180 0 0 82.5 115.55 L82.5 108.04 A9 9 -180 0 0 73.5 99.04 L9 99.04 A9 9 -180
							 0 0 0 108.04 L0 115.55 A9 9 -180 0 0 9 124.55 Z" class="st1"/>
			</g>
			<g id="shape32-79" v:mID="32" v:groupContext="shape">
				<title>Transitions</title>
				<path d="M0 124.55 L53.86 124.55 L0 124.55 Z" class="st2"/>
			</g>
			<g id="shape33-81" v:mID="33" v:groupContext="shape">
				<title>Name</title>
				<desc>go back to loading site</desc>
				<v:textBlock v:margins="rect(4,4,4,4)" v:tabSpace="42.5197"/>
				<v:textRect cx="41.2514" cy="111.952" width="82.51" height="25.2"/>
				<rect x="0" y="99.3518" width="82.5027" height="25.2" class="st2"/>
				<text x="4.91" y="114.35" class="st3" v:langID="1031"><v:paragraph v:horizAlign="1"/><v:tabList/>go back to loading site</text>			</g>
		</g>
		<g id="shape34-84" v:mID="34" v:groupContext="shape" transform="translate(37.8441,77.0302) rotate(-90)">
			<title>Sheet.34</title>
			<path d="M0 124.55 L25.51 124.55" class="st5"/>
		</g>
		<g id="group36-89" transform="translate(277.908,-0.75)" v:mID="36" v:groupContext="group">
			<v:userDefs>
				<v:ud v:nameU="UMLShapeType" v:val="VT0(40):26"/>
				<v:ud v:nameU="UMLObjectGUID" v:val="VT4({5680744E-F645-4AC9-ACA3-90E85D0EDE47})"/>
				<v:ud v:nameU="UMLError" v:val="VT0(0):26"/>
				<v:ud v:nameU="UMLPresOption1" v:val="VT0(1):26"/>
				<v:ud v:nameU="UMLSuppressOption" v:val="VT0(32):26"/>
				<v:ud v:nameU="UMLVersion" v:val="VT0(2):26"/>
				<v:ud v:nameU="UMLAutoLockTextEdit" v:val="VT0(1):26"/>
				<v:ud v:nameU="visDescription"
						v:val="VT4(Represents a condition during which an object satisfies some condition, performs an action or waits for an event.)"/>
				<v:ud v:nameU="visVersion" v:val="VT0(14):26"/>
			</v:userDefs>
			<title>State.36</title>
			<g id="shape37-90" v:mID="37" v:groupContext="shape">
				<title>Sheet.37</title>
				<path d="M9 124.55 L45 124.55 A9 9 -180 0 0 54 115.55 L54 108.04 A9 9 -180 0 0 45 99.04 L9 99.04 A9 9 -180 0 0 0
							 108.04 L0 115.55 A9 9 -180 0 0 9 124.55 Z" class="st1"/>
			</g>
			<g id="shape38-92" v:mID="38" v:groupContext="shape">
				<title>Transitions</title>
				<path d="M0 124.55 L53.86 124.55 L0 124.55 Z" class="st2"/>
			</g>
			<g id="shape39-94" v:mID="39" v:groupContext="shape">
				<title>Name</title>
				<desc>go home</desc>
				<v:textBlock v:margins="rect(4,4,4,4)" v:tabSpace="42.5197"/>
				<v:textRect cx="27" cy="111.952" width="54" height="25.2"/>
				<rect x="0" y="99.3518" width="54" height="25.2" class="st2"/>
				<text x="12.71" y="114.35" class="st3" v:langID="1031"><v:paragraph v:horizAlign="1"/><v:tabList/>go home</text>			</g>
		</g>
		<g id="shape40-97" v:mID="40" v:groupContext="shape" transform="translate(429.53,72.8369) rotate(90.1574)">
			<title>Sheet.40</title>
			<path d="M0 124.55 L18.9 124.55" class="st7"/>
		</g>
		<g id="shape41-102" v:mID="41" v:groupContext="shape" transform="translate(316.317,-41.8524)">
			<title>Sheet.41</title>
			<desc>yes</desc>
			<v:textBlock v:margins="rect(0,0,0,0)" v:tabSpace="42.5197"/>
			<v:textRect cx="7.08661" cy="118.883" width="14.18" height="11.3386"/>
			<rect x="0" y="113.213" width="14.1732" height="11.3386" class="st2"/>
			<text x="1.72" y="121.28" class="st3" v:langID="1031"><v:paragraph v:horizAlign="1"/><v:tabList/>yes</text>		</g>
		<g id="shape42-105" v:mID="42" v:groupContext="shape" transform="translate(269.546,-56.0256)">
			<title>Sheet.42</title>
			<desc>no</desc>
			<v:textBlock v:margins="rect(0,0,0,0)" v:tabSpace="42.5197"/>
			<v:textRect cx="7.21417" cy="118.883" width="14.43" height="11.3386"/>
			<rect x="0" y="113.213" width="14.4283" height="11.3386" class="st2"/>
			<text x="3" y="121.28" class="st3" v:langID="1031"><v:paragraph v:horizAlign="1"/><v:tabList/>no</text>		</g>
		<g id="shape43-108" v:mID="43" v:groupContext="shape" transform="translate(0.75,-64.5295)">
			<title>Sheet.43</title>
			<desc>requests</desc>
			<v:textBlock v:margins="rect(4,4,4,4)" v:tabSpace="42.5197"/>
			<v:textRect cx="24.0945" cy="118.883" width="48.19" height="11.3386"/>
			<rect x="0" y="113.213" width="48.189" height="11.3386" class="st2"/>
			<text x="10.05" y="121.28" class="st3" v:langID="1031"><v:paragraph v:horizAlign="1"/><v:tabList/>requests</text>		</g>
		<g id="shape44-111" v:mID="44" v:groupContext="shape" transform="translate(152.475,-27.6791)">
			<title>Decision.44</title>
			<v:userDefs>
				<v:ud v:nameU="UMLShapeType" v:val="VT0(62):26"/>
				<v:ud v:nameU="UMLObjectGUID" v:val="VT4({27A3682A-7246-441C-9F33-02EED1C01BBE})"/>
				<v:ud v:nameU="UMLError" v:val="VT0(0):26"/>
				<v:ud v:nameU="UMLPresOption1" v:val="VT0(3):26"/>
				<v:ud v:nameU="UMLVersion" v:val="VT0(2):26"/>
				<v:ud v:nameU="visDescription"
						v:val="VT4(Expresses a decision when guard conditions are used to indicate different possible transitions that are Boolean dependent.)"/>
				<v:ud v:nameU="visVersion" v:val="VT0(14):26"/>
			</v:userDefs>
			<path d="M9.92 104.71 L19.84 114.63 L9.92 124.55 L0 114.63 L9.92 104.71 Z" class="st1"/>
		</g>
		<g id="shape45-113" v:mID="45" v:groupContext="shape" transform="translate(110.805,-31.6476)">
			<title>Sheet.45</title>
			<desc>job done?</desc>
			<v:textBlock v:margins="rect(0,0,0,0)" v:tabSpace="42.5197"/>
			<v:textRect cx="19.8425" cy="118.883" width="39.69" height="11.3386"/>
			<rect x="0" y="113.213" width="39.685" height="11.3386" class="st2"/>
			<text x="3.61" y="121.28" class="st3" v:langID="1031"><v:paragraph v:horizAlign="1"/><v:tabList/>job done?</text>		</g>
		<g id="shape46-116" v:mID="46" v:groupContext="shape" transform="translate(162.963,-13.5059)">
			<title>Sheet.46</title>
			<path d="M0 124.55 L108.04 124.55" class="st7"/>
		</g>
		<g id="shape47-121" v:mID="47" v:groupContext="shape" transform="translate(286.948,96.8727) rotate(90)">
			<title>Sheet.47</title>
			<path d="M0 124.55 L14.17 124.55" class="st10"/>
		</g>
		<g id="shape48-124" v:mID="48" v:groupContext="shape" transform="translate(139.152,-14.9232)">
			<title>Sheet.48</title>
			<desc>yes</desc>
			<v:textBlock v:margins="rect(0,0,0,0)" v:tabSpace="42.5197"/>
			<v:textRect cx="7.08661" cy="118.883" width="14.18" height="11.3386"/>
			<rect x="0" y="113.213" width="14.1732" height="11.3386" class="st2"/>
			<text x="1.72" y="121.28" class="st3" v:langID="1031"><v:paragraph v:horizAlign="1"/><v:tabList/>yes</text>		</g>
		<g id="shape49-127" v:mID="49" v:groupContext="shape" transform="translate(136.062,-47.5217)">
			<title>Sheet.49</title>
			<desc>no</desc>
			<v:textBlock v:margins="rect(0,0,0,0)" v:tabSpace="42.5197"/>
			<v:textRect cx="7.21417" cy="118.883" width="14.43" height="11.3386"/>
			<rect x="0" y="113.213" width="14.4283" height="11.3386" class="st2"/>
			<text x="3" y="121.28" class="st3" v:langID="1031"><v:paragraph v:horizAlign="1"/><v:tabList/>no</text>		</g>
		<g id="shape51-130" v:mID="51" v:groupContext="shape" transform="translate(361.672,235.598) rotate(180)">
			<title>Sheet.51</title>
			<path d="M0 124.55 L22.86 124.55" class="st7"/>
		</g>
		<g id="shape50-135" v:mID="50" v:groupContext="shape" transform="translate(37.8441,26.0066) rotate(-90)">
			<title>Sheet.50</title>
			<path d="M8.37 124.55 L8.73 124.55 L17.01 124.55" class="st11"/>
		</g>
		<g id="shape52-141" v:mID="52" v:groupContext="shape" transform="translate(162.963,-115.553)">
			<title>Sheet.52</title>
			<path d="M0 124.55 L198.43 124.55" class="st10"/>
		</g>
		<g id="shape53-144" v:mID="53" v:groupContext="shape" transform="translate(237.12,111.046) rotate(-90)">
			<title>Sheet.53</title>
			<path d="M0 124.55 L102.05 124.55" class="st10"/>
		</g>
		<g id="shape54-147" v:mID="54" v:groupContext="shape" transform="translate(167.215,-104.215)">
			<title>Sheet.54</title>
			<desc>job done</desc>
			<v:textBlock v:margins="rect(0,0,0,0)" v:tabSpace="42.5197"/>
			<v:textRect cx="17.0079" cy="118.883" width="34.02" height="11.3386"/>
			<rect x="0" y="113.213" width="34.0157" height="11.3386" class="st2"/>
			<text x="2.63" y="121.28" class="st3" v:langID="1031"><v:paragraph v:horizAlign="1"/><v:tabList/>job done</text>		</g>
	</g>
</svg>
