<?xml version="1.0" encoding="UTF-8" standalone="no"?>
<!DOCTYPE svg PUBLIC "-//W3C//DTD SVG 1.0//EN" "http://www.w3.org/TR/2001/REC-SVG-20010904/DTD/svg10.dtd">
<!-- Generated by Microsoft Visio 11.0, SVG Export, v1.0 PDM.svg Page-1 -->
<svg xmlns="http://www.w3.org/2000/svg" xmlns:xlink="http://www.w3.org/1999/xlink" xmlns:ev="http://www.w3.org/2001/xml-events"
		xmlns:v="http://schemas.microsoft.com/visio/2003/SVGExtensions/" width="5.35548in" height="2.08047in"
		viewBox="0 0 385.594 149.794" xml:space="preserve" color-interpolation-filters="sRGB" class="st17">
	<v:documentProperties v:langID="1033" v:viewMarkup="false"/>

	<style type="text/css">
	<![CDATA[
		.st1 {fill:#ffffff;stroke:#000000;stroke-linecap:round;stroke-linejoin:round;stroke-width:0.72}
		.st2 {fill:none;stroke:none;stroke-linecap:round;stroke-linejoin:round;stroke-width:0.75}
		.st3 {fill:#000000;font-family:Calibri;font-size:0.666664em}
		.st4 {fill:#ffffff;stroke:#000000;stroke-linecap:round;stroke-linejoin:round;stroke-width:0.75}
		.st5 {marker-end:url(#mrkr26-24);stroke:#000000;stroke-linecap:round;stroke-linejoin:round;stroke-width:0.5}
		.st6 {fill:#000000;fill-opacity:1;stroke:#000000;stroke-opacity:1;stroke-width:0.13368983957219}
		.st7 {marker-end:url(#mrkr39-30);stroke:#000000;stroke-linecap:round;stroke-linejoin:round;stroke-width:0.5}
		.st8 {fill:#000000;fill-opacity:1;stroke:#000000;stroke-opacity:1;stroke-width:0.21739130434783}
		.st9 {marker-end:url(#mrkr13-44);stroke:#000000;stroke-linecap:round;stroke-linejoin:round;stroke-width:0.5}
		.st10 {marker-end:url(#mrkr13-44);marker-start:url(#mrkr23-66);stroke:#000000;stroke-linecap:round;stroke-linejoin:round;stroke-width:0.5}
		.st11 {fill:#000000;fill-opacity:1;stroke:#000000;stroke-opacity:1;stroke-width:0.16556291390728}
		.st12 {stroke:#000000;stroke-linecap:round;stroke-linejoin:round;stroke-width:0.5}
		.st13 {stroke:#000000;stroke-dasharray:5.25,3.75;stroke-linecap:round;stroke-linejoin:round;stroke-width:0.75}
		.st14 {fill:#ffffff;stroke:#000000;stroke-linecap:round;stroke-linejoin:round;stroke-width:0.24}
		.st15 {font-size:1em}
		.st16 {stroke:#000000;stroke-dasharray:3.5,2.5;stroke-linecap:round;stroke-linejoin:round;stroke-width:0.5}
		.st17 {fill:none;fill-rule:evenodd;font-size:12px;overflow:visible;stroke-linecap:square;stroke-miterlimit:3}
	]]>
	</style>

	<defs id="Markers">
		<g id="lend26">
			<path d="M 1.5 -0.75 L 1.5 0.75 M 2.25 -0.75 L 2.25 0.75 M 3 -0.75 L 3 0.75 "
					style="stroke-linecap:round;stroke-linejoin:round;fill:none"/>
		</g>
		<marker id="mrkr26-24" class="st6" v:arrowType="26" v:arrowSize="3" orient="auto" markerUnits="strokeWidth"
				overflow="visible">
			<use xlink:href="#lend26" transform="scale(-7.48,-7.48) "/>
		</marker>
		<g id="lend39">
			<path d="M 0 0 L 2 -1 L 2 1 L 0 0 M 2 0 L 4 -1 L 4 1 L 2 0 " style="stroke:none"/>
		</g>
		<marker id="mrkr39-30" class="st8" v:arrowType="39" v:arrowSize="1" v:setback="18.4" refX="-18.4" orient="auto"
				markerUnits="strokeWidth" overflow="visible">
			<use xlink:href="#lend39" transform="scale(-4.6,-4.6) "/>
		</marker>
		<g id="lend13">
			<path d="M 3 1 L 0 0 L 3 -1 L 3 1 " style="stroke:none"/>
		</g>
		<marker id="mrkr13-44" class="st8" v:arrowType="13" v:arrowSize="1" v:setback="13.8" refX="-13.8" orient="auto"
				markerUnits="strokeWidth" overflow="visible">
			<use xlink:href="#lend13" transform="scale(-4.6,-4.6) "/>
		</marker>
		<g id="lend23">
			<path d="M 2.5 1 L 1.5 -1 " style="stroke-linecap:round;stroke-linejoin:round;fill:none"/>
		</g>
		<marker id="mrkr23-66" class="st11" v:arrowType="23" v:arrowSize="2" orient="auto" markerUnits="strokeWidth"
				overflow="visible">
			<use xlink:href="#lend23" transform="scale(6.04) "/>
		</marker>
	</defs>
	<g v:mID="0" v:index="1" v:groupContext="foregroundPage">
		<title>Page-1</title>
		<v:pageProperties v:drawingScale="0.0393701" v:pageScale="0.0393701" v:drawingUnits="24" v:shadowOffsetX="8.50394"
				v:shadowOffsetY="-8.50394"/>
		<g id="group2-1" transform="translate(59.269,-73.0206)" v:mID="2" v:groupContext="group">
			<v:userDefs>
				<v:ud v:nameU="UMLShapeType" v:val="VT0(40):26"/>
				<v:ud v:nameU="UMLObjectGUID" v:val="VT4({808E1087-9B97-49E8-A668-FF5C3416F218})"/>
				<v:ud v:nameU="UMLError" v:val="VT0(0):26"/>
				<v:ud v:nameU="UMLPresOption1" v:val="VT0(1):26"/>
				<v:ud v:nameU="UMLSuppressOption" v:val="VT0(32):26"/>
				<v:ud v:nameU="UMLVersion" v:val="VT0(2):26"/>
				<v:ud v:nameU="UMLAutoLockTextEdit" v:val="VT0(1):26"/>
				<v:ud v:nameU="visDescription"
						v:val="VT4(Represents a condition during which an object satisfies some condition, performs an action or waits for an event.)"/>
				<v:ud v:nameU="visVersion" v:val="VT0(14):26"/>
			</v:userDefs>
			<title>State</title>
			<g id="shape3-2" v:mID="3" v:groupContext="shape">
				<title>Sheet.3</title>
				<path d="M9 149.79 L55.79 149.79 A9 9 -180 0 0 64.79 140.79 L64.79 133.28 A9 9 -180 0 0 55.79 124.28 L9 124.28 A9
							 9 -180 0 0 0 133.28 L0 140.79 A9 9 -180 0 0 9 149.79 Z" class="st1"/>
			</g>
			<g id="shape4-4" v:mID="4" v:groupContext="shape">
				<title>Transitions</title>
				<path d="M0 149.79 L53.86 149.79 L0 149.79 Z" class="st2"/>
			</g>
			<g id="shape5-6" v:mID="5" v:groupContext="shape">
				<title>Name</title>
				<desc>GoToLoadingSite</desc>
				<v:textBlock v:margins="rect(4,4,4,4)" v:tabSpace="42.5197"/>
				<v:textRect cx="32.394" cy="137.194" width="64.79" height="25.2"/>
				<rect x="0" y="124.594" width="64.7881" height="25.2" class="st2"/>
				<text x="4.91" y="139.59" class="st3" v:langID="1031"><v:paragraph v:horizAlign="1"/><v:tabList/>GoToLoadingSite</text>			</g>
		</g>
		<g id="shape6-9" v:mID="6" v:groupContext="shape" transform="translate(16.7465,-77.2725)">
			<title>Initial State</title>
			<v:userDefs>
				<v:ud v:nameU="UMLShapeType" v:val="VT0(42):26"/>
				<v:ud v:nameU="UMLObjectGUID" v:val="VT4({6C108C86-D3AC-424D-9373-CACF6F2527C2})"/>
				<v:ud v:nameU="UMLError" v:val="VT0(0):26"/>
				<v:ud v:nameU="UMLPresOptions" v:val="VT0(3):26"/>
				<v:ud v:nameU="UMLVersion" v:val="VT0(2):26"/>
				<v:ud v:nameU="visDescription" v:val="VT4(Represents the point at which a newly created object starts. )"/>
				<v:ud v:nameU="visVersion" v:val="VT0(14):26"/>
			</v:userDefs>
			<path d="M0 141.29 A8.50394 8.50394 0 1 1 17.01 141.29 A8.50394 8.50394 0 0 1 0 141.29 Z" class="st4"/>
		</g>
		<g id="group7-11" transform="translate(150.561,-73.0335)" v:mID="7" v:groupContext="group">
			<v:userDefs>
				<v:ud v:nameU="UMLShapeType" v:val="VT0(40):26"/>
				<v:ud v:nameU="UMLObjectGUID" v:val="VT4({B3769C9B-04C6-4070-B8D6-6436A47F5515})"/>
				<v:ud v:nameU="UMLError" v:val="VT0(0):26"/>
				<v:ud v:nameU="UMLPresOption1" v:val="VT0(1):26"/>
				<v:ud v:nameU="UMLSuppressOption" v:val="VT0(32):26"/>
				<v:ud v:nameU="UMLVersion" v:val="VT0(2):26"/>
				<v:ud v:nameU="UMLAutoLockTextEdit" v:val="VT0(1):26"/>
				<v:ud v:nameU="visDescription"
						v:val="VT4(Represents a condition during which an object satisfies some condition, performs an action or waits for an event.)"/>
				<v:ud v:nameU="visVersion" v:val="VT0(14):26"/>
			</v:userDefs>
			<title>State.9</title>
			<g id="shape8-12" v:mID="8" v:groupContext="shape">
				<title>Sheet.8</title>
				<path d="M9 149.79 L45 149.79 A9 9 -180 0 0 54 140.79 L54 133.28 A9 9 -180 0 0 45 124.28 L9 124.28 A9 9 -180 0 0
							 0 133.28 L0 140.79 A9 9 -180 0 0 9 149.79 Z" class="st1"/>
			</g>
			<g id="shape9-14" v:mID="9" v:groupContext="shape">
				<title>Transitions</title>
				<path d="M0 149.79 L53.86 149.79 L0 149.79 Z" class="st2"/>
			</g>
			<g id="shape10-16" v:mID="10" v:groupContext="shape">
				<title>Name</title>
				<desc>Load</desc>
				<v:textBlock v:margins="rect(4,4,4,4)" v:tabSpace="42.5197"/>
				<v:textRect cx="27" cy="137.194" width="54" height="25.2"/>
				<rect x="0" y="124.594" width="54" height="25.2" class="st2"/>
				<text x="19.19" y="139.59" class="st3" v:langID="1031"><v:paragraph v:horizAlign="1"/><v:tabList/>Load</text>			</g>
		</g>
		<g id="shape11-19" v:mID="11" v:groupContext="shape" transform="translate(123.984,-85.7765) rotate(-0.0278871)">
			<title>Sheet.11</title>
			<path d="M0 149.79 L26.5 149.79" class="st5"/>
		</g>
		<g id="shape12-25" v:mID="12" v:groupContext="shape" transform="translate(33.7543,-85.7765)">
			<title>Sheet.12</title>
			<path d="M0 149.79 L16.31 149.79" class="st7"/>
		</g>
		<g id="group16-31" transform="translate(223.671,-72.6071)" v:mID="16" v:groupContext="group">
			<v:userDefs>
				<v:ud v:nameU="UMLShapeType" v:val="VT0(40):26"/>
				<v:ud v:nameU="UMLObjectGUID" v:val="VT4({CE4A4492-741E-451C-99D7-7F387809C5B0})"/>
				<v:ud v:nameU="UMLError" v:val="VT0(0):26"/>
				<v:ud v:nameU="UMLPresOption1" v:val="VT0(1):26"/>
				<v:ud v:nameU="UMLSuppressOption" v:val="VT0(32):26"/>
				<v:ud v:nameU="UMLVersion" v:val="VT0(2):26"/>
				<v:ud v:nameU="UMLAutoLockTextEdit" v:val="VT0(1):26"/>
				<v:ud v:nameU="visDescription"
						v:val="VT4(Represents a condition during which an object satisfies some condition, performs an action or waits for an event.)"/>
				<v:ud v:nameU="visVersion" v:val="VT0(14):26"/>
			</v:userDefs>
			<title>State.17</title>
			<g id="shape17-32" v:mID="17" v:groupContext="shape">
				<title>Sheet.17</title>
				<path d="M9 149.79 L45 149.79 A9 9 -180 0 0 54 140.79 L54 133.28 A9 9 -180 0 0 45 124.28 L9 124.28 A9 9 -180 0 0
							 0 133.28 L0 140.79 A9 9 -180 0 0 9 149.79 Z" class="st1"/>
			</g>
			<g id="shape18-34" v:mID="18" v:groupContext="shape">
				<title>Transitions</title>
				<path d="M0 149.79 L53.86 149.79 L0 149.79 Z" class="st2"/>
			</g>
			<g id="shape19-36" v:mID="19" v:groupContext="shape">
				<title>Name</title>
				<desc>Haul</desc>
				<v:textBlock v:margins="rect(4,4,4,4)" v:tabSpace="42.5197"/>
				<v:textRect cx="27" cy="137.194" width="54" height="25.2"/>
				<rect x="0" y="124.594" width="54" height="25.2" class="st2"/>
				<text x="19.57" y="139.59" class="st3" v:langID="1031"><v:paragraph v:horizAlign="1"/><v:tabList/>Haul</text>			</g>
		</g>
		<g id="shape20-39" v:mID="20" v:groupContext="shape" transform="translate(207.902,-85.7521) rotate(1.27821)">
			<title>Sheet.20</title>
			<path d="M0 149.79 L12.21 149.79" class="st9"/>
		</g>
		<g id="group21-45" transform="translate(291.703,-72.6071)" v:mID="21" v:groupContext="group">
			<v:userDefs>
				<v:ud v:nameU="UMLShapeType" v:val="VT0(40):26"/>
				<v:ud v:nameU="UMLObjectGUID" v:val="VT4({7F0E6F88-9AEA-4D31-9CBE-0876CAF30EDD})"/>
				<v:ud v:nameU="UMLError" v:val="VT0(0):26"/>
				<v:ud v:nameU="UMLPresOption1" v:val="VT0(1):26"/>
				<v:ud v:nameU="UMLSuppressOption" v:val="VT0(32):26"/>
				<v:ud v:nameU="UMLVersion" v:val="VT0(2):26"/>
				<v:ud v:nameU="UMLAutoLockTextEdit" v:val="VT0(1):26"/>
				<v:ud v:nameU="visDescription"
						v:val="VT4(Represents a condition during which an object satisfies some condition, performs an action or waits for an event.)"/>
				<v:ud v:nameU="visVersion" v:val="VT0(14):26"/>
			</v:userDefs>
			<title>State.22</title>
			<g id="shape22-46" v:mID="22" v:groupContext="shape">
				<title>Sheet.22</title>
				<path d="M9 149.79 L45 149.79 A9 9 -180 0 0 54 140.79 L54 133.28 A9 9 -180 0 0 45 124.28 L9 124.28 A9 9 -180 0 0
							 0 133.28 L0 140.79 A9 9 -180 0 0 9 149.79 Z" class="st1"/>
			</g>
			<g id="shape23-48" v:mID="23" v:groupContext="shape">
				<title>Transitions</title>
				<path d="M0 149.79 L53.86 149.79 L0 149.79 Z" class="st2"/>
			</g>
			<g id="shape24-50" v:mID="24" v:groupContext="shape">
				<title>Name</title>
				<desc>Dump</desc>
				<v:textBlock v:margins="rect(4,4,4,4)" v:tabSpace="42.5197"/>
				<v:textRect cx="27" cy="137.194" width="54" height="25.2"/>
				<rect x="0" y="124.594" width="54" height="25.2" class="st2"/>
				<text x="17.14" y="139.59" class="st3" v:langID="1031"><v:paragraph v:horizAlign="1"/><v:tabList/>Dump</text>			</g>
		</g>
		<g id="shape25-53" v:mID="25" v:groupContext="shape" transform="translate(277.671,-85.363)">
			<title>Sheet.25</title>
			<path d="M0 149.79 L7.13 149.79" class="st9"/>
		</g>
		<g id="shape26-58" v:mID="26" v:groupContext="shape" transform="translate(310.199,-52.0571)">
			<title>Decision.38</title>
			<v:userDefs>
				<v:ud v:nameU="UMLShapeType" v:val="VT0(62):26"/>
				<v:ud v:nameU="UMLObjectGUID" v:val="VT4({4144BB8F-DE70-4E81-9D1A-7554EC4BEBEE})"/>
				<v:ud v:nameU="UMLError" v:val="VT0(0):26"/>
				<v:ud v:nameU="UMLPresOption1" v:val="VT0(3):26"/>
				<v:ud v:nameU="UMLVersion" v:val="VT0(2):26"/>
				<v:ud v:nameU="visDescription"
						v:val="VT4(Expresses a decision when guard conditions are used to indicate different possible transitions that are Boolean dependent.)"/>
				<v:ud v:nameU="visVersion" v:val="VT0(14):26"/>
			</v:userDefs>
			<path d="M9.92 129.95 L19.84 139.87 L9.92 149.79 L0 139.87 L9.92 129.95 Z" class="st1"/>
		</g>
		<g id="shape27-60" v:mID="27" v:groupContext="shape" transform="translate(368.958,225.604) rotate(156.904)">
			<title>Sheet.27</title>
			<path d="M0 149.79 L38.99 149.79" class="st10"/>
		</g>
		<g id="group29-68" transform="translate(187.999,-24.8445)" v:mID="29" v:groupContext="group">
			<v:userDefs>
				<v:ud v:nameU="UMLShapeType" v:val="VT0(40):26"/>
				<v:ud v:nameU="UMLObjectGUID" v:val="VT4({1C5894BA-110D-4665-A507-5755075ADFCB})"/>
				<v:ud v:nameU="UMLError" v:val="VT0(0):26"/>
				<v:ud v:nameU="UMLPresOption1" v:val="VT0(1):26"/>
				<v:ud v:nameU="UMLSuppressOption" v:val="VT0(32):26"/>
				<v:ud v:nameU="UMLVersion" v:val="VT0(2):26"/>
				<v:ud v:nameU="UMLAutoLockTextEdit" v:val="VT0(1):26"/>
				<v:ud v:nameU="visDescription"
						v:val="VT4(Represents a condition during which an object satisfies some condition, performs an action or waits for an event.)"/>
				<v:ud v:nameU="visVersion" v:val="VT0(14):26"/>
			</v:userDefs>
			<title>State.30</title>
			<g id="shape30-69" v:mID="30" v:groupContext="shape">
				<title>Sheet.30</title>
				<path d="M9 149.79 L70.99 149.79 A9 9 -180 0 0 79.99 140.79 L79.99 133.28 A9 9 -180 0 0 70.99 124.28 L9 124.28 A9
							 9 -180 0 0 0 133.28 L0 140.79 A9 9 -180 0 0 9 149.79 Z" class="st1"/>
			</g>
			<g id="shape31-71" v:mID="31" v:groupContext="shape">
				<title>Transitions</title>
				<path d="M0 149.79 L53.86 149.79 L0 149.79 Z" class="st2"/>
			</g>
			<g id="shape32-73" v:mID="32" v:groupContext="shape">
				<title>Name</title>
				<desc>GoBackToLoadingSite</desc>
				<v:textBlock v:margins="rect(4,4,4,4)" v:tabSpace="42.5197"/>
				<v:textRect cx="39.9955" cy="137.194" width="80" height="25.2"/>
				<rect x="0" y="124.594" width="79.991" height="25.2" class="st2"/>
				<text x="4.91" y="139.59" class="st3" v:langID="1031"><v:paragraph v:horizAlign="1"/><v:tabList/>GoBackToLoadingSite</text>			</g>
		</g>
		<g id="shape33-76" v:mID="33" v:groupContext="shape" transform="translate(27.7436,102.134) rotate(-89.9469)">
			<title>Sheet.33</title>
			<path d="M0 149.79 L25.51 149.79" class="st5"/>
		</g>
		<g id="group35-81" transform="translate(293.049,-0.75)" v:mID="35" v:groupContext="group">
			<v:userDefs>
				<v:ud v:nameU="UMLShapeType" v:val="VT0(40):26"/>
				<v:ud v:nameU="UMLObjectGUID" v:val="VT4({CF885012-0889-4A77-9A30-2DCD8EDF2EB8})"/>
				<v:ud v:nameU="UMLError" v:val="VT0(0):26"/>
				<v:ud v:nameU="UMLPresOption1" v:val="VT0(1):26"/>
				<v:ud v:nameU="UMLSuppressOption" v:val="VT0(32):26"/>
				<v:ud v:nameU="UMLVersion" v:val="VT0(2):26"/>
				<v:ud v:nameU="UMLAutoLockTextEdit" v:val="VT0(1):26"/>
				<v:ud v:nameU="visDescription"
						v:val="VT4(Represents a condition during which an object satisfies some condition, performs an action or waits for an event.)"/>
				<v:ud v:nameU="visVersion" v:val="VT0(14):26"/>
			</v:userDefs>
			<title>State.36</title>
			<g id="shape36-82" v:mID="36" v:groupContext="shape">
				<title>Sheet.36</title>
				<path d="M9 149.79 L45 149.79 A9 9 -180 0 0 54 140.79 L54 133.28 A9 9 -180 0 0 45 124.28 L9 124.28 A9 9 -180 0 0
							 0 133.28 L0 140.79 A9 9 -180 0 0 9 149.79 Z" class="st1"/>
			</g>
			<g id="shape37-84" v:mID="37" v:groupContext="shape">
				<title>Transitions</title>
				<path d="M0 149.79 L53.86 149.79 L0 149.79 Z" class="st2"/>
			</g>
			<g id="shape38-86" v:mID="38" v:groupContext="shape">
				<title>Name</title>
				<desc>GoHome</desc>
				<v:textBlock v:margins="rect(4,4,4,4)" v:tabSpace="42.5197"/>
				<v:textRect cx="27" cy="137.194" width="54" height="25.2"/>
				<rect x="0" y="124.594" width="54" height="25.2" class="st2"/>
				<text x="12.58" y="139.59" class="st3" v:langID="1031"><v:paragraph v:horizAlign="1"/><v:tabList/>GoHome</text>			</g>
		</g>
		<g id="shape39-89" v:mID="39" v:groupContext="shape" transform="translate(469.913,98.1483) rotate(90.1574)">
			<title>Sheet.39</title>
			<path d="M0 149.79 L18.9 149.79" class="st9"/>
		</g>
		<g id="shape42-94" v:mID="42" v:groupContext="shape" transform="translate(0.75,-64.5295)">
			<title>Sheet.42</title>
			<desc>r: Request</desc>
			<v:textBlock v:margins="rect(4,4,4,4)" v:tabSpace="42.5197"/>
			<v:textRect cx="22.6772" cy="144.125" width="45.36" height="11.3386"/>
			<rect x="0" y="138.455" width="45.3543" height="11.3386" class="st2"/>
			<text x="6.05" y="146.52" class="st3" v:langID="1031"><v:paragraph v:horizAlign="1"/><v:tabList/>r: Request</text>		</g>
		<g id="shape43-97" v:mID="43" v:groupContext="shape" transform="translate(167.616,-27.6791)">
			<title>Decision.44</title>
			<v:userDefs>
				<v:ud v:nameU="UMLShapeType" v:val="VT0(62):26"/>
				<v:ud v:nameU="UMLObjectGUID" v:val="VT4({A0359BAA-543E-4CF3-A241-64ED718D2650})"/>
				<v:ud v:nameU="UMLError" v:val="VT0(0):26"/>
				<v:ud v:nameU="UMLPresOption1" v:val="VT0(3):26"/>
				<v:ud v:nameU="UMLVersion" v:val="VT0(2):26"/>
				<v:ud v:nameU="visDescription"
						v:val="VT4(Expresses a decision when guard conditions are used to indicate different possible transitions that are Boolean dependent.)"/>
				<v:ud v:nameU="visVersion" v:val="VT0(14):26"/>
			</v:userDefs>
			<path d="M9.92 129.95 L19.84 139.87 L9.92 149.79 L0 139.87 L9.92 129.95 Z" class="st1"/>
		</g>
		<g id="shape45-99" v:mID="45" v:groupContext="shape" transform="translate(178.104,-13.5059)">
			<title>Sheet.45</title>
			<path d="M0 149.79 L108.04 149.79" class="st9"/>
		</g>
		<g id="shape46-104" v:mID="46" v:groupContext="shape" transform="translate(327.331,122.115) rotate(90)">
			<title>Sheet.46</title>
			<path d="M0 149.79 L14.17 149.79" class="st12"/>
		</g>
		<g id="group52-107" transform="translate(18.035,-112.75)" v:mID="52" v:groupContext="group">
			<v:userDefs>
				<v:ud v:nameU="UMLShapeType" v:val="VT0(45):26"/>
				<v:ud v:nameU="UMLObjectGUID" v:val="VT4({873E36A3-B712-40C6-94A4-C64B225D6F5F})"/>
				<v:ud v:nameU="UMLError" v:val="VT0(0):26"/>
				<v:ud v:nameU="UMLVersion" v:val="VT0(2):26"/>
				<v:ud v:nameU="UMLPresOption1" v:val="VT0(2):26"/>
				<v:ud v:nameU="visDescription" v:val="VT4(Use to place a comment on a diagram. )"/>
				<v:ud v:nameU="visVersion" v:val="VT0(14):26"/>
			</v:userDefs>
			<title>Note.52</title>
			<g id="shape53-108" v:mID="53" v:groupContext="shape" transform="translate(79.5334,-18.4017)">
				<title>Sheet.53</title>
				<path d="M0 149.79 L-72.32 186.67" class="st13"/>
			</g>
			<g id="shape54-111" v:mID="54" v:groupContext="shape">
				<title>Name</title>
				<desc>modelVariables ----------------------------------------------...</desc>
				<v:textBlock v:margins="rect(4,4,4,4)" v:tabSpace="42.5197"/>
				<v:textRect cx="79.5334" cy="131.392" width="159.07" height="36.8035"/>
				<path d="M159.07 123.79 L150.07 112.99 L150.07 123.79 L159.07 123.79 ZM0 149.79 L159.07 149.79 L159.07 123.79 L150.07
							 123.79 L150.07 112.99 L0 112.99 L0 149.79 Z" class="st14"/>
				<text x="4" y="124.19" class="st3" v:langID="1031"><v:paragraph/><v:tabList/>modelVariables<v:newlineChar/><tspan
							x="4" dy="1.2em" class="st15">------------------------------------------------------<v:newlineChar/></tspan><tspan
							x="4" dy="1.2em" class="st15">nmrOfLoads </tspan>:= r.quantity / Truck.capacity</text>			</g>
		</g>
		<g id="shape55-116" v:mID="55" v:groupContext="shape" transform="translate(169.961,-8.44336) rotate(60.9454)">
			<title>Sheet.55</title>
			<path d="M0 149.79 L32.1 149.79" class="st16"/>
		</g>
		<g id="shape56-119" v:mID="56" v:groupContext="shape" transform="translate(54.6083,-48.924)">
			<title>Sheet.56</title>
			<path d="M2.65 131.37 L0 131.37 L0 149.79 L2.74 149.79" class="st12"/>
		</g>
		<g id="shape57-122" v:mID="57" v:groupContext="shape" transform="translate(58.8602,-47.5067)">
			<title>Sheet.57</title>
			<desc>for truck of resourcePools[&#34;trucks&#34;]</desc>
			<v:textBlock v:margins="rect(0,0,0,0)" v:tabSpace="42.5197"/>
			<v:textRect cx="39.685" cy="139.873" width="79.38" height="19.8425"/>
			<rect x="0" y="129.951" width="79.3701" height="19.8425" class="st2"/>
			<text x="0" y="137.47" class="st3" v:langID="1031"><v:paragraph/><v:tabList/>for truck of <v:newlineChar/><tspan x="0"
						dy="1.2em" class="st15">resourcePools</tspan>[&#34;trucks&#34;]</text>		</g>
		<g id="group13-126" transform="translate(189.254,-112.75)" v:mID="13" v:groupContext="group">
			<v:userDefs>
				<v:ud v:nameU="UMLShapeType" v:val="VT0(45):26"/>
				<v:ud v:nameU="UMLObjectGUID" v:val="VT4({E4081C8A-433F-446A-9B2C-ABCA0C304AE3})"/>
				<v:ud v:nameU="UMLError" v:val="VT0(0):26"/>
				<v:ud v:nameU="UMLVersion" v:val="VT0(2):26"/>
				<v:ud v:nameU="UMLPresOption1" v:val="VT0(2):26"/>
				<v:ud v:nameU="visDescription" v:val="VT4(Use to place a comment on a diagram. )"/>
				<v:ud v:nameU="visVersion" v:val="VT0(14):26"/>
			</v:userDefs>
			<title>Note.13</title>
			<g id="shape14-127" v:mID="14" v:groupContext="shape" transform="translate(38.6129,-18.4017)">
				<title>Sheet.14</title>
				<path d="M0 149.79 L-36.81 182.4" class="st13"/>
			</g>
			<g id="shape15-130" v:mID="15" v:groupContext="shape">
				<title>Name</title>
				<desc>modelVariables --------------------- nmrOfLoads--</desc>
				<v:textBlock v:margins="rect(4,4,4,4)" v:tabSpace="42.5197"/>
				<v:textRect cx="38.6129" cy="131.392" width="77.23" height="36.8035"/>
				<path d="M77.23 123.79 L68.23 112.99 L68.23 123.79 L77.23 123.79 ZM0 149.79 L77.23 149.79 L77.23 123.79 L68.23 123.79
							 L68.23 112.99 L0 112.99 L0 149.79 Z" class="st14"/>
				<text x="4" y="124.19" class="st3" v:langID="1031"><v:paragraph/><v:tabList/>modelVariables<v:newlineChar/><tspan
							x="4" dy="1.2em" class="st15">---------------------<v:newlineChar/></tspan><tspan x="4" dy="1.2em"
							class="st15">nmrOfLoads</tspan>--</text>			</g>
		</g>
		<g id="shape28-135" v:mID="28" v:groupContext="shape" transform="translate(322.482,-37.5854)">
			<title>Sheet.28</title>
			<desc>[nmrOfLoads = 0]</desc>
			<v:textBlock v:margins="rect(0,0,0,0)" v:tabSpace="42.5197"/>
			<v:textRect cx="31.1811" cy="144.125" width="62.37" height="11.3386"/>
			<rect x="0" y="138.455" width="62.3622" height="11.3386" class="st2"/>
			<text x="2.97" y="146.52" class="st3" v:langID="1031"><v:paragraph v:horizAlign="1"/><v:tabList/>[nmrOfLoads = 0]</text>		</g>
		<g id="shape34-138" v:mID="34" v:groupContext="shape" transform="translate(180.75,-51.7586)">
			<title>Sheet.34</title>
			<desc>[nmrOfLoads &#62; 0]</desc>
			<v:textBlock v:margins="rect(0,0,0,0)" v:tabSpace="42.5197"/>
			<v:textRect cx="31.1811" cy="144.125" width="62.37" height="11.3386"/>
			<rect x="0" y="138.455" width="62.3622" height="11.3386" class="st2"/>
			<text x="2.97" y="146.52" class="st3" v:langID="1031"><v:paragraph v:horizAlign="1"/><v:tabList/>[nmrOfLoads &#62; 0]</text>		</g>
		<g id="shape40-141" v:mID="40" v:groupContext="shape" transform="translate(245.559,-5.97902) rotate(29.0546)">
			<title>Sheet.40</title>
			<path d="M0 149.79 L11.67 149.79" class="st12"/>
		</g>
	</g>
</svg>
