<?xml version="1.0" encoding="UTF-8"?>
<svg enable-background="new 0 0 2391.878 1675.53" version="1.1" viewBox="0 0 2317 1601" xml:space="preserve" xmlns="http://www.w3.org/2000/svg" xmlns:cc="http://creativecommons.org/ns#" xmlns:dc="http://purl.org/dc/elements/1.1/" xmlns:rdf="http://www.w3.org/1999/02/22-rdf-syntax-ns#"><metadata><rdf:RDF><cc:Work rdf:about=""><dc:format>image/svg+xml</dc:format><dc:type rdf:resource="http://purl.org/dc/dcmitype/StillImage"/><dc:title/></cc:Work></rdf:RDF></metadata>
<g transform="translate(-37.441 -37.265)">
	<path d="m1598.3 41.397c62.531-4.137 125.75-4.19 187.96-2.857 65.441 1.402 131.11 2.859 196.58 2.859 10.283 0.249 15.855-0.537 23.135 6.779 8.445 8.487 16.897 16.967 25.35 25.447 7.411 7.435 17.364 14.866 22.761 23.974-5.949 0.954-11.94 1.7-17.931 1.555-29.249-1.327-58.518-1.451-87.767-1.7-84.755-3.685-169.9-2.925-254.68-1.033-31.291 0.699-62.566 2.084-93.796 4.157-15.391 1.021-30.837 1.995-46.167 3.663-14.33 1.56-30.205 1.552-44.192 5.049-21.599 4.021-43.655 6.55-64.301 14.386-4.436 2.031-9.369 4.021-11.857 8.457-14.531 23.569-21.351 50.724-32.109 76.034-6.074 17.143-12.334 34.224-17.329 51.719-5.431 17.495-13.329 34.099-18.283 51.74-8.146 26.595-18.449 52.424-26.409 79.061-6.529 18.594-10.883 37.934-18.594 56.093-6.965 19.236-12.106 39.074-18.407 58.497-5.555 10.489-7.545 22.222-11.339 33.353 3.13 0.974 6.302 1.948 9.494 2.985-5.452-0.083-11.007-0.435-16.272 0.974-5.224 3.98-8.872 10.675-8.229 17.33 0.373 5.327 5.058 8.644 8.81 11.815-1.057 0.104-3.151 0.311-4.208 0.394-3.586 10.8-6.364 21.869-10.904 32.317-8.354 24.294-13.619 49.667-23.714 73.36-4.726 15.878-9.432 31.798-14.427 47.594-6.364 24.813-16.044 48.568-23.32 73.091-0.933 2.736-1.824 5.473-2.653 8.25-15.775-0.663-31.135-4.166-46.661-6.447 0.539-4.664 1.098-9.307 1.803-13.951 1.534-11.753 6.24-22.678 9.929-33.83 7.79-30.049 16.427-59.87 25.206-89.643 4.33-14.687 8.698-29.364 13.016-44.054 3.991-13.576 9.381-27.082 13.041-40.655 7.871-29.187 16.644-58.12 25.626-86.981 8.576-27.557 15.028-56.399 26.258-83.018 8.105-26.678 15.754-53.564 25.082-79.848-3.234-0.933-6.447-1.907-9.598-2.902 3.545-0.228 7.11-0.601 10.738-0.912 1.43-3.379 2.881-6.737 4.374-10.074-2.322-1.306-4.581-2.612-6.84-3.814 2.487-0.56 5.016-1.099 7.587-1.638 4.892-14.697 9.909-29.373 14.386-44.236 13.246-32.213 21.558-66.374 36.297-97.986 6.426-17.184 11.981-34.928 21.599-50.662 5.597-10.758 9.411-23.175 19.071-31.177 22.026-17.834 54.054-22.899 81.073-28.165 39.898-7.779 80.244-12.815 120.81-15.35z" fill="#2f2f2f" stroke="#2f2f2f"/>
	<path d="m852.56 66.421c21.931-1.306 43.966-0.207 65.96-0.56 62.519 0.104 125.04-0.207 187.56 0.145-0.021 13.577 0.27 27.176-0.042 40.753l-1.492 1.036c-49.356 0.663-98.774-0.477-148.13 0.56 0.062 226.07 0 452.16 0.042 678.23-0.042 7.939 0.186 15.878-0.352 23.818-4.125 0.27-8.188 0.871-12.23 1.472-1.223 24.025-0.207 48.091-0.518 72.137 0.415 16.832-1.078 33.747 0.933 50.537 3.918 0.829 7.877 1.7 11.857 2.467 0.58 65.027 0.352 130.08 0.124 195.1-12.085-0.062-24.17-0.269-36.234 0.373 1.617 22.906 5.617 45.604 6.219 68.613 0.518 23.755 5.68 47.076 6.053 70.852 3.234-2.57 6.447-5.141 9.556-7.856 3.172-2.943 6.447-5.908 8.955-9.473-0.85-3.897-3.192-7.214-5.058-10.613 8.416-9.017 19.547-14.635 29.518-21.682 2.031 3.379 4.084 6.778 6.177 10.178 12.106-2.757 21.537-11.816 33.809-14.262-1.306-3.731-2.591-7.483-3.835-11.173 10.551-6.447 22.615-9.888 34.949-10.447 1.202 3.358 2.446 6.758 3.71 10.178 11.671 0.373 23.299-0.808 34.783-2.943 0.56-3.814 1.099-7.607 1.741-11.38 11.754-1.036 23.59-0.746 35.364 0.187 0.228 4.623 0.456 9.245 0.705 13.888 11.67 1.679 23.03 4.975 34.721 6.654 1.824-3.731 3.711-7.421 5.659-11.09 11.277 3.607 22.408 7.794 32.773 13.619-1.555 4.001-3.089 8.001-4.519 12.023 10.323 4.892 19.983 11.007 29.829 16.791 3.006-2.653 6.011-5.286 9.059-7.898 10.24 6.447 20.294 13.702 27.57 23.527-2.094 3.047-4.167 6.115-6.157 9.204 6.696 8.706 13.246 17.578 21.061 25.372 3.483-1.472 7.006-2.944 10.572-4.374 7.753 9.183 12.728 20.169 17.682 31.011-3.565 1.783-7.131 3.586-10.655 5.39 3.69 10.676 7.608 21.268 12.375 31.529 4.27-0.124 8.582-0.207 12.914-0.29 2.425 11.173 3.938 22.512 4.685 33.933-3.607 1.451-7.214 2.902-10.759 4.395 0.435 6.322 1.099 12.645 1.866 18.967 3.814 0.56 7.628 1.119 11.505 1.741 0.352 11.38-0.518 22.802-2.736 33.975-4.436 0.456-8.851 0.933-13.225 1.43-1.638 11.049-4.892 21.724-8.768 32.172 3.897 2.031 7.815 4.042 11.774 6.053-2.633 8.229-6.053 16.189-10.24 23.735-1.679 2.902-3.752 5.535-5.68 8.25-3.483-1.368-6.923-2.757-10.365-4.084-5.535 8.229-11.028 16.5-17.184 24.315-4.685 5.161 3.379 9.059 6.385 12.5-8.582 9.1-15.256 20.688-26.575 26.74-3.192-2.695-5.576-6.115-8.188-9.266-7.587 7.898-16.48 14.262-26.015 19.568-2.176 4.809 3.897 9.038 2.031 13.868-7.566 5.182-16.106 8.706-23.921 13.474-2.695 1.99-6.094 1.493-9.183 1.658-0.85-3.151-1.72-6.24-2.529-9.328-11.795 1.306-21.931 8.271-33.457 10.593-0.435 3.752 1.43 8.084-0.725 11.463-11.359 3.482-23.424 3.379-35.177 3.586-1.244-3.192-2.467-6.323-3.711-9.432-11.401 1.244-22.76-0.145-34.058-1.368-0.58 3.4-1.078 6.799-1.534 10.261-12.375 0.808-24.626-1.679-36.67-4.146 0.249-4.602 0.58-9.142 0.725-13.681-10.883-3.317-21.849-6.613-32.234-11.277-2.073 3.669-4.249 7.297-6.447 10.904-10.012-4.768-19.9-9.763-29.29-15.609-3.586-4.457 1.244-9.038 3.545-12.748-6.82-5.307-14.593-9.328-20.812-15.381-2.218-1.907-4.208-4.457-7.255-4.809-3.628 1.347-6.364 4.581-10.116 5.473-9.494-7.131-15.609-17.744-23.362-26.575 3.234-2.798 6.467-5.597 9.888-8.229-5.078-7.815-12.106-14.365-15.588-23.113-1.119-2.177-1.638-5.037-4.395-5.535-3.731 0.933-7.11 2.798-10.551 4.415-5.991-11.049-12.541-22.47-14.034-35.136 3.939-1.472 7.939-2.881 11.898-4.436-5.224-10.074-5.659-21.641-7.193-32.648-4.726 0.062-9.453 0.083-14.117-0.062-0.746-12.437-1.161-24.916-0.435-37.375 3.648 0 7.359 0.083 11.069 0.187 1.119-11.816 2.011-23.59 4.104-35.281-3.545-0.207-7.11-0.456-10.572-0.643-0.643-12.272 6.074-23.217 8.188-35.073 4.664-0.187 9.183 0.891 13.536 2.612 4.042-10.696 10.883-20.149 14.22-31.073-13.826 0.166-27.632 0.145-41.437 0.041-11.111-1.078-20.086 6.841-30.119 10.219-7.317 3.814-16.107 5.701-21.993 11.629-1.161 26.119-0.187 52.403-0.456 78.584-0.477 6.716 1.679 14.966-3.918 20.128-5.037 5.908-11.857 11.359-20.19 9.743-8.064 0.56-14.034-5.618-17.392-12.23-3.835-5.348-2.384-12.23-2.632-18.345 0.311-107.6 0.124-215.21 0.083-322.81 0.021-5.472 1.306-10.82 3.213-15.878 2.28-6.924 9.556-11.235 16.728-10.53 11.712-1.907 25.518 7.628 24.066 20.314 0.145 56.715-0.269 113.45 0.187 170.16-0.456 4.768 6.011 1.969 8.727 2.177 10.924-1.575 22.035-1.596 32.98-3.234 1.617-7.918 0.995-16.003 1.057-23.984v-684.06c-0.143-157.84 0.313-315.66-0.226-473.5m222.3 1246c-19.237 4.125-38.805 10.924-52.859 25.31-14.946 10.903-25.414 26.989-30.472 44.712-7.587 18.076-9.701 38.784-3.358 57.565 4.519 12.292 8.188 25.207 16.314 35.758 14.593 21.227 37.934 34.7 62.208 41.935 14.966 3.566 30.575 2.508 45.811 1.493 10.945-0.56 20.335-6.592 29.974-11.152 14.614-7.255 28.399-17.205 37.312-31.156 9.763-11.629 13.142-26.678 19.133-40.277 2.84-17.889 3.317-37.167-4.353-53.999-4.706-11.691-10.012-23.382-18.117-33.125-5.991-7.276-13.93-12.479-21.082-18.449-7.773-6.882-17.744-10.302-27.238-14.013-16.811-7.007-35.529-5.742-53.273-4.602z" fill="#2f2f2f" stroke="#2f2f2f"/>
	<path d="m2054 97.597c4.042-0.518 10.012-0.58 11.567 4.146 3.296 9.577 1.285 19.9 1.866 29.808-0.332 7.297 1.762 17.06-5.576 21.683-6.82 0.974-13.743 0.311-20.542 1.078-3.109-18.242-2.985-36.815-5.245-55.16 5.99 0.145 11.98-0.601 17.93-1.555z" fill="#c00d28" stroke="#c00d28"/>
	<path d="m979.36 126.02c34.099-0.228 68.219 0 102.34-0.124-0.042 76.925 0.104 153.87-0.062 230.8-17.62-0.124-35.239-0.124-52.838 0-14.531 0.062-29.062 0.083-43.572 0-1.472 0-4.374-0.041-5.825-0.062-0.021-76.864 0.083-153.75-0.042-230.61z" fill="#090909" stroke="#090909"/>
	<path d="m1231.2 328.46c3.669-12.437 12.686-26.264 27.196-26.264 13.287 0.269 26.844 2.902 39.012 8.416 2.259 1.202 4.519 2.508 6.84 3.814-1.492 3.337-2.943 6.695-4.374 10.074-3.628 0.311-7.193 0.684-10.738 0.912-10.531-2.529-21.662-7.421-32.441-5.41-11.401 9.991-13.018 26.761-14.614 40.981 5.963 1.248 10.327 0.627 13.371 6.114 4.247 7.656 1.463 14.058 0.289 21.788-2.923 19.236-7.276 38.203-12.81 56.86-0.915 3.084-4.169 7.126-7.33 7.952-1.949 0.509-4.004 0.341-6.006 0.127-8.243-0.88-16.035-3.152-24.14-4.608-5.982-1.074-12.305-0.56-16.602-5.716-5.395-6.472-2.857-16.414-0.896-23.79 3.503-11.836 3.441-24.44 7.338-36.172 2.674-8.333 4.042-17.267 8.271-25.02 5.763-4.726 13.723-1.575 20.439-1.43 3.112-9.349 5.64-18.864 7.195-28.628z" fill="#090909" stroke="#090909"/>
	<path d="m985.23 356.69c14.51 0.083 29.041 0.062 43.572 0 0.912 151.24-0.249 302.52 0.58 453.78-14.759 0.456-29.518 0.622-44.256 0.249 0.705-104.76 0.104-209.55 0.311-314.34-0.145-46.557 0.27-93.135-0.207-139.69z" fill="#415c77" stroke="#415c77"/>
	<path d="m1886.4 500.26c8.333-15.526 29-21.413 45.044-15.298 9.141 3.918 16.479 11.94 19.962 21.206-0.477 91.394-0.062 182.81-0.208 274.2-0.145 14.013 0.622 28.067-0.746 42.039-6.198-5.7-10.302-13.329-16.853-18.615-14.572-10.095-33.995-13.163-50.848-7.38 0.622-90.337 0.124-180.67 0.249-271.01 0.353-8.396-1.43-17.683 3.4-25.145z" fill="#090909" stroke="#090909"/>
	<path d="m1951.5 506.17c1.182 5.618 1.907 11.36 1.969 17.122-0.062 100.89 0 201.78-0.042 302.66 0 13.909 3.006 28.544-2.591 41.81-3.213 6.032-7.981 11.09-12.417 16.231-9.515 11.65-25.58 12.831-37.727 20.501l-1.513 0.622c2.197-1.886 4.332-3.876 6.529-5.825-13.329-0.539-27.466-1.928-38.203-10.634-13.225-9.929-20.646-26.098-20.854-42.495-0.269-22.139 14.573-43.759 36.193-49.75 16.853-5.783 36.276-2.716 50.848 7.38 6.55 5.286 10.655 12.914 16.853 18.615 1.368-13.971 0.601-28.026 0.746-42.039 0.146-91.393-0.268-182.81 0.209-274.2z" fill="#403447" stroke="#403447"/>
	<path d="m1284.1 542.59c5.265-1.41 10.821-1.057 16.272-0.974 25.476 11.981 52.196 21.144 78.231 31.819 20.542 10.8 43.261 16.583 63.99 26.927 6.053 2.799 13.039 4.685 17.309 10.24 2.094 5.742 1.865 12.375-0.125 18.138-4.768 5.804-12.728 10.033-20.314 7.566-9.37-3.192-18.511-6.924-27.238-11.525-11.837-5.037-24.232-8.789-35.696-14.697-9.411-4.353-19.589-6.695-28.958-11.09-20.19-10.841-43.51-14.966-62.892-27.259-3.752-3.171-8.437-6.488-8.81-11.815-0.641-6.654 3.007-13.35 8.231-17.33z" fill="#090909" stroke="#090909"/>
	<path d="m1347.6 598.99c9.37 4.395 19.548 6.737 28.958 11.09-2.322 0.477-4.581 0.954-6.82 1.451-4.436 8.271-8.043 16.956-12.541 25.186-12.043 19.485-21.309 40.546-32.627 60.467-6.074 10.157-11.111 20.874-16.376 31.467-4.851 9.971-11.878 18.698-16.417 28.834-9.681 20.066-20.045 39.758-31.653 58.788-18.262-2.778-37.458-2.031-54.642-9.535 0.829-2.778 1.72-5.514 2.653-8.25-0.083 2.778-0.083 5.597 0.021 8.416 8.851 1.472 17.661 3.296 26.616 4.125 3.938-7.815 8.188-15.505 12.81-22.968 9.162-14.78 15.07-31.322 24.647-45.894 11.422-20.397 21.703-41.437 33.394-61.69 13.848-27.239 30.411-53.171 41.977-81.487z" fill="#7e7e7e" stroke="#7e7e7e"/>
	<path d="m682.65 695.13c8.437 2.404 14.179 9.66 22.201 13.018 15.049 9.038 30.803 16.936 45.251 26.989 6.281 4.021 17.578 6.364 15.816 16.107-0.27 106.11 0.29 212.22-0.29 318.32 0.85-0.124 2.57-0.373 3.42-0.497-1.907 5.058-3.192 10.406-3.213 15.878 0.042 107.6 0.228 215.21-0.083 322.81-18.511 10.282-35.882 22.657-51.864 36.545-8.789 7.608-20.936 8.437-32.006 8.582-0.331-19.465 0.042-38.908-0.186-58.352-3.462-0.58-6.861-1.14-10.261-1.555 3.399-0.29 6.799-0.705 10.24-1.057 0.394-153.42 0.021-306.81 0.187-460.23-0.062-16.936-0.021-33.871-1.098-50.765 0.539-27.777 3.607-55.575 1.824-83.331-1.658-21.579-0.352-43.282-0.746-64.903 0.186-12.52-0.726-25.102 0.808-37.561z" fill="#7d8d9f" stroke="#7d8d9f"/>
	<path d="m1328.1 741.01c2.633-10.572 12.002-20.771 23.59-20.314 12.044-1.244 22.056 8.478 26.699 18.697 4.084 11.443-4.249 23.258-13.868 28.855-7.753 4.83-17.122 2.114-25.352 0.477-15.111 17.62-31.094 34.431-46.081 52.154-3.648 0.062-7.234 0.29-10.8 0.498 0.083-0.808 0.27-2.425 0.353-3.234 4.871-6.509 9.598-13.184 15.381-18.946 12.541-11.753 22.408-25.932 35.053-37.623-3.254-6.344-6.613-13.226-4.975-20.564z" fill="#090909" stroke="#090909"/>
	<path d="m349.26 783.19c6.778-0.332 13.598 0.166 20.294 1.534 17.723 1.534 35.612 0.042 53.315 2.114-0.228 9.722-0.663 19.444-1.886 29.104-2.176 17.019-1.845 34.265-3.918 51.304-2.902 21.786-1.016 43.863-3.151 65.732-15.464 0.373-30.886-0.954-46.329-1.368-8.25-0.249-16.479-0.456-24.688-0.663-0.435-20.522 0.518-41.023 1.824-61.482-0.167-28.834 4.124-57.441 4.539-86.275z" fill="#b68401" stroke="#b68401"/>
	<path d="m1149.4 818.47c5.099-10.261 6.343-21.828 11.194-32.13-0.705 4.643-1.264 9.287-1.803 13.951 15.526 2.28 30.886 5.784 46.661 6.447 17.184 7.504 36.379 6.758 54.642 9.535 7.483 0.746 14.987 1.575 22.532 1.866-0.083 0.808-0.27 2.425-0.353 3.234 3.565-0.207 7.152-0.435 10.8-0.498 4.457 0.435 8.934 1.244 13.433 1.866-1.41 0.228-4.27 0.643-5.68 0.871 1.326 5.825 3.648 12.292 0.269 17.91-10.385 20.48-21.268 41.396-37.955 57.544-10.966 10.655-29.705 13.142-35.633 28.689-5.452 19.444-13.702 37.914-18.926 57.44-6.281 22.781-15.464 44.567-21.932 67.286-4.726 14.116-8.996 28.357-13.287 42.598-3.628 12.624-9.639 24.419-12.541 37.271-58.539 0.021-117.08-0.249-175.62-0.187 0.559-57.834 0.021-115.69 0.269-173.52 0.083-7.939-0.104-15.899-1.016-23.776 14.987-0.311 30.036-1.14 44.961 0.767-0.643 51.968-0.27 103.98-0.187 155.96 6.053-6.53 7.234-15.733 11.463-23.32 9.515-18.656 15.63-38.826 25.31-57.399 8.437-18.822 15.879-38.058 23.983-57.026 7.836-14.282 13.287-29.684 19.444-44.713 3.234-8.913 8.996-16.645 11.94-25.683 9.04-21.806 17.539-43.841 28.028-64.985z" fill="#415c77" stroke="#415c77"/>
	<path d="m943.88 811.88c4.042-0.601 8.105-1.202 12.23-1.472 9.66 0.124 19.34 0.249 29.021 0.311 14.738 0.373 29.497 0.207 44.256-0.249 1.264 23.092 0.187 46.267 0.539 69.401-0.311 18.573 0.643 37.209-0.497 55.761-14.925-1.907-29.974-1.078-44.961-0.767-9.473 0.207-19.237-1.14-28.316 2.156-3.98-0.767-7.939-1.638-11.857-2.467-2.011-16.79-0.518-33.705-0.933-50.537 0.311-24.045-0.705-48.112 0.518-72.137z" fill="#403447" stroke="#403447"/>
	<path d="m1300.8 823.61c1.409-0.228 4.27-0.643 5.68-0.871 15.858 1.119 31.259 5.659 47.179 6.405 10.323-0.29 18.345 11.961 14.137 21.372-4.001 10.966-9.266 21.558-16.521 30.741-8.955 11.733-16.003 25.683-28.958 33.623-8.478 6.032-18.221 10.178-26.326 16.687-10.779 27.59-16.521 56.984-28.108 84.305-6.882 22.035-13.059 44.298-20.584 66.146-16.189 5.037-25.559 20.584-30.969 35.633-1.824 4.643-1.575 10.281-4.519 14.365-16.957 1.223-34.016-0.042-51.014 0.332 2.902-12.852 8.913-24.647 12.541-37.271 4.291-14.241 8.561-28.482 13.287-42.598 6.468-22.719 15.651-44.505 21.932-67.286 5.224-19.527 13.474-37.996 18.926-57.44 5.928-15.547 24.667-18.034 35.633-28.689 16.687-16.148 27.57-37.064 37.955-57.544 3.378-5.618 1.056-12.085-0.271-17.91z" fill="#2f2f2f" stroke="#2f2f2f"/>
	<path d="m1570.5 864.74c4.767-12.665 19.071-19.257 31.964-18.801 81.382 0.228 162.74-0.207 244.13 0.228 0.207 16.397 7.628 32.565 20.854 42.495 10.737 8.706 24.875 10.095 38.203 10.634-2.197 1.948-4.332 3.939-6.529 5.825-6.55 2.881-13.681 4.229-20.771 4.291-80.18-0.124-160.36-0.021-240.54-0.062-18.096-0.373-36.732 2.094-54.082-4.374-14.489-6.945-20.314-26.078-13.225-40.236z" fill="#090909" stroke="#090909"/>
	<path d="m2297.2 1174.2c-0.912-9.66-0.56-19.361-0.58-29.021-0.042-54.58-0.394-109.16-0.291-163.76 1.534-23.465 2.031-47.076 0.083-70.52-0.621-14.987-1.078-30.907-9.059-44.111-8.312-11.816-21.495-19.63-35.364-23.03-22.096-7.773-45.976-6.032-68.944-4.892-29.497-0.207-61.109 1.368-90.586 0.083 0.56 10.675 0.622 21.372 1.679 32.026 0.104 9.473 0 18.988 1.285 28.42 2.736 19.195 2.736 38.701 6.695 57.73 1.161 21.931 1.845 43.883 4.623 65.711 3.254 25.974 2.965 52.216 5.244 78.273 2.198 10.489 4.768 21.206 4.644 31.902-32.586 0.933-65.193 0.062-97.759 0.332-100.74-0.145-201.49-0.124-302.23-0.228-46.951-0.332-93.923 0.601-140.87-0.622-91.684-0.539-183.41 0.083-275.12-0.373-2.694-14.614-5.472-30.555-17.06-41.023-9.204-9.971-23.755-9.639-36.213-9.1-16.189 5.037-25.559 20.584-30.969 35.633-1.825 4.643-1.576 10.281-4.519 14.365-16.957 1.223-34.017-0.042-51.014 0.332-58.539 0.021-117.08-0.249-175.62-0.187-9.66 0.041-19.319 0.021-28.938-0.042-12.085-0.062-24.17-0.269-36.234 0.373 1.617 22.906 5.617 45.604 6.219 68.613 0.518 23.755 5.68 47.076 6.053 70.852 3.234-2.57 6.447-5.141 9.556-7.856-1.845-8.561-3.814-17.101-4.623-25.828-1.741-9.556 7.67-15.671 14.199-20.729 13.785-8.395 26.264-19.071 41.334-25.165 20.004-8.768 40.878-15.443 62.063-20.708 25.165-5.182 51.139-4.457 76.657-2.985 19.112 0.829 37.105 7.628 55.243 12.976 17.785 5.825 35.177 13.329 50.662 23.942 32.773 20.107 61.358 47.718 80.677 81.133 20.729 30.969 29.767 68.033 34.514 104.56 2.55 23.984 0.477 48.278-3.98 71.93-0.269 3.151-1.824 7.193 1.638 9.287 10.054 1.824 20.355 0.643 30.534 0.85 157.58 0.021 315.14-0.042 472.72 0.021 3.358-0.456 7.898 0.29 9.806-3.379 0.02-7.068-1.845-13.951-2.654-20.895-3.337-27.3 0.29-54.828 5.908-81.548 4.208-15.091 10.074-29.663 15.692-44.277 6.26-16.687 17.143-30.969 26.637-45.873 12.293-17.744 27.59-33.291 44.34-46.868 11.463-11.961 26.43-19.257 40.069-28.295 22.035-13.66 47.159-20.895 71.95-27.735 19.257-6.136 39.654-6.716 59.699-6.841 18.035 0.021 36.296 0.228 53.958 4.415 21.703 5.576 43.489 11.463 63.824 21.082 15.588 6.239 28.917 16.604 43.179 25.248 4.167 2.861 9.785 5.763 9.453 11.733 0.975 17.868-0.269 35.82 0.125 53.73l1.493 1.161c0.953-21.04 0.683-42.142-0.457-63.141-0.706-15.922 1.906-31.78 0.62-47.679z" fill="#ea113a" stroke="#ea113a"/>
	<path d="m1583.7 904.97c17.35 6.467 35.986 4.001 54.082 4.374 80.18 0.042 160.36-0.062 240.54 0.062 7.089-0.062 14.22-1.41 20.771-4.291l1.513-0.622c-0.29 1.182-0.891 3.545-1.182 4.726 21.973 0.187 43.966-0.186 65.96 0.062 7.338 0.394 15.526 0.228 21.641 4.975 6.385 5.058 11.753 11.256 17.412 17.101-0.021-2.778-0.021-5.555 0-8.312 6.695 35.011 4.229 70.873 7.981 106.17 2.902 19.858 2.114 39.986 3.462 59.969 1.14 14.738 0.083 29.953 4.975 44.174-100.74-0.145-201.49-0.124-302.23-0.228-46.951-0.332-93.923 0.601-140.88-0.622-10.157-8.831-21.289-20.335-20.169-34.866 0.207-45.645 0.124-91.291 0.062-136.92 0.187-7.753-0.953-15.775 1.43-23.258 6.032-12.873 17.039-23.569 30.762-27.901-2.052-1.575-4.084-3.15-6.136-4.602z" fill="#7d8d9f" stroke="#7d8d9f"/>
	<path d="m88.41 1058c4.27-0.705 8.603-0.601 12.914-0.249 0.041 18.055-0.435 36.131-1.036 54.186-0.684 3.192-1.036 7.048-3.42 9.453-3.607 0.166-7.214 0.021-10.8 0.062-0.684-13.495-0.104-27.031 0.518-40.505 1.658-7.546 2.072-15.257 1.824-22.947z" fill="#040404" stroke="#040404"/>
	<path d="m121.68 1080.9c1.555-7.67 1.907-15.443 2.425-23.216 2.715 0.788 5.472 1.555 8.25 2.342-0.435 20.584-3.234 41.064-2.135 61.71-3.089 0.042-6.198 0.083-9.224 0.187-0.125-13.682 0.083-27.363 0.684-41.023z" fill="#040404" stroke="#040404"/>
	<path d="m137.66 1058.8c1.202 0.021 3.628 0.083 4.83 0.124-0.083 7.069-0.269 14.179-0.56 21.268-0.995 13.764-1.14 27.549-1.596 41.334-1.265 0.187-3.814 0.601-5.099 0.808 0.352-20.688 1.886-41.313 2.384-61.98z" fill="#242424" stroke="#242424"/>
	<path d="m109.7 1059.8c1.161 0.021 3.441 0.042 4.581 0.062-0.124 8.52 0.186 17.039 0.497 25.559 0.435 12.085-1.638 24.067-1.43 36.151-1.472 0.207-4.395 0.601-5.866 0.788 0.27-20.874 2.198-41.686 2.218-62.56z" fill="#141414" stroke="#141414"/>
	<path d="m169.58 1060.9c2.342-0.166 4.705-0.311 7.11-0.415 0.912 14.448-1.451 28.855-1.119 43.344-0.808 7.96 1.264 16.77-3.337 23.901-1.886-1.72-3.752-3.42-5.576-5.12-0.414-15.796 3.565-31.322 2.633-47.117 0.081-4.892 0.289-9.743 0.289-14.593m3.544 0.414c-1.223 9.432-1.306 18.988-0.083 28.419 2.654-9.037 3.317-19.484 0.083-28.419z" fill="#202020" stroke="#202020"/>
	<path d="m185.73 1061c2.55-0.124 5.099-0.228 7.691-0.311 1.534 13.702-1.368 27.321-1.016 41.023-0.104 8.043-0.477 16.086-0.435 24.149-4.208-0.021-8.374-0.207-12.52-0.456 5.845-18.905 1.575-43.842 6.28-64.405z" fill="#050505" stroke="#050505"/>
	<path d="m151.09 1061.8c4.021-0.187 8.064-0.332 12.147-0.456-0.083 4.312-0.083 8.623-0.166 12.956-7.006 14.655-3.379 31.197-4.788 46.785-3.192 0-6.364 0-9.515 0.021-1.243-19.817 0.726-39.572 2.322-59.306z" fill="#010101" stroke="#010101"/>
	<path d="m173.13 1061.3c3.234 8.934 2.571 19.382-0.083 28.419-1.223-9.431-1.14-18.987 0.083-28.419z" fill="#030303" stroke="#030303"/>
	<path d="m198.73 1063.4c0.85-0.456 2.508-1.347 3.358-1.803 0.29 6.613-0.083 13.225-0.083 19.838-0.083 14.22-1.41 28.378-1.575 42.577l-0.021 1.907c-1.264 0.062-3.793 0.166-5.058 0.228-2.405-20.978 3.379-41.79 3.379-62.747z" fill="#1f1f1f" stroke="#1f1f1f"/>
	<path d="m207.66 1064.1c1.264-0.394 3.814-1.223 5.079-1.617 0.87 21.185-2.881 42.329-1.492 63.555-1.368 0.311-4.125 0.912-5.514 1.223 0.123-21.082 2.155-42.101 1.927-63.161z" fill="#1b1b1b" stroke="#1b1b1b"/>
	<path d="m218.5 1063.9c2.861-0.166 5.742-0.29 8.665-0.394 0.663 12.002 0.58 24.191-1.762 36.048-0.808 8.685-0.228 17.433-0.85 26.119-1.119 3.317-5.845 1.099-8.416 1.865 0.062-21.247 2.301-42.411 2.363-63.638z" fill="#040404" stroke="#040404"/>
	<path d="m235.36 1063.9c2.176 0 4.395 0.021 6.633 0.083-0.332 21.33-1.389 42.64-2.218 63.97-2.902-0.042-5.763-0.062-8.582-0.062-0.249-7.048 0.394-14.075 1.865-20.957 0.913-14.345 0.374-28.772 2.302-43.034z" fill="#141414" stroke="#141414"/>
	<path d="m248.5 1065c4.706-0.145 9.432-0.228 14.179-0.663-0.746 15.381-3.503 30.637-2.674 46.101 0 6.074-0.104 12.168-0.974 18.2-3.897 0.228-7.773 0.332-11.608 0.394-0.187-21.351-0.208-42.722 1.077-64.032z" fill="#010101" stroke="#010101"/>
	<path d="m268.73 1065.1c1.161-0.083 3.503-0.27 4.664-0.352 0.124 21.413-0.435 43.137-5.141 64.073-0.808-17.143 0.021-34.307 0.145-51.449 0.021-4.125 0.186-8.188 0.332-12.272z" fill="#1b1b1b" stroke="#1b1b1b"/>
	<path d="m279.06 1066.8c1.492-0.498 4.457-1.493 5.949-1.99 2.944 7.214 1.762 15.049 1.948 22.636-0.539 13.536-2.55 27.072-1.306 40.67-2.964 0.041-5.887 0.145-8.789 0.269-0.476-20.521-0.912-41.209 2.198-61.585z" fill="#050505" stroke="#050505"/>
	<path d="m296.98 1066c1.264-0.228 3.773-0.705 5.016-0.953 1.306 20.563-3.4 40.815-2.902 61.379-0.518 1.575-1.575 4.768-2.094 6.343-5.68-2.674-5.286-9.286-4.747-14.49 1.929-17.33-0.372-35.654 4.727-52.279z" fill="#1b1b1b" stroke="#1b1b1b"/>
	<path d="m333.43 1055c-32.337 0.498-64.571-2.197-96.887-2.529-19.34-1.721-38.825-0.498-58.041-3.358-34.286-1.078-68.572-3.192-102.9-3.026-0.435 28.689-2.384 57.337-2.487 86.067 35.074 2.052 70.251 2.239 105.32 4.27 11.007 1.7 22.138 1.803 33.249 1.949 39.8 1.969 79.641 2.695 119.46 4.581 2.425-20.584 1.16-41.375 2.881-62.001 0.724-8.644 1.284-17.433-0.602-25.953zm-233.14 56.902c-0.684 3.192-1.036 7.048-3.42 9.453-3.607 0.166-7.214 0.021-10.8 0.062-0.684-13.495-0.104-27.031 0.518-40.505 1.658-7.545 2.073-15.257 1.824-22.947 4.27-0.705 8.602-0.601 12.914-0.249 0.042 18.055-0.434 36.131-1.036 54.186zm13.06 9.68c-1.472 0.207-4.395 0.601-5.866 0.788 0.27-20.874 2.197-41.686 2.218-62.56 1.161 0.021 3.441 0.042 4.581 0.062-0.124 8.52 0.186 17.039 0.497 25.559 0.435 12.085-1.638 24.066-1.43 36.151zm16.873 0.166c-3.089 0.042-6.198 0.083-9.224 0.187-0.124-13.681 0.083-27.362 0.684-41.023 1.555-7.67 1.907-15.443 2.425-23.216 2.716 0.788 5.472 1.555 8.25 2.342-0.435 20.584-3.234 41.064-2.135 61.71zm11.712-41.541c-0.995 13.764-1.14 27.549-1.596 41.334-1.265 0.187-3.814 0.601-5.1 0.808 0.353-20.688 1.887-41.313 2.384-61.98l0.041-1.555c1.202 0.021 3.628 0.083 4.83 0.124-0.082 7.07-0.269 14.18-0.559 21.269zm21.144-5.887c-7.007 14.655-3.379 31.197-4.789 46.785-3.192 0-6.364 0-9.515 0.021-1.243-19.817 0.726-39.572 2.322-59.306 4.021-0.187 8.063-0.332 12.147-0.456-0.082 4.312-0.082 8.624-0.165 12.956zm12.499 29.477c-0.809 7.96 1.264 16.77-3.338 23.901-1.886-1.72-3.752-3.42-5.576-5.12-0.414-15.796 3.565-31.322 2.633-47.117 0.083-4.892 0.29-9.743 0.29-14.593 2.343-0.166 4.706-0.311 7.11-0.415 0.913 14.447-1.451 28.854-1.119 43.344zm16.832-2.073c-0.104 8.043-0.477 16.086-0.435 24.149-4.208-0.021-8.375-0.207-12.52-0.456 5.846-18.905 1.575-43.842 6.281-64.405 2.55-0.124 5.099-0.228 7.69-0.311 1.534 13.702-1.368 27.321-1.016 41.023zm9.598-20.232c-0.083 14.22-1.41 28.378-1.575 42.577l-0.021 1.907c-1.265 0.062-3.794 0.166-5.058 0.228-2.404-20.978 3.379-41.79 3.379-62.747 0.85-0.456 2.508-1.347 3.358-1.803 0.29 6.613-0.083 13.226-0.083 19.838zm9.245 44.547c-1.368 0.311-4.125 0.912-5.514 1.223 0.124-19.962 1.948-39.862 1.948-59.803 0-1.119 0-2.239-0.021-3.358 1.264-0.394 3.814-1.223 5.079-1.617 0.871 21.185-2.881 42.328-1.492 63.555zm14.158-26.471c-0.808 8.685-0.228 17.433-0.85 26.119-1.119 3.317-5.846 1.099-8.416 1.865 0.041-10.634 0.601-21.226 1.182-31.819 0.58-10.613 1.14-21.206 1.182-31.819 2.86-0.166 5.742-0.29 8.665-0.394 0.662 12.002 0.579 24.191-1.763 36.048zm14.365 28.44c-2.902-0.042-5.763-0.062-8.582-0.062-0.248-7.048 0.394-14.075 1.866-20.957 0.912-14.344 0.373-28.772 2.301-43.034 2.177 0 4.395 0.021 6.633 0.083-0.332 21.331-1.389 42.64-2.218 63.97zm20.232-17.516c0 6.074-0.104 12.168-0.974 18.2-3.897 0.228-7.773 0.332-11.608 0.394-0.187-21.351-0.207-42.723 1.078-64.032 4.706-0.145 9.432-0.228 14.178-0.663-0.747 15.381-3.504 30.637-2.674 46.101zm8.25 18.345c-0.809-17.143 0.021-34.307 0.145-51.45 0.02-4.125 0.186-8.188 0.331-12.272 1.161-0.083 3.503-0.27 4.664-0.352 0.125 21.414-0.435 43.138-5.14 64.074zm18.698-41.354c-0.539 13.536-2.55 27.072-1.306 40.67-2.964 0.042-5.887 0.145-8.789 0.269-0.477-20.522-0.912-41.209 2.197-61.586 1.492-0.498 4.457-1.492 5.949-1.99 2.943 7.215 1.762 15.05 1.949 22.637zm12.146 38.971c-0.518 1.575-1.575 4.768-2.094 6.343-5.68-2.674-5.285-9.286-4.747-14.49 1.928-17.329-0.373-35.654 4.726-52.279 1.265-0.228 3.773-0.705 5.017-0.953 1.307 20.563-3.399 40.815-2.902 61.379zm21.393 5.762-1.14-0.062c-4.415-0.269-8.851-0.497-13.225-0.705-1.658-18.138 3.545-35.965 2.321-54.123-0.062-3.441 0-6.82 0-10.199 4.581-0.145 9.183-0.207 13.806-0.29 1.078 21.828-2.073 43.552-1.762 65.379z" fill="#f5f7f7" stroke="#f5f7f7"/>
	<path d="m308.45 1067.1c4.581-0.145 9.183-0.207 13.806-0.29 1.078 21.828-2.073 43.552-1.762 65.379l-1.14-0.062c-4.415-0.269-8.851-0.497-13.225-0.705-1.658-18.138 3.545-35.965 2.322-54.123-0.063-3.441-1e-3 -6.82-1e-3 -10.199z" fill="#010101" stroke="#010101"/>
	<path d="m1054.8 1171.7c25.165-5.182 51.139-4.457 76.656-2.985 19.112 0.829 37.105 7.628 55.243 12.976 17.786 5.825 35.177 13.329 50.662 23.942 32.773 20.107 61.358 47.718 80.677 81.133 20.729 30.969 29.767 68.033 34.514 104.56 2.55 23.983 0.477 48.278-3.98 71.93-0.27 3.151-1.824 7.193 1.638 9.287 10.053 1.824 20.356 0.643 30.534 0.85 157.58 0.021 315.14-0.042 472.73 0.021 3.358-0.456 7.898 0.29 9.805-3.379 0.021-7.068-1.845-13.951-2.653-20.895-3.337-27.3 0.29-54.828 5.908-81.548 4.208-15.091 10.074-29.663 15.692-44.277 6.26-16.687 17.143-30.969 26.637-45.873 12.292-17.744 27.59-33.291 44.339-46.868 11.463-11.961 26.43-19.257 40.069-28.295 22.035-13.66 47.159-20.895 71.95-27.735 19.257-6.136 39.655-6.716 59.7-6.841 18.034 0.021 36.297 0.228 53.958 4.415 21.703 5.576 43.49 11.463 63.824 21.082 15.588 6.239 28.917 16.604 43.179 25.248 4.167 2.861 9.784 5.763 9.452 11.733 0.974 17.868-0.27 35.82 0.125 53.73-8.064-6.198-14.303-14.324-21.911-20.957 1.762-4.042 3.565-8.063 5.41-12.064-7.089-6.426-14.241-12.935-22.595-17.661-4.913-3.565-9.556 2.819-13.743 4.913-9.535-4.167-19.029-8.561-27.59-14.469 0.062-4.187 0.746-8.478-0.373-12.562-10.033-4.333-20.605-7.38-31.156-10.074-2.301 3.255-4.581 6.55-6.841 9.826-10.012-1.14-20.128-1.306-30.036-3.006-5.97-1.285-2.26-9.059-2.985-13.225-11.712-1.12-23.507-1.099-35.177 0.021 0.187 4.436 0.456 8.893 0.705 13.349-11.837 0.684-23.59 2.197-35.343 3.524-1.741-3.441-3.399-6.841-5.058-10.24-10.468 3.13-21.061 5.929-31.177 10.033-1.658 4.187 0.104 9.038-1.617 13.184-8.001 6.281-17.744 9.763-26.74 14.365-3.068-2.384-6.094-4.768-9.079-7.131-10.136 5.618-19.34 12.769-27.466 20.999 2.28 3.42 4.602 6.882 6.903 10.365-8.54 7.131-15.837 15.547-22.719 24.253-3.545-2.031-7.089-4.021-10.572-5.991-7.856 7.856-14.676 17.06-18.905 27.383 1.306 3.939 5.328 6.198 8.126 9.141-3.441 9.763-7.69 19.216-11.919 28.668-4.27-0.186-8.52-0.394-12.686-0.58-5.514 10.219-7.255 21.786-8.457 33.187 3.296 1.347 6.654 2.695 10.033 4.042-0.58 10.904-1.824 21.766-2.052 32.711-3.918 0.456-7.815 0.912-11.65 1.41-0.456 11.173 0.58 22.325 1.534 33.457 4.726 0.663 9.494 1.327 14.282 2.031 1.492 10.344 3.835 20.584 7.483 30.43-3.503 2.425-6.986 4.83-10.448 7.255 2.508 8.354 5.763 16.5 9.763 24.294-171.93 0.477-343.85 0.062-515.78 0.207-35.343-0.352-70.707 0.705-105.99-0.539 4.187-7.545 7.608-15.505 10.24-23.735-3.959-2.011-7.877-4.021-11.774-6.053 3.876-10.447 7.131-21.123 8.768-32.172 4.374-0.498 8.789-0.974 13.225-1.43 2.218-11.173 3.089-22.595 2.736-33.975-3.877-0.622-7.691-1.182-11.505-1.741-0.767-6.322-1.431-12.645-1.866-18.967 3.545-1.492 7.152-2.943 10.759-4.395-0.746-11.422-2.26-22.76-4.685-33.933-4.333 0.083-8.644 0.166-12.914 0.29-4.768-10.261-8.686-20.853-12.375-31.529 3.524-1.803 7.089-3.607 10.655-5.39-4.954-10.841-9.929-21.828-17.682-31.011-3.565 1.43-7.089 2.902-10.572 4.374-7.815-7.794-14.365-16.666-21.061-25.372 1.99-3.089 4.063-6.156 6.157-9.204-7.276-9.826-17.329-17.081-27.57-23.527-3.047 2.612-6.053 5.245-9.059 7.898-9.846-5.783-19.506-11.898-29.829-16.791 1.43-4.021 2.964-8.022 4.519-12.023-10.365-5.825-21.496-10.012-32.773-13.619-1.948 3.669-3.835 7.359-5.659 11.09-11.691-1.679-23.051-4.975-34.721-6.654-0.249-4.643-0.477-9.266-0.705-13.888-11.774-0.933-23.61-1.223-35.364-0.187-0.642 3.773-1.181 7.566-1.741 11.38-11.484 2.135-23.113 3.317-34.783 2.943-1.264-3.42-2.508-6.82-3.71-10.178-12.334 0.56-24.398 4.001-34.949 10.447 1.244 3.69 2.529 7.442 3.835 11.173-12.272 2.446-21.704 11.505-33.809 14.262-2.094-3.4-4.146-6.799-6.177-10.178-9.971 7.048-21.102 12.665-29.518 21.682 1.866 3.4 4.208 6.716 5.058 10.613-2.508 3.566-5.783 6.53-8.955 9.473-1.845-8.561-3.814-17.101-4.623-25.828-1.741-9.556 7.67-15.671 14.199-20.729 13.785-8.395 26.264-19.071 41.334-25.165 20.004-8.768 40.878-15.443 62.063-20.708z" fill="#c00e28" stroke="#c00e28"/>
	<path d="m2108.5 1194.6c11.67-1.12 23.465-1.14 35.177-0.021 0.725 4.167-2.985 11.94 2.985 13.225 9.908 1.7 20.024 1.866 30.036 3.006 2.26-3.275 4.54-6.571 6.841-9.826 10.551 2.695 21.123 5.742 31.156 10.074 1.119 4.083 0.435 8.374 0.373 12.562 8.561 5.908 18.055 10.302 27.59 14.469 4.188-2.094 8.831-8.478 13.743-4.913 8.354 4.726 15.505 11.235 22.595 17.661-1.845 4.001-3.648 8.022-5.41 12.064 7.608 6.633 13.847 14.759 21.911 20.957l1.492 1.161c4.042-1.575 9.494-7.11 13.101-1.741 5.7 8.603 13.847 16.417 15.92 26.844-2.985 2.259-10.323 3.607-8.022 8.727 4.291 8.893 7.193 18.47 12.23 27.01 4.042-0.166 8.208-1.306 12.333-0.435 6.26 9.535 6.343 21.911 7.69 32.98-3.109 0.725-6.156 1.534-9.162 2.301-0.083 11.733 1.203 23.424 2.322 35.115 3.462-0.062 6.903-0.104 10.468-0.021 0.145 11.919 0.208 23.901-1.326 35.758-4.125-0.104-8.229-0.29-12.251-0.394-3.607 10.676-6.696 21.517-9.846 32.337 3.814 1.679 8.188 2.716 11.318 5.763-0.954 11.753-10.178 20.812-13.474 32.006-4.27-1.265-8.52-2.508-12.707-3.773-5.244 9.867-12.831 18.179-18.532 27.777 3.068 2.405 6.032 5.037 8.644 8.043-6.426 8.209-12.603 16.873-20.604 23.61-5.079 3.482-9.307-2.55-13.184-4.975-7.836 7.048-16.48 12.997-25.31 18.656-2.177 4.415 3.213 8.561 4.312 12.79-11.256 5.058-21.455 12.727-33.353 16.086-0.995-3.151-1.99-6.26-2.861-9.37-11.484 1.161-22.056 6.073-33.063 9.079-0.021 4.457 0.104 8.913 0.228 13.391-11.836 2.031-23.735 4.788-35.758 4.187-0.58-3.296-0.933-6.55-1.575-9.743-2.404-3.296-6.136-0.87-9.121-0.394-7.856 1.472-16.148 1.119-23.631-1.741-1.866 3.42-2.633 7.172-2.55 11.069-12.479 2.653-24.937-2.073-37.395-2.798 0.104-4.685 0.311-9.349 0.394-13.992-11.007-2.446-21.309-7.359-32.482-9.121-2.156 2.736-2.425 8.416-6.053 9.183-10.613-4.395-20.439-10.551-30.845-15.339 1.783-4.167 3.814-8.23 5.639-12.375-9.245-5.928-18.511-11.898-26.575-19.402-3.441 2.57-6.882 5.141-10.365 7.628-6.675-5.514-12.354-12.023-17.744-18.739-2.405-2.84-6.281-6.322-4.001-10.323 2.115-1.948 4.478-3.607 6.82-5.307-6.011-9.204-12.541-18.014-18.801-27.01-3.379 0.767-6.695 1.741-9.991 2.529-3.109-0.767-5.099-3.503-6.385-6.156-4-7.794-7.255-15.941-9.763-24.294 3.462-2.425 6.944-4.83 10.448-7.255-3.648-9.846-5.991-20.087-7.483-30.43-4.789-0.705-9.556-1.368-14.282-2.031-0.954-11.131-1.99-22.284-1.534-33.457 3.835-0.498 7.732-0.954 11.65-1.41 0.228-10.945 1.472-21.807 2.052-32.711-3.379-1.347-6.737-2.695-10.033-4.042 1.202-11.401 2.943-22.968 8.457-33.187 4.167 0.187 8.416 0.394 12.686 0.58 4.229-9.452 8.478-18.905 11.919-28.668-2.798-2.943-6.82-5.203-8.126-9.141 4.229-10.323 11.049-19.527 18.905-27.383 3.483 1.969 7.027 3.959 10.572 5.991 6.882-8.706 14.179-17.122 22.719-24.253-2.301-3.482-4.623-6.944-6.903-10.365 8.126-8.229 17.329-15.381 27.466-20.999 2.985 2.363 6.011 4.747 9.079 7.131 8.997-4.602 18.739-8.084 26.74-14.365 1.721-4.146-0.042-8.996 1.617-13.184 10.116-4.104 20.708-6.903 31.177-10.033 1.658 3.4 3.316 6.799 5.058 10.24 11.753-1.327 23.507-2.84 35.343-3.524-0.249-4.456-0.519-8.913-0.705-13.349m9.203 113.97c-17.516 3.462-34.846 9.598-48.796 21.019-11.028 10.447-22.823 20.936-29.124 35.053-13.764 28.171-14.137 62.394-0.933 90.835 3.814 11.007 12.831 18.615 19.983 27.383 4.975 6.177 11.443 10.986 18.387 14.842 8.188 4.56 16.231 10.054 25.725 11.525 13.329 2.239 26.657 7.338 40.38 4.933 19.838-2.943 40.214-8.043 56.404-20.48 16.314-11.069 27.031-28.357 35.281-45.873 10.717-27.217 9.494-59.575-6.052-84.699-4.478-10.779-12.106-19.858-20.729-27.57-23.757-22.615-58.416-32.089-90.526-26.968z" fill="#2f2f2f" stroke="#2f2f2f"/>
	<path d="m309.01 1228.6c1.886-8.789 9.909-13.806 15.174-20.459 5.534 6.281 10.323 13.184 14.158 20.667-3.42 0.539-6.799 1.099-10.157 1.741-1.803 29.622-2.57 59.347-3.586 89.031-3.317-0.083-6.612 0-9.846 0.104-1.43-18.076 1.741-36.068 1.617-54.144 1.14-11.981 2.944-23.942 2.177-36.006-3.215-0.354-6.386-0.665-9.537-0.934z" fill="#060501" stroke="#060501"/>
	<path d="m357.82 1222.5c3.793-4.353 7.545-8.748 11.505-12.956 5.597 6.571 10.468 13.743 14.344 21.475-3.773 0.104-7.483 0.207-11.194 0.332 0.373 20.874-0.559 41.728-1.762 62.56-0.456 9.701-1.72 19.361-3.814 28.855-1.389 0.083-4.187 0.228-5.576 0.311-1.078-23.652 2.032-47.262 0.622-70.873 0.021-6.758 1.347-13.743-0.311-20.335-2.405-1.886-4.954-3.503-7.421-5.203 0.912-1.036 2.695-3.13 3.607-4.166z" fill="#020100" stroke="#020100"/>
	<path d="m419.83 1213.6c15.485-2.156 31.011 1.161 46.578 0.725 1.741 10.8-0.85 21.62-0.497 32.462-0.394 7.297 1.078 15.899-4.415 21.766-3.835 5.141-10.592 6.302-16.086 8.913-0.643 11.173 0.166 22.45-1.845 33.519-1.036 6.198-0.933 12.5-0.85 18.781 7.172 1.347 14.2 3.358 21.31 5.058-0.207 1.12-0.622 3.358-0.829 4.498-17.454-0.373-34.721-3.856-52.237-2.529 1.472-2.073 2.964-4.125 4.498-6.136 6.55-0.041 13.121-0.228 19.693-0.912 2.011-17.599 1.969-35.447 1.72-53.129-7.4-3.918-16.438-8.084-17.972-17.371-2.012-15.173 1.989-30.389 0.932-45.645z" stroke="#000"/>
	<path d="m587.5 1220.7c3.151-0.933 6.322-1.824 9.535-2.633 0.29 5.949-2.57 12.769-9.639 11.919-0.021-3.13 0.021-6.218 0.104-9.286z" fill="#160f02" stroke="#160f02"/>
	<path d="m565.18 1225.2c1.824-3.234 5.928-2.301 9.017-2.943-0.352 4.768-2.259 9.1-4.954 12.976-1.14 0.124-3.4 0.373-4.54 0.518-0.747-3.524-2.985-7.752 0.477-10.551z" fill="#2c1d05" stroke="#2c1d05"/>
	<path d="m542.92 1238.5c2.881-3.773 6.115-7.214 11.276-5.473 0.725 1.949 1.513 3.918 2.363 5.887 8.768 1.202 17.578 3.213 25.828 6.55 11.546 7.131 23.797 17.537 24.958 32.047-6.53-5.763-16.873-7.566-22.864-0.062-7.421-5.079-17.412-6.281-24.709-0.29-2.218-1.7-4.478-3.379-6.675-4.975-3.814 19.299-1.534 39.136-3.213 58.643-1.679 6.281-8.043 11.857-14.884 10.82-6.695 0.788-10.137-5.763-14.013-9.909 1.43-0.788 4.291-2.342 5.721-3.109 3.337 2.674 6.923 5.017 10.696 7.089 4.042-5.265 3.98-12.127 4.353-18.407 0.125-14.365 0.871-28.73 0.788-43.096-4.954 1.036-9.598-0.414-13.971-2.591-5.224-2.84-10.551 1.14-15.858 1.285-3.648-2.011-6.571-5.825-10.841-6.24-5.037 0.352-9.598 2.757-14.262 4.395 9.515-12.375 20.729-25.58 36.69-29.207 5.868-2.673 12.315-2.673 18.617-3.357z" fill="#010000" stroke="#010000"/>
	<path d="m591.86 1237.7c3.171-0.415 6.343-0.808 9.577-1.14 0.228 5.203-2.322 9.204-6.55 11.981-2.965-2.964-3.732-6.82-3.027-10.841z" fill="#0b0802" stroke="#0b0802"/>
	<path d="m2117.7 1308.6c32.109-5.12 66.768 4.353 90.524 26.969 8.623 7.711 16.251 16.791 20.729 27.57 15.547 25.124 16.77 57.482 6.052 84.699-8.25 17.516-18.967 34.804-35.281 45.873-16.189 12.437-36.566 17.537-56.404 20.48-13.723 2.405-27.051-2.695-40.38-4.933-9.494-1.472-17.537-6.965-25.725-11.525-6.944-3.856-13.412-8.665-18.387-14.842-7.151-8.768-16.168-16.376-19.983-27.383-13.204-28.44-12.831-62.664 0.933-90.835 6.302-14.116 18.096-24.605 29.124-35.053 13.953-11.423 31.283-17.559 48.798-21.02z" fill="#b4b3c1" stroke="#b4b3c1"/>
	<path d="m1074.9 1312.5c17.744-1.14 36.462-2.405 53.274 4.602 9.494 3.711 19.465 7.131 27.238 14.013 7.151 5.97 15.091 11.173 21.082 18.449 8.105 9.743 13.412 21.434 18.117 33.125 7.67 16.832 7.193 36.11 4.353 53.999-5.991 13.598-9.37 28.648-19.133 40.277-8.914 13.951-22.698 23.901-37.312 31.156-9.639 4.56-19.029 10.593-29.974 11.152-15.236 1.016-30.845 2.073-45.811-1.493-24.274-7.234-47.615-20.708-62.208-41.935-8.126-10.551-11.795-23.465-16.314-35.758-6.343-18.781-4.229-39.489 3.358-57.565 5.058-17.723 15.526-33.809 30.472-44.712 14.053-14.386 33.622-21.185 52.858-25.31z" fill="#b4b3c1" stroke="#b4b3c1"/>
	<path d="m308.24 1325.5c21.268-1.43 42.578 1.845 63.804-0.207 0.705 2.736 1.596 5.452 2.508 8.209-8.395-0.021-16.79-0.083-25.144-0.622-13.266-1.721-26.637-2.716-40.007-2.301-0.29-1.286-0.871-3.815-1.161-5.079z" fill="#292005" stroke="#292005"/>
	<path d="m682.59 797.6c0.076 1.186-25.5-1.368-27.741-1.56-9.556-0.819-19.272-0.107-28.858-0.134-50.289-0.14-100.37-6.996-150.61-6.996-16.328-0.485-32.71 0.157-48.991-1.506-0.27-0.028-3.513-0.132-3.513-0.563-0.228 9.722-0.664 19.444-1.887 29.104-2.176 17.019-1.845 34.265-3.918 51.304-2.902 21.786-1.015 43.863-3.151 65.732-15.464 0.373-30.886-0.954-46.329-1.368-8.25-0.249-16.479-0.456-24.688-0.663-0.435-20.522 0.518-41.023 1.824-61.482-0.166-28.834 4.126-57.44 4.54-86.274-10.406-3.089-21.33-0.891-31.881-2.612-13.723-2.446-27.715-0.912-41.52-2.114-19.962-1.949-40.049-0.767-60.031-2.28-15.112-1.14-30.306-0.539-45.417-1.244-10.075-3.586-20.874-1.493-31.301-2.467-14.469-1.244-29-1.493-43.51-1.638-9.577-0.062-19.133-1.679-28.689-0.601-1.472 10.841-0.601 21.828-1.555 32.731-3.731 17.785-1.119 36.11-3.234 54.103-0.659 25.461-2.875 50.773-4.045 76.187-1.316 28.598-2.633 57.196-3.949 85.794-0.602 13.071-0.969 26.164-2.391 39.153-3.972 56.246-5.231 112.7-7.402 169.02-1.521 43.725-4.137 87.471-6.323 131.19-0.2 3.998-0.453 14.886 6.179 13.469 22.201-0.145 44.423 0.643 66.416 3.835 3.938-0.29 7.877-0.767 11.878-0.829 29.518 1.451 59.099 2.135 88.637 3.358 15.277 2.177 30.617 4.602 46.101 4.312 14.593-0.539 28.979 2.405 43.531 2.467 20.791 0.539 41.583 1.596 62.395 1.617 13.764 0.352 27.549 0.021 41.271 1.223 12.437 0.995 24.979-0.021 37.354 1.783 14.407 2.26 29.021 0.953 43.531 2.094 19.298 1.513 38.68 0.891 58.021 2.114 22.097 1.638 44.277 0.912 66.416 1.036-9.162 0.228-18.345 0.249-27.383 1.762 23.797 0.477 47.552 1.534 71.328 2.467 0.497-1.575 1.534-4.685 2.031-6.24 0.436-14.842-0.042-29.767 2.218-44.505 1.264-26.243 2.467-52.507 3.068-78.77 1.534-18.47 0.581-37.084 3.275-55.45 1.973-42.585 3.4-85.182 5.538-127.73 0-18.389 1.858-36.976 2.781-55.345 0.922-18.348 1.569-36.602 2.715-54.943 0.966-15.457 1.78-30.923 2.426-46.396 0.346-8.28 0.508-16.566 0.922-24.843 0.397-7.945 2.097-16.058 2.097-23.963 0.54-27.778 3.608-55.576 1.825-83.332zm-364.04 431.89c-3.213-0.352-6.385-0.663-9.536-0.933 1.887-8.789 9.909-13.806 15.174-20.459 5.534 6.281 10.323 13.184 14.158 20.667-3.42 0.539-6.799 1.099-10.157 1.741-1.804 29.622-2.57 59.347-3.586 89.031-3.317-0.083-6.612 0-9.846 0.104-1.43-18.076 1.741-36.068 1.617-54.144 1.139-11.982 2.943-23.942 2.176-36.007zm-106.86-91.124c-11.111-0.145-22.242-0.249-33.249-1.949-35.073-2.031-70.25-2.218-105.32-4.27 0.104-28.73 2.052-57.378 2.487-86.067 34.327-0.166 68.613 1.949 102.9 3.026 19.216 2.861 38.701 1.638 58.041 3.358 32.316 0.332 64.551 3.026 96.887 2.529 1.886 8.52 1.326 17.309 0.601 25.953-1.721 20.625-0.456 41.417-2.881 62-39.819-1.886-79.661-2.611-119.46-4.58zm137.72 194.5c-13.266-1.721-26.637-2.716-40.007-2.301-0.29-1.285-0.87-3.814-1.161-5.079 21.269-1.43 42.578 1.845 63.805-0.207-0.669-3.887-0.946-7.802-1.061-11.729 0.115 3.926 0.393 7.842 1.061 11.729 0.704 2.736 1.596 5.452 2.508 8.209-8.396-0.021-16.791-0.083-25.145-0.622zm23.072-101.51c0.373 20.874-0.56 41.728-1.762 62.56-0.456 9.701-1.721 19.361-3.814 28.855-1.389 0.083-4.187 0.228-5.577 0.311-1.077-23.652 2.032-47.262 0.622-70.873 0.021-6.758 1.347-13.743-0.311-20.335-2.405-1.886-4.955-3.503-7.421-5.203 0.912-1.036 2.694-3.13 3.607-4.167 3.793-4.353 7.545-8.748 11.505-12.956 5.597 6.571 10.468 13.743 14.344 21.475-3.772 0.105-7.483 0.209-11.193 0.333zm93.425 15.464c-0.394 7.297 1.078 15.899-4.415 21.766-3.835 5.141-10.592 6.302-16.086 8.913-0.643 11.173 0.165 22.45-1.845 33.519-1.036 6.198-0.933 12.5-0.85 18.781 7.172 1.347 14.2 3.358 21.31 5.058-0.207 1.12-0.622 3.358-0.829 4.498-17.454-0.373-34.721-3.856-52.237-2.529 1.472-2.073 2.964-4.125 4.498-6.136 6.55-0.041 13.122-0.228 19.693-0.912 2.011-17.599 1.969-35.447 1.721-53.129-7.401-3.918-16.438-8.084-17.972-17.371-2.011-15.174 1.99-30.389 0.933-45.645 15.485-2.156 31.011 1.161 46.579 0.725 1.739 10.8-0.852 21.621-0.5 32.462zm135.53-10.219c0.228 5.203-2.321 9.204-6.55 11.981-2.965-2.964-3.732-6.82-3.026-10.841 3.17-0.415 6.342-0.809 9.576-1.14zm-13.93-15.858c3.151-0.933 6.322-1.824 9.536-2.633 0.29 5.949-2.571 12.769-9.639 11.919-0.022-3.13 0.02-6.218 0.103-9.286zm-22.325 4.415c1.824-3.234 5.928-2.301 9.017-2.943-0.353 4.768-2.26 9.1-4.955 12.976-1.14 0.124-3.4 0.373-4.54 0.518-0.746-3.524-2.984-7.752 0.478-10.551zm19.298 52.258c-7.421-5.079-17.413-6.281-24.709-0.29-2.219-1.7-4.478-3.379-6.675-4.975-3.814 19.299-1.534 39.136-3.213 58.642-1.679 6.281-8.043 11.857-14.884 10.821-6.695 0.788-10.137-5.763-14.013-9.909 1.431-0.788 4.291-2.342 5.721-3.109 3.337 2.674 6.923 5.017 10.696 7.089 4.042-5.265 3.98-12.127 4.353-18.407 0.125-14.365 0.871-28.73 0.788-43.096-4.955 1.036-9.598-0.414-13.972-2.591-5.224-2.84-10.551 1.14-15.857 1.285-3.648-2.011-6.571-5.825-10.841-6.24-5.038 0.352-9.597 2.757-14.261 4.395 9.514-12.375 20.729-25.58 36.69-29.207 5.866-2.674 12.313-2.674 18.615-3.358 2.881-3.773 6.115-7.214 11.276-5.473 0.725 1.949 1.513 3.918 2.363 5.887 8.768 1.202 17.578 3.213 25.828 6.55 11.547 7.131 23.797 17.537 24.958 32.047-6.528-5.761-16.872-7.565-22.863-0.061z" fill="#ffc41f" stroke="#ffc41f"/>
	<path d="m681.7 1394.5c-3.462-0.58-6.861-1.14-10.261-1.555-5.245-0.125-10.489-0.207-15.713-0.104-0.497 1.555-1.534 4.664-2.031 6.24-23.776-0.933-47.532-1.99-71.328-2.467 9.038-1.513 18.221-1.534 27.383-1.762-22.139-0.124-44.318 0.601-66.416-1.036-19.34-1.223-38.722-0.601-58.021-2.114-14.51-1.14-29.124 0.166-43.531-2.094-12.375-1.803-24.916-0.788-37.354-1.783-13.722-1.202-27.507-0.871-41.271-1.223-20.812-0.021-41.603-1.078-62.395-1.617-14.552-0.062-28.938-3.006-43.531-2.467-15.485 0.29-30.824-2.135-46.101-4.312-29.539-1.223-59.119-1.907-88.637-3.358-4.001 0.062-7.939 0.539-11.878 0.829 1.389 3.669 2.031 8.001 4.872 11.007 9.597 10.841 23.237 16.998 36.836 21.185 18.323 5.642 36.424 7.168 55.453 8.987 32.562 3.113 65.119 6.075 97.681 9.143 28.552 2.69 57.104 5.381 85.655 8.071 32.911 3.101 66.148 4.655 99.194 7.031 25.857 3.232 52.363 3.765 78.359 5.634 13.203 0.949 26.407 1.898 39.61 2.848 12.293 0.884 24.283 0.898 36.527 1.361 12.375 0.104 24.647 2.218 37.084 1.907-0.33-19.463 0.042-38.907-0.186-58.351z" fill="#090909" stroke="#090909"/>
	<path d="m1948.3 97.452 87.767 1.7 80.47 1033.9-97.758 0.332z" fill="#415c77" stroke="#415c77"/>
</g>
</svg>
