<?xml version="1.0" encoding="UTF-8"?>
<svg xmlns="http://www.w3.org/2000/svg" xml:space="preserve" width="0.333in" height="0.333in" shape-rendering="geometricPrecision" text-rendering="geometricPrecision" image-rendering="optimizeQuality" fill-rule="evenodd" clip-rule="evenodd" viewBox="0 0 10240 10240" xmlns:xlink="http://www.w3.org/1999/xlink">
	<title>map_route icon</title>
	<desc>map_route icon from the IconExperience.com O-Collection. Copyright by INCORS GmbH (www.incors.com).</desc>
	<path id="curve1" fill="#808080" d="M838 2585l2539 -1270c85,-42 179,-43 261,-11l0 -1 3067 1227 2431 -1216c157,-79 349,-15 428,143 29,57 38,118 32,177l1 0 -316 2845 316 2845c16,145 -68,278 -196,330l-2539 1270c-85,42 -179,43 -261,11l0 1 -3067 -1227 -2431 1216c-157,79 -349,15 -428,-143 -29,-57 -38,-118 -32,-177l-1 0 316 -2845 -316 -2845c-16,-145 68,-278 196,-330zm2695 -635l-2232 1116 295 2654c3,25 4,50 1,76l-255 2298 2019 -1009c82,-47 183,-57 278,-19l3067 1227 2232 -1116 -295 -2654c-3,-25 -4,-50 -1,-76l255 -2298 -2019 1009c-82,47 -183,57 -278,19l-3067 -1227z"/>
	<path id="curve0" fill="#4D82B8" d="M3840 5120c102,0 198,24 284,66l998 -665c-1,-14 -1,-27 -1,-41 0,-353 287,-640 640,-640 353,0 640,287 640,640 0,57 -8,113 -22,166l1136 1136c53,-14 108,-22 166,-22 353,0 640,287 640,640 0,353 -287,640 -640,640 -353,0 -640,-287 -640,-640 0,-57 8,-113 22,-166l-1136 -1136c-53,14 -108,22 -166,22 -102,0 -198,-24 -284,-66l-998 665c1,14 1,27 1,41 0,353 -287,640 -640,640 -353,0 -640,-287 -640,-640 0,-57 8,-113 22,-166l-496 -496c-53,14 -108,22 -166,22 -353,0 -640,-287 -640,-640 0,-353 287,-640 640,-640 353,0 640,287 640,640 0,57 -8,113 -22,166l496 496c53,-14 108,-22 166,-22z"/>
</svg>
