<?xml version="1.0" encoding="UTF-8"?>
<svg xmlns="http://www.w3.org/2000/svg" xml:space="preserve" width="0.333in" height="0.333in" shape-rendering="geometricPrecision" text-rendering="geometricPrecision" image-rendering="optimizeQuality" fill-rule="evenodd" clip-rule="evenodd" viewBox="0 0 10240 10240" xmlns:xlink="http://www.w3.org/1999/xlink">
	<title>sign_forbidden icon</title>
	<desc>sign_forbidden icon from the IconExperience.com O-Collection. Copyright by INCORS GmbH (www.incors.com).</desc>
	<path id="curve0" fill="#E68497" d="M640 5120c0,-2474 2006,-4480 4480,-4480 2474,0 4480,2006 4480,4480 0,2474 -2006,4480 -4480,4480 -2474,0 -4480,-2006 -4480,-4480zm1789 1731l4423 -4423c-499,-322 -1093,-509 -1731,-509 -1767,0 -3200,1433 -3200,3200 0,638 187,1232 509,1731zm5383 -3463l-4423 4423c499,322 1093,509 1731,509 1767,0 3200,-1433 3200,-3200 0,-638 -187,-1232 -509,-1731z"/>
</svg>
