<?xml version="1.0" encoding="UTF-8" standalone="no"?>
<!-- Created with Inkscape (http://www.inkscape.org/) -->

<svg
   xmlns:dc="http://purl.org/dc/elements/1.1/"
   xmlns:cc="http://creativecommons.org/ns#"
   xmlns:rdf="http://www.w3.org/1999/02/22-rdf-syntax-ns#"
   xmlns:svg="http://www.w3.org/2000/svg"
   xmlns="http://www.w3.org/2000/svg"
   xmlns:sodipodi="http://sodipodi.sourceforge.net/DTD/sodipodi-0.dtd"
   xmlns:inkscape="http://www.inkscape.org/namespaces/inkscape"
   version="1.1"
   width="30"
   height="30"
   viewBox="0 0 10240 10240"
   id="svg3060"
   xml:space="preserve"
   style="fill-rule:nonzero"
   inkscape:version="0.48.5 r10040"
   sodipodi:docname="trouble.svg"><sodipodi:namedview
     pagecolor="#ffffff"
     bordercolor="#666666"
     borderopacity="1"
     objecttolerance="10"
     gridtolerance="10"
     guidetolerance="10"
     inkscape:pageopacity="0"
     inkscape:pageshadow="2"
     inkscape:window-width="1386"
     inkscape:window-height="1370"
     id="namedview3136"
     showgrid="false"
     inkscape:zoom="20.85965"
     inkscape:cx="21.187341"
     inkscape:cy="12.977692"
     inkscape:window-x="1988"
     inkscape:window-y="104"
     inkscape:window-maximized="0"
     inkscape:current-layer="svg3060" /><title
     id="title3062">tools icon</title><desc
     id="desc3064">tools icon from the IconExperience.com O-Collection. Copyright by INCORS GmbH (www.incors.com).</desc><metadata
     id="metadata3073"><rdf:RDF><cc:Work
         rdf:about=""><dc:format>image/svg+xml</dc:format><dc:type
           rdf:resource="http://purl.org/dc/dcmitype/StillImage" /><dc:title>tools icon</dc:title></cc:Work></rdf:RDF></metadata><defs
     id="defs3071" /><path
     d="M 2949,6253 1467,7735 c -249,250 -249,656 0,906 l 452,452 c 250,249 656,249 906,0 L 4691,7226 3791,6174 c -7,-8 -14,-14 -23,-19 -64,-29 -230,-2 -296,9 -177,29 -347,65 -523,89 z"
     id="curve2"
     style="fill:#ed9a56"
     inkscape:connector-curvature="0" /><path
     d="m 8708,3210 0,0 c -200,-200 -27,-479 -227,-679 l -452,-452 c -200,-200 -479,-27 -679,-227 -452,-452 -1131,-679 -1952,-392 -66,23 -95,97 -84,166 10,69 61,121 129,134 422,78 776,319 1002,545 249,249 249,656 0,905 l -838,837 c -2,13 -4,26 -6,39 -8,51 -34,224 -9,271 1,2 3,4 5,6 l 820,685 707,-707 c 249,-249 429,-475 679,-226 l 0,0 c 124,125 124,328 0,453 l 678,678 c 125,125 328,125 453,0 l 905,-905 c 125,-124 125,-328 0,-452 l -679,-679 c -124,125 -328,125 -452,0 z"
     id="curve1"
     style="fill:#808080"
     inkscape:connector-curvature="0" /><path
     d="m 4034,5966 2505,2926 c 467,545 1324,485 1810,0 498,-498 541,-1358 0,-1810 L 5392,4608 C 4897,4194 6071,3024 4713,1667 4231,1184 3541,907 2909,894 c -133,-2 -248,72 -301,195 -52,122 -26,257 68,352 L 3808,2572 3355,3930 1998,4382 866,3251 c -94,-95 -229,-121 -351,-68 -123,52 -198,167 -195,300 13,633 290,1322 773,1804 1357,1358 2487,149 2941,679 z m 2957,1568 c 250,-249 655,-249 905,0 250,250 250,656 0,906 -250,249 -655,249 -905,0 -250,-250 -250,-656 0,-906 z"
     id="curve0"
     style="fill:#808080"
     inkscape:connector-curvature="0" /></svg>