<?xml version="1.0" encoding="UTF-8" standalone="no"?>
<!-- Created with Inkscape (http://www.inkscape.org/) -->

<svg
   xmlns:dc="http://purl.org/dc/elements/1.1/"
   xmlns:cc="http://creativecommons.org/ns#"
   xmlns:rdf="http://www.w3.org/1999/02/22-rdf-syntax-ns#"
   xmlns:svg="http://www.w3.org/2000/svg"
   xmlns="http://www.w3.org/2000/svg"
   version="1.1"
   width="0.333in"
   height="0.333in"
   viewBox="0 0 10240 10240"
   id="svg2"
   xml:space="preserve"
   style="fill-rule:evenodd"><title
     id="title4">about icon</title><desc
     id="desc6">about icon from the IconExperience.com O-Collection. Copyright by INCORS GmbH (www.incors.com).</desc><metadata
     id="metadata14"><rdf:RDF><cc:Work
         rdf:about=""><dc:format>image/svg+xml</dc:format><dc:type
           rdf:resource="http://purl.org/dc/dcmitype/StillImage" /><dc:title>about icon</dc:title></cc:Work></rdf:RDF></metadata><defs
     id="defs12" /><path
     d="m 5120,640 c 2474,0 4480,2006 4480,4480 0,2474 -2006,4480 -4480,4480 C 2646,9600 640,7594 640,5120 640,2646 2646,640 5120,640 z m 0,640 c 2121,0 3840,1719 3840,3840 0,2121 -1719,3840 -3840,3840 -2121,0 -3840,-1719 -3840,-3840 0,-2121 1719,-3840 3840,-3840 z"
     id="curve0"
     style="fill:#808080" /><path
     d="m 4700,6720.5 853,0 c 117,0 213,96 213,213 l 0,853 c 0,117 -96,213 -213,213 l -853,0 c -117,0 -213,-96 -213,-213 l 0,-853 c 0,-117 96,-213 213,-213 z m -220,-4480 1280,0 c 88,0 160,72 160,160 l 0,1059 c 0,272 -20,504 -68,773 l -308,1736 c -14,77 -79,132 -158,132 l -532,0 c -78,0 -144,-55 -158,-132 l -308,-1736 c -48,-269 -68,-501 -68,-773 l 0,-1059 c 0,-88 72,-160 160,-160 z"
     id="curve1"
     style="fill:#de8d00" /></svg>