<?xml version="1.0" ?><svg enable-background="new 0 0 500 500" id="Layer_1" version="1.1" viewBox="0 0 500 500" xml:space="preserve" xmlns="http://www.w3.org/2000/svg" xmlns:xlink="http://www.w3.org/1999/xlink"><g><path d="M140.677,153.024c-31.293,0-31.677,36.504-31.677,36.504v234.944c0,7.191,6.065,13.361,13.255,13.492   C129.58,438.099,136,432.2,136,424.905V302.479c0-2.597,2.403-4.702,5-4.702s5,2.105,5,4.702v121.993   c0,7.191,5.565,13.361,12.755,13.492C166.08,438.099,172,432.2,172,424.905V188.589C172,188.589,171.97,153.024,140.677,153.024z" fill="#474747"/><circle cx="143.968" cy="117.733" fill="#474747" r="28.522"/><path d="M55.677,153.024C24.383,153.024,24,189.528,24,189.528v234.944c0,7.191,5.565,13.361,12.755,13.492   C44.08,438.099,50,432.2,50,424.905V302.479c0-2.597,2.903-4.702,5.5-4.702s5.5,2.105,5.5,4.702v121.993   c0,7.191,5.565,13.361,12.755,13.492C81.08,438.099,87,432.2,87,424.905V188.589C87,188.589,86.97,153.024,55.677,153.024z" fill="#474747"/><circle cx="58.483" cy="117.733" fill="#474747" r="28.522"/><circle cx="241.664" cy="117.733" fill="#474747" r="28.522"/><path d="M239.091,207.141l5.606,14.79c1.841,4.857,6.494,8.069,11.688,8.069H311   c6.981,0,12.626-5.723,12.498-12.734c-0.125-6.882-6.03-12.266-12.912-12.266h-45.57l-11.311-29.84   c-3.186-10.075-10.802-22.136-29.028-22.136c-31.293,0-31.677,36.504-31.677,36.504v235.033c0,7.056,5.448,13.133,12.499,13.397   c7.443,0.278,13.501-5.672,13.501-13.052V302.479c0-2.597,2.903-4.702,5.5-4.702s5.5,2.105,5.5,4.702v122.082   c0,7.056,5.448,13.133,12.499,13.397c7.443,0.278,13.501-5.672,13.501-13.052V241h-5.251c-6.287,0-11.595-4.669-12.398-10.905   l-2.839-22.059C235.231,205.852,238.31,205.082,239.091,207.141z" fill="#474747"/><circle cx="419.426" cy="117.733" fill="#474747" r="28.522"/><path d="M351,230h53.706c5.224,0,9.898-3.249,11.717-8.146l5.594-15.056c0.769-2.07,3.863-1.308,3.583,0.882   l-2.859,22.403c-0.796,6.241-6.108,10.918-12.399,10.918H405v28h63v-79.472c0,0-0.383-36.504-31.677-36.504   c-27.243,0-31.979,26.439-32.323,27.555c-0.306,0.851-7.985,24.421-7.985,24.421h-44.601c-6.883,0-12.787,5.385-12.912,12.266   C338.374,224.277,344.019,230,351,230z" fill="#474747"/><path d="M474.022,282h-82.958c-3.901,0-7.064-3.163-7.064-7.064v-27.958c0-3.301-2.676-5.978-5.978-5.978h-85.519   c-3.577,0-6.504,2.927-6.504,6.504v0.036c0,3.553,2.907,6.46,6.46,6.46H308v192h43h33.464H480V287.978   C480,284.676,477.324,282,474.022,282z" fill="#474747"/></g></svg>