<?xml version="1.0" encoding="utf-8"?>

<!DOCTYPE svg PUBLIC "-//W3C//DTD SVG 1.1//EN" "http://www.w3.org/Graphics/SVG/1.1/DTD/svg11.dtd">
<svg version="1.1" id="Layer_1" xmlns="http://www.w3.org/2000/svg" xmlns:xlink="http://www.w3.org/1999/xlink" x="0px" y="0px"
	 viewBox="0 0 1522 1920" enable-background="new 0 0 1522 1920" xml:space="preserve">
<g>
	<path fill="#EEAF8C" stroke="#EEAF8C" stroke-width="0.5" d="M606.162,236.63c6.17-0.32,12.36-1.54,18.54-0.59
		c21.28,2.52,43.12,4.3,63.02,12.88c18.25,7.84,34.84,19.22,49.7,32.33c25.14,22.68,51.4,44.1,78.19,64.81
		c4.15,2.91,8.14,6.12,12.69,8.41c3.4,1.86,7.33,0.8,10.98,0.55c5.36,11.09,11.59,21.95,14.35,34.06
		c5.17,22.1,8.85,44.52,12.02,66.99c2.29,15.58,3.34,31.32,6.08,46.84c3.22,19.49,7.77,39.27,4.97,59.11
		c-2.51,18.72-10.86,35.96-19.15,52.71c-14.55,27.87-31.76,54.74-54.05,77.09c-12.94,12.78-27.94,24.48-45.76,29.35
		c-18.34,4.6-37.56,1.83-55.7-2.4c-38.28-9.44-73.89-27.03-108.39-45.7c-13.9-7.64-24.49-20.24-31.79-34.14
		c-9.93-19.2-18.19-39.29-23.98-60.13c-1.3-4.07-2-8.34-3.69-12.27c-7.03-9.45-14.02-18.99-19.75-29.3
		c-4.89-8.72-7.97-18.27-11.34-27.64c-3.99-11.17-7.22-22.59-11.19-33.75c-1.55-11.6-2.95-23.23-3.71-34.91
		c-0.11-5.52-0.49-11.73,3.02-16.39c3.93-5.09,10.34-7.68,13.84-13.17c3.66-5.74,3.64-12.9,2.68-19.41
		c-0.95-6.13-1.26-12.38-0.81-18.57c1.35-8.53,1.36-17.34,0.04-25.88c-0.32-3.2,0.42-6.38,0.76-9.55c2.59-16.66,4.8-33.9,13.07-48.9
		c9.28-16.91,23.04-31.5,39.96-40.89C574.432,240.06,590.602,238,606.162,236.63 M769.262,351.59
		c-17.96,4.07-33.37,14.65-48.73,24.3c-3.76,2.74-8.88,4.95-9.91,9.99c-0.46,2.25-1.87,6.19,1.27,7.04
		c3.67,1.58,5.93-2.33,8.36-4.33c7.97-7.2,16.52-13.96,26.17-18.77c8.4-3.97,17.16-7.1,25.93-10.16c6.58-2.11,13.31-4.46,20.33-4.15
		c6.28-0.05,12.42,1.52,18.69,1.62c-0.2-2.5-2.78-3.23-4.66-4.16C794.912,347.81,781.502,348.44,769.262,351.59 M748.372,394.71
		c-11.95,7.92-19.75,20.25-29.19,30.7c-0.13,0.36-0.4,1.07-0.54,1.43c1.28,0.07,2.56,0.06,3.85-0.01
		c11.36-1.62,22.57-4.28,34.02-5.29c9.39-0.9,17.76-5.69,26.22-9.48c6.98-3.47,14.17-6.81,20.26-11.75
		c1.18-1.27,3.42-2.94,2.25-4.86c-1.9-2.17-4.85-2.89-7.5-3.64c-9.46-2.3-19.29-2.74-28.99-2.28
		C761.772,390.11,754.362,390.71,748.372,394.71 M563.932,410.45c-9.39,3.17-18.41,7.57-26.52,13.29
		c-5.14,3.53-8.91,8.63-12.12,13.89c-0.92,1.41-1.42,3.03-1.76,4.68c3.81-0.77,6.08-4.22,9.2-6.24c8.68-5.94,18.1-11.04,28.37-13.64
		c11.93-3.23,24.18-5.31,36.52-6.12c13.06-0.56,26.08,0.91,39.07,2.11c1.28-1.38,2.98-2.57,3.55-4.46c0.25-2.59-2.23-4.24-4.27-5.22
		c-12.09-5.1-25.46-3.97-38.24-3.36C586.412,406.54,574.892,407.13,563.932,410.45 M580.252,449.49
		c-6.55,4.65-12.87,9.82-17.83,16.18c-1.19,1.7-2.9,3.89-1.74,6.04c2.85,2.14,6.66,1.41,9.99,1.42c11.35-0.92,22.51-3.47,33.39-6.78
		c9.69-4.4,19.23-9.18,28.4-14.58c3.06-2.02,6.75-2.31,10.32-2.41c-0.35-2.09-2.81-2.4-4.41-3.13c-11.86-3.77-24.25-7.01-36.8-6.12
		C593.702,440.95,586.672,445.11,580.252,449.49 M746.262,492.72c1.61,4.55,5.61,7.68,7.7,11.99c2.81,4.79,1.89,10.69,0.22,15.71
		c-1.19,3.98-5.44,5.57-7.73,8.74c4.93-1.14,8.95-5.55,9.92-10.51c1.35-5.19,1.55-11.06-1.59-15.67
		C752.182,499.4,750.102,495.13,746.262,492.72 M657.872,523.18c-1.17,6.72-0.99,14.1,2.39,20.21c2.82,5.19,9.05,7.43,14.67,7.59
		c-3.43-3.08-9.03-2.43-11.94-6.34c-5.52-7.46-4.85-17.53-2.41-26.02C658.292,518.89,658.382,521.45,657.872,523.18 M734.382,521.75
		c-6.47,4.56-9.93,12.44-9.87,20.27c0.22,1.73-1.02,4.57,1.08,5.46c0.7-4.23,0.16-8.86,1.78-12.82c5.25-4.5,11.27-8.05,16.34-12.76
		C741.112,519.68,737.182,520.28,734.382,521.75 M680.492,538.81c-1.5,1.08-3.95,2.75-2.63,4.84c7.79,0.28,15.61,1.06,23.14,3.27
		c2.47,1.16,4.33,3.33,6.93,4.3c-0.35-1.08-0.95-1.97-1.8-2.67c-5.51-4.59-11.99-7.93-18.76-10.22
		C685.112,537.49,682.492,537.27,680.492,538.81 M801.062,540.35c-15.34,3.61-30.72,7.3-45.63,12.46
		c-11.51,4.36-22.19,10.57-33.46,15.47c-4.9,2.15-10.38,1.28-15.5,2.32c-11.05,2.1-22.07,4.41-32.95,7.26
		c-8.88,2.22-17.33,5.8-25.78,9.25c-4.61,2.1-9.6,4.16-12.81,8.26c-1.94,2.58-0.68,6.03,1.31,8.17c4.44,4.97,10.49,8.06,15.64,12.19
		c10.69,8.52,21.41,17.3,33.89,23.1c12.45,5.37,26.35,8.4,39.89,6.21c20-2.78,40.51-10.32,53.88-26.12
		c8.9-11.44,13.53-25.45,17.91-39.08c3.25-11.34,7.65-22.35,10.04-33.93C808.712,542.25,804.532,538.7,801.062,540.35z"/>
	<path fill="#EDAF8C" stroke="#EDAF8C" stroke-width="0.5" d="M858.352,319.13c2.33-2.26,4.55-4.77,7.51-6.23
		c1.7-1.12,3.02,0.79,4.15,1.81c4.22,4.6,7.57,9.91,10.82,15.22c3.67,6.22,6.97,12.86,7.98,20.1c2.23,16.67,4.03,33.42,4.91,50.22
		c-4.87-11.07-11.38-21.28-17.49-31.67c-1.49-7.56-1.77-15.41-4.42-22.73C868.332,336.47,862.852,328.02,858.352,319.13z"/>
	<path fill="#EEC5AE" stroke="#EEC5AE" stroke-width="0.5" d="M506.972,347.51c1.32,8.54,1.31,17.35-0.04,25.88
		C506.442,364.78,506.212,356.11,506.972,347.51z"/>
	<path fill="#030102" stroke="#030102" stroke-width="0.5" d="M769.262,351.59c12.24-3.15,25.65-3.78,37.45,1.38
		c1.88,0.93,4.46,1.66,4.66,4.16c-6.27-0.1-12.41-1.67-18.69-1.62c-7.02-0.31-13.75,2.04-20.33,4.15
		c-8.77,3.06-17.53,6.19-25.93,10.16c-9.65,4.81-18.2,11.57-26.17,18.77c-2.43,2-4.69,5.91-8.36,4.33
		c-3.14-0.85-1.73-4.79-1.27-7.04c1.03-5.04,6.15-7.25,9.91-9.99C735.892,366.24,751.302,355.66,769.262,351.59z"/>
	<path fill="#EEAF8C" stroke="#EEAF8C" stroke-width="0.5" d="M852.982,355.93c13.23,22.73,27.87,44.72,39.53,68.34
		c4.99,9.52,1.71,20.65-2.18,29.94c-0.32-1.26-0.78-2.43-1.4-3.52c-2.26-1.37-4.9-0.22-7.22,0.31c-1.82-0.86-3.62-2.58-5.77-1.95
		c-2.63,2.22-5.39,6.34-3.11,9.69c1.74,3.03,4.32,5.46,6.81,7.88c1.88-1.32,3.66-2.79,5.6-4.03c-1.5,3.25-4,5.93-6.68,8.25
		c-2.23,2-5.3,0.61-7.82,0.13c-2.6-22.03-6.11-43.95-10.36-65.71c-1.98-9.39-3.63-18.93-7.12-27.9c-1.42-2.25,1.58-4.01,1.32-6.3
		C854.662,365.97,853.672,360.95,852.982,355.93z"/>
	<path fill="#040203" stroke="#040203" stroke-width="0.5" d="M748.372,394.71c5.99-4,13.4-4.6,20.38-5.18
		c9.7-0.46,19.53-0.02,28.99,2.28c2.65,0.75,5.6,1.47,7.5,3.64c1.17,1.92-1.07,3.59-2.25,4.86c-6.09,4.94-13.28,8.28-20.26,11.75
		c-8.46,3.79-16.83,8.58-26.22,9.48c-11.45,1.01-22.66,3.67-34.02,5.29c-1.29,0.07-2.57,0.08-3.85,0.01
		c0.14-0.36,0.41-1.07,0.54-1.43C728.622,414.96,736.422,402.63,748.372,394.71 M763.742,391.95c4.37,4.45,6.72,10.85,6.24,17.07
		c-0.11,2.93-2.41,4.97-4.13,7.09c7.05-3,14.03-6.28,20.37-10.61c2.76-1.93,5.42-4.21,6.78-7.38c-2.45-2.03-5.44-3.22-8.53-3.86
		C777.672,392.76,770.702,391.96,763.742,391.95 M727.762,420.88c5.99,0.35,11.98-0.05,17.97-0.4c-2.18-1.61-4.7-3.02-5.92-5.55
		c-1.54-2.61-1.8-5.69-2.21-8.63C733.762,410.75,730.472,415.67,727.762,420.88z"/>
	<path fill="#FEFEFE" stroke="#FEFEFE" stroke-width="0.5" d="M763.742,391.95c6.96,0.01,13.93,0.81,20.73,2.31
		c3.09,0.64,6.08,1.83,8.53,3.86c-1.36,3.17-4.02,5.45-6.78,7.38c-6.34,4.33-13.32,7.61-20.37,10.61c1.72-2.12,4.02-4.16,4.13-7.09
		C770.462,402.8,768.112,396.4,763.742,391.95z"/>
	<path fill="#020101" stroke="#020101" stroke-width="0.5" d="M563.932,410.45c10.96-3.32,22.48-3.91,33.8-5.07
		c12.78-0.61,26.15-1.74,38.24,3.36c2.04,0.98,4.52,2.63,4.27,5.22c-0.57,1.89-2.27,3.08-3.55,4.46
		c-12.99-1.2-26.01-2.67-39.07-2.11c-12.34,0.81-24.59,2.89-36.52,6.12c-10.27,2.6-19.69,7.7-28.37,13.64
		c-3.12,2.02-5.39,5.47-9.2,6.24c0.34-1.65,0.84-3.27,1.76-4.68c3.21-5.26,6.98-10.36,12.12-13.89
		C545.522,418.02,554.542,413.62,563.932,410.45z"/>
	<path fill="#FDFDFE" stroke="#FDFDFE" stroke-width="0.5" d="M727.762,420.88c2.71-5.21,6-10.13,9.84-14.58
		c0.41,2.94,0.67,6.02,2.21,8.63c1.22,2.53,3.74,3.94,5.92,5.55C739.742,420.83,733.752,421.23,727.762,420.88z"/>
	<path fill="#EEAF8C" stroke="#EEAF8C" stroke-width="0.5" d="M443.772,442.08c3.36-3,8.47-1.95,12.62-1.99
		c4.05,10.09,8.55,20.01,13.47,29.71c1.74,3.08,3.22,6.67,6.46,8.48c4.55,2.6,10.72,4.19,15.25,0.69
		c5.41,17.59,10.92,35.2,18.06,52.18c5.78,12.49,14.11,23.54,22.01,34.74c-3.48,3.55-7.04,9.26-12.81,8.04
		c-6.93-1.81-13.02-6.03-18.11-10.95c-4.83-7.58-8.2-16.1-13.8-23.2c-2.97-3.69-7.02-6.34-9.97-10.05
		c-2.82-3.57-3.76-8.15-4.71-12.48c-1.93-9.15-3.1-18.7-7.79-26.96c-5.62-9.85-11.87-19.33-18.54-28.49
		C441.862,456.29,440.132,448.18,443.772,442.08 M506.092,553.34c-2.03,2.19-3.48,6.05-1.22,8.6c2.01,2.39,4.19,4.67,5.78,7.4
		c4.25-2.27,9.63-4.27,11.02-9.44c0.09-3.59-3.92-6.4-7.28-5.05C511.312,556.32,509.042,552.33,506.092,553.34z"/>
	<path fill="#050203" stroke="#050203" stroke-width="0.5" d="M580.252,449.49c6.42-4.38,13.45-8.54,21.32-9.38
		c12.55-0.89,24.94,2.35,36.8,6.12c1.6,0.73,4.06,1.04,4.41,3.13c-3.57,0.1-7.26,0.39-10.32,2.41c-9.17,5.4-18.71,10.18-28.4,14.58
		c-10.88,3.31-22.04,5.86-33.39,6.78c-3.33-0.01-7.14,0.72-9.99-1.42c-1.16-2.15,0.55-4.34,1.74-6.04
		C567.382,459.31,573.702,454.14,580.252,449.49 M614.722,444.03c1.4,1.93,3.28,3.73,3.59,6.22c0.37,2.42-0.92,4.63-1.67,6.84
		c4.83-2.91,9.55-5.99,14.09-9.34C625.492,446.1,620.112,445,614.722,444.03 M571.152,465.97c6.99,2.28,14.51,0.99,21.69,0.53
		c-2.69-1.75-5.86-3.2-7.34-6.23c-1.88-3.02-0.92-6.69-0.45-9.95C579.622,454.64,573.312,459.05,571.152,465.97 M593.052,454.25
		c-2.5,1.26-3.24,4.73-1.67,6.99c1.33,2.34,4.52,1.91,6.65,1.09C602.092,459.44,597.302,452.38,593.052,454.25z"/>
	<path fill="#FCFDFD" stroke="#FCFDFD" stroke-width="0.5" d="M614.722,444.03c5.39,0.97,10.77,2.07,16.01,3.72
		c-4.54,3.35-9.26,6.43-14.09,9.34c0.75-2.21,2.04-4.42,1.67-6.84C618.002,447.76,616.122,445.96,614.722,444.03z"/>
	<path fill="#39FA62" stroke="#39FA62" stroke-width="0.5" d="M876.782,450.11c1.58,0.87,3.17,1.74,4.75,2.65
		c2.3-0.77,4.72-0.98,7.14-0.81c-0.22,5.73-4.65,9.6-8.79,12.91c-2.25-2.49-5.04-4.74-6.22-7.98
		C873.052,454.15,875.222,452.04,876.782,450.11z"/>
	<path fill="#FDFDFD" stroke="#FDFDFD" stroke-width="0.5" d="M571.152,465.97c2.16-6.92,8.47-11.33,13.9-15.65
		c-0.47,3.26-1.43,6.93,0.45,9.95c1.48,3.03,4.65,4.48,7.34,6.23C585.662,466.96,578.142,468.25,571.152,465.97z"/>
	<path fill="#222222" stroke="#222222" stroke-width="0.5" d="M593.052,454.25c4.25-1.87,9.04,5.19,4.98,8.08
		c-2.13,0.82-5.32,1.25-6.65-1.09C589.812,458.98,590.552,455.51,593.052,454.25z"/>
	<path fill="#DEE2E8" stroke="#DEE2E8" stroke-width="0.5" d="M885.462,461.31C888.802,461.21,883.662,464.3,885.462,461.31z"/>
	<path fill="#0A0100" stroke="#0A0100" stroke-width="0.5" d="M746.262,492.72c3.84,2.41,5.92,6.68,8.52,10.26
		c3.14,4.61,2.94,10.48,1.59,15.67c-0.97,4.96-4.99,9.37-9.92,10.51c2.29-3.17,6.54-4.76,7.73-8.74c1.67-5.02,2.59-10.92-0.22-15.71
		C751.872,500.4,747.872,497.27,746.262,492.72z"/>
	<path fill="#0A0100" stroke="#0A0100" stroke-width="0.5" d="M657.872,523.18c0.51-1.73,0.42-4.29,2.71-4.56
		c-2.44,8.49-3.11,18.56,2.41,26.02c2.91,3.91,8.51,3.26,11.94,6.34c-5.62-0.16-11.85-2.4-14.67-7.59
		C656.882,537.28,656.702,529.9,657.872,523.18z"/>
	<path fill="#050201" stroke="#050201" stroke-width="0.5" d="M734.382,521.75c2.8-1.47,6.73-2.07,9.33,0.15
		c-5.07,4.71-11.09,8.26-16.34,12.76c-1.62,3.96-1.08,8.59-1.78,12.82c-2.1-0.89-0.86-3.73-1.08-5.46
		C724.452,534.19,727.912,526.31,734.382,521.75z"/>
	<path fill="#050203" stroke="#050203" stroke-width="0.5" d="M680.492,538.81c2-1.54,4.62-1.32,6.88-0.48
		c6.77,2.29,13.25,5.63,18.76,10.22c0.85,0.7,1.45,1.59,1.8,2.67c-2.6-0.97-4.46-3.14-6.93-4.3c-7.53-2.21-15.35-2.99-23.14-3.27
		C676.542,541.56,678.992,539.89,680.492,538.81z"/>
	<path fill="#0A0100" stroke="#0A0100" stroke-width="0.5" d="M801.062,540.35c3.47-1.65,7.65,1.9,6.43,5.56
		c-2.39,11.58-6.79,22.59-10.04,33.93c-4.38,13.63-9.01,27.64-17.91,39.08c-13.37,15.8-33.88,23.34-53.88,26.12
		c-13.54,2.19-27.44-0.84-39.89-6.21c-12.48-5.8-23.2-14.58-33.89-23.1c-5.15-4.13-11.2-7.22-15.64-12.19
		c-1.99-2.14-3.25-5.59-1.31-8.17c3.21-4.1,8.2-6.16,12.81-8.26c8.45-3.45,16.9-7.03,25.78-9.25c10.88-2.85,21.9-5.16,32.95-7.26
		c5.12-1.04,10.6-0.17,15.5-2.32c11.27-4.9,21.95-11.11,33.46-15.47C770.342,547.65,785.722,543.96,801.062,540.35 M799.022,542.34
		c-12.98,3.1-25.93,6.39-38.68,10.33c-13.17,4.34-25.17,11.43-37.82,17.01c-5.28,2.19-11.14,1.52-16.66,2.57
		c-11.2,2.19-22.38,4.52-33.41,7.46c-8.08,2.1-15.77,5.4-23.5,8.51c-4.23,1.87-8.72,3.63-12.03,6.99c-1.88,1.74-1.76,4.87-0.08,6.72
		c4.07,5.02,9.94,8.01,14.98,11.93c14.53,11.46,29.35,24.1,47.93,28.14c16.18,4.54,33.28,1.27,48.82-4.09
		c14.01-5.08,27.39-13.97,34.76-27.26c9-15.62,12.88-33.4,18.73-50.29c1.6-6,4.34-12.01,3.57-18.35
		C803.412,541.81,801.172,541.75,799.022,542.34z"/>
	<path fill="#C54250" stroke="#C54250" stroke-width="0.5" d="M799.022,542.34c2.15-0.59,4.39-0.53,6.61-0.33
		c0.77,6.34-1.97,12.35-3.57,18.35c-5.85,16.89-9.73,34.67-18.73,50.29c-7.37,13.29-20.75,22.18-34.76,27.26
		c-15.54,5.36-32.64,8.63-48.82,4.09c-18.58-4.04-33.4-16.68-47.93-28.14c-5.04-3.92-10.91-6.91-14.98-11.93
		c-1.68-1.85-1.8-4.98,0.08-6.72c3.31-3.36,7.8-5.12,12.03-6.99c7.73-3.11,15.42-6.41,23.5-8.51c11.03-2.94,22.21-5.27,33.41-7.46
		c5.52-1.05,11.38-0.38,16.66-2.57c12.65-5.58,24.65-12.67,37.82-17.01C773.092,548.73,786.042,545.44,799.022,542.34
		 M787.092,552.49c-8.55,4.46-17.06,8.99-25.65,13.38c-13.97,7.03-27.7,14.97-42.93,19.01c-23.74,6.5-48.6,5.9-72.87,8.9
		c-1.49,0.21-2.87,0.78-4.25,1.32c0.44,1.48,0.82,3.08,2.01,4.18c3.37,3.61,7.32,6.68,11.54,9.24c2.37,4.5,8.42,5.4,12.98,6.53
		l-0.46-0.92c2.84,0.93,5.72,1.76,8.65,2.36l-0.3,1.17c3.52,0.91,7.13,1.34,10.77,1.41l0.11-1.03c1.76,0.16,3.52,0.32,5.29,0.44
		l-0.18,1.12c5.35,0.62,10.79,0.79,16.12-0.15l-0.65-0.88c11.22-0.75,22.43-2.85,32.84-7.23c13.11-5.59,25.36-13.28,36.05-22.71
		c3.92,0.54,6.66-3.37,6.27-6.98c7.01-8.81,11.39-19.28,15.09-29.81c0.52-1.6,0.84-3.26,1.14-4.92
		C794.542,548.19,790.902,550.55,787.092,552.49z"/>
	<path fill="#030102" stroke="#030102" stroke-width="0.5" d="M787.092,552.49c3.81-1.94,7.45-4.3,11.57-5.57
		c-0.3,1.66-0.62,3.32-1.14,4.92c-3.7,10.53-8.08,21-15.09,29.81c-2,2.4-4.1,4.73-6.27,6.98c-10.69,9.43-22.94,17.12-36.05,22.71
		c-10.41,4.38-21.62,6.48-32.84,7.23c-5.1,0.07-10.2,0.21-15.29-0.09c-1.77-0.12-3.53-0.28-5.29-0.44
		c-3.55-0.36-7.08-0.87-10.58-1.55c-2.93-0.6-5.81-1.43-8.65-2.36c-4.21-1.78-8.47-3.49-12.52-5.61c-4.22-2.56-8.17-5.63-11.54-9.24
		c-1.19-1.1-1.57-2.7-2.01-4.18c1.38-0.54,2.76-1.11,4.25-1.32c24.27-3,49.13-2.4,72.87-8.9c15.23-4.04,28.96-11.98,42.93-19.01
		C770.032,561.48,778.542,556.95,787.092,552.49 M735.302,580.53c-24.76,11.08-52.35,11.54-78.93,13.56
		c-0.29,5.02,0.78,9.99,2.38,14.73c7.88,3.68,16.26,6.48,24.95,7.29c21.2,2.56,43.5,0.6,62.73-9.27
		c14.11-7.41,28.24-16.28,37.38-29.68c0.73-1.26,2.13-2.44,1.79-4.05c-0.82-5.49-0.78-11.35-3.73-16.26
		C766.482,565,751.092,573.17,735.302,580.53z"/>
	<path stroke="#000000" stroke-width="0.5" d="M506.092,553.34c2.95-1.01,5.22,2.98,8.3,1.51c3.36-1.35,7.37,1.46,7.28,5.05
		c-1.39,5.17-6.77,7.17-11.02,9.44c-1.59-2.73-3.77-5.01-5.78-7.4C502.612,559.39,504.062,555.53,506.092,553.34 M506.732,554.54
		c-0.73,1.88-2.06,4.16-0.86,6.14c1.61,2.34,3.81,4.19,5.65,6.36c3.27-1.58,7.4-3.14,8.38-7.07c0.4-1.81-1.41-2.87-2.33-4.1
		c-1.88,0.32-3.74,0.87-5.64,0.9C510.142,556.13,508.462,555.26,506.732,554.54z"/>
	<path fill="#37FB61" stroke="#37FB61" stroke-width="0.5" d="M506.732,554.54c1.73,0.72,3.41,1.59,5.2,2.23
		c1.9-0.03,3.76-0.58,5.64-0.9c0.92,1.23,2.73,2.29,2.33,4.1c-0.98,3.93-5.11,5.49-8.38,7.07c-1.84-2.17-4.04-4.02-5.65-6.36
		C504.672,558.7,506.002,556.42,506.732,554.54z"/>
	<path fill="#FAFAFC" stroke="#FAFAFC" stroke-width="0.5" d="M735.302,580.53c15.79-7.36,31.18-15.53,46.57-23.68
		c2.95,4.91,2.91,10.77,3.73,16.26c0.34,1.61-1.06,2.79-1.79,4.05c-9.14,13.4-23.27,22.27-37.38,29.68
		c-19.23,9.87-41.53,11.83-62.73,9.27c-8.69-0.81-17.07-3.61-24.95-7.29c-1.6-4.74-2.67-9.71-2.38-14.73
		C682.952,592.07,710.542,591.61,735.302,580.53z"/>
	<path fill="#B54E5A" stroke="#B54E5A" stroke-width="0.5" d="M776.162,588.63c2.17-2.25,4.27-4.58,6.27-6.98
		C782.822,585.26,780.082,589.17,776.162,588.63z"/>
	<path fill="#B75461" stroke="#B75461" stroke-width="0.5" d="M654.942,608.52c4.05,2.12,8.31,3.83,12.52,5.61l0.46,0.92
		C663.362,613.92,657.312,613.02,654.942,608.52z"/>
	<path fill="#B85867" stroke="#B85867" stroke-width="0.5" d="M676.112,616.49c3.5,0.68,7.03,1.19,10.58,1.55l-0.11,1.03
		c-3.64-0.07-7.25-0.5-10.77-1.41L676.112,616.49z"/>
	<path fill="#C75F6C" stroke="#C75F6C" stroke-width="0.5" d="M691.982,618.48c5.09,0.3,10.19,0.16,15.29,0.09l0.65,0.88
		c-5.33,0.94-10.77,0.77-16.12,0.15L691.982,618.48z"/>
	<path fill="#EEAF8C" stroke="#EEAF8C" stroke-width="0.5" d="M862.132,965.07c-5.16-6.07-10.51-12.03-14.65-18.86
		c-3.85-6.43-5.6-13.87-6.43-21.24c-0.95-8.47-2.24-17.11-0.76-25.58c1.03-6.31,6.8-10.29,8.39-16.37
		c5.1-17.25,7.92-35.05,12.35-52.46c0.26-0.96,0.18-1.88-0.24-2.76c-8.57-22.97-13.64-47.06-17.92-71.15
		c-1.65-8.69-2.14-17.56-3.66-26.25c-0.54-12.27-0.22-24.56-0.02-36.82c0.1-0.4,0.29-1.18,0.39-1.57
		c1.02-15.33,2.08-30.66,3.77-45.93c-13.84,21.4-29.45,42.05-49.14,58.43c-12.53,10.32-27.15,19.01-43.46,21.3
		c-17.51,2.33-35.25-0.36-52.23-4.68c-32.82-8.46-63.72-22.87-93.67-38.48c3.79,14.63,7.71,29.24,11.21,43.95
		c2.4,7.71-2.02,15.92,0.54,23.54c6.87,7.43,14.18,14.45,21.2,21.76c33.89,34.23,65.15,70.93,97.07,106.97
		c6.82,7.79,13.49,15.76,21.38,22.52c6.34,5.98,13.98,12.01,15.78,21.03c1.35,9.73-1.66,19.38-4.63,28.55
		c7.86,9.54,15.73,19.1,24.03,28.27c13.47,14.86,28.72,27.98,42.3,42.73c4.8,5.13,8.94,10.83,13.4,16.24
		c-0.4-13.35,3.56-26.25,6.94-39C857.262,987.95,859.852,976.54,862.132,965.07z"/>
	<path fill="#F7FEFB" stroke="#F7FEFB" stroke-width="0.5" d="M848.422,709.32c2.1-1.89,4.42-3.55,7.04-4.63
		c0.09,1.8,0.15,3.61,0.22,5.43C853.272,709.74,850.842,709.48,848.422,709.32z"/>
	<path fill="#434345" stroke="#434345" stroke-width="0.5" d="M841.842,708.49c1.41,0.15,1.65,0.81,0.73,1.98
		C841.152,710.3,840.902,709.64,841.842,708.49z"/>
	<path fill="#FCFCFC" stroke="#FCFCFC" stroke-width="0.5" d="M859.802,714.45c2-2.1,3.59-4.53,5.5-6.7
		c0.45,5.71,0.16,11.46,0.85,17.16C864.062,721.4,862.042,717.86,859.802,714.45z"/>
	<path fill="#CB8587" stroke="#CB8587" stroke-width="0.5" d="M842.062,713.52c4.86-0.37,11.72-2.85,14.83,2.33
		c7.27,10.84,13,22.64,18.47,34.47c7.95,17.03,12.39,35.4,16.03,53.76c1.14,7.15,2.54,14.34,2.79,21.58
		c-10.2,45.18-21.17,90.2-30.99,135.48c-4.87-4.75-8.98-10.25-12.68-15.93c-6.14-9.91-6.49-21.87-7.68-33.12
		c-0.49-6.49-0.47-13.77,3.89-19.07c5.19-6.12,6.31-14.28,8.27-21.78c3.49-13.74,5.85-27.74,9.42-41.46
		c2.24-9.17,0.24-18.65-3.25-27.21c-2.91-6.89-5.38-14.09-9.71-20.24c-0.77-1.16-0.92-2.59-1.26-3.88
		C845.752,757.08,841.992,735.4,842.062,713.52z"/>
	<path fill="#FEFEFE" stroke="#FEFEFE" stroke-width="0.5" d="M870.652,733.45c6.88-1.36,10.48-8.34,16.81-10.79
		c0.48,3.3,0.89,6.62,1.2,9.95c-3.14-0.98-5.64-4.47-9.1-3.8c-0.06,0.51-0.17,1.53-0.23,2.04c2.92,2.06,6.07,3.77,9.19,5.53
		c0.85,14.91,0.9,29.87,0.96,44.8C885.312,764.52,878.652,748.61,870.652,733.45z"/>
	<path fill="#CB8587" stroke="#CB8587" stroke-width="0.5" d="M598.082,734.95c20.65,22.85,43.05,44.05,63.93,66.69
		c22.82,24.91,45.05,50.35,67.4,75.69c7.92,9.03,15.62,18.35,24.69,26.29c5.62,5.36,12.38,10.5,14.61,18.29
		c1.85,8.84-1.28,17.67-3.44,26.16c-5.1-5.16-9.36-11.08-14.07-16.58c-28.06-33.94-55.94-68.03-83.86-102.09
		c-23.7-28.82-47.08-57.9-70.94-86.58C596.932,740.18,597.512,737.56,598.082,734.95z"/>
	<path fill="#DEE3E9" stroke="#DEE3E9" stroke-width="0.5" d="M595.122,746.01c55.9,68.26,111.59,136.69,167.88,204.64
		c10.94,13.03,21.54,26.39,33.49,38.53c14.21,14.8,30.08,28.06,42.83,44.23c3.86,5.24,8.4,10.25,10.37,16.59
		c2.8,8.12,8.3,14.83,13.4,21.59c3.6,5.33,6.16,11.28,9.06,17.01c5.49,9.77,4.14,21.57,8.73,31.69c-8.05-0.63-14.2-6.59-20.73-10.71
		c-16.43-11.93-32.38-24.57-49.55-35.44c-10.74-6.87-22.09-12.91-34.24-16.86c-22.93-7.75-47.1-10.78-70.24-17.78
		c-8.87-2.91-18.2-6.24-24.69-13.28c-4.78-5.1-5.75-12.52-5.05-19.22c1.14-11.82,5.63-22.93,9.07-34.2
		c2.32-7.75,4.84-15.71,4.22-23.9c-0.27-4.29-2.2-8.62-5.76-11.16c-3.67-2.59-8.2-3.41-12.53-4.14c0.31-0.34,0.93-1.02,1.24-1.36
		c-9.01-0.35-18.05-0.33-27.06-0.02c0.6,0.36,1.81,1.07,2.41,1.43c-17.35,1.48-34.53,4.49-51.56,8.05
		c-7.65,1.76-15.46,3.01-22.88,5.6c0.75,0.95,1.17,2.94,2.78,2.16c27.42-6.37,55.17-12.28,83.39-13.26
		c6.72,0.14,13.7,0.23,20.02,2.75c4.8,1.82,7.02,7.16,6.98,12c-0.11,7.65-2.47,15.04-4.72,22.28c-3.57,11.41-7.93,22.76-8.9,34.78
		c-0.59,7.24,1.02,15.07,6.16,20.48c6.64,7.15,16.06,10.75,25.12,13.77c23.6,7.27,48.33,10.25,71.74,18.25
		c15.33,5.03,29.16,13.59,42.42,22.62c13.62,9.25,26.53,19.49,39.92,29.07c4.53,3.17,9.06,6.4,13.99,8.96
		c3.41,2.21,7.43,2.27,11.29,1.44c6.05,0.57,10.24-4.56,14.51-8.01c14.86-13.82,28.35-29.02,41.83-44.16
		c11-12.07,20.85-25.15,32.26-36.85c4.75-5.12,9.12-11.34,9.39-18.57c0.18-4.57-2.44-8.57-4.64-12.35
		c-7.21-11.3-16.22-21.33-23.41-32.64c-2.19-3.64-4.63-7.47-4.83-11.82c0.77-3.5,5.07-3.32,7.87-3.26
		c10.74,0.63,21.06,4.11,31.7,5.55c5.49,0.6,11.5,1.43,16.61-1.2c3.72-1.89,4.71-6.43,4.67-10.26c-0.07-8.75-2.21-17.32-4.31-25.77
		c-3.79-14.35-8.54-28.42-13.62-42.36c-2.79-7.47-5.4-15.03-9.09-22.11c14.35,13.72,27.87,28.31,41.64,42.62
		c27.81,29.56,55.43,59.31,82.14,89.87c9.52,10.62,17.81,22.23,26.25,33.71c4.14,5.99,8.43,13.12,6.7,20.71
		c-2.26,7.3-9.28,11.46-13.38,17.58c-3.75,5.27-5.36,11.65-7.35,17.71c-3.89,12.98-5.91,26.88-3.26,40.31
		c2.54,10.31,6.99,20.02,11.42,29.63c6.82,14.11,13.82,28.26,22.78,41.16c1.63,2.95,4.94,3.76,8.06,4.07
		c2.57,9.27,7.57,17.56,11.64,26.21c2.63,5.66,5.75,11.1,8.21,16.84c0.95,6.7,1.04,13.51,1.61,20.26
		c-34.4,0.66-68.74,2.94-103.08,4.82c-13.37,0.71-26.21,4.86-39.46,6.38c-5.3,0.61-11.62,0.05-15.15-4.48
		c-4.45-5.69-4.56-13.3-5.77-20.12c-1.13-9.45-4.85-18.26-7.83-27.21c-7.81-22.57-15.6-45.14-23.45-67.7
		c-0.73-0.02-2.18-0.06-2.9-0.08c0.38,1.9,0.84,3.8,1.48,5.65c7.33,21.03,14.61,42.08,21.87,63.14c2.85,8.62,6.49,17.08,7.64,26.17
		c1.28,7.66,1.53,16.2,6.76,22.45c3.98,4.79,10.64,5.97,16.56,5.42c13.15-1.22,25.83-5.54,39.04-6.33
		c34.8-2.17,69.62-3.99,104.46-5.14c2.57,43.79,5.1,87.69,3.39,131.57c-0.61,10.75-1.41,21.67-5.07,31.9
		c-7.69,23.18-22.51,42.92-36.06,62.92c-11.9,17.03-15.85,37.84-23.65,56.76c-6.97-2-13.9-4.1-20.86-6.1
		c-81.67-23.61-162.77-49.15-244.1-73.88c-95.84-29.21-191.57-58.8-287.69-87.1c-6.09-1.95-12.49-3.05-18.25-5.91
		c-1.92-1.29-4.06,0.08-5.9,0.8c-4.94,2.32-10.59,4.97-12.48,10.54c-15.33,36.77-29.45,74.03-43.86,111.16
		c-15.86,41.26-31.59,82.57-46.86,124.06c-3.86,10.66-7.82,21.29-11.15,32.14c-4.52-6.9-8.55-14.16-11.54-21.86
		c-3.92-9.89-5.01-20.72-4.38-31.27c0.82-10.53,6.72-19.81,7.98-30.21c0.75-6.61-4.84-11.02-8.9-15.26
		c-3.51-3.08-3.76-7.91-2.83-12.17c5.94-36.24,14.35-72.03,21.2-108.11c1.25-7.28,3.24-14.65,2.16-22.09
		c-1.12-7.76-4.82-15.29-3.51-23.27c1.18-6.46,3.17-12.73,4.89-19.05c7.2-24.92,15.08-49.64,22.48-74.5
		c1.56-5.84,3.7-11.56,4.55-17.55c0.66-5.73-3.1-10.6-3.88-16.08c-0.08-4.91,2.47-9.34,3.08-14.14c-1.56-0.1-3.16,0.44-3.49,2.15
		c-1.22,2.96-2.11,6.06-2.62,9.23c-1.32,7.45,5.85,13.85,3.3,21.35c-8.34,30.28-18.35,60.08-26.92,90.3
		c-2.26,8.83-5.94,17.76-4.37,27.05c1.38,8.1,5.06,16.12,3.26,24.48c-6.72,38.43-15.9,76.39-22.48,114.84
		c-0.65,4.5-1.79,9.13-0.89,13.68c1.81,5.95,7.93,8.9,10.85,14.15c1.87,3.32,0.78,7.24-0.23,10.66c-2.44,7.74-5.79,15.29-6.68,23.43
		c-0.81,12.03,0.37,24.41,5.31,35.53c4.62,11.59,11.89,21.81,19.01,31.96c7.04,6.97,13.84,14.3,22.04,19.96
		c14.89,10.63,32.82,15.31,49.9,21.16c54.84,20.1,110.95,36.52,166.04,55.89c19.5,6.94,38.74,14.67,58.68,20.28
		c6.28,1.71,12.69,3,19.19,3.56c-0.59,0.34-1.78,1.02-2.37,1.36c7.73,0.27,15.46,0.27,23.2,0.04c-0.6-0.37-1.78-1.09-2.38-1.46
		c9.05-0.59,18.2-0.71,27.16,0.91c14.69,2.63,28.85,7.52,43.03,12.09c-3.53,2.95-7.65,6.08-8.55,10.89
		c-2.53,16.78,0.54,34.42-5.53,50.62c-2.82,7.82-6.81,15.41-7.4,23.85c-1.02,12.12-1.66,24.29-3.69,36.3h-4.77
		c-0.81-1.62-1.4-1.62-1.76,0h-508.35c-11.62-6.53-23.23-13.11-34.23-20.65c-16.2-10.88-31.64-22.86-46.77-35.17
		c-29.28-23.64-54.79-51.69-77.18-81.87c-20.98-28.5-39.68-59.39-49.39-93.67c-4.82-17.5-7.91-36.12-3.98-54.1
		c2.54-11.93,7.07-23.32,9.9-35.17c3.12-13.33,7.76-26.22,12.04-39.2c4.59-14.56,10.15-29.57,8.4-45.09
		c-1.26-12.5-7.22-24.09-7.6-36.73c1.47-7.46,1.48-15.19,0-22.65c0.12-10.47,1.22-20.9,2.25-31.31
		c2.42-20.35,5.43-40.76,11.74-60.32c6.98-22.08,15.99-43.48,22.16-65.82c5.92-20.3,9-41.25,12.17-62.11
		c6.48-43.18,11.43-86.61,19.37-129.56c2.47-13.77,6.29-27.23,10.13-40.66c4.74-16.49,9.94-32.86,16.32-48.78
		c9.07-22.96,21.61-44.61,37.46-63.55c9.49-11.2,20.81-20.66,32.45-29.54c8.6-6.39,18.05-11.5,27.47-16.54
		c21.97-11.45,44.5-21.8,67.18-31.74c2.08-1.29,4.56,0.57,6.64-0.38c6.21-4.36,10.37-10.96,16.2-15.77
		c5.04-4.93,11.55-7.93,18.34-9.58c21.37-5.87,43.28-9.45,64.92-14.17c15.79-3.82,32.53-3.52,47.62-10.11
		c0.97,9.99,2.18,19.97,3.98,29.85c6.65,28.42,15.12,56.38,22.37,84.65c12.3,46.31,22.55,93.12,33,139.88
		c5.23,24.6,10.94,49.14,14.83,74.01c1.61,7.59-3.87,13.82-8.11,19.41c-5.57,8.6-14.56,14.15-20.48,22.47
		c-3.5,4.55-5.63,10.01-6.58,15.65c-2.35,12.4-1.74,25.47,2.46,37.42c3.53,10.06,10.6,18.47,18.63,25.31
		c12.07,10.21,27.38,17.42,43.42,17.33c17.57-0.93,34.27-8.95,47.51-20.28c8.64-7.26,13.96-18.14,14.48-29.4
		c0.47-10.77-1.06-21.78-5.27-31.74c-5.79-12.99-14.86-24.2-24.52-34.51c-5.65-6.15-13.59-9.16-20.59-13.37
		c-9.18-5.59-14.21-15.76-17.2-25.71c-2.52-8.86-4.98-17.73-7.39-26.61c-7.41-31.55-13.68-63.36-21.04-94.92
		c-11.75-51.83-27.11-102.72-41.12-153.96c-4.42-15.27-6.56-31.14-7.63-46.96c1.51-3.8,5.28-6.14,7.97-9.09
		C566.562,787.5,585.632,769.73,595.122,746.01z"/>
	<path fill="#FDFCFE" stroke="#FDFCFE" stroke-width="0.5" d="M891.992,791.87c4.56-2.7,4.32-8.62,6.5-12.9
		c-0.97,8.42-2.69,16.74-3.45,25.19C893.052,800.41,893.402,795.85,891.992,791.87z"/>
	<path fill="#DEE2E8" stroke="#DEE2E8" stroke-width="0.5" d="M939.612,792.76c2.43-3.47,4.73-7.03,7.03-10.59
		c6.24,6.38,12.28,12.96,18,19.82c1.48,1.92,3.23,3.76,4.05,6.1c0.33,2.42-0.31,4.82-0.85,7.17
		C958.502,807.67,949.162,800.09,939.612,792.76z"/>
	<path fill="#2B3B55" stroke="#2B3B55" stroke-width="0.5" d="M937.802,795.15c7.29,5.2,14.08,11.06,21.12,16.6
		c8.91,7.79,18.5,14.77,27.34,22.66c19.26,15.98,36.84,33.83,54.22,51.8c14.26,15.46,28.02,31.36,41.94,47.12
		c25.19,29.24,48.38,60.12,73.23,89.64c3.98,4.31,7.48,9.31,12.53,12.46c6.36,2.25,12.87-1.42,19.35-1.1
		c15.81,1.04,32.32,4.6,44.76,15.02c14.52,12.36,26.36,27.64,35.97,44.06c7.44,12.51,14.39,25.34,20.43,38.59
		c0.71,2.29,2.62,5.33,0.45,7.39c-1.93,2.14-5.06,4.64-8.05,3.47c-3.72-3.22-5.74-7.87-8.37-11.93c-8.19-14-16.13-28.2-25.5-41.46
		c-6.12-7.81-12.44-15.5-19.57-22.42c-5.94-5.73-13.2-9.87-20.59-13.43c-7.35-3.55-15.54-5.72-23.74-5.13
		c-11,0.9-22.15,4.29-30.62,11.61c-10.27,8.54-15.76,21.59-17.28,34.64c-1.35,10.5-1.03,21.52,3.25,31.37
		c6.9,16.18,15.55,31.54,23.74,47.09c2.05,4.44,5.21,8.64,5.55,13.66c-1.43,3.14-4.89,4.62-8.02,5.47c-2.44,0.53-5.71,1.25-7.36-1.2
		c-3.86-4.71-6.68-10.17-9.74-15.4c-6.39-11.2-12.07-22.79-17.27-34.59c-3.02-7.26-6.32-14.53-7.63-22.32
		c-1.59-11.86-0.3-23.99,3.1-35.43c2.26-7.49,4.29-15.44,9.7-21.37c4.58-5.52,11.13-10.38,11.96-18.03
		c0.65-8.07-3.87-15.35-8.36-21.67c-6.36-8.31-12.19-17.02-18.97-24.99c-22.27-26.3-45.84-51.46-69.16-76.82
		c-23.68-25.32-47.51-50.52-72.44-74.63c-14.56-13.54-29.88-26.22-45.06-39.04C931.512,802.77,934.512,798.84,937.802,795.15z"/>
	<path fill="#DEE3E9" stroke="#DEE3E9" stroke-width="0.5" d="M897.642,825.86c7.72-5.78,12.14-14.58,18.03-21.97
		c-1.3,4.15-4.15,7.74-4.93,12.04c0.92,3.03,5.22,2.53,7.63,1.76c3.46-2.12,5.74-5.65,8.51-8.54
		c15.02,12.48,30.02,25.01,44.29,38.36c5.24,7.03,10.23,14.46,13.21,22.79c7.9,20.81,15.5,41.85,20.26,63.64
		c1.06,6.35,2.82,12.96,1.3,19.37c-0.98,3.97-5.77,4.59-9.18,4.71c-11.92-0.29-23.35-4.2-35.1-5.82c-3.83-0.41-7.85-0.91-11.57,0.36
		c-2.98,0.96-4.92,4.19-4.33,7.28c0.96,5.53,4.21,10.29,7.22,14.92c6.94,10.29,15.17,19.68,21.8,30.18
		c2.19,3.79,4.89,8.11,3.44,12.68c-2.26,9.67-10.73,15.8-16.83,23.04c-16.35,19.6-33.17,38.82-50.78,57.3
		c-6.12,6.22-12.18,12.53-18.9,18.11c-2.06,1.57-4.19,3.52-6.95,3.48c0.53-11.17-5.68-20.89-8.29-31.4
		c-2.43-8.65-9.14-15.01-13.01-22.93c-3.76-7.05-8.3-13.67-12.1-20.68c-2.2-9.03-0.62-18.46,1.35-27.39
		c3.29-14.2,7.83-28.09,10.61-42.41c0.68-4.51,2.57-8.73,2.93-13.29c5.06-23.12,10.47-46.16,15.76-69.23
		C887.242,870.11,892.042,847.86,897.642,825.86z"/>
	<path fill="#373737" stroke="#373737" stroke-width="0.5" d="M390.402,823.22c-1.41-3.21-1.43-7.2,0.01-10.39
		C390.922,816.27,390.922,819.77,390.402,823.22z"/>
	<path fill="#2B3B55" stroke="#2B3B55" stroke-width="0.5" d="M523.012,824.08c5-2.86,10.02-5.7,14.65-9.13
		c1.62,13.12,2.75,26.37,5.97,39.22c13.07,48.83,27.82,97.22,39.61,146.38c7.79,32.9,14.67,66,21.98,99.01
		c2.61,12.26,6.3,24.24,9.56,36.33c1.55,5.99,4.25,11.57,6.96,17.11c-8.06,2.65-16.87,3.19-24.23,7.75
		c0.18-8.29-1.89-16.37-3.24-24.49c-9.37-47.16-20.15-94.03-31-140.87c-9.96-43.16-22.1-85.76-33.5-128.55
		C525.872,852.9,524.452,838.43,523.012,824.08z"/>
	<path fill="#FCFDFD" stroke="#FCFDFD" stroke-width="0.5" d="M972.462,818.96c16.84-0.7,33.72-0.74,50.56,0.06
		c-3.4,0.73-6.86,1.15-10.33,1c-9.33-0.28-18.67,0.03-28-0.19c-3.28-0.11-6.54,0.38-9.67,1.3
		C974.162,820.4,973.292,819.67,972.462,818.96z"/>
	<path stroke="#000000" stroke-width="0.5" d="M1440.792,1429.81c-1.17-12.72-3.29-25.35-6.11-37.81
		c-2.23-9.68-4.55-19.39-8.35-28.6c-9.17-22.7-20.54-44.42-31.85-66.11c-42.6-79.63-88.84-157.24-135.6-234.47
		c-1.78-2.96-3.76-5.81-5.12-8.98c-1.79-4.76-5.67-8.25-8.56-12.32c-23.71-30.94-47.84-61.78-67.42-95.58
		c-10.19-17.22-19.78-34.78-30.15-51.88c-4.06-6.54-8.11-13.1-12.94-19.09c-9.91-12.02-20.56-23.64-33.37-32.62
		c-12.68-8.85-26.39-16.6-41.39-20.69c-10.54-2.87-21.29-5.17-32.22-5.67c-18.82-1.07-37.69-1.02-56.51-0.27
		c0.45-3.75,1.68-8.1-0.85-11.4c-6.48-9.07-14.54-16.85-21.97-25.12c4.19-7.44,8.09-15.46,8.4-24.16
		c1.29-18.72-6.72-36.43-15.83-52.27c-7-12.22-22.16-16.81-28.61-29.43c-4.39-8.8-6.88-18.39-9.16-27.91
		c-4.73-20.78-6.76-42.22-5.28-63.51c1.85-17.34,8.64-33.6,15.13-49.62c8.36-20.43,18.24-40.57,22.31-62.43
		c2.64-19.5,2.3-39.49-1.63-58.81c-2.71-13.36-6.67-26.43-10.69-39.46c-11.48-36.92-25.83-73.14-45.23-106.67
		c-9.15-15.78-19.43-30.94-31.23-44.86c-21.1-24.63-46.19-45.51-72.32-64.58c-18.43-13.25-37.44-25.76-57.36-36.67
		c-24.47-13.93-52.67-19.55-80.52-21.08c-15.91-0.99-32.2-0.22-47.51,4.53c-11.65,3.56-19.85,13.54-31.32,17.5
		c-19.46,6.91-39.53,12.18-58.41,20.66c-7.62,3.52-15.46,7.57-20.5,14.55c-7.54,9.59-9.23,22-12.59,33.37
		c-2.97,10.49-8.4,20.02-13.4,29.63c-13.15,24.82-26.26,49.7-37.53,75.45c-8.09,18.21-14.49,37.09-21.18,55.85
		c-7.9,22.37-15.06,45.09-19.31,68.48c-3.97,22.5-6.73,45.37-5.77,68.26c1.89,46.16,10.09,91.73,15.5,137.54
		c0.67,8.19,2.12,16.53,0.44,24.7c-2.93,16.53-14.3,30.02-17.5,46.49c-4.43,21.71-6.96,43.76-9.18,65.8
		c-0.94,10.45-1.74,20.93-1.57,31.43c-0.33,11.4,5.13,21.87,10.67,31.47c3.32,5.29,6.5,10.94,11.61,14.73
		c3.18-1.98,2.65-5.93,2.66-9.14c-0.37-8.04,2.23-15.81,4.97-23.24c0.44,5.72,0.19,11.46,0.24,17.19c0.01,5.28-0.27,10.73-2.4,15.65
		c-4.16,9.62-9.45,18.72-13.37,28.45c-0.79,1.8-1.18,4.15-3.37,4.75c-19.35,8.42-38.57,17.18-57.46,26.59
		c-12.66,6.4-25.38,12.83-37.12,20.85c-13.53,9.91-26.49,20.78-37.28,33.68c-16.35,19.93-29.09,42.69-38.25,66.76
		c-9.16,23.98-16.3,48.71-22.51,73.6c-9.1,43.14-13.84,87.02-20.29,130.6c-3.85,25.62-7.18,51.47-14.63,76.36
		c-5.81,20.2-13.77,39.67-20.3,59.63c-6.22,18.51-9.58,37.82-12.04,57.15c-1.97,15.58-3.18,31.25-3.43,46.95
		c-0.04,7.75-0.17,15.59,1.36,23.23c1.8,9.71,5.76,18.96,6.64,28.85c1.17,10.77-1.7,21.42-4.69,31.67
		c-3.81,12.66-8.42,25.06-12.21,37.73c-2.42,7.81-4,15.86-6.44,23.68c-3.95,12.99-8.56,26.04-8.86,39.77
		c-0.34,17.28,3.57,34.37,9.04,50.68c12.03,35.41,32.91,66.99,55.68,96.35c22.01,28.06,47,53.87,75.15,75.81
		c22.17,17.8,45.25,34.66,70.29,48.22h6.35c-11.62-6.53-23.23-13.11-34.23-20.65c-16.2-10.88-31.64-22.86-46.77-35.17
		c-29.28-23.64-54.79-51.69-77.18-81.87c-20.98-28.5-39.68-59.39-49.39-93.67c-4.82-17.5-7.91-36.12-3.98-54.1
		c2.54-11.93,7.07-23.32,9.9-35.17c3.12-13.33,7.76-26.22,12.04-39.2c4.59-14.56,10.15-29.57,8.4-45.09
		c-1.26-12.5-7.22-24.09-7.6-36.73c-0.54-7.54-0.37-15.11,0-22.65c0.12-10.47,1.22-20.9,2.25-31.31
		c2.42-20.35,5.43-40.76,11.74-60.32c6.98-22.08,15.99-43.48,22.16-65.82c5.92-20.3,9-41.25,12.17-62.11
		c6.48-43.18,11.43-86.61,19.37-129.56c2.47-13.77,6.29-27.23,10.13-40.66c4.74-16.49,9.94-32.86,16.32-48.78
		c9.07-22.96,21.61-44.61,37.46-63.55c9.49-11.2,20.81-20.66,32.45-29.54c8.6-6.39,18.05-11.5,27.47-16.54
		c21.97-11.45,44.5-21.8,67.18-31.74c2.08-1.29,4.56,0.57,6.64-0.38c6.21-4.36,10.37-10.96,16.2-15.77
		c5.04-4.93,11.55-7.93,18.34-9.58c21.37-5.87,43.28-9.45,64.92-14.17c15.79-3.82,32.53-3.52,47.62-10.11
		c0.97,9.99,2.18,19.97,3.98,29.85c6.65,28.42,15.12,56.38,22.37,84.65c12.3,46.31,22.55,93.12,33,139.88
		c5.23,24.6,10.94,49.14,14.83,74.01c1.61,7.59-3.87,13.82-8.11,19.41c-5.57,8.6-14.56,14.15-20.48,22.47
		c-3.5,4.55-5.63,10.01-6.58,15.65c-2.35,12.4-1.74,25.47,2.46,37.42c3.53,10.06,10.6,18.47,18.63,25.31
		c12.07,10.21,27.38,17.42,43.42,17.33c17.57-0.93,34.27-8.95,47.51-20.28c8.64-7.26,13.96-18.14,14.48-29.4
		c0.47-10.77-1.06-21.78-5.27-31.74c-5.79-12.99-14.86-24.2-24.52-34.51c-5.65-6.15-13.59-9.16-20.59-13.37
		c-9.18-5.59-14.21-15.76-17.2-25.71c-2.52-8.86-4.98-17.73-7.39-26.61c-7.41-31.55-13.68-63.36-21.04-94.92
		c-11.75-51.83-27.11-102.72-41.12-153.96c-4.42-15.27-6.56-31.14-7.63-46.96c1.51-3.8,5.28-6.14,7.97-9.09
		c17.69-17.69,36.76-35.46,46.25-59.18c55.9,68.26,111.59,136.69,167.88,204.64c10.94,13.03,21.54,26.39,33.49,38.53
		c14.21,14.8,30.08,28.06,42.83,44.23c3.86,5.24,8.4,10.25,10.37,16.59c2.8,8.12,8.3,14.83,13.4,21.59
		c3.6,5.33,6.16,11.28,9.06,17.01c5.49,9.77,4.14,21.57,8.73,31.69c-8.05-0.63-14.2-6.59-20.73-10.71
		c-0.43,0.65-1.28,1.96-1.71,2.62c4.53,3.17,9.06,6.4,13.99,8.96c3.41,2.21,7.43,2.27,11.29,1.44c6.05,0.57,10.24-4.56,14.51-8.01
		c14.86-13.82,28.35-29.02,41.83-44.16c11-12.07,20.85-25.15,32.26-36.85c4.75-5.12,9.12-11.34,9.39-18.57
		c0.18-4.57-2.44-8.57-4.64-12.35c-7.21-11.3-16.22-21.33-23.41-32.64c-2.19-3.64-4.63-7.47-4.83-11.82
		c0.77-3.5,5.07-3.32,7.87-3.26c10.74,0.63,21.06,4.11,31.7,5.55c5.49,0.6,11.5,1.43,16.61-1.2c3.72-1.89,4.71-6.43,4.67-10.26
		c-0.07-8.75-2.21-17.32-4.31-25.77c-3.79-14.35-8.54-28.42-13.62-42.36c-2.79-7.47-5.4-15.03-9.09-22.11
		c14.35,13.72,27.87,28.31,41.64,42.62c27.81,29.56,55.43,59.31,82.14,89.87c9.52,10.62,17.81,22.23,26.25,33.71
		c4.14,5.99,8.43,13.12,6.7,20.71c-2.26,7.3-9.28,11.46-13.38,17.58c-3.75,5.27-5.36,11.65-7.35,17.71
		c-3.89,12.98-5.91,26.88-3.26,40.31c2.54,10.31,6.99,20.02,11.42,29.63c6.82,14.11,13.82,28.26,22.78,41.16
		c1.63,2.95,4.94,3.76,8.06,4.07c2.57,9.27,7.57,17.56,11.64,26.21c2.63,5.66,5.75,11.1,8.21,16.84c0.95,6.7,1.04,13.51,1.61,20.26
		c-34.4,0.66-68.74,2.94-103.08,4.82c-13.37,0.71-26.21,4.86-39.46,6.38c-5.3,0.61-11.62,0.05-15.15-4.48
		c-4.45-5.69-4.56-13.3-5.77-20.12c-1.13-9.45-4.85-18.26-7.83-27.21c-7.81-22.57-15.6-45.14-23.45-67.7
		c-0.73-0.02-2.18-0.06-2.9-0.08c0.38,1.9,0.84,3.8,1.48,5.65c7.33,21.03,14.61,42.08,21.87,63.14c2.85,8.62,6.49,17.08,7.64,26.17
		c1.28,7.66,1.53,16.2,6.76,22.45c3.98,4.79,10.64,5.97,16.56,5.42c13.15-1.22,25.83-5.54,39.04-6.33
		c34.8-2.17,69.62-3.99,104.46-5.14c2.57,43.79,5.1,87.69,3.39,131.57c-0.61,10.75-1.41,21.67-5.07,31.9
		c-7.69,23.18-22.51,42.92-36.06,62.92c-11.9,17.03-15.85,37.84-23.65,56.76c-6.97-2-13.9-4.1-20.86-6.1
		c-0.9,0.81-1.79,1.65-2.67,2.5c16.56,4.84,33.14,9.66,49.63,14.76c18.03,5.69,36.3,10.64,54.19,16.77c0.24-0.73,0.72-2.2,0.96-2.93
		c-16.7-5.92-33.87-10.35-50.72-15.81c7.45-6.74,15.43-12.85,23.46-18.88c-1.16-0.46-2.29-0.9-3.42-1.32
		c-8.1,6.1-16.14,12.33-23.58,19.23c-5.41-1.77-10.87-3.37-16.31-5c2.54-8.04,5.57-15.93,9.21-23.53c-0.65-0.43-1.94-1.3-2.59-1.73
		c-3.95,7.78-6.83,16.04-9.83,24.22c-1.27-0.34-2.55-0.67-3.8-0.94c3.86-13.08,8.21-26.03,13.25-38.7
		c2.65-7.17,6.68-13.7,10.99-19.97c13.7-20.02,28.3-40.09,35.54-63.54c3.31-10.05,3.77-20.68,4.64-31.13
		c0.8-20.32,0.47-40.65-0.03-60.98c-1.03-28.36-2.71-56.7-4.34-85.02c13.16,25.37,25.9,50.98,39.42,76.18
		c9.73,18.07,19.39,36.22,30.43,53.55c4.9,7.87,11.16,14.77,17.67,21.33c13.44,13.38,28.2,25.4,43.66,36.36
		c4.35,2.88,8.64,6.56,14.08,6.98c2.97,0.23,6.66,0.33,8.78-2.18c1.3-3.72-0.82-7.68-3.35-10.33c-2.97-2.6-7.24-2.27-10.86-3.18
		c-5.8-0.78-9.87-5.34-14.15-8.86c-13.47-11.81-26.6-24.02-39.27-36.69c-7.58-7.43-13.08-16.61-18.18-25.83
		c-9.54-16.06-16.63-33.39-24.91-50.1c-18.06-37.88-36-75.82-54.1-113.68c-1.09-1.89,0.61-3.97,0.09-5.95
		c-1.4-5.02-4.15-9.52-6.42-14.16c-0.72,0.74-1.41,1.5-2.1,2.27c2.05,4.44,5.21,8.64,5.55,13.66c-1.43,3.14-4.89,4.62-8.02,5.47
		c-2.44,0.53-5.71,1.25-7.36-1.2c-3.86-4.71-6.68-10.17-9.74-15.4c-6.39-11.2-12.07-22.79-17.27-34.59
		c-3.02-7.26-6.32-14.53-7.63-22.32c-1.59-11.86-0.3-23.99,3.1-35.43c2.26-7.49,4.29-15.44,9.7-21.37
		c4.58-5.52,11.13-10.38,11.96-18.03c0.65-8.07-3.87-15.35-8.36-21.67c-6.36-8.31-12.19-17.02-18.97-24.99
		c-22.27-26.3-45.84-51.46-69.16-76.82c-23.68-25.32-47.51-50.52-72.44-74.63c-14.56-13.54-29.88-26.22-45.06-39.04
		c2.8-4.07,5.8-8,9.09-11.69c7.29,5.2,14.08,11.06,21.12,16.6c8.91,7.79,18.5,14.77,27.34,22.66c19.26,15.98,36.84,33.83,54.22,51.8
		c14.26,15.46,28.02,31.36,41.94,47.12c25.19,29.24,48.38,60.12,73.23,89.64c3.98,4.31,7.48,9.31,12.53,12.46
		c6.36,2.25,12.87-1.42,19.35-1.1c15.81,1.04,32.32,4.6,44.76,15.02c14.52,12.36,26.36,27.64,35.97,44.06
		c7.44,12.51,14.39,25.34,20.43,38.59c0.71,2.29,2.62,5.33,0.45,7.39c-1.93,2.14-5.06,4.64-8.05,3.47
		c-3.72-3.22-5.74-7.87-8.37-11.93c-0.6,0.38-1.81,1.14-2.42,1.52c3.07,4.8,5.62,10.14,10.09,13.87c2.05,1.75,2.97,4.38,4.19,6.73
		c13.27,26.87,26.44,53.8,39.08,80.97c9.98,21.27,19.12,42.91,28.55,64.42c7.93,18.67,16.09,37.29,22.47,56.57
		c5.92,16.97,5.62,35.35,3.72,53c-0.84,7.77-2.84,15.74-7.73,22c-2.55,3.27-7.43,3.79-9.56,7.43c-1.18,3.15-1.11,8.3,2.8,9.47
		c4.28,1.03,10.69,0.71,12.26-4.31c7.12-21.13,13.92-43.03,13.23-65.56c-1.56-18.05-8.56-35.01-14.96-51.77
		c-8.51-21.34-17.75-42.38-26.26-63.72c-17.07-40.95-35.76-81.21-54.44-121.44c-0.84-3.44-1.09-7.07-2.81-10.25
		c-8.08-17.38-17.44-34.18-27.92-50.23c-9.2-12.84-19.23-25.47-32.09-34.85c-12.44-9.24-28.18-12.27-43.31-13.4
		c-5.74-0.48-11.16,2.68-16.88,1.88c-4.11-1.13-6.41-5.19-9.3-8.02c-24.81-28.99-47.72-59.54-72.41-88.63
		c-22.68-25.9-45.02-52.19-69.8-76.15c-14.05-13.86-29.11-26.63-44.2-39.33c-0.86-0.73-1.73-1.46-2.56-2.17
		c16.84-0.7,33.72-0.74,50.56,0.06c12.75,0.08,25.33,2.65,37.55,6.12c14.6,4.24,27.92,11.97,40.24,20.74
		c14.27,10.58,26.35,23.94,36.72,38.29c20.09,30.68,36.04,63.9,56.87,94.12c13.26,19.24,27.34,37.89,41.53,56.45
		c4.25,5.75,9.15,11.06,12.68,17.32c30.26,49.64,60.09,99.56,89.15,149.91c19.78,34.41,39.32,68.97,57.74,104.13
		c9.76,18.9,19.53,37.85,27.52,57.59c4.82,11.56,7.45,23.86,10.08,36.06c5.31,25.38,6.75,51.49,5.04,77.34
		c-1.28,21.37-4.08,42.61-6.62,63.86c-3.02,22.26-8.26,44.15-13.91,65.88c-11.42,43.32-25.23,85.98-39.66,128.38
		c-2.87,8.44-3.96,17.4-7.34,25.67c-2.92,7.15-8.28,13.06-14.5,17.53c-13.68,9.92-30.15,15.09-46.55,18.37
		c-0.54,1.14-1.06,2.3-1.57,3.49c15.57-2.75,30.82-7.68,44.59-15.52c-0.32,9.22-0.79,18.44-1.08,27.67
		c-0.23,8.29-0.62,16.58-0.85,24.87c0.04,2.36-0.06,4.74-0.16,7.12c-0.29,10.96-0.59,21.92-0.84,32.89
		c0.06,14.23-0.37,28.47,0.21,42.7h3.27c-0.94-19.64-0.28-39.33,0.15-58.97c0.55-22.01,1.18-44.01,2.11-66
		c0.38-4.17-0.17-8.45,0.69-12.54c5.08-3.91,10.21-7.98,13.72-13.44c6.37-9.26,7.33-20.77,10.67-31.22
		c18.22-54.17,36.11-108.6,48.48-164.45c5.01-21.86,7.25-44.19,9.78-66.43C1441.542,1481.36,1443.282,1455.5,1440.792,1429.81z
		 M377.982,833.42c-0.98-1.72-0.75-4.11,0.07-5.83C379.262,828.62,379.492,832.53,377.982,833.42z M377.482,866.94
		c2.09-4.45,5.93-7.73,10.11-10.16C384.872,860.74,381.612,864.41,377.482,866.94z M390.402,823.22c-1.41-3.21-1.43-7.2,0.01-10.39
		C390.922,816.27,390.922,819.77,390.402,823.22z M1167.762,1191.84c17.93,37.74,35.89,75.47,53.82,113.22
		c8.63,17.38,16.03,35.41,25.96,52.13c4.93,8.75,10.11,17.55,17.31,24.66c13.05,13.31,26.8,25.93,40.79,38.24
		c4.09,3.33,7.91,7.5,13.23,8.77c3.48,1.01,7.23,0.9,10.62,2.27c2.06,1.8,3.8,4.58,3.19,7.45c-3.94,0.46-8.22,0.38-11.59-1.97
		c-11.82-7.6-22.87-16.32-33.57-25.4c-13.94-12.08-27.63-25.02-36.85-41.19c-20.75-34.65-38.92-70.76-57.33-106.68
		c-9.9-19.5-19.64-39.07-29.24-58.72c-1.48-2.98-2.23-6.23-3.22-9.38C1163.262,1194.28,1165.552,1193.14,1167.762,1191.84z
		 M898.492,778.97c-0.97,8.42-2.69,16.74-3.45,25.19c-1.99-3.75-1.64-8.31-3.05-12.29C896.552,789.17,896.312,783.25,898.492,778.97
		z M861.162,802.57c-2.91-6.89-5.38-14.09-9.71-20.24c-0.77-1.16-0.92-2.59-1.26-3.88c-4.44-21.37-8.2-43.05-8.13-64.93
		c4.86-0.37,11.72-2.85,14.83,2.33c7.27,10.84,13,22.64,18.47,34.47c7.95,17.03,12.39,35.4,16.03,53.76
		c1.14,7.15,2.54,14.34,2.79,21.58c-10.2,45.18-21.17,90.2-30.99,135.48c-4.87-4.75-8.98-10.25-12.68-15.93
		c-6.14-9.91-6.49-21.87-7.68-33.12c-0.49-6.49-0.47-13.77,3.89-19.07c5.19-6.12,6.31-14.28,8.27-21.78
		c3.49-13.74,5.85-27.74,9.42-41.46C866.652,820.61,864.652,811.13,861.162,802.57z M841.842,708.49c1.41,0.15,1.65,0.81,0.73,1.98
		C841.152,710.3,840.902,709.64,841.842,708.49z M848.422,709.32c2.1-1.89,4.42-3.55,7.04-4.63c0.09,1.8,0.15,3.61,0.22,5.43
		C853.272,709.74,850.842,709.48,848.422,709.32z M859.802,714.45c2-2.1,3.59-4.53,5.5-6.7c0.45,5.71,0.16,11.46,0.85,17.16
		C864.062,721.4,862.042,717.86,859.802,714.45z M885.462,461.31C888.802,461.21,883.662,464.3,885.462,461.31L885.462,461.31z
		 M879.882,464.86c-2.25-2.49-5.04-4.74-6.22-7.98c-0.61-2.73,1.56-4.84,3.12-6.77c1.58,0.87,3.17,1.74,4.75,2.65
		c2.3-0.77,4.72-0.98,7.14-0.81C888.452,457.68,884.022,461.55,879.882,464.86z M887.462,722.66c0.48,3.3,0.89,6.62,1.2,9.95
		c-3.14-0.98-5.64-4.47-9.1-3.8c-0.06,0.51-0.17,1.53-0.23,2.04c2.92,2.06,6.07,3.77,9.19,5.53c0.85,14.91,0.9,29.87,0.96,44.8
		c-4.17-16.66-10.83-32.57-18.83-47.73C877.532,732.09,881.132,725.11,887.462,722.66z M865.862,312.9c1.7-1.12,3.02,0.79,4.15,1.81
		c4.22,4.6,7.57,9.91,10.82,15.22c3.67,6.22,6.97,12.86,7.98,20.1c2.23,16.67,4.03,33.42,4.91,50.22
		c-4.87-11.07-11.38-21.28-17.49-31.67c-1.49-7.56-1.77-15.41-4.42-22.73c-3.48-9.38-8.96-17.83-13.46-26.72
		C860.682,316.87,862.902,314.36,865.862,312.9z M854.582,371.06c0.08-5.09-0.91-10.11-1.6-15.13
		c13.23,22.73,27.87,44.72,39.53,68.34c4.99,9.52,1.71,20.65-2.18,29.94c-0.32-1.26-0.78-2.43-1.4-3.52
		c-2.26-1.37-4.9-0.22-7.22,0.31c-1.82-0.86-3.62-2.58-5.77-1.95c-2.63,2.22-5.39,6.34-3.11,9.69c1.74,3.03,4.32,5.46,6.81,7.88
		c1.88-1.32,3.66-2.79,5.6-4.03c-1.5,3.25-4,5.93-6.68,8.25c-2.23,2-5.3,0.61-7.82,0.13c-2.6-22.03-6.11-43.95-10.36-65.71
		c-1.98-9.39-3.63-18.93-7.12-27.9C851.842,375.11,854.842,373.35,854.582,371.06z M849.094,330.822
		c0,0.129,0.013,0.259,0.037,0.388C849.107,331.081,849.094,330.951,849.094,330.822z M518.832,573.93
		c-6.93-1.81-13.02-6.03-18.11-10.95c-4.83-7.58-8.2-16.1-13.8-23.2c-2.97-3.69-7.02-6.34-9.97-10.05
		c-2.82-3.57-3.76-8.15-4.71-12.48c-1.93-9.15-3.1-18.7-7.79-26.96c-5.62-9.85-11.87-19.33-18.54-28.49
		c-4.05-5.51-5.78-13.62-2.14-19.72c3.36-3,8.47-1.95,12.62-1.99c4.05,10.09,8.55,20.01,13.47,29.71c1.74,3.08,3.22,6.67,6.46,8.48
		c4.55,2.6,10.72,4.19,15.25,0.69c5.41,17.59,10.92,35.2,18.06,52.18c5.78,12.49,14.11,23.54,22.01,34.74
		C528.162,569.44,524.602,575.15,518.832,573.93z M643.342,1170.39c7.56,3.69,12.97,10.3,18.29,16.6
		c5.84,7.08,11.2,14.64,15.16,22.96c3.6,7.46,5.02,15.75,5.76,23.95c0.77,9.29-0.93,19.02-6.1,26.91
		c-3.88,5.99-9.58,10.51-15.4,14.52c-10.02,6.58-21.37,11.57-33.36,12.92c-14.85,1.64-29.53-4.25-41.32-12.94
		c-9.29-7.03-17.67-15.97-21.75-27.06c-2.86-8.1-3.95-16.78-3.62-25.34c0.56-7.84,1.39-16.1,5.76-22.86
		c4.6-7.23,11.48-12.5,17.29-18.65c4.38-5.06,8-10.71,12.03-16.02c7.59-6.52,18.15-7.01,27.43-9.54
		C628.512,1162.61,635.952,1166.73,643.342,1170.39z M543.632,854.17c13.07,48.83,27.82,97.22,39.61,146.38
		c7.79,32.9,14.67,66,21.98,99.01c2.61,12.26,6.3,24.24,9.56,36.33c1.55,5.99,4.25,11.57,6.96,17.11
		c-8.06,2.65-16.87,3.19-24.23,7.75c0.18-8.29-1.89-16.37-3.24-24.49c-9.37-47.16-20.15-94.03-31-140.87
		c-9.96-43.16-22.1-85.76-33.5-128.55c-3.9-13.94-5.32-28.41-6.76-42.76c5-2.86,10.02-5.7,14.65-9.13
		C539.282,828.07,540.412,841.32,543.632,854.17z M593.652,673.07c-13.9-7.64-24.49-20.24-31.79-34.14
		c-9.93-19.2-18.19-39.29-23.98-60.13c-1.3-4.07-2-8.34-3.69-12.27c-7.03-9.45-14.02-18.99-19.75-29.3
		c-4.89-8.72-7.97-18.27-11.34-27.64c-3.99-11.17-7.22-22.59-11.19-33.75c-1.55-11.6-2.95-23.23-3.71-34.91
		c-0.11-5.52-0.49-11.73,3.02-16.39c3.93-5.09,10.34-7.68,13.84-13.17c3.66-5.74,3.64-12.9,2.68-19.41
		c-0.95-6.13-1.26-12.38-0.81-18.57c-0.49-8.61-0.72-17.28,0.04-25.88c-0.32-3.2,0.42-6.38,0.76-9.55
		c2.59-16.66,4.8-33.9,13.07-48.9c9.28-16.91,23.04-31.5,39.96-40.89c13.67-8.11,29.84-10.17,45.4-11.54
		c6.17-0.32,12.36-1.54,18.54-0.59c21.28,2.52,43.12,4.3,63.02,12.88c18.25,7.84,34.84,19.22,49.7,32.33
		c25.14,22.68,51.4,44.1,78.19,64.81c4.15,2.91,8.14,6.12,12.69,8.41c3.4,1.86,7.33,0.8,10.98,0.55
		c5.36,11.09,11.59,21.95,14.35,34.06c5.17,22.1,8.85,44.52,12.02,66.99c2.29,15.58,3.34,31.32,6.08,46.84
		c3.22,19.49,7.77,39.27,4.97,59.11c-2.51,18.72-10.86,35.96-19.15,52.71c-14.55,27.87-31.76,54.74-54.05,77.09
		c-12.94,12.78-27.94,24.48-45.76,29.35c-18.34,4.6-37.56,1.83-55.7-2.4C663.762,709.33,628.152,691.74,593.652,673.07z
		 M598.652,679.39c0.63,0.29,1.9,0.86,2.54,1.15c3.66,15.58,8.14,30.98,11.69,46.6c-4.6,0.44-9.25,0.75-13.71,2.04
		C601.302,712.65,600.452,695.91,598.652,679.39z M751.202,931.49c-28.06-33.94-55.94-68.03-83.86-102.09
		c-23.7-28.82-47.08-57.9-70.94-86.58c0.53-2.64,1.11-5.26,1.68-7.87c20.65,22.85,43.05,44.05,63.93,66.69
		c22.82,24.91,45.05,50.35,67.4,75.69c7.92,9.03,15.62,18.35,24.69,26.29c5.62,5.36,12.38,10.5,14.61,18.29
		c1.85,8.84-1.28,17.67-3.44,26.16C760.172,942.91,755.912,936.99,751.202,931.49z M847.132,1038.21
		c-4.46-5.41-8.6-11.11-13.4-16.24c-13.58-14.75-28.83-27.87-42.3-42.73c-8.3-9.17-16.17-18.73-24.03-28.27
		c2.97-9.17,5.98-18.82,4.63-28.55c-1.8-9.02-9.44-15.05-15.78-21.03c-7.89-6.76-14.56-14.73-21.38-22.52
		c-31.92-36.04-63.18-72.74-97.07-106.97c-7.02-7.31-14.33-14.33-21.2-21.76c-2.56-7.62,1.86-15.83-0.54-23.54
		c-3.5-14.71-7.42-29.32-11.21-43.95c29.95,15.61,60.85,30.02,93.67,38.48c16.98,4.32,34.72,7.01,52.23,4.68
		c16.31-2.29,30.93-10.98,43.46-21.3c19.69-16.38,35.3-37.03,49.14-58.43c-1.69,15.27-2.75,30.6-3.77,45.93
		c-0.1,0.39-0.29,1.17-0.39,1.57c-0.2,12.26-0.52,24.55,0.02,36.82c1.52,8.69,2.01,17.56,3.66,26.25
		c4.28,24.09,9.35,48.18,17.92,71.15c0.42,0.88,0.5,1.8,0.24,2.76c-4.43,17.41-7.25,35.21-12.35,52.46
		c-1.59,6.08-7.36,10.06-8.39,16.37c-1.48,8.47-0.19,17.11,0.76,25.58c0.83,7.37,2.58,14.81,6.43,21.24
		c4.14,6.83,9.49,12.79,14.65,18.86c-2.28,11.47-4.87,22.88-8.06,34.14C850.692,1011.96,846.732,1024.86,847.132,1038.21z
		 M971.172,847.51c5.24,7.03,10.23,14.46,13.21,22.79c7.9,20.81,15.5,41.85,20.26,63.64c1.06,6.35,2.82,12.96,1.3,19.37
		c-0.98,3.97-5.77,4.59-9.18,4.71c-11.92-0.29-23.35-4.2-35.1-5.82c-3.83-0.41-7.85-0.91-11.57,0.36c-2.98,0.96-4.92,4.19-4.33,7.28
		c0.96,5.53,4.21,10.29,7.22,14.92c6.94,10.29,15.17,19.68,21.8,30.18c2.19,3.79,4.89,8.11,3.44,12.68
		c-2.26,9.67-10.73,15.8-16.83,23.04c-16.35,19.6-33.17,38.82-50.78,57.3c-6.12,6.22-12.18,12.53-18.9,18.11
		c-2.06,1.57-4.19,3.52-6.95,3.48c0.53-11.17-5.68-20.89-8.29-31.4c-2.43-8.65-9.14-15.01-13.01-22.93
		c-3.76-7.05-8.3-13.67-12.1-20.68c-2.2-9.03-0.62-18.46,1.35-27.39c3.29-14.2,7.83-28.09,10.61-42.41
		c0.68-4.51,2.57-8.73,2.93-13.29c5.06-23.12,10.47-46.16,15.76-69.23c5.23-22.11,10.03-44.36,15.63-66.36
		c7.72-5.78,12.14-14.58,18.03-21.97c-1.3,4.15-4.15,7.74-4.93,12.04c0.92,3.03,5.22,2.53,7.63,1.76c3.46-2.12,5.74-5.65,8.51-8.54
		C941.902,821.63,956.902,834.16,971.172,847.51z M967.842,815.26c-9.34-7.59-18.68-15.17-28.23-22.5
		c2.43-3.47,4.73-7.03,7.03-10.59c6.24,6.38,12.28,12.96,18,19.82c1.48,1.92,3.23,3.76,4.05,6.1
		C969.022,810.51,968.382,812.91,967.842,815.26z M1291.182,1141.94c17.86,38.85,35.99,77.6,52.52,117.05
		c7.15,17.74,14.58,35.38,21.96,53.03c7.26,17.98,14.96,35.95,19.15,54.96c3.31,14.51,0.64,29.45-2.39,43.76
		c-1.21,4.59-2.02,9.34-3.92,13.72c-1.2,5.81-3.59,11.38-5.3,17.07c-0.98,3.08-4.89,2.67-7.43,2.54c-2.79-0.03-2.56-3.9-1.58-5.57
		c2.29-2.15,5.51-3,7.79-5.2c3.05-2.86,4.46-6.9,6.48-10.45c1.27-4.94,2.62-9.91,3.11-15.02c1.66-15.62,2.03-31.69-1.84-47.02
		c-4.92-17.17-12-33.61-18.83-50.08c-16.52-38.7-33.39-77.25-51.95-115.03c-7.96-16.58-16.08-33.09-24.33-49.54
		C1286.922,1144.94,1289.062,1143.46,1291.182,1141.94z"/>
	<path fill="#2F2F2F" stroke="#2F2F2F" stroke-width="0.5" d="M378.052,827.59c1.21,1.03,1.44,4.94-0.07,5.83
		C377.002,831.7,377.232,829.31,378.052,827.59z"/>
	<path fill="#1E1E1E" stroke="#1E1E1E" stroke-width="0.5" d="M377.482,866.94c2.09-4.45,5.93-7.73,10.11-10.16
		C384.872,860.74,381.612,864.41,377.482,866.94z"/>
	<path fill="#FBFCFD" stroke="#FBFCFD" stroke-width="0.5" d="M645.562,932.22c9.01-0.31,18.05-0.33,27.06,0.02
		c-0.31,0.34-0.93,1.02-1.24,1.36c-7.78-0.83-15.63-0.65-23.41,0.05C647.372,933.29,646.162,932.58,645.562,932.22z"/>
	<path fill="#010104" stroke="#010104" stroke-width="0.5" d="M647.972,933.65c7.78-0.7,15.63-0.88,23.41-0.05
		c4.33,0.73,8.86,1.55,12.53,4.14c3.56,2.54,5.49,6.87,5.76,11.16c0.62,8.19-1.9,16.15-4.22,23.9c-3.44,11.27-7.93,22.38-9.07,34.2
		c-0.7,6.7,0.27,14.12,5.05,19.22c6.49,7.04,15.82,10.37,24.69,13.28c23.14,7,47.31,10.03,70.24,17.78
		c12.15,3.95,23.5,9.99,34.24,16.86c17.17,10.87,33.12,23.51,49.55,35.44c-0.43,0.65-1.28,1.96-1.71,2.62
		c-13.39-9.58-26.3-19.82-39.92-29.07c-13.26-9.03-27.09-17.59-42.42-22.62c-23.41-8-48.14-10.98-71.74-18.25
		c-9.06-3.02-18.48-6.62-25.12-13.77c-5.14-5.41-6.75-13.24-6.16-20.48c0.97-12.02,5.33-23.37,8.9-34.78
		c2.25-7.24,4.61-14.63,4.72-22.28c0.04-4.84-2.18-10.18-6.98-12c-6.32-2.52-13.3-2.61-20.02-2.75
		c-28.22,0.98-55.97,6.89-83.39,13.26c-1.61,0.78-2.03-1.21-2.78-2.16c7.42-2.59,15.23-3.84,22.88-5.6
		C613.442,938.14,630.622,935.13,647.972,933.65z"/>
	<path fill="#010306" stroke="#010306" stroke-width="0.5" d="M1183.322,1048.49c8.2-0.59,16.39,1.58,23.74,5.13
		c7.39,3.56,14.65,7.7,20.59,13.43c7.13,6.92,13.45,14.61,19.57,22.42c9.37,13.26,17.31,27.46,25.5,41.46
		c-0.6,0.38-1.81,1.14-2.42,1.52c-6.04-10-11.78-20.17-17.98-30.06c-6.63-11.03-14.98-20.92-23.72-30.31
		c-6.8-7.29-15.43-12.54-24.47-16.55c-15.45-7.2-34.67-4.36-48.16,5.74c-8.83,6.6-14.21,16.87-16.45,27.51
		c-1.9,9.19-2.54,18.79-0.68,28.03c1.76,7.03,4.91,13.6,7.99,20.13c5.55,11.5,11.75,22.67,17.68,33.99c-0.72,0.74-1.41,1.5-2.1,2.27
		c-8.19-15.55-16.84-30.91-23.74-47.09c-4.28-9.85-4.6-20.87-3.25-31.37c1.52-13.05,7.01-26.1,17.28-34.64
		C1161.172,1052.78,1172.322,1049.39,1183.322,1048.49z"/>
	<path fill="#FCF7F3" stroke="#FCF7F3" stroke-width="0.5" d="M1284.622,1146.16c2.3-1.22,4.44-2.7,6.56-4.22
		c17.86,38.85,35.99,77.6,52.52,117.05c7.15,17.74,14.58,35.38,21.96,53.03c7.26,17.98,14.96,35.95,19.15,54.96
		c3.31,14.51,0.64,29.45-2.39,43.76c-1.21,4.59-2.02,9.34-3.92,13.72c-0.01-0.4-0.03-1.2-0.04-1.61c1.27-4.94,2.62-9.91,3.11-15.02
		c1.66-15.62,2.03-31.69-1.84-47.02c-4.92-17.17-12-33.61-18.83-50.08c-16.52-38.7-33.39-77.25-51.95-115.03
		C1300.992,1179.12,1292.872,1162.61,1284.622,1146.16z"/>
	<path fill="#96B6E7" stroke="#96B6E7" stroke-width="0.5" d="M596.082,1165.38c7.59-6.52,18.15-7.01,27.43-9.54
		c5,6.77,12.44,10.89,19.83,14.55c7.56,3.69,12.97,10.3,18.29,16.6c5.84,7.08,11.2,14.64,15.16,22.96
		c3.6,7.46,5.02,15.75,5.76,23.95c0.77,9.29-0.93,19.02-6.1,26.91c-3.88,5.99-9.58,10.51-15.4,14.52
		c-10.02,6.58-21.37,11.57-33.36,12.92c-14.85,1.64-29.53-4.25-41.32-12.94c-9.29-7.03-17.67-15.97-21.75-27.06
		c-2.86-8.1-3.95-16.78-3.62-25.34c0.56-7.84,1.39-16.1,5.76-22.86c4.6-7.23,11.48-12.5,17.29-18.65
		C588.432,1176.34,592.052,1170.69,596.082,1165.38 M624.072,1184.45c-7.13,1.31-14.61,3.78-19.13,9.83
		c-6.17,8.44-9.52,19.41-7.34,29.83c1.04,7.15,5.35,13.75,11.76,17.21c8.81,4.79,19.07,8.04,29.17,6.38
		c8.74-2.28,15.95-8.51,21.41-15.5c3.43-4.25,4.59-9.94,3.64-15.25c-1.41-8.22-4.17-16.65-10.05-22.79
		c-4.59-4.94-11.38-6.68-17.63-8.44C632.032,1184.87,628.032,1183.2,624.072,1184.45z"/>
	<path fill="#000309" stroke="#000309" stroke-width="0.5" d="M624.072,1184.45c3.96-1.25,7.96,0.42,11.83,1.27
		c6.25,1.76,13.04,3.5,17.63,8.44c5.88,6.14,8.64,14.57,10.05,22.79c0.95,5.31-0.21,11-3.64,15.25
		c-5.46,6.99-12.67,13.22-21.41,15.5c-10.1,1.66-20.36-1.59-29.17-6.38c-6.41-3.46-10.72-10.06-11.76-17.21
		c-2.18-10.42,1.17-21.39,7.34-29.83C609.462,1188.23,616.942,1185.76,624.072,1184.45 M625.102,1187.42
		c-6.67,1.13-13.81,3.28-17.98,9.02c-3.68,5.25-6.16,11.43-6.95,17.81c-0.63,8.49,1.36,18.35,8.95,23.34
		c7,4.46,15.26,7.1,23.55,7.49c7.95,0.48,14.96-4.42,20.4-9.72c4.19-4.02,8.27-9.22,7.63-15.39c-0.69-8.28-3.4-16.7-8.83-23.1
		c-4.01-4.76-10.31-6.34-16.03-8C632.342,1188.03,628.742,1186.65,625.102,1187.42z"/>
	<path fill="#607594" stroke="#607594" stroke-width="0.5" d="M625.102,1187.42c3.64-0.77,7.24,0.61,10.74,1.45
		c5.72,1.66,12.02,3.24,16.03,8c5.43,6.4,8.14,14.82,8.83,23.1c0.64,6.17-3.44,11.37-7.63,15.39c-5.44,5.3-12.45,10.2-20.4,9.72
		c-8.29-0.39-16.55-3.03-23.55-7.49c-7.59-4.99-9.58-14.85-8.95-23.34c0.79-6.38,3.27-12.56,6.95-17.81
		C611.292,1190.7,618.432,1188.55,625.102,1187.42z"/>
	<path fill="#FCF7F3" stroke="#FCF7F3" stroke-width="0.5" d="M1160.882,1195.24c2.38-0.96,4.67-2.1,6.88-3.4
		c17.93,37.74,35.89,75.47,53.82,113.22c8.63,17.38,16.03,35.41,25.96,52.13c4.93,8.75,10.11,17.55,17.31,24.66
		c13.05,13.31,26.8,25.93,40.79,38.24c4.09,3.33,7.91,7.5,13.23,8.77c3.48,1.01,7.23,0.9,10.62,2.27c2.06,1.8,3.8,4.58,3.19,7.45
		c-3.94,0.46-8.22,0.38-11.59-1.97c-11.82-7.6-22.87-16.32-33.57-25.4c-13.94-12.08-27.63-25.02-36.85-41.19
		c-20.75-34.65-38.92-70.76-57.33-106.68c-9.9-19.5-19.64-39.07-29.24-58.72C1162.622,1201.64,1161.872,1198.39,1160.882,1195.24z"
		/>
	<path fill="#020202" stroke="#020202" stroke-width="0.5" d="M454.562,1247.89c0.33-1.71,1.93-2.25,3.49-2.15
		c-0.61,4.8-3.16,9.23-3.08,14.14c0.78,5.48,4.54,10.35,3.88,16.08c-0.85,5.99-2.99,11.71-4.55,17.55
		c-7.4,24.86-15.28,49.58-22.48,74.5c-1.72,6.32-3.71,12.59-4.89,19.05c-1.31,7.98,2.39,15.51,3.51,23.27
		c1.08,7.44-0.91,14.81-2.16,22.09c-6.85,36.08-15.26,71.87-21.2,108.11c-0.93,4.26-0.68,9.09,2.83,12.17
		c4.06,4.24,9.65,8.65,8.9,15.26c-1.26,10.4-7.16,19.68-7.98,30.21c-0.63,10.55,0.46,21.38,4.38,31.27
		c2.99,7.7,7.02,14.96,11.54,21.86c3.33-10.85,7.29-21.48,11.15-32.14c15.27-41.49,31-82.8,46.86-124.06
		c14.41-37.13,28.53-74.39,43.86-111.16c1.89-5.57,7.54-8.22,12.48-10.54c1.84-0.72,3.98-2.09,5.9-0.8
		c5.76,2.86,12.16,3.96,18.25,5.91c96.12,28.3,191.85,57.89,287.69,87.1c81.33,24.73,162.43,50.27,244.1,73.88
		c-0.9,0.81-1.79,1.65-2.67,2.5c-80.34-23.2-160.08-48.36-240.09-72.66c-85.58-26.16-171.13-52.39-256.86-78.05
		c-16.4-4.8-32.7-9.93-49.24-14.21c-4.53,11.84-9.45,23.53-13.98,35.38c-3.07,7.63-5.38,15.57-9.13,22.91
		c-1.62,3.81-4.07,8.14-2.39,12.33c6.32,3.19,13.24,5.02,19.89,7.43c43.49,14.54,87.28,28.17,131.03,41.92
		c168.8,52.73,337.94,104.4,507.09,156.01c10.18,2.94,20.21,6.46,30.49,9.03c8.1-17.65,16.5-35.33,21.52-54.15
		c1.05-4.73,2.52-10.23-0.38-14.59c-3.7-5.87-10.33-8.73-16.23-11.85c-5.77-3.07-11.68-5.91-17.9-7.97c0.24-0.73,0.72-2.2,0.96-2.93
		c3.5,1.23,6.97,2.55,10.44,3.89c6.9-3.37,14.24-5.72,21.53-8.06c12.47-4,25.67-4.28,38.62-4.97c1.69-0.07,3.38,0.18,5.07,0.45
		c-0.14,1.22-0.25,2.45-0.34,3.7c-18.64,4.59-37.37,8.85-55.99,13.5c6.43,3.52,13.76,6.95,17.23,13.83
		c2.39,4.45,1.4,9.66,0.39,14.35c-1.83,8.11-4.95,15.83-7.67,23.66c12.83-0.09,25.49-2.44,38.23-3.74c1.77-0.16,3.55-0.09,5.36,0
		c-0.6,1.08-1.01,2.47-2.42,2.7c-6.59,2.32-12.87,5.43-19.51,7.59c-5.86,1.96-12.21,2.26-17.79,5.03c-3.45,1.72-7,3.21-10.53,4.73
		c-3.8,6.66-6.46,13.96-10.05,20.76c-2.21,3.86-3.3,8.32-6.18,11.8c-4.15,6.3-8.11,12.73-12.15,19.11
		c7.68-3.06,15.87-4.41,23.86-6.38c20.25-4.65,40.51-9.29,60.72-14.08c5.01-0.79,8.97-4.18,13.69-5.75c-0.06,0.75-0.17,2.25-0.22,3
		c-7.11,5.39-16.1,6.45-24.49,8.57c-16.26,3.81-32.55,7.53-48.82,11.28c-8.63,2.12-17.52,3.48-25.66,7.19
		c-2.98,0.83-4.2,3.91-5.87,6.2c-1.81,2.74-3.63,5.49-5.36,8.29c25.16,1.33,50.33-0.33,75.49-0.5c16.31-0.55,32.66-0.88,48.88-2.9
		c6-0.87,12.2-1.55,17.74-4.19c5.69-3.05,10.21-7.86,14.09-12.94c0.77,0.05,2.31,0.15,3.08,0.19c-1.76,2.4-3.43,4.85-4.97,7.4
		c3.8-1.81,7.41-3.98,10.93-6.29c0.72,0.59,1.46,1.2,2.21,1.83c-4.7,3.09-9.56,5.91-14.45,8.68c-3.07,1.66-5.73,4.34-9.42,4.42
		c-15.98,5.01-32.87,5.44-49.46,6.35c-6.99,0.36-14,0.52-20.99,0.74c-6.3-0.07-12.6-0.06-18.88,0.3
		c-16.51,0.73-33.03,0.55-49.54,0.49c0.62,1.06,1.3,2.16,1.97,3.25c8.33,12.88,16.64,25.79,25.13,38.57
		c2.93,4.61,7.19,8.11,11.18,11.78c7.3,6.54,15.09,12.64,23.76,17.3c7.89,4.28,16.83,6.1,25.68,7.06c11.98,1,24.08,0.26,35.89-2
		c-0.54,1.14-1.06,2.3-1.57,3.49c-17.39,2.9-35.68,3.36-52.65-1.98c-11.33-3.88-21.08-11.17-30.14-18.8
		c-5.4-4.89-11.23-9.54-15.21-15.72c-9.2-13.89-18.19-27.9-27.24-41.87c-0.66-1.42-2.31-1.42-3.57-1.8
		c-9.65,13.9-19.08,27.97-29.09,41.62c-9.25,13.6-18.95,26.88-28.49,40.27c-3.02,3.26,0.53,7.87-1.36,11.54
		c-1.22,1.69-3.42,2.16-5.28,2.77c-12.25,3.16-25,3.01-37.56,3.05c1.14-0.94,2.3-1.85,3.47-2.73c7.38,0.04,14.74-0.55,22.11-0.93
		c2.41-0.44,5.49-0.14,7.16-2.27c26.24-36.53,52.34-73.2,77.4-110.57c5.36-8.92,11.82-17.22,16.36-26.6
		c-18.62-6.69-37.74-11.86-56.57-17.94c-198.43-61.17-396.87-122.29-595.17-183.9c-12.23-4.18-24.98-6.97-36.71-12.5
		c-3.39,7.54-5.68,15.52-8.69,23.21c-22.51,60.69-44.44,121.63-68.36,181.77c7.26,7.3,14.72,14.64,23.79,19.68
		c15.16,8.45,32.14,12.63,48.33,18.56c20.98,7.73,42.31,14.45,63.47,21.68c38.18,12.69,76.73,24.32,114.37,38.57
		c15.5,5.47,30.86,11.51,46.9,15.26c12.9,3.17,26.3,1.93,39.42,1.41c17.83-0.62,35.07,4.9,51.87,10.2c8.42,2.76,16.91,5.39,25,9.05
		c1.68,0.71,3.5,1.43,5.39,1.15c26.9-4.46,53.64-9.91,80.51-14.6c6.36-1.08,12.65-2.53,19.01-3.65c1.78,0.49,3.53,1.1,5.32,1.62
		c-20.67,4.51-41.6,7.76-62.35,11.85c-22.79,4.04-45.51,8.52-68.4,11.85c-1.4,12.76-0.77,25.66-2.3,38.41
		c-1.02,8.84-4.89,16.93-7.97,25.17c-3.19,8.09-2.76,16.93-3.65,25.44c-0.63,7.17-1.18,14.38-2.63,21.46h-3.06
		c2.03-12.01,2.67-24.18,3.69-36.3c0.59-8.44,4.58-16.03,7.4-23.85c6.07-16.2,3-33.84,5.53-50.62c0.9-4.81,5.02-7.94,8.55-10.89
		c-14.18-4.57-28.34-9.46-43.03-12.09c-8.96-1.62-18.11-1.5-27.16-0.91c-6.14,0.41-12.31,0.57-18.45,0.06
		c-6.5-0.56-12.91-1.85-19.19-3.56c-19.94-5.61-39.18-13.34-58.68-20.28c-55.09-19.37-111.2-35.79-166.04-55.89
		c-17.08-5.85-35.01-10.53-49.9-21.16c-8.2-5.66-15-12.99-22.04-19.96c-7.12-10.15-14.39-20.37-19.01-31.96
		c-4.94-11.12-6.12-23.5-5.31-35.53c0.89-8.14,4.24-15.69,6.68-23.43c1.01-3.42,2.1-7.34,0.23-10.66
		c-2.92-5.25-9.04-8.2-10.85-14.15c-0.9-4.55,0.24-9.18,0.89-13.68c6.58-38.45,15.76-76.41,22.48-114.84
		c1.8-8.36-1.88-16.38-3.26-24.48c-1.57-9.29,2.11-18.22,4.37-27.05c8.57-30.22,18.58-60.02,26.92-90.3
		c2.55-7.5-4.62-13.9-3.3-21.35C452.452,1253.95,453.342,1250.85,454.562,1247.89 M832.162,1806.85c5.91-1.09,11.91-1.73,17.79-3.02
		c-3.13-2.04-6.7-3.13-10.23-4.18C836.762,1801.51,833.532,1803.43,832.162,1806.85 M1113.582,1813.36
		c1.38-0.43,2.77-0.89,4.16-1.37c-0.05-1.42-0.09-2.81-0.12-4.18C1116.172,1809.58,1114.792,1811.41,1113.582,1813.36z"/>
	<path fill="#FFF6F1" stroke="#FFF6F1" stroke-width="0.5" d="M548.182,1377.07c16.54,4.28,32.84,9.41,49.24,14.21
		c85.73,25.66,171.28,51.89,256.86,78.05c80.01,24.3,159.75,49.46,240.09,72.66c16.56,4.84,33.14,9.66,49.63,14.76
		c18.03,5.69,36.3,10.64,54.19,16.77c6.22,2.06,12.13,4.9,17.9,7.97c5.9,3.12,12.53,5.98,16.23,11.85c2.9,4.36,1.43,9.86,0.38,14.59
		c-5.02,18.82-13.42,36.5-21.52,54.15c-10.28-2.57-20.31-6.09-30.49-9.03c-169.15-51.61-338.29-103.28-507.09-156.01
		c-43.75-13.75-87.54-27.38-131.03-41.92c-6.65-2.41-13.57-4.24-19.89-7.43c-1.68-4.19,0.77-8.52,2.39-12.33
		c3.75-7.34,6.06-15.28,9.13-22.91C538.732,1400.6,543.652,1388.91,548.182,1377.07z"/>
	<path fill="#FDFDFC" stroke="#FDFDFC" stroke-width="0.5" d="M1378.462,1422.85c0.01,0.41,0.03,1.21,0.04,1.61
		c-1.2,5.81-3.59,11.38-5.3,17.07c-0.98,3.08-4.89,2.67-7.43,2.54c-2.79-0.03-2.56-3.9-1.58-5.57c2.29-2.15,5.51-3,7.79-5.2
		C1375.032,1430.44,1376.442,1426.4,1378.462,1422.85z"/>
	<path fill="#040101" stroke="#040101" stroke-width="0.5" d="M1265.982,1468.3c8.16-6.37,17.29-11.53,26.95-15.22
		c4.05-1.8,8.39,0.52,11.41,3.22c1.96,1.68,3.86,4.71,1.92,7.14c-5.17,6.78-11.95,12.14-18.11,17.98
		c-6.98,5.87-11.89,13.94-19.75,18.79c10.28,2.25,18.78,8.85,26.7,15.43c6.92,6.63,13.55,14.34,15.96,23.84
		c1.2,4.56,4.47,8.18,8.18,10.95c5.19,3.85,10.22,7.96,15.86,11.16c9.63,5.71,19.28,11.74,27.01,19.94
		c11.02,11.69,14.7,28.19,15.99,43.73c0.83,9.54,0.34,19.13-0.1,28.69c-0.94,8.96-2.77,18.05-7.55,25.85
		c-4.9,8.84-13.58,14.55-21.76,20.04c-0.75-0.63-1.49-1.24-2.21-1.83c8.23-5.6,17.22-11.18,21.95-20.3
		c2.64-5.27,6.17-11.29,3.96-17.32c-3.84-12.44-7.84-24.94-13.68-36.59c-2.96,11.12-5.67,22.59-5.07,34.2
		c0.14,5.48,0.36,11.14-1.6,16.37c-2.95,7.91-6.45,15.73-11.52,22.53c-0.77-0.04-2.31-0.14-3.08-0.19
		c4.93-6.9,8.77-14.55,11.65-22.51c3.18-8.44,0.78-17.55,1.77-26.27c1.02-8.93,3.31-17.64,5.35-26.36c0.93-2.94-0.79-5.71-1.46-8.47
		c-2.19-6.77-0.66-14.45-4.42-20.74c-4.39-7.42-9.78-14.18-14.87-21.11c-3.84-4.81-7.06-10.28-12.17-13.88
		c-5.84-4.4-12.74-8.68-14.93-16.11c-2.62-10.22-9.83-18.55-17.66-25.27c-7.9-6.01-16.46-12.9-26.89-12.87
		c-6.02,0.62-11.46,3.57-16.84,6.13c-10.07,4.88-19.62,10.81-30,15.03c-7.76,3.19-16.22,1.22-24.31,1.55
		c-8.06,0.26-14.44,5.75-20.77,10.07c-1.16-0.46-2.29-0.9-3.42-1.32c4.57-3.49,9.39-6.63,14.35-9.53
		c-5.03-4.2-10.18-8.5-16.32-10.96c-10.49-3.64-24.11,0.51-28.71,11.19c-0.65-0.43-1.94-1.3-2.59-1.73
		c5.25-11.91,20.55-16.45,32.3-12.43c6.83,2.89,13.02,7.34,18.11,12.73c4.78-1.26,9.75-1.51,14.68-1.11
		c9.36-8.41,19.23-16.22,28.86-24.31C1241.452,1488.41,1253.532,1478.13,1265.982,1468.3 M1248.782,1486.17
		c-14.84,12.25-29.85,24.3-44.35,36.95c10.22,0.79,19.04-5.13,27.75-9.55c9.67-4.89,19.09-10.59,29.64-13.4
		c9.3-3.28,14.7-11.99,21.64-18.4c6.62-6.74,14.62-12.28,20.18-19.97c0.02-4.29-5.96-7.14-9.79-5.8
		C1276.472,1462.05,1262.732,1474.68,1248.782,1486.17 M1335.322,1565.55c3.24,4.94,7.05,9.5,10.44,14.35
		c4.65,6.62,10.26,13.36,10.49,21.87c0.12,11.63,6.13,21.91,10.16,32.51c3.26,7.22,5.12,14.96,8.07,22.29
		c0.74-10.15,1.25-20.36,0.45-30.51c-1.01-14.1-4.08-28.88-13.14-40.14C1354.482,1577.42,1345.062,1570.95,1335.322,1565.55z"/>
	<path fill="#F8FBFD" stroke="#F8FBFD" stroke-width="0.5" d="M107.732,1455.7c1.48,7.46,1.47,15.19,0,22.65
		C107.192,1470.81,107.362,1463.24,107.732,1455.7z"/>
	<path fill="#664A3C" stroke="#664A3C" stroke-width="0.5" d="M1248.782,1486.17c13.95-11.49,27.69-24.12,45.07-30.17
		c3.83-1.34,9.81,1.51,9.79,5.8c-5.56,7.69-13.56,13.23-20.18,19.97c-6.94,6.41-12.34,15.12-21.64,18.4
		c-10.55,2.81-19.97,8.51-29.64,13.4c-8.71,4.42-17.53,10.34-27.75,9.55C1218.932,1510.47,1233.942,1498.42,1248.782,1486.17z"/>
	<path fill="#281D19" stroke="#281D19" stroke-width="0.5" d="M506.762,1485.12c3.01-7.69,5.3-15.67,8.69-23.21
		c11.73,5.53,24.48,8.32,36.71,12.5c198.3,61.61,396.74,122.73,595.17,183.9c18.83,6.08,37.95,11.25,56.57,17.94
		c-4.54,9.38-11,17.68-16.36,26.6c-25.06,37.37-51.16,74.04-77.4,110.57c-1.67,2.13-4.75,1.83-7.16,2.27
		c-7.37,0.38-14.73,0.97-22.11,0.93c-7.59,0.15-15.23,0.41-22.74-0.94c4.68-4.73,12.32-5.19,16.45-10.68
		c4.3-6.04,5.86-13.72,6.12-21.01c0.18-8.78-5.38-17.04-13.4-20.48c-9.23-4.05-19.89-7.06-29.83-3.81
		c-17.2,5.11-33.64,12.48-50.94,17.27c-9.91,2.86-19.99,5.05-30.07,7.23c-6.36,1.12-12.65,2.57-19.01,3.65
		c-26.87,4.69-53.61,10.14-80.51,14.6c-1.89,0.28-3.71-0.44-5.39-1.15c-8.09-3.66-16.58-6.29-25-9.05
		c-16.8-5.3-34.04-10.82-51.87-10.2c-13.12,0.52-26.52,1.76-39.42-1.41c-16.04-3.75-31.4-9.79-46.9-15.26
		c-37.64-14.25-76.19-25.88-114.37-38.57c-21.16-7.23-42.49-13.95-63.47-21.68c-16.19-5.93-33.17-10.11-48.33-18.56
		c-9.07-5.04-16.53-12.38-23.79-19.68C462.322,1606.75,484.252,1545.81,506.762,1485.12z"/>
	<path fill="#EEAF8C" stroke="#EEAF8C" stroke-width="0.5" d="M1246.972,1509.25c5.38-2.56,10.82-5.51,16.84-6.13
		c10.43-0.03,18.99,6.86,26.89,12.87c7.83,6.72,15.04,15.05,17.66,25.27c2.19,7.43,9.09,11.71,14.93,16.11
		c5.11,3.6,8.33,9.07,12.17,13.88c5.09,6.93,10.48,13.69,14.87,21.11c3.76,6.29,2.23,13.97,4.42,20.74
		c0.67,2.76,2.39,5.53,1.46,8.47c-2.04,8.72-4.33,17.43-5.35,26.36c-0.99,8.72,1.41,17.83-1.77,26.27
		c-2.88,7.96-6.72,15.61-11.65,22.51c-3.88,5.08-8.4,9.89-14.09,12.94c-5.54,2.64-11.74,3.32-17.74,4.19
		c-16.22,2.02-32.57,2.35-48.88,2.9c-25.16,0.17-50.33,1.83-75.49,0.5c1.73-2.8,3.55-5.55,5.36-8.29c1.67-2.29,2.89-5.37,5.87-6.2
		c8.14-3.71,17.03-5.07,25.66-7.19c16.27-3.75,32.56-7.47,48.82-11.28c8.39-2.12,17.38-3.18,24.49-8.57c0.05-0.75,0.16-2.25,0.22-3
		c-4.72,1.57-8.68,4.96-13.69,5.75c-20.21,4.79-40.47,9.43-60.72,14.08c-7.99,1.97-16.18,3.32-23.86,6.38
		c4.04-6.38,8-12.81,12.15-19.11c2.88-3.48,3.97-7.94,6.18-11.8c3.59-6.8,6.25-14.1,10.05-20.76c3.53-1.52,7.08-3.01,10.53-4.73
		c5.58-2.77,11.93-3.07,17.79-5.03c6.64-2.16,12.92-5.27,19.51-7.59c1.41-0.23,1.82-1.62,2.42-2.7c-1.81-0.09-3.59-0.16-5.36,0
		c-12.74,1.3-25.4,3.65-38.23,3.74c2.72-7.83,5.84-15.55,7.67-23.66c1.01-4.69,2-9.9-0.39-14.35c-3.47-6.88-10.8-10.31-17.23-13.83
		c18.62-4.65,37.35-8.91,55.99-13.5c0.09-1.25,0.2-2.48,0.34-3.7c-1.69-0.27-3.38-0.52-5.07-0.45c-12.95,0.69-26.15,0.97-38.62,4.97
		c-7.29,2.34-14.63,4.69-21.53,8.06c-3.47-1.34-6.94-2.66-10.44-3.89c-16.7-5.92-33.87-10.35-50.72-15.81
		c7.45-6.74,15.43-12.85,23.46-18.88c6.33-4.32,12.71-9.81,20.77-10.07c8.09-0.33,16.55,1.64,24.31-1.55
		C1227.352,1520.06,1236.902,1514.13,1246.972,1509.25z"/>
	<path fill="#EEAF8C" stroke="#EEAF8C" stroke-width="0.5" d="M1137.792,1525.28c4.6-10.68,18.22-14.83,28.71-11.19
		c6.14,2.46,11.29,6.76,16.32,10.96c-4.96,2.9-9.78,6.04-14.35,9.53c-8.1,6.1-16.14,12.33-23.58,19.23
		c-5.41-1.77-10.87-3.37-16.31-5C1131.122,1540.77,1134.152,1532.88,1137.792,1525.28z"/>
	<path fill="#CECAD7" stroke="#CECAD7" stroke-width="0.5" d="M1335.322,1565.55c9.74,5.4,19.16,11.87,26.47,20.37
		c9.06,11.26,12.13,26.04,13.14,40.14c0.8,10.15,0.29,20.36-0.45,30.51c-2.95-7.33-4.81-15.07-8.07-22.29
		c-4.03-10.6-10.04-20.88-10.16-32.51c-0.23-8.51-5.84-15.25-10.49-21.87C1342.372,1575.05,1338.562,1570.49,1335.322,1565.55z"/>
	<path fill="#29292B" stroke="#29292B" stroke-width="0.5" d="M1358.712,1623.8c5.84,11.65,9.84,24.15,13.68,36.59
		c2.21,6.03-1.32,12.05-3.96,17.32c-4.73,9.12-13.72,14.7-21.95,20.3c-3.52,2.31-7.13,4.48-10.93,6.29c1.54-2.55,3.21-5,4.97-7.4
		c5.07-6.8,8.57-14.62,11.52-22.53c1.96-5.23,1.74-10.89,1.6-16.37C1353.042,1646.39,1355.752,1634.92,1358.712,1623.8z"/>
	<path fill="#DEE3E9" stroke="#DEE3E9" stroke-width="0.5" d="M1433.102,1399.75c-2.63-12.2-5.26-24.5-10.08-36.06
		c-7.99-19.74-17.76-38.69-27.52-57.59c-18.42-35.16-37.96-69.72-57.74-104.13c-29.06-50.35-58.89-100.27-89.15-149.91
		c-3.53-6.26-8.43-11.57-12.68-17.32c-14.19-18.56-28.27-37.21-41.53-56.45c-20.83-30.22-36.78-63.44-56.87-94.12
		c-10.37-14.35-22.45-27.71-36.72-38.29c-12.32-8.77-25.64-16.5-40.24-20.74c-12.22-3.47-24.8-6.04-37.55-6.12
		c-3.4,0.73-6.86,1.15-10.33,1c-9.33-0.28-18.67,0.03-28-0.19c-3.28-0.11-6.54,0.38-9.67,1.3c15.09,12.7,30.15,25.47,44.2,39.33
		c24.78,23.96,47.12,50.25,69.8,76.15c24.69,29.09,47.6,59.64,72.41,88.63c2.89,2.83,5.19,6.89,9.3,8.02
		c5.72,0.8,11.14-2.36,16.88-1.88c15.13,1.13,30.87,4.16,43.31,13.4c12.86,9.38,22.89,22.01,32.09,34.85
		c10.48,16.05,19.84,32.85,27.92,50.23c1.72,3.18,1.97,6.81,2.81,10.25c18.68,40.23,37.37,80.49,54.44,121.44
		c8.51,21.34,17.75,42.38,26.26,63.72c6.4,16.76,13.4,33.72,14.96,51.77c0.69,22.53-6.11,44.43-13.23,65.56
		c-1.57,5.02-7.98,5.34-12.26,4.31c-3.91-1.17-3.98-6.32-2.8-9.47c2.13-3.64,7.01-4.16,9.56-7.43c4.89-6.26,6.89-14.23,7.73-22
		c1.9-17.65,2.2-36.03-3.72-53c-6.38-19.28-14.54-37.9-22.47-56.57c-9.43-21.51-18.57-43.15-28.55-64.42
		c-12.64-27.17-25.81-54.1-39.08-80.97c-1.22-2.35-2.14-4.98-4.19-6.73c-4.47-3.73-7.02-9.07-10.09-13.87
		c-6.04-10-11.78-20.17-17.98-30.06c-6.63-11.03-14.98-20.92-23.72-30.31c-6.8-7.29-15.43-12.54-24.47-16.55
		c-15.45-7.2-34.67-4.36-48.16,5.74c-8.83,6.6-14.21,16.87-16.45,27.51c-1.9,9.19-2.54,18.79-0.68,28.03
		c1.76,7.03,4.91,13.6,7.99,20.13c5.55,11.5,11.75,22.67,17.68,33.99c2.27,4.64,5.02,9.14,6.42,14.16c0.52,1.98-1.18,4.06-0.09,5.95
		c18.1,37.86,36.04,75.8,54.1,113.68c8.28,16.71,15.37,34.04,24.91,50.1c5.1,9.22,10.6,18.4,18.18,25.83
		c12.67,12.67,25.8,24.88,39.27,36.69c4.28,3.52,8.35,8.08,14.15,8.86c3.62,0.91,7.89,0.58,10.86,3.18
		c2.53,2.65,4.65,6.61,3.35,10.33c-2.12,2.51-5.81,2.41-8.78,2.18c-5.44-0.42-9.73-4.1-14.08-6.98
		c-15.46-10.96-30.22-22.98-43.66-36.36c-6.51-6.56-12.77-13.46-17.67-21.33c-11.04-17.33-20.7-35.48-30.43-53.55
		c-13.52-25.2-26.26-50.81-39.42-76.18c1.63,28.32,3.31,56.66,4.34,85.02c0.5,20.33,0.83,40.66,0.03,60.98
		c-0.87,10.45-1.33,21.08-4.64,31.13c-7.24,23.45-21.84,43.52-35.54,63.54c-4.31,6.27-8.34,12.8-10.99,19.97
		c-5.04,12.67-9.39,25.62-13.25,38.7c1.25,0.27,2.53,0.6,3.8,0.94c3-8.18,5.88-16.44,9.83-24.22c5.25-11.91,20.55-16.45,32.3-12.43
		c6.83,2.89,13.02,7.34,18.11,12.73c4.78-1.26,9.75-1.51,14.68-1.11c9.36-8.41,19.23-16.22,28.86-24.31
		c12.3-10.02,24.38-20.3,36.83-30.13c8.16-6.37,17.29-11.53,26.95-15.22c4.05-1.8,8.39,0.52,11.41,3.22
		c1.96,1.68,3.86,4.71,1.92,7.14c-5.17,6.78-11.95,12.14-18.11,17.98c-6.98,5.87-11.89,13.94-19.75,18.79
		c10.28,2.25,18.78,8.85,26.7,15.43c6.92,6.63,13.55,14.34,15.96,23.84c1.2,4.56,4.47,8.18,8.18,10.95
		c5.19,3.85,10.22,7.96,15.86,11.16c9.63,5.71,19.28,11.74,27.01,19.94c11.02,11.69,14.7,28.19,15.99,43.73
		c0.83,9.54,0.34,19.13-0.1,28.69c-0.94,8.96-2.77,18.05-7.55,25.85c-4.9,8.84-13.58,14.55-21.76,20.04
		c-4.7,3.09-9.56,5.91-14.45,8.68c-3.07,1.66-5.73,4.34-9.42,4.42c-15.98,5.01-32.87,5.44-49.46,6.35c-6.99,0.36-14,0.52-20.99,0.74
		c-6.3-0.07-12.6-0.06-18.88,0.3c-16.51,0.73-33.03,0.55-49.54,0.49c0.62,1.06,1.3,2.16,1.97,3.25
		c8.33,12.88,16.64,25.79,25.13,38.57c2.93,4.61,7.19,8.11,11.18,11.78c7.3,6.54,15.09,12.64,23.76,17.3
		c7.89,4.28,16.83,6.1,25.68,7.06c11.98,1,24.08,0.26,35.89-2c16.4-3.28,32.87-8.45,46.55-18.37c6.22-4.47,11.58-10.38,14.5-17.53
		c3.38-8.27,4.47-17.23,7.34-25.67c14.43-42.4,28.24-85.06,39.66-128.38c5.65-21.73,10.89-43.62,13.91-65.88
		c2.54-21.25,5.34-42.49,6.62-63.86C1439.852,1451.24,1438.412,1425.13,1433.102,1399.75z M1258.719,1720.755
		c1.941,0.213,3.893,0.295,5.849,0.307C1262.612,1721.05,1260.661,1720.968,1258.719,1720.755z M1379.462,1622.88L1379.462,1622.88
		c0.08,2.012,0.125,4.026,0.15,6.039C1379.587,1626.906,1379.542,1624.893,1379.462,1622.88z"/>
	<path fill="#0A0100" stroke="#0A0100" stroke-width="0.5" d="M1037.472,1759.7c9.94-3.25,20.6-0.24,29.83,3.81
		c8.02,3.44,13.58,11.7,13.4,20.48c-0.26,7.29-1.82,14.97-6.12,21.01c-4.13,5.49-11.77,5.95-16.45,10.68
		c7.51,1.35,15.15,1.09,22.74,0.94c-1.17,0.88-2.33,1.79-3.47,2.73c-6.47,0.14-12.95-0.06-19.39-0.71
		c-3.22-0.47-5.93,1.74-8.77,2.86c-8.4,4.22-17.84,5.33-26.93,7.22c-19.18,3.74-38.88,7.21-56.2,16.74
		c-11.84,6.34-21.52,15.85-30.74,25.46c-0.73-0.06-2.18-0.17-2.91-0.22c2.18-4.82,6.72-7.9,10.31-11.59
		c10.09-9.89,22.13-17.84,35.48-22.56c13.03-5.18,26.89-7.63,40.58-10.36c11.48-2.48,23.89-3.46,33.88-10.17
		c5.5-6.74,16.04-6.62,20.75-14.25c3.68-7.08,5.26-15.5,3.65-23.36c-1.53-6.92-7.78-11.46-14.07-13.81
		c-7.39-2.66-15.55-4.4-23.34-2.56c-9.99,2.39-19.48,6.4-29.13,9.83c-15.83,6.05-32.18,10.64-48.79,13.95
		c-1.79-0.52-3.54-1.13-5.32-1.62c10.08-2.18,20.16-4.37,30.07-7.23C1003.832,1772.18,1020.272,1764.81,1037.472,1759.7z"/>
	<path fill="#060101" stroke="#060101" stroke-width="0.5" d="M1150.092,1761.72c5.09-0.55,9.95,3.06,12.96,6.89
		c3.86,7.95,4.94,16.94,6.12,25.61c0.89,7.89,0.12,15.8-0.22,23.7c-1.57,13.09-2.17,26.5-6.33,39.1c-2.02,6.12-9.09,7.52-14.68,8.28
		c-3.16,0.71-7.49,0.57-9.12,3.95c-1.22,5.45,1.95,12.55-3.25,16.62c-6.57,4.78-14.56,6.96-22,10
		c-19.42,6.69-36.79,18.2-56.52,24.13h-21.29c3.49-1.29,7.21-0.19,10.8-0.83c16.63-3.11,31.83-10.89,46.86-18.32
		c11.49-5.72,23.93-9.19,35.57-14.58c2.65-1.43,6.17-2.99,6.49-6.41c0.61-4.83-1.76-10.9,2.45-14.6c5.6-4.05,13.33-2.21,19.12-5.86
		c3.01-2.22,3.46-6.26,4.4-9.61c2.23-10.99,3.58-22.18,4.15-33.37c0.65-7.92,1.1-15.91,0.04-23.81c-0.79-7.35-2-14.8-4.89-21.64
		C1158.662,1766.29,1152.142,1766.33,1150.092,1761.72z"/>
	<path fill="#F9FDFE" stroke="#F9FDFE" stroke-width="0.5" d="M745.582,1786.76c0.59-0.34,1.78-1.02,2.37-1.36
		c6.14,0.51,12.31,0.35,18.45-0.06c0.6,0.37,1.78,1.09,2.38,1.46C761.042,1787.03,753.312,1787.03,745.582,1786.76z"/>
	<path fill="#EEAF8C" stroke="#EEAF8C" stroke-width="0.5" d="M1165.642,1792.61c-0.79-7.35-2-14.8-4.89-21.64
		c-2.09-4.68-8.61-4.64-10.66-9.25c-9.25,13.6-18.95,26.88-28.49,40.27c-3.02,3.26,0.53,7.87-1.36,11.54
		c-1.22,1.69-3.42,2.16-5.28,2.77c-12.25,3.16-25,3.01-37.56,3.05c-6.47,0.14-12.95-0.06-19.39-0.71c-3.22-0.47-5.93,1.74-8.77,2.86
		c-8.4,4.22-17.84,5.33-26.93,7.22c-19.18,3.74-38.88,7.21-56.2,16.74c-11.84,6.34-21.52,15.85-30.74,25.46
		c-0.73-0.06-2.18-0.17-2.91-0.22c2.18-4.82,6.72-7.9,10.31-11.59c10.09-9.89,22.13-17.84,35.48-22.56
		c13.03-5.18,26.89-7.63,40.58-10.36c11.48-2.48,23.89-3.46,33.88-10.17c5.5-6.74,16.04-6.62,20.75-14.25
		c3.68-7.08,5.26-15.5,3.65-23.36c-1.53-6.92-7.78-11.46-14.07-13.81c-7.39-2.66-15.55-4.4-23.34-2.56
		c-9.99,2.39-19.48,6.4-29.13,9.83c-15.83,6.05-32.18,10.64-48.79,13.95c-20.67,4.51-41.6,7.76-62.35,11.85
		c-22.79,4.04-45.51,8.52-68.4,11.85c-1.4,12.76-0.77,25.66-2.3,38.41c-1.02,8.84-4.89,16.93-7.97,25.17
		c-3.19,8.09-2.76,16.93-3.65,25.44c-0.63,7.17-1.18,14.38-2.63,21.46h221.28c3.49-1.29,7.21-0.19,10.8-0.83
		c16.63-3.11,31.83-10.89,46.86-18.32c11.49-5.72,23.93-9.19,35.57-14.58c2.65-1.43,6.17-2.99,6.49-6.41
		c0.61-4.83-1.76-10.9,2.45-14.6c5.6-4.05,13.33-2.21,19.12-5.86c3.01-2.22,3.46-6.26,4.4-9.61c2.23-10.99,3.58-22.18,4.15-33.37
		C1166.252,1808.5,1166.702,1800.51,1165.642,1792.61z"/>
	<path fill="#151718" stroke="#151718" stroke-width="0.5" d="M832.162,1806.85c1.37-3.42,4.6-5.34,7.56-7.2
		c3.53,1.05,7.1,2.14,10.23,4.18C844.072,1805.12,838.072,1805.76,832.162,1806.85z"/>
	<path fill="#FAFAFC" stroke="#FAFAFC" stroke-width="0.5" d="M1113.582,1813.36c1.21-1.95,2.59-3.78,4.04-5.55
		c0.03,1.37,0.07,2.76,0.12,4.18C1116.352,1812.47,1114.962,1812.93,1113.582,1813.36z"/>
	<path fill="#DEE3E9" stroke="#DEE3E9" stroke-width="0.5" d="M1307.992,1800.27c-17.39,2.9-35.68,3.36-52.65-1.98
		c-11.33-3.88-21.08-11.17-30.14-18.8c-5.4-4.89-11.23-9.54-15.21-15.72c-9.2-13.89-18.19-27.9-27.24-41.87
		c-0.66-1.42-2.31-1.42-3.57-1.8c-9.65,13.9-19.08,27.97-29.09,41.62c5.09-0.55,9.95,3.06,12.96,6.89
		c3.86,7.95,4.94,16.94,6.12,25.61c0.89,7.89,0.12,15.8-0.22,23.7c-1.57,13.09-2.17,26.5-6.33,39.1c-2.02,6.12-9.09,7.52-14.68,8.28
		c-3.16,0.71-7.49,0.57-9.12,3.95c-1.22,5.45,1.95,12.55-3.25,16.62c-6.57,4.78-14.56,6.96-22,10
		c-19.42,6.69-36.79,18.2-56.52,24.13h292.81c-0.58-14.23-0.15-28.47-0.21-42.7c0.25-10.97,0.55-21.93,0.84-32.89
		c0.1-2.38,0.2-4.76,0.16-7.12c0.23-8.29,0.62-16.58,0.85-24.87c0.29-9.23,0.76-18.45,1.08-27.67
		C1338.812,1792.59,1323.562,1797.52,1307.992,1800.27z"/>
	<path fill="#73777E" stroke="#73777E" stroke-width="0.5" d="M804.892,1920c0.36-1.62,0.95-1.62,1.76,0H804.892z"/>
</g>
</svg>
