<?xml version="1.0" encoding="utf-8"?>

<!DOCTYPE svg PUBLIC "-//W3C//DTD SVG 1.1//EN" "http://www.w3.org/Graphics/SVG/1.1/DTD/svg11.dtd">
<svg version="1.1" id="Layer_1" xmlns="http://www.w3.org/2000/svg" xmlns:xlink="http://www.w3.org/1999/xlink" x="0px" y="0px"
	 viewBox="0 0 1657.501 1832.047" enable-background="new 0 0 1657.501 1832.047" xml:space="preserve">
<g>
	<path fill="#030102" stroke="#030102" stroke-width="0.5" d="M779.601,66.28c11.58-1.38,23.12-4.09,34.84-3.51
		c3.99,0.22,3.79,5.06,4.71,7.9c10.14-0.62,20.17-2.82,30.37-2.69c13.5,0.09,26.15,5.51,38.42,10.58
		c6.75,3.09,13.62,6.08,19.83,10.18c6.09,3.99,8.8,11.12,14,15.99c23.03,21.33,47.37,41.25,69.41,63.64
		c8.53,9.61,16.2,20.35,20.35,32.62c5.92,16.63,6.16,34.56,6,52.01c0.53,28.92-4.93,57.48-10.44,85.73
		c-5.77,26.97-12.74,53.75-22.08,79.72c-1.22,4.34-3.54,8.2-5.67,12.11c-2.97,35.49-5.03,71.13-10.12,106.41
		c-1.72,12.93-6.04,25.36-11.39,37.2c-8.76,19.49-21.56,36.74-31.76,55.45c-8.63,16.1-17.39,32.12-26.32,48.05
		c0.99,1.44,1.81,3,2.83,4.45c11.53,3.81,23.49,7.28,33.54,14.35c3.17,2.42,7.37,2.44,10.91,4.11
		c15.52,6.45,30.81,14.15,43.56,25.25c14.72,12.6,27.95,26.84,40.33,41.71c10.73,12.71,20.27,26.42,28.17,41.07
		c33.15,7.41,65.9,16.68,97.93,27.99c19.14,6.96,38.22,14.56,55.57,25.33c12.15,7.86,22.93,17.71,32.52,28.52
		c14.72,16.78,25.26,36.63,35.6,56.27c7.49,14.34,15.45,28.42,23.79,42.28c20.66,35.78,40.03,72.29,59.11,108.94
		c20.99,40.71,41.47,81.71,60.61,123.33c16.5,35.76,31.33,72.27,44.72,109.3c15.61,42.85,29.23,86.39,42.92,129.88
		c5.75,17.73,10.98,35.67,18.19,52.9c10.85,26.89,25.47,52.24,34.04,80.03c5.19,16.91,7.06,34.98,3.98,52.47
		c-2.75,18.04-7.76,35.79-15.36,52.4c-11.47,25.19-29.49,48.58-54.59,61.27c-13.63,7.29-29.57,7.89-44.68,7.35
		c-36.18-2.12-71.55-10.91-106.41-20.36c-35.58-9.89-70.64-21.56-105.52-33.66c0.65,39.71,1.09,79.43,1.04,119.15h-3.43
		c0.55-20.35-0.2-40.7-0.15-61.05c-0.46-18.96-0.34-37.94-0.67-56.89c0.19-1.72-0.91-3.01-2.51-3.35
		c-36.04-12.64-70.6-29.1-104.58-46.44c-47.72-24.57-94.23-51.45-139.71-79.93c6.75,24.08,13.71,48.09,20.39,72.19
		c9.5,2.19,18.75,5.47,28.45,6.76c22.35,3.88,45.13,5.68,67.02,11.87c4.53,1.17,8.73,4.36,9.91,9.07
		c2.28,8.95-1.65,19.06-9.23,24.31c-10.84,7.41-24.1,11.35-37.25,10.48c8.84,6.25,18.19,12.04,25.65,20
		c2.93,2.98,4.23,7.11,4.62,11.21c0.57,6.45-0.28,13.62-4.6,18.75c-1.68,2.18-4.55,2.53-7.02,3.2c5.62,6.49,6.72,15.6,5.75,23.85
		c-0.64,4.8-1.8,9.85-5.06,13.6c-1.38,1.65-3.75,2.25-4.92,4.04c-2.58,7.29-8.61,12.48-13.38,18.33h-31.9
		c8.5-0.5,17.03-0.35,25.54-0.88c3.44-0.11,5.56-3.21,7.61-5.56c3.02-3.98,7.19-7.33,8.67-12.27c-14.79-1.48-29.5-3.57-44.12-6.24
		c-4.7-0.97-9.6-1.09-14.09-2.9c0.29-0.59,0.87-1.77,1.17-2.37c18.45,2.24,36.97,4.3,55.27,7.67c3.23,0.56,7.1-0.06,8.69-3.31
		c3.82-6.9,4.25-15.36,2.67-22.96c-1.08-5.38-4.72-11.05-10.68-11.48c-15.92-1.8-31.69-4.78-47.5-7.32
		c-0.23-0.64-0.67-1.93-0.9-2.57c3.57-1.12,7.2,0.27,10.78,0.66c12.17,1.61,24.38,3,36.42,5.45c4.47,0.56,9.39,1.61,13.67-0.29
		c3.47-3.15,4.52-8.11,4.72-12.6c0.1-4.51-0.2-9.49-3.26-13.07c-8.3-9.66-20.08-15.26-29.53-23.54c-6.48-1.51-12.82-3.5-18.98-6
		c-10.9-3.99-22.29-6.41-33.41-9.63c-1.55-0.2-1.87-1.8-2.24-2.98c3.55-0.4,6.96,0.85,10.35,1.76c10.35,2.84,20.83,5.35,30.82,9.39
		c10.79,4.35,22.9,6.1,34.36,3.66c7.17-1.83,14.28-4.51,20.31-8.87c6.31-4.47,9.63-12.87,7.89-20.42c-0.81-3.52-3.88-5.94-7.23-6.84
		c-29.84-8.7-61.53-8.42-91.23-17.67c-9.12-2.66-18.74-2.68-28.08-1.4c-16.41,1.86-32.72,4.4-49.07,6.61
		c-9.31,1.17-18.64,2.69-28.05,2.45c-11.4-0.3-22.77-1.45-34.07-2.98c4.04,24.94,3.81,50.38,2.98,75.57
		c-1.23,20.78-3.43,41.78-10.17,61.59c-3.69,9.96-7.81,19.77-12.42,29.34h-3.65c7.28-15.63,14.59-31.51,17.84-48.56
		c5.52-27.43,6.11-55.58,5.33-83.46c-0.66-11.89-1.21-23.83-3.42-35.54c-1.92-10.52-3.8-21.34-9.11-30.77
		c-4.44-7.74-11.42-14.55-20.25-16.82c-8.53-2.18-17.41-1.58-26.12-1.9c-7.83-0.25-15.46-2.11-23.07-3.75
		c-27.21-6.06-54.38-12.26-81.53-18.53c-22.35-5.25-44.81-10.06-66.99-16.01c-22.04-6.07-44.33-11.17-66.52-16.68
		c-20.56-5.28-41.44-9.72-61.22-17.6c-8.6-3.39-17.11-6.98-25.74-10.26c-8.79-3.19-16.9-7.91-25.49-11.55
		c-17.39-8-36.14-13.65-55.41-13.81c-15.32-0.46-30.68,0.1-45.93,1.68c-1.7,0.23-3.4,0.05-5.05-0.35c0.13-0.63,0.38-1.88,0.51-2.51
		c22.07-2.27,44.46-3.71,66.55-0.81c19.45,2.7,37.4,11.12,55,19.38c-10.04-42.99-19.65-86.09-30.32-128.93
		c-6.13-24.28-12.7-48.44-19.29-72.59c-4.35-15.52-8.31-31.17-10.92-47.09c-0.64-5.08-3.82-9.79-3.2-14.99
		c0.58-4,5.08-4.84,8.21-6.08c19.32-6.22,39.05-11.08,58.68-16.19c43.2-11.01,86.38-22.12,129.8-32.26
		c48.55-11.53,97.18-22.73,145.76-34.18c29.33-6.77,58.3-15.02,87.46-22.47c6.12-1.28,12.04-3.31,17.87-5.57
		c-0.44-4.5,2.23-10.5-2.51-13.43c0.46-0.65,1.39-1.96,1.85-2.61c0.6,0.37,1.21,0.74,1.83,1.12c1.38-10.6,3.2-21.12,5.23-31.61
		c0.94-5.25,2.96-10.21,4.88-15.16c-12.31-14.38-23.27-29.82-34.48-45.05c-28.77-39.34-57.53-78.69-86.25-118.07
		c-1.69-0.28-3.37-0.52-5.02-0.87c0.55-0.81,1.12-1.6,1.69-2.38c4.56-1.51,7.13-5.83,10.03-9.34
		c11.83-15.83,22.25-32.66,32.67-49.43c6.92-11.67,14.93-22.89,19.04-35.96c1.32-5.19,5.81-8.22,10.36-10.36
		c-14.07-10.12-28.94-19.1-43.44-28.59c-38.34-24.64-76.82-49.06-114.72-74.37c-10.26-7.01-20.72-13.77-30.37-21.6
		c-2.87-2.03-3.97-5.61-3.6-8.98c0.7-8.43,4.29-16.25,8.14-23.66c1.21-2.02,0.28-4.44,0.26-6.62c-2.46,0.69-4.89,1.49-7.22,2.51
		c0.19-1.27,0.38-2.53,0.58-3.78c1.96-0.78,3.97-1.42,5.99-2.02c-2.93-22.7-6.05-45.39-9.48-68.01
		c-10.35-31.32-12.18-64.67-12.22-97.41c-2.96,0.83-5.96,2.13-9.1,1.73c-2.79-0.63-4.1-3.52-5.33-5.79
		c-3.97-8.39-6.75-17.37-11.77-25.24c-3.92-6.08-7.5-12.51-9.13-19.63c-3.1-12.97-4.85-26.25-5.7-39.55
		c-0.54-8.22,0.35-16.42,0.57-24.63c0.17-5.22-1.08-10.55,0.21-15.69c1.6-3.54,5.9-2.09,8.8-1.49c-1.68-3.01-2.75-6.34-2.82-9.8
		c-1.74-33.58-0.3-67.22-1.01-100.82c-2.28,2.15-4.04,5.09-7.04,6.3c-1.33-0.37-1.99-1.24-1.98-2.59
		c-0.49-9.06,0.7-18.11,1.92-27.07c1.68-11.16,3.97-22.3,8.01-32.87c4.05-10.71,11.22-19.82,18.37-28.62
		c10.9-13.05,22.68-25.35,35.09-36.96c2.9-2.51,5.57-5.39,8.93-7.3c3.86-1.51,6.14,3.13,9.5,3.89c5.38-3.55,8.77-9.64,14.67-12.47
		c2.77-1.22,5.02,1.49,6.49,3.47c1.24,1.65,3.22,4.35,5.51,2.67c15.1-8.62,29.04-19.11,43.7-28.43c1.29-0.89,2.85-1.19,4.38-1.46
		c0.55,1.65,1.07,3.33,1.59,5C748.981,75.89,763.981,70,779.601,66.28 M774.741,71.12c-12.87,3.22-25.26,8.08-37.86,12.17
		c-1.89,0.39-4.02,1.28-5.86,0.39c-0.76-1.03-1.38-2.14-2.01-3.23c-4.43,2.47-8.51,5.51-12.74,8.32
		c-9.44,6.69-19.24,12.83-29.06,18.93c-1.98,1.1-4.11,2.52-6.48,2.08c-3.6-0.96-4.31-6.56-8.1-6.81c-5.2,3.02-8.13,8.84-13.47,11.64
		c-3.74,1.59-6.83-1.79-9.74-3.57c-3.3,2.27-6.3,4.93-9.21,7.67c-13.73,13.3-27.19,26.96-38.85,42.14
		c-4.36,5.83-8.86,11.69-11.55,18.53c-7.75,18.53-10.27,38.77-11.26,58.69c1.97-1.78,3.97-3.52,6.03-5.19
		c0.67,0.07,2.02,0.22,2.69,0.29c2.62,16.2-0.71,32.65,0.75,48.93c0.4,12.63-0.08,25.27,0.3,37.9c0.26,7.3-0.28,14.71,1.18,21.91
		c1.04,5.27,6.1,8.06,9.89,11.26c4.3,3.22,7.06,8.38,7.1,13.78c0.37,11.7-0.22,23.4,0.07,35.1c0.27,8.97,2.4,17.79,5.64,26.13
		c3.32,8.51,5.95,17.49,11.33,25c0.9-3.35,1.02-6.81,1.08-10.25c-0.06-5.61,2.39-10.86,5.26-15.54c1.56-2.32,4.11-5.29,7.25-4.09
		c3.41,1.86,5.15,5.59,7.34,8.64c1.52-28.66,3.63-57.31,5.89-85.93c0.65-4.99,0.58-10.14,2.33-14.92c4.01-0.95,7.65,0.82,10.42,3.63
		c0.79-2.67,1.46-5.55,3.59-7.52c8.13-8.55,18.77-15.75,22.6-27.46c5.61-17.01,9.88-34.43,14.15-51.81
		c1.22-5.19,2.19-10.46,3.99-15.48c1.29,0.43,2.6,0.86,3.91,1.3c12.26-5.7,25.4-11.06,39.18-10.39
		c21.62,1.24,43.01,6.29,62.98,14.65c14.78,5.93,28.09,14.83,41.12,23.87c14.27,10.54,26.54,23.45,39.06,35.95
		c7.3,7.07,13.95,14.9,21.97,21.17c-1-5.36-3.96-10-6.38-14.8c-3.05-5.94-6.16-11.85-8.97-17.91c-1.27-3.14-2.87-6.43-2.51-9.91
		c2.02-2.84,5.6,0.32,7.62,1.75c11,9.37,20.48,20.36,30.74,30.5c0.84-2.38,1.8-4.76,3.49-6.68c1.88,0.62,3.77,1.34,5.37,2.57
		c7.9,5.92,15.55,12.17,23.28,18.32c0.36-2.75-0.04-5.91,1.87-8.18c2.07-2.89,5.02-5.11,6.66-8.3c2.08-5.42,0.94-11.39,2.09-16.97
		c0.26-1.43,1.96-1.66,2.85-0.65c2.45,2.65,3.12,6.36,4.35,9.65c1.1,3.71,2.89,7.3,3.13,11.21c-0.8,0.99-1.81,1.8-2.64,2.75
		c-1.44,6.12-0.86,12.49-1.34,18.72c-0.76,8.61-0.79,17.26-1.58,25.87c-0.35,14.06-1.9,28.05-2.37,42.11
		c-0.37,6.77-1.48,13.54-0.78,20.34c1.79-2.65,2.8-5.7,3.73-8.72c7.7-22.61,13.63-45.77,18.86-69.05
		c6.18-30.5,11.75-61.38,11.31-92.62c-0.21-15.74-0.61-31.93-6.04-46.9c-4.26-12.46-12.17-23.36-21.07-32.92
		c-21.79-21.62-45.28-41.43-67.96-62.08c-5.12-4.93-7.88-12.04-13.98-15.98c-6.07-3.91-12.71-6.82-19.3-9.72
		c-8.97-3.73-18.03-7.58-27.65-9.27c-8.58-1.53-17.27-0.27-25.88,0.1c-4.58,0.2-9.11,1.65-13.71,1.13
		c-3.59-0.44-3.28-4.88-4.42-7.45C801.041,65.88,787.761,68.24,774.741,71.12 M735.631,228.07c-9.32,2.22-18.07,6.26-26.69,10.33
		c-4.05,17.65-8.37,35.24-13.45,52.62c-2.09,6.56-3.79,13.46-7.86,19.13c-5.05,7.19-11.93,12.75-18.25,18.74
		c-3.46,2.98-2.44,8.02-4.25,11.82c-1.08,1.15-3.03,0.9-3.73-0.5c-1.64-2.66-2.69-6.57-6.54-6.39c-2.58,27.19-4.67,54.47-6.04,81.72
		c-1.23,7.69-0.67,15.44-0.41,23.18c-1.15,0.04-2.36,0.29-3.46-0.13c-3.34-3.8-5-8.87-8.8-12.29c-3.15,0.24-4.27,4.31-5.7,6.69
		c-3.82,6.97-2.24,15.12-3.46,22.64c-0.08,2.18-2.65,2.78-3.38,4.58c-0.29,2.13-0.22,4.3,0.07,6.44c-0.69,9.87-0.75,19.84,0,29.71
		c-0.45,10.55,0.94,21.12,1.84,31.63c2.65,22.49,6.85,45.58,18.79,65.21c13.38,22.53,30.32,42.74,48.23,61.79
		c17.89,18.55,36.87,36.41,58.76,50.2c12.37,8.02,27.08,12.43,41.78,12.64c9.87,1.25,19.92,0.83,29.8-0.09
		c16.67-0.85,33.28-3.76,49.46-7.86c6.47-1.22,8.98-7.87,12.3-12.69c14.07-23.56,26.9-47.84,40.06-71.91
		c6.4-11.46,13.71-22.38,20.3-33.72c10.39-17.77,18.85-37.13,21.32-57.72c5.6-41.6,8-83.54,11.13-125.37
		c-1.49-0.58-3.17-0.99-4.11-2.38c-4.59-5.63-8.53-12.3-15.13-15.83c-6.43-2.76-13.46-0.04-19.79,1.71
		c-8.84,3.18-18.07,5.29-26.58,9.34c-4.49,1.91-8.79,4.33-13.5,5.66c-2.23,0.64-5.02,0.74-6.68-1.14c-3.33-3.45-4.95-8.2-6.14-12.74
		c0.99-2.49,4-3.64,6.38-4.6c15.2-5.63,30.51-11.18,46.35-14.75c5.63-1.07,11.85-2.49,17.24,0.27c9.78,4.79,16.41,13.82,22.81,22.29
		c1.43-28.46,3.36-56.9,4.66-85.38c-0.24-1.88,0.89-3.27,2.26-4.39c-0.94-3.66-2.06-7.27-3.47-10.78
		c-0.5,4.81-0.23,10.15-3.29,14.22c-2.13,3.18-5.87,5.3-6.95,9.11c0.24,3.51,3.1,6.06,5.28,8.57c1.42,1.74,4.42,3.67,2.68,6.21
		c-2.42,0.43-4.14-1.66-5.97-2.85c-11-8.38-21.43-17.54-32.86-25.36c-0.86,2.67-0.96,6.23-4.08,7.3
		c-5.7-4.26-10.17-9.86-15.22-14.81c-6.56-6.38-12.46-13.64-20.07-18.81c4.56,13.6,13.23,25.45,17.94,39
		c0.88,2.05,0.33,4.31-1.74,5.35c-2.87-1.07-5.1-3.19-7.71-4.7c-2.85-3.54-6.39-6.43-9.51-9.72c-7-6.75-13.38-14.18-20.77-20.5
		c-2.87-3.98-6.88-6.98-10.3-10.47c-8.53-8.34-18.25-15.3-28.22-21.79c-23.9-16.16-51.97-25.65-80.51-29.1
		C752.201,226.63,743.741,226.05,735.631,228.07 M582.691,350.14c-0.6,6.79-0.16,13.64,0.03,20.44c-0.73,7.91-0.86,15.94-0.02,23.85
		c-0.3,2.04,0.11,4.09,0.33,6.13c1.34,10.49,2.63,21.07,5.69,31.23c2.54,8.63,8.65,15.52,12.28,23.66
		c3.5,6.99,5.36,14.83,9.98,21.24c3.1-0.1,6.06-1.06,8.92-2.21c0.32-5.85-0.32-11.91,1.51-17.57
		c-6.74-11.71-11.69-24.38-15.42-37.34c-4.69-16.5-1.91-33.79-2.62-50.66c-0.21-3.44-0.61-7.13-2.78-9.95
		C596.511,353.26,589.221,351.35,582.691,350.14 M939.401,376.82c-17.34,3.79-34,10.1-50.54,16.43c1.03,3.73,2.39,7.53,5,10.47
		c3.77,1.02,7.37-1.17,10.69-2.68c10.4-5.42,21.83-8.28,32.85-12.14c6.29-2.21,13.1-3.86,19.77-2.48c3.99,1.12,7.16,4.04,10.07,6.87
		c3.26,3.12,5.19,7.45,8.96,10.06c-0.22-5.73-4.21-10.16-7.73-14.28c-4.1-4.93-8.87-9.48-14.64-12.38
		C949.211,374.91,944.111,375.94,939.401,376.82 M637.401,587.76c2.25,18.58,5.21,37.09,7.51,55.68c0.6,5.74,1.92,11.47,1.4,17.27
		c-1.73,0.65-3.48,1.26-5.21,1.89c-2.27,5.99-5.12,12.57-3.47,19.06c5.85,6,13.24,10.24,19.94,15.21
		c53.99,36.73,109.63,70.95,164.18,106.83c3.22,2.44,8.23,4.16,8.07,9c4.27,0.33,8.56,0.38,12.85,0.46c-0.85-2.89-2-6.27,0.05-8.95
		c3.3-4.71,8.94-7.04,12.53-11.52c13.88-17.33,27.04-35.55,35.9-56.02c4.02-9.15,8.38-18.22,11.58-27.66
		c-1.55-9.44-2.82-18.93-4.46-28.35c-4.56,6.94-8.16,14.45-12.82,21.33c-2.75,4.76-6.28,9.74-12.02,10.95
		c-21.17,5.6-43.05,8.4-64.93,9.02c-15.98,0.02-32.46-1.22-47.26-7.75c-10.98-5.07-20.92-12.1-30.42-19.51
		c-13.76-10.79-26.43-22.86-38.6-35.38C671.441,637.56,652.011,614.16,637.401,587.76 M902.451,685.72
		c1.05,5.86,1.54,11.83,2.89,17.64c0.17-1.04,0.34-2.08,0.52-3.11c0.62-0.09,1.84-0.27,2.45-0.36c9.2,11.79,19.18,23.33,25.08,37.25
		c3.88,9.85,5.91,20.33,7.08,30.83c2.28,20.68,1.08,41.6-2.06,62.13c-3.59,24.26-7.75,48.52-14.5,72.13
		c-2.4,7.01-4.05,15.3-10.77,19.54c-4.9,21.23-9.64,42.51-14.37,63.78c-4.8,22.04-10.05,44.03-12.63,66.47
		c-1.95,11.98-1.89,24.54-6.88,35.82c-3.06,7.27-3.85,15.2-5.34,22.88c-1.69,10.54-3.71,21.08-3.99,31.77
		c3.72-0.09,7.9-1.33,11.33,0.69c3.33,2.46,4.05,6.84,6.15,10.21c26-29.34,50.13-60.28,74.44-91.02
		c23.55-30.29,47.06-60.67,68.35-92.62c4.63-7.21,9.4-14.42,12.83-22.3c2.59-5.51,0.37-11.71-1.99-16.87
		c-6.04-12.06-15.74-21.65-24.21-31.96c-2.83-3.62-6.09-7.23-7.14-11.82c-0.64-2.58,1.31-5.13,3.73-5.85
		c3.59-1.17,7.41-0.5,11.06,0.03c11.53,1.91,22.56,6.16,34.18,7.56c2.19,0.29,5.72,0.3,6-2.63c1.39-7.98-1.3-16-3.39-23.64
		c-1.69-4.28-1.85-8.98-3.84-13.13c-2.81-6.46-5.3-13.1-8.95-19.14c-8.34-14.33-17.56-28.17-27.74-41.26
		c-12.64-14.97-26.12-29.21-39.45-43.56c-12.49-13.16-24.75-26.61-38.55-38.42c-3.73-3.64-7.46-7.36-12.06-9.9
		C921.841,691.87,912.181,688.5,902.451,685.72 M944.231,702.92c2.03,2.74,4.64,4.96,7.16,7.24c7.11,6.19,13.52,13.12,20.55,19.39
		c5.51,4.81,10.46,10.22,15.73,15.3c15.25,15.54,28.27,33.05,42.11,49.82c9.42,11.4,17.43,23.93,23.57,37.39
		c13.18,24.23,24.01,49.68,33.51,75.56c1.02,3.54,2.95,7.16,2.3,10.94c-2.3,2.8-5.85,4.15-8.38,6.72
		c-7.48,7.35-14.63,15.4-18.84,25.13c-7.16,16.15-12.6,33.17-15.22,50.67c-2.46,22.56-2.56,45.31-2.65,67.99
		c-0.07,5.94-1.1,12.01,0.58,17.83c4.88-0.78,9.77-1.48,14.64-2.31c1.85-0.48,4.61-1.2,4.49-3.6c0.57-25.99,0.67-52.09,3.89-77.92
		c1.28-10.37,4.47-20.37,7.61-30.3c3.93-10.96,7.87-22.04,13.82-32.1c2.35-3.99,6.11-7.26,10.65-8.43
		c8.53-2.13,18.01,0.03,24.57,5.98c12.95,11.01,24.63,23.72,33.93,38c15.81,27.01,28.25,55.79,42.01,83.86
		c1.58,2.8,2.28,6.63,5.35,8.24c5.98-0.96,11.81-2.77,17.84-3.59c-1.71-7.49-5.43-14.32-8.12-21.48
		c-5.91-13.68-11.9-27.33-18.24-40.81c-7.45-15.44-14.62-31.23-25.13-44.88c-10.31-13.82-21.94-26.76-35.12-37.89
		c-7.61-7.04-19.81-4.43-27.1-11.91c-4.43-4.86-7.01-11.03-10.37-16.6c-14.57-27.14-28.1-54.85-43.29-81.66
		c-15.91-29.12-38.29-54.12-62.3-76.79C979.681,719.31,962.291,709.84,944.231,702.92 M892.341,741.85
		c-7.63,16.79-18.3,31.94-29.5,46.5c-3.23,4.04-6.21,8.42-10.49,11.45c-2.88,2.37-6.77,4.31-7.71,8.23c0.67,3.39,3,6.14,4.86,8.97
		c9.4,12.88,19.96,24.91,28.86,38.17c11.52,16.69,17.27,36.42,26.91,54.12c2.09,3.39,4.22,8.12,8.96,7.73
		c4.07-6.54,6.02-14.06,8.11-21.38c5.81-22.29,9.76-45.02,13.04-67.8c3.74-25.83,4.64-52.53-1.45-78.08
		c-3.77-17.03-14.68-31.23-25.66-44.31C902.721,717.46,898.141,729.94,892.341,741.85 M1061.361,812.56
		c15.22,27.26,28.76,55.42,43.84,82.76c2.76,4.41,4.77,9.84,9.55,12.5c5.17,2.92,11.32,2.97,16.76,5.19
		c5.85,2.32,10.37,6.89,14.95,11.05c12.97,12.5,24.77,26.28,34.72,41.31c5.28,8.3,9.63,17.15,14,25.96
		c10.23,21.14,19.76,42.62,28.62,64.37c1.35,3.6,3.59,7.52,1.74,11.38c-2.06,3.84-0.02,7.89,0.85,11.75
		c13.5,50.97,27.59,101.79,40.12,153.01c2.49,10.97,5.49,21.89,6.8,33.09c0.8,12.69,3.05,25.46,1.21,38.17
		c-1.09,8.5-4.66,16.95-11.07,22.81c-6.76,6.22-15.29,10.08-23.85,13.14c-9.4,3.17-19.18,5.55-29.12,5.87
		c-4.93-0.16-10.69-0.73-14.05-4.8c-3.62-5-3.53-11.75-2.21-17.52c0.87-4.17,4.27-7.44,8.45-8.21c5.08-0.89,10.49-0.72,15.38,1.06
		c4.65,1.77,6.29,7.29,10.71,9.32c7.96,1.79,15.44-4.22,18.01-11.47c4.26-9.26,7.17-19.17,8.61-29.26c1.3-9.12-1.5-18.06-3.08-26.94
		c-8.83-40.96-19.24-81.55-29.62-122.14c-5.28-20.37-10.52-40.75-16.19-61.02c-0.6-3.1-4.8-3.15-5.88-5.99
		c-14.93-30.33-28.33-61.48-45.35-90.73c-9.12-13.54-20.15-25.89-32.64-36.4c-6.38-5.86-16.07-7.96-24.2-4.88
		c-3.52,1.26-5.69,4.48-7.42,7.61c-5.56,10.03-9.6,20.81-13.23,31.66c-3.09,9.72-6.03,19.56-7.19,29.73
		c-3.02,26.17-2.99,52.55-3.74,78.85c0.19,1.97-1.46,3.17-2.76,4.32c0.82,33.33,2.25,66.65,4.58,99.89
		c1.7,20.7,3.02,41.55,7.81,61.83c5.31,23.28,11.46,46.5,20.6,68.61c2.55,5.32,4.77,11.9,10.8,14.19c8.03,3.08,17.01,3.8,25.49,2.37
		c1.2-4.21,1.85-8.8,4.96-12.13c5.76-6.27,14.57-9.84,23.09-8.76c5.77,1.14,9.78,6.48,11.16,11.95c1.42,5.58-1.76,11.74-7.03,13.97
		c-5.64,2.59-11.71,5.41-18.08,4.42c-3.52-0.78-5.65,3.04-8.95,3.46c-10.87,2.15-22.25,3.36-33.2,1.16
		c-7.86-1.48-13.73-7.58-17.9-14.03c-7.19-11.11-11.57-23.71-15.76-36.18c-1.71-4.87-2.94-9.88-3.77-14.96
		c-2.45-14.26-4.17-28.62-5.97-42.96c-5.81-48.5-10.52-97.11-15.68-145.68c-0.17-4.25-5.24-6.27-5.15-10.67
		c-0.63-19.86-0.02-39.76,0.6-59.62c0.74-11.17,1.11-22.42,3.51-33.38c2.44-11.23,5.74-22.27,9.95-32.97c3.29-8.51,7.08-17,13-24.06
		c4.05-4.87,8.29-9.68,13.17-13.74c1.91-1.66,6.32-2.67,4.56-6c-5.76-18.36-13.65-35.95-21.21-53.61
		c1.58,7.85,4.52,15.66,3.63,23.79c-0.33,3.17-2.33,6.52-5.78,6.85c-6.13,0.53-12.12-1.4-18.03-2.74c-8.61-2-17.12-4.96-26-5.38
		c-2.01,0.14-5.3-0.46-5.6,2.31c1.12,3.93,3.81,7.12,6.34,10.25c8.76,10.64,18.74,20.57,24.91,33.06
		c3.25,6.55,5.01,14.67,1.09,21.35c-9.4,18.51-21.99,35.16-33.97,52.04c-34.7,47.27-71.12,93.26-108.62,138.32
		c-5.12,5.64-9.47,12.11-15.64,16.67c3.9,11.33,6.98,22.92,10.27,34.44c11.42,41.36,21.77,83.01,32.21,124.62
		c20.68,0.73,40.95,6.98,58.69,17.58c18.37,10.7,34.9,24.26,50.48,38.66c11.85-5.24,25.53-8.24,38.23-4.33
		c8.8,2.74,17.63,5.39,26.29,8.59c40.57,14.48,81.03,29.29,121.63,43.72c-4.41-7.01-9.16-13.82-13.35-20.96
		c-20.56-33.38-28.26-72.48-35.6-110.45c-5.21-26.44-7.04-53.74-3.36-80.5c-30.63,7.78-61.51,15.13-93.03,18.2
		c-1.35-0.06-1.95-0.74-1.79-2.04c1.12-1.49,3.11-1.23,4.75-1.55c7.51-0.96,15.01-1.99,22.5-3.16c22.87-3.53,45.27-9.49,67.77-14.79
		c4.2-28.33,9.19-56.57,15.04-84.61c0.07-1.89,3.06-2.6,3.31-0.29c-3.39,17.89-7.06,35.74-10.04,53.71
		c-4.09,24.69-8.39,49.63-6.78,74.75c0.65,20.59,5.06,40.79,9.1,60.91c5.13,24.79,11.5,49.55,22.39,72.51
		c6.74,13.49,14.97,26.18,23.5,38.59c1.12,2.11,3.61,2.51,5.66,3.31c21.89,7.55,43.59,15.76,65.75,22.46
		c-23.71-14.16-48.6-26.28-72.96-39.25c-2.56-0.82-0.38-4.04,1.63-2.65c8.05,3.85,15.88,8.14,23.83,12.21
		c17.8,9.41,35.77,18.55,52.96,29.05c1.69,1.39,5.03,2.59,4.31,5.3c-1.45,1.88-3.9,0.48-5.74,0.17c-23.66-7.25-46.92-15.73-70.24-24
		c-0.95,0.64-1.87,1.31-2.8,1.98c-1.66-1.67-2.84-4.06-5.19-4.8c-31.67-11.27-63.27-22.75-94.9-34.12
		c-18.56-6.64-37-13.68-55.93-19.19c-8.87-2.59-18.57-1.99-27.16,1.33c7.14-0.25,14.59-2.28,21.5,0.55
		c6.05,2.43,11.1,6.74,16.31,10.57c7.28,5.99,15.39,12.02,18.8,21.18c2.31,6.6,2.56,13.68,3.41,20.57
		c1.53,16.62,1.93,33.46-0.13,50.05c-1.57,11.21-4.27,22.61-10.57,32.19c-8.17,12.05-20.07,20.92-32.1,28.84
		c-17.64,11.23-36.57,20.37-56.01,28.05c-7.62,3.13-15.93,5.1-24.18,3.81c-7.07-1.08-12.59-5.9-18.23-9.87
		c2.47,3.54,5.68,6.47,8.68,9.55c5.93,5.96,13.31,10.1,20.29,14.67c43.01,27.09,87.17,52.37,132.25,75.86
		c37.77,19.46,76.31,37.74,116.63,51.34c47.5,16.56,95.45,32.17,144.55,43.34c23.62,5.21,47.61,9.57,71.87,9.89
		c10.34-0.27,20.98-0.92,30.62-5.04c8.47-3.72,16.35-8.76,23.39-14.76c23.23-19.99,37.36-48.63,45.04-77.89
		c3.87-15.82,7.05-32.21,5.11-48.55c-1.69-16.87-7.57-32.96-14.21-48.45c-11.66-26.48-25.17-52.27-33.88-79.96
		c-19.9-61.64-38.37-123.81-61.78-184.25c-14.8-38.9-31.73-76.94-49.76-114.44c-18.2-38.05-37.32-75.66-56.92-113.01
		c-17.88-33.82-35.97-67.54-55.57-100.4c-11.97-20.29-21.82-41.75-34.29-61.74c-9.79-15.69-21.96-29.93-36.32-41.62
		c-12.4-10.51-27.17-17.68-41.98-24.11c-20.25-8.63-41.17-15.57-62.23-21.88C1099.741,822.06,1080.671,816.77,1061.361,812.56
		 M817.141,825.64c-3.2,9.68-9.09,18.06-14.16,26.79c-4.86,8.19-10.24,16.08-15,24.31c-8.96,13.57-17.32,27.75-28.49,39.65
		c11.62,16.51,23.77,32.65,35.61,49.02c10.18,13.67,19.86,27.74,30.38,41.15c0-8.52-0.44-17.04-0.34-25.57
		c0.16-12.57-0.9-25.15-0.12-37.71c-3.53-2.34-6.49-5.45-8.82-8.98c-6.76-9.98-12.07-20.84-17.29-31.68
		c-3.67-8.23-7.98-16.25-10.65-24.88c1.47,0.09,3.14,0.1,3.61,1.84c8.56,18.66,16.44,37.9,28.23,54.82
		c5.22,8.03,15.45,9.93,24.33,10.41c6.72,0.08,13.71,0.51,20.18-1.66c6.75-3.18,10.87-10.01,13.24-16.83
		c4.73-12.18,8.95-24.55,13.19-36.9c0.88-2.01-0.35-4-1.06-5.82c-3.68-7.89-7.27-15.84-11.92-23.21
		c-9.91-15.46-22.18-29.2-32.94-44.05c-6.86-0.33-13.74-0.23-20.57-1.04C819.901,816.39,818.741,821.81,817.141,825.64
		 M884.901,916.39c-3.44,8.91-5.99,18.59-12.87,25.61c6.77,18.64,13.27,37.41,20.43,55.9c1.04-3.15,1.63-6.42,2.34-9.65
		c4.95-22.68,10.18-45.29,15.21-67.95c-8.46-7.26-11.7-18.32-16.56-27.95C890.361,900.27,887.931,908.44,884.901,916.39
		 M857.451,947.71c-8.33,0.5-16.81,0.57-24.91-1.69c-1.69-0.48-3.38-0.94-5.07-1.35c0.55,10.1,0.99,20.21,0.82,30.34
		c-0.31,10,0.66,19.99,0.12,29.99c0.1,2.83-0.98,6.46,1.88,8.32c1.58,3.21,3.97,5.94,6.07,8.83c12.18,16.48,23.99,33.25,36.72,49.31
		c1.91,2.39,3.61,5.05,6.17,6.84c1.7-8.89,2.51-17.92,3.75-26.87c1.88-14.59,4.32-29.12,7.65-43.44c0.47-1.97,0.72-4.05-0.14-5.94
		c-7.15-19.25-13.91-38.66-21.14-57.88C865.541,945.79,861.651,947.5,857.451,947.71 M1209.061,1070.93
		c6.25,22.42,12.05,44.97,17.9,67.51c9.98,39.38,20.13,78.74,28.63,118.48c1.79,9.23,4.39,18.62,2.91,28.1
		c-1.63,11.34-5.07,22.47-10.29,32.68c-3.67,7.33-12.39,12.22-20.54,10.1c-4.67-1.71-6.48-7.1-10.79-9.31
		c-3.85-1.38-8.07-1.89-12.11-1.23c-2.44,0.45-5.25,1.25-6.4,3.68c-2.32,4.99-2.54,11.13-0.08,16.11c1.57,2.98,5.06,4.04,8.21,4.27
		c10.63,0.87,21.13-1.86,31.18-5.04c8.19-2.81,16.34-6.41,22.95-12.12c6.65-5.8,10.05-14.49,10.9-23.12
		c1.01-12.01-0.58-24-1.48-35.96c-1.34-10.85-4.19-21.43-6.59-32.07c-11.36-46.4-23.99-92.48-36.31-138.63
		c-1.99-8.68-5.41-17.11-5.86-26.07C1217.131,1068.79,1213.031,1069.64,1209.061,1070.93 M1048.371,1089.32
		c2.15,11.11,2.73,22.44,4.09,33.66c5.13,49.46,9.92,98.97,16.73,148.24c1.41,9.69,2.78,19.47,6.23,28.69
		c3.92,11.52,8.09,23.13,14.72,33.42c3.57,5.36,8.2,10.72,14.74,12.28c10.36,2.58,21.21,1.2,31.59-0.59
		c3.08-0.42,5.32-2.81,8.18-3.82c4.01-0.27,8.19,0.62,12.04-1c4.66-1.79,10.62-3.29,12.53-8.51c1.94-6.94-4.16-15.56-11.71-14.6
		c-7.43,0.62-15.3,4.27-18.81,11.15c-1.71,3.25-0.83,8.56-5.07,9.92c-5.32,1.39-10.96,0.84-16.35,0.22
		c-6.68-1.01-14.41-2.76-18.18-8.97c-4.68-7.56-7.64-16.01-10.64-24.32c-7.5-21.96-13.34-44.46-17.78-67.22
		c-3.6-22.31-4.96-44.89-6.43-67.4c-1.75-27.56-2.6-55.16-3.72-82.74C1056.441,1088.02,1052.411,1088.72,1048.371,1089.32
		 M853.041,1151.27c-10.46,2.4-20.78,5.37-31.2,7.97c-42.54,11.74-85.64,21.28-128.58,31.4c-42.34,9.93-84.72,19.68-126.94,30.09
		c-41.35,10.56-82.86,20.54-123.99,31.96c-6.3,2.11-12.84,3.53-18.95,6.13c-2.45,0.71-1.78,3.7-1.38,5.58
		c1.35,5.09,2.88,10.14,3.66,15.37c3.61,21.7,10.36,42.68,15.95,63.92c5.31,20.09,10.78,40.15,15.74,60.34
		c9.65,39.64,18.58,79.45,27.87,119.17c0.7,3.8,4.86,4.94,7.93,6.29c14.78,5.53,29.11,12.3,44.29,16.73
		c28.83,7.98,57.99,14.71,87.01,21.95c13.08,3.05,25.88,7.2,39.02,10.06c19.6,5,39.42,9.03,59.08,13.81
		c22.27,5.16,44.58,10.21,66.9,15.18c11.81,2.81,23.83,5.44,36.05,4.98c9.96-0.46,20.62,0.97,28.93,6.91
		c4.97,3.98,9.61,8.65,12.49,14.42c4.81,9.32,6.99,19.72,8.59,30.01c10.76-0.75,21.4,2.14,32.19,1.81c9.4,0.91,18.74-0.7,28.06-1.8
		c15.6-1.98,31.11-4.6,46.74-6.38c8.63-1.42,17.37-1.56,26.09-1.18c-0.38-1.91-0.76-3.81-1.26-5.66
		c-5.87-19.93-11.22-40.01-17.1-59.94c-0.87-2.67-1.12-5.48-1.03-8.26c-4.13-3.21-8.87-5.55-12.74-9.08
		c-5.43-4.92-10.38-10.39-14.68-16.32c-1.91-2.36-1.56-6.12-4.27-7.8c-12.55-7.39-22.92-18.96-37.53-22.46
		c-16.09-3.4-32.39,0.78-48.53,1.53c-10.6,1.21-21.29,0.46-31.9,1.55c-11.13,0.24-22.2,1.68-33.34,1.59
		c-6.67-0.9-13.5,1.07-20.04-0.97c-3.85-0.83-6.98-3.53-8.98-6.82c-4.49-6.74-5.43-15.08-3.89-22.9c-7.46-0.87-14.97-0.5-22.44-0.21
		c-8.76-0.54-17.63-1.18-26.1-3.59c-4.38-1.2-8.76-4.22-9.84-8.85c-1.22-9.26-0.39-19.85,6.52-26.83c4.19-2.65,9.17-3.65,13.88-5.02
		c21.83-5.09,43.97-8.71,65.99-12.94c3.27-0.68,6.77-0.79,9.77-2.42c4.87-0.06,9.63-1.37,14.39-2.31c-4.53,0.58-9.41,0-13.63,1.92
		c-0.81-0.06-2.44-0.19-3.25-0.25c-24.57,3.13-49.18,6.35-73.8,9.25c-7.45,0.66-14.89,1.83-22.39,1.67
		c-5.69,0.14-9.85-4.61-12.98-8.78c-4.66-6.34-6.31-15.79-1.15-22.33c5.02-6.23,11.79-11.61,19.86-13
		c39.86-8.98,80.15-15.85,120.22-23.79c5.8-1.34,12.03-1.57,17.39-4.35c0.67,0.95,3.24,0.96,3.25-0.49
		c-0.95-0.8-1.91-0.79-2.89,0.04c-7.22-0.76-14.42,0.55-21.63,0.73c-14.27,1.18-28.61,1.79-42.75,4.14
		c-8.48,1.31-16.77,3.71-25.33,4.52c-10.65,1.03-21.19,3.36-31.93,3.37c-11.85,0.67-21.84-11.46-20.73-22.87
		c0.98-6.27,6.86-9.82,11.64-13.15c7.49-5.36,16.41-8,25.05-10.87c19.56-6.19,39.7-10.73,60.14-12.67
		c9.88-0.68,19.49-3.24,29.22-4.94c22.02-4.49,44.24-8.55,66.75-9.4c6.47-0.29,13.16,1.26,19.44-0.9
		c-0.65-5.71-2.39-11.19-3.74-16.74c-7.53-30.57-15.49-61.02-23.53-91.45c-5.2-18.89-10.26-37.84-16.68-56.35
		c-1.09-2.39-1.77-5.93-4.82-6.4C868.651,1144.63,861.131,1149.41,853.041,1151.27 M885.961,1321.59
		c-20.65,2.29-41.01,6.58-61.36,10.65c-10.75,2.06-21.72,2.58-32.49,4.46c-13.64,2.11-27,5.67-40.18,9.72
		c-8.88,2.92-18.01,5.74-25.71,11.22c-3.87,2.72-8.46,5.59-9.71,10.47c-0.94,6.35,2.86,12.4,7.41,16.5c4.99,4.62,12.33,3.47,18.52,3
		c13.9-1.91,27.95-2.87,41.66-5.97c11.94-2.65,24.16-3.65,36.34-4.6c12.35-0.9,24.7-1.97,37.09-2.31c5.31-0.19,10.74-0.9,15.97,0.39
		c0.9,1.29,0.71,2.37-0.58,3.25c-4.18,1.58-8.66,2.18-13,3.2c-27.62,5.6-55.35,10.65-83.01,16.01
		c-20.15,3.96-40.37,7.63-60.33,12.47c-5.15,1.03-9.35,4.44-13.09,7.94c-3.58,3.47-6.46,8.43-5.52,13.58
		c1.21,6.75,5.61,13.09,11.8,16.17c8.07,0.83,16.21-0.77,24.27-1.36c35.55-3.84,70.91-9.34,106.44-13.35
		c3.92-0.09,8.13-1.6,11.84,0.31c-0.31,1.3-0.75,2.8-2.29,3.09c-6.11,1.94-12.5,2.81-18.76,4.11c-28.73,5.35-57.6,9.98-86.17,16.13
		c-7.27,1.8-14.88,2.91-21.65,6.22c-4.67,4.68-6.2,11.7-6.47,18.12c0.02,4.39,0.78,10.23,5.64,11.87c7.14,2.6,14.86,3.67,22.43,3.88
		c7.11,0.8,14.29,0.64,21.44,0.63c3.43-0.07,6.92,0.01,10.27-0.87c11.31-4.62,23.9-3.36,35.56-6.66
		c20.37-5.72,40.58-11.99,60.79-18.28c8.41-2.39,16.54-5.88,25.13-7.57c0.08,0.71,0.24,2.12,0.32,2.82
		c-21.62,7.5-43.61,13.97-65.5,20.66c-18.48,5.21-36.96,11.23-56.17,12.97c-3.32,6.91-1.08,15.2,2.69,21.49
		c1.84,3.35,5.16,5.69,9.05,5.79c22.3,1.76,44.58-1.55,66.88-1.81c15.71-0.21,31.27-2.63,46.94-3.57c7.7-0.35,15.65-0.02,22.89,2.89
		c9.53,3.68,17.7,9.99,25.72,16.18c4.78,3.75,10.21,6.53,15.41,9.64c9.67,5.94,21.53,6.78,31.09,12.98
		c2.14,1.95,4.85-0.15,7.17-0.63c21.92-8.28,43.2-18.52,62.74-31.49c10.29-7.12,20.42-15.04,27.51-25.5
		c6.06-9.28,8.6-20.33,10.09-31.18c1.52-12.53,1.91-25.21,0.91-37.79c-12.41-10.19-24.67-20.67-37.23-30.71
		c-12.57-11.75-24.36-24.34-37.24-35.76c-16.22-14.51-33.49-28.16-52.96-38.07c-16.01-8.42-34.04-12.41-52.05-13
		C912.971,1319.76,899.401,1319.83,885.961,1321.59z"/>
	<path fill="#1E1B22" stroke="#1E1B22" stroke-width="0.5" d="M774.741,71.12c13.02-2.88,26.3-5.24,39.68-5.21
		c1.14,2.57,0.83,7.01,4.42,7.45c4.6,0.52,9.13-0.93,13.71-1.13c8.61-0.37,17.3-1.63,25.88-0.1c9.62,1.69,18.68,5.54,27.65,9.27
		c6.59,2.9,13.23,5.81,19.3,9.72c6.1,3.94,8.86,11.05,13.98,15.98c22.68,20.65,46.17,40.46,67.96,62.08
		c8.9,9.56,16.81,20.46,21.07,32.92c5.43,14.97,5.83,31.16,6.04,46.9c0.44,31.24-5.13,62.12-11.31,92.62
		c-5.23,23.28-11.16,46.44-18.86,69.05c-0.93,3.02-1.94,6.07-3.73,8.72c-0.7-6.8,0.41-13.57,0.78-20.34
		c0.47-14.06,2.02-28.05,2.37-42.11c0.79-8.61,0.82-17.26,1.58-25.87c0.48-6.23-0.1-12.6,1.34-18.72c0.83-0.95,1.84-1.76,2.64-2.75
		c-0.24-3.91-2.03-7.5-3.13-11.21c-1.23-3.29-1.9-7-4.35-9.65c-0.89-1.01-2.59-0.78-2.85,0.65c-1.15,5.58-0.01,11.55-2.09,16.97
		c-1.64,3.19-4.59,5.41-6.66,8.3c-1.91,2.27-1.51,5.43-1.87,8.18c-7.73-6.15-15.38-12.4-23.28-18.32c-1.6-1.23-3.49-1.95-5.37-2.57
		c-1.69,1.92-2.65,4.3-3.49,6.68c-10.26-10.14-19.74-21.13-30.74-30.5c-2.02-1.43-5.6-4.59-7.62-1.75
		c-0.36,3.48,1.24,6.77,2.51,9.91c2.81,6.06,5.92,11.97,8.97,17.91c2.42,4.8,5.38,9.44,6.38,14.8c-8.02-6.27-14.67-14.1-21.97-21.17
		c-12.52-12.5-24.79-25.41-39.06-35.95c-13.03-9.04-26.34-17.94-41.12-23.87c-19.97-8.36-41.36-13.41-62.98-14.65
		c-13.78-0.67-26.92,4.69-39.18,10.39c-1.31-0.44-2.62-0.87-3.91-1.3c-1.8,5.02-2.77,10.29-3.99,15.48
		c-4.27,17.38-8.54,34.8-14.15,51.81c-3.83,11.71-14.47,18.91-22.6,27.46c-2.13,1.97-2.8,4.85-3.59,7.52
		c-2.77-2.81-6.41-4.58-10.42-3.63c-1.75,4.78-1.68,9.93-2.33,14.92c-2.26,28.62-4.37,57.27-5.89,85.93
		c-2.19-3.05-3.93-6.78-7.34-8.64c-3.14-1.2-5.69,1.77-7.25,4.09c-2.87,4.68-5.32,9.93-5.26,15.54c-0.06,3.44-0.18,6.9-1.08,10.25
		c-5.38-7.51-8.01-16.49-11.33-25c-3.24-8.34-5.37-17.16-5.64-26.13c-0.29-11.7,0.3-23.4-0.07-35.1c-0.04-5.4-2.8-10.56-7.1-13.78
		c-3.79-3.2-8.85-5.99-9.89-11.26c-1.46-7.2-0.92-14.61-1.18-21.91c-0.38-12.63,0.1-25.27-0.3-37.9
		c-1.46-16.28,1.87-32.73-0.75-48.93c-0.67-0.07-2.02-0.22-2.69-0.29c-2.06,1.67-4.06,3.41-6.03,5.19
		c0.99-19.92,3.51-40.16,11.26-58.69c2.69-6.84,7.19-12.7,11.55-18.53c11.66-15.18,25.12-28.84,38.85-42.14
		c2.91-2.74,5.91-5.4,9.21-7.67c2.91,1.78,6,5.16,9.74,3.57c5.34-2.8,8.27-8.62,13.47-11.64c3.79,0.25,4.5,5.85,8.1,6.81
		c2.37,0.44,4.5-0.98,6.48-2.08c9.82-6.1,19.62-12.24,29.06-18.93c4.23-2.81,8.31-5.85,12.74-8.32c0.63,1.09,1.25,2.2,2.01,3.23
		c1.84,0.89,3.97,0,5.86-0.39C749.481,79.2,761.871,74.34,774.741,71.12z"/>
	<path fill="#F9BE94" stroke="#F9BE94" stroke-width="0.5" d="M735.631,228.07c8.11-2.02,16.57-1.44,24.82-0.67
		c28.54,3.45,56.61,12.94,80.51,29.1c9.97,6.49,19.69,13.45,28.22,21.79c3.42,3.49,7.43,6.49,10.3,10.47
		c2.52,5.28,7.25,8.89,11.25,12.99c4.22,4.12,8.37,8.31,12.38,12.64c1.82,2.04,4.2,3.42,6.65,4.59c2.61,1.51,4.84,3.63,7.71,4.7
		c2.07-1.04,2.62-3.3,1.74-5.35c-4.71-13.55-13.38-25.4-17.94-39c7.61,5.17,13.51,12.43,20.07,18.81
		c5.05,4.95,9.52,10.55,15.22,14.81c3.12-1.07,3.22-4.63,4.08-7.3c11.43,7.82,21.86,16.98,32.86,25.36
		c1.83,1.19,3.55,3.28,5.97,2.85c1.74-2.54-1.26-4.47-2.68-6.21c-2.18-2.51-5.04-5.06-5.28-8.57c1.08-3.81,4.82-5.93,6.95-9.11
		c3.06-4.07,2.79-9.41,3.29-14.22c1.41,3.51,2.53,7.12,3.47,10.78c-1.37,1.12-2.5,2.51-2.26,4.39c-1.3,28.48-3.23,56.92-4.66,85.38
		c-6.4-8.47-13.03-17.5-22.81-22.29c-5.39-2.76-11.61-1.34-17.24-0.27c-15.84,3.57-31.15,9.12-46.35,14.75
		c-2.38,0.96-5.39,2.11-6.38,4.6c1.19,4.54,2.81,9.29,6.14,12.74c1.66,1.88,4.45,1.78,6.68,1.14c4.71-1.33,9.01-3.75,13.5-5.66
		c8.51-4.05,17.74-6.16,26.58-9.34c6.33-1.75,13.36-4.47,19.79-1.71c6.6,3.53,10.54,10.2,15.13,15.83c0.94,1.39,2.62,1.8,4.11,2.38
		c-3.13,41.83-5.53,83.77-11.13,125.37c-2.47,20.59-10.93,39.95-21.32,57.72c-6.59,11.34-13.9,22.26-20.3,33.72
		c-13.16,24.07-25.99,48.35-40.06,71.91c-3.32,4.82-5.83,11.47-12.3,12.69c-16.18,4.1-32.79,7.01-49.46,7.86
		c-6.73-1.3-13.58-0.58-20.37-0.77c-3.18-0.09-6.33,0.28-9.43,0.86c-14.7-0.21-29.41-4.62-41.78-12.64
		c-21.89-13.79-40.87-31.65-58.76-50.2c-17.91-19.05-34.85-39.26-48.23-61.79c-11.94-19.63-16.14-42.72-18.79-65.21
		c-0.9-10.51-2.29-21.08-1.84-31.63c0.62-3.43,0.99-6.9,0.89-10.37c-0.17-6.45,0.39-12.97-0.89-19.34
		c-0.29-2.14-0.36-4.31-0.07-6.44c0.73-1.8,3.3-2.4,3.38-4.58c1.22-7.52-0.36-15.67,3.46-22.64c1.43-2.38,2.55-6.45,5.7-6.69
		c3.8,3.42,5.46,8.49,8.8,12.29c1.1,0.42,2.31,0.17,3.46,0.13l0.76-0.08c0.72-7.66,0.85-15.47-0.35-23.1
		c1.37-27.25,3.46-54.53,6.04-81.72c3.85-0.18,4.9,3.73,6.54,6.39c0.7,1.4,2.65,1.65,3.73,0.5c1.81-3.8,0.79-8.84,4.25-11.82
		c6.32-5.99,13.2-11.55,18.25-18.74c4.07-5.67,5.77-12.57,7.86-19.13c5.08-17.38,9.4-34.97,13.45-52.62
		C717.561,234.33,726.311,230.29,735.631,228.07 M714.921,374.46c-4.62,3.2-9.99,6.39-11.99,11.96c-1.55,4.31-2.19,8.89-2.52,13.43
		c1.17,0.23,2.52,1.75,3.7,0.83c9.95-6.78,20.11-13.55,31.48-17.71c5.02-2.17,10.42-3.75,15.93-3.74
		c8.14,0.52,16.04,2.74,23.86,4.92c17.28,4.86,33.93,11.71,51.19,16.63c5.35,2.03,9.12-3.55,10.82-7.8c1.03-2.77,2.2-7.18-1.13-8.83
		c-7.27-3.35-15.19-4.97-22.84-7.2c-20.74-5.26-41.62-10.36-62.88-12.97C737.741,361.9,725.491,367.9,714.921,374.46
		 M772.411,405.61c-12.69,2.05-25.33,5.06-37.18,10.13c-3.18,1.54-6.95,2.86-8.54,6.3c1.29,1.09,2.71,2.04,4.4,2.42
		c6.77,1.89,13.72,3.03,20.66,4.16c10.24,1.48,20.62,3.3,30.98,1.93c7.74-1.04,15.45-2.4,22.98-4.5
		c-3.77-6.94-8.86-13.28-15.11-18.14C785.411,403.89,778.471,404.78,772.411,405.61 M911.961,420.45
		c-8.56,3.37-17.23,6.85-24.75,12.26c-1.49,0.83-1.76,2.41-1.63,3.97c7.51,2.06,15.18,3.45,22.93,4.18
		c13.52,1.72,27.42,2.15,40.76-1.04c2.37-0.76,5.65-1.88,5.9-4.8c-0.37-2.92-2.65-5.07-4.62-7.04c-4.89-4.42-10.67-7.94-16.95-9.95
		C926.391,415.75,918.791,417.95,911.961,420.45 M876.411,460.51c3.84,15.78,8.02,31.49,12.51,47.09
		c2.22,8.37,8.32,16.01,7.16,25.03c-1.11,6.25-8.45,7.25-13.14,9.83c-0.17,0.44-0.51,1.32-0.68,1.75c4.46-1.24,8.88-3.06,12.6-5.86
		c4.08-3.44,3.36-9.51,2.32-14.15c-1.98-6.18-5.09-11.93-6.89-18.17c-4.35-14.89-7.97-29.98-12.08-44.93
		C877.761,460.96,876.861,460.66,876.411,460.51 M798.901,508.33c-2.63,5.16-4.84,10.83-4.59,16.72c0.09,3.97,2.45,7.37,4.54,10.58
		c1.37,1.83,2.56,4.19,5.07,4.61c-2.37-5.17-7.45-9.19-7.86-15.24c-0.24-7.85,3.81-14.87,7.62-21.43
		C801.031,503.67,800.111,506.43,798.901,508.33 M886.111,526.53c-3.71,5.87-7,12.18-11.93,17.17c-3.15,3-7.77,2.66-11.75,2.28
		c-5.54-0.62-11.69-0.88-16-4.89c-3.74-3.55-7.98-6.8-13.15-7.84c-6.14-1.38-13.28-2.64-18.96,0.81c-0.1,2.67,1.35,5.75,4.19,6.31
		c5.8-0.06,11.48-3.26,17.29-1.56c7.01,1.69,12.49,7.23,19.77,8.13c4.84,0.52,9.78,1.66,14.66,0.76c5.41-1.3,8.41-6.34,11.35-10.59
		c2.35-3.61,5.17-7.12,6.18-11.39C887.351,525.92,886.521,526.32,886.111,526.53 M743.711,563.95c-1.25,1.34-1.74,3.73-0.33,5.14
		c8.67,10.61,17.72,20.91,26.96,31.03c7.2,7.47,14.11,15.4,22.58,21.46c13.88,8.88,30.94,6.57,46.56,6.71
		c14.76-0.05,30.44-1.74,42.84-10.48c10.58-7.61,19.62-17.4,26.48-28.47c2.6-4.59,5.46-9.72,4.58-15.19
		c-1.28-3.79-5.53-5.07-9.05-5.74c-9.9-1.56-19.95-0.7-29.89-0.17c-8.52,0.97-17.12,0.85-25.62,2.04c-6.44,1-12.88-0.21-19.26-0.98
		c-26.02-1.86-52.04-3.49-78.06-5.32C748.911,563.94,746.271,563.45,743.711,563.95z"/>
	<path fill="#EFC9AB" stroke="#EFC9AB" stroke-width="0.5" d="M879.481,288.76c7.39,6.32,13.77,13.75,20.77,20.5
		c3.12,3.29,6.66,6.18,9.51,9.72c-2.45-1.17-4.83-2.55-6.65-4.59c-4.01-4.33-8.16-8.52-12.38-12.64
		C886.731,297.65,882.001,294.04,879.481,288.76z"/>
	<path fill="#F9BE94" stroke="#F9BE94" stroke-width="0.5" d="M582.691,350.14c6.53,1.21,13.82,3.12,17.9,8.82
		c2.17,2.82,2.57,6.51,2.78,9.95c0.71,16.87-2.07,34.16,2.62,50.66c3.73,12.96,8.68,25.63,15.42,37.34
		c-1.83,5.66-1.19,11.72-1.51,17.57c-2.86,1.15-5.82,2.11-8.92,2.21c-4.62-6.41-6.48-14.25-9.98-21.24
		c-3.63-8.14-9.74-15.03-12.28-23.66c-3.06-10.16-4.35-20.74-5.69-31.23c-0.22-2.04-0.63-4.09-0.33-6.13
		c1.33-7.86,1.33-15.98,0.02-23.85C582.531,363.78,582.091,356.93,582.691,350.14z"/>
	<path fill="#060202" stroke="#060202" stroke-width="0.5" d="M714.921,374.46c10.57-6.56,22.82-12.56,35.62-10.48
		c21.26,2.61,42.14,7.71,62.88,12.97c7.65,2.23,15.57,3.85,22.84,7.2c3.33,1.65,2.16,6.06,1.13,8.83c-1.7,4.25-5.47,9.83-10.82,7.8
		c-17.26-4.92-33.91-11.77-51.19-16.63c-7.82-2.18-15.72-4.4-23.86-4.92c-5.51-0.01-10.91,1.57-15.93,3.74
		c-11.37,4.16-21.53,10.93-31.48,17.71c-1.18,0.92-2.53-0.6-3.7-0.83c0.33-4.54,0.97-9.12,2.52-13.43
		C704.931,380.85,710.301,377.66,714.921,374.46 M728.441,370.92c-5.12,2.36-10.28,4.8-14.77,8.26c-2.79,2.17-5.96,4.26-7.38,7.64
		c-1.37,2.87-1.82,6.06-2.02,9.21c13.06-7.47,25.73-16.52,40.77-19.51c11.27-2.02,22.28,2.24,33.04,4.97
		c13.06,4.01,25.97,8.48,38.88,12.96c3.83,1.17,7.58,2.76,11.56,3.39c1.69,0.49,2.78-1.07,3.7-2.2c1.87-2.4,2.84-5.35,3.2-8.34
		c-3.63-1.68-7.44-2.92-11.3-3.95c-20.27-5.86-40.86-10.63-61.63-14.38c-6.3-0.99-12.63-2.18-19.04-2.04
		C738.211,367.04,733.171,368.77,728.441,370.92z"/>
	<path fill="#1E1B22" stroke="#1E1B22" stroke-width="0.5" d="M728.441,370.92c4.73-2.15,9.77-3.88,15.01-3.99
		c6.41-0.14,12.74,1.05,19.04,2.04c20.77,3.75,41.36,8.52,61.63,14.38c3.86,1.03,7.67,2.27,11.3,3.95c-0.36,2.99-1.33,5.94-3.2,8.34
		c-0.92,1.13-2.01,2.69-3.7,2.2c-3.98-0.63-7.73-2.22-11.56-3.39c-12.91-4.48-25.82-8.95-38.88-12.96
		c-10.76-2.73-21.77-6.99-33.04-4.97c-15.04,2.99-27.71,12.04-40.77,19.51c0.2-3.15,0.65-6.34,2.02-9.21
		c1.42-3.38,4.59-5.47,7.38-7.64C718.161,375.72,723.321,373.28,728.441,370.92z"/>
	<path fill="#FBD7BB" stroke="#FBD7BB" stroke-width="0.5" d="M582.721,370.58c1.31,7.87,1.31,15.99-0.02,23.85
		C581.861,386.52,581.991,378.49,582.721,370.58z"/>
	<path fill="#1E1B22" stroke="#1E1B22" stroke-width="0.5" d="M939.401,376.82c4.71-0.88,9.81-1.91,14.43-0.13
		c5.77,2.9,10.54,7.45,14.64,12.38c3.52,4.12,7.51,8.55,7.73,14.28c-3.77-2.61-5.7-6.94-8.96-10.06c-2.91-2.83-6.08-5.75-10.07-6.87
		c-6.67-1.38-13.48,0.27-19.77,2.48c-11.02,3.86-22.45,6.72-32.85,12.14c-3.32,1.51-6.92,3.7-10.69,2.68
		c-2.61-2.94-3.97-6.74-5-10.47C905.401,386.92,922.061,380.61,939.401,376.82z"/>
	<path fill="#040202" stroke="#040202" stroke-width="0.5" d="M772.411,405.61c6.06-0.83,13-1.72,18.19,2.3
		c6.25,4.86,11.34,11.2,15.11,18.14c-7.53,2.1-15.24,3.46-22.98,4.5c-10.36,1.37-20.74-0.45-30.98-1.93
		c-6.94-1.13-13.89-2.27-20.66-4.16c-1.69-0.38-3.11-1.33-4.4-2.42c1.59-3.44,5.36-4.76,8.54-6.3
		C747.081,410.67,759.721,407.66,772.411,405.61 M774.531,410.23c1.43,2.7,2.62,5.68,2.09,8.81c-0.3,3.78-3.21,6.5-5.78,8.96
		c7.9-0.1,15.78-0.95,23.6-2.08c2.04-0.24,3.9-1.19,5.79-1.97c-3.3-4.56-7.57-8.42-12.37-11.35
		C783.881,410.13,779.051,410.09,774.531,410.23 M751.701,417.19c-2.29,1.8-0.67,4.97,0.95,6.63c2.72,2.86,6.64-0.08,9.64-0.96
		c-0.83-1.57-2.25-2.96-2.5-4.75c0.79-1.74,2.42-2.91,3.67-4.31C759.391,414.13,755.091,414.73,751.701,417.19 M732.541,421.08
		c4.22,1.49,8.64,2.31,13.01,3.24c-1.75-2.25-2.55-4.93-2.26-7.77C739.581,417.74,735.851,418.98,732.541,421.08z"/>
	<path fill="#FEFDFD" stroke="#FEFDFD" stroke-width="0.5" d="M774.531,410.23c4.52-0.14,9.35-0.1,13.33,2.37
		c4.8,2.93,9.07,6.79,12.37,11.35c-1.89,0.78-3.75,1.73-5.79,1.97c-7.82,1.13-15.7,1.98-23.6,2.08c2.57-2.46,5.48-5.18,5.78-8.96
		C777.151,415.91,775.961,412.93,774.531,410.23z"/>
	<path fill="#1E1E20" stroke="#1E1E20" stroke-width="0.5" d="M751.701,417.19c3.39-2.46,7.69-3.06,11.76-3.39
		c-1.25,1.4-2.88,2.57-3.67,4.31c0.25,1.79,1.67,3.18,2.5,4.75c-3,0.88-6.92,3.82-9.64,0.96
		C751.031,422.16,749.411,418.99,751.701,417.19z"/>
	<path fill="#F7D3B6" stroke="#F7D3B6" stroke-width="0.5" d="M648.821,415.54c1.2,7.63,1.07,15.44,0.35,23.1l-0.76,0.08
		C648.151,430.98,647.591,423.23,648.821,415.54z"/>
	<path fill="#FCFBFA" stroke="#FCFBFA" stroke-width="0.5" d="M732.541,421.08c3.31-2.1,7.04-3.34,10.75-4.53
		c-0.29,2.84,0.51,5.52,2.26,7.77C741.181,423.39,736.761,422.57,732.541,421.08z"/>
	<path fill="#030202" stroke="#030202" stroke-width="0.5" d="M911.961,420.45c6.83-2.5,14.43-4.7,21.64-2.42
		c6.28,2.01,12.06,5.53,16.95,9.95c1.97,1.97,4.25,4.12,4.62,7.04c-0.25,2.92-3.53,4.04-5.9,4.8c-13.34,3.19-27.24,2.76-40.76,1.04
		c-7.75-0.73-15.42-2.12-22.93-4.18c-0.13-1.56,0.14-3.14,1.63-3.97C894.731,427.3,903.401,423.82,911.961,420.45 M935.561,423.64
		c0.9,5.98-0.46,12.66-5.88,16.1c6.64-0.89,13.69-0.02,19.93-2.95c-0.21-1.27-0.48-2.58-1.35-3.56
		C944.891,429.04,940.301,426.06,935.561,423.64 M916.861,433.5c2.1,0.25,4.22,0.47,6.35,0.65c-0.94-1.08-2-2.07-2.67-3.33
		c-0.07-1.79,0.94-3.4,1.49-5.06C918.901,427.02,914.661,429.54,916.861,433.5 M888.631,435.06c6.39,2.59,13.44,2.65,20.15,3.99
		c-2.69-3.27-3.89-7.5-2.29-11.56C900.441,429.78,894.421,432.2,888.631,435.06z"/>
	<path fill="#FDFDFD" stroke="#FDFDFD" stroke-width="0.5" d="M935.561,423.64c4.74,2.42,9.33,5.4,12.7,9.59
		c0.87,0.98,1.14,2.29,1.35,3.56c-6.24,2.93-13.29,2.06-19.93,2.95C935.101,436.3,936.461,429.62,935.561,423.64z"/>
	<path fill="#313131" stroke="#313131" stroke-width="0.5" d="M916.861,433.5c-2.2-3.96,2.04-6.48,5.17-7.74
		c-0.55,1.66-1.56,3.27-1.49,5.06c0.67,1.26,1.73,2.25,2.67,3.33C921.081,433.97,918.961,433.75,916.861,433.5z"/>
	<path fill="#FCFDFD" stroke="#FCFDFD" stroke-width="0.5" d="M888.631,435.06c5.79-2.86,11.81-5.28,17.86-7.57
		c-1.6,4.06-0.4,8.29,2.29,11.56C902.071,437.71,895.021,437.65,888.631,435.06z"/>
	<path fill="#0E0402" stroke="#0E0402" stroke-width="0.5" d="M876.411,460.51c0.45,0.15,1.35,0.45,1.8,0.59
		c4.11,14.95,7.73,30.04,12.08,44.93c1.8,6.24,4.91,11.99,6.89,18.17c1.04,4.64,1.76,10.71-2.32,14.15
		c-3.72,2.8-8.14,4.62-12.6,5.86c0.17-0.43,0.51-1.31,0.68-1.75c4.69-2.58,12.03-3.58,13.14-9.83c1.16-9.02-4.94-16.66-7.16-25.03
		C884.431,492,880.251,476.29,876.411,460.51z"/>
	<path fill="#FCD6B4" stroke="#FCD6B4" stroke-width="0.5" d="M623.681,466.65c1.28,6.37,0.72,12.89,0.89,19.34
		c0.1,3.47-0.27,6.94-0.89,10.37C622.931,486.49,622.991,476.52,623.681,466.65z"/>
	<path fill="#0E0402" stroke="#0E0402" stroke-width="0.5" d="M798.901,508.33c1.21-1.9,2.13-4.66,4.78-4.76
		c-3.81,6.56-7.86,13.58-7.62,21.43c0.41,6.05,5.49,10.07,7.86,15.24c-2.51-0.42-3.7-2.78-5.07-4.61
		c-2.09-3.21-4.45-6.61-4.54-10.58C794.061,519.16,796.271,513.49,798.901,508.33z"/>
	<path fill="#0E0402" stroke="#0E0402" stroke-width="0.5" d="M886.111,526.53c0.41-0.21,1.24-0.61,1.65-0.81
		c-1.01,4.27-3.83,7.78-6.18,11.39c-2.94,4.25-5.94,9.29-11.35,10.59c-4.88,0.9-9.82-0.24-14.66-0.76
		c-7.28-0.9-12.76-6.44-19.77-8.13c-5.81-1.7-11.49,1.5-17.29,1.56c-2.84-0.56-4.29-3.64-4.19-6.31c5.68-3.45,12.82-2.19,18.96-0.81
		c5.17,1.04,9.41,4.29,13.15,7.84c4.31,4.01,10.46,4.27,16,4.89c3.98,0.38,8.6,0.72,11.75-2.28
		C879.111,538.71,882.401,532.4,886.111,526.53 M816.201,535.08c0.67,1.59,1.73,4.09,3.93,3.39c5.76-1.15,11.56-2.57,17.48-1.7
		C830.981,533.89,823.151,532.82,816.201,535.08z"/>
	<path fill="#201D22" stroke="#201D22" stroke-width="0.5" d="M816.201,535.08c6.95-2.26,14.78-1.19,21.41,1.69
		c-5.92-0.87-11.72,0.55-17.48,1.7C817.931,539.17,816.871,536.67,816.201,535.08z"/>
	<path fill="#080201" stroke="#080201" stroke-width="0.5" d="M743.711,563.95c2.56-0.5,5.2-0.01,7.79,0.03
		c26.02,1.83,52.04,3.46,78.06,5.32c6.38,0.77,12.82,1.98,19.26,0.98c8.5-1.19,17.1-1.07,25.62-2.04
		c9.94-0.53,19.99-1.39,29.89,0.17c3.52,0.67,7.77,1.95,9.05,5.74c0.88,5.47-1.98,10.6-4.58,15.19
		c-6.86,11.07-15.9,20.86-26.48,28.47c-12.4,8.74-28.08,10.43-42.84,10.48c-15.62-0.14-32.68,2.17-46.56-6.71
		c-8.47-6.06-15.38-13.99-22.58-21.46c-9.24-10.12-18.29-20.42-26.96-31.03C741.971,567.68,742.461,565.29,743.711,563.95
		 M760.331,566.33c1.93,1.22,4.14,1.87,6.35,2.46c20.36,5.78,41.09,11.93,62.42,12.02c12.25,0.78,24.55,0.71,36.81,0
		c12.88,0.64,25.39-3.19,37.92-5.57c1.87-0.12,4.48-1.06,5.59,1.04c-0.29,2.16-2.18,3.58-3.64,5.01
		c-5.4,4.63-11.47,8.41-16.82,13.09c-4.75,4.13-9.82,8.18-15.91,10.08c-14.84,3.75-30.33,3.68-45.54,3.56
		c-13.66-0.11-27.21-3.41-39.41-9.54c-10.84-5.42-21.17-11.89-30.76-19.28c-4.25-3.19-7.58-7.43-11.85-10.56
		c2.9,4.46,6.83,8.14,10.14,12.3c8.63,9.98,17.41,19.86,26.75,29.18c5.14,4.95,10.28,10.32,17.13,12.84
		c11.35,4.89,23.96,3.62,35.99,3.7c14.87-0.22,30.71-0.74,43.71-8.88c10.15-6.64,18.63-15.65,25.61-25.51
		c3.19-4.94,6.77-10.21,6.94-16.28c0.2-3.95-4.28-5.11-7.32-5.76c-15.59-2.6-31.31,0.63-46.94,0.91
		c-6.65,0.66-13.33,1.79-20.01,0.95c-11.23-1.61-22.59-1.85-33.88-2.85C789.171,568.36,774.751,567.37,760.331,566.33
		 M747.141,567.06c4.18,5.12,9.32,9.4,14.59,13.35c1.11-3.67,0.88-7.53,0.86-11.3C757.611,567.48,752.361,566.89,747.141,567.06
		 M764.611,570.03c-0.24,3.89-0.67,7.77-1.01,11.66c16.52,11.31,34.55,22.15,54.95,23.95c15.7,1.25,31.57,0.81,47.17-1.4
		c6.89-0.81,13.63-3.68,18.62-8.54c1.57-5.05,2.59-10.25,4.23-15.28c-9.91,1.89-20.01,2.62-30.09,2.61
		c-14.82,0.26-29.69,0.31-44.43-1.39C797.231,579.42,780.851,574.81,764.611,570.03 M891.271,579.87
		c-2.95,3.98-3.04,9.42-4.64,14.04c6.86-5.85,14.99-10.24,21-17.02C902.071,577.03,896.521,578.13,891.271,579.87z"/>
	<path fill="#FAC2B1" stroke="#FAC2B1" stroke-width="0.5" d="M760.331,566.33c14.42,1.04,28.84,2.03,43.28,2.91
		c11.29,1,22.65,1.24,33.88,2.85c6.68,0.84,13.36-0.29,20.01-0.95c15.63-0.28,31.35-3.51,46.94-0.91c3.04,0.65,7.52,1.81,7.32,5.76
		c-0.17,6.07-3.75,11.34-6.94,16.28c-6.98,9.86-15.46,18.87-25.61,25.51c-13,8.14-28.84,8.66-43.71,8.88
		c-12.03-0.08-24.64,1.19-35.99-3.7c-6.85-2.52-11.99-7.89-17.13-12.84c-9.34-9.32-18.12-19.2-26.75-29.18
		c-3.31-4.16-7.24-7.84-10.14-12.3c4.27,3.13,7.6,7.37,11.85,10.56c9.59,7.39,19.92,13.86,30.76,19.28
		c12.2,6.13,25.75,9.43,39.41,9.54c15.21,0.12,30.7,0.19,45.54-3.56c6.09-1.9,11.16-5.95,15.91-10.08
		c5.35-4.68,11.42-8.46,16.82-13.09c1.46-1.43,3.35-2.85,3.64-5.01c-1.11-2.1-3.72-1.16-5.59-1.04
		c-12.53,2.38-25.04,6.21-37.92,5.57c-7.72-1.69-15.61-0.43-23.41-0.81c-4.49-0.22-9-0.11-13.4,0.81
		c-21.33-0.09-42.06-6.24-62.42-12.02C764.471,568.2,762.261,567.55,760.331,566.33z"/>
	<path fill="#675949" stroke="#675949" stroke-width="0.5" d="M747.141,567.06c5.22-0.17,10.47,0.42,15.45,2.05
		c0.02,3.77,0.25,7.63-0.86,11.3C756.461,576.46,751.321,572.18,747.141,567.06z"/>
	<path fill="#FFFFFF" stroke="#FFFFFF" stroke-width="0.5" d="M764.611,570.03c16.24,4.78,32.62,9.39,49.44,11.61
		c14.74,1.7,29.61,1.65,44.43,1.39c10.08,0.01,20.18-0.72,30.09-2.61c-1.64,5.03-2.66,10.23-4.23,15.28
		c-4.99,4.86-11.73,7.73-18.62,8.54c-15.6,2.21-31.47,2.65-47.17,1.4c-20.4-1.8-38.43-12.64-54.95-23.95
		C763.941,577.8,764.371,573.92,764.611,570.03z"/>
	<path fill="#695948" stroke="#695948" stroke-width="0.5" d="M891.271,579.87c5.25-1.74,10.8-2.84,16.36-2.98
		c-6.01,6.78-14.14,11.17-21,17.02C888.231,589.29,888.321,583.85,891.271,579.87z"/>
	<path fill="#FADED0" stroke="#FADED0" stroke-width="0.5" d="M829.101,580.81c4.4-0.92,8.91-1.03,13.4-0.81
		c7.8,0.38,15.69-0.88,23.41,0.81C853.651,581.52,841.351,581.59,829.101,580.81z"/>
	<path fill="#DC946C" stroke="#DC946C" stroke-width="0.5" d="M637.401,587.76c14.61,26.4,34.04,49.8,54.82,71.56
		c12.17,12.52,24.84,24.59,38.6,35.38c9.5,7.41,19.44,14.44,30.42,19.51c14.8,6.53,31.28,7.77,47.26,7.75
		c21.88-0.62,43.76-3.42,64.93-9.02c5.74-1.21,9.27-6.19,12.02-10.95c4.66-6.88,8.26-14.39,12.82-21.33
		c1.64,9.42,2.91,18.91,4.46,28.35c-3.2,9.44-7.56,18.51-11.58,27.66c-8.86,20.47-22.02,38.69-35.9,56.02
		c-3.59,4.48-9.23,6.81-12.53,11.52c-2.05,2.68-0.9,6.06-0.05,8.95c-4.29-0.08-8.58-0.13-12.85-0.46c0.16-4.84-4.85-6.56-8.07-9
		c-54.55-35.88-110.19-70.1-164.18-106.83c-6.7-4.97-14.09-9.21-19.94-15.21c-1.65-6.49,1.2-13.07,3.47-19.06
		c1.73-0.63,3.48-1.24,5.21-1.89c0.52-5.8-0.8-11.53-1.4-17.27C642.611,624.85,639.651,606.34,637.401,587.76z"/>
	<path fill="#020104" stroke="#020104" stroke-width="0.5" d="M622.321,654.2c3.81-3.7,8.2-6.85,13.23-8.64
		c-0.2,1.25-0.39,2.51-0.58,3.78c-13.56,6.72-21.5,20.36-29.65,32.47c-2.48,4.1-6.28,7.12-9.05,10.97c-2.07,2.81-0.7,6.36,0.09,9.37
		c3.55,11.58,8.26,22.77,13.25,33.8c6.86,14.8,14.41,29.47,24.8,42.16c24.63,31.16,51.17,60.74,77.55,90.42
		c8.19,9.16,16.46,18.24,24.7,27.36c5.88,6.48,9.49,15.12,17.16,19.85c-0.57,0.78-1.14,1.57-1.69,2.38
		c-8.14-3.89-11.57-12.98-17.38-19.36c-31.66-35.08-63.34-70.18-93.4-106.66c-8.84-10.98-17.94-21.9-24.54-34.42
		c-9.95-18.42-18.57-37.66-24.57-57.75c-7.37,11.22-14.25,22.8-19.9,34.99c-7.73,16.36-10.03,34.53-12.71,52.23
		c-4.19,33.12-7.53,66.44-7.23,99.86c-0.13,13.68,0.03,27.36,0.01,41.04c-0.38,5.3,2.37,10.02,4.15,14.84
		c3.85,9.01,7.99,18.11,14.33,25.69c2.58,2.84,6.11,6.33,10.33,5.09c7.85-2.23,14.49-7.29,21.08-11.91
		c12.34-9.17,23.93-19.31,35.2-29.75c2.76-2.27,1.78-6.3,2.86-9.37c0.69,0.22,2.06,0.68,2.74,0.91c-1.57,21.4-4.33,42.76-4.52,64.24
		c3.69,0.37,7.47,0.64,10.93,2.14c20.71,8.34,41.28,17.25,60.64,28.43c14.86,8.48,28.79,18.46,42.94,28.04
		c38,26.59,75.49,53.89,112.85,81.36c-0.46,0.65-1.39,1.96-1.85,2.61c-34.36-25.02-68.68-50.09-103.37-74.64
		c-12.6-8.75-25.22-17.47-38.05-25.87c-19.78-12.88-41.14-23.08-62.89-32.16c-6.32-2.41-12.42-5.94-19.32-6.3
		c-2.51-0.01-5.47-1.45-5.12-4.38c-0.11-17.22,2.16-34.34,3.32-51.49c-13.86,12.46-27.81,25-43.52,35.13
		c-4.6,2.74-9.35,5.73-14.75,6.48c-5.34,0.59-9.57-3.5-12.74-7.26c-6.7-8.11-10.59-17.99-15.08-27.37
		c0.33,43.8,1.61,87.6,1.62,131.4c9.39,0.28,19.28,1.07,27.63,5.77c6.5,4.39,11.51,10.63,16.07,16.93
		c6.37,9.25,12.23,19.81,11.78,31.4c0.41,14.78-7.71,28.18-17.52,38.61c-7.87,8.32-18.09,14.81-29.52,16.7
		c-8.32,1.65-16.82-0.25-24.77-2.71c-8.74-2.91-17.23-6.85-24.68-12.32c-6.1-4.42-10.57-10.89-12.94-18.01
		c-2.93-8.77-3.37-18.16-2.82-27.32c1.84-17.5,11.8-33.84,26.35-43.67c1.33-0.79,2.73-1.42,4.13-2.07
		c-1.52-10.32-1.64-20.77-2.29-31.16c-2.11-55.34-3.33-110.72-2.83-166.1c-0.29-4.4-2.73-8.29-3.48-12.61
		c-6.3-27.79-12.62-55.61-17.31-83.74c-1.64-8.62-1.13-17.42-0.42-26.1c0.94-7.21,3.52-14.49,8.63-19.8
		c4.7-4.5,10.4-7.76,15.96-11.07c10.01-5.89,20.65-10.63,30.96-15.91c3.79-5.95,6.98-12.29,10.9-18.18
		c7.16-10.91,14.16-22.31,24.39-30.66c4.68-3.75,9.99-7.24,16.09-7.89C613.091,653.52,617.741,653.65,622.321,654.2 M601.771,659.3
		c-7.94,4.37-14.42,11-19.79,18.22c-17.02,23.61-31.67,49.41-39.3,77.68c-5.95,21.08-9.81,42.7-12.66,64.4
		c-1.89,15.76-3.6,31.57-3.72,47.46c-0.87,13.3-0.25,26.62-0.43,39.94c0.2,13.64-0.45,27.3,0.38,40.93
		c0.37,32.05,1.26,64.08,2.46,96.12c0.69,10.61,0.7,21.29,2.07,31.86c3.08,1.27,6.36,0.28,9.51-0.14c3.39-0.56,6.83-0.67,10.26-0.83
		c1.54-5.18,0.32-10.6,0.36-15.88c-0.1-18.04-0.51-36.08-0.5-54.11c-1-11.63-0.19-23.3-0.82-34.94c0.17-14.68-0.71-29.34-0.08-44
		c-0.25-14.66-0.69-29.33-0.19-44c-0.21-12.36,0.15-24.73,1.31-37.04c1.43-18.61,2.99-37.22,5.53-55.72
		c1.98-14.26,4.16-28.55,8.18-42.4c4.87-14.97,12.85-28.68,21.06-42.02c2.49-4.16,5.63-7.93,7.66-12.36
		c1.97-4.4,6.27-7.05,8.8-11.07c5.57-8.38,11.02-16.88,17.77-24.38C613.641,656.71,607.191,656.26,601.771,659.3 M524.811,731.29
		c-4.64,2.9-9.48,5.72-13.2,9.8c-5.97,7.19-7.34,16.89-7.24,25.94c-0.68,10.05,1.54,19.93,3.27,29.77
		c3.98,20.95,8.55,41.79,13.23,62.6c0.6,2.71,0.91,5.56,2.26,8.05c0.19-20.85,2.77-41.6,5.78-62.21
		c4.89-30.65,11.49-61.57,25.7-89.41C544.431,720.47,534.441,725.59,524.811,731.29 M552.831,1077.35
		c-7.55,1.59-15.39,1.44-22.97,2.9c-5.63,1.24-9.53,5.79-13.49,9.62c-6.37,6.18-10.64,14.21-13.42,22.56
		c-3.23,9.77-3.04,20.33-1.29,30.37c1.5,8.59,5.67,16.99,12.72,22.35c7.14,5.39,15.33,9.28,23.78,12.15
		c8.07,2.63,16.79,4.51,25.24,2.58c14.6-2.86,26.27-13.54,34.45-25.49c6.5-9.48,10.18-21.35,8.15-32.84
		c-1.87-10.2-7.69-19.08-13.82-27.22c-4.97-6.09-10.49-12.67-18.49-14.6C566.911,1078.08,559.811,1076.69,552.831,1077.35z"/>
	<path fill="#D4D1E6" stroke="#D4D1E6" stroke-width="0.5" d="M634.971,649.34c2.33-1.02,4.76-1.82,7.22-2.51
		c0.02,2.18,0.95,4.6-0.26,6.62c-3.85,7.41-7.44,15.23-8.14,23.66c-0.37,3.37,0.73,6.95,3.6,8.98c9.65,7.83,20.11,14.59,30.37,21.6
		c37.9,25.31,76.38,49.73,114.72,74.37c14.5,9.49,29.37,18.47,43.44,28.59c-4.55,2.14-9.04,5.17-10.36,10.36
		c-4.11,13.07-12.12,24.29-19.04,35.96c-10.42,16.77-20.84,33.6-32.67,49.43c-2.9,3.51-5.47,7.83-10.03,9.34
		c-7.67-4.73-11.28-13.37-17.16-19.85c-8.24-9.12-16.51-18.2-24.7-27.36c-26.38-29.68-52.92-59.26-77.55-90.42
		c-10.39-12.69-17.94-27.36-24.8-42.16c-4.99-11.03-9.7-22.22-13.25-33.8c-0.79-3.01-2.16-6.56-0.09-9.37
		c2.77-3.85,6.57-6.87,9.05-10.97C613.471,669.7,621.411,656.06,634.971,649.34z"/>
	<path fill="#334172" stroke="#334172" stroke-width="0.5" d="M601.771,659.3c5.42-3.04,11.87-2.59,17.86-2.28
		c-6.75,7.5-12.2,16-17.77,24.38c-2.53,4.02-6.83,6.67-8.8,11.07c-2.03,4.43-5.17,8.2-7.66,12.36
		c-8.21,13.34-16.19,27.05-21.06,42.02c-4.02,13.85-6.2,28.14-8.18,42.4c-2.54,18.5-4.1,37.11-5.53,55.72
		c-1.16,12.31-1.52,24.68-1.31,37.04c-0.5,14.67-0.06,29.34,0.19,44c-0.63,14.66,0.25,29.32,0.08,44
		c0.63,11.64-0.18,23.31,0.82,34.94c-0.01,18.03,0.4,36.07,0.5,54.11c-0.04,5.28,1.18,10.7-0.36,15.88
		c-3.43,0.16-6.87,0.27-10.26,0.83c-3.15,0.42-6.43,1.41-9.51,0.14c-1.37-10.57-1.38-21.25-2.07-31.86
		c-1.2-32.04-2.09-64.07-2.46-96.12c-0.83-13.63-0.18-27.29-0.38-40.93c0.18-13.32-0.44-26.64,0.43-39.94
		c0.12-15.89,1.83-31.7,3.72-47.46c2.85-21.7,6.71-43.32,12.66-64.4c7.63-28.27,22.28-54.07,39.3-77.68
		C587.351,670.3,593.831,663.67,601.771,659.3z"/>
	<path fill="#F1EAF2" stroke="#F1EAF2" stroke-width="0.5" d="M902.451,685.72c9.73,2.78,19.39,6.15,28.23,11.14
		c4.6,2.54,8.33,6.26,12.06,9.9c13.8,11.81,26.06,25.26,38.55,38.42c13.33,14.35,26.81,28.59,39.45,43.56
		c10.18,13.09,19.4,26.93,27.74,41.26c3.65,6.04,6.14,12.68,8.95,19.14c1.99,4.15,2.15,8.85,3.84,13.13
		c2.09,7.64,4.78,15.66,3.39,23.64c-0.28,2.93-3.81,2.92-6,2.63c-11.62-1.4-22.65-5.65-34.18-7.56c-3.65-0.53-7.47-1.2-11.06-0.03
		c-2.42,0.72-4.37,3.27-3.73,5.85c1.05,4.59,4.31,8.2,7.14,11.82c8.47,10.31,18.17,19.9,24.21,31.96
		c2.36,5.16,4.58,11.36,1.99,16.87c-3.43,7.88-8.2,15.09-12.83,22.3c-21.29,31.95-44.8,62.33-68.35,92.62
		c-24.31,30.74-48.44,61.68-74.44,91.02c-2.1-3.37-2.82-7.75-6.15-10.21c-3.43-2.02-7.61-0.78-11.33-0.69
		c0.28-10.69,2.3-21.23,3.99-31.77c1.49-7.68,2.28-15.61,5.34-22.88c4.99-11.28,4.93-23.84,6.88-35.82
		c2.58-22.44,7.83-44.43,12.63-66.47c4.73-21.27,9.47-42.55,14.37-63.78c6.72-4.24,8.37-12.53,10.77-19.54
		c6.75-23.61,10.91-47.87,14.5-72.13c3.14-20.53,4.34-41.45,2.06-62.13c-1.17-10.5-3.2-20.98-7.08-30.83
		c-5.9-13.92-15.88-25.46-25.08-37.25c-0.61,0.09-1.83,0.27-2.45,0.36c-0.18,1.03-0.35,2.07-0.52,3.11
		C903.991,697.55,903.501,691.58,902.451,685.72z"/>
	<path fill="#F1EAF2" stroke="#F1EAF2" stroke-width="0.5" d="M572.341,734.92c5.65-12.19,12.53-23.77,19.9-34.99
		c6,20.09,14.62,39.33,24.57,57.75c6.6,12.52,15.7,23.44,24.54,34.42c30.06,36.48,61.74,71.58,93.4,106.66
		c5.81,6.38,9.24,15.47,17.38,19.36c1.65,0.35,3.33,0.59,5.02,0.87c28.72,39.38,57.48,78.73,86.25,118.07
		c11.21,15.23,22.17,30.67,34.48,45.05c-1.92,4.95-3.94,9.91-4.88,15.16c-2.03,10.49-3.85,21.01-5.23,31.61
		c-0.62-0.38-1.23-0.75-1.83-1.12c-37.36-27.47-74.85-54.77-112.85-81.36c-14.15-9.58-28.08-19.56-42.94-28.04
		c-19.36-11.18-39.93-20.09-60.64-28.43c-3.46-1.5-7.24-1.77-10.93-2.14c0.19-21.48,2.95-42.84,4.52-64.24
		c-0.68-0.23-2.05-0.69-2.74-0.91c-1.08,3.07-0.1,7.1-2.86,9.37c-11.27,10.44-22.86,20.58-35.2,29.75
		c-6.59,4.62-13.23,9.68-21.08,11.91c-4.22,1.24-7.75-2.25-10.33-5.09c-6.34-7.58-10.48-16.68-14.33-25.69
		c-1.78-4.82-4.53-9.54-4.15-14.84c0.02-13.68-0.14-27.36-0.01-41.04c-0.3-33.42,3.04-66.74,7.23-99.86
		C562.311,769.45,564.611,751.28,572.341,734.92z"/>
	<path fill="#334172" stroke="#334172" stroke-width="0.5" d="M944.231,702.92c18.06,6.92,35.45,16.39,49.55,29.79
		c24.01,22.67,46.39,47.67,62.3,76.79c15.19,26.81,28.72,54.52,43.29,81.66c3.36,5.57,5.94,11.74,10.37,16.6
		c7.29,7.48,19.49,4.87,27.1,11.91c13.18,11.13,24.81,24.07,35.12,37.89c10.51,13.65,17.68,29.44,25.13,44.88
		c6.34,13.48,12.33,27.13,18.24,40.81c2.69,7.16,6.41,13.99,8.12,21.48c-6.03,0.82-11.86,2.63-17.84,3.59
		c-3.07-1.61-3.77-5.44-5.35-8.24c-13.76-28.07-26.2-56.85-42.01-83.86c-9.3-14.28-20.98-26.99-33.93-38
		c-6.56-5.95-16.04-8.11-24.57-5.98c-4.54,1.17-8.3,4.44-10.65,8.43c-5.95,10.06-9.89,21.14-13.82,32.1
		c-3.14,9.93-6.33,19.93-7.61,30.3c-3.22,25.83-3.32,51.93-3.89,77.92c0.12,2.4-2.64,3.12-4.49,3.6c-4.87,0.83-9.76,1.53-14.64,2.31
		c-1.68-5.82-0.65-11.89-0.58-17.83c0.09-22.68,0.19-45.43,2.65-67.99c2.62-17.5,8.06-34.52,15.22-50.67
		c4.21-9.73,11.36-17.78,18.84-25.13c2.53-2.57,6.08-3.92,8.38-6.72c0.65-3.78-1.28-7.4-2.3-10.94
		c-9.5-25.88-20.33-51.33-33.51-75.56c-6.14-13.46-14.15-25.99-23.57-37.39c-13.84-16.77-26.86-34.28-42.11-49.82
		c-5.27-5.08-10.22-10.49-15.73-15.3c-7.03-6.27-13.44-13.2-20.55-19.39C948.871,707.88,946.261,705.66,944.231,702.92z"/>
	<path fill="#D4D1E6" stroke="#D4D1E6" stroke-width="0.5" d="M892.341,741.85c5.8-11.91,10.38-24.39,15.93-36.4
		c10.98,13.08,21.89,27.28,25.66,44.31c6.09,25.55,5.19,52.25,1.45,78.08c-3.28,22.78-7.23,45.51-13.04,67.8
		c-2.09,7.32-4.04,14.84-8.11,21.38c-4.74,0.39-6.87-4.34-8.96-7.73c-9.64-17.7-15.39-37.43-26.91-54.12
		c-8.9-13.26-19.46-25.29-28.86-38.17c-1.86-2.83-4.19-5.58-4.86-8.97c0.94-3.92,4.83-5.86,7.71-8.23
		c4.28-3.03,7.26-7.41,10.49-11.45C874.041,773.79,884.711,758.64,892.341,741.85z"/>
	<path fill="#F1EAF2" stroke="#F1EAF2" stroke-width="0.5" d="M524.811,731.29c9.63-5.7,19.62-10.82,29.8-15.46
		c-14.21,27.84-20.81,58.76-25.7,89.41c-3.01,20.61-5.59,41.36-5.78,62.21c-1.35-2.49-1.66-5.34-2.26-8.05
		c-4.68-20.81-9.25-41.65-13.23-62.6c-1.73-9.84-3.95-19.72-3.27-29.77c-0.1-9.05,1.27-18.75,7.24-25.94
		C515.331,737.01,520.171,734.19,524.811,731.29z"/>
	<path fill="#FDD3B1" stroke="#FDD3B1" stroke-width="0.5" d="M793.081,717.83c3.1-0.58,6.25-0.95,9.43-0.86
		c6.79,0.19,13.64-0.53,20.37,0.77C813.001,718.66,802.951,719.08,793.081,717.83z"/>
	<path fill="#020102" stroke="#020102" stroke-width="0.5" d="M428.581,793.11c23.71-12.97,47.26-26.24,71.11-38.94
		c0.37,0.65,1.12,1.95,1.49,2.6c-24.49,13.94-49.39,27.19-74,40.92c-42.67,23.58-85.38,47.09-127.68,71.3
		c-13.7,7.67-26.7,16.48-39.56,25.46c-10.28,7.49-20.81,15.51-27.27,26.72c-6.56,11.17-7.88,24.76-15.65,35.29
		c-4.55,6.4-11.13,11.07-15.33,17.74c-3.8,5.79-4.12,12.92-5.6,19.49c-7.87,43.32-14.63,86.83-21.62,130.3
		c-13.82,86.14-26.93,172.39-41.3,258.43c-8.7,50.42-19.65,100.4-29.58,150.58c-4.53,23.64-9.2,47.3-11.6,71.28
		c-1.04,9.66-0.87,19.41,0.14,29.07c1.66,21.25,4.92,42.92,14.83,62.06c7.44,14.16,17.42,27.17,30,37.15
		c12.88,10.28,28.3,16.57,43.53,22.49c17.01,6.36,33.61,13.88,51.11,18.86c44.26,13.05,89.69,21.5,134.44,32.64
		c33.69,8.44,67.39,16.85,101.04,25.45h-13.91c-35.29-9.16-70.68-17.99-106.09-26.66c-0.34,8.89-1.1,17.77-1.73,26.66h-3.21
		c0.6-9.09,0.87-18.23,2.09-27.26c-38.26-8.99-76.87-16.7-114.57-27.93c-16.97-4.89-33.08-12.19-49.6-18.36
		c-16.36-6.31-32.92-13.13-46.58-24.4c-12.72-10.54-22.91-23.99-30.29-38.73c-8.82-17.68-12.25-37.44-13.96-56.95
		c-1.16-11.09-1.87-22.27-0.67-33.38c2.5-25.48,7.51-50.61,12.37-75.72c5.86-29.59,12.09-59.12,17.96-88.71
		c8.79-43.25,15.76-86.83,22.69-130.4c13.86-86.57,27.21-173.22,41.37-259.74c3.91-23.19,7.49-46.45,12.29-69.47
		c2.15-10.41,11.2-16.84,17.61-24.56c7.38-8.67,9.23-20.22,13.7-30.37c2.96-7.16,7.46-13.59,12.95-19.03
		c10.69-10.63,23.5-18.75,35.95-27.11c11.43-7.83,23.62-14.43,35.61-21.34C350.081,836.46,389.331,814.78,428.581,793.11z"/>
	<path fill="#F1EAF2" stroke="#F1EAF2" stroke-width="0.5" d="M501.181,756.77l0.39,0.74c-0.71,8.68-1.22,17.48,0.42,26.1
		c4.69,28.13,11.01,55.95,17.31,83.74c0.75,4.32,3.19,8.21,3.48,12.61c-0.5,55.38,0.72,110.76,2.83,166.1
		c0.65,10.39,0.77,20.84,2.29,31.16c-1.4,0.65-2.8,1.28-4.13,2.07c-14.55,9.83-24.51,26.17-26.35,43.67
		c-0.55,9.16-0.11,18.55,2.82,27.32c2.37,7.12,6.84,13.59,12.94,18.01c7.45,5.47,15.94,9.41,24.68,12.32
		c7.95,2.46,16.45,4.36,24.77,2.71c11.43-1.89,21.65-8.38,29.52-16.7c9.81-10.43,17.93-23.83,17.52-38.61
		c0.45-11.59-5.41-22.15-11.78-31.4c-4.56-6.3-9.57-12.54-16.07-16.93c-8.35-4.7-18.24-5.49-27.63-5.77
		c-0.01-43.8-1.29-87.6-1.62-131.4c4.49,9.38,8.38,19.26,15.08,27.37c3.17,3.76,7.4,7.85,12.74,7.26c5.4-0.75,10.15-3.74,14.75-6.48
		c15.71-10.13,29.66-22.67,43.52-35.13c-1.16,17.15-3.43,34.27-3.32,51.49c-0.35,2.93,2.61,4.37,5.12,4.38
		c6.9,0.36,13,3.89,19.32,6.3c21.75,9.08,43.11,19.28,62.89,32.16c12.83,8.4,25.45,17.12,38.05,25.87
		c34.69,24.55,69.01,49.62,103.37,74.64c4.74,2.93,2.07,8.93,2.51,13.43c-5.83,2.26-11.75,4.29-17.87,5.57
		c-29.16,7.45-58.13,15.7-87.46,22.47c-48.58,11.45-97.21,22.65-145.76,34.18c-43.42,10.14-86.6,21.25-129.8,32.26
		c-19.63,5.11-39.36,9.97-58.68,16.19c-3.13,1.24-7.63,2.08-8.21,6.08c-0.62,5.2,2.56,9.91,3.2,14.99
		c2.61,15.92,6.57,31.57,10.92,47.09c6.59,24.15,13.16,48.31,19.29,72.59c10.67,42.84,20.28,85.94,30.32,128.93
		c-17.6-8.26-35.55-16.68-55-19.38c-22.09-2.9-44.48-1.46-66.55,0.81c-0.13,0.63-0.38,1.88-0.51,2.51c1.65,0.4,3.35,0.58,5.05,0.35
		c15.25-1.58,30.61-2.14,45.93-1.68c19.27,0.16,38.02,5.81,55.41,13.81c8.59,3.64,16.7,8.36,25.49,11.55
		c8.63,3.28,17.14,6.87,25.74,10.26c19.78,7.88,40.66,12.32,61.22,17.6c22.19,5.51,44.48,10.61,66.52,16.68
		c22.18,5.95,44.64,10.76,66.99,16.01c27.15,6.27,54.32,12.47,81.53,18.53c7.61,1.64,15.24,3.5,23.07,3.75
		c8.71,0.32,17.59-0.28,26.12,1.9c8.83,2.27,15.81,9.08,20.25,16.82c5.31,9.43,7.19,20.25,9.11,30.77
		c2.21,11.71,2.76,23.65,3.42,35.54c0.78,27.88,0.19,56.03-5.33,83.46c-3.25,17.05-10.56,32.93-17.84,48.56h-386.09
		c-33.65-8.6-67.35-17.01-101.04-25.45c-44.75-11.14-90.18-19.59-134.44-32.64c-17.5-4.98-34.1-12.5-51.11-18.86
		c-15.23-5.92-30.65-12.21-43.53-22.49c-12.58-9.98-22.56-22.99-30-37.15c-9.91-19.14-13.17-40.81-14.83-62.06
		c-1.01-9.66-1.18-19.41-0.14-29.07c2.4-23.98,7.07-47.64,11.6-71.28c9.93-50.18,20.88-100.16,29.58-150.58
		c14.37-86.04,27.48-172.29,41.3-258.43c6.99-43.47,13.75-86.98,21.62-130.3c1.48-6.57,1.8-13.7,5.6-19.49
		c4.2-6.67,10.78-11.34,15.33-17.74c7.77-10.53,9.09-24.12,15.65-35.29c6.46-11.21,16.99-19.23,27.27-26.72
		c12.86-8.98,25.86-17.79,39.56-25.46c42.3-24.21,85.01-47.72,127.68-71.3C451.791,783.96,476.691,770.71,501.181,756.77z"/>
	<path fill="#F1EAF2" stroke="#F1EAF2" stroke-width="0.5" d="M1061.361,812.56c19.31,4.21,38.38,9.5,57.35,15.06
		c21.06,6.31,41.98,13.25,62.23,21.88c14.81,6.43,29.58,13.6,41.98,24.11c14.36,11.69,26.53,25.93,36.32,41.62
		c12.47,19.99,22.32,41.45,34.29,61.74c19.6,32.86,37.69,66.58,55.57,100.4c19.6,37.35,38.72,74.96,56.92,113.01
		c18.03,37.5,34.96,75.54,49.76,114.44c23.41,60.44,41.88,122.61,61.78,184.25c8.71,27.69,22.22,53.48,33.88,79.96
		c6.64,15.49,12.52,31.58,14.21,48.45c1.94,16.34-1.24,32.73-5.11,48.55c-7.68,29.26-21.81,57.9-45.04,77.89
		c-7.04,6-14.92,11.04-23.39,14.76c-9.64,4.12-20.28,4.77-30.62,5.04c-24.26-0.32-48.25-4.68-71.87-9.89
		c-49.1-11.17-97.05-26.78-144.55-43.34c-40.32-13.6-78.86-31.88-116.63-51.34c-45.08-23.49-89.24-48.77-132.25-75.86
		c-6.98-4.57-14.36-8.71-20.29-14.67c-3-3.08-6.21-6.01-8.68-9.55c5.64,3.97,11.16,8.79,18.23,9.87c8.25,1.29,16.56-0.68,24.18-3.81
		c19.44-7.68,38.37-16.82,56.01-28.05c12.03-7.92,23.93-16.79,32.1-28.84c6.3-9.58,9-20.98,10.57-32.19
		c2.06-16.59,1.66-33.43,0.13-50.05c-0.85-6.89-1.1-13.97-3.41-20.57c-3.41-9.16-11.52-15.19-18.8-21.18
		c-5.21-3.83-10.26-8.14-16.31-10.57c-6.91-2.83-14.36-0.8-21.5-0.55c8.59-3.32,18.29-3.92,27.16-1.33
		c18.93,5.51,37.37,12.55,55.93,19.19c31.63,11.37,63.23,22.85,94.9,34.12c2.35,0.74,3.53,3.13,5.19,4.8
		c0.93-0.67,1.85-1.34,2.8-1.98c23.32,8.27,46.58,16.75,70.24,24c1.84,0.31,4.29,1.71,5.74-0.17c0.72-2.71-2.62-3.91-4.31-5.3
		c-17.19-10.5-35.16-19.64-52.96-29.05c-7.95-4.07-15.78-8.36-23.83-12.21c-2.01-1.39-4.19,1.83-1.63,2.65
		c24.36,12.97,49.25,25.09,72.96,39.25c-22.16-6.7-43.86-14.91-65.75-22.46c-2.05-0.8-4.54-1.2-5.66-3.31
		c-8.53-12.41-16.76-25.1-23.5-38.59c-10.89-22.96-17.26-47.72-22.39-72.51c-4.04-20.12-8.45-40.32-9.1-60.91
		c-1.61-25.12,2.69-50.06,6.78-74.75c2.98-17.97,6.65-35.82,10.04-53.71c-0.25-2.31-3.24-1.6-3.31,0.29
		c-5.85,28.04-10.84,56.28-15.04,84.61c-22.5,5.3-44.9,11.26-67.77,14.79c-7.49,1.17-14.99,2.2-22.5,3.16
		c-1.64,0.32-3.63,0.06-4.75,1.55c-0.16,1.3,0.44,1.98,1.79,2.04c31.52-3.07,62.4-10.42,93.03-18.2
		c-3.68,26.76-1.85,54.06,3.36,80.5c7.34,37.97,15.04,77.07,35.6,110.45c4.19,7.14,8.94,13.95,13.35,20.96
		c-40.6-14.43-81.06-29.24-121.63-43.72c-8.66-3.2-17.49-5.85-26.29-8.59c-12.7-3.91-26.38-0.91-38.23,4.33
		c-15.58-14.4-32.11-27.96-50.48-38.66c-17.74-10.6-38.01-16.85-58.69-17.58c-10.44-41.61-20.79-83.26-32.21-124.62
		c-3.29-11.52-6.37-23.11-10.27-34.44c6.17-4.56,10.52-11.03,15.64-16.67c37.5-45.06,73.92-91.05,108.62-138.32
		c11.98-16.88,24.57-33.53,33.97-52.04c3.92-6.68,2.16-14.8-1.09-21.35c-6.17-12.49-16.15-22.42-24.91-33.06
		c-2.53-3.13-5.22-6.32-6.34-10.25c0.3-2.77,3.59-2.17,5.6-2.31c8.88,0.42,17.39,3.38,26,5.38c5.91,1.34,11.9,3.27,18.03,2.74
		c3.45-0.33,5.45-3.68,5.78-6.85c0.89-8.13-2.05-15.94-3.63-23.79c7.56,17.66,15.45,35.25,21.21,53.61c1.76,3.33-2.65,4.34-4.56,6
		c-4.88,4.06-9.12,8.87-13.17,13.74c-5.92,7.06-9.71,15.55-13,24.06c-4.21,10.7-7.51,21.74-9.95,32.97
		c-2.4,10.96-2.77,22.21-3.51,33.38c-0.62,19.86-1.23,39.76-0.6,59.62c-0.09,4.4,4.98,6.42,5.15,10.67
		c5.16,48.57,9.87,97.18,15.68,145.68c1.8,14.34,3.52,28.7,5.97,42.96c0.83,5.08,2.06,10.09,3.77,14.96
		c4.19,12.47,8.57,25.07,15.76,36.18c4.17,6.45,10.04,12.55,17.9,14.03c10.95,2.2,22.33,0.99,33.2-1.16
		c3.3-0.42,5.43-4.24,8.95-3.46c6.37,0.99,12.44-1.83,18.08-4.42c5.27-2.23,8.45-8.39,7.03-13.97c-1.38-5.47-5.39-10.81-11.16-11.95
		c-8.52-1.08-17.33,2.49-23.09,8.76c-3.11,3.33-3.76,7.92-4.96,12.13c-8.48,1.43-17.46,0.71-25.49-2.37
		c-6.03-2.29-8.25-8.87-10.8-14.19c-9.14-22.11-15.29-45.33-20.6-68.61c-4.79-20.28-6.11-41.13-7.81-61.83
		c-2.33-33.24-3.76-66.56-4.58-99.89c1.3-1.15,2.95-2.35,2.76-4.32c0.75-26.3,0.72-52.68,3.74-78.85
		c1.16-10.17,4.1-20.01,7.19-29.73c3.63-10.85,7.67-21.63,13.23-31.66c1.73-3.13,3.9-6.35,7.42-7.61c8.13-3.08,17.82-0.98,24.2,4.88
		c12.49,10.51,23.52,22.86,32.64,36.4c17.02,29.25,30.42,60.4,45.35,90.73c1.08,2.84,5.28,2.89,5.88,5.99
		c5.67,20.27,10.91,40.65,16.19,61.02c10.38,40.59,20.79,81.18,29.62,122.14c1.58,8.88,4.38,17.82,3.08,26.94
		c-1.44,10.09-4.35,20-8.61,29.26c-2.57,7.25-10.05,13.26-18.01,11.47c-4.42-2.03-6.06-7.55-10.71-9.32
		c-4.89-1.78-10.3-1.95-15.38-1.06c-4.18,0.77-7.58,4.04-8.45,8.21c-1.32,5.77-1.41,12.52,2.21,17.52c3.36,4.07,9.12,4.64,14.05,4.8
		c9.94-0.32,19.72-2.7,29.12-5.87c8.56-3.06,17.09-6.92,23.85-13.14c6.41-5.86,9.98-14.31,11.07-22.81
		c1.84-12.71-0.41-25.48-1.21-38.17c-1.31-11.2-4.31-22.12-6.8-33.09c-12.53-51.22-26.62-102.04-40.12-153.01
		c-0.87-3.86-2.91-7.91-0.85-11.75c1.85-3.86-0.39-7.78-1.74-11.38c-8.86-21.75-18.39-43.23-28.62-64.37
		c-4.37-8.81-8.72-17.66-14-25.96c-9.95-15.03-21.75-28.81-34.72-41.31c-4.58-4.16-9.1-8.73-14.95-11.05
		c-5.44-2.22-11.59-2.27-16.76-5.19c-4.78-2.66-6.79-8.09-9.55-12.5C1090.121,867.98,1076.581,839.82,1061.361,812.56
		 M1077.091,1163.44c-3.15,0.87-7,0.3-9.51,2.7c-0.36,1.74,1.57,2.13,2.89,1.79c12.58-1.93,25-4.74,37.45-7.36
		c22.83-4.9,45.71-9.65,68.52-14.66c2.15,0,2.48-3.43,0.08-3.24C1143.331,1149.32,1110.351,1157.08,1077.091,1163.44
		 M1022.511,1170.97c-3.47,9.29-5.21,19.15-6.44,28.97c-1.22,8.49,0.03,17.04,0.81,25.51c2.23,19.45,5.03,38.84,8.13,58.17
		c-0.16,2.86,4.35,2.13,3.22-0.46c-2.58-17.29-5.27-34.57-7.33-51.92c-1.24-11.51-3.06-23.17-1.06-34.69
		c1.56-8.96,2.8-18.24,6.87-26.46c8.61,0.75,17.26,0.13,25.88-0.17c0.01-0.75,0.03-2.24,0.04-2.99c-8.06-0.29-16.14,0.52-24.2-0.06
		C1025.681,1166.45,1023.271,1168.41,1022.511,1170.97z"/>
	<path fill="#873333" stroke="#873333" stroke-width="0.5" d="M817.141,825.64c1.6-3.83,2.76-9.25,7.41-10.34
		c6.83,0.81,13.71,0.71,20.57,1.04c10.76,14.85,23.03,28.59,32.94,44.05c4.65,7.37,8.24,15.32,11.92,23.21
		c0.71,1.82,1.94,3.81,1.06,5.82c-4.24,12.35-8.46,24.72-13.19,36.9c-2.37,6.82-6.49,13.65-13.24,16.83
		c-6.47,2.17-13.46,1.74-20.18,1.66c-8.88-0.48-19.11-2.38-24.33-10.41c-11.79-16.92-19.67-36.16-28.23-54.82
		c-0.47-1.74-2.14-1.75-3.61-1.84c-0.07-0.25-0.21-0.75-0.28-1c4.76-8.23,10.14-16.12,15-24.31
		C808.051,843.7,813.941,835.32,817.141,825.64z"/>
	<path fill="#AFADBB" stroke="#AFADBB" stroke-width="0.5" d="M787.981,876.74c0.07,0.25,0.21,0.75,0.28,1
		c2.67,8.63,6.98,16.65,10.65,24.88c5.22,10.84,10.53,21.7,17.29,31.68c2.33,3.53,5.29,6.64,8.82,8.98
		c-0.78,12.56,0.28,25.14,0.12,37.71c-0.1,8.53,0.34,17.05,0.34,25.57c-10.52-13.41-20.2-27.48-30.38-41.15
		c-11.84-16.37-23.99-32.51-35.61-49.02C770.661,904.49,779.021,890.31,787.981,876.74z"/>
	<path fill="#AFADBB" stroke="#AFADBB" stroke-width="0.5" d="M884.901,916.39c3.03-7.95,5.46-16.12,8.55-24.04
		c4.86,9.63,8.1,20.69,16.56,27.95c-5.03,22.66-10.26,45.27-15.21,67.95c-0.71,3.23-1.3,6.5-2.34,9.65
		c-7.16-18.49-13.66-37.26-20.43-55.9C878.911,934.98,881.461,925.3,884.901,916.39z"/>
	<path fill="#873333" stroke="#873333" stroke-width="0.5" d="M857.451,947.71c4.2-0.21,8.09-1.92,11.92-3.54
		c7.23,19.22,13.99,38.63,21.14,57.88c0.86,1.89,0.61,3.97,0.14,5.94c-3.33,14.32-5.77,28.85-7.65,43.44
		c-1.24,8.95-2.05,17.98-3.75,26.87c-2.56-1.79-4.26-4.45-6.17-6.84c-12.73-16.06-24.54-32.83-36.72-49.31
		c-2.1-2.89-4.49-5.62-6.07-8.83c-1.29-13.41-0.09-26.9-0.7-40.34c0.09-8.47-0.78-16.99,0.27-25.42c0.88-0.53,1.78-1.04,2.68-1.54
		C840.641,948.28,849.121,948.21,857.451,947.71z"/>
	<path fill="#7C4344" stroke="#7C4344" stroke-width="0.5" d="M827.471,944.67c1.69,0.41,3.38,0.87,5.07,1.35
		c-0.9,0.5-1.8,1.01-2.68,1.54c-1.05,8.43-0.18,16.95-0.27,25.42c0.61,13.44-0.59,26.93,0.7,40.34c-2.86-1.86-1.78-5.49-1.88-8.32
		c0.54-10-0.43-19.99-0.12-29.99C828.461,964.88,828.021,954.77,827.471,944.67z"/>
	<path fill="#8A817C" stroke="#8A817C" stroke-width="0.5" d="M1209.061,1070.93c3.97-1.29,8.07-2.14,12.23-2.62
		c0.45,8.96,3.87,17.39,5.86,26.07c12.32,46.15,24.95,92.23,36.31,138.63c2.4,10.64,5.25,21.22,6.59,32.07
		c0.9,11.96,2.49,23.95,1.48,35.96c-0.85,8.63-4.25,17.32-10.9,23.12c-6.61,5.71-14.76,9.31-22.95,12.12
		c-10.05,3.18-20.55,5.91-31.18,5.04c-3.15-0.23-6.64-1.29-8.21-4.27c-2.46-4.98-2.24-11.12,0.08-16.11
		c1.15-2.43,3.96-3.23,6.4-3.68c4.04-0.66,8.26-0.15,12.11,1.23c4.31,2.21,6.12,7.6,10.79,9.31c8.15,2.12,16.87-2.77,20.54-10.1
		c5.22-10.21,8.66-21.34,10.29-32.68c1.48-9.48-1.12-18.87-2.91-28.1c-8.5-39.74-18.65-79.1-28.63-118.48
		C1221.111,1115.9,1215.311,1093.35,1209.061,1070.93z"/>
	<path fill="#8A817C" stroke="#8A817C" stroke-width="0.5" d="M552.831,1077.35c6.98-0.66,14.08,0.73,20.86,2.38
		c8,1.93,13.52,8.51,18.49,14.6c6.13,8.14,11.95,17.02,13.82,27.22c2.03,11.49-1.65,23.36-8.15,32.84
		c-8.18,11.95-19.85,22.63-34.45,25.49c-8.45,1.93-17.17,0.05-25.24-2.58c-8.45-2.87-16.64-6.76-23.78-12.15
		c-7.05-5.36-11.22-13.76-12.72-22.35c-1.75-10.04-1.94-20.6,1.29-30.37c2.78-8.35,7.05-16.38,13.42-22.56
		c3.96-3.83,7.86-8.38,13.49-9.62C537.441,1078.79,545.281,1078.94,552.831,1077.35z"/>
	<path fill="#8A817C" stroke="#8A817C" stroke-width="0.5" d="M1048.371,1089.32c4.04-0.6,8.07-1.3,12.16-1.59
		c1.12,27.58,1.97,55.18,3.72,82.74c1.47,22.51,2.83,45.09,6.43,67.4c4.44,22.76,10.28,45.26,17.78,67.22
		c3,8.31,5.96,16.76,10.64,24.32c3.77,6.21,11.5,7.96,18.18,8.97c5.39,0.62,11.03,1.17,16.35-0.22c4.24-1.36,3.36-6.67,5.07-9.92
		c3.51-6.88,11.38-10.53,18.81-11.15c7.55-0.96,13.65,7.66,11.71,14.6c-1.91,5.22-7.87,6.72-12.53,8.51
		c-3.85,1.62-8.03,0.73-12.04,1c-2.86,1.01-5.1,3.4-8.18,3.82c-10.38,1.79-21.23,3.17-31.59,0.59c-6.54-1.56-11.17-6.92-14.74-12.28
		c-6.63-10.29-10.8-21.9-14.72-33.42c-3.45-9.22-4.82-19-6.23-28.69c-6.81-49.27-11.6-98.78-16.73-148.24
		C1051.101,1111.76,1050.521,1100.43,1048.371,1089.32z"/>
	<path fill="#020102" stroke="#020102" stroke-width="0.5" d="M1077.091,1163.44c33.26-6.36,66.24-14.12,99.43-20.77
		c2.4-0.19,2.07,3.24-0.08,3.24c-22.81,5.01-45.69,9.76-68.52,14.66c-12.45,2.62-24.87,5.43-37.45,7.36
		c-1.32,0.34-3.25-0.05-2.89-1.79C1070.091,1163.74,1073.941,1164.31,1077.091,1163.44z"/>
	<path fill="#1E1B22" stroke="#1E1B22" stroke-width="0.5" d="M853.041,1151.27c8.09-1.86,15.61-6.64,24.16-6.08
		c3.05,0.47,3.73,4.01,4.82,6.4c6.42,18.51,11.48,37.46,16.68,56.35c8.04,30.43,16,60.88,23.53,91.45
		c1.35,5.55,3.09,11.03,3.74,16.74c-6.28,2.16-12.97,0.61-19.44,0.9c-22.51,0.85-44.73,4.91-66.75,9.4
		c-9.73,1.7-19.34,4.26-29.22,4.94c-20.44,1.94-40.58,6.48-60.14,12.67c-8.64,2.87-17.56,5.51-25.05,10.87
		c-4.78,3.33-10.66,6.88-11.64,13.15c-1.11,11.41,8.88,23.54,20.73,22.87c10.74-0.01,21.28-2.34,31.93-3.37
		c8.56-0.81,16.85-3.21,25.33-4.52c14.14-2.35,28.48-2.96,42.75-4.14c7.21-0.18,14.41-1.49,21.63-0.73l-0.36,0.45
		c-5.36,2.78-11.59,3.01-17.39,4.35c-40.07,7.94-80.36,14.81-120.22,23.79c-8.07,1.39-14.84,6.77-19.86,13
		c-5.16,6.54-3.51,15.99,1.15,22.33c3.13,4.17,7.29,8.92,12.98,8.78c7.5,0.16,14.94-1.01,22.39-1.67c24.62-2.9,49.23-6.12,73.8-9.25
		c0.81,0.06,2.44,0.19,3.25,0.25l-0.76,0.39c-3,1.63-6.5,1.74-9.77,2.42c-22.02,4.23-44.16,7.85-65.99,12.94
		c-4.71,1.37-9.69,2.37-13.88,5.02c-6.91,6.98-7.74,17.57-6.52,26.83c1.08,4.63,5.46,7.65,9.84,8.85c8.47,2.41,17.34,3.05,26.1,3.59
		c7.47-0.29,14.98-0.66,22.44,0.21c-1.54,7.82-0.6,16.16,3.89,22.9c2,3.29,5.13,5.99,8.98,6.82c6.54,2.04,13.37,0.07,20.04,0.97
		c11.14,0.09,22.21-1.35,33.34-1.59c10.61-1.09,21.3-0.34,31.9-1.55c16.14-0.75,32.44-4.93,48.53-1.53
		c14.61,3.5,24.98,15.07,37.53,22.46c2.71,1.68,2.36,5.44,4.27,7.8c4.3,5.93,9.25,11.4,14.68,16.32c3.87,3.53,8.61,5.87,12.74,9.08
		c-0.09,2.78,0.16,5.59,1.03,8.26c5.88,19.93,11.23,40.01,17.1,59.94c0.5,1.85,0.88,3.75,1.26,5.66
		c-8.72-0.38-17.46-0.24-26.09,1.18c-15.63,1.78-31.14,4.4-46.74,6.38c-9.32,1.1-18.66,2.71-28.06,1.8
		c-10.79,0.33-21.43-2.56-32.19-1.81c-1.6-10.29-3.78-20.69-8.59-30.01c-2.88-5.77-7.52-10.44-12.49-14.42
		c-8.31-5.94-18.97-7.37-28.93-6.91c-12.22,0.46-24.24-2.17-36.05-4.98c-22.32-4.97-44.63-10.02-66.9-15.18
		c-19.66-4.78-39.48-8.81-59.08-13.81c-13.14-2.86-25.94-7.01-39.02-10.06c-29.02-7.24-58.18-13.97-87.01-21.95
		c-15.18-4.43-29.51-11.2-44.29-16.73c-3.07-1.35-7.23-2.49-7.93-6.29c-9.29-39.72-18.22-79.53-27.87-119.17
		c-4.96-20.19-10.43-40.25-15.74-60.34c-5.59-21.24-12.34-42.22-15.95-63.92c-0.78-5.23-2.31-10.28-3.66-15.37
		c-0.4-1.88-1.07-4.87,1.38-5.58c6.11-2.6,12.65-4.02,18.95-6.13c41.13-11.42,82.64-21.4,123.99-31.96
		c42.22-10.41,84.6-20.16,126.94-30.09c42.94-10.12,86.04-19.66,128.58-31.4C832.261,1156.64,842.581,1153.67,853.041,1151.27z"/>
	<path fill="#020103" stroke="#020103" stroke-width="0.5" d="M1022.511,1170.97c0.76-2.56,3.17-4.52,5.92-4.1
		c8.06,0.58,16.14-0.23,24.2,0.06c-0.01,0.75-0.03,2.24-0.04,2.99c-8.62,0.3-17.27,0.92-25.88,0.17c-4.07,8.22-5.31,17.5-6.87,26.46
		c-2,11.52-0.18,23.18,1.06,34.69c2.06,17.35,4.75,34.63,7.33,51.92c1.13,2.59-3.38,3.32-3.22,0.46c-3.1-19.33-5.9-38.72-8.13-58.17
		c-0.78-8.47-2.03-17.02-0.81-25.51C1017.301,1190.12,1019.041,1180.26,1022.511,1170.97z"/>
	<path fill="#F9CBA9" stroke="#F9CBA9" stroke-width="0.5" d="M885.961,1321.59c13.44-1.76,27.01-1.83,40.54-1.67
		c18.01,0.59,36.04,4.58,52.05,13c19.47,9.91,36.74,23.56,52.96,38.07c12.88,11.42,24.67,24.01,37.24,35.76
		c12.56,10.04,24.82,20.52,37.23,30.71c1,12.58,0.61,25.26-0.91,37.79c-1.49,10.85-4.03,21.9-10.09,31.18
		c-7.09,10.46-17.22,18.38-27.51,25.5c-19.54,12.97-40.82,23.21-62.74,31.49c-2.32,0.48-5.03,2.58-7.17,0.63
		c-9.56-6.2-21.42-7.04-31.09-12.98c-5.2-3.11-10.63-5.89-15.41-9.64c-8.02-6.19-16.19-12.5-25.72-16.18
		c-7.24-2.91-15.19-3.24-22.89-2.89c-15.67,0.94-31.23,3.36-46.94,3.57c-22.3,0.26-44.58,3.57-66.88,1.81
		c-3.89-0.1-7.21-2.44-9.05-5.79c-3.77-6.29-6.01-14.58-2.69-21.49c19.21-1.74,37.69-7.76,56.17-12.97
		c21.89-6.69,43.88-13.16,65.5-20.66c-0.08-0.7-0.24-2.11-0.32-2.82c-8.59,1.69-16.72,5.18-25.13,7.57
		c-20.21,6.29-40.42,12.56-60.79,18.28c-11.66,3.3-24.25,2.04-35.56,6.66c-7.06-0.93-14.17-0.47-21.26-0.61
		c-3.51-0.1-7,0.31-10.45,0.85c-7.57-0.21-15.29-1.28-22.43-3.88c-4.86-1.64-5.62-7.48-5.64-11.87c0.27-6.42,1.8-13.44,6.47-18.12
		c6.77-3.31,14.38-4.42,21.65-6.22c28.57-6.15,57.44-10.78,86.17-16.13c6.26-1.3,12.65-2.17,18.76-4.11
		c1.54-0.29,1.98-1.79,2.29-3.09c-3.71-1.91-7.92-0.4-11.84-0.31c-35.53,4.01-70.89,9.51-106.44,13.35
		c-8.06,0.59-16.2,2.19-24.27,1.36c-6.19-3.08-10.59-9.42-11.8-16.17c-0.94-5.15,1.94-10.11,5.52-13.58
		c3.74-3.5,7.94-6.91,13.09-7.94c19.96-4.84,40.18-8.51,60.33-12.47c27.66-5.36,55.39-10.41,83.01-16.01c4.34-1.02,8.82-1.62,13-3.2
		c1.29-0.88,1.48-1.96,0.58-3.25c-5.23-1.29-10.66-0.58-15.97-0.39c-12.39,0.34-24.74,1.41-37.09,2.31
		c-12.18,0.95-24.4,1.95-36.34,4.6c-13.71,3.1-27.76,4.06-41.66,5.97c-6.19,0.47-13.53,1.62-18.52-3c-4.55-4.1-8.35-10.15-7.41-16.5
		c1.25-4.88,5.84-7.75,9.71-10.47c7.7-5.48,16.83-8.3,25.71-11.22c13.18-4.05,26.54-7.61,40.18-9.72
		c10.77-1.88,21.74-2.4,32.49-4.46C844.951,1328.17,865.311,1323.88,885.961,1321.59z"/>
	<path fill="#656869" stroke="#656869" stroke-width="0.5" d="M856.101,1378.17c0.98-0.83,1.94-0.84,2.89-0.04
		c-0.01,1.45-2.58,1.44-3.25,0.49L856.101,1378.17z"/>
	<path fill="#AFADBB" stroke="#AFADBB" stroke-width="0.5" d="M811.841,1440.2c4.22-1.92,9.1-1.34,13.63-1.92
		c-4.76,0.94-9.52,2.25-14.39,2.31L811.841,1440.2z"/>
	<path fill="#FCE4C9" stroke="#FCE4C9" stroke-width="0.5" d="M745.051,1496.76c3.45-0.54,6.94-0.95,10.45-0.85
		c7.09,0.14,14.2-0.32,21.26,0.61c-3.35,0.88-6.84,0.8-10.27,0.87C759.341,1497.4,752.161,1497.56,745.051,1496.76z"/>
	<path fill="#F1EAF2" stroke="#F1EAF2" stroke-width="0.5" d="M991.501,1584.34c45.48,28.48,91.99,55.36,139.71,79.93
		c33.98,17.34,68.54,33.8,104.58,46.44c1.6,0.34,2.7,1.63,2.51,3.35c0.33,18.95,0.21,37.93,0.67,56.89
		c-0.05,20.35,0.7,40.7,0.15,61.05h-167.29c4.77-5.85,10.8-11.04,13.38-18.33c1.17-1.79,3.54-2.39,4.92-4.04
		c3.26-3.75,4.42-8.8,5.06-13.6c0.97-8.25-0.13-17.36-5.75-23.85c2.47-0.67,5.34-1.02,7.02-3.2c4.32-5.13,5.17-12.3,4.6-18.75
		c-0.39-4.1-1.69-8.23-4.62-11.21c-7.46-7.96-16.81-13.75-25.65-20c13.15,0.87,26.41-3.07,37.25-10.48
		c7.58-5.25,11.51-15.36,9.23-24.31c-1.18-4.71-5.38-7.9-9.91-9.07c-21.89-6.19-44.67-7.99-67.02-11.87
		c-9.7-1.29-18.95-4.57-28.45-6.76C1005.211,1632.43,998.251,1608.42,991.501,1584.34z"/>
	<path fill="#F9CBA9" stroke="#F9CBA9" stroke-width="0.5" d="M938.551,1666.03c16.35-2.21,32.66-4.75,49.07-6.61
		c9.34-1.28,18.96-1.26,28.08,1.4c29.7,9.25,61.39,8.97,91.23,17.67c3.35,0.9,6.42,3.32,7.23,6.84c1.74,7.55-1.58,15.95-7.89,20.42
		c-6.03,4.36-13.14,7.04-20.31,8.87c-11.46,2.44-23.57,0.69-34.36-3.66c-9.99-4.04-20.47-6.55-30.82-9.39
		c-3.39-0.91-6.8-2.16-10.35-1.76c0.37,1.18,0.69,2.78,2.24,2.98c11.12,3.22,22.51,5.64,33.41,9.63c6.16,2.5,12.5,4.49,18.98,6
		c9.45,8.28,21.23,13.88,29.53,23.54c3.06,3.58,3.36,8.56,3.26,13.07c-0.2,4.49-1.25,9.45-4.72,12.6c-4.28,1.9-9.2,0.85-13.67,0.29
		c-12.04-2.45-24.25-3.84-36.42-5.45c-3.58-0.39-7.21-1.78-10.78-0.66c0.23,0.64,0.67,1.93,0.9,2.57
		c15.81,2.54,31.58,5.52,47.5,7.32c5.96,0.43,9.6,6.1,10.68,11.48c1.58,7.6,1.15,16.06-2.67,22.96c-1.59,3.25-5.46,3.87-8.69,3.31
		c-18.3-3.37-36.82-5.43-55.27-7.67c-0.3,0.6-0.88,1.78-1.17,2.37c4.49,1.81,9.39,1.93,14.09,2.9c14.62,2.67,29.33,4.76,44.12,6.24
		c-1.48,4.94-5.65,8.29-8.67,12.27c-2.05,2.35-4.17,5.45-7.61,5.56c-8.51,0.53-17.04,0.38-25.54,0.88h-183.11
		c4.61-9.57,8.73-19.38,12.42-29.34c6.74-19.81,8.94-40.81,10.17-61.59c0.83-25.19,1.06-50.63-2.98-75.57
		c11.3,1.53,22.67,2.68,34.07,2.98C919.911,1668.72,929.241,1667.2,938.551,1666.03z"/>
	<path fill="#F1EAF2" stroke="#F1EAF2" stroke-width="0.5" d="M347.081,1805.34c35.41,8.67,70.8,17.5,106.09,26.66h-107.82
		C345.981,1823.11,346.741,1814.23,347.081,1805.34z"/>
</g>
</svg>
