<?xml version="1.0" encoding="UTF-8" standalone="no"?>
<svg viewBox="0 0 640 480" xmlns="http://www.w3.org/2000/svg">
<defs>
<filter height="1.17022" id="filter6325" width="1.39988" x="-.19994" y="-.08511">
<feGaussianBlur stdDeviation="11.02675"/>
</filter>
<linearGradient gradientUnits="userSpaceOnUse" id="linearGradient6265" x1="90.35461" x2="94.22695" y1="276.05673" y2="193.44681">
<stop offset="0" stop-color="#dc0000"/>
<stop offset="1" stop-color="#ff4141"/>
</linearGradient>
</defs>
<title>people</title>
<g fill="#0e232e" filter="url(#filter6325)" opacity=".36098" transform="matrix(.99025,0,0,.94188,2.06829,-36.71788)">
<path d="m179.79479,113.83309c0,19.27734-15.19395,34.90472-33.93663,34.90472s-33.93664-15.62738-33.93664-34.90472 15.19394-34.90472 33.93664-34.90472 33.93663,15.62738 33.93663,34.90472z" fill="#0e232e"/>
<path d="m106.27893,157.18649h81.09461v97.22936h-81.09461z" fill="#0e232e"/>
<path d="m79.72897,161.61526h23.18744v118.70515h-23.18744z" fill="#0e232e"/>
<path d="m188.69627,156.99392h23.39469v121.49398h-23.39469z" fill="#0e232e"/>
<path d="m150.20091,256.65566h30.35025v133.21301h-30.35025z" fill="#0e232e"/>
<path d="m113.45731,255.36488h25.01863v133.21302h-25.01863z" fill="#0e232e"/>
</g>
<g fill="#b50000" transform="translate(23.23404,-41.30497)">
<path d="m179.79479,113.83309c0,19.27734-15.19395,34.90472-33.93663,34.90472s-33.93664-15.62738-33.93664-34.90472 15.19394-34.90472 33.93664-34.90472 33.93663,15.62738 33.93663,34.90472z" fill="#b50000"/>
<path d="m106.27893,157.18649h81.09461v97.22936h-81.09461z" fill="#b50000"/>
<path d="m79.72897,161.61526h23.18744v118.70515h-23.18744z" fill="#b50000"/>
<path d="m188.69627,156.99392h23.39469v121.49398h-23.39469z" fill="#b50000"/>
<path d="m150.20091,256.65566h30.35025v133.21301h-30.35025z" fill="#b50000"/>
<path d="m113.45731,255.36488h25.01863v133.21302h-25.01863z" fill="#b50000"/>
</g>
<g fill="#dc0000" transform="translate(72.28369,-29.68794)">
<path d="m179.79479,113.83309c0,19.27734-15.19395,34.90472-33.93663,34.90472s-33.93664-15.62738-33.93664-34.90472 15.19394-34.90472 33.93664-34.90472 33.93663,15.62738 33.93663,34.90472z" fill="#dc0000"/>
<path d="m106.27893,157.18649h81.09461v97.22936h-81.09461z" fill="#dc0000"/>
<path d="m79.72897,161.61526h23.18744v118.70515h-23.18744z" fill="#dc0000"/>
<path d="m188.69627,156.99392h23.39469v121.49398h-23.39469z" fill="#dc0000"/>
<path d="m150.20091,256.65566h30.35025v133.21301h-30.35025z" fill="#dc0000"/>
<path d="m113.45731,255.36488h25.01863v133.21302h-25.01863z" fill="#dc0000"/>
</g>
<g transform="matrix(.99025,0,0,.94188,118.2385,-8.32072)">
<path d="m179.79479,113.83309c0,19.27734-15.19395,34.90472-33.93663,34.90472s-33.93664-15.62738-33.93664-34.90472 15.19394-34.90472 33.93664-34.90472 33.93663,15.62738 33.93663,34.90472z" fill="#ff4141"/>
<path d="m106.27893,157.18649h81.09461v97.22936h-81.09461z" fill="#ff4141"/>
<path d="m79.72897,161.61526h23.18744v118.70515h-23.18744z" fill="url(#linearGradient6265)"/>
<path d="m188.69627,156.99392h23.39469v121.49398h-23.39469z" fill="#ff4141"/>
<path d="m150.20091,256.65566h30.35025v133.21301h-30.35025z" fill="#ff4141"/>
<path d="m113.45731,255.36488h25.01863v133.21302h-25.01863z" fill="#ff4141"/>
</g>
<g fill="#0e232e" filter="url(#filter6325)" opacity=".36098" transform="matrix(-.99025,0,0,.94188,645.61644,-30.26398)">
<path d="m179.79479,113.83309c0,19.27734-15.19395,34.90472-33.93663,34.90472s-33.93664-15.62738-33.93664-34.90472 15.19394-34.90472 33.93664-34.90472 33.93663,15.62738 33.93663,34.90472z" fill="#0e232e"/>
<path d="m106.27893,157.18649h81.09461v97.22936h-81.09461z" fill="#0e232e"/>
<path d="m79.72897,161.61526h23.18744v118.70515h-23.18744z" fill="#0e232e"/>
<path d="m188.69627,156.99392h23.39469v121.49398h-23.39469z" fill="#0e232e"/>
<path d="m150.20091,256.65566h30.35025v133.21301h-30.35025z" fill="#0e232e"/>
<path d="m113.45731,255.36488h25.01863v133.21302h-25.01863z" fill="#0e232e"/>
</g>
<g fill="#005c94" transform="matrix(-1,0,0,1,624.45069,-34.85106)">
<path d="m179.79479,113.83309c0,19.27734-15.19395,34.90472-33.93663,34.90472s-33.93664-15.62738-33.93664-34.90472 15.19394-34.90472 33.93664-34.90472 33.93663,15.62738 33.93663,34.90472z" fill="#005c94"/>
<path d="m106.27893,157.18649h81.09461v97.22936h-81.09461z" fill="#005c94"/>
<path d="m79.72897,161.61526h23.18744v118.70515h-23.18744z" fill="#005c94"/>
<path d="m188.69627,156.99392h23.39469v121.49398h-23.39469z" fill="#005c94"/>
<path d="m150.20091,256.65566h30.35025v133.21301h-30.35025z" fill="#005c94"/>
<path d="m113.45731,255.36488h25.01863v133.21302h-25.01863z" fill="#005c94"/>
</g>
<g fill="#0084c8" transform="matrix(-1,0,0,1,575.40104,-23.23404)">
<path d="m179.79479,113.83309c0,19.27734-15.19395,34.90472-33.93663,34.90472s-33.93664-15.62738-33.93664-34.90472 15.19394-34.90472 33.93664-34.90472 33.93663,15.62738 33.93663,34.90472z" fill="#0084c8"/>
<path d="m106.27893,157.18649h81.09461v97.22936h-81.09461z" fill="#0084c8"/>
<path d="m79.72897,161.61526h23.18744v118.70515h-23.18744z" fill="#0084c8"/>
<path d="m188.69627,156.99392h23.39469v121.49398h-23.39469z" fill="#0084c8"/>
<path d="m150.20091,256.65566h30.35025v133.21301h-30.35025z" fill="#0084c8"/>
<path d="m113.45731,255.36488h25.01863v133.21302h-25.01863z" fill="#0084c8"/>
</g>
<g fill="#19aeff" transform="matrix(-.99025,0,0,.94188,529.44623,-1.86682)">
<path d="m179.79479,113.83309c0,19.27734-15.19395,34.90472-33.93663,34.90472s-33.93664-15.62738-33.93664-34.90472 15.19394-34.90472 33.93664-34.90472 33.93663,15.62738 33.93663,34.90472z" fill="#19aeff"/>
<path d="m106.27893,157.18649h81.09461v97.22936h-81.09461z" fill="#19aeff"/>
<path d="m79.72897,161.61526h23.18744v118.70515h-23.18744z" fill="#19aeff"/>
<path d="m188.69627,156.99392h23.39469v121.49398h-23.39469z" fill="#19aeff"/>
<path d="m150.20091,256.65566h30.35025v133.21301h-30.35025z" fill="#19aeff"/>
<path d="m113.45731,255.36488h25.01863v133.21302h-25.01863z" fill="#19aeff"/>
</g>
</svg>
