<?xml version="1.0" encoding="UTF-8"?>
<svg version="1.1" viewBox="0 0 461.63 335.86" xmlns="http://www.w3.org/2000/svg" xmlns:cc="http://creativecommons.org/ns#" xmlns:dc="http://purl.org/dc/elements/1.1/" xmlns:rdf="http://www.w3.org/1999/02/22-rdf-syntax-ns#">
 <metadata>
  <rdf:RDF>
   <cc:Work rdf:about="">
    <dc:format>image/svg+xml</dc:format>
    <dc:type rdf:resource="http://purl.org/dc/dcmitype/StillImage"/>
    <dc:title/>
   </cc:Work>
  </rdf:RDF>
 </metadata>
 <!-- in the public domain -->
 <g transform="translate(38.365 -10.646)" stroke="#000" stroke-width="2">
  <path d="m293.87 11.646v84.188h84.188v-84.188zm62.438 16.938 3.1562 2.2188-17.719 27.656-14.219 20.406c-5.4962-7.6466-10.047-16.39-15.094-25.062l8.9375-4.4688 7.4375 14.875z"/>
  <path d="m293.87 99.343v20h8.5v-10.219h29.344v10.219h8.5v-10.219h29.312v10.219h8.5312v-20z"/>
  <g transform="translate(-32.17 108.29)">
   <path d="m281.84 16.438v84.188h84.188v-84.188zm62.438 16.938 3.1562 2.2188-17.719 27.656-14.219 20.406c-5.4962-7.6466-10.047-16.39-15.094-25.062l8.9375-4.4688 7.4375 14.875z"/>
   <path d="m281.84 104.13v20h8.5v-10.219h29.344v10.219h8.5v-10.219h29.312v10.219h8.5312v-20z"/>
  </g>
  <g transform="translate(-32.17 221.37)">
   <path d="m281.84 16.438v84.188h84.188v-84.188zm62.438 16.938 3.1562 2.2188-17.719 27.656-14.219 20.406c-5.4962-7.6466-10.047-16.39-15.094-25.062l8.9375-4.4688 7.4375 14.875z"/>
   <path d="m281.84 104.13v20h8.5v-10.219h29.344v10.219h8.5v-10.219h29.312v10.219h8.5312v-20z"/>
  </g>
  <g transform="translate(56.232 108.29)">
   <path d="m281.84 16.438v84.188h84.188v-84.188zm62.438 16.938 3.1562 2.2188-17.719 27.656-14.219 20.406c-5.4962-7.6466-10.047-16.39-15.094-25.062l8.9375-4.4688 7.4375 14.875z"/>
   <path d="m281.84 104.13v20h8.5v-10.219h29.344v10.219h8.5v-10.219h29.312v10.219h8.5312v-20z"/>
  </g>
  <g transform="translate(56.232 221.37)">
   <path d="m281.84 16.438v84.188h84.188v-84.188zm62.438 16.938 3.1562 2.2188-17.719 27.656-14.219 20.406c-5.4962-7.6466-10.047-16.39-15.094-25.062l8.9375-4.4688 7.4375 14.875z"/>
   <path d="m281.84 104.13v20h8.5v-10.219h29.344v10.219h8.5v-10.219h29.312v10.219h8.5312v-20z"/>
  </g>
 </g>
 <g transform="translate(-19.037 -10.646)" stroke="#000" stroke-width="2">
  <g transform="matrix(1.6808 0 0 1 -36.025 8.5231)" stroke="#000" stroke-width="1.5427">
   <path d="m145.98 257.95c-11.578 0-20.969 17.18-20.969 38.375s9.391 38.375 20.969 38.375 20.969-17.18 20.969-38.375-9.391-38.375-20.969-38.375zm0 20.062c5.5309 0 10.031 8.1874 10.031 18.312s-4.5004 18.344-10.031 18.344-10-8.2187-10-18.344 4.4691-18.312 10-18.312z"/>
   <path d="m66.798 268.45c-10.084 0-18.281 14.978-18.281 33.438s8.1977 33.438 18.281 33.438 18.25-14.978 18.25-33.438-8.1665-33.438-18.25-33.438zm0 17.469c4.817 0 8.7188 7.1504 8.7188 15.969s-3.9017 15.969-8.7188 15.969-8.75-7.1504-8.75-15.969 3.933-15.969 8.75-15.969z"/>
   <path d="m163.59 72.156v183.44h10.656v-150.16l52.202-6.25v-3.8125h-52.202v-23.219z"/>
   <path d="m60.812 98.812-16.281 117.81h-11v21.219h74.969v-21.219h-7.625c0.0451-0.22188 0.0937-0.45044 0.0937-0.6875v-16.75c0-1.7064-1.2332-3.0938-2.75-3.0938h-16.469s-2.5755-27.662-5.75-32.594-10.25-1-10.25-1l8.375 54.125h-18.844l14.781-107.09h46.031l7.375 53.406c-0.0798 0.051-0.15032 0.0878-0.21875 0.15625l-17.812 17.781c-0.6636 0.6636-0.50945 1.8968 0.34375 2.75l1.0312 1.0312c0.8532 0.8532 2.0864 1.0074 2.75 0.34375l7.0312-7.0625 14.062 37.156 1.4688 10.531c-6.5132 6.6028-13.124 13.215-19.75 19.812h-75.594l3.0938 57.594h4.875c-0.0058-0.38222-0.03125-0.77144-0.03125-1.1562 0-22.294 9.8842-40.344 22.062-40.344s22.062 18.05 22.062 40.344c0 0.38481-0.02541 0.77403-0.03125 1.1562h32.938c-0.17942-2.1904-0.3125-4.4056-0.3125-6.6875 0-24.798 10.985-44.906 24.531-44.906 5.3123 0 10.234 3.0896 14.25 8.3438v-160.72h-10.656v123.12h-7.1562l-16.562-119.97v-3.3438h-0.46875v-0.0625l-0.4375 0.0625h-63.688zm63.656 71.25 3.0625 22.312-6.9688-18.406z"/>
  </g>
 </g>
</svg>
