<?xml version="1.0" encoding="UTF-8"?>
<svg enable-background="new 0 0 1522 1920" version="1.1" viewBox="0 0 1362.5 1823.1" xml:space="preserve" xmlns="http://www.w3.org/2000/svg" xmlns:cc="http://creativecommons.org/ns#" xmlns:dc="http://purl.org/dc/elements/1.1/" xmlns:rdf="http://www.w3.org/1999/02/22-rdf-syntax-ns#"><metadata><rdf:RDF><cc:Work rdf:about=""><dc:format>image/svg+xml</dc:format><dc:type rdf:resource="http://purl.org/dc/dcmitype/StillImage"/><dc:title/></cc:Work></rdf:RDF></metadata>
<g transform="translate(-79.761 -97.112)" stroke-width=".5">
	<path d="m606.16 236.63c6.17-0.32 12.36-1.54 18.54-0.59 21.28 2.52 43.12 4.3 63.02 12.88 18.25 7.84 34.84 19.22 49.7 32.33 25.14 22.68 51.4 44.1 78.19 64.81 4.15 2.91 8.14 6.12 12.69 8.41 3.4 1.86 7.33 0.8 10.98 0.55 5.36 11.09 11.59 21.95 14.35 34.06 5.17 22.1 8.85 44.52 12.02 66.99 2.29 15.58 3.34 31.32 6.08 46.84 3.22 19.49 7.77 39.27 4.97 59.11-2.51 18.72-10.86 35.96-19.15 52.71-14.55 27.87-31.76 54.74-54.05 77.09-12.94 12.78-27.94 24.48-45.76 29.35-18.34 4.6-37.56 1.83-55.7-2.4-38.28-9.44-73.89-27.03-108.39-45.7-13.9-7.64-24.49-20.24-31.79-34.14-9.93-19.2-18.19-39.29-23.98-60.13-1.3-4.07-2-8.34-3.69-12.27-7.03-9.45-14.02-18.99-19.75-29.3-4.89-8.72-7.97-18.27-11.34-27.64-3.99-11.17-7.22-22.59-11.19-33.75-1.55-11.6-2.95-23.23-3.71-34.91-0.11-5.52-0.49-11.73 3.02-16.39 3.93-5.09 10.34-7.68 13.84-13.17 3.66-5.74 3.64-12.9 2.68-19.41-0.95-6.13-1.26-12.38-0.81-18.57 1.35-8.53 1.36-17.34 0.04-25.88-0.32-3.2 0.42-6.38 0.76-9.55 2.59-16.66 4.8-33.9 13.07-48.9 9.28-16.91 23.04-31.5 39.96-40.89 13.67-8.11 29.84-10.17 45.4-11.54m163.1 114.96c-17.96 4.07-33.37 14.65-48.73 24.3-3.76 2.74-8.88 4.95-9.91 9.99-0.46 2.25-1.87 6.19 1.27 7.04 3.67 1.58 5.93-2.33 8.36-4.33 7.97-7.2 16.52-13.96 26.17-18.77 8.4-3.97 17.16-7.1 25.93-10.16 6.58-2.11 13.31-4.46 20.33-4.15 6.28-0.05 12.42 1.52 18.69 1.62-0.2-2.5-2.78-3.23-4.66-4.16-11.8-5.16-25.21-4.53-37.45-1.38m-20.89 43.12c-11.95 7.92-19.75 20.25-29.19 30.7-0.13 0.36-0.4 1.07-0.54 1.43 1.28 0.07 2.56 0.06 3.85-0.01 11.36-1.62 22.57-4.28 34.02-5.29 9.39-0.9 17.76-5.69 26.22-9.48 6.98-3.47 14.17-6.81 20.26-11.75 1.18-1.27 3.42-2.94 2.25-4.86-1.9-2.17-4.85-2.89-7.5-3.64-9.46-2.3-19.29-2.74-28.99-2.28-6.98 0.58-14.39 1.18-20.38 5.18m-184.44 15.74c-9.39 3.17-18.41 7.57-26.52 13.29-5.14 3.53-8.91 8.63-12.12 13.89-0.92 1.41-1.42 3.03-1.76 4.68 3.81-0.77 6.08-4.22 9.2-6.24 8.68-5.94 18.1-11.04 28.37-13.64 11.93-3.23 24.18-5.31 36.52-6.12 13.06-0.56 26.08 0.91 39.07 2.11 1.28-1.38 2.98-2.57 3.55-4.46 0.25-2.59-2.23-4.24-4.27-5.22-12.09-5.1-25.46-3.97-38.24-3.36-11.32 1.16-22.84 1.75-33.8 5.07m16.32 39.04c-6.55 4.65-12.87 9.82-17.83 16.18-1.19 1.7-2.9 3.89-1.74 6.04 2.85 2.14 6.66 1.41 9.99 1.42 11.35-0.92 22.51-3.47 33.39-6.78 9.69-4.4 19.23-9.18 28.4-14.58 3.06-2.02 6.75-2.31 10.32-2.41-0.35-2.09-2.81-2.4-4.41-3.13-11.86-3.77-24.25-7.01-36.8-6.12-7.87 0.84-14.9 5-21.32 9.38m166.01 43.23c1.61 4.55 5.61 7.68 7.7 11.99 2.81 4.79 1.89 10.69 0.22 15.71-1.19 3.98-5.44 5.57-7.73 8.74 4.93-1.14 8.95-5.55 9.92-10.51 1.35-5.19 1.55-11.06-1.59-15.67-2.6-3.58-4.68-7.85-8.52-10.26m-88.39 30.46c-1.17 6.72-0.99 14.1 2.39 20.21 2.82 5.19 9.05 7.43 14.67 7.59-3.43-3.08-9.03-2.43-11.94-6.34-5.52-7.46-4.85-17.53-2.41-26.02-2.29 0.27-2.2 2.83-2.71 4.56m76.51-1.43c-6.47 4.56-9.93 12.44-9.87 20.27 0.22 1.73-1.02 4.57 1.08 5.46 0.7-4.23 0.16-8.86 1.78-12.82 5.25-4.5 11.27-8.05 16.34-12.76-2.6-2.22-6.53-1.62-9.33-0.15m-53.89 17.06c-1.5 1.08-3.95 2.75-2.63 4.84 7.79 0.28 15.61 1.06 23.14 3.27 2.47 1.16 4.33 3.33 6.93 4.3-0.35-1.08-0.95-1.97-1.8-2.67-5.51-4.59-11.99-7.93-18.76-10.22-2.26-0.84-4.88-1.06-6.88 0.48m120.57 1.54c-15.34 3.61-30.72 7.3-45.63 12.46-11.51 4.36-22.19 10.57-33.46 15.47-4.9 2.15-10.38 1.28-15.5 2.32-11.05 2.1-22.07 4.41-32.95 7.26-8.88 2.22-17.33 5.8-25.78 9.25-4.61 2.1-9.6 4.16-12.81 8.26-1.94 2.58-0.68 6.03 1.31 8.17 4.44 4.97 10.49 8.06 15.64 12.19 10.69 8.52 21.41 17.3 33.89 23.1 12.45 5.37 26.35 8.4 39.89 6.21 20-2.78 40.51-10.32 53.88-26.12 8.9-11.44 13.53-25.45 17.91-39.08 3.25-11.34 7.65-22.35 10.04-33.93 1.22-3.66-2.96-7.21-6.43-5.56z" fill="#eeaf8c" stroke="#eeaf8c"/>
	<path d="m858.35 319.13c2.33-2.26 4.55-4.77 7.51-6.23 1.7-1.12 3.02 0.79 4.15 1.81 4.22 4.6 7.57 9.91 10.82 15.22 3.67 6.22 6.97 12.86 7.98 20.1 2.23 16.67 4.03 33.42 4.91 50.22-4.87-11.07-11.38-21.28-17.49-31.67-1.49-7.56-1.77-15.41-4.42-22.73-3.48-9.38-8.96-17.83-13.46-26.72z" fill="#edaf8c" stroke="#edaf8c"/>
	<path d="m506.97 347.51c1.32 8.54 1.31 17.35-0.04 25.88-0.49-8.61-0.72-17.28 0.04-25.88z" fill="#eec5ae" stroke="#eec5ae"/>
	<path d="m769.26 351.59c12.24-3.15 25.65-3.78 37.45 1.38 1.88 0.93 4.46 1.66 4.66 4.16-6.27-0.1-12.41-1.67-18.69-1.62-7.02-0.31-13.75 2.04-20.33 4.15-8.77 3.06-17.53 6.19-25.93 10.16-9.65 4.81-18.2 11.57-26.17 18.77-2.43 2-4.69 5.91-8.36 4.33-3.14-0.85-1.73-4.79-1.27-7.04 1.03-5.04 6.15-7.25 9.91-9.99 15.36-9.65 30.77-20.23 48.73-24.3z" fill="#030102" stroke="#030102"/>
	<path d="m852.98 355.93c13.23 22.73 27.87 44.72 39.53 68.34 4.99 9.52 1.71 20.65-2.18 29.94-0.32-1.26-0.78-2.43-1.4-3.52-2.26-1.37-4.9-0.22-7.22 0.31-1.82-0.86-3.62-2.58-5.77-1.95-2.63 2.22-5.39 6.34-3.11 9.69 1.74 3.03 4.32 5.46 6.81 7.88 1.88-1.32 3.66-2.79 5.6-4.03-1.5 3.25-4 5.93-6.68 8.25-2.23 2-5.3 0.61-7.82 0.13-2.6-22.03-6.11-43.95-10.36-65.71-1.98-9.39-3.63-18.93-7.12-27.9-1.42-2.25 1.58-4.01 1.32-6.3 0.08-5.09-0.91-10.11-1.6-15.13z" fill="#eeaf8c" stroke="#eeaf8c"/>
	<path d="m748.37 394.71c5.99-4 13.4-4.6 20.38-5.18 9.7-0.46 19.53-0.02 28.99 2.28 2.65 0.75 5.6 1.47 7.5 3.64 1.17 1.92-1.07 3.59-2.25 4.86-6.09 4.94-13.28 8.28-20.26 11.75-8.46 3.79-16.83 8.58-26.22 9.48-11.45 1.01-22.66 3.67-34.02 5.29-1.29 0.07-2.57 0.08-3.85 0.01 0.14-0.36 0.41-1.07 0.54-1.43 9.44-10.45 17.24-22.78 29.19-30.7m15.37-2.76c4.37 4.45 6.72 10.85 6.24 17.07-0.11 2.93-2.41 4.97-4.13 7.09 7.05-3 14.03-6.28 20.37-10.61 2.76-1.93 5.42-4.21 6.78-7.38-2.45-2.03-5.44-3.22-8.53-3.86-6.8-1.5-13.77-2.3-20.73-2.31m-35.98 28.93c5.99 0.35 11.98-0.05 17.97-0.4-2.18-1.61-4.7-3.02-5.92-5.55-1.54-2.61-1.8-5.69-2.21-8.63-3.84 4.45-7.13 9.37-9.84 14.58z" fill="#040203" stroke="#040203"/>
	<path d="m763.74 391.95c6.96 0.01 13.93 0.81 20.73 2.31 3.09 0.64 6.08 1.83 8.53 3.86-1.36 3.17-4.02 5.45-6.78 7.38-6.34 4.33-13.32 7.61-20.37 10.61 1.72-2.12 4.02-4.16 4.13-7.09 0.48-6.22-1.87-12.62-6.24-17.07z" fill="#fefefe" stroke="#fefefe"/>
	<path d="m563.93 410.45c10.96-3.32 22.48-3.91 33.8-5.07 12.78-0.61 26.15-1.74 38.24 3.36 2.04 0.98 4.52 2.63 4.27 5.22-0.57 1.89-2.27 3.08-3.55 4.46-12.99-1.2-26.01-2.67-39.07-2.11-12.34 0.81-24.59 2.89-36.52 6.12-10.27 2.6-19.69 7.7-28.37 13.64-3.12 2.02-5.39 5.47-9.2 6.24 0.34-1.65 0.84-3.27 1.76-4.68 3.21-5.26 6.98-10.36 12.12-13.89 8.11-5.72 17.13-10.12 26.52-13.29z" fill="#020101" stroke="#020101"/>
	<path d="m727.76 420.88c2.71-5.21 6-10.13 9.84-14.58 0.41 2.94 0.67 6.02 2.21 8.63 1.22 2.53 3.74 3.94 5.92 5.55-5.99 0.35-11.98 0.75-17.97 0.4z" fill="#fdfdfe" stroke="#fdfdfe"/>
	<path d="m443.77 442.08c3.36-3 8.47-1.95 12.62-1.99 4.05 10.09 8.55 20.01 13.47 29.71 1.74 3.08 3.22 6.67 6.46 8.48 4.55 2.6 10.72 4.19 15.25 0.69 5.41 17.59 10.92 35.2 18.06 52.18 5.78 12.49 14.11 23.54 22.01 34.74-3.48 3.55-7.04 9.26-12.81 8.04-6.93-1.81-13.02-6.03-18.11-10.95-4.83-7.58-8.2-16.1-13.8-23.2-2.97-3.69-7.02-6.34-9.97-10.05-2.82-3.57-3.76-8.15-4.71-12.48-1.93-9.15-3.1-18.7-7.79-26.96-5.62-9.85-11.87-19.33-18.54-28.49-4.05-5.51-5.78-13.62-2.14-19.72m62.32 111.26c-2.03 2.19-3.48 6.05-1.22 8.6 2.01 2.39 4.19 4.67 5.78 7.4 4.25-2.27 9.63-4.27 11.02-9.44 0.09-3.59-3.92-6.4-7.28-5.05-3.08 1.47-5.35-2.52-8.3-1.51z" fill="#eeaf8c" stroke="#eeaf8c"/>
	<path d="m580.25 449.49c6.42-4.38 13.45-8.54 21.32-9.38 12.55-0.89 24.94 2.35 36.8 6.12 1.6 0.73 4.06 1.04 4.41 3.13-3.57 0.1-7.26 0.39-10.32 2.41-9.17 5.4-18.71 10.18-28.4 14.58-10.88 3.31-22.04 5.86-33.39 6.78-3.33-0.01-7.14 0.72-9.99-1.42-1.16-2.15 0.55-4.34 1.74-6.04 4.96-6.36 11.28-11.53 17.83-16.18m34.47-5.46c1.4 1.93 3.28 3.73 3.59 6.22 0.37 2.42-0.92 4.63-1.67 6.84 4.83-2.91 9.55-5.99 14.09-9.34-5.24-1.65-10.62-2.75-16.01-3.72m-43.57 21.94c6.99 2.28 14.51 0.99 21.69 0.53-2.69-1.75-5.86-3.2-7.34-6.23-1.88-3.02-0.92-6.69-0.45-9.95-5.43 4.32-11.74 8.73-13.9 15.65m21.9-11.72c-2.5 1.26-3.24 4.73-1.67 6.99 1.33 2.34 4.52 1.91 6.65 1.09 4.06-2.89-0.73-9.95-4.98-8.08z" fill="#050203" stroke="#050203"/>
	<path d="m614.72 444.03c5.39 0.97 10.77 2.07 16.01 3.72-4.54 3.35-9.26 6.43-14.09 9.34 0.75-2.21 2.04-4.42 1.67-6.84-0.31-2.49-2.19-4.29-3.59-6.22z" fill="#fcfdfd" stroke="#fcfdfd"/>
	<path d="m876.78 450.11c1.58 0.87 3.17 1.74 4.75 2.65 2.3-0.77 4.72-0.98 7.14-0.81-0.22 5.73-4.65 9.6-8.79 12.91-2.25-2.49-5.04-4.74-6.22-7.98-0.61-2.73 1.56-4.84 3.12-6.77z" fill="#39fa62" stroke="#39fa62"/>
	<path d="m571.15 465.97c2.16-6.92 8.47-11.33 13.9-15.65-0.47 3.26-1.43 6.93 0.45 9.95 1.48 3.03 4.65 4.48 7.34 6.23-7.18 0.46-14.7 1.75-21.69-0.53z" fill="#fdfdfd" stroke="#fdfdfd"/>
	<path d="m593.05 454.25c4.25-1.87 9.04 5.19 4.98 8.08-2.13 0.82-5.32 1.25-6.65-1.09-1.57-2.26-0.83-5.73 1.67-6.99z" fill="#222" stroke="#222"/>
	<path d="m885.46 461.31c3.34-0.1-1.8 2.99 0 0z" fill="#dee2e8" stroke="#dee2e8"/>
	<path d="m746.26 492.72c3.84 2.41 5.92 6.68 8.52 10.26 3.14 4.61 2.94 10.48 1.59 15.67-0.97 4.96-4.99 9.37-9.92 10.51 2.29-3.17 6.54-4.76 7.73-8.74 1.67-5.02 2.59-10.92-0.22-15.71-2.09-4.31-6.09-7.44-7.7-11.99z" fill="#0a0100" stroke="#0a0100"/>
	<path d="m657.87 523.18c0.51-1.73 0.42-4.29 2.71-4.56-2.44 8.49-3.11 18.56 2.41 26.02 2.91 3.91 8.51 3.26 11.94 6.34-5.62-0.16-11.85-2.4-14.67-7.59-3.38-6.11-3.56-13.49-2.39-20.21z" fill="#0a0100" stroke="#0a0100"/>
	<path d="m734.38 521.75c2.8-1.47 6.73-2.07 9.33 0.15-5.07 4.71-11.09 8.26-16.34 12.76-1.62 3.96-1.08 8.59-1.78 12.82-2.1-0.89-0.86-3.73-1.08-5.46-0.06-7.83 3.4-15.71 9.87-20.27z" fill="#050201" stroke="#050201"/>
	<path d="m680.49 538.81c2-1.54 4.62-1.32 6.88-0.48 6.77 2.29 13.25 5.63 18.76 10.22 0.85 0.7 1.45 1.59 1.8 2.67-2.6-0.97-4.46-3.14-6.93-4.3-7.53-2.21-15.35-2.99-23.14-3.27-1.32-2.09 1.13-3.76 2.63-4.84z" fill="#050203" stroke="#050203"/>
	<path d="m801.06 540.35c3.47-1.65 7.65 1.9 6.43 5.56-2.39 11.58-6.79 22.59-10.04 33.93-4.38 13.63-9.01 27.64-17.91 39.08-13.37 15.8-33.88 23.34-53.88 26.12-13.54 2.19-27.44-0.84-39.89-6.21-12.48-5.8-23.2-14.58-33.89-23.1-5.15-4.13-11.2-7.22-15.64-12.19-1.99-2.14-3.25-5.59-1.31-8.17 3.21-4.1 8.2-6.16 12.81-8.26 8.45-3.45 16.9-7.03 25.78-9.25 10.88-2.85 21.9-5.16 32.95-7.26 5.12-1.04 10.6-0.17 15.5-2.32 11.27-4.9 21.95-11.11 33.46-15.47 14.91-5.16 30.29-8.85 45.63-12.46m-2.04 1.99c-12.98 3.1-25.93 6.39-38.68 10.33-13.17 4.34-25.17 11.43-37.82 17.01-5.28 2.19-11.14 1.52-16.66 2.57-11.2 2.19-22.38 4.52-33.41 7.46-8.08 2.1-15.77 5.4-23.5 8.51-4.23 1.87-8.72 3.63-12.03 6.99-1.88 1.74-1.76 4.87-0.08 6.72 4.07 5.02 9.94 8.01 14.98 11.93 14.53 11.46 29.35 24.1 47.93 28.14 16.18 4.54 33.28 1.27 48.82-4.09 14.01-5.08 27.39-13.97 34.76-27.26 9-15.62 12.88-33.4 18.73-50.29 1.6-6 4.34-12.01 3.57-18.35-2.22-0.2-4.46-0.26-6.61 0.33z" fill="#0a0100" stroke="#0a0100"/>
	<path d="m799.02 542.34c2.15-0.59 4.39-0.53 6.61-0.33 0.77 6.34-1.97 12.35-3.57 18.35-5.85 16.89-9.73 34.67-18.73 50.29-7.37 13.29-20.75 22.18-34.76 27.26-15.54 5.36-32.64 8.63-48.82 4.09-18.58-4.04-33.4-16.68-47.93-28.14-5.04-3.92-10.91-6.91-14.98-11.93-1.68-1.85-1.8-4.98 0.08-6.72 3.31-3.36 7.8-5.12 12.03-6.99 7.73-3.11 15.42-6.41 23.5-8.51 11.03-2.94 22.21-5.27 33.41-7.46 5.52-1.05 11.38-0.38 16.66-2.57 12.65-5.58 24.65-12.67 37.82-17.01 12.75-3.94 25.7-7.23 38.68-10.33m-11.93 10.15c-8.55 4.46-17.06 8.99-25.65 13.38-13.97 7.03-27.7 14.97-42.93 19.01-23.74 6.5-48.6 5.9-72.87 8.9-1.49 0.21-2.87 0.78-4.25 1.32 0.44 1.48 0.82 3.08 2.01 4.18 3.37 3.61 7.32 6.68 11.54 9.24 2.37 4.5 8.42 5.4 12.98 6.53l-0.46-0.92c2.84 0.93 5.72 1.76 8.65 2.36l-0.3 1.17c3.52 0.91 7.13 1.34 10.77 1.41l0.11-1.03c1.76 0.16 3.52 0.32 5.29 0.44l-0.18 1.12c5.35 0.62 10.79 0.79 16.12-0.15l-0.65-0.88c11.22-0.75 22.43-2.85 32.84-7.23 13.11-5.59 25.36-13.28 36.05-22.71 3.92 0.54 6.66-3.37 6.27-6.98 7.01-8.81 11.39-19.28 15.09-29.81 0.52-1.6 0.84-3.26 1.14-4.92-4.12 1.27-7.76 3.63-11.57 5.57z" fill="#c54250" stroke="#c54250"/>
	<path d="m787.09 552.49c3.81-1.94 7.45-4.3 11.57-5.57-0.3 1.66-0.62 3.32-1.14 4.92-3.7 10.53-8.08 21-15.09 29.81-2 2.4-4.1 4.73-6.27 6.98-10.69 9.43-22.94 17.12-36.05 22.71-10.41 4.38-21.62 6.48-32.84 7.23-5.1 0.07-10.2 0.21-15.29-0.09-1.77-0.12-3.53-0.28-5.29-0.44-3.55-0.36-7.08-0.87-10.58-1.55-2.93-0.6-5.81-1.43-8.65-2.36-4.21-1.78-8.47-3.49-12.52-5.61-4.22-2.56-8.17-5.63-11.54-9.24-1.19-1.1-1.57-2.7-2.01-4.18 1.38-0.54 2.76-1.11 4.25-1.32 24.27-3 49.13-2.4 72.87-8.9 15.23-4.04 28.96-11.98 42.93-19.01 8.59-4.39 17.1-8.92 25.65-13.38m-51.79 28.04c-24.76 11.08-52.35 11.54-78.93 13.56-0.29 5.02 0.78 9.99 2.38 14.73 7.88 3.68 16.26 6.48 24.95 7.29 21.2 2.56 43.5 0.6 62.73-9.27 14.11-7.41 28.24-16.28 37.38-29.68 0.73-1.26 2.13-2.44 1.79-4.05-0.82-5.49-0.78-11.35-3.73-16.26-15.39 8.15-30.78 16.32-46.57 23.68z" fill="#030102" stroke="#030102"/>
	<path d="m506.09 553.34c2.95-1.01 5.22 2.98 8.3 1.51 3.36-1.35 7.37 1.46 7.28 5.05-1.39 5.17-6.77 7.17-11.02 9.44-1.59-2.73-3.77-5.01-5.78-7.4-2.26-2.55-0.81-6.41 1.22-8.6m0.64 1.2c-0.73 1.88-2.06 4.16-0.86 6.14 1.61 2.34 3.81 4.19 5.65 6.36 3.27-1.58 7.4-3.14 8.38-7.07 0.4-1.81-1.41-2.87-2.33-4.1-1.88 0.32-3.74 0.87-5.64 0.9-1.79-0.64-3.47-1.51-5.2-2.23z" stroke="#000"/>
	<path d="m506.73 554.54c1.73 0.72 3.41 1.59 5.2 2.23 1.9-0.03 3.76-0.58 5.64-0.9 0.92 1.23 2.73 2.29 2.33 4.1-0.98 3.93-5.11 5.49-8.38 7.07-1.84-2.17-4.04-4.02-5.65-6.36-1.2-1.98 0.13-4.26 0.86-6.14z" fill="#37fb61" stroke="#37fb61"/>
	<path d="m735.3 580.53c15.79-7.36 31.18-15.53 46.57-23.68 2.95 4.91 2.91 10.77 3.73 16.26 0.34 1.61-1.06 2.79-1.79 4.05-9.14 13.4-23.27 22.27-37.38 29.68-19.23 9.87-41.53 11.83-62.73 9.27-8.69-0.81-17.07-3.61-24.95-7.29-1.6-4.74-2.67-9.71-2.38-14.73 26.58-2.02 54.17-2.48 78.93-13.56z" fill="#fafafc" stroke="#fafafc"/>
	<path d="m776.16 588.63c2.17-2.25 4.27-4.58 6.27-6.98 0.39 3.61-2.35 7.52-6.27 6.98z" fill="#b54e5a" stroke="#b54e5a"/>
	<path d="m654.94 608.52c4.05 2.12 8.31 3.83 12.52 5.61l0.46 0.92c-4.56-1.13-10.61-2.03-12.98-6.53z" fill="#b75461" stroke="#b75461"/>
	<path d="m676.11 616.49c3.5 0.68 7.03 1.19 10.58 1.55l-0.11 1.03c-3.64-0.07-7.25-0.5-10.77-1.41z" fill="#b85867" stroke="#b85867"/>
	<path d="m691.98 618.48c5.09 0.3 10.19 0.16 15.29 0.09l0.65 0.88c-5.33 0.94-10.77 0.77-16.12 0.15z" fill="#c75f6c" stroke="#c75f6c"/>
	<path d="m862.13 965.07c-5.16-6.07-10.51-12.03-14.65-18.86-3.85-6.43-5.6-13.87-6.43-21.24-0.95-8.47-2.24-17.11-0.76-25.58 1.03-6.31 6.8-10.29 8.39-16.37 5.1-17.25 7.92-35.05 12.35-52.46 0.26-0.96 0.18-1.88-0.24-2.76-8.57-22.97-13.64-47.06-17.92-71.15-1.65-8.69-2.14-17.56-3.66-26.25-0.54-12.27-0.22-24.56-0.02-36.82 0.1-0.4 0.29-1.18 0.39-1.57 1.02-15.33 2.08-30.66 3.77-45.93-13.84 21.4-29.45 42.05-49.14 58.43-12.53 10.32-27.15 19.01-43.46 21.3-17.51 2.33-35.25-0.36-52.23-4.68-32.82-8.46-63.72-22.87-93.67-38.48 3.79 14.63 7.71 29.24 11.21 43.95 2.4 7.71-2.02 15.92 0.54 23.54 6.87 7.43 14.18 14.45 21.2 21.76 33.89 34.23 65.15 70.93 97.07 106.97 6.82 7.79 13.49 15.76 21.38 22.52 6.34 5.98 13.98 12.01 15.78 21.03 1.35 9.73-1.66 19.38-4.63 28.55 7.86 9.54 15.73 19.1 24.03 28.27 13.47 14.86 28.72 27.98 42.3 42.73 4.8 5.13 8.94 10.83 13.4 16.24-0.4-13.35 3.56-26.25 6.94-39 3.19-11.26 5.78-22.67 8.06-34.14z" fill="#eeaf8c" stroke="#eeaf8c"/>
	<path d="m848.42 709.32c2.1-1.89 4.42-3.55 7.04-4.63 0.09 1.8 0.15 3.61 0.22 5.43-2.41-0.38-4.84-0.64-7.26-0.8z" fill="#f7fefb" stroke="#f7fefb"/>
	<path d="m841.84 708.49c1.41 0.15 1.65 0.81 0.73 1.98-1.42-0.17-1.67-0.83-0.73-1.98z" fill="#434345" stroke="#434345"/>
	<path d="m859.8 714.45c2-2.1 3.59-4.53 5.5-6.7 0.45 5.71 0.16 11.46 0.85 17.16-2.09-3.51-4.11-7.05-6.35-10.46z" fill="#fcfcfc" stroke="#fcfcfc"/>
	<path d="m842.06 713.52c4.86-0.37 11.72-2.85 14.83 2.33 7.27 10.84 13 22.64 18.47 34.47 7.95 17.03 12.39 35.4 16.03 53.76 1.14 7.15 2.54 14.34 2.79 21.58-10.2 45.18-21.17 90.2-30.99 135.48-4.87-4.75-8.98-10.25-12.68-15.93-6.14-9.91-6.49-21.87-7.68-33.12-0.49-6.49-0.47-13.77 3.89-19.07 5.19-6.12 6.31-14.28 8.27-21.78 3.49-13.74 5.85-27.74 9.42-41.46 2.24-9.17 0.24-18.65-3.25-27.21-2.91-6.89-5.38-14.09-9.71-20.24-0.77-1.16-0.92-2.59-1.26-3.88-4.44-21.37-8.2-43.05-8.13-64.93z" fill="#cb8587" stroke="#cb8587"/>
	<path d="m870.65 733.45c6.88-1.36 10.48-8.34 16.81-10.79 0.48 3.3 0.89 6.62 1.2 9.95-3.14-0.98-5.64-4.47-9.1-3.8-0.06 0.51-0.17 1.53-0.23 2.04 2.92 2.06 6.07 3.77 9.19 5.53 0.85 14.91 0.9 29.87 0.96 44.8-4.17-16.66-10.83-32.57-18.83-47.73z" fill="#fefefe" stroke="#fefefe"/>
	<path d="m598.08 734.95c20.65 22.85 43.05 44.05 63.93 66.69 22.82 24.91 45.05 50.35 67.4 75.69 7.92 9.03 15.62 18.35 24.69 26.29 5.62 5.36 12.38 10.5 14.61 18.29 1.85 8.84-1.28 17.67-3.44 26.16-5.1-5.16-9.36-11.08-14.07-16.58-28.06-33.94-55.94-68.03-83.86-102.09-23.7-28.82-47.08-57.9-70.94-86.58 0.53-2.64 1.11-5.26 1.68-7.87z" fill="#cb8587" stroke="#cb8587"/>
	<path d="m595.12 746.01c55.9 68.26 111.59 136.69 167.88 204.64 10.94 13.03 21.54 26.39 33.49 38.53 14.21 14.8 30.08 28.06 42.83 44.23 3.86 5.24 8.4 10.25 10.37 16.59 2.8 8.12 8.3 14.83 13.4 21.59 3.6 5.33 6.16 11.28 9.06 17.01 5.49 9.77 4.14 21.57 8.73 31.69-8.05-0.63-14.2-6.59-20.73-10.71-16.43-11.93-32.38-24.57-49.55-35.44-10.74-6.87-22.09-12.91-34.24-16.86-22.93-7.75-47.1-10.78-70.24-17.78-8.87-2.91-18.2-6.24-24.69-13.28-4.78-5.1-5.75-12.52-5.05-19.22 1.14-11.82 5.63-22.93 9.07-34.2 2.32-7.75 4.84-15.71 4.22-23.9-0.27-4.29-2.2-8.62-5.76-11.16-3.67-2.59-8.2-3.41-12.53-4.14 0.31-0.34 0.93-1.02 1.24-1.36-9.01-0.35-18.05-0.33-27.06-0.02 0.6 0.36 1.81 1.07 2.41 1.43-17.35 1.48-34.53 4.49-51.56 8.05-7.65 1.76-15.46 3.01-22.88 5.6 0.75 0.95 1.17 2.94 2.78 2.16 27.42-6.37 55.17-12.28 83.39-13.26 6.72 0.14 13.7 0.23 20.02 2.75 4.8 1.82 7.02 7.16 6.98 12-0.11 7.65-2.47 15.04-4.72 22.28-3.57 11.41-7.93 22.76-8.9 34.78-0.59 7.24 1.02 15.07 6.16 20.48 6.64 7.15 16.06 10.75 25.12 13.77 23.6 7.27 48.33 10.25 71.74 18.25 15.33 5.03 29.16 13.59 42.42 22.62 13.62 9.25 26.53 19.49 39.92 29.07 4.53 3.17 9.06 6.4 13.99 8.96 3.41 2.21 7.43 2.27 11.29 1.44 6.05 0.57 10.24-4.56 14.51-8.01 14.86-13.82 28.35-29.02 41.83-44.16 11-12.07 20.85-25.15 32.26-36.85 4.75-5.12 9.12-11.34 9.39-18.57 0.18-4.57-2.44-8.57-4.64-12.35-7.21-11.3-16.22-21.33-23.41-32.64-2.19-3.64-4.63-7.47-4.83-11.82 0.77-3.5 5.07-3.32 7.87-3.26 10.74 0.63 21.06 4.11 31.7 5.55 5.49 0.6 11.5 1.43 16.61-1.2 3.72-1.89 4.71-6.43 4.67-10.26-0.07-8.75-2.21-17.32-4.31-25.77-3.79-14.35-8.54-28.42-13.62-42.36-2.79-7.47-5.4-15.03-9.09-22.11 14.35 13.72 27.87 28.31 41.64 42.62 27.81 29.56 55.43 59.31 82.14 89.87 9.52 10.62 17.81 22.23 26.25 33.71 4.14 5.99 8.43 13.12 6.7 20.71-2.26 7.3-9.28 11.46-13.38 17.58-3.75 5.27-5.36 11.65-7.35 17.71-3.89 12.98-5.91 26.88-3.26 40.31 2.54 10.31 6.99 20.02 11.42 29.63 6.82 14.11 13.82 28.26 22.78 41.16 1.63 2.95 4.94 3.76 8.06 4.07 2.57 9.27 7.57 17.56 11.64 26.21 2.63 5.66 5.75 11.1 8.21 16.84 0.95 6.7 1.04 13.51 1.61 20.26-34.4 0.66-68.74 2.94-103.08 4.82-13.37 0.71-26.21 4.86-39.46 6.38-5.3 0.61-11.62 0.05-15.15-4.48-4.45-5.69-4.56-13.3-5.77-20.12-1.13-9.45-4.85-18.26-7.83-27.21-7.81-22.57-15.6-45.14-23.45-67.7-0.73-0.02-2.18-0.06-2.9-0.08 0.38 1.9 0.84 3.8 1.48 5.65 7.33 21.03 14.61 42.08 21.87 63.14 2.85 8.62 6.49 17.08 7.64 26.17 1.28 7.66 1.53 16.2 6.76 22.45 3.98 4.79 10.64 5.97 16.56 5.42 13.15-1.22 25.83-5.54 39.04-6.33 34.8-2.17 69.62-3.99 104.46-5.14 2.57 43.79 5.1 87.69 3.39 131.57-0.61 10.75-1.41 21.67-5.07 31.9-7.69 23.18-22.51 42.92-36.06 62.92-11.9 17.03-15.85 37.84-23.65 56.76-6.97-2-13.9-4.1-20.86-6.1-81.67-23.61-162.77-49.15-244.1-73.88-95.84-29.21-191.57-58.8-287.69-87.1-6.09-1.95-12.49-3.05-18.25-5.91-1.92-1.29-4.06 0.08-5.9 0.8-4.94 2.32-10.59 4.97-12.48 10.54-15.33 36.77-29.45 74.03-43.86 111.16-15.86 41.26-31.59 82.57-46.86 124.06-3.86 10.66-7.82 21.29-11.15 32.14-4.52-6.9-8.55-14.16-11.54-21.86-3.92-9.89-5.01-20.72-4.38-31.27 0.82-10.53 6.72-19.81 7.98-30.21 0.75-6.61-4.84-11.02-8.9-15.26-3.51-3.08-3.76-7.91-2.83-12.17 5.94-36.24 14.35-72.03 21.2-108.11 1.25-7.28 3.24-14.65 2.16-22.09-1.12-7.76-4.82-15.29-3.51-23.27 1.18-6.46 3.17-12.73 4.89-19.05 7.2-24.92 15.08-49.64 22.48-74.5 1.56-5.84 3.7-11.56 4.55-17.55 0.66-5.73-3.1-10.6-3.88-16.08-0.08-4.91 2.47-9.34 3.08-14.14-1.56-0.1-3.16 0.44-3.49 2.15-1.22 2.96-2.11 6.06-2.62 9.23-1.32 7.45 5.85 13.85 3.3 21.35-8.34 30.28-18.35 60.08-26.92 90.3-2.26 8.83-5.94 17.76-4.37 27.05 1.38 8.1 5.06 16.12 3.26 24.48-6.72 38.43-15.9 76.39-22.48 114.84-0.65 4.5-1.79 9.13-0.89 13.68 1.81 5.95 7.93 8.9 10.85 14.15 1.87 3.32 0.78 7.24-0.23 10.66-2.44 7.74-5.79 15.29-6.68 23.43-0.81 12.03 0.37 24.41 5.31 35.53 4.62 11.59 11.89 21.81 19.01 31.96 7.04 6.97 13.84 14.3 22.04 19.96 14.89 10.63 32.82 15.31 49.9 21.16 54.84 20.1 110.95 36.52 166.04 55.89 19.5 6.94 38.74 14.67 58.68 20.28 6.28 1.71 12.69 3 19.19 3.56-0.59 0.34-1.78 1.02-2.37 1.36 7.73 0.27 15.46 0.27 23.2 0.04-0.6-0.37-1.78-1.09-2.38-1.46 9.05-0.59 18.2-0.71 27.16 0.91 14.69 2.63 28.85 7.52 43.03 12.09-3.53 2.95-7.65 6.08-8.55 10.89-2.53 16.78 0.54 34.42-5.53 50.62-2.82 7.82-6.81 15.41-7.4 23.85-1.02 12.12-1.66 24.29-3.69 36.3h-4.77c-0.81-1.62-1.4-1.62-1.76 0h-508.35c-11.62-6.53-23.23-13.11-34.23-20.65-16.2-10.88-31.64-22.86-46.77-35.17-29.28-23.64-54.79-51.69-77.18-81.87-20.98-28.5-39.68-59.39-49.39-93.67-4.82-17.5-7.91-36.12-3.98-54.1 2.54-11.93 7.07-23.32 9.9-35.17 3.12-13.33 7.76-26.22 12.04-39.2 4.59-14.56 10.15-29.57 8.4-45.09-1.26-12.5-7.22-24.09-7.6-36.73 1.47-7.46 1.48-15.19 0-22.65 0.12-10.47 1.22-20.9 2.25-31.31 2.42-20.35 5.43-40.76 11.74-60.32 6.98-22.08 15.99-43.48 22.16-65.82 5.92-20.3 9-41.25 12.17-62.11 6.48-43.18 11.43-86.61 19.37-129.56 2.47-13.77 6.29-27.23 10.13-40.66 4.74-16.49 9.94-32.86 16.32-48.78 9.07-22.96 21.61-44.61 37.46-63.55 9.49-11.2 20.81-20.66 32.45-29.54 8.6-6.39 18.05-11.5 27.47-16.54 21.97-11.45 44.5-21.8 67.18-31.74 2.08-1.29 4.56 0.57 6.64-0.38 6.21-4.36 10.37-10.96 16.2-15.77 5.04-4.93 11.55-7.93 18.34-9.58 21.37-5.87 43.28-9.45 64.92-14.17 15.79-3.82 32.53-3.52 47.62-10.11 0.97 9.99 2.18 19.97 3.98 29.85 6.65 28.42 15.12 56.38 22.37 84.65 12.3 46.31 22.55 93.12 33 139.88 5.23 24.6 10.94 49.14 14.83 74.01 1.61 7.59-3.87 13.82-8.11 19.41-5.57 8.6-14.56 14.15-20.48 22.47-3.5 4.55-5.63 10.01-6.58 15.65-2.35 12.4-1.74 25.47 2.46 37.42 3.53 10.06 10.6 18.47 18.63 25.31 12.07 10.21 27.38 17.42 43.42 17.33 17.57-0.93 34.27-8.95 47.51-20.28 8.64-7.26 13.96-18.14 14.48-29.4 0.47-10.77-1.06-21.78-5.27-31.74-5.79-12.99-14.86-24.2-24.52-34.51-5.65-6.15-13.59-9.16-20.59-13.37-9.18-5.59-14.21-15.76-17.2-25.71-2.52-8.86-4.98-17.73-7.39-26.61-7.41-31.55-13.68-63.36-21.04-94.92-11.75-51.83-27.11-102.72-41.12-153.96-4.42-15.27-6.56-31.14-7.63-46.96 1.51-3.8 5.28-6.14 7.97-9.09 17.69-17.69 36.76-35.46 46.25-59.18z" fill="#dee3e9" stroke="#dee3e9"/>
	<path d="m891.99 791.87c4.56-2.7 4.32-8.62 6.5-12.9-0.97 8.42-2.69 16.74-3.45 25.19-1.99-3.75-1.64-8.31-3.05-12.29z" fill="#fdfcfe" stroke="#fdfcfe"/>
	<path d="m939.61 792.76c2.43-3.47 4.73-7.03 7.03-10.59 6.24 6.38 12.28 12.96 18 19.82 1.48 1.92 3.23 3.76 4.05 6.1 0.33 2.42-0.31 4.82-0.85 7.17-9.34-7.59-18.68-15.17-28.23-22.5z" fill="#dee2e8" stroke="#dee2e8"/>
	<path d="m937.8 795.15c7.29 5.2 14.08 11.06 21.12 16.6 8.91 7.79 18.5 14.77 27.34 22.66 19.26 15.98 36.84 33.83 54.22 51.8 14.26 15.46 28.02 31.36 41.94 47.12 25.19 29.24 48.38 60.12 73.23 89.64 3.98 4.31 7.48 9.31 12.53 12.46 6.36 2.25 12.87-1.42 19.35-1.1 15.81 1.04 32.32 4.6 44.76 15.02 14.52 12.36 26.36 27.64 35.97 44.06 7.44 12.51 14.39 25.34 20.43 38.59 0.71 2.29 2.62 5.33 0.45 7.39-1.93 2.14-5.06 4.64-8.05 3.47-3.72-3.22-5.74-7.87-8.37-11.93-8.19-14-16.13-28.2-25.5-41.46-6.12-7.81-12.44-15.5-19.57-22.42-5.94-5.73-13.2-9.87-20.59-13.43-7.35-3.55-15.54-5.72-23.74-5.13-11 0.9-22.15 4.29-30.62 11.61-10.27 8.54-15.76 21.59-17.28 34.64-1.35 10.5-1.03 21.52 3.25 31.37 6.9 16.18 15.55 31.54 23.74 47.09 2.05 4.44 5.21 8.64 5.55 13.66-1.43 3.14-4.89 4.62-8.02 5.47-2.44 0.53-5.71 1.25-7.36-1.2-3.86-4.71-6.68-10.17-9.74-15.4-6.39-11.2-12.07-22.79-17.27-34.59-3.02-7.26-6.32-14.53-7.63-22.32-1.59-11.86-0.3-23.99 3.1-35.43 2.26-7.49 4.29-15.44 9.7-21.37 4.58-5.52 11.13-10.38 11.96-18.03 0.65-8.07-3.87-15.35-8.36-21.67-6.36-8.31-12.19-17.02-18.97-24.99-22.27-26.3-45.84-51.46-69.16-76.82-23.68-25.32-47.51-50.52-72.44-74.63-14.56-13.54-29.88-26.22-45.06-39.04 2.8-4.07 5.8-8 9.09-11.69z" fill="#2b3b55" stroke="#2b3b55"/>
	<path d="m897.64 825.86c7.72-5.78 12.14-14.58 18.03-21.97-1.3 4.15-4.15 7.74-4.93 12.04 0.92 3.03 5.22 2.53 7.63 1.76 3.46-2.12 5.74-5.65 8.51-8.54 15.02 12.48 30.02 25.01 44.29 38.36 5.24 7.03 10.23 14.46 13.21 22.79 7.9 20.81 15.5 41.85 20.26 63.64 1.06 6.35 2.82 12.96 1.3 19.37-0.98 3.97-5.77 4.59-9.18 4.71-11.92-0.29-23.35-4.2-35.1-5.82-3.83-0.41-7.85-0.91-11.57 0.36-2.98 0.96-4.92 4.19-4.33 7.28 0.96 5.53 4.21 10.29 7.22 14.92 6.94 10.29 15.17 19.68 21.8 30.18 2.19 3.79 4.89 8.11 3.44 12.68-2.26 9.67-10.73 15.8-16.83 23.04-16.35 19.6-33.17 38.82-50.78 57.3-6.12 6.22-12.18 12.53-18.9 18.11-2.06 1.57-4.19 3.52-6.95 3.48 0.53-11.17-5.68-20.89-8.29-31.4-2.43-8.65-9.14-15.01-13.01-22.93-3.76-7.05-8.3-13.67-12.1-20.68-2.2-9.03-0.62-18.46 1.35-27.39 3.29-14.2 7.83-28.09 10.61-42.41 0.68-4.51 2.57-8.73 2.93-13.29 5.06-23.12 10.47-46.16 15.76-69.23 5.23-22.11 10.03-44.36 15.63-66.36z" fill="#dee3e9" stroke="#dee3e9"/>
	<path d="m390.4 823.22c-1.41-3.21-1.43-7.2 0.01-10.39 0.51 3.44 0.51 6.94-0.01 10.39z" fill="#373737" stroke="#373737"/>
	<path d="m523.01 824.08c5-2.86 10.02-5.7 14.65-9.13 1.62 13.12 2.75 26.37 5.97 39.22 13.07 48.83 27.82 97.22 39.61 146.38 7.79 32.9 14.67 66 21.98 99.01 2.61 12.26 6.3 24.24 9.56 36.33 1.55 5.99 4.25 11.57 6.96 17.11-8.06 2.65-16.87 3.19-24.23 7.75 0.18-8.29-1.89-16.37-3.24-24.49-9.37-47.16-20.15-94.03-31-140.87-9.96-43.16-22.1-85.76-33.5-128.55-3.9-13.94-5.32-28.41-6.76-42.76z" fill="#2b3b55" stroke="#2b3b55"/>
	<path d="m972.46 818.96c16.84-0.7 33.72-0.74 50.56 0.06-3.4 0.73-6.86 1.15-10.33 1-9.33-0.28-18.67 0.03-28-0.19-3.28-0.11-6.54 0.38-9.67 1.3-0.86-0.73-1.73-1.46-2.56-2.17z" fill="#fcfdfd" stroke="#fcfdfd"/>
	<path d="m1440.8 1429.8c-1.17-12.72-3.29-25.35-6.11-37.81-2.23-9.68-4.55-19.39-8.35-28.6-9.17-22.7-20.54-44.42-31.85-66.11-42.6-79.63-88.84-157.24-135.6-234.47-1.78-2.96-3.76-5.81-5.12-8.98-1.79-4.76-5.67-8.25-8.56-12.32-23.71-30.94-47.84-61.78-67.42-95.58-10.19-17.22-19.78-34.78-30.15-51.88-4.06-6.54-8.11-13.1-12.94-19.09-9.91-12.02-20.56-23.64-33.37-32.62-12.68-8.85-26.39-16.6-41.39-20.69-10.54-2.87-21.29-5.17-32.22-5.67-18.82-1.07-37.69-1.02-56.51-0.27 0.45-3.75 1.68-8.1-0.85-11.4-6.48-9.07-14.54-16.85-21.97-25.12 4.19-7.44 8.09-15.46 8.4-24.16 1.29-18.72-6.72-36.43-15.83-52.27-7-12.22-22.16-16.81-28.61-29.43-4.39-8.8-6.88-18.39-9.16-27.91-4.73-20.78-6.76-42.22-5.28-63.51 1.85-17.34 8.64-33.6 15.13-49.62 8.36-20.43 18.24-40.57 22.31-62.43 2.64-19.5 2.3-39.49-1.63-58.81-2.71-13.36-6.67-26.43-10.69-39.46-11.48-36.92-25.83-73.14-45.23-106.67-9.15-15.78-19.43-30.94-31.23-44.86-21.1-24.63-46.19-45.51-72.32-64.58-18.43-13.25-37.44-25.76-57.36-36.67-24.47-13.93-52.67-19.55-80.52-21.08-15.91-0.99-32.2-0.22-47.51 4.53-11.65 3.56-19.85 13.54-31.32 17.5-19.46 6.91-39.53 12.18-58.41 20.66-7.62 3.52-15.46 7.57-20.5 14.55-7.54 9.59-9.23 22-12.59 33.37-2.97 10.49-8.4 20.02-13.4 29.63-13.15 24.82-26.26 49.7-37.53 75.45-8.09 18.21-14.49 37.09-21.18 55.85-7.9 22.37-15.06 45.09-19.31 68.48-3.97 22.5-6.73 45.37-5.77 68.26 1.89 46.16 10.09 91.73 15.5 137.54 0.67 8.19 2.12 16.53 0.44 24.7-2.93 16.53-14.3 30.02-17.5 46.49-4.43 21.71-6.96 43.76-9.18 65.8-0.94 10.45-1.74 20.93-1.57 31.43-0.33 11.4 5.13 21.87 10.67 31.47 3.32 5.29 6.5 10.94 11.61 14.73 3.18-1.98 2.65-5.93 2.66-9.14-0.37-8.04 2.23-15.81 4.97-23.24 0.44 5.72 0.19 11.46 0.24 17.19 0.01 5.28-0.27 10.73-2.4 15.65-4.16 9.62-9.45 18.72-13.37 28.45-0.79 1.8-1.18 4.15-3.37 4.75-19.35 8.42-38.57 17.18-57.46 26.59-12.66 6.4-25.38 12.83-37.12 20.85-13.53 9.91-26.49 20.78-37.28 33.68-16.35 19.93-29.09 42.69-38.25 66.76-9.16 23.98-16.3 48.71-22.51 73.6-9.1 43.14-13.84 87.02-20.29 130.6-3.85 25.62-7.18 51.47-14.63 76.36-5.81 20.2-13.77 39.67-20.3 59.63-6.22 18.51-9.58 37.82-12.04 57.15-1.97 15.58-3.18 31.25-3.43 46.95-0.04 7.75-0.17 15.59 1.36 23.23 1.8 9.71 5.76 18.96 6.64 28.85 1.17 10.77-1.7 21.42-4.69 31.67-3.81 12.66-8.42 25.06-12.21 37.73-2.42 7.81-4 15.86-6.44 23.68-3.95 12.99-8.56 26.04-8.86 39.77-0.34 17.28 3.57 34.37 9.04 50.68 12.03 35.41 32.91 66.99 55.68 96.35 22.01 28.06 47 53.87 75.15 75.81 22.17 17.8 45.25 34.66 70.29 48.22h6.35c-11.62-6.53-23.23-13.11-34.23-20.65-16.2-10.88-31.64-22.86-46.77-35.17-29.28-23.64-54.79-51.69-77.18-81.87-20.98-28.5-39.68-59.39-49.39-93.67-4.82-17.5-7.91-36.12-3.98-54.1 2.54-11.93 7.07-23.32 9.9-35.17 3.12-13.33 7.76-26.22 12.04-39.2 4.59-14.56 10.15-29.57 8.4-45.09-1.26-12.5-7.22-24.09-7.6-36.73-0.54-7.54-0.37-15.11 0-22.65 0.12-10.47 1.22-20.9 2.25-31.31 2.42-20.35 5.43-40.76 11.74-60.32 6.98-22.08 15.99-43.48 22.16-65.82 5.92-20.3 9-41.25 12.17-62.11 6.48-43.18 11.43-86.61 19.37-129.56 2.47-13.77 6.29-27.23 10.13-40.66 4.74-16.49 9.94-32.86 16.32-48.78 9.07-22.96 21.61-44.61 37.46-63.55 9.49-11.2 20.81-20.66 32.45-29.54 8.6-6.39 18.05-11.5 27.47-16.54 21.97-11.45 44.5-21.8 67.18-31.74 2.08-1.29 4.56 0.57 6.64-0.38 6.21-4.36 10.37-10.96 16.2-15.77 5.04-4.93 11.55-7.93 18.34-9.58 21.37-5.87 43.28-9.45 64.92-14.17 15.79-3.82 32.53-3.52 47.62-10.11 0.97 9.99 2.18 19.97 3.98 29.85 6.65 28.42 15.12 56.38 22.37 84.65 12.3 46.31 22.55 93.12 33 139.88 5.23 24.6 10.94 49.14 14.83 74.01 1.61 7.59-3.87 13.82-8.11 19.41-5.57 8.6-14.56 14.15-20.48 22.47-3.5 4.55-5.63 10.01-6.58 15.65-2.35 12.4-1.74 25.47 2.46 37.42 3.53 10.06 10.6 18.47 18.63 25.31 12.07 10.21 27.38 17.42 43.42 17.33 17.57-0.93 34.27-8.95 47.51-20.28 8.64-7.26 13.96-18.14 14.48-29.4 0.47-10.77-1.06-21.78-5.27-31.74-5.79-12.99-14.86-24.2-24.52-34.51-5.65-6.15-13.59-9.16-20.59-13.37-9.18-5.59-14.21-15.76-17.2-25.71-2.52-8.86-4.98-17.73-7.39-26.61-7.41-31.55-13.68-63.36-21.04-94.92-11.75-51.83-27.11-102.72-41.12-153.96-4.42-15.27-6.56-31.14-7.63-46.96 1.51-3.8 5.28-6.14 7.97-9.09 17.69-17.69 36.76-35.46 46.25-59.18 55.9 68.26 111.59 136.69 167.88 204.64 10.94 13.03 21.54 26.39 33.49 38.53 14.21 14.8 30.08 28.06 42.83 44.23 3.86 5.24 8.4 10.25 10.37 16.59 2.8 8.12 8.3 14.83 13.4 21.59 3.6 5.33 6.16 11.28 9.06 17.01 5.49 9.77 4.14 21.57 8.73 31.69-8.05-0.63-14.2-6.59-20.73-10.71-0.43 0.65-1.28 1.96-1.71 2.62 4.53 3.17 9.06 6.4 13.99 8.96 3.41 2.21 7.43 2.27 11.29 1.44 6.05 0.57 10.24-4.56 14.51-8.01 14.86-13.82 28.35-29.02 41.83-44.16 11-12.07 20.85-25.15 32.26-36.85 4.75-5.12 9.12-11.34 9.39-18.57 0.18-4.57-2.44-8.57-4.64-12.35-7.21-11.3-16.22-21.33-23.41-32.64-2.19-3.64-4.63-7.47-4.83-11.82 0.77-3.5 5.07-3.32 7.87-3.26 10.74 0.63 21.06 4.11 31.7 5.55 5.49 0.6 11.5 1.43 16.61-1.2 3.72-1.89 4.71-6.43 4.67-10.26-0.07-8.75-2.21-17.32-4.31-25.77-3.79-14.35-8.54-28.42-13.62-42.36-2.79-7.47-5.4-15.03-9.09-22.11 14.35 13.72 27.87 28.31 41.64 42.62 27.81 29.56 55.43 59.31 82.14 89.87 9.52 10.62 17.81 22.23 26.25 33.71 4.14 5.99 8.43 13.12 6.7 20.71-2.26 7.3-9.28 11.46-13.38 17.58-3.75 5.27-5.36 11.65-7.35 17.71-3.89 12.98-5.91 26.88-3.26 40.31 2.54 10.31 6.99 20.02 11.42 29.63 6.82 14.11 13.82 28.26 22.78 41.16 1.63 2.95 4.94 3.76 8.06 4.07 2.57 9.27 7.57 17.56 11.64 26.21 2.63 5.66 5.75 11.1 8.21 16.84 0.95 6.7 1.04 13.51 1.61 20.26-34.4 0.66-68.74 2.94-103.08 4.82-13.37 0.71-26.21 4.86-39.46 6.38-5.3 0.61-11.62 0.05-15.15-4.48-4.45-5.69-4.56-13.3-5.77-20.12-1.13-9.45-4.85-18.26-7.83-27.21-7.81-22.57-15.6-45.14-23.45-67.7-0.73-0.02-2.18-0.06-2.9-0.08 0.38 1.9 0.84 3.8 1.48 5.65 7.33 21.03 14.61 42.08 21.87 63.14 2.85 8.62 6.49 17.08 7.64 26.17 1.28 7.66 1.53 16.2 6.76 22.45 3.98 4.79 10.64 5.97 16.56 5.42 13.15-1.22 25.83-5.54 39.04-6.33 34.8-2.17 69.62-3.99 104.46-5.14 2.57 43.79 5.1 87.69 3.39 131.57-0.61 10.75-1.41 21.67-5.07 31.9-7.69 23.18-22.51 42.92-36.06 62.92-11.9 17.03-15.85 37.84-23.65 56.76-6.97-2-13.9-4.1-20.86-6.1-0.9 0.81-1.79 1.65-2.67 2.5 16.56 4.84 33.14 9.66 49.63 14.76 18.03 5.69 36.3 10.64 54.19 16.77 0.24-0.73 0.72-2.2 0.96-2.93-16.7-5.92-33.87-10.35-50.72-15.81 7.45-6.74 15.43-12.85 23.46-18.88-1.16-0.46-2.29-0.9-3.42-1.32-8.1 6.1-16.14 12.33-23.58 19.23-5.41-1.77-10.87-3.37-16.31-5 2.54-8.04 5.57-15.93 9.21-23.53-0.65-0.43-1.94-1.3-2.59-1.73-3.95 7.78-6.83 16.04-9.83 24.22-1.27-0.34-2.55-0.67-3.8-0.94 3.86-13.08 8.21-26.03 13.25-38.7 2.65-7.17 6.68-13.7 10.99-19.97 13.7-20.02 28.3-40.09 35.54-63.54 3.31-10.05 3.77-20.68 4.64-31.13 0.8-20.32 0.47-40.65-0.03-60.98-1.03-28.36-2.71-56.7-4.34-85.02 13.16 25.37 25.9 50.98 39.42 76.18 9.73 18.07 19.39 36.22 30.43 53.55 4.9 7.87 11.16 14.77 17.67 21.33 13.44 13.38 28.2 25.4 43.66 36.36 4.35 2.88 8.64 6.56 14.08 6.98 2.97 0.23 6.66 0.33 8.78-2.18 1.3-3.72-0.82-7.68-3.35-10.33-2.97-2.6-7.24-2.27-10.86-3.18-5.8-0.78-9.87-5.34-14.15-8.86-13.47-11.81-26.6-24.02-39.27-36.69-7.58-7.43-13.08-16.61-18.18-25.83-9.54-16.06-16.63-33.39-24.91-50.1-18.06-37.88-36-75.82-54.1-113.68-1.09-1.89 0.61-3.97 0.09-5.95-1.4-5.02-4.15-9.52-6.42-14.16-0.72 0.74-1.41 1.5-2.1 2.27 2.05 4.44 5.21 8.64 5.55 13.66-1.43 3.14-4.89 4.62-8.02 5.47-2.44 0.53-5.71 1.25-7.36-1.2-3.86-4.71-6.68-10.17-9.74-15.4-6.39-11.2-12.07-22.79-17.27-34.59-3.02-7.26-6.32-14.53-7.63-22.32-1.59-11.86-0.3-23.99 3.1-35.43 2.26-7.49 4.29-15.44 9.7-21.37 4.58-5.52 11.13-10.38 11.96-18.03 0.65-8.07-3.87-15.35-8.36-21.67-6.36-8.31-12.19-17.02-18.97-24.99-22.27-26.3-45.84-51.46-69.16-76.82-23.68-25.32-47.51-50.52-72.44-74.63-14.56-13.54-29.88-26.22-45.06-39.04 2.8-4.07 5.8-8 9.09-11.69 7.29 5.2 14.08 11.06 21.12 16.6 8.91 7.79 18.5 14.77 27.34 22.66 19.26 15.98 36.84 33.83 54.22 51.8 14.26 15.46 28.02 31.36 41.94 47.12 25.19 29.24 48.38 60.12 73.23 89.64 3.98 4.31 7.48 9.31 12.53 12.46 6.36 2.25 12.87-1.42 19.35-1.1 15.81 1.04 32.32 4.6 44.76 15.02 14.52 12.36 26.36 27.64 35.97 44.06 7.44 12.51 14.39 25.34 20.43 38.59 0.71 2.29 2.62 5.33 0.45 7.39-1.93 2.14-5.06 4.64-8.05 3.47-3.72-3.22-5.74-7.87-8.37-11.93-0.6 0.38-1.81 1.14-2.42 1.52 3.07 4.8 5.62 10.14 10.09 13.87 2.05 1.75 2.97 4.38 4.19 6.73 13.27 26.87 26.44 53.8 39.08 80.97 9.98 21.27 19.12 42.91 28.55 64.42 7.93 18.67 16.09 37.29 22.47 56.57 5.92 16.97 5.62 35.35 3.72 53-0.84 7.77-2.84 15.74-7.73 22-2.55 3.27-7.43 3.79-9.56 7.43-1.18 3.15-1.11 8.3 2.8 9.47 4.28 1.03 10.69 0.71 12.26-4.31 7.12-21.13 13.92-43.03 13.23-65.56-1.56-18.05-8.56-35.01-14.96-51.77-8.51-21.34-17.75-42.38-26.26-63.72-17.07-40.95-35.76-81.21-54.44-121.44-0.84-3.44-1.09-7.07-2.81-10.25-8.08-17.38-17.44-34.18-27.92-50.23-9.2-12.84-19.23-25.47-32.09-34.85-12.44-9.24-28.18-12.27-43.31-13.4-5.74-0.48-11.16 2.68-16.88 1.88-4.11-1.13-6.41-5.19-9.3-8.02-24.81-28.99-47.72-59.54-72.41-88.63-22.68-25.9-45.02-52.19-69.8-76.15-14.05-13.86-29.11-26.63-44.2-39.33-0.86-0.73-1.73-1.46-2.56-2.17 16.84-0.7 33.72-0.74 50.56 0.06 12.75 0.08 25.33 2.65 37.55 6.12 14.6 4.24 27.92 11.97 40.24 20.74 14.27 10.58 26.35 23.94 36.72 38.29 20.09 30.68 36.04 63.9 56.87 94.12 13.26 19.24 27.34 37.89 41.53 56.45 4.25 5.75 9.15 11.06 12.68 17.32 30.26 49.64 60.09 99.56 89.15 149.91 19.78 34.41 39.32 68.97 57.74 104.13 9.76 18.9 19.53 37.85 27.52 57.59 4.82 11.56 7.45 23.86 10.08 36.06 5.31 25.38 6.75 51.49 5.04 77.34-1.28 21.37-4.08 42.61-6.62 63.86-3.02 22.26-8.26 44.15-13.91 65.88-11.42 43.32-25.23 85.98-39.66 128.38-2.87 8.44-3.96 17.4-7.34 25.67-2.92 7.15-8.28 13.06-14.5 17.53-13.68 9.92-30.15 15.09-46.55 18.37-0.54 1.14-1.06 2.3-1.57 3.49 15.57-2.75 30.82-7.68 44.59-15.52-0.32 9.22-0.79 18.44-1.08 27.67-0.23 8.29-0.62 16.58-0.85 24.87 0.04 2.36-0.06 4.74-0.16 7.12-0.29 10.96-0.59 21.92-0.84 32.89 0.06 14.23-0.37 28.47 0.21 42.7h3.27c-0.94-19.64-0.28-39.33 0.15-58.97 0.55-22.01 1.18-44.01 2.11-66 0.38-4.17-0.17-8.45 0.69-12.54 5.08-3.91 10.21-7.98 13.72-13.44 6.37-9.26 7.33-20.77 10.67-31.22 18.22-54.17 36.11-108.6 48.48-164.45 5.01-21.86 7.25-44.19 9.78-66.43 2.81-25.59 4.55-51.45 2.06-77.14zm-1062.8-596.39c-0.98-1.72-0.75-4.11 0.07-5.83 1.21 1.03 1.44 4.94-0.07 5.83zm-0.5 33.52c2.09-4.45 5.93-7.73 10.11-10.16-2.72 3.96-5.98 7.63-10.11 10.16zm12.92-43.72c-1.41-3.21-1.43-7.2 0.01-10.39 0.51 3.44 0.51 6.94-0.01 10.39zm777.36 368.62c17.93 37.74 35.89 75.47 53.82 113.22 8.63 17.38 16.03 35.41 25.96 52.13 4.93 8.75 10.11 17.55 17.31 24.66 13.05 13.31 26.8 25.93 40.79 38.24 4.09 3.33 7.91 7.5 13.23 8.77 3.48 1.01 7.23 0.9 10.62 2.27 2.06 1.8 3.8 4.58 3.19 7.45-3.94 0.46-8.22 0.38-11.59-1.97-11.82-7.6-22.87-16.32-33.57-25.4-13.94-12.08-27.63-25.02-36.85-41.19-20.75-34.65-38.92-70.76-57.33-106.68-9.9-19.5-19.64-39.07-29.24-58.72-1.48-2.98-2.23-6.23-3.22-9.38 2.38-0.96 4.67-2.1 6.88-3.4zm-269.27-412.87c-0.97 8.42-2.69 16.74-3.45 25.19-1.99-3.75-1.64-8.31-3.05-12.29 4.56-2.7 4.32-8.62 6.5-12.9zm-37.33 23.6c-2.91-6.89-5.38-14.09-9.71-20.24-0.77-1.16-0.92-2.59-1.26-3.88-4.44-21.37-8.2-43.05-8.13-64.93 4.86-0.37 11.72-2.85 14.83 2.33 7.27 10.84 13 22.64 18.47 34.47 7.95 17.03 12.39 35.4 16.03 53.76 1.14 7.15 2.54 14.34 2.79 21.58-10.2 45.18-21.17 90.2-30.99 135.48-4.87-4.75-8.98-10.25-12.68-15.93-6.14-9.91-6.49-21.87-7.68-33.12-0.49-6.49-0.47-13.77 3.89-19.07 5.19-6.12 6.31-14.28 8.27-21.78 3.49-13.74 5.85-27.74 9.42-41.46 2.24-9.17 0.24-18.65-3.25-27.21zm-19.32-94.08c1.41 0.15 1.65 0.81 0.73 1.98-1.42-0.17-1.67-0.83-0.73-1.98zm6.58 0.83c2.1-1.89 4.42-3.55 7.04-4.63 0.09 1.8 0.15 3.61 0.22 5.43-2.41-0.38-4.84-0.64-7.26-0.8zm11.38 5.13c2-2.1 3.59-4.53 5.5-6.7 0.45 5.71 0.16 11.46 0.85 17.16-2.09-3.51-4.11-7.05-6.35-10.46zm25.66-253.14c3.34-0.1-1.8 2.99 0 0zm-5.58 3.55c-2.25-2.49-5.04-4.74-6.22-7.98-0.61-2.73 1.56-4.84 3.12-6.77 1.58 0.87 3.17 1.74 4.75 2.65 2.3-0.77 4.72-0.98 7.14-0.81-0.22 5.73-4.65 9.6-8.79 12.91zm7.58 257.8c0.48 3.3 0.89 6.62 1.2 9.95-3.14-0.98-5.64-4.47-9.1-3.8-0.06 0.51-0.17 1.53-0.23 2.04 2.92 2.06 6.07 3.77 9.19 5.53 0.85 14.91 0.9 29.87 0.96 44.8-4.17-16.66-10.83-32.57-18.83-47.73 6.88-1.36 10.48-8.34 16.81-10.79zm-21.6-409.76c1.7-1.12 3.02 0.79 4.15 1.81 4.22 4.6 7.57 9.91 10.82 15.22 3.67 6.22 6.97 12.86 7.98 20.1 2.23 16.67 4.03 33.42 4.91 50.22-4.87-11.07-11.38-21.28-17.49-31.67-1.49-7.56-1.77-15.41-4.42-22.73-3.48-9.38-8.96-17.83-13.46-26.72 2.33-2.26 4.55-4.77 7.51-6.23zm-11.28 58.16c0.08-5.09-0.91-10.11-1.6-15.13 13.23 22.73 27.87 44.72 39.53 68.34 4.99 9.52 1.71 20.65-2.18 29.94-0.32-1.26-0.78-2.43-1.4-3.52-2.26-1.37-4.9-0.22-7.22 0.31-1.82-0.86-3.62-2.58-5.77-1.95-2.63 2.22-5.39 6.34-3.11 9.69 1.74 3.03 4.32 5.46 6.81 7.88 1.88-1.32 3.66-2.79 5.6-4.03-1.5 3.25-4 5.93-6.68 8.25-2.23 2-5.3 0.61-7.82 0.13-2.6-22.03-6.11-43.95-10.36-65.71-1.98-9.39-3.63-18.93-7.12-27.9-1.42-2.25 1.58-4.01 1.32-6.3zm-5.488-40.238c0 0.129 0.013 0.259 0.037 0.388-0.024-0.129-0.037-0.259-0.037-0.388zm-330.26 243.11c-6.93-1.81-13.02-6.03-18.11-10.95-4.83-7.58-8.2-16.1-13.8-23.2-2.97-3.69-7.02-6.34-9.97-10.05-2.82-3.57-3.76-8.15-4.71-12.48-1.93-9.15-3.1-18.7-7.79-26.96-5.62-9.85-11.87-19.33-18.54-28.49-4.05-5.51-5.78-13.62-2.14-19.72 3.36-3 8.47-1.95 12.62-1.99 4.05 10.09 8.55 20.01 13.47 29.71 1.74 3.08 3.22 6.67 6.46 8.48 4.55 2.6 10.72 4.19 15.25 0.69 5.41 17.59 10.92 35.2 18.06 52.18 5.78 12.49 14.11 23.54 22.01 34.74-3.48 3.55-7.04 9.26-12.81 8.04zm124.51 596.46c7.56 3.69 12.97 10.3 18.29 16.6 5.84 7.08 11.2 14.64 15.16 22.96 3.6 7.46 5.02 15.75 5.76 23.95 0.77 9.29-0.93 19.02-6.1 26.91-3.88 5.99-9.58 10.51-15.4 14.52-10.02 6.58-21.37 11.57-33.36 12.92-14.85 1.64-29.53-4.25-41.32-12.94-9.29-7.03-17.67-15.97-21.75-27.06-2.86-8.1-3.95-16.78-3.62-25.34 0.56-7.84 1.39-16.1 5.76-22.86 4.6-7.23 11.48-12.5 17.29-18.65 4.38-5.06 8-10.71 12.03-16.02 7.59-6.52 18.15-7.01 27.43-9.54 5 6.77 12.44 10.89 19.83 14.55zm-99.71-316.22c13.07 48.83 27.82 97.22 39.61 146.38 7.79 32.9 14.67 66 21.98 99.01 2.61 12.26 6.3 24.24 9.56 36.33 1.55 5.99 4.25 11.57 6.96 17.11-8.06 2.65-16.87 3.19-24.23 7.75 0.18-8.29-1.89-16.37-3.24-24.49-9.37-47.16-20.15-94.03-31-140.87-9.96-43.16-22.1-85.76-33.5-128.55-3.9-13.94-5.32-28.41-6.76-42.76 5-2.86 10.02-5.7 14.65-9.13 1.62 13.12 2.75 26.37 5.97 39.22zm50.02-181.1c-13.9-7.64-24.49-20.24-31.79-34.14-9.93-19.2-18.19-39.29-23.98-60.13-1.3-4.07-2-8.34-3.69-12.27-7.03-9.45-14.02-18.99-19.75-29.3-4.89-8.72-7.97-18.27-11.34-27.64-3.99-11.17-7.22-22.59-11.19-33.75-1.55-11.6-2.95-23.23-3.71-34.91-0.11-5.52-0.49-11.73 3.02-16.39 3.93-5.09 10.34-7.68 13.84-13.17 3.66-5.74 3.64-12.9 2.68-19.41-0.95-6.13-1.26-12.38-0.81-18.57-0.49-8.61-0.72-17.28 0.04-25.88-0.32-3.2 0.42-6.38 0.76-9.55 2.59-16.66 4.8-33.9 13.07-48.9 9.28-16.91 23.04-31.5 39.96-40.89 13.67-8.11 29.84-10.17 45.4-11.54 6.17-0.32 12.36-1.54 18.54-0.59 21.28 2.52 43.12 4.3 63.02 12.88 18.25 7.84 34.84 19.22 49.7 32.33 25.14 22.68 51.4 44.1 78.19 64.81 4.15 2.91 8.14 6.12 12.69 8.41 3.4 1.86 7.33 0.8 10.98 0.55 5.36 11.09 11.59 21.95 14.35 34.06 5.17 22.1 8.85 44.52 12.02 66.99 2.29 15.58 3.34 31.32 6.08 46.84 3.22 19.49 7.77 39.27 4.97 59.11-2.51 18.72-10.86 35.96-19.15 52.71-14.55 27.87-31.76 54.74-54.05 77.09-12.94 12.78-27.94 24.48-45.76 29.35-18.34 4.6-37.56 1.83-55.7-2.4-38.28-9.44-73.89-27.03-108.39-45.7zm5 6.32c0.63 0.29 1.9 0.86 2.54 1.15 3.66 15.58 8.14 30.98 11.69 46.6-4.6 0.44-9.25 0.75-13.71 2.04 2.13-16.53 1.28-33.27-0.52-49.79zm152.55 252.1c-28.06-33.94-55.94-68.03-83.86-102.09-23.7-28.82-47.08-57.9-70.94-86.58 0.53-2.64 1.11-5.26 1.68-7.87 20.65 22.85 43.05 44.05 63.93 66.69 22.82 24.91 45.05 50.35 67.4 75.69 7.92 9.03 15.62 18.35 24.69 26.29 5.62 5.36 12.38 10.5 14.61 18.29 1.85 8.84-1.28 17.67-3.44 26.16-5.1-5.16-9.36-11.08-14.07-16.58zm95.93 106.72c-4.46-5.41-8.6-11.11-13.4-16.24-13.58-14.75-28.83-27.87-42.3-42.73-8.3-9.17-16.17-18.73-24.03-28.27 2.97-9.17 5.98-18.82 4.63-28.55-1.8-9.02-9.44-15.05-15.78-21.03-7.89-6.76-14.56-14.73-21.38-22.52-31.92-36.04-63.18-72.74-97.07-106.97-7.02-7.31-14.33-14.33-21.2-21.76-2.56-7.62 1.86-15.83-0.54-23.54-3.5-14.71-7.42-29.32-11.21-43.95 29.95 15.61 60.85 30.02 93.67 38.48 16.98 4.32 34.72 7.01 52.23 4.68 16.31-2.29 30.93-10.98 43.46-21.3 19.69-16.38 35.3-37.03 49.14-58.43-1.69 15.27-2.75 30.6-3.77 45.93-0.1 0.39-0.29 1.17-0.39 1.57-0.2 12.26-0.52 24.55 0.02 36.82 1.52 8.69 2.01 17.56 3.66 26.25 4.28 24.09 9.35 48.18 17.92 71.15 0.42 0.88 0.5 1.8 0.24 2.76-4.43 17.41-7.25 35.21-12.35 52.46-1.59 6.08-7.36 10.06-8.39 16.37-1.48 8.47-0.19 17.11 0.76 25.58 0.83 7.37 2.58 14.81 6.43 21.24 4.14 6.83 9.49 12.79 14.65 18.86-2.28 11.47-4.87 22.88-8.06 34.14-3.38 12.75-7.34 25.65-6.94 39zm124.04-190.7c5.24 7.03 10.23 14.46 13.21 22.79 7.9 20.81 15.5 41.85 20.26 63.64 1.06 6.35 2.82 12.96 1.3 19.37-0.98 3.97-5.77 4.59-9.18 4.71-11.92-0.29-23.35-4.2-35.1-5.82-3.83-0.41-7.85-0.91-11.57 0.36-2.98 0.96-4.92 4.19-4.33 7.28 0.96 5.53 4.21 10.29 7.22 14.92 6.94 10.29 15.17 19.68 21.8 30.18 2.19 3.79 4.89 8.11 3.44 12.68-2.26 9.67-10.73 15.8-16.83 23.04-16.35 19.6-33.17 38.82-50.78 57.3-6.12 6.22-12.18 12.53-18.9 18.11-2.06 1.57-4.19 3.52-6.95 3.48 0.53-11.17-5.68-20.89-8.29-31.4-2.43-8.65-9.14-15.01-13.01-22.93-3.76-7.05-8.3-13.67-12.1-20.68-2.2-9.03-0.62-18.46 1.35-27.39 3.29-14.2 7.83-28.09 10.61-42.41 0.68-4.51 2.57-8.73 2.93-13.29 5.06-23.12 10.47-46.16 15.76-69.23 5.23-22.11 10.03-44.36 15.63-66.36 7.72-5.78 12.14-14.58 18.03-21.97-1.3 4.15-4.15 7.74-4.93 12.04 0.92 3.03 5.22 2.53 7.63 1.76 3.46-2.12 5.74-5.65 8.51-8.54 15.02 12.48 30.02 25.01 44.29 38.36zm-3.33-32.25c-9.34-7.59-18.68-15.17-28.23-22.5 2.43-3.47 4.73-7.03 7.03-10.59 6.24 6.38 12.28 12.96 18 19.82 1.48 1.92 3.23 3.76 4.05 6.1 0.33 2.42-0.31 4.82-0.85 7.17zm323.34 326.68c17.86 38.85 35.99 77.6 52.52 117.05 7.15 17.74 14.58 35.38 21.96 53.03 7.26 17.98 14.96 35.95 19.15 54.96 3.31 14.51 0.64 29.45-2.39 43.76-1.21 4.59-2.02 9.34-3.92 13.72-1.2 5.81-3.59 11.38-5.3 17.07-0.98 3.08-4.89 2.67-7.43 2.54-2.79-0.03-2.56-3.9-1.58-5.57 2.29-2.15 5.51-3 7.79-5.2 3.05-2.86 4.46-6.9 6.48-10.45 1.27-4.94 2.62-9.91 3.11-15.02 1.66-15.62 2.03-31.69-1.84-47.02-4.92-17.17-12-33.61-18.83-50.08-16.52-38.7-33.39-77.25-51.95-115.03-7.96-16.58-16.08-33.09-24.33-49.54 2.3-1.22 4.44-2.7 6.56-4.22z" stroke="#000"/>
	<path d="m378.05 827.59c1.21 1.03 1.44 4.94-0.07 5.83-0.98-1.72-0.75-4.11 0.07-5.83z" fill="#2f2f2f" stroke="#2f2f2f"/>
	<path d="m377.48 866.94c2.09-4.45 5.93-7.73 10.11-10.16-2.72 3.96-5.98 7.63-10.11 10.16z" fill="#1e1e1e" stroke="#1e1e1e"/>
	<path d="m645.56 932.22c9.01-0.31 18.05-0.33 27.06 0.02-0.31 0.34-0.93 1.02-1.24 1.36-7.78-0.83-15.63-0.65-23.41 0.05-0.6-0.36-1.81-1.07-2.41-1.43z" fill="#fbfcfd" stroke="#fbfcfd"/>
	<path d="m647.97 933.65c7.78-0.7 15.63-0.88 23.41-0.05 4.33 0.73 8.86 1.55 12.53 4.14 3.56 2.54 5.49 6.87 5.76 11.16 0.62 8.19-1.9 16.15-4.22 23.9-3.44 11.27-7.93 22.38-9.07 34.2-0.7 6.7 0.27 14.12 5.05 19.22 6.49 7.04 15.82 10.37 24.69 13.28 23.14 7 47.31 10.03 70.24 17.78 12.15 3.95 23.5 9.99 34.24 16.86 17.17 10.87 33.12 23.51 49.55 35.44-0.43 0.65-1.28 1.96-1.71 2.62-13.39-9.58-26.3-19.82-39.92-29.07-13.26-9.03-27.09-17.59-42.42-22.62-23.41-8-48.14-10.98-71.74-18.25-9.06-3.02-18.48-6.62-25.12-13.77-5.14-5.41-6.75-13.24-6.16-20.48 0.97-12.02 5.33-23.37 8.9-34.78 2.25-7.24 4.61-14.63 4.72-22.28 0.04-4.84-2.18-10.18-6.98-12-6.32-2.52-13.3-2.61-20.02-2.75-28.22 0.98-55.97 6.89-83.39 13.26-1.61 0.78-2.03-1.21-2.78-2.16 7.42-2.59 15.23-3.84 22.88-5.6 17.03-3.56 34.21-6.57 51.56-8.05z" fill="#010104" stroke="#010104"/>
	<path d="m1183.3 1048.5c8.2-0.59 16.39 1.58 23.74 5.13 7.39 3.56 14.65 7.7 20.59 13.43 7.13 6.92 13.45 14.61 19.57 22.42 9.37 13.26 17.31 27.46 25.5 41.46-0.6 0.38-1.81 1.14-2.42 1.52-6.04-10-11.78-20.17-17.98-30.06-6.63-11.03-14.98-20.92-23.72-30.31-6.8-7.29-15.43-12.54-24.47-16.55-15.45-7.2-34.67-4.36-48.16 5.74-8.83 6.6-14.21 16.87-16.45 27.51-1.9 9.19-2.54 18.79-0.68 28.03 1.76 7.03 4.91 13.6 7.99 20.13 5.55 11.5 11.75 22.67 17.68 33.99-0.72 0.74-1.41 1.5-2.1 2.27-8.19-15.55-16.84-30.91-23.74-47.09-4.28-9.85-4.6-20.87-3.25-31.37 1.52-13.05 7.01-26.1 17.28-34.64 8.47-7.32 19.62-10.71 30.62-11.61z" fill="#010306" stroke="#010306"/>
	<path d="m1284.6 1146.2c2.3-1.22 4.44-2.7 6.56-4.22 17.86 38.85 35.99 77.6 52.52 117.05 7.15 17.74 14.58 35.38 21.96 53.03 7.26 17.98 14.96 35.95 19.15 54.96 3.31 14.51 0.64 29.45-2.39 43.76-1.21 4.59-2.02 9.34-3.92 13.72-0.01-0.4-0.03-1.2-0.04-1.61 1.27-4.94 2.62-9.91 3.11-15.02 1.66-15.62 2.03-31.69-1.84-47.02-4.92-17.17-12-33.61-18.83-50.08-16.52-38.7-33.39-77.25-51.95-115.03-7.96-16.58-16.08-33.09-24.33-49.54z" fill="#fcf7f3" stroke="#fcf7f3"/>
	<path d="m596.08 1165.4c7.59-6.52 18.15-7.01 27.43-9.54 5 6.77 12.44 10.89 19.83 14.55 7.56 3.69 12.97 10.3 18.29 16.6 5.84 7.08 11.2 14.64 15.16 22.96 3.6 7.46 5.02 15.75 5.76 23.95 0.77 9.29-0.93 19.02-6.1 26.91-3.88 5.99-9.58 10.51-15.4 14.52-10.02 6.58-21.37 11.57-33.36 12.92-14.85 1.64-29.53-4.25-41.32-12.94-9.29-7.03-17.67-15.97-21.75-27.06-2.86-8.1-3.95-16.78-3.62-25.34 0.56-7.84 1.39-16.1 5.76-22.86 4.6-7.23 11.48-12.5 17.29-18.65 4.38-5.06 8-10.71 12.03-16.02m27.99 19.07c-7.13 1.31-14.61 3.78-19.13 9.83-6.17 8.44-9.52 19.41-7.34 29.83 1.04 7.15 5.35 13.75 11.76 17.21 8.81 4.79 19.07 8.04 29.17 6.38 8.74-2.28 15.95-8.51 21.41-15.5 3.43-4.25 4.59-9.94 3.64-15.25-1.41-8.22-4.17-16.65-10.05-22.79-4.59-4.94-11.38-6.68-17.63-8.44-3.87-0.85-7.87-2.52-11.83-1.27z" fill="#96b6e7" stroke="#96b6e7"/>
	<path d="m624.07 1184.4c3.96-1.25 7.96 0.42 11.83 1.27 6.25 1.76 13.04 3.5 17.63 8.44 5.88 6.14 8.64 14.57 10.05 22.79 0.95 5.31-0.21 11-3.64 15.25-5.46 6.99-12.67 13.22-21.41 15.5-10.1 1.66-20.36-1.59-29.17-6.38-6.41-3.46-10.72-10.06-11.76-17.21-2.18-10.42 1.17-21.39 7.34-29.83 4.52-6.05 12-8.52 19.13-9.83m1.03 2.97c-6.67 1.13-13.81 3.28-17.98 9.02-3.68 5.25-6.16 11.43-6.95 17.81-0.63 8.49 1.36 18.35 8.95 23.34 7 4.46 15.26 7.1 23.55 7.49 7.95 0.48 14.96-4.42 20.4-9.72 4.19-4.02 8.27-9.22 7.63-15.39-0.69-8.28-3.4-16.7-8.83-23.1-4.01-4.76-10.31-6.34-16.03-8-3.5-0.84-7.1-2.22-10.74-1.45z" fill="#000309" stroke="#000309"/>
	<path d="m625.1 1187.4c3.64-0.77 7.24 0.61 10.74 1.45 5.72 1.66 12.02 3.24 16.03 8 5.43 6.4 8.14 14.82 8.83 23.1 0.64 6.17-3.44 11.37-7.63 15.39-5.44 5.3-12.45 10.2-20.4 9.72-8.29-0.39-16.55-3.03-23.55-7.49-7.59-4.99-9.58-14.85-8.95-23.34 0.79-6.38 3.27-12.56 6.95-17.81 4.17-5.74 11.31-7.89 17.98-9.02z" fill="#607594" stroke="#607594"/>
	<path d="m1160.9 1195.2c2.38-0.96 4.67-2.1 6.88-3.4 17.93 37.74 35.89 75.47 53.82 113.22 8.63 17.38 16.03 35.41 25.96 52.13 4.93 8.75 10.11 17.55 17.31 24.66 13.05 13.31 26.8 25.93 40.79 38.24 4.09 3.33 7.91 7.5 13.23 8.77 3.48 1.01 7.23 0.9 10.62 2.27 2.06 1.8 3.8 4.58 3.19 7.45-3.94 0.46-8.22 0.38-11.59-1.97-11.82-7.6-22.87-16.32-33.57-25.4-13.94-12.08-27.63-25.02-36.85-41.19-20.75-34.65-38.92-70.76-57.33-106.68-9.9-19.5-19.64-39.07-29.24-58.72-1.48-2.98-2.23-6.23-3.22-9.38z" fill="#fcf7f3" stroke="#fcf7f3"/>
	<path d="m454.56 1247.9c0.33-1.71 1.93-2.25 3.49-2.15-0.61 4.8-3.16 9.23-3.08 14.14 0.78 5.48 4.54 10.35 3.88 16.08-0.85 5.99-2.99 11.71-4.55 17.55-7.4 24.86-15.28 49.58-22.48 74.5-1.72 6.32-3.71 12.59-4.89 19.05-1.31 7.98 2.39 15.51 3.51 23.27 1.08 7.44-0.91 14.81-2.16 22.09-6.85 36.08-15.26 71.87-21.2 108.11-0.93 4.26-0.68 9.09 2.83 12.17 4.06 4.24 9.65 8.65 8.9 15.26-1.26 10.4-7.16 19.68-7.98 30.21-0.63 10.55 0.46 21.38 4.38 31.27 2.99 7.7 7.02 14.96 11.54 21.86 3.33-10.85 7.29-21.48 11.15-32.14 15.27-41.49 31-82.8 46.86-124.06 14.41-37.13 28.53-74.39 43.86-111.16 1.89-5.57 7.54-8.22 12.48-10.54 1.84-0.72 3.98-2.09 5.9-0.8 5.76 2.86 12.16 3.96 18.25 5.91 96.12 28.3 191.85 57.89 287.69 87.1 81.33 24.73 162.43 50.27 244.1 73.88-0.9 0.81-1.79 1.65-2.67 2.5-80.34-23.2-160.08-48.36-240.09-72.66-85.58-26.16-171.13-52.39-256.86-78.05-16.4-4.8-32.7-9.93-49.24-14.21-4.53 11.84-9.45 23.53-13.98 35.38-3.07 7.63-5.38 15.57-9.13 22.91-1.62 3.81-4.07 8.14-2.39 12.33 6.32 3.19 13.24 5.02 19.89 7.43 43.49 14.54 87.28 28.17 131.03 41.92 168.8 52.73 337.94 104.4 507.09 156.01 10.18 2.94 20.21 6.46 30.49 9.03 8.1-17.65 16.5-35.33 21.52-54.15 1.05-4.73 2.52-10.23-0.38-14.59-3.7-5.87-10.33-8.73-16.23-11.85-5.77-3.07-11.68-5.91-17.9-7.97 0.24-0.73 0.72-2.2 0.96-2.93 3.5 1.23 6.97 2.55 10.44 3.89 6.9-3.37 14.24-5.72 21.53-8.06 12.47-4 25.67-4.28 38.62-4.97 1.69-0.07 3.38 0.18 5.07 0.45-0.14 1.22-0.25 2.45-0.34 3.7-18.64 4.59-37.37 8.85-55.99 13.5 6.43 3.52 13.76 6.95 17.23 13.83 2.39 4.45 1.4 9.66 0.39 14.35-1.83 8.11-4.95 15.83-7.67 23.66 12.83-0.09 25.49-2.44 38.23-3.74 1.77-0.16 3.55-0.09 5.36 0-0.6 1.08-1.01 2.47-2.42 2.7-6.59 2.32-12.87 5.43-19.51 7.59-5.86 1.96-12.21 2.26-17.79 5.03-3.45 1.72-7 3.21-10.53 4.73-3.8 6.66-6.46 13.96-10.05 20.76-2.21 3.86-3.3 8.32-6.18 11.8-4.15 6.3-8.11 12.73-12.15 19.11 7.68-3.06 15.87-4.41 23.86-6.38 20.25-4.65 40.51-9.29 60.72-14.08 5.01-0.79 8.97-4.18 13.69-5.75-0.06 0.75-0.17 2.25-0.22 3-7.11 5.39-16.1 6.45-24.49 8.57-16.26 3.81-32.55 7.53-48.82 11.28-8.63 2.12-17.52 3.48-25.66 7.19-2.98 0.83-4.2 3.91-5.87 6.2-1.81 2.74-3.63 5.49-5.36 8.29 25.16 1.33 50.33-0.33 75.49-0.5 16.31-0.55 32.66-0.88 48.88-2.9 6-0.87 12.2-1.55 17.74-4.19 5.69-3.05 10.21-7.86 14.09-12.94 0.77 0.05 2.31 0.15 3.08 0.19-1.76 2.4-3.43 4.85-4.97 7.4 3.8-1.81 7.41-3.98 10.93-6.29 0.72 0.59 1.46 1.2 2.21 1.83-4.7 3.09-9.56 5.91-14.45 8.68-3.07 1.66-5.73 4.34-9.42 4.42-15.98 5.01-32.87 5.44-49.46 6.35-6.99 0.36-14 0.52-20.99 0.74-6.3-0.07-12.6-0.06-18.88 0.3-16.51 0.73-33.03 0.55-49.54 0.49 0.62 1.06 1.3 2.16 1.97 3.25 8.33 12.88 16.64 25.79 25.13 38.57 2.93 4.61 7.19 8.11 11.18 11.78 7.3 6.54 15.09 12.64 23.76 17.3 7.89 4.28 16.83 6.1 25.68 7.06 11.98 1 24.08 0.26 35.89-2-0.54 1.14-1.06 2.3-1.57 3.49-17.39 2.9-35.68 3.36-52.65-1.98-11.33-3.88-21.08-11.17-30.14-18.8-5.4-4.89-11.23-9.54-15.21-15.72-9.2-13.89-18.19-27.9-27.24-41.87-0.66-1.42-2.31-1.42-3.57-1.8-9.65 13.9-19.08 27.97-29.09 41.62-9.25 13.6-18.95 26.88-28.49 40.27-3.02 3.26 0.53 7.87-1.36 11.54-1.22 1.69-3.42 2.16-5.28 2.77-12.25 3.16-25 3.01-37.56 3.05 1.14-0.94 2.3-1.85 3.47-2.73 7.38 0.04 14.74-0.55 22.11-0.93 2.41-0.44 5.49-0.14 7.16-2.27 26.24-36.53 52.34-73.2 77.4-110.57 5.36-8.92 11.82-17.22 16.36-26.6-18.62-6.69-37.74-11.86-56.57-17.94-198.43-61.17-396.87-122.29-595.17-183.9-12.23-4.18-24.98-6.97-36.71-12.5-3.39 7.54-5.68 15.52-8.69 23.21-22.51 60.69-44.44 121.63-68.36 181.77 7.26 7.3 14.72 14.64 23.79 19.68 15.16 8.45 32.14 12.63 48.33 18.56 20.98 7.73 42.31 14.45 63.47 21.68 38.18 12.69 76.73 24.32 114.37 38.57 15.5 5.47 30.86 11.51 46.9 15.26 12.9 3.17 26.3 1.93 39.42 1.41 17.83-0.62 35.07 4.9 51.87 10.2 8.42 2.76 16.91 5.39 25 9.05 1.68 0.71 3.5 1.43 5.39 1.15 26.9-4.46 53.64-9.91 80.51-14.6 6.36-1.08 12.65-2.53 19.01-3.65 1.78 0.49 3.53 1.1 5.32 1.62-20.67 4.51-41.6 7.76-62.35 11.85-22.79 4.04-45.51 8.52-68.4 11.85-1.4 12.76-0.77 25.66-2.3 38.41-1.02 8.84-4.89 16.93-7.97 25.17-3.19 8.09-2.76 16.93-3.65 25.44-0.63 7.17-1.18 14.38-2.63 21.46h-3.06c2.03-12.01 2.67-24.18 3.69-36.3 0.59-8.44 4.58-16.03 7.4-23.85 6.07-16.2 3-33.84 5.53-50.62 0.9-4.81 5.02-7.94 8.55-10.89-14.18-4.57-28.34-9.46-43.03-12.09-8.96-1.62-18.11-1.5-27.16-0.91-6.14 0.41-12.31 0.57-18.45 0.06-6.5-0.56-12.91-1.85-19.19-3.56-19.94-5.61-39.18-13.34-58.68-20.28-55.09-19.37-111.2-35.79-166.04-55.89-17.08-5.85-35.01-10.53-49.9-21.16-8.2-5.66-15-12.99-22.04-19.96-7.12-10.15-14.39-20.37-19.01-31.96-4.94-11.12-6.12-23.5-5.31-35.53 0.89-8.14 4.24-15.69 6.68-23.43 1.01-3.42 2.1-7.34 0.23-10.66-2.92-5.25-9.04-8.2-10.85-14.15-0.9-4.55 0.24-9.18 0.89-13.68 6.58-38.45 15.76-76.41 22.48-114.84 1.8-8.36-1.88-16.38-3.26-24.48-1.57-9.29 2.11-18.22 4.37-27.05 8.57-30.22 18.58-60.02 26.92-90.3 2.55-7.5-4.62-13.9-3.3-21.35 0.51-3.17 1.4-6.27 2.62-9.23m377.6 558.96c5.91-1.09 11.91-1.73 17.79-3.02-3.13-2.04-6.7-3.13-10.23-4.18-2.96 1.86-6.19 3.78-7.56 7.2m281.42 6.51c1.38-0.43 2.77-0.89 4.16-1.37-0.05-1.42-0.09-2.81-0.12-4.18-1.45 1.77-2.83 3.6-4.04 5.55z" fill="#020202" stroke="#020202"/>
	<path d="m548.18 1377.1c16.54 4.28 32.84 9.41 49.24 14.21 85.73 25.66 171.28 51.89 256.86 78.05 80.01 24.3 159.75 49.46 240.09 72.66 16.56 4.84 33.14 9.66 49.63 14.76 18.03 5.69 36.3 10.64 54.19 16.77 6.22 2.06 12.13 4.9 17.9 7.97 5.9 3.12 12.53 5.98 16.23 11.85 2.9 4.36 1.43 9.86 0.38 14.59-5.02 18.82-13.42 36.5-21.52 54.15-10.28-2.57-20.31-6.09-30.49-9.03-169.15-51.61-338.29-103.28-507.09-156.01-43.75-13.75-87.54-27.38-131.03-41.92-6.65-2.41-13.57-4.24-19.89-7.43-1.68-4.19 0.77-8.52 2.39-12.33 3.75-7.34 6.06-15.28 9.13-22.91 4.53-11.85 9.45-23.54 13.98-35.38z" fill="#fff6f1" stroke="#fff6f1"/>
	<path d="m1378.5 1422.8c0.01 0.41 0.03 1.21 0.04 1.61-1.2 5.81-3.59 11.38-5.3 17.07-0.98 3.08-4.89 2.67-7.43 2.54-2.79-0.03-2.56-3.9-1.58-5.57 2.29-2.15 5.51-3 7.79-5.2 3.05-2.86 4.46-6.9 6.48-10.45z" fill="#fdfdfc" stroke="#fdfdfc"/>
	<path d="m1266 1468.3c8.16-6.37 17.29-11.53 26.95-15.22 4.05-1.8 8.39 0.52 11.41 3.22 1.96 1.68 3.86 4.71 1.92 7.14-5.17 6.78-11.95 12.14-18.11 17.98-6.98 5.87-11.89 13.94-19.75 18.79 10.28 2.25 18.78 8.85 26.7 15.43 6.92 6.63 13.55 14.34 15.96 23.84 1.2 4.56 4.47 8.18 8.18 10.95 5.19 3.85 10.22 7.96 15.86 11.16 9.63 5.71 19.28 11.74 27.01 19.94 11.02 11.69 14.7 28.19 15.99 43.73 0.83 9.54 0.34 19.13-0.1 28.69-0.94 8.96-2.77 18.05-7.55 25.85-4.9 8.84-13.58 14.55-21.76 20.04-0.75-0.63-1.49-1.24-2.21-1.83 8.23-5.6 17.22-11.18 21.95-20.3 2.64-5.27 6.17-11.29 3.96-17.32-3.84-12.44-7.84-24.94-13.68-36.59-2.96 11.12-5.67 22.59-5.07 34.2 0.14 5.48 0.36 11.14-1.6 16.37-2.95 7.91-6.45 15.73-11.52 22.53-0.77-0.04-2.31-0.14-3.08-0.19 4.93-6.9 8.77-14.55 11.65-22.51 3.18-8.44 0.78-17.55 1.77-26.27 1.02-8.93 3.31-17.64 5.35-26.36 0.93-2.94-0.79-5.71-1.46-8.47-2.19-6.77-0.66-14.45-4.42-20.74-4.39-7.42-9.78-14.18-14.87-21.11-3.84-4.81-7.06-10.28-12.17-13.88-5.84-4.4-12.74-8.68-14.93-16.11-2.62-10.22-9.83-18.55-17.66-25.27-7.9-6.01-16.46-12.9-26.89-12.87-6.02 0.62-11.46 3.57-16.84 6.13-10.07 4.88-19.62 10.81-30 15.03-7.76 3.19-16.22 1.22-24.31 1.55-8.06 0.26-14.44 5.75-20.77 10.07-1.16-0.46-2.29-0.9-3.42-1.32 4.57-3.49 9.39-6.63 14.35-9.53-5.03-4.2-10.18-8.5-16.32-10.96-10.49-3.64-24.11 0.51-28.71 11.19-0.65-0.43-1.94-1.3-2.59-1.73 5.25-11.91 20.55-16.45 32.3-12.43 6.83 2.89 13.02 7.34 18.11 12.73 4.78-1.26 9.75-1.51 14.68-1.11 9.36-8.41 19.23-16.22 28.86-24.31 12.3-10.02 24.38-20.3 36.83-30.13m-17.2 17.87c-14.84 12.25-29.85 24.3-44.35 36.95 10.22 0.79 19.04-5.13 27.75-9.55 9.67-4.89 19.09-10.59 29.64-13.4 9.3-3.28 14.7-11.99 21.64-18.4 6.62-6.74 14.62-12.28 20.18-19.97 0.02-4.29-5.96-7.14-9.79-5.8-17.38 6.05-31.12 18.68-45.07 30.17m86.54 79.38c3.24 4.94 7.05 9.5 10.44 14.35 4.65 6.62 10.26 13.36 10.49 21.87 0.12 11.63 6.13 21.91 10.16 32.51 3.26 7.22 5.12 14.96 8.07 22.29 0.74-10.15 1.25-20.36 0.45-30.51-1.01-14.1-4.08-28.88-13.14-40.14-7.31-8.5-16.73-14.97-26.47-20.37z" fill="#040101" stroke="#040101"/>
	<path d="m107.73 1455.7c1.48 7.46 1.47 15.19 0 22.65-0.54-7.54-0.37-15.11 0-22.65z" fill="#f8fbfd" stroke="#f8fbfd"/>
	<path d="m1248.8 1486.2c13.95-11.49 27.69-24.12 45.07-30.17 3.83-1.34 9.81 1.51 9.79 5.8-5.56 7.69-13.56 13.23-20.18 19.97-6.94 6.41-12.34 15.12-21.64 18.4-10.55 2.81-19.97 8.51-29.64 13.4-8.71 4.42-17.53 10.34-27.75 9.55 14.5-12.65 29.51-24.7 44.35-36.95z" fill="#664a3c" stroke="#664a3c"/>
	<path d="m506.76 1485.1c3.01-7.69 5.3-15.67 8.69-23.21 11.73 5.53 24.48 8.32 36.71 12.5 198.3 61.61 396.74 122.73 595.17 183.9 18.83 6.08 37.95 11.25 56.57 17.94-4.54 9.38-11 17.68-16.36 26.6-25.06 37.37-51.16 74.04-77.4 110.57-1.67 2.13-4.75 1.83-7.16 2.27-7.37 0.38-14.73 0.97-22.11 0.93-7.59 0.15-15.23 0.41-22.74-0.94 4.68-4.73 12.32-5.19 16.45-10.68 4.3-6.04 5.86-13.72 6.12-21.01 0.18-8.78-5.38-17.04-13.4-20.48-9.23-4.05-19.89-7.06-29.83-3.81-17.2 5.11-33.64 12.48-50.94 17.27-9.91 2.86-19.99 5.05-30.07 7.23-6.36 1.12-12.65 2.57-19.01 3.65-26.87 4.69-53.61 10.14-80.51 14.6-1.89 0.28-3.71-0.44-5.39-1.15-8.09-3.66-16.58-6.29-25-9.05-16.8-5.3-34.04-10.82-51.87-10.2-13.12 0.52-26.52 1.76-39.42-1.41-16.04-3.75-31.4-9.79-46.9-15.26-37.64-14.25-76.19-25.88-114.37-38.57-21.16-7.23-42.49-13.95-63.47-21.68-16.19-5.93-33.17-10.11-48.33-18.56-9.07-5.04-16.53-12.38-23.79-19.68 23.92-60.14 45.85-121.08 68.36-181.77z" fill="#281d19" stroke="#281d19"/>
	<path d="m1247 1509.2c5.38-2.56 10.82-5.51 16.84-6.13 10.43-0.03 18.99 6.86 26.89 12.87 7.83 6.72 15.04 15.05 17.66 25.27 2.19 7.43 9.09 11.71 14.93 16.11 5.11 3.6 8.33 9.07 12.17 13.88 5.09 6.93 10.48 13.69 14.87 21.11 3.76 6.29 2.23 13.97 4.42 20.74 0.67 2.76 2.39 5.53 1.46 8.47-2.04 8.72-4.33 17.43-5.35 26.36-0.99 8.72 1.41 17.83-1.77 26.27-2.88 7.96-6.72 15.61-11.65 22.51-3.88 5.08-8.4 9.89-14.09 12.94-5.54 2.64-11.74 3.32-17.74 4.19-16.22 2.02-32.57 2.35-48.88 2.9-25.16 0.17-50.33 1.83-75.49 0.5 1.73-2.8 3.55-5.55 5.36-8.29 1.67-2.29 2.89-5.37 5.87-6.2 8.14-3.71 17.03-5.07 25.66-7.19 16.27-3.75 32.56-7.47 48.82-11.28 8.39-2.12 17.38-3.18 24.49-8.57 0.05-0.75 0.16-2.25 0.22-3-4.72 1.57-8.68 4.96-13.69 5.75-20.21 4.79-40.47 9.43-60.72 14.08-7.99 1.97-16.18 3.32-23.86 6.38 4.04-6.38 8-12.81 12.15-19.11 2.88-3.48 3.97-7.94 6.18-11.8 3.59-6.8 6.25-14.1 10.05-20.76 3.53-1.52 7.08-3.01 10.53-4.73 5.58-2.77 11.93-3.07 17.79-5.03 6.64-2.16 12.92-5.27 19.51-7.59 1.41-0.23 1.82-1.62 2.42-2.7-1.81-0.09-3.59-0.16-5.36 0-12.74 1.3-25.4 3.65-38.23 3.74 2.72-7.83 5.84-15.55 7.67-23.66 1.01-4.69 2-9.9-0.39-14.35-3.47-6.88-10.8-10.31-17.23-13.83 18.62-4.65 37.35-8.91 55.99-13.5 0.09-1.25 0.2-2.48 0.34-3.7-1.69-0.27-3.38-0.52-5.07-0.45-12.95 0.69-26.15 0.97-38.62 4.97-7.29 2.34-14.63 4.69-21.53 8.06-3.47-1.34-6.94-2.66-10.44-3.89-16.7-5.92-33.87-10.35-50.72-15.81 7.45-6.74 15.43-12.85 23.46-18.88 6.33-4.32 12.71-9.81 20.77-10.07 8.09-0.33 16.55 1.64 24.31-1.55 10.38-4.22 19.93-10.15 30-15.03z" fill="#eeaf8c" stroke="#eeaf8c"/>
	<path d="m1137.8 1525.3c4.6-10.68 18.22-14.83 28.71-11.19 6.14 2.46 11.29 6.76 16.32 10.96-4.96 2.9-9.78 6.04-14.35 9.53-8.1 6.1-16.14 12.33-23.58 19.23-5.41-1.77-10.87-3.37-16.31-5 2.54-8.04 5.57-15.93 9.21-23.53z" fill="#eeaf8c" stroke="#eeaf8c"/>
	<path d="m1335.3 1565.6c9.74 5.4 19.16 11.87 26.47 20.37 9.06 11.26 12.13 26.04 13.14 40.14 0.8 10.15 0.29 20.36-0.45 30.51-2.95-7.33-4.81-15.07-8.07-22.29-4.03-10.6-10.04-20.88-10.16-32.51-0.23-8.51-5.84-15.25-10.49-21.87-3.39-4.85-7.2-9.41-10.44-14.35z" fill="#cecad7" stroke="#cecad7"/>
	<path d="m1358.7 1623.8c5.84 11.65 9.84 24.15 13.68 36.59 2.21 6.03-1.32 12.05-3.96 17.32-4.73 9.12-13.72 14.7-21.95 20.3-3.52 2.31-7.13 4.48-10.93 6.29 1.54-2.55 3.21-5 4.97-7.4 5.07-6.8 8.57-14.62 11.52-22.53 1.96-5.23 1.74-10.89 1.6-16.37-0.6-11.61 2.11-23.08 5.07-34.2z" fill="#29292b" stroke="#29292b"/>
	<path d="m1433.1 1399.8c-2.63-12.2-5.26-24.5-10.08-36.06-7.99-19.74-17.76-38.69-27.52-57.59-18.42-35.16-37.96-69.72-57.74-104.13-29.06-50.35-58.89-100.27-89.15-149.91-3.53-6.26-8.43-11.57-12.68-17.32-14.19-18.56-28.27-37.21-41.53-56.45-20.83-30.22-36.78-63.44-56.87-94.12-10.37-14.35-22.45-27.71-36.72-38.29-12.32-8.77-25.64-16.5-40.24-20.74-12.22-3.47-24.8-6.04-37.55-6.12-3.4 0.73-6.86 1.15-10.33 1-9.33-0.28-18.67 0.03-28-0.19-3.28-0.11-6.54 0.38-9.67 1.3 15.09 12.7 30.15 25.47 44.2 39.33 24.78 23.96 47.12 50.25 69.8 76.15 24.69 29.09 47.6 59.64 72.41 88.63 2.89 2.83 5.19 6.89 9.3 8.02 5.72 0.8 11.14-2.36 16.88-1.88 15.13 1.13 30.87 4.16 43.31 13.4 12.86 9.38 22.89 22.01 32.09 34.85 10.48 16.05 19.84 32.85 27.92 50.23 1.72 3.18 1.97 6.81 2.81 10.25 18.68 40.23 37.37 80.49 54.44 121.44 8.51 21.34 17.75 42.38 26.26 63.72 6.4 16.76 13.4 33.72 14.96 51.77 0.69 22.53-6.11 44.43-13.23 65.56-1.57 5.02-7.98 5.34-12.26 4.31-3.91-1.17-3.98-6.32-2.8-9.47 2.13-3.64 7.01-4.16 9.56-7.43 4.89-6.26 6.89-14.23 7.73-22 1.9-17.65 2.2-36.03-3.72-53-6.38-19.28-14.54-37.9-22.47-56.57-9.43-21.51-18.57-43.15-28.55-64.42-12.64-27.17-25.81-54.1-39.08-80.97-1.22-2.35-2.14-4.98-4.19-6.73-4.47-3.73-7.02-9.07-10.09-13.87-6.04-10-11.78-20.17-17.98-30.06-6.63-11.03-14.98-20.92-23.72-30.31-6.8-7.29-15.43-12.54-24.47-16.55-15.45-7.2-34.67-4.36-48.16 5.74-8.83 6.6-14.21 16.87-16.45 27.51-1.9 9.19-2.54 18.79-0.68 28.03 1.76 7.03 4.91 13.6 7.99 20.13 5.55 11.5 11.75 22.67 17.68 33.99 2.27 4.64 5.02 9.14 6.42 14.16 0.52 1.98-1.18 4.06-0.09 5.95 18.1 37.86 36.04 75.8 54.1 113.68 8.28 16.71 15.37 34.04 24.91 50.1 5.1 9.22 10.6 18.4 18.18 25.83 12.67 12.67 25.8 24.88 39.27 36.69 4.28 3.52 8.35 8.08 14.15 8.86 3.62 0.91 7.89 0.58 10.86 3.18 2.53 2.65 4.65 6.61 3.35 10.33-2.12 2.51-5.81 2.41-8.78 2.18-5.44-0.42-9.73-4.1-14.08-6.98-15.46-10.96-30.22-22.98-43.66-36.36-6.51-6.56-12.77-13.46-17.67-21.33-11.04-17.33-20.7-35.48-30.43-53.55-13.52-25.2-26.26-50.81-39.42-76.18 1.63 28.32 3.31 56.66 4.34 85.02 0.5 20.33 0.83 40.66 0.03 60.98-0.87 10.45-1.33 21.08-4.64 31.13-7.24 23.45-21.84 43.52-35.54 63.54-4.31 6.27-8.34 12.8-10.99 19.97-5.04 12.67-9.39 25.62-13.25 38.7 1.25 0.27 2.53 0.6 3.8 0.94 3-8.18 5.88-16.44 9.83-24.22 5.25-11.91 20.55-16.45 32.3-12.43 6.83 2.89 13.02 7.34 18.11 12.73 4.78-1.26 9.75-1.51 14.68-1.11 9.36-8.41 19.23-16.22 28.86-24.31 12.3-10.02 24.38-20.3 36.83-30.13 8.16-6.37 17.29-11.53 26.95-15.22 4.05-1.8 8.39 0.52 11.41 3.22 1.96 1.68 3.86 4.71 1.92 7.14-5.17 6.78-11.95 12.14-18.11 17.98-6.98 5.87-11.89 13.94-19.75 18.79 10.28 2.25 18.78 8.85 26.7 15.43 6.92 6.63 13.55 14.34 15.96 23.84 1.2 4.56 4.47 8.18 8.18 10.95 5.19 3.85 10.22 7.96 15.86 11.16 9.63 5.71 19.28 11.74 27.01 19.94 11.02 11.69 14.7 28.19 15.99 43.73 0.83 9.54 0.34 19.13-0.1 28.69-0.94 8.96-2.77 18.05-7.55 25.85-4.9 8.84-13.58 14.55-21.76 20.04-4.7 3.09-9.56 5.91-14.45 8.68-3.07 1.66-5.73 4.34-9.42 4.42-15.98 5.01-32.87 5.44-49.46 6.35-6.99 0.36-14 0.52-20.99 0.74-6.3-0.07-12.6-0.06-18.88 0.3-16.51 0.73-33.03 0.55-49.54 0.49 0.62 1.06 1.3 2.16 1.97 3.25 8.33 12.88 16.64 25.79 25.13 38.57 2.93 4.61 7.19 8.11 11.18 11.78 7.3 6.54 15.09 12.64 23.76 17.3 7.89 4.28 16.83 6.1 25.68 7.06 11.98 1 24.08 0.26 35.89-2 16.4-3.28 32.87-8.45 46.55-18.37 6.22-4.47 11.58-10.38 14.5-17.53 3.38-8.27 4.47-17.23 7.34-25.67 14.43-42.4 28.24-85.06 39.66-128.38 5.65-21.73 10.89-43.62 13.91-65.88 2.54-21.25 5.34-42.49 6.62-63.86 1.71-25.85 0.27-51.96-5.04-77.34zm-174.38 321c1.941 0.213 3.893 0.295 5.849 0.307-1.956-0.012-3.907-0.094-5.849-0.307zm120.74-97.875c0.08 2.012 0.125 4.026 0.15 6.039-0.025-2.013-0.07-4.026-0.15-6.039z" fill="#dee3e9" stroke="#dee3e9"/>
	<path d="m1037.5 1759.7c9.94-3.25 20.6-0.24 29.83 3.81 8.02 3.44 13.58 11.7 13.4 20.48-0.26 7.29-1.82 14.97-6.12 21.01-4.13 5.49-11.77 5.95-16.45 10.68 7.51 1.35 15.15 1.09 22.74 0.94-1.17 0.88-2.33 1.79-3.47 2.73-6.47 0.14-12.95-0.06-19.39-0.71-3.22-0.47-5.93 1.74-8.77 2.86-8.4 4.22-17.84 5.33-26.93 7.22-19.18 3.74-38.88 7.21-56.2 16.74-11.84 6.34-21.52 15.85-30.74 25.46-0.73-0.06-2.18-0.17-2.91-0.22 2.18-4.82 6.72-7.9 10.31-11.59 10.09-9.89 22.13-17.84 35.48-22.56 13.03-5.18 26.89-7.63 40.58-10.36 11.48-2.48 23.89-3.46 33.88-10.17 5.5-6.74 16.04-6.62 20.75-14.25 3.68-7.08 5.26-15.5 3.65-23.36-1.53-6.92-7.78-11.46-14.07-13.81-7.39-2.66-15.55-4.4-23.34-2.56-9.99 2.39-19.48 6.4-29.13 9.83-15.83 6.05-32.18 10.64-48.79 13.95-1.79-0.52-3.54-1.13-5.32-1.62 10.08-2.18 20.16-4.37 30.07-7.23 17.3-4.79 33.74-12.16 50.94-17.27z" fill="#0a0100" stroke="#0a0100"/>
	<path d="m1150.1 1761.7c5.09-0.55 9.95 3.06 12.96 6.89 3.86 7.95 4.94 16.94 6.12 25.61 0.89 7.89 0.12 15.8-0.22 23.7-1.57 13.09-2.17 26.5-6.33 39.1-2.02 6.12-9.09 7.52-14.68 8.28-3.16 0.71-7.49 0.57-9.12 3.95-1.22 5.45 1.95 12.55-3.25 16.62-6.57 4.78-14.56 6.96-22 10-19.42 6.69-36.79 18.2-56.52 24.13h-21.29c3.49-1.29 7.21-0.19 10.8-0.83 16.63-3.11 31.83-10.89 46.86-18.32 11.49-5.72 23.93-9.19 35.57-14.58 2.65-1.43 6.17-2.99 6.49-6.41 0.61-4.83-1.76-10.9 2.45-14.6 5.6-4.05 13.33-2.21 19.12-5.86 3.01-2.22 3.46-6.26 4.4-9.61 2.23-10.99 3.58-22.18 4.15-33.37 0.65-7.92 1.1-15.91 0.04-23.81-0.79-7.35-2-14.8-4.89-21.64-2.09-4.68-8.61-4.64-10.66-9.25z" fill="#060101" stroke="#060101"/>
	<path d="m745.58 1786.8c0.59-0.34 1.78-1.02 2.37-1.36 6.14 0.51 12.31 0.35 18.45-0.06 0.6 0.37 1.78 1.09 2.38 1.46-7.74 0.23-15.47 0.23-23.2-0.04z" fill="#f9fdfe" stroke="#f9fdfe"/>
	<path d="m1165.6 1792.6c-0.79-7.35-2-14.8-4.89-21.64-2.09-4.68-8.61-4.64-10.66-9.25-9.25 13.6-18.95 26.88-28.49 40.27-3.02 3.26 0.53 7.87-1.36 11.54-1.22 1.69-3.42 2.16-5.28 2.77-12.25 3.16-25 3.01-37.56 3.05-6.47 0.14-12.95-0.06-19.39-0.71-3.22-0.47-5.93 1.74-8.77 2.86-8.4 4.22-17.84 5.33-26.93 7.22-19.18 3.74-38.88 7.21-56.2 16.74-11.84 6.34-21.52 15.85-30.74 25.46-0.73-0.06-2.18-0.17-2.91-0.22 2.18-4.82 6.72-7.9 10.31-11.59 10.09-9.89 22.13-17.84 35.48-22.56 13.03-5.18 26.89-7.63 40.58-10.36 11.48-2.48 23.89-3.46 33.88-10.17 5.5-6.74 16.04-6.62 20.75-14.25 3.68-7.08 5.26-15.5 3.65-23.36-1.53-6.92-7.78-11.46-14.07-13.81-7.39-2.66-15.55-4.4-23.34-2.56-9.99 2.39-19.48 6.4-29.13 9.83-15.83 6.05-32.18 10.64-48.79 13.95-20.67 4.51-41.6 7.76-62.35 11.85-22.79 4.04-45.51 8.52-68.4 11.85-1.4 12.76-0.77 25.66-2.3 38.41-1.02 8.84-4.89 16.93-7.97 25.17-3.19 8.09-2.76 16.93-3.65 25.44-0.63 7.17-1.18 14.38-2.63 21.46h221.28c3.49-1.29 7.21-0.19 10.8-0.83 16.63-3.11 31.83-10.89 46.86-18.32 11.49-5.72 23.93-9.19 35.57-14.58 2.65-1.43 6.17-2.99 6.49-6.41 0.61-4.83-1.76-10.9 2.45-14.6 5.6-4.05 13.33-2.21 19.12-5.86 3.01-2.22 3.46-6.26 4.4-9.61 2.23-10.99 3.58-22.18 4.15-33.37 0.65-7.92 1.1-15.91 0.04-23.81z" fill="#eeaf8c" stroke="#eeaf8c"/>
	<path d="m832.16 1806.8c1.37-3.42 4.6-5.34 7.56-7.2 3.53 1.05 7.1 2.14 10.23 4.18-5.88 1.29-11.88 1.93-17.79 3.02z" fill="#151718" stroke="#151718"/>
	<path d="m1113.6 1813.4c1.21-1.95 2.59-3.78 4.04-5.55 0.03 1.37 0.07 2.76 0.12 4.18-1.39 0.48-2.78 0.94-4.16 1.37z" fill="#fafafc" stroke="#fafafc"/>
	<path d="m1308 1800.3c-17.39 2.9-35.68 3.36-52.65-1.98-11.33-3.88-21.08-11.17-30.14-18.8-5.4-4.89-11.23-9.54-15.21-15.72-9.2-13.89-18.19-27.9-27.24-41.87-0.66-1.42-2.31-1.42-3.57-1.8-9.65 13.9-19.08 27.97-29.09 41.62 5.09-0.55 9.95 3.06 12.96 6.89 3.86 7.95 4.94 16.94 6.12 25.61 0.89 7.89 0.12 15.8-0.22 23.7-1.57 13.09-2.17 26.5-6.33 39.1-2.02 6.12-9.09 7.52-14.68 8.28-3.16 0.71-7.49 0.57-9.12 3.95-1.22 5.45 1.95 12.55-3.25 16.62-6.57 4.78-14.56 6.96-22 10-19.42 6.69-36.79 18.2-56.52 24.13h292.81c-0.58-14.23-0.15-28.47-0.21-42.7 0.25-10.97 0.55-21.93 0.84-32.89 0.1-2.38 0.2-4.76 0.16-7.12 0.23-8.29 0.62-16.58 0.85-24.87 0.29-9.23 0.76-18.45 1.08-27.67-13.77 7.84-29.02 12.77-44.59 15.52z" fill="#dee3e9" stroke="#dee3e9"/>
	<path d="m804.89 1920c0.36-1.62 0.95-1.62 1.76 0z" fill="#73777e" stroke="#73777e"/>
</g>
</svg>
