<?xml version="1.0" encoding="UTF-8" standalone="no"?>
<svg
   xmlns:dc="http://purl.org/dc/elements/1.1/"
   xmlns:cc="http://creativecommons.org/ns#"
   xmlns:rdf="http://www.w3.org/1999/02/22-rdf-syntax-ns#"
   xmlns:svg="http://www.w3.org/2000/svg"
   xmlns="http://www.w3.org/2000/svg"
   xmlns:sodipodi="http://sodipodi.sourceforge.net/DTD/sodipodi-0.dtd"
   xmlns:inkscape="http://www.inkscape.org/namespaces/inkscape"
   viewBox="0 0 500 350.45181"
   version="1.1"
   id="svg50"
   sodipodi:docname="theme-image.svg"
   inkscape:version="1.0.1 (3bc2e813f5, 2020-09-07)"
   inkscape:export-filename="D:\Repos\sim4edu\sims\4\media\img\theme-image.png"
   inkscape:export-xdpi="180.07536"
   inkscape:export-ydpi="180.07536">
  <metadata
     id="metadata54">
    <rdf:RDF>
      <cc:Work
         rdf:about="">
        <dc:format>image/svg+xml</dc:format>
        <dc:type
           rdf:resource="http://purl.org/dc/dcmitype/StillImage" />
        <dc:title />
      </cc:Work>
    </rdf:RDF>
  </metadata>
  <sodipodi:namedview
     pagecolor="#ffffff"
     bordercolor="#666666"
     borderopacity="1"
     objecttolerance="10"
     gridtolerance="10"
     guidetolerance="10"
     inkscape:pageopacity="0"
     inkscape:pageshadow="2"
     inkscape:window-width="1920"
     inkscape:window-height="1001"
     id="namedview52"
     showgrid="false"
     showborder="false"
     inkscape:zoom="0.67341641"
     inkscape:cx="230.96252"
     inkscape:cy="164.57975"
     inkscape:window-x="-9"
     inkscape:window-y="-9"
     inkscape:window-maximized="1"
     inkscape:current-layer="svg50"
     inkscape:document-rotation="0" />
  <!-- in the public domain -->
  <defs
     id="defs4">
    <inkscape:path-effect
       id="path-effect2" />
  </defs>
  <g
     transform="translate(57.40271)"
     id="g34">
    <path
       d="m293.87461,11.64616v84.1875h84.1875v-84.1875h-84.1875zm62.4375,16.9375 3.15625,2.21875-17.71875,27.65625-14.21875,20.40625c-5.49616-7.64655-10.04704-16.39009-15.09375-25.0625l8.9375-4.46875 7.4375,14.875 27.5-35.625z"
       stroke="#000"
       stroke-width="2"
       id="path6" />
    <path
       d="m293.86927,99.34273v20h8.5v-10.21875h29.34375v10.21875h8.5v-10.21875h29.3125v10.21875h8.53125v-20h-84.1875z"
       stroke="#000"
       stroke-width="2"
       id="path8" />
    <g
       transform="translate(-32.17038,108.29006)"
       id="g14">
      <path
         d="m281.84375,16.4375v84.1875h84.1875v-84.1875h-84.1875zm62.4375,16.9375 3.15625,2.21875-17.71875,27.65625-14.21875,20.40625c-5.49616-7.64655-10.04704-16.39009-15.09375-25.0625l8.9375-4.46875 7.4375,14.875 27.5-35.625z"
         stroke="#000"
         stroke-width="2"
         id="path10" />
      <path
         d="m281.83841,104.13407v20h8.5v-10.21875h29.34375v10.21875h8.5v-10.21875h29.3125v10.21875h8.53125v-20h-84.1875z"
         stroke="#000"
         stroke-width="2"
         id="path12" />
    </g>
    <g
       transform="translate(-32.17038,221.37146)"
       id="g20">
      <path
         d="m281.84375,16.4375v84.1875h84.1875v-84.1875h-84.1875zm62.4375,16.9375 3.15625,2.21875-17.71875,27.65625-14.21875,20.40625c-5.49616-7.64655-10.04704-16.39009-15.09375-25.0625l8.9375-4.46875 7.4375,14.875 27.5-35.625z"
         stroke="#000"
         stroke-width="2"
         id="path16" />
      <path
         d="m281.83841,104.13407v20h8.5v-10.21875h29.34375v10.21875h8.5v-10.21875h29.3125v10.21875h8.53125v-20h-84.1875z"
         stroke="#000"
         stroke-width="2"
         id="path18" />
    </g>
    <g
       transform="translate(56.2321,108.29006)"
       id="g26">
      <path
         d="m281.84375,16.4375v84.1875h84.1875v-84.1875h-84.1875zm62.4375,16.9375 3.15625,2.21875-17.71875,27.65625-14.21875,20.40625c-5.49616-7.64655-10.04704-16.39009-15.09375-25.0625l8.9375-4.46875 7.4375,14.875 27.5-35.625z"
         stroke="#000"
         stroke-width="2"
         id="path22" />
      <path
         d="m281.83841,104.13407v20h8.5v-10.21875h29.34375v10.21875h8.5v-10.21875h29.3125v10.21875h8.53125v-20h-84.1875z"
         stroke="#000"
         stroke-width="2"
         id="path24" />
    </g>
    <g
       transform="translate(56.2321,221.37146)"
       id="g32">
      <path
         d="m281.84375,16.4375v84.1875h84.1875v-84.1875h-84.1875zm62.4375,16.9375 3.15625,2.21875-17.71875,27.65625-14.21875,20.40625c-5.49616-7.64655-10.04704-16.39009-15.09375-25.0625l8.9375-4.46875 7.4375,14.875 27.5-35.625z"
         stroke="#000"
         stroke-width="2"
         id="path28" />
      <path
         d="m281.83841,104.13407v20h8.5v-10.21875h29.34375v10.21875h8.5v-10.21875h29.3125v10.21875h8.53125v-20h-84.1875z"
         stroke="#000"
         stroke-width="2"
         id="path30" />
    </g>
  </g>
  <g
     stroke="#000"
     stroke-width="2"
     id="g48">
    <g
       stroke="#000"
       stroke-width="1.54267"
       transform="matrix(1.68079,0,0,1,-36.02506,8.52307)"
       id="g40">
      <path
         d="m145.97949,257.95454c-11.57775,0-20.96875,17.18021-20.96875,38.375s9.391,38.375 20.96875,38.375 20.96875-17.18021 20.96875-38.375-9.391-38.375-20.96875-38.375zm0,20.0625c5.53088,0 10.03125,8.18742 10.03125,18.3125s-4.50037,18.34375-10.03125,18.34375-10-8.21867-10-18.34375 4.46912-18.3125 10-18.3125z"
         stroke="#000"
         stroke-width="1.54267"
         id="path36" />
      <path
         d="m66.79791,268.45078c-10.08352,0-18.28125,14.97813-18.28125,33.4375s8.19773,33.4375 18.28125,33.4375 18.25-14.97813 18.25-33.4375-8.16648-33.4375-18.25-33.4375zm0,17.46875c4.81705,0 8.71875,7.15042 8.71875,15.96875s-3.9017,15.96875-8.71875,15.96875-8.75-7.15042-8.75-15.96875 3.93295-15.96875 8.75-15.96875z"
         stroke="#000"
         stroke-width="1.54267"
         id="path38" />
    </g>
    <g
       stroke="#000"
       stroke-width="1.54267"
       transform="matrix(1.68079,0,0,1,-36.02506,8.52307)"
       id="g46">
      <path
         d="m163.59375,72.15625v183.4375h10.65625v-150.15625l52.20206-6.25v-3.8125h-52.20206v-23.21875z"
         stroke="#000"
         stroke-width="1.54267"
         id="path42" />
      <path
         d="m60.8125,98.8125-16.28125,117.8125h-11v21.21875h74.96875v-21.21875h-7.625c.0451-.22188.0937-.45044.0937-.6875v-16.75c0-1.7064-1.2332-3.09375-2.75-3.09375h-16.46875c0,0-2.57551-27.66157-5.75-32.59375s-10.25-1-10.25-1l8.375,54.125h-18.84375l14.78125-107.09375h46.03125l7.375,53.40625c-.0798.051-.15032.0878-.21875.15625l-17.81245,17.78125c-.6636.6636-.50945,1.8968.34375,2.75l1.03125,1.03125c.8532.8532 2.0864,1.00735 2.75.34375l7.03125-7.0625 14.0625,37.15625 1.46875,10.53125c-6.51318,6.6028-13.12437,13.21505-19.75,19.8125h-75.59375l3.09375,57.59375h4.875c-.0058-.38222-.03125-.77144-.03125-1.15625 0-22.29416 9.88421-40.34375 22.0625-40.34375s22.0625,18.04959 22.0625,40.34375c0,.38481-.02541.77403-.03125,1.15625h32.9375c-.17942-2.19041-.3125-4.40556-.3125-6.6875 0-24.79768 10.9854-44.90625 24.53125-44.90625 5.31226,0 10.23427,3.08965 14.25,8.34375v-14.34375-1.75-21.5-123.125h-10.65625v123.125h-7.15625l-16.5625-119.96875v-3.34375h-.46875v-.0625l-.4375.0625h-63.6875l-.4375-.0625zm63.65625,71.25 3.0625,22.3125-6.96875-18.40625 3.90625-3.90625z"
         stroke="#000"
         stroke-width="1.54267"
         id="path44" />
    </g>
  </g>
</svg>
