<?xml version="1.0" encoding="UTF-8" standalone="no"?>
<!DOCTYPE svg PUBLIC "-//W3C//DTD SVG 1.0//EN" "http://www.w3.org/TR/2001/REC-SVG-20010904/DTD/svg10.dtd">
<!-- Generated by Microsoft Visio 11.0, SVG Export, v1.0 Pizzeria_PDM.svg Page-1 -->
<svg xmlns="http://www.w3.org/2000/svg" xmlns:xlink="http://www.w3.org/1999/xlink" xmlns:ev="http://www.w3.org/2001/xml-events"
		xmlns:v="http://schemas.microsoft.com/visio/2003/SVGExtensions/" width="3.9065in" height="0.851125in"
		viewBox="0 0 281.268 61.281" xml:space="preserve" color-interpolation-filters="sRGB" class="st14">
	<v:documentProperties v:langID="1033" v:viewMarkup="false"/>

	<style type="text/css">
	<![CDATA[
		.st1 {fill:#ffffff;stroke:#000000;stroke-linecap:round;stroke-linejoin:round;stroke-width:0.72}
		.st2 {fill:none;stroke:none;stroke-linecap:round;stroke-linejoin:round;stroke-width:0.75}
		.st3 {fill:#000000;font-family:Calibri;font-size:0.666664em}
		.st4 {fill:#ffffff;stroke:#000000;stroke-linecap:round;stroke-linejoin:round;stroke-width:0.75}
		.st5 {marker-end:url(#mrkr26-24);stroke:#000000;stroke-linecap:round;stroke-linejoin:round;stroke-width:0.5}
		.st6 {fill:#000000;fill-opacity:1;stroke:#000000;stroke-opacity:1;stroke-width:0.13368983957219}
		.st7 {marker-end:url(#mrkr13-53);stroke:#000000;stroke-linecap:round;stroke-linejoin:round;stroke-width:0.5}
		.st8 {fill:#000000;fill-opacity:1;stroke:#000000;stroke-opacity:1;stroke-width:0.25773195876289}
		.st9 {visibility:visible}
		.st10 {fill:#7f7f7f;stroke:#7f7f7f;stroke-linecap:round;stroke-linejoin:round;stroke-width:0.25}
		.st11 {fill:#f2f2f2;stroke:#000000;stroke-linecap:round;stroke-linejoin:round;stroke-width:0.25}
		.st12 {stroke:#000000;stroke-linecap:round;stroke-linejoin:round;stroke-width:0.5}
		.st13 {stroke:#000000;stroke-linecap:round;stroke-linejoin:round;stroke-width:0.75}
		.st14 {fill:none;fill-rule:evenodd;font-size:12px;overflow:visible;stroke-linecap:square;stroke-miterlimit:3}
	]]>
	</style>

	<defs id="Markers">
		<g id="lend26">
			<path d="M 1.5 -0.75 L 1.5 0.75 M 2.25 -0.75 L 2.25 0.75 M 3 -0.75 L 3 0.75 "
					style="stroke-linecap:round;stroke-linejoin:round;fill:none"/>
		</g>
		<marker id="mrkr26-24" class="st6" v:arrowType="26" v:arrowSize="3" orient="auto" markerUnits="strokeWidth"
				overflow="visible">
			<use xlink:href="#lend26" transform="scale(-7.48,-7.48) "/>
		</marker>
		<g id="lend13">
			<path d="M 3 1 L 0 0 L 3 -1 L 3 1 " style="stroke:none"/>
		</g>
		<marker id="mrkr13-53" class="st8" v:arrowType="13" v:arrowSize="0" v:setback="11.64" refX="-11.64" orient="auto"
				markerUnits="strokeWidth" overflow="visible">
			<use xlink:href="#lend13" transform="scale(-3.88,-3.88) "/>
		</marker>
	</defs>
	<g v:mID="0" v:index="1" v:groupContext="foregroundPage">
		<title>Page-1</title>
		<v:pageProperties v:drawingScale="0.0393701" v:pageScale="0.0393701" v:drawingUnits="24" v:shadowOffsetX="8.50394"
				v:shadowOffsetY="-8.50394"/>
		<g id="group2-1" transform="translate(63.7772,-35.0153)" v:mID="2" v:groupContext="group">
			<v:userDefs>
				<v:ud v:nameU="UMLShapeType" v:val="VT0(40):26"/>
				<v:ud v:nameU="UMLObjectGUID" v:val="VT4({A35DB9EB-D4D2-4434-9D16-0477E02B4011})"/>
				<v:ud v:nameU="UMLError" v:val="VT0(0):26"/>
				<v:ud v:nameU="UMLPresOption1" v:val="VT0(1):26"/>
				<v:ud v:nameU="UMLSuppressOption" v:val="VT0(32):26"/>
				<v:ud v:nameU="UMLVersion" v:val="VT0(2):26"/>
				<v:ud v:nameU="UMLAutoLockTextEdit" v:val="VT0(1):26"/>
				<v:ud v:nameU="visDescription"
						v:val="VT4(Represents a condition during which an object satisfies some condition, performs an action or waits for an event.)"/>
				<v:ud v:nameU="visVersion" v:val="VT0(14):26"/>
			</v:userDefs>
			<title>State</title>
			<g id="shape3-2" v:mID="3" v:groupContext="shape">
				<title>Sheet.3</title>
				<path d="M9 61.28 L45 61.28 A9 9 -180 0 0 54 52.28 L54 44.77 A9 9 -180 0 0 45 35.77 L9 35.77 A9 9 -180 0 0 0 44.77
							 L0 52.28 A9 9 -180 0 0 9 61.28 Z" class="st1"/>
			</g>
			<g id="shape4-4" v:mID="4" v:groupContext="shape">
				<title>Transitions</title>
				<path d="M0 61.28 L53.86 61.28 L0 61.28 Z" class="st2"/>
			</g>
			<g id="shape5-6" v:mID="5" v:groupContext="shape">
				<title>Name</title>
				<desc>TakeOrder</desc>
				<v:textBlock v:margins="rect(4,4,4,4)" v:tabSpace="42.5197"/>
				<v:textRect cx="27" cy="48.681" width="54" height="25.2"/>
				<rect x="0" y="36.081" width="54" height="25.2" class="st2"/>
				<text x="9.8" y="51.08" class="st3" v:langID="1031"><v:paragraph v:horizAlign="1"/><v:tabList/>TakeOrder</text>			</g>
		</g>
		<g id="shape6-9" v:mID="6" v:groupContext="shape" transform="translate(13.026,-39.2673)">
			<title>Initial State</title>
			<v:userDefs>
				<v:ud v:nameU="UMLShapeType" v:val="VT0(42):26"/>
				<v:ud v:nameU="UMLObjectGUID" v:val="VT4({85CC9D47-08F2-4D77-8F27-CADE727273BF})"/>
				<v:ud v:nameU="UMLError" v:val="VT0(0):26"/>
				<v:ud v:nameU="UMLPresOptions" v:val="VT0(3):26"/>
				<v:ud v:nameU="UMLVersion" v:val="VT0(2):26"/>
				<v:ud v:nameU="visDescription" v:val="VT4(Represents the point at which a newly created object starts. )"/>
				<v:ud v:nameU="visVersion" v:val="VT0(14):26"/>
			</v:userDefs>
			<path d="M0 52.78 A8.50394 8.50394 0 1 1 17.01 52.78 A8.50394 8.50394 0 0 1 0 52.78 Z" class="st4"/>
		</g>
		<g id="group7-11" transform="translate(144.242,-34.943)" v:mID="7" v:groupContext="group">
			<v:userDefs>
				<v:ud v:nameU="UMLShapeType" v:val="VT0(40):26"/>
				<v:ud v:nameU="UMLObjectGUID" v:val="VT4({2A0A6752-7674-413B-BE16-A5DF5FCE9EF9})"/>
				<v:ud v:nameU="UMLError" v:val="VT0(0):26"/>
				<v:ud v:nameU="UMLPresOption1" v:val="VT0(1):26"/>
				<v:ud v:nameU="UMLSuppressOption" v:val="VT0(32):26"/>
				<v:ud v:nameU="UMLVersion" v:val="VT0(2):26"/>
				<v:ud v:nameU="UMLAutoLockTextEdit" v:val="VT0(1):26"/>
				<v:ud v:nameU="visDescription"
						v:val="VT4(Represents a condition during which an object satisfies some condition, performs an action or waits for an event.)"/>
				<v:ud v:nameU="visVersion" v:val="VT0(14):26"/>
			</v:userDefs>
			<title>State.9</title>
			<g id="shape8-12" v:mID="8" v:groupContext="shape">
				<title>Sheet.8</title>
				<path d="M9 61.28 L45 61.28 A9 9 -180 0 0 54 52.28 L54 44.77 A9 9 -180 0 0 45 35.77 L9 35.77 A9 9 -180 0 0 0 44.77
							 L0 52.28 A9 9 -180 0 0 9 61.28 Z" class="st1"/>
			</g>
			<g id="shape9-14" v:mID="9" v:groupContext="shape">
				<title>Transitions</title>
				<path d="M0 61.28 L53.86 61.28 L0 61.28 Z" class="st2"/>
			</g>
			<g id="shape10-16" v:mID="10" v:groupContext="shape">
				<title>Name</title>
				<desc>MakePizza</desc>
				<v:textBlock v:margins="rect(4,4,4,4)" v:tabSpace="42.5197"/>
				<v:textRect cx="27" cy="48.681" width="54" height="25.2"/>
				<rect x="0" y="36.081" width="54" height="25.2" class="st2"/>
				<text x="8.89" y="51.08" class="st3" v:langID="1031"><v:paragraph v:horizAlign="1"/><v:tabList/>MakePizza</text>			</g>
		</g>
		<g id="shape11-19" v:mID="11" v:groupContext="shape" transform="translate(117.945,-47.771) rotate(0.156589)">
			<title>Sheet.11</title>
			<path d="M0 61.28 L26.47 61.28" class="st5"/>
		</g>
		<g id="group13-25" transform="translate(226.518,-35.0492)" v:mID="13" v:groupContext="group">
			<v:userDefs>
				<v:ud v:nameU="UMLShapeType" v:val="VT0(40):26"/>
				<v:ud v:nameU="UMLObjectGUID" v:val="VT4({81D78FE2-01CD-407C-9462-C81A72E30E24})"/>
				<v:ud v:nameU="UMLError" v:val="VT0(0):26"/>
				<v:ud v:nameU="UMLPresOption1" v:val="VT0(1):26"/>
				<v:ud v:nameU="UMLSuppressOption" v:val="VT0(32):26"/>
				<v:ud v:nameU="UMLVersion" v:val="VT0(2):26"/>
				<v:ud v:nameU="UMLAutoLockTextEdit" v:val="VT0(1):26"/>
				<v:ud v:nameU="visDescription"
						v:val="VT4(Represents a condition during which an object satisfies some condition, performs an action or waits for an event.)"/>
				<v:ud v:nameU="visVersion" v:val="VT0(14):26"/>
			</v:userDefs>
			<title>State.17</title>
			<g id="shape14-26" v:mID="14" v:groupContext="shape">
				<title>Sheet.14</title>
				<path d="M9 61.28 L45 61.28 A9 9 -180 0 0 54 52.28 L54 44.77 A9 9 -180 0 0 45 35.77 L9 35.77 A9 9 -180 0 0 0 44.77
							 L0 52.28 A9 9 -180 0 0 9 61.28 Z" class="st1"/>
			</g>
			<g id="shape15-28" v:mID="15" v:groupContext="shape">
				<title>Transitions</title>
				<path d="M0 61.28 L53.86 61.28 L0 61.28 Z" class="st2"/>
			</g>
			<g id="shape16-30" v:mID="16" v:groupContext="shape">
				<title>Name</title>
				<desc>DeliverPizza</desc>
				<v:textBlock v:margins="rect(4,4,4,4)" v:tabSpace="42.5197"/>
				<v:textRect cx="27" cy="48.681" width="54" height="25.2"/>
				<rect x="0" y="36.081" width="54" height="25.2" class="st2"/>
				<text x="7.46" y="51.08" class="st3" v:langID="1031"><v:paragraph v:horizAlign="1"/><v:tabList/>DeliverPizza</text>			</g>
		</g>
		<g id="shape35-33" v:mID="35" v:groupContext="shape" transform="translate(0.75,-26.5243)">
			<title>Sheet.35</title>
			<desc>OrderCall</desc>
			<v:textBlock v:margins="rect(0,0,0,0)" v:tabSpace="42.5197"/>
			<v:textRect cx="20.2559" cy="55.6117" width="40.52" height="11.3386"/>
			<rect x="0" y="49.9424" width="40.5118" height="11.3386" class="st2"/>
			<text x="4.84" y="58.01" class="st3" v:langID="1031"><v:paragraph v:horizAlign="1"/><v:tabList/>OrderCall</text>		</g>
		<g id="shape12-36" v:mID="12" v:groupContext="shape" transform="translate(30.0339,-47.7713)">
			<title>Sheet.12</title>
			<path d="M0 61.28 L33.74 61.28" class="st5"/>
		</g>
		<g id="shape17-41" v:mID="17" v:groupContext="shape" transform="translate(198.012,-47.6985) rotate(-0.215182)">
			<title>Sheet.17</title>
			<path d="M0 61.28 L28.28 61.28" class="st5"/>
		</g>
		<g id="shape42-46" v:mID="42" v:groupContext="shape" transform="translate(47.0846,-0.75)">
			<title>Initial State.42</title>
			<v:userDefs>
				<v:ud v:nameU="UMLShapeType" v:val="VT0(42):26"/>
				<v:ud v:nameU="UMLObjectGUID" v:val="VT4({D3C1D6E8-D70D-4BF6-A914-EFA47E4C8949})"/>
				<v:ud v:nameU="UMLError" v:val="VT0(0):26"/>
				<v:ud v:nameU="UMLPresOptions" v:val="VT0(3):26"/>
				<v:ud v:nameU="UMLVersion" v:val="VT0(2):26"/>
				<v:ud v:nameU="visDescription" v:val="VT4(Represents the point at which a newly created object starts. )"/>
				<v:ud v:nameU="visVersion" v:val="VT0(14):26"/>
			</v:userDefs>
			<path d="M0 52.78 A8.50394 8.50394 0 1 1 17.01 52.78 A8.50394 8.50394 0 0 1 0 52.78 Z" class="st4"/>
		</g>
		<g id="shape43-48" v:mID="43" v:groupContext="shape" transform="translate(116.87,30.4838) rotate(90)">
			<title>Sheet.43</title>
			<path d="M0 61.28 L7.22 61.28" class="st7"/>
		</g>
		<g id="shape44-54" v:mID="44" v:groupContext="shape" transform="translate(66.3602,-3.58465)">
			<title>Sheet.44</title>
			<desc>LostOrder</desc>
			<v:textBlock v:margins="rect(0,0,0,0)" v:tabSpace="42.5197"/>
			<v:textRect cx="18.4252" cy="55.6117" width="36.86" height="11.3386"/>
			<rect x="0" y="49.9424" width="36.8504" height="11.3386" class="st2"/>
			<text x="2.2" y="58.01" class="st3" v:langID="1031"><v:paragraph v:horizAlign="1"/><v:tabList/>LostOrder</text>		</g>
		<g id="group36-57" transform="translate(49.3524,-31.6476)" v:mID="36" v:groupContext="group">
			<title>Sheet.36</title>
			<g id="shape55-58" v:mID="55" v:groupContext="shape">
				<title>Sheet.55</title>
				<g id="shadow55-59" v:groupContext="shadow" v:shadowOffsetX="0" v:shadowOffsetY="0" v:shadowType="1"
						v:shadowScale="1.1" transform="matrix(1.1,0,0,1.1,-0.595276,-5.53283)" class="st9">
					<ellipse cx="5.95276" cy="55.3283" rx="5.95276" ry="5.95276" class="st10"/>
				</g>
				<ellipse cx="5.95276" cy="55.3283" rx="5.95276" ry="5.95276" class="st11"/>
			</g>
			<g id="shape56-62" v:mID="56" v:groupContext="shape" transform="translate(67.2338,50.5094) rotate(90)">
				<title>Sheet.56</title>
				<path d="M0 61.28 L5.1 61.28" class="st12"/>
			</g>
			<g id="shape57-65" v:mID="57" v:groupContext="shape" transform="translate(5.95276,-5.66929)">
				<title>Sheet.57</title>
				<path d="M0 61.28 L3.69 61.28" class="st13"/>
			</g>
		</g>
	</g>
</svg>
