<?xml version="1.0" encoding="UTF-8"?>
<svg viewBox="0 0 1052.4 744.09" xmlns="http://www.w3.org/2000/svg" xmlns:xlink="http://www.w3.org/1999/xlink">
 <defs>
  <linearGradient id="m" x1=".20603" x2=".91524" y1=".4063" y2=".38548">
   <stop stop-color="#2c2f68" offset="0"/>
   <stop stop-color="#a1b6c3" offset="1"/>
  </linearGradient>
  <linearGradient id="n" x1="-.29646" x2=".94015" y1=".5711" y2=".42887" xlink:href="#a"/>
  <linearGradient id="s" x1="1.9404" x2="-2.8811" y1=".42856" y2=".48413">
   <stop offset="0"/>
   <stop stop-color="#878787" offset="1"/>
  </linearGradient>
  <linearGradient id="o" x1="-.25484" x2="1.2582" y1=".85506" y2="-.32056" xlink:href="#a"/>
  <linearGradient id="q" x1=".46035" x2=".83166" y1=".20566" y2="1.5704">
   <stop offset="0"/>
   <stop stop-opacity="0" offset="1"/>
  </linearGradient>
  <linearGradient id="r" x1="-.00625" x2="1.0063" y1=".50001" y2=".50001">
   <stop stop-color="#ffffd9" stop-opacity=".816" offset="0"/>
   <stop stop-color="#ffffd9" offset=".5"/>
   <stop stop-color="#ffffd9" offset="1"/>
  </linearGradient>
  <linearGradient id="p" x1="1.0515" x2=".12246" y1=".41251" y2=".60338">
   <stop offset="0"/>
   <stop stop-opacity="0" offset="1"/>
  </linearGradient>
  <linearGradient id="l" x1=".46612" x2=".54066" y1=".28053" y2="-.2603" xlink:href="#a"/>
  <linearGradient id="k" x1=".42474" x2=".30917" y1="1.0795" y2="-1.6097" xlink:href="#a"/>
  <linearGradient id="a">
   <stop offset="0"/>
   <stop stop-color="#d0d0d6" offset="1"/>
  </linearGradient>
 </defs>
 <g fill-rule="evenodd">
  <path d="m51.453 571.93s472.6 99.579 570.92 99.633c98.323 0.054016 384.06-35.951 348.22-48.025-35.85-12.074-255.37-47.996-400.31-54.644s-164.64-26.941-246.36-19.624c-81.725 7.3174-264.95-0.93958-272.47 22.659z" fill="url(#q)" opacity=".984" stroke="#d9dcdc" stroke-opacity=".573" stroke-width="21.969"/>
  <g stroke="#000" stroke-width="1.098">
   <path d="m71.19 539.01l27.605-130.14 287.88-15.774 177.46-17.746 368.72 116.34-19.718 104.5s-7.8872 15.774-21.69 23.662c-13.803 7.8872-39.436 13.802-55.21 9.859-15.774-3.9436-29.577-5.9154-37.464-19.718-7.8872-13.803-55.21-72.956-55.21-72.956l-78.872 25.633s0 17.746-9.859 43.379-13.802 35.492-25.633 39.436c-11.831 3.9436-54.855 7.2595-68.119 3.3159-23.662-3.9436-44.273-92.046-44.273-92.046l-17.746 1.9718s5.9153 7.8872-15.774 15.774c-21.69 7.8872-102.53 9.859-161.69 9.859-59.154 0-90.727 5.3221-114.39 5.3221-6.659-10.11-15.749-15.181-15.749-15.181s-9.859 0-39.436-1.9718-30.112 5.247-34.055-4.612c-3.9436-9.859-17.211-30.88-17.211-30.88l-29.577 1.9717z"/>
   <path d="m81.049 513.37c7.8872-65.069 15.774-90.702 15.774-90.702l3.9436-7.8872 120.28 5.9154 15.774 53.238h9.859l94.646-5.9154-1.9718-55.21-108.45-3.9436-128.17-5.9154-11.831 23.662-9.8589 86.759z" fill="url(#o)"/>
  </g>
  <path d="m337.83 412.23l-103.98 3.8992 16.897 57.188 97.48-2.5995-10.398-58.488z" fill="url(#p)"/>
  <path d="m432.03 402.95l5.9154 153.8 63.097 7.8872 3.9436-88.731s9.859-19.718 23.662-29.577 43.379-11.831 57.182-3.9436c13.803 7.8872 33.52 21.69 39.436 41.408 5.9154 19.718-1.9718 94.646 23.662 94.646 25.633 0 53.238-5.9154 53.238-5.9154l7.8871-72.956-3.9436-67.041-100.56-51.267-153.8-3.9436-19.718 25.633z" fill="#232326" fill-opacity=".978" stroke="#000" stroke-width="5.492"/>
 </g>
 <rect x="802.44" y="190.15" width="52.765" height="74.35" rx="8.7941" ry="20.277" fill="#101111" stroke-linecap="round" stroke-linejoin="round" stroke-opacity=".919"/>
 <g fill-rule="evenodd" stroke="#000">
  <path d="m461.99 159.26l-6.9713 90.627 112.94 27.885 264.91 2.7885-6.9714-118.51-237.03-13.943-126.88 11.154z" fill="url(#m)" stroke-width="16.477"/>
  <path d="m551.22 396.28h41.828l4.1829-111.54-61.348-6.9713 5.577 108.75 9.7599 9.7599z" fill="#007fff" stroke-width="1.098"/>
  <path d="m700.41 459.01v48.788s11.154 3.4848 29.28 3.4848 59.954 5.2272 64.136 1.7424c4.1828-3.4848 8.3657-55.757-2.7885-59.242-11.154-3.4848-47.405 3.4848-58.559 1.7424s-30.674-5.2272-32.068 3.4848z" fill="url(#r)" stroke-width="1.228"/>
  <path d="m979.26 500.85c0-9.7599-2.7885-36.251 2.7885-40.434 5.5771-4.1828 16.731-11.154 20.914-9.7599 4.1828 1.3943 5.5771 13.943 5.5771 22.308 0 8.3656 4.1828 23.702-2.7885 26.491-6.9714 2.7885-20.914 4.1828-26.491 1.3943z" fill="#ffffd9" stroke-width="1.098"/>
  <path d="m44.785 225.95l301.29-34.523 28.246-94.154 69.046-21.969 6.2769 9.4154-59.631 50.216-3.1385 266.77-304.43-3.1385-12.554 9.4154-25.108-25.108v-156.92z" fill="#3f3f3f" stroke-width="2.197"/>
  <path d="m448.24 86.671l298.91 28.967 2.1818-14.484-305.46-26.898 4.3636 12.414z" fill="#d7dadc" stroke-width="2.139"/>
  <path d="m384.96 401.4l6.5455-266.18 56.727-50.182 298.91 30.546-37.091 15.273-205.09-6.5455-48 15.273-21.818 233.46v43.636h-45.818s-30.546 6.5454-21.818-2.1818c8.7273-8.7273 17.455-13.091 17.455-13.091z" fill="url(#l)" stroke-width="1.098"/>
 </g>
 <g stroke-linecap="round" stroke-linejoin="round" stroke-width="5.46">
  <path d="m622.78 560.34a56.153 91.546 0 1 1 -112.3 0 56.153 91.546 0 1 1 112.3 0z" fill="#232323"/>
  <path d="m240.96 517.73a34.728 72.517 0 1 1 -69.456 0 34.728 72.517 0 1 1 69.456 0z" fill="#181a1a"/>
  <path d="m152.48 507.4a30.152 66.364 0 1 1 -60.303 0 30.152 66.364 0 1 1 60.303 0z" fill="#1e1e1e"/>
 </g>
 <g fill-rule="evenodd">
  <g stroke="#000">
   <g fill="#007fff" stroke-width="2.197">
    <path d="m431.31 386.52s0-50.194 1.3943-78.079 13.943-158.95 15.337-164.52c1.3943-5.5771 5.5771-8.3656 23.702-13.943 18.126-5.5771 36.251-5.5771 69.713-8.3656s61.348 0 61.348 0 92.022 8.3656 122.7 9.7598c30.674 1.3943 105.96 8.3656 111.54 11.154 5.577 2.7885 8.3656 16.731 8.3656 16.731s-107.36-9.7599-129.67-11.154c-22.308-1.3943-118.51-6.9713-118.51-6.9713h-19.52c-5.577 0-16.731 1.3943-16.731 1.3943l-103.18 9.7599s-2.7885-5.5771-4.1828 4.1828-6.9713 92.022-6.9713 92.022 0 5.5771 2.7885 6.9713c2.7885 1.3943 108.75 23.702 108.75 23.702s-2.7885 1.3943-2.7885 9.7599v107.36s-118.51 4.1828-124.09-9.7599z"/>
    <path d="m587.47 396.28s-5.5771-72.502-2.7885-90.627c2.7885-18.126 12.548-22.308 12.548-22.308h90.627l132.46 2.7885h22.308s34.857 9.7599 66.925 22.308 62.742 22.308 72.502 34.857c9.7599 12.548 15.337 18.126 18.126 33.462 2.7885 15.337 2.7885 75.29 2.7885 75.29s-18.125 0-19.52 8.3656c-1.3943 8.3656-4.1828 40.434-4.1828 40.434s-47.405 13.943-92.022 13.943-76.685 1.3943-83.656-1.3943c-6.9713-2.7885-9.7599-13.943-9.7599-13.943s4.1828-33.462-2.7885-37.645c-6.9713-4.1828-30.674-1.3943-65.53-4.1828-34.857-2.7885-55.771 6.9713-73.896-8.3656s-29.28-43.222-41.828-48.799c-12.548-5.5771-22.308-4.1828-22.308-4.1828z"/>
   </g>
   <path d="m795.22 502.25s0-122.7-4.1828-128.27c-4.1828-5.5771 0-5.5771 0-5.5771l185.44 2.7885s8.3656 48.799 6.9713 72.502c-1.3943 23.702-6.9713 59.953-6.9713 59.953s-51.588 8.3656-86.444 9.7599c-34.857 1.3943-76.685 4.1828-83.656 0-6.9713-4.1828-11.154-11.154-11.154-11.154z" fill="#005ab5" fill-opacity=".82" stroke-width="1.098"/>
  </g>
  <path d="m601.41 291.71l167.31 59.954 206.35 1.3943s-9.7598-13.943-23.702-13.943c-13.943 0-121.3 13.943-186.83-5.5771s-138.03-41.828-149.19-41.828h-13.943z" fill="#fff" fill-opacity=".589"/>
  <path d="m1011.6 501.83s2.964-5.4858 2.5661 7.0562c-0.39795 12.542 4.7785 25.261-0.92841 29.265-5.7069 4.0038-6.8794-3.0082-11.723 17.763-4.8438 20.771 3.3849 25.217-3.7155 29.176-7.1005 3.9597-260 16.861-260 16.861s-27.916 0.50934-36.1-5.3302c-8.1845-5.8395-5.9067-33.667-8.4728-40.723-2.5661-7.0563-9.4455-10.064-9.4455-10.064s-4.3806-37.803 1.1937-37.626c5.5742 0.17682 27.783 3.6713 51.473 4.4229 23.691 0.75159 90.626 1.4802 170.24-1.5741 79.61-3.0543 104.92-9.2263 104.92-9.2263z" fill="url(#k)" stroke="#000" stroke-width="4.394"/>
  <path d="m997.39 542.68s-87.217 12.25-179.15 12.25c-91.932 0-58.931 1.7501-58.931 1.7501s126.11 0.875 166.18-2.6251c40.073-3.5001 71.895-11.375 71.895-11.375z" fill="#fff" fill-opacity=".238"/>
  <g stroke="#000">
   <g fill="none">
    <path d="m576.32 272.19c0-8.3656-1.3943-115.72-1.3943-115.72" stroke-width="16.477"/>
    <path d="m572.2 290.88l-40.773-28.781v-91.139s11.992-21.586 40.773-21.586 9.5935-2.3984 9.5935-2.3984" stroke-width="6.865"/>
   </g>
   <g stroke-width="2.197">
    <path d="m256.54 505.49l-1.9718 13.802 177.46 23.662 3.9436-86.759-179.43-9.8589v17.746l165.63 11.831v49.295l-165.63-19.718z" fill="url(#n)"/>
    <path d="m102.57 407.04l126.07 6.4987 15.597 59.788" fill="none"/>
   </g>
  </g>
 </g>
 <g stroke-linecap="round" stroke-linejoin="round">
  <g fill-opacity=".649" stroke="#8b8a91">
   <path d="m580.88 557.8a15.597 32.493 0 1 1 -31.194 0 15.597 32.493 0 1 1 31.194 0z" stroke-opacity=".378" stroke-width="7.25"/>
   <g stroke-width="5">
    <path d="m214.12 519.06a9.5185 24.704 0 1 1 -19.037 0 9.5185 24.704 0 1 1 19.037 0z" stroke-opacity=".681"/>
    <path d="m128.55 504.27a8.4322 22.287 0 1 1 -16.864 0 8.4322 22.287 0 1 1 16.864 0z" stroke-opacity=".757"/>
   </g>
  </g>
  <g fill="#fff" stroke-opacity=".919">
   <g fill-opacity=".319">
    <g stroke-width="1.659">
     <rect x="294.15" y="236.32" width="20.622" height="134.32" rx="6.7837" ry="6.7837" opacity=".984"/>
     <rect x="250.21" y="241.06" width="20.622" height="131.78" opacity=".984"/>
    </g>
    <rect x="207.05" y="243.26" width="19.906" height="131.78" opacity=".984" stroke-width="1.598"/>
    <rect x="164.83" y="248" width="18.226" height="129.24" opacity=".984" stroke-width="1.564"/>
   </g>
   <rect x="122.54" y="251.39" width="16.677" height="125.85" fill-opacity=".27" opacity=".984" stroke-width="1.462"/>
   <rect x="80.252" y="253.59" width="15.129" height="115.67" fill-opacity=".254" opacity=".984" stroke-width="1.353"/>
  </g>
 </g>
 <g fill-rule="evenodd">
  <path d="m58.383 256.27l293.74-25.995" fill="none" stroke="#000" stroke-opacity=".389" stroke-width="5.492"/>
  <g fill="#fff">
   <path d="m516.99 535.12s1.3867-25.439 11.093-37.31c9.7064-11.871 16.64-20.351 24.959-20.351 8.3198 0-12.48 13.567-12.48 13.567s-9.7064 10.176-13.866 22.047c-4.1598 11.871-9.7064 22.047-9.7064 22.047z" fill-opacity=".195"/>
   <path d="m174.41 496.11s0.89177-19.453 7.1342-28.531c6.2424-9.0782 10.701-15.562 16.052-15.562 5.3507 0-8.026 10.375-8.026 10.375s-6.2424 7.7812-8.9177 16.859c-2.6753 9.0781-6.2424 16.859-6.2424 16.859z" fill-opacity=".265"/>
   <path d="m96.402 489.33s0.89177-19.453 7.1342-28.531c6.2424-9.0782 10.701-15.562 16.052-15.562 5.3506 0-8.026 10.375-8.026 10.375s-6.2424 7.7813-8.9177 16.859c-2.6753 9.0781-6.2424 16.859-6.2424 16.859z" fill-opacity=".303"/>
  </g>
 </g>
 <path d="m512.22 163.77c-5.3148 0-9.5773 3.5124-9.5773 7.8609v13.079c0 4.3485 4.2624 7.8266 9.5773 7.8266-5.3148 0-9.5773 9.9232-9.5773 22.244v37.073c0 12.321 4.2624 22.244 9.5773 22.244h38.378c5.3148 0 9.6115-9.9231 9.6115-22.244v-37.073c0-12.321-4.2967-22.244-9.6115-22.244 5.3148 0 9.6115-3.4781 9.6115-7.8266v-13.079c0-4.3485-4.2967-7.8609-9.6115-7.8609h-38.378z" fill="url(#s)" stroke="#000" stroke-linecap="round" stroke-linejoin="round" stroke-width="3.158"/>
 <g fill-rule="evenodd">
  <path d="m441.71 404.28l1.8396 144.41 51.51 8.2784s-31.274-14.717-38.632-46.911c-7.3586-32.194-14.717-105.78-14.717-105.78z" fill-opacity=".622"/>
  <path d="m537.37 410.71s48.403-5.5189 60.504 0 34.79 29.434 40.84 40.472c6.0504 11.038-25.714-27.595-40.84-31.274-15.126-3.6793-60.504-9.1982-60.504-9.1982z" fill="#fff" fill-opacity=".081"/>
 </g>
</svg>
