<?xml version="1.0" encoding="UTF-8" standalone="no"?>
<svg
   xmlns:dc="http://purl.org/dc/elements/1.1/"
   xmlns:cc="http://creativecommons.org/ns#"
   xmlns:rdf="http://www.w3.org/1999/02/22-rdf-syntax-ns#"
   xmlns:svg="http://www.w3.org/2000/svg"
   xmlns="http://www.w3.org/2000/svg"
   xmlns:sodipodi="http://sodipodi.sourceforge.net/DTD/sodipodi-0.dtd"
   xmlns:inkscape="http://www.inkscape.org/namespaces/inkscape"
   viewBox="0 0 857.27368 468.96585"
   version="1.1"
   id="svg74"
   sodipodi:docname="dump-truck-with-sand.svg"
   inkscape:version="1.0.1 (3bc2e813f5, 2020-09-07)">
  <metadata
     id="metadata80">
    <rdf:RDF>
      <cc:Work
         rdf:about="">
        <dc:format>image/svg+xml</dc:format>
        <dc:type
           rdf:resource="http://purl.org/dc/dcmitype/StillImage" />
      </cc:Work>
    </rdf:RDF>
  </metadata>
  <defs
     id="defs78" />
  <sodipodi:namedview
     pagecolor="#ffffff"
     bordercolor="#666666"
     borderopacity="1"
     objecttolerance="10"
     gridtolerance="10"
     guidetolerance="10"
     inkscape:pageopacity="0"
     inkscape:pageshadow="2"
     inkscape:window-width="1920"
     inkscape:window-height="1001"
     id="namedview76"
     showgrid="false"
     inkscape:zoom="1.4172837"
     inkscape:cx="428.63684"
     inkscape:cy="248.90849"
     inkscape:window-x="-9"
     inkscape:window-y="-9"
     inkscape:window-maximized="1"
     inkscape:current-layer="svg74" />
  <desc
     id="desc6">Image by <a
   href="https://pixabay.com/users/openclipart-vectors-30363/?utm_source=link-attribution&amp;utm_medium=referral&amp;utm_campaign=image&amp;utm_content=160464"
   id="a2">OpenClipart-Vectors</a>
 from <a
   href="https://pixabay.com/?utm_source=link-attribution&amp;utm_medium=referral&amp;utm_campaign=image&amp;utm_content=160464"
   id="a4">Pixabay</a>
</desc>
  <g
     transform="matrix(-1,0,0,1,945.69283,-334.87197)"
     id="g72">
    <path
       d="M 116.78083,385.50412 H 361.96301 V 532.66194 H 116.78083 Z"
       fill="#afafe9"
       fill-rule="evenodd"
       id="path8" />
    <path
       d="m 327.4375,355.875 c -1.69453,-0.0185 -3.41914,0.0441 -5.125,0.21875 H 199.53125 c -47.05428,-1.02222 -102.99613,14.79367 -108.4375,82.25 -2.9265,24.1226 -1.00704,28.55021 -1.5625,52.8125 0.16714,55.17684 -0.34436,110.36783 0.25,165.53125 5.79907,48.03114 38.60821,47.80848 65.25,44.875 4.97882,-0.0141 9.95835,0.006 14.9375,0 7.88402,-43.58563 46.20028,-76.9375 91.96875,-76.9375 43.32245,0 80.01186,29.87487 90.5,70.03125 16.21291,-9.89361 26.60036,-29.23453 24.46875,-48.59375 -0.0431,-87.51426 0.0887,-155.04959 -0.0625,-242.5625 -0.55574,-25.92607 -23.98834,-47.34806 -49.40625,-47.625 z m -36.65625,39.0625 c 0.24695,-0.0115 0.49991,-0.006 0.75,0 0.53352,0.0131 1.07895,0.0902 1.625,0.1875 H 328 c 13.27721,-0.22896 23.91739,13.06247 27.40625,27.15625 2.97564,12.85415 1.30384,26.36044 1.75,39.5 -0.15218,22.92549 0.31724,25.87701 -0.28125,48.78125 -1.00622,9.27846 -8.2949,18.15147 -16.71875,16.59375 -17.1756,-0.12518 -34.36577,0.26627 -51.53125,-0.21875 -8.89095,-2.09144 -13.2617,-13.99168 -12.34375,-23.71875 0.0894,-36.82919 -0.19501,-53.67947 0.125,-90.5 0.6389,-8.70384 6.71957,-17.42404 14.375,-17.78125 z M 239.5625,395 c 13.41151,0.0974 25.7693,9.0475 26.0625,19.84375 0.0796,36.40462 0.009,52.81357 0.0312,89.21875 1.54606,11.08275 -9.39315,22.14233 -23.65625,22.96875 -31.08607,0.24755 -62.18811,0.0553 -93.28125,0.125 -14.04125,1.2203 -28.04672,-7.42962 -29.09375,-18.6875 -0.31325,-22.9475 -0.0682,-25.89066 -0.15625,-48.84375 0.29275,-10.09291 -0.72987,-20.24646 0.8125,-30.28125 3.87246,-19.3386 27.10684,-34.64399 51.90625,-34.21875 h 64.71875 c 0.44953,-0.0363 0.89531,-0.0778 1.34375,-0.0937 0.43443,-0.0155 0.87987,-0.0344 1.3125,-0.0312 z"
       fill="#800000"
       fill-rule="evenodd"
       stroke="#501616"
       stroke-width="2"
       id="path10" />
    <path
       d="m 144.4375,52.1875 c -0.47203,-0.0035 -0.96339,0.01435 -1.4375,0.03125 -0.48927,0.01734 -0.97828,0.05415 -1.46875,0.09375 h -70.625 c -27.05975,-0.46399 -52.39959,16.24253 -56.625,37.34375 -1.68295,10.94941 -0.58681,22.04967 -0.90625,33.0625 0.09609,25.04515 -0.1543,172.0547 0.1875,197.09375 1.14247,12.28398 16.42896,21.73777 31.75,20.40625 7.34602,-0.0165 14.6846,-0.0338 22.03125,-0.0312 12.35057,-27.83972 36.68288,-50.11249 68.21875,-58.5625 12.51442,-3.35323 25.13317,-4.2544 37.34375,-3 -2.9e-4,-63.49794 0.0439,-170.59196 -0.0312,-204.78125 C 172.55508,62.06347 159.07139,52.29378 144.4375,52.1875 Z m -4.28125,6.9375 c 13.41151,0.0974 25.7693,9.0475 26.0625,19.84375 0.0796,36.40462 0.009,52.81357 0.0312,89.21875 1.54606,11.08275 -9.39315,22.14233 -23.65625,22.96875 -31.08607,0.24755 -62.18811,0.0553 -93.28125,0.125 C 35.2712,192.50155 21.26573,183.85163 20.2187,172.59375 19.9055,149.64625 20.15055,146.70309 20.0625,123.75 20.35525,113.65709 19.33263,103.50354 20.875,93.46875 24.74746,74.13015 47.98184,58.82476 72.78125,59.25 H 137.5 c 0.44953,-0.0363 0.89531,-0.07785 1.34375,-0.09375 0.43443,-0.0155 0.87987,-0.03445 1.3125,-0.03125 z"
       fill="#aa0000"
       fill-rule="evenodd"
       stroke="#c83737"
       stroke-width="2"
       transform="translate(99.41866,335.87189)"
       id="path12" />
    <path
       d="m 591.91866,415.80939 c 46.1349,6.22371 148.79912,123.82695 217.25,159.53125 h -217.25 -182.875 v -21.625 c 75.80475,-26.78011 136.7401,-144.12996 182.875,-137.90625 z"
       fill="#ffdd55"
       fill-rule="evenodd"
       stroke="#803300"
       stroke-width="2"
       id="path14" />
    <path
       d="m 759.91866,439.80939 c 71.50665,14.15864 120.6618,86.66326 177,113.8125 v 19.71875 h -177 -217.25 c 86.21201,-28.41213 145.74335,-147.68989 217.25,-133.53125 z"
       fill="#ffe680"
       fill-rule="evenodd"
       stroke="#803300"
       stroke-width="2"
       id="path16" />
    <path
       d="M 387.6875,543.875 V 701.34375 H 710 c 7.97113,-43.48007 46.2444,-76.71875 91.9375,-76.71875 45.6931,0 84.02463,33.23829 92,76.71875 h 51.75 V 543.875 Z"
       fill="#e9c6af"
       fill-rule="evenodd"
       id="path18" />
    <path
       d="M 387.6875,543.875 V 701.34375 H 710 c 7.97113,-43.48007 46.2444,-76.71875 91.9375,-76.71875 45.6931,0 84.02463,33.23829 92,76.71875 h 51.75 V 543.875 Z m 24.25,19.90625 H 516.40625 V 681.4375 H 411.9375 Z m 135.03125,0 H 651.4375 V 681.4375 H 546.96875 Z m 135,0 H 786.4375 V 610.125 c -40.34659,5.80301 -73.72748,33.91093 -87.1875,71.3125 h -17.28125 z m 135,0 h 104.5 V 681.4375 h -16.8125 c -13.51906,-37.54582 -47.12833,-65.72245 -87.6875,-71.375 z"
       fill="#803300"
       fill-rule="evenodd"
       id="path20" />
    <g
       transform="matrix(0.96593,-0.25882,0.25882,0.96593,-176.9387,92.269)"
       id="g44">
      <path
         d="m 261.94538,634.41959 c -46.04232,0 -83.69476,37.67561 -83.69476,83.71791 0,46.0423 37.65244,83.69476 83.69476,83.69476 46.04232,0 83.71791,-37.65245 83.71791,-83.69476 0,-46.04231 -37.67561,-83.71791 -83.71791,-83.71791 z"
         fill-rule="evenodd"
         stroke="#333333"
         stroke-width="4"
         id="path22" />
      <path
         d="m 164.7885,773.36383 c 0,50.46109 -40.9068,91.36788 -91.36788,91.36788 -50.46108,0 -91.36788,-40.90679 -91.36788,-91.36788 0,-50.46109 40.90679,-91.36788 91.36788,-91.36788 50.46109,0 91.36788,40.90679 91.36788,91.36788 z"
         fill="#cccccc"
         fill-rule="evenodd"
         transform="matrix(0.55141,0,0,0.55141,221.4723,291.69087)"
         id="path24" />
      <path
         d="m 261.95695,674.48244 -9.05337,5.22934 v 10.45472 l 9.05337,5.22539 9.05337,-5.22539 v -10.45472 z m 0,5.01953 c 3.0016,0 5.43519,2.43359 5.43519,5.43519 0,3.0016 -2.43359,5.43519 -5.43519,5.43519 -3.0016,0 -5.43519,-2.43359 -5.43519,-5.43519 0,-3.0016 2.43359,-5.43519 5.43519,-5.43519 z"
         fill="#4d4d4d"
         fill-rule="evenodd"
         stroke="#000000"
         stroke-width="0.12668"
         id="path26" />
      <path
         d="m 265.70727,741.56238 -10.3267,1.63368 -3.75031,9.75891 6.57637,8.12524 10.32528,-1.62999 3.75031,-9.75891 z m -1.80061,4.68546 c 2.80183,1.07673 4.20048,4.22133 3.12374,7.02316 -1.07674,2.80183 -4.22133,4.20048 -7.02316,3.12374 -2.80183,-1.07674 -4.20047,-4.22133 -3.12374,-7.02316 1.07673,-2.80183 4.22133,-4.20048 7.02316,-3.12374 z"
         fill="#4d4d4d"
         fill-rule="evenodd"
         stroke="#000000"
         stroke-width="0.12668"
         id="path28" />
      <g
         transform="matrix(0.5,0.86603,-0.86603,0.5,752.59498,132.0299)"
         id="g34">
        <path
           d="m 261.95695,674.48244 -9.05337,5.22934 v 10.45472 l 9.05337,5.22539 9.05337,-5.22539 v -10.45472 z m 0,5.01953 c 3.0016,0 5.43519,2.43359 5.43519,5.43519 0,3.0016 -2.43359,5.43519 -5.43519,5.43519 -3.0016,0 -5.43519,-2.43359 -5.43519,-5.43519 0,-3.0016 2.43359,-5.43519 5.43519,-5.43519 z"
           fill="#4d4d4d"
           fill-rule="evenodd"
           stroke="#000000"
           stroke-width="0.12668"
           id="path30" />
        <path
           d="m 265.70727,741.56238 -10.3267,1.63368 -3.75031,9.75891 6.57637,8.12524 10.32528,-1.62999 3.75031,-9.75891 z m -1.80061,4.68546 c 2.80183,1.07673 4.20048,4.22133 3.12374,7.02316 -1.07674,2.80183 -4.22133,4.20048 -7.02316,3.12374 -2.80183,-1.07674 -4.20047,-4.22133 -3.12374,-7.02316 1.07673,-2.80183 4.22133,-4.20048 7.02316,-3.12374 z"
           fill="#4d4d4d"
           fill-rule="evenodd"
           stroke="#000000"
           stroke-width="0.12668"
           id="path32" />
      </g>
      <g
         transform="matrix(-0.5,0.86603,-0.86603,-0.5,1013.933,850.53652)"
         id="g40">
        <path
           d="m 261.95695,674.48244 -9.05337,5.22934 v 10.45472 l 9.05337,5.22539 9.05337,-5.22539 v -10.45472 z m 0,5.01953 c 3.0016,0 5.43519,2.43359 5.43519,5.43519 0,3.0016 -2.43359,5.43519 -5.43519,5.43519 -3.0016,0 -5.43519,-2.43359 -5.43519,-5.43519 0,-3.0016 2.43359,-5.43519 5.43519,-5.43519 z"
           fill="#4d4d4d"
           fill-rule="evenodd"
           stroke="#000000"
           stroke-width="0.12668"
           id="path36" />
        <path
           d="m 265.70727,741.56238 -10.3267,1.63368 -3.75031,9.75891 6.57637,8.12524 10.32528,-1.62999 3.75031,-9.75891 z m -1.80061,4.68546 c 2.80183,1.07673 4.20048,4.22133 3.12374,7.02316 -1.07674,2.80183 -4.22133,4.20048 -7.02316,3.12374 -2.80183,-1.07674 -4.20047,-4.22133 -3.12374,-7.02316 1.07673,-2.80183 4.22133,-4.20048 7.02316,-3.12374 z"
           fill="#4d4d4d"
           fill-rule="evenodd"
           stroke="#000000"
           stroke-width="0.12668"
           id="path38" />
      </g>
      <path
         d="m 389.38393,189.27382 c 0,16.7572 -13.5844,30.3416 -30.3416,30.3416 -16.7572,0 -30.34161,-13.5844 -30.34161,-30.3416 0,-16.7572 13.5844,-30.34161 30.34161,-30.34161 16.75721,0 30.3416,13.5844 30.3416,30.34161 z"
         fill="#4d4d4d"
         fill-rule="evenodd"
         transform="matrix(0.664,0,0,0.664,23.55155,592.45073)"
         id="path42" />
    </g>
    <g
       transform="matrix(0.96593,0.25882,-0.25882,0.96593,734.79063,-43.3299)"
       id="g68">
      <path
         d="m 261.94538,634.41959 c -46.04232,0 -83.69476,37.67561 -83.69476,83.71791 0,46.0423 37.65244,83.69476 83.69476,83.69476 46.04232,0 83.71791,-37.65245 83.71791,-83.69476 0,-46.04231 -37.67561,-83.71791 -83.71791,-83.71791 z"
         fill-rule="evenodd"
         stroke="#333333"
         stroke-width="4"
         id="path46" />
      <path
         d="m 164.7885,773.36383 c 0,50.46109 -40.9068,91.36788 -91.36788,91.36788 -50.46108,0 -91.36788,-40.90679 -91.36788,-91.36788 0,-50.46109 40.90679,-91.36788 91.36788,-91.36788 50.46109,0 91.36788,40.90679 91.36788,91.36788 z"
         fill="#cccccc"
         fill-rule="evenodd"
         transform="matrix(0.55141,0,0,0.55141,221.4723,291.69087)"
         id="path48" />
      <path
         d="m 261.95695,674.48244 -9.05337,5.22934 v 10.45472 l 9.05337,5.22539 9.05337,-5.22539 v -10.45472 z m 0,5.01953 c 3.0016,0 5.43519,2.43359 5.43519,5.43519 0,3.0016 -2.43359,5.43519 -5.43519,5.43519 -3.0016,0 -5.43519,-2.43359 -5.43519,-5.43519 0,-3.0016 2.43359,-5.43519 5.43519,-5.43519 z"
         fill="#4d4d4d"
         fill-rule="evenodd"
         stroke="#000000"
         stroke-width="0.12668"
         id="path50" />
      <path
         d="m 265.70727,741.56238 -10.3267,1.63368 -3.75031,9.75891 6.57637,8.12524 10.32528,-1.62999 3.75031,-9.75891 z m -1.80061,4.68546 c 2.80183,1.07673 4.20048,4.22133 3.12374,7.02316 -1.07674,2.80183 -4.22133,4.20048 -7.02316,3.12374 -2.80183,-1.07674 -4.20047,-4.22133 -3.12374,-7.02316 1.07673,-2.80183 4.22133,-4.20048 7.02316,-3.12374 z"
         fill="#4d4d4d"
         fill-rule="evenodd"
         stroke="#000000"
         stroke-width="0.12668"
         id="path52" />
      <g
         transform="matrix(0.5,0.86603,-0.86603,0.5,752.59498,132.0299)"
         id="g58">
        <path
           d="m 261.95695,674.48244 -9.05337,5.22934 v 10.45472 l 9.05337,5.22539 9.05337,-5.22539 v -10.45472 z m 0,5.01953 c 3.0016,0 5.43519,2.43359 5.43519,5.43519 0,3.0016 -2.43359,5.43519 -5.43519,5.43519 -3.0016,0 -5.43519,-2.43359 -5.43519,-5.43519 0,-3.0016 2.43359,-5.43519 5.43519,-5.43519 z"
           fill="#4d4d4d"
           fill-rule="evenodd"
           stroke="#000000"
           stroke-width="0.12668"
           id="path54" />
        <path
           d="m 265.70727,741.56238 -10.3267,1.63368 -3.75031,9.75891 6.57637,8.12524 10.32528,-1.62999 3.75031,-9.75891 z m -1.80061,4.68546 c 2.80183,1.07673 4.20048,4.22133 3.12374,7.02316 -1.07674,2.80183 -4.22133,4.20048 -7.02316,3.12374 -2.80183,-1.07674 -4.20047,-4.22133 -3.12374,-7.02316 1.07673,-2.80183 4.22133,-4.20048 7.02316,-3.12374 z"
           fill="#4d4d4d"
           fill-rule="evenodd"
           stroke="#000000"
           stroke-width="0.12668"
           id="path56" />
      </g>
      <g
         transform="matrix(-0.5,0.86603,-0.86603,-0.5,1013.933,850.53652)"
         id="g64">
        <path
           d="m 261.95695,674.48244 -9.05337,5.22934 v 10.45472 l 9.05337,5.22539 9.05337,-5.22539 v -10.45472 z m 0,5.01953 c 3.0016,0 5.43519,2.43359 5.43519,5.43519 0,3.0016 -2.43359,5.43519 -5.43519,5.43519 -3.0016,0 -5.43519,-2.43359 -5.43519,-5.43519 0,-3.0016 2.43359,-5.43519 5.43519,-5.43519 z"
           fill="#4d4d4d"
           fill-rule="evenodd"
           stroke="#000000"
           stroke-width="0.12668"
           id="path60" />
        <path
           d="m 265.70727,741.56238 -10.3267,1.63368 -3.75031,9.75891 6.57637,8.12524 10.32528,-1.62999 3.75031,-9.75891 z m -1.80061,4.68546 c 2.80183,1.07673 4.20048,4.22133 3.12374,7.02316 -1.07674,2.80183 -4.22133,4.20048 -7.02316,3.12374 -2.80183,-1.07674 -4.20047,-4.22133 -3.12374,-7.02316 1.07673,-2.80183 4.22133,-4.20048 7.02316,-3.12374 z"
           fill="#4d4d4d"
           fill-rule="evenodd"
           stroke="#000000"
           stroke-width="0.12668"
           id="path62" />
      </g>
      <path
         d="m 389.38393,189.27382 c 0,16.7572 -13.5844,30.3416 -30.3416,30.3416 -16.7572,0 -30.34161,-13.5844 -30.34161,-30.3416 0,-16.7572 13.5844,-30.34161 30.34161,-30.34161 16.75721,0 30.3416,13.5844 30.3416,30.34161 z"
         fill="#4d4d4d"
         fill-rule="evenodd"
         transform="matrix(0.664,0,0,0.664,23.55155,592.45073)"
         id="path66" />
    </g>
    <path
       d="m 290.78125,394.9375 c 0.24695,-0.0115 0.49991,-0.006 0.75,0 0.53352,0.0131 1.07895,0.0902 1.625,0.1875 H 328 c 13.27721,-0.22896 23.91739,13.06247 27.40625,27.15625 2.97564,12.85415 1.30384,26.36044 1.75,39.5 -0.15218,22.92549 0.31724,25.87701 -0.28125,48.78125 -1.00622,9.27846 -8.2949,18.15147 -16.71875,16.59375 -17.1756,-0.12518 -34.36577,0.26627 -51.53125,-0.21875 -8.89095,-2.09144 -13.2617,-13.99168 -12.34375,-23.71875 0.0894,-36.82919 -0.19501,-53.67947 0.125,-90.5 0.6389,-8.70384 6.71957,-17.42404 14.375,-17.78125 z"
       fill="none"
       stroke="#c83737"
       stroke-width="2"
       id="path70" />
  </g>
</svg>
