<?xml version="1.0" encoding="utf-8"?>
<svg height="493.188px" id="Capa_1"
     style="enable-background:new 0 0 493.188 493.188;" version="1.1"
     viewBox="0 0 493.188 493.188" width="493.188px"
     xmlns="http://www.w3.org/2000/svg" xmlns:ns="http://www.w3.org/2000/svg">
  <desc>Image by <a
  href="https://pixabay.com/users/mariali13-7934244/?utm_source=link-attribution&amp;utm_medium=referral&amp;utm_campaign=image&amp;utm_content=3658630">mariali13</a>
  from <a
  href="https://pixabay.com/?utm_source=link-attribution&amp;utm_medium=referral&amp;utm_campaign=image&amp;utm_content=3658630">Pixabay</a></desc>

  <g>
    <path d="M81.248,275.235C36.448,275.235,0,311.689,0,356.483c0,44.8,36.448,81.248,81.248,81.248 c44.796,0,81.248-36.448,81.248-81.248C162.496,311.689,126.043,275.235,81.248,275.235z M81.248,409.716 c-29.352,0-53.232-23.881-53.232-53.232c0-29.346,23.88-53.231,53.232-53.231c29.349,0,53.231,23.886,53.231,53.231 C134.479,385.835,110.596,409.716,81.248,409.716z M304.438,287.843c-39.002,0-70.741,31.732-70.741,70.742 c0,39.016,31.739,70.742,70.741,70.742c39.005,0,70.742-31.727,70.742-70.742C375.181,319.575,343.448,287.843,304.438,287.843z M304.438,401.312c-23.562,0-42.725-19.171-42.725-42.728c0-23.552,19.163-42.726,42.725-42.726 c23.563,0,42.726,19.174,42.726,42.726C347.164,382.142,328.002,401.312,304.438,401.312z M490.06,142.112l-11.248-5.521 c-0.588-0.29-1.206-0.47-1.85-0.547l-30.974-3.442l-9.116-72.247c-0.266-2.128-1.728-3.917-3.759-4.608 c-2.036-0.677-4.285-0.146-5.789,1.375l-55.334,56.137c-1.283,1.308-1.854,3.163-1.516,4.979l1.469,7.699l-37.376,10.577 l-51.239,111.65h-5.963v-0.93c0-1.932,0.118-3.781,0.271-5.598h-6.769L224.726,107.19c-1.266-4.968-5.737-8.438-10.858-8.438H94.32 c-6.185,0-11.207,5.018-11.207,11.207v113.183c-3.79-0.711-7.683-1.122-11.671-1.122c-34.815,0-63.038,28.22-63.038,63.037v21.714 c15.201-26.007,43.346-43.529,75.645-43.529c48.405,0,87.65,39.244,87.65,87.655c0,6.747-0.834,13.292-2.279,19.612h54.184 c-0.834-4.552-1.331-9.221-1.331-14.01c0-34.878,23.259-64.272,55.097-73.646v-6.67H301.3l53.345-116.22l22.539-6.386l2.823,14.944 c0.285,1.472,1.141,2.763,2.377,3.606c0.929,0.629,2.018,0.958,3.128,0.958c0.361,0,0.729-0.039,1.095-0.116l102.075-20.328 c2.353-0.471,4.146-2.386,4.459-4.766C493.453,145.489,492.216,143.169,490.06,142.112z M113.152,237.883 c-2.388-2.123-4.93-4.06-7.625-5.794V121.149h99.621l41.912,116.734H113.152z"/>
  </g>
</svg>
