<?xml version="1.0" encoding="UTF-8"?>
<svg width="355.72mm" height="213.61mm" version="1.1" viewBox="0 0 1260.4181 756.89734" xmlns="http://www.w3.org/2000/svg">
 <desc>Image by <a href="https://pixabay.com/users/200degrees-2051452/?utm_source=link-attribution&amp;utm_medium=referral&amp;utm_campaign=image&amp;utm_content=2165374">200 Degrees</a> from <a href="https://pixabay.com/?utm_source=link-attribution&amp;utm_medium=referral&amp;utm_campaign=image&amp;utm_content=2165374">Pixabay</a></desc>
 <g transform="translate(299.21 -135.63)">
  <rect x="-299.21" y="135.63" width="1260.4" height="756.9" ry=".85772" color="#000000" color-rendering="auto" fill="#fff" image-rendering="auto" shape-rendering="auto" solid-color="#000000" style="isolation:auto;mix-blend-mode:normal"/>
  <path d="m961.21 136.81-65.948 669.3-1192.8 86.42h1257.9c0.47518 0 0.85742-0.3842 0.85742-0.85937z" fill="#ffc107" fill-rule="evenodd"/>
  <path d="m388.91 412.4-2.3697 110.19 235.19 91.232z" fill="#212121" fill-rule="evenodd"/>
  <path d="m344.13 439.81-66.35-162.32h-183.06v191.94l46.801 43.246 183.06 1.7773z" fill="#424242" fill-rule="evenodd"/>
  <path d="m78.739 329.78v107.46l-25.134 1.6756 4.0701-100.13c0.31882-3.0506-2.6679-2.9166-2.6679-2.9166h-15.645c-9.452-3.8758-14.406-11.5-17.175-20.945l43.57 0.14597c9.7161-0.39993 12.981 5.5818 12.981 14.709z" fill="#424242" fill-rule="evenodd"/>
  <path d="m-166.32 443.53-33.512-1.6756v108.91l45.241 25.134z" fill="#ffb300" fill-rule="evenodd"/>
  <rect transform="scale(-1,1)" x="3.2712" y="376.26" width="133.89" height="56.279" ry="6.97" color="#000000" color-rendering="auto" fill="#424242" image-rendering="auto" shape-rendering="auto" solid-color="#000000" style="isolation:auto;mix-blend-mode:normal"/>
  <g transform="matrix(-3.3175 0 0 3.3175 1659 -649.93)" fill="#212121" shape-rendering="auto">
   <rect x="534.69" y="312.49" width="2.4622" height="12.753" ry="1.2311" color="#000000" color-rendering="auto" image-rendering="auto" solid-color="#000000" style="isolation:auto;mix-blend-mode:normal"/>
   <rect x="529.76" y="312.49" width="2.4622" height="12.753" ry="1.2311" color="#000000" color-rendering="auto" image-rendering="auto" solid-color="#000000" style="isolation:auto;mix-blend-mode:normal"/>
   <rect x="524.52" y="312.49" width="2.4622" height="12.753" ry="1.2311" color="#000000" color-rendering="auto" image-rendering="auto" solid-color="#000000" style="isolation:auto;mix-blend-mode:normal"/>
   <rect x="519.91" y="312.49" width="2.4622" height="12.753" ry="1.2311" color="#000000" color-rendering="auto" image-rendering="auto" solid-color="#000000" style="isolation:auto;mix-blend-mode:normal"/>
  </g>
  <path d="m-177.44 442.97 11.119 0.55724 11.728 132.37-26.197-14.553 3.3499-118.37z" fill="#ffa000" fill-rule="evenodd"/>
  <path d="m107.22 421.75-279.82-1.6756-5.027 177.61 143.26 56.97h478.38l57.099-104.66-97.748-55.687v-71.682l-49.076-36.008-19.052 36.6-35.545 62.796h-155.8z" fill="#ffc107" fill-rule="evenodd" stroke="#ff8f00" stroke-width="3.3175px"/>
  <path d="m-172.6 420.07 17.598 0.10351 27.891 156.8 514.39 77.682h-421.64l-143.26-56.968z" fill="#ffb300" fill-rule="evenodd"/>
  <path d="m65.161 260.66c4.8779 7.3183 6.3302 16.59 23.811 22.426h206.34c-3.0185-8.0376-5.8343-16.12-15.771-22.621z" fill="#ffc107" fill-rule="evenodd"/>
  <rect transform="scale(-1,1)" x="-89.031" y="435.5" width="250.59" height="9.3349" ry="3.1855" color="#000000" color-rendering="auto" fill="#ffa000" image-rendering="auto" shape-rendering="auto" solid-color="#000000" style="isolation:auto;mix-blend-mode:normal"/>
  <rect transform="scale(-1,1)" x="-102.66" y="459.3" width="264.22" height="8.916" ry="3.0426" color="#000000" color-rendering="auto" fill="#ffa000" image-rendering="auto" shape-rendering="auto" solid-color="#000000" style="isolation:auto;mix-blend-mode:normal"/>
  <rect transform="scale(-1,1)" x="76.632" y="481.92" width="84.927" height="8.916" ry="3.0426" color="#000000" color-rendering="auto" fill="#ffa000" image-rendering="auto" shape-rendering="auto" solid-color="#000000" style="isolation:auto;mix-blend-mode:normal"/>
  <rect transform="scale(-1,1)" x="106.79" y="505.8" width="56.023" height="8.916" ry="3.0426" color="#000000" color-rendering="auto" fill="#ffa000" image-rendering="auto" shape-rendering="auto" solid-color="#000000" style="isolation:auto;mix-blend-mode:normal"/>
  <rect transform="scale(-1,1)" x="130.25" y="532.19" width="32.565" height="9.1254" ry="3.114" color="#000000" color-rendering="auto" fill="#ffa000" image-rendering="auto" shape-rendering="auto" solid-color="#000000" style="isolation:auto;mix-blend-mode:normal"/>
  <path d="m155.61 597.05-0.62813-27.857-67.024-75.821-118.49-0.0929-69.432 66.279-19.341-0.35939 80.742-79.13 132.8 0.73619 76.24 86.293-0.20966 45.66z" fill="#ffa000" fill-rule="evenodd"/>
  <path d="m323.12 444.64 146.55 163.01-10.16 18.616-53.812-22.73-170.94-117.51h64.938l23.423-41.378z" fill="#ffb300" fill-rule="evenodd"/>
  <path d="m481.19 495.43h-69.537l-71.632 73.726-0.83767 56.97-12.567-11.729 0.83767-54.008 79.02-77.526 73.46 0.4189z" fill="#ffa000" fill-rule="evenodd"/>
  <path d="m745.44 502.99-42.844 57.876 108 142.01h-169.45c-35.247-31.374-45-67.492-11.933-111.58l63.843-85.919z" fill="#1a1a1a" fill-rule="evenodd"/>
  <path d="m446.52 345.92-10.126 91.131 42.19 49.785-9.2817-124.04z" fill="#212121" fill-rule="evenodd"/>
  <path d="m697.13 653.9h-17.72l-290.42-281.57c-14.72-1.2179-25.676 5.0919-35.29 14.088l314.74 314.74 53.788 1.4902z" fill="#424242" fill-rule="evenodd"/>
  <path d="m458.33 356.04 228.67 224.45-10.126 15.189-228.67-222.76z" fill="#212121" fill-rule="evenodd"/>
  <path d="m629.4 605.33 47.19 45.752h17.715l22.957 47.488h-47.968l-3.6739-0.23322-42.493-42.493c-4.5562-15.601-2.9362-32.352 6.2722-50.514z" fill="#212121" fill-rule="evenodd"/>
  <path d="m746.47 502.99-21.48 57.876 80.672 106.08 57.903 35.928h-200.03c-35.248-31.374-45-67.492-11.933-111.58l63.843-85.919z" fill="#4d4d4d" fill-rule="evenodd"/>
  <path d="m469.55 367.15 2.1475 28.806 2.066 1.8872-1.7249-28.322z" fill-rule="evenodd"/>
  <circle transform="scale(-1,1)" cx="-457.01" cy="374.5" r="10.472" color="#000000" color-rendering="auto" image-rendering="auto" shape-rendering="auto" solid-color="#000000" style="isolation:auto;mix-blend-mode:normal"/>
  <path transform="scale(-1,1)" d="m-453.48 380.59c-0.59354 0.34268-6.2601 0.34268-6.8536 0-0.59354-0.34269-3.4268-5.25-3.4268-5.9354 0-0.68537 2.8333-5.5927 3.4268-5.9354 0.59354-0.34269 6.2601-0.34269 6.8536 0 0.59354 0.34268 3.4268 5.25 3.4268 5.9354 0 0.68536-2.8333 5.5927-3.4268 5.9354z" color="#000000" color-rendering="auto" fill="#212121" image-rendering="auto" shape-rendering="auto" solid-color="#000000" style="isolation:auto;mix-blend-mode:normal"/>
  <circle transform="scale(-1,1)" cx="-387.37" cy="395.34" r="13.3" color="#000000" color-rendering="auto" image-rendering="auto" shape-rendering="auto" solid-color="#000000" style="isolation:auto;mix-blend-mode:normal"/>
  <path transform="scale(-1,1)" d="m-382.89 403.08c-0.75379 0.4352-7.9503 0.4352-8.7041 0-0.75379-0.43521-4.352-6.6676-4.352-7.538s3.5983-7.1028 4.352-7.538c0.7538-0.4352 7.9503-0.4352 8.7041 0 0.7538 0.43521 4.352 6.6676 4.352 7.538s-3.5982 7.1028-4.352 7.538z" color="#000000" color-rendering="auto" fill="#ffc107" image-rendering="auto" shape-rendering="auto" solid-color="#000000" style="isolation:auto;mix-blend-mode:normal"/>
  <path d="m271.65 296.06 52.362 124.83-31.836 51.525-73.307 0.41891v-176.36z" fill="#d7ccc8" fill-rule="evenodd"/>
  <path d="m205.46 297.32v176.78l-54.038-1.2567-35.606-59.903-7.5402-0.83781v-115.62z" fill="#d7ccc8" fill-rule="evenodd"/>
  <path d="m711.3 580.29c1.0355 0.13336 2.0171 0.66602 2.7084 1.5616l93.422 121.02h-13.231l-88.478-114.63c-1.3826-1.7911-1.0589-4.3453 0.73221-5.7279l1.8272-1.4061c0.89556-0.6913 1.984-0.95617 3.0195-0.82291zm-13.827 26.391c1.0355 0.13336 2.0236 0.66602 2.7149 1.5616l73.05 94.633h-13.231l-68.113-88.238c-1.3826-1.7911-1.0525-4.3453 0.73864-5.7279l1.8208-1.406c0.89557-0.69129 1.984-0.95617 3.0195-0.8229zm-15.499 22.62c1.0355 0.13336 2.0171 0.66599 2.7084 1.5616l55.594 72.013h-13.231l-50.65-65.618c-1.3826-1.7911-1.0524-4.3453 0.73868-5.7279l1.8208-1.406c0.89557-0.6913 1.984-0.95618 3.0194-0.82291z" color="#000000" color-rendering="auto" fill="#333" image-rendering="auto" shape-rendering="auto" solid-color="#000000" style="isolation:auto;mix-blend-mode:normal"/>
  <path d="m284.05 388.7 26.864 0.97841 13.095 31.212-31.834 51.525-73.309 0.42116v-16.601h32.009l1.1858-35.547 31.989-31.989z" fill="#bcaaa4" fill-rule="evenodd"/>
  <rect transform="matrix(-.70711 -.70711 -.70711 .70711 0 0)" x="-456.07" y="76.175" width="5.3317" height="42.358" ry="2.6659" color="#000000" color-rendering="auto" fill="#bcaaa4" image-rendering="auto" shape-rendering="auto" solid-color="#000000" style="isolation:auto;mix-blend-mode:normal"/>
  <rect transform="matrix(.70711 -.70711 .70711 .70711 0 0)" x="-99.706" y="452.43" width="5.3317" height="42.358" ry="2.6659" color="#000000" color-rendering="auto" fill="#bcaaa4" image-rendering="auto" shape-rendering="auto" solid-color="#000000" style="isolation:auto;mix-blend-mode:normal"/>
  <path d="m144.15 336.27c1.4769 0 2.6631 1.1862 2.6631 2.6631v83.631h40.905c1.4769 0 2.6631 1.1862 2.6631 2.6631v45.778c0 1.4769-1.1862 2.6631-2.6631 2.6631h-0.36286l-35.929-0.83584-29.884-50.268h6.8424v-83.631c0-1.4769 1.1862-2.6631 2.6631-2.6631h13.102z" color="#000000" color-rendering="auto" fill="#bcaaa4" image-rendering="auto" shape-rendering="auto" solid-color="#000000" style="isolation:auto;mix-blend-mode:normal"/>
  <g transform="matrix(-3.3175 0 0 3.3175 1659 -649.93)" shape-rendering="auto">
   <circle cx="355.73" cy="386.29" r="32.768" color="#000000" color-rendering="auto" fill="#212121" image-rendering="auto" solid-color="#000000" style="isolation:auto;mix-blend-mode:normal"/>
   <path d="m347.43 350.95c-0.10002 0.0109-0.20177 0.0436-0.29882 0.0996l-10.506 6.0644c-0.38821 0.22413-0.55798 0.73665-0.38086 1.1484l3.1484 7.3203-7.6777-5.7285c-0.35928-0.26807-0.8286-0.17142-1.0527 0.21679l-6.0664 10.506c-0.22413 0.38821-0.11514 0.91749 0.24414 1.1856l6.3848 4.7637-9.5117-1.1211c-0.44518-0.0525-0.80274 0.26462-0.80274 0.71289v12.133c0 0.44826 0.35756 0.85179 0.80274 0.9043l7.9121 0.93359-8.7969 3.7832c-0.41179 0.17712-0.56397 0.63133-0.33984 1.0195l6.0664 10.508c0.22414 0.38821 0.73665 0.55797 1.1484 0.38086l7.3164-3.1465-5.7266 7.6738c-0.26807 0.35928-0.17142 0.83056 0.21679 1.0547l10.508 6.0644c0.38821 0.22413 0.91554 0.11514 1.1836-0.24414l4.7656-6.3867-1.123 9.5137c-0.0525 0.44518 0.26658 0.80274 0.71484 0.80274h12.131c0.44826 0 0.85179-0.35756 0.9043-0.80274l0.93359-7.9141 3.7852 8.8008c0.17711 0.41179 0.63132 0.56203 1.0195 0.33789l10.506-6.0664c0.38821-0.22414 0.55797-0.7347 0.38086-1.1465l-3.1484-7.3203 7.6777 5.7285c0.35929 0.26806 0.82861 0.17141 1.0527-0.2168l6.0664-10.506c0.22414-0.38821 0.11515-0.91748-0.24414-1.1856l-6.3848-4.7637 9.5117 1.1211c0.44518 0.0525 0.80273-0.26658 0.80273-0.71484v-12.131c0-0.44826-0.35755-0.85179-0.80273-0.9043l-7.9121-0.93359 8.7969-3.7832c0.41179-0.17712 0.56398-0.63328 0.33985-1.0215l-6.0664-10.506c-0.22413-0.3882-0.73665-0.55797-1.1484-0.38086l-7.3184 3.1484 5.7285-7.6777c0.26806-0.35928 0.17141-0.8286-0.2168-1.0527l-10.508-6.0664c-0.38821-0.22414-0.91553-0.11514-1.1836 0.24414l-4.7637 6.3848 1.1211-9.5098c0.0525-0.44518-0.26658-0.80469-0.71485-0.80469h-12.131c-0.44826 0-0.85178 0.35951-0.90429 0.80469l-0.9336 7.9141-3.7852-8.8008c-0.13284-0.30884-0.42063-0.47026-0.72071-0.4375z" color="#000000" color-rendering="auto" fill="#212121" image-rendering="auto" solid-color="#000000" style="isolation:auto;mix-blend-mode:normal"/>
   <circle cx="355.59" cy="386.98" r="15.985" color="#000000" color-rendering="auto" fill="#ff8f00" image-rendering="auto" solid-color="#000000" style="isolation:auto;mix-blend-mode:normal"/>
   <circle cx="355.55" cy="386.93" r="14.512" color="#000000" color-rendering="auto" fill="#ffc107" image-rendering="auto" solid-color="#000000" style="isolation:auto;mix-blend-mode:normal"/>
   <circle cx="355.55" cy="386.84" r="9.6013" color="#000000" color-rendering="auto" fill="#ff6f00" image-rendering="auto" solid-color="#000000" style="isolation:auto;mix-blend-mode:normal"/>
   <rect x="353.41" y="378.63" width="4.2857" height="16.607" ry="1.5234" color="#000000" color-rendering="auto" fill="#ff8f00" image-rendering="auto" solid-color="#000000" style="isolation:auto;mix-blend-mode:normal"/>
   <rect transform="matrix(.5 .86603 -.86603 .5 0 0)" x="510.72" y="-122.75" width="4.2857" height="16.607" ry="1.5234" color="#000000" color-rendering="auto" fill="#ff8f00" image-rendering="auto" solid-color="#000000" style="isolation:auto;mix-blend-mode:normal"/>
   <rect transform="matrix(-.5 .86603 -.86603 -.5 0 0)" x="155.18" y="-509.68" width="4.2857" height="16.607" ry="1.5234" color="#000000" color-rendering="auto" fill="#ff8f00" image-rendering="auto" solid-color="#000000" style="isolation:auto;mix-blend-mode:normal"/>
   <ellipse cx="355.56" cy="381.12" rx="1.2785" ry="1.168" color="#000000" color-rendering="auto" fill="#424242" image-rendering="auto" solid-color="#000000" style="isolation:auto;mix-blend-mode:normal"/>
   <ellipse cx="355.56" cy="392.86" rx="1.2785" ry="1.168" color="#000000" color-rendering="auto" fill="#424242" image-rendering="auto" solid-color="#000000" style="isolation:auto;mix-blend-mode:normal"/>
   <ellipse cx="360.86" cy="383.96" rx="1.2785" ry="1.168" color="#000000" color-rendering="auto" fill="#424242" image-rendering="auto" solid-color="#000000" style="isolation:auto;mix-blend-mode:normal"/>
   <ellipse cx="360.92" cy="390.14" rx="1.2785" ry="1.168" color="#000000" color-rendering="auto" fill="#424242" image-rendering="auto" solid-color="#000000" style="isolation:auto;mix-blend-mode:normal"/>
   <ellipse cx="350.13" cy="383.89" rx="1.2785" ry="1.168" color="#000000" color-rendering="auto" fill="#424242" image-rendering="auto" solid-color="#000000" style="isolation:auto;mix-blend-mode:normal"/>
   <ellipse cx="350.25" cy="390.08" rx="1.2785" ry="1.168" color="#000000" color-rendering="auto" fill="#424242" image-rendering="auto" solid-color="#000000" style="isolation:auto;mix-blend-mode:normal"/>
   <ellipse cx="355.62" cy="387.18" rx="1.2785" ry="1.168" color="#000000" color-rendering="auto" fill="#424242" image-rendering="auto" solid-color="#000000" style="isolation:auto;mix-blend-mode:normal"/>
  </g>
  <g transform="matrix(-3.3175 0 0 3.3175 1202.9 -649.93)" shape-rendering="auto">
   <circle cx="355.73" cy="386.29" r="32.768" color="#000000" color-rendering="auto" fill="#212121" image-rendering="auto" solid-color="#000000" style="isolation:auto;mix-blend-mode:normal"/>
   <path d="m347.43 350.95c-0.10002 0.0109-0.20177 0.0436-0.29882 0.0996l-10.506 6.0644c-0.38821 0.22413-0.55798 0.73665-0.38086 1.1484l3.1484 7.3203-7.6777-5.7285c-0.35928-0.26807-0.8286-0.17142-1.0527 0.21679l-6.0664 10.506c-0.22413 0.38821-0.11514 0.91749 0.24414 1.1856l6.3848 4.7637-9.5117-1.1211c-0.44518-0.0525-0.80274 0.26462-0.80274 0.71289v12.133c0 0.44826 0.35756 0.85179 0.80274 0.9043l7.9121 0.93359-8.7969 3.7832c-0.41179 0.17712-0.56397 0.63133-0.33984 1.0195l6.0664 10.508c0.22414 0.38821 0.73665 0.55797 1.1484 0.38086l7.3164-3.1465-5.7266 7.6738c-0.26807 0.35928-0.17142 0.83056 0.21679 1.0547l10.508 6.0644c0.38821 0.22413 0.91554 0.11514 1.1836-0.24414l4.7656-6.3867-1.123 9.5137c-0.0525 0.44518 0.26658 0.80274 0.71484 0.80274h12.131c0.44826 0 0.85179-0.35756 0.9043-0.80274l0.93359-7.9141 3.7852 8.8008c0.17711 0.41179 0.63132 0.56203 1.0195 0.33789l10.506-6.0664c0.38821-0.22414 0.55797-0.7347 0.38086-1.1465l-3.1484-7.3203 7.6777 5.7285c0.35929 0.26806 0.82861 0.17141 1.0527-0.2168l6.0664-10.506c0.22414-0.38821 0.11515-0.91748-0.24414-1.1856l-6.3848-4.7637 9.5117 1.1211c0.44518 0.0525 0.80273-0.26658 0.80273-0.71484v-12.131c0-0.44826-0.35755-0.85179-0.80273-0.9043l-7.9121-0.93359 8.7969-3.7832c0.41179-0.17712 0.56398-0.63328 0.33985-1.0215l-6.0664-10.506c-0.22413-0.3882-0.73665-0.55797-1.1484-0.38086l-7.3184 3.1484 5.7285-7.6777c0.26806-0.35928 0.17141-0.8286-0.2168-1.0527l-10.508-6.0664c-0.38821-0.22414-0.91553-0.11514-1.1836 0.24414l-4.7637 6.3848 1.1211-9.5098c0.0525-0.44518-0.26658-0.80469-0.71485-0.80469h-12.131c-0.44826 0-0.85178 0.35951-0.90429 0.80469l-0.9336 7.9141-3.7852-8.8008c-0.13284-0.30884-0.42063-0.47026-0.72071-0.4375z" color="#000000" color-rendering="auto" fill="#212121" image-rendering="auto" solid-color="#000000" style="isolation:auto;mix-blend-mode:normal"/>
   <circle cx="355.59" cy="386.98" r="15.985" color="#000000" color-rendering="auto" fill="#ff8f00" image-rendering="auto" solid-color="#000000" style="isolation:auto;mix-blend-mode:normal"/>
   <circle cx="355.55" cy="386.93" r="14.512" color="#000000" color-rendering="auto" fill="#ffc107" image-rendering="auto" solid-color="#000000" style="isolation:auto;mix-blend-mode:normal"/>
   <circle cx="355.55" cy="386.84" r="9.6013" color="#000000" color-rendering="auto" fill="#ff6f00" image-rendering="auto" solid-color="#000000" style="isolation:auto;mix-blend-mode:normal"/>
   <rect x="353.41" y="378.63" width="4.2857" height="16.607" ry="1.5234" color="#000000" color-rendering="auto" fill="#ff8f00" image-rendering="auto" solid-color="#000000" style="isolation:auto;mix-blend-mode:normal"/>
   <rect transform="matrix(.5 .86603 -.86603 .5 0 0)" x="510.72" y="-122.75" width="4.2857" height="16.607" ry="1.5234" color="#000000" color-rendering="auto" fill="#ff8f00" image-rendering="auto" solid-color="#000000" style="isolation:auto;mix-blend-mode:normal"/>
   <rect transform="matrix(-.5 .86603 -.86603 -.5 0 0)" x="155.18" y="-509.68" width="4.2857" height="16.607" ry="1.5234" color="#000000" color-rendering="auto" fill="#ff8f00" image-rendering="auto" solid-color="#000000" style="isolation:auto;mix-blend-mode:normal"/>
   <ellipse cx="355.56" cy="381.12" rx="1.2785" ry="1.168" color="#000000" color-rendering="auto" fill="#424242" image-rendering="auto" solid-color="#000000" style="isolation:auto;mix-blend-mode:normal"/>
   <ellipse cx="355.56" cy="392.86" rx="1.2785" ry="1.168" color="#000000" color-rendering="auto" fill="#424242" image-rendering="auto" solid-color="#000000" style="isolation:auto;mix-blend-mode:normal"/>
   <ellipse cx="360.86" cy="383.96" rx="1.2785" ry="1.168" color="#000000" color-rendering="auto" fill="#424242" image-rendering="auto" solid-color="#000000" style="isolation:auto;mix-blend-mode:normal"/>
   <ellipse cx="360.92" cy="390.14" rx="1.2785" ry="1.168" color="#000000" color-rendering="auto" fill="#424242" image-rendering="auto" solid-color="#000000" style="isolation:auto;mix-blend-mode:normal"/>
   <ellipse cx="350.13" cy="383.89" rx="1.2785" ry="1.168" color="#000000" color-rendering="auto" fill="#424242" image-rendering="auto" solid-color="#000000" style="isolation:auto;mix-blend-mode:normal"/>
   <ellipse cx="350.25" cy="390.08" rx="1.2785" ry="1.168" color="#000000" color-rendering="auto" fill="#424242" image-rendering="auto" solid-color="#000000" style="isolation:auto;mix-blend-mode:normal"/>
   <ellipse cx="355.62" cy="387.18" rx="1.2785" ry="1.168" color="#000000" color-rendering="auto" fill="#424242" image-rendering="auto" solid-color="#000000" style="isolation:auto;mix-blend-mode:normal"/>
  </g>
  <rect transform="scale(-1,1)" x="-315.45" y="623.89" width="81.161" height="16.588" ry="5.054" color="#000000" color-rendering="auto" fill="#ffa000" image-rendering="auto" shape-rendering="auto" solid-color="#000000" style="isolation:auto;mix-blend-mode:normal"/>
  <rect transform="scale(-1,1)" x="-292.34" y="593.68" width="81.161" height="16.588" ry="5.054" color="#000000" color-rendering="auto" fill="#ffa000" image-rendering="auto" shape-rendering="auto" solid-color="#000000" style="isolation:auto;mix-blend-mode:normal"/>
  <rect transform="scale(-1,1)" x="-264.5" y="562.28" width="81.161" height="16.588" ry="5.054" color="#000000" color-rendering="auto" fill="#ffa000" image-rendering="auto" shape-rendering="auto" solid-color="#000000" style="isolation:auto;mix-blend-mode:normal"/>
  <path d="m-297.52 892.53 80.09-681.42 1178.6-74.299h-1257.9c-0.47518 0-0.85742 0.3842-0.85742 0.85937z" fill="#ffc107" fill-rule="evenodd"/>
 </g>
</svg>
