<?xml version="1.0" encoding="UTF-8"?>
<svg xmlns="http://www.w3.org/2000/svg" xml:space="preserve" width="0.333in" height="0.333in" shape-rendering="geometricPrecision" text-rendering="geometricPrecision" image-rendering="optimizeQuality" fill-rule="evenodd" clip-rule="evenodd" viewBox="0 0 10240 10240" xmlns:xlink="http://www.w3.org/1999/xlink">
	<title>hand_point_right icon</title>
	<desc>hand_point_right icon from the IconExperience.com O-Collection. Copyright by INCORS GmbH (www.incors.com).</desc>
	<path id="curve1" fill="#808080" d="M1600 3520l-1280 0 0 4480 1280 0c353,0 640,-287 640,-640l0 -3200c0,-353 -287,-640 -640,-640z"/>
	<path id="curve0" fill="#EFC1B4" d="M6080 3200l2720 0c619,0 1120,501 1120,1120 0,619 -501,1120 -1120,1120l-1360 0 -478 1910c-144,577 -647,970 -1242,970l-938 0c-206,0 -388,-43 -572,-135l-739 -370c-185,-92 -366,-135 -572,-135l-338 0c-18,0 -36,-1 -54,-2 35,-99 54,-206 54,-318l0 -320 338 0c306,0 585,66 859,203l739 370c96,48 178,68 286,68l938 0c301,0 548,-192 621,-485l478 -1910c72,-289 323,-485 621,-485l1360 0c265,0 480,-215 480,-480 0,-265 -215,-480 -480,-480l-2720 0c-212,0 -395,-94 -519,-266 -124,-172 -155,-375 -88,-577 112,-337 142,-840 -86,-1139 -82,-107 -189,-169 -309,-202 -91,541 -307,1031 -706,1434 -151,152 -315,278 -491,399 -63,43 -175,110 -229,162 -344,344 -489,827 -1092,827l0 -320c0,-111 -19,-218 -54,-318 18,-2 36,-2 54,-2 57,0 90,-5 133,-41 64,-53 126,-137 176,-203 106,-138 208,-273 332,-396 100,-99 206,-159 319,-237 141,-97 278,-200 398,-321 300,-304 459,-674 530,-1091 31,-185 129,-332 287,-433 158,-101 333,-127 514,-78 260,71 484,216 648,431 362,475 367,1181 184,1729z"/>
</svg>
