<?xml version="1.0" encoding="UTF-8"?>
<svg width="271.53" height="261.5" version="1.1" viewBox="215 461 300 500" xmlns="http://www.w3.org/2000/svg" xmlns:cc="http://creativecommons.org/ns#" xmlns:dc="http://purl.org/dc/elements/1.1/" xmlns:rdf="http://www.w3.org/1999/02/22-rdf-syntax-ns#" xmlns:xlink="http://www.w3.org/1999/xlink">
 <title>population</title>
 <metadata>
  <rdf:RDF>
   <rdf:Description rdf:about="https://img.clipartxtras.com/71db837d5c603de2ca206a62c3394edd_population-group-people-clip-art-at-clkercom-vector-clip-art-small-group-of-people-clipart_744-1052.svg">
    <dc:title>population</dc:title>
    <dc:creator>William Mitchelle</dc:creator>
    <dc:date>2010-12-26</dc:date>
    <!--
      <dc:description></dc:description>
      <dc:rights></dc:rights>
	  -->
    <dc:format>image/svg+xml</dc:format>
    <!-- MIME-Type -->
    <dc:type>Image</dc:type>
   </rdf:Description>
   <cc:Work rdf:about="">
    <dc:title>population</dc:title>
   </cc:Work>
  </rdf:RDF>
 </metadata>
 <defs>
  <filter id="filter3812" x="-.061391" y="-.15942" width="1.1228" height="1.3188">
   <feGaussianBlur stdDeviation="12.372394"/>
  </filter>
 </defs>
 <g transform="translate(37.608 -14.115)">
  <title>Layer 1</title>
  <g fill="#2f4f4f" stroke="#16150e" stroke-linecap="round" stroke-width="0">
   <path d="m182.64 519.49c-16.874 0-30.558 13.763-30.558 30.741 0 13.206 8.2778 24.464 19.895 28.816v6.0608c-27.704 2.1633-39.816 13.206-41.555 32.851l-6.466 73.033c6.7457 10.808 13.492 5.143 20.237 0l6.4661-65.131c0.29095-2.931 1.3163-5.6699 3.5593-7.9101l-5.2225 83.823c-0.18117 2.9077 1.1208 5.6223 3.0572 7.9125-0.3362 1.8055-0.42098 3.7876-0.52638 5.8644l-4.6292 91.151c-0.49482 9.7452 3.5498 17.617 7.9633 17.617h10.243c4.4135 0 7.8273-7.8585 7.9633-17.617l1.2549-90.052h16.053c0 4e-3 -6e-5 7e-3 0 0.01l1.1214 91.316c0.11979 9.7579 3.5498 17.617 7.9633 17.617h10.243c4.4135 0 8.4431-7.8725 7.9633-17.617l-4.4957-91.316c-0.13557-2.7524-0.32518-5.3317-0.89595-7.5628 1.6441-2.1605 2.7513-4.6611 2.5862-7.3231l-5.2225-84.151c-0.0441-0.70966-0.081-1.4064-0.23311-2.0847 4.0713 2.5304 6.1924 6.2372 6.6292 10.323l6.9634 65.131c8.539 8.0638 14.464 6.2329 19.227 0l-6.9634-73.033c-1.9124-20.058-14.467-31.149-43.389-32.969v-5.4472c12.361-3.9384 21.318-15.572 21.318-29.312 0-16.979-13.676-30.741-30.55-30.741z"/>
   <path d="m309.13 786.16c-4.8762 0-8.6688 3.5524-8.8012 7.9567l-1.2365 41.213h-17.74l-1.3824-40.646c-0.15021-4.4042-3.925-7.9483-8.8012-7.9483h-11.317c-4.8763 0-9.3394 3.5502-8.7927 7.9483l5.109 41.145c0.11655 0.93744 0.21244 1.8317 0.5839 2.6466-2.1396 1.0337-3.5747 2.2644-3.3745 3.5767l5.7702 37.83c-2.4782-1.0112-3.6112-2.2452-3.9327-3.5683l-7.144-29.4c-7.4532-2.3213-14.906-4.8782-22.359 0l0.69551 3.1962c-1.672 0.5907-3.0993 1.6458-3.967 2.9849-2.6274-1.3461-5.5794-2.1871-9.0588-2.2155l1.5456-12.81c0.4798-3.9808-3.5549-7.1957-7.9684-7.1957h-10.235c-1.6479 0-3.1609 0.44916-4.4135 1.2176l3.7266-30.871c0.52263-4.3366-3.8734-7.8469-8.681-7.8469h-11.154c-4.8077 0-8.5419 3.5045-8.6725 7.8469l-0.94452 31.286c-1.2134-0.70105-2.6568-1.1077-4.2246-1.1077h-10.235c-1.2778 0-2.526 0.27295-3.6407 0.75257l-1.0304-30.364c-0.14812-4.3424-3.8733-7.8468-8.681-7.8468h-11.154c-4.8077 0-9.2115 3.5104-8.6724 7.8468l5.0403 40.562c0.11488 0.92414 0.20906 1.8009 0.5753 2.6044-2.1095 1.0191-3.5289 2.232-3.3316 3.5259l5.358 35.167c-0.75042 0.1482-1.4992 0.35541-2.2497 0.63416-0.72186-0.63355-1.1252-1.3159-1.2966-2.0209l-7.041-28.986c-7.3483-2.2887-14.702-4.8096-22.05 0l7.041 32.503c1.339 6.1785 8.3353 10.44 22.969 12.751l2.7305 12.607c-1.3525 1.4889-2.1037 3.0946-2.1037 4.7774 0 7.5557 14.909 13.681 33.29 13.681 3.2469 0 6.3842-0.1933 9.3508-0.54968 0.6633 0.0262 1.3271 0.0544 2.0093 0.0762v2.4775c-11.618 1.7781-19.895 6.3754-19.895 11.77 0 6.9361 13.685 12.557 30.56 12.557 16.874 0 30.551-5.6205 30.551-12.557 0-5.6131-8.9598-10.364-21.32-11.973v-2.2238c5.7059-0.14667 10.765-0.44727 15.241-0.88782l0.96169 4.4561c1.7157 7.9161 13.657 12.37 40.984 13.241v2.4437c-11.46 1.754-19.62 6.2881-19.62 11.61 0 6.8418 13.494 12.387 30.139 12.387 16.645 0 30.139-5.5457 30.139-12.387 0-5.5369-8.8358-10.225-21.029-11.812v-2.1985c28.529-0.73328 40.909-5.2012 42.796-13.284l2.1982-9.4111 1.288 5.9443c1.6076 7.4175 12.802 11.588 38.408 12.404v2.2914c-10.738 1.6435-18.384 5.8962-18.384 10.882 0 6.4108 12.645 11.601 28.241 11.601 15.596 6e-5 28.241-5.1902 28.241-11.601 0-5.188-8.2816-9.5814-19.706-11.068v-2.0632c5.778-0.1485 10.849-0.45563 15.267-0.93012 5.7708 4.2502 16.822 7.1196 29.504 7.1196v8e-3c12.494 6e-5 23.393-2.7952 29.229-6.9421 5.4294 0.779 11.898 1.2869 19.534 1.5305v2.5452c-11.911 1.823-20.393 6.5352-20.393 12.066 0 7.1113 14.032 12.878 31.332 12.878 17.3 0 31.315-5.7667 31.315-12.878 0-5.7548-9.1801-10.628-21.853-12.278v-2.283c29.652-0.76227 42.526-5.4073 44.487-13.808l0.30908-1.319c10.822-2.2579 18.238-6.8796 18.238-12.21 0-4.3948-5.0364-8.3035-12.871-10.806l1.2193-5.2002c23.345-1.6473 33.887-6.3833 35.694-14.129l7.5906-32.503c-5.188-2.7738-11.641-3.5885-20.943 0l-7.5905 28.986c-0.47583 1.818-2.7863 3.4654-7.2214 4.5914 0.16577-0.30182 0.20966-0.60584 0.25763-0.92169l5.6843-37.45c0.17993-1.1846-1.0254-2.3024-2.8164-3.2639 0.62177-0.9928 0.83124-2.1405 0.97888-3.3653l4.8944-40.629c0.52265-4.3365-3.8647-7.8468-8.6725-7.8468h-11.154c-4.8077 0-8.5505 3.5045-8.681 7.8468l-1.2193 40.629c-6e-5 2e-3 0 5e-3 0 8e-3h-17.482l-1.3738-40.071c-0.14811-4.3423-3.8648-7.8468-8.6725-7.8468h-11.154c-4.8077 0-9.2201 3.5105-8.681 7.8468l5.0489 40.562c0.1149 0.9242 0.2005 1.8008 0.56671 2.6043-2.1095 1.0192-3.5203 2.2321-3.323 3.526l3.4518 22.67c-1.4806-0.78198-3.0629-1.4142-4.7828-1.8264l-3.9069-16.049c-2.3765-0.74023-4.7503-1.4965-7.1269-2.0294l-0.0257-0.85406c-0.13943-4.0869-3.641-7.3733-8.1659-7.3733h-5.9934l2.971-24.623c0.53009-4.3985-3.925-7.9483-8.8012-7.9483h-11.317c-4.8763 0-8.6602 3.544-8.7927 7.9483l-1.2451 41.221h-17.731l-1.391-40.646c-0.1502-4.4042-3.9164-7.9482-8.7927-7.9482h-11.317c-4.8762 0-9.348 3.5502-8.8012 7.9482l4.0443 32.596h-2.3098c-4.0793 0-7.248 2.9702-7.3587 6.6546l-0.36066 12.049c-5.4351-1.6385-10.871-2.8542-16.306-0.67646l-0.0944-2.8833 4.4564-19.101c-5.262-2.8133-11.809-3.6396-21.243 0l-1.1764 4.4815c-3.7266 0.38141-6.9249 3.1942-6.5 6.6122l1.537 12.371-1.5542 5.9358c-0.4826 1.8441-2.826 3.517-7.3243 4.6591 0.16812-0.30615 0.20892-0.62671 0.2576-0.94708l5.7702-37.974c0.18253-1.2014-1.0428-2.3309-2.8593-3.3061 0.6307-1.007 0.83774-2.1738 0.98745-3.4161l4.9716-41.213c0.53009-4.3984-3.925-7.9567-8.8013-7.9567h-11.317zm-87.411 71.661 3.3058 26.551c-1.4955 0.35272-3.0768 0.83673-4.7656 1.4882l-4.3276 16.531c-2.2547-0.67163-4.5115-1.2445-6.7662-1.4628l1.288-8.4979c2.6208-1.8924 4.1547-4.111 4.7484-6.6546zm257.86 12.92 1.9577 12.886-0.0343 1.3445c-2.2602-0.97577-3.3096-2.1512-3.615-3.4076l-0.42932-1.7587zm-126.93 16.81 0.97028 4.4561h-0.81571zm-104.08 3.7289c2.5363 0.65314 5.3971 1.215 8.6124 1.6912h-8.5522zm83.058 0.29596 0.10306 0.84552c0.0974 0.78424 0.17859 1.5338 0.48941 2.2154-1.7899 0.86475-2.9924 1.887-2.825 2.9848l4.8256 31.658c-2.0731-0.84588-3.0198-1.8865-3.2886-2.9933l-5.9763-24.589c-4.4728-1.3931-8.9479-2.8872-13.421-2.114-3.1818-1.0406-6.8266-1.8513-10.793-2.3676v-2.4606c13.265-0.341 23.401-1.4059 30.886-3.1793zm-186.66 8.7685c0.43087 0.0156 0.84997 0.0367 1.288 0.0507v2.6974c-0.20196 0.0309-0.40099 0.0605-0.60107 0.093l-0.68692-2.8411zm297.63 16.844 1.6486 10.857c-0.96805-0.83008-2.1269-1.6136-3.4604-2.3422-0.0292-0.087-0.0559-0.17431-0.0773-0.26208l-1.9148-7.8807c1.3094-0.11322 2.5801-0.23767 3.8039-0.37201zm-55.323 0.20295c1.9891 0.19366 4.0823 0.35711 6.2854 0.49883l-1.4425 5.5131c-2.3567 0.81231-4.4387 1.7535-6.1823 2.7988zm-160.05 5.0396 1.5713 10.316c-2.2126-0.90265-3.2163-2.0066-3.5033-3.1877l-1.3223-5.4539c1.2159-0.51862 2.3044-1.0783 3.2543-1.6741zm57.573 1.6911c1.8668 0.13147 3.7864 0.20294 5.7444 0.20294 0.20481 0 0.40573-7e-3 0.60965-8e-3l-1.3738 5.2425c-0.43097 1.6463-2.527 3.1404-6.543 4.1602 0.15006-0.27338 0.18839-0.55964 0.23184-0.84559l1.3309-8.7515zm216.49 3.9487c1.0743 0.16137 2.1744 0.29846 3.2973 0.41436-0.98251 0.47699-2.1976 0.90601-3.6579 1.2767 0.15598-0.284 0.19525-0.57367 0.24042-0.87091z" filter="url(#filter3812)"/>
   <path d="m473.5 485.06c-17.3 0-31.33 14.11-31.33 31.517 0 13.539 8.4868 25.081 20.398 29.544v6.2138c-28.403 2.218-40.821 13.54-42.604 33.681l-6.6292 74.877c6.916 11.081 13.832 5.2728 20.748 0l6.6293-66.775c0.29831-3.0051 1.3495-5.813 3.6492-8.1098l-5.3544 85.939c-0.18573 2.981 1.149 5.7642 3.1345 8.1122-0.34473 1.851-0.43167 3.8832-0.53973 6.0124l-4.746 93.453c-0.50732 9.9906 3.6394 18.062 8.1643 18.062h10.502c4.5249 0 8.0249-8.0571 8.1643-18.062l1.2865-92.326h16.458c0 5e-3 -6e-5 7e-3 0 0.01l1.1498 93.621c0.12284 10.004 3.6394 18.062 8.1643 18.062h10.502c4.5249 0 8.6562-8.0711 8.1643-18.062l-4.6092-93.621c-0.13897-2.8219-0.33334-5.4664-0.91854-7.7538 1.6856-2.215 2.8208-4.7788 2.6514-7.5079l-5.3544-86.275c-0.0452-0.72754-0.083-1.4419-0.23901-2.1373 4.1742 2.5942 6.3488 6.3947 6.7966 10.583l7.1392 66.775c8.7546 8.2675 14.829 6.3903 19.713 0l-7.1393-74.876c-1.9608-20.564-14.832-31.935-44.484-33.801v-5.5847c12.673-4.0379 21.856-15.965 21.856-30.052 0-17.407-14.021-31.517-31.322-31.517v-2.4e-4z"/>
   <path d="m360.49 493.72c-15.596 0-28.244 12.72-28.244 28.413 0 12.206 7.6509 22.611 18.389 26.634v5.6019c-25.606 1.9995-36.8 12.206-38.408 30.363l-5.9762 67.502c6.2348 9.9894 12.47 4.7536 18.705 0l5.9764-60.198c0.26889-2.7092 1.2166-5.2405 3.2897-7.311l-4.827 77.475c-0.16745 2.6874 1.0359 5.1965 2.8258 7.3132-0.31085 1.6687-0.38919 3.5007-0.48654 5.4202l-4.2787 84.248c-0.45733 9.0064 3.2809 16.283 7.3602 16.283h9.4674c4.0792 0 7.2345-7.264 7.3602-16.283l1.1599-83.233h14.837c0 4e-3 -6e-5 7e-3 0 8e-3l1.0364 84.4c0.11071 9.0189 3.281 16.283 7.3602 16.283h9.4674c4.0792 0 7.8036-7.2759 7.3602-16.283l-4.1552-84.4c-0.12543-2.544-0.30066-4.928-0.8281-6.9901 1.5195-1.9968 2.5429-4.308 2.3903-6.7684l-4.827-77.778c-0.0408-0.65589-0.0748-1.2999-0.21543-1.9269 3.7629 2.3388 5.7233 5.7649 6.1272 9.5409l6.436 60.198c7.8924 7.4533 13.369 5.761 17.771 0l-6.4359-67.502c-1.7676-18.539-13.371-28.79-40.103-30.472v-5.0347c11.425-3.6402 19.703-14.393 19.703-27.092 0-15.693-12.64-28.413-28.237-28.413z"/>
   <path d="m256.84 479.12c-16.645 0-30.143 13.576-30.143 30.324 0 13.026 8.1654 24.131 19.625 28.425v5.9785c-27.327 2.134-39.274 13.027-40.99 32.405l-6.3781 72.04c6.654 10.661 13.308 5.0731 19.962 0l6.3782-64.246c0.28704-2.8913 1.2985-5.5928 3.511-7.8026l-5.1516 82.683c-0.17869 2.8681 1.1055 5.5458 3.0157 7.8049-0.33164 1.7809-0.41528 3.7361-0.5193 5.7847l-4.5662 89.913c-0.48808 9.6119 3.5016 17.378 7.8551 17.378h10.104c4.3535 0 7.721-7.7523 7.8551-17.378l1.2377-88.829h15.835c0 4e-3 -3e-5 7e-3 0 0.01l1.1062 90.075c0.11822 9.6252 3.5016 17.378 7.8551 17.378h10.104c4.3535 0 8.3283-7.7651 7.855-17.378l-4.4346-90.074c-0.13382-2.7151-0.32081-5.2593-0.88379-7.4601 1.6217-2.1312 2.7139-4.5977 2.551-7.2235l-5.1516-83.007c-0.0434-0.70001-0.0799-1.3873-0.22992-2.0564 4.016 2.496 6.1081 6.1524 6.5391 10.182l6.8687 64.246c8.4229 7.9543 14.268 6.1482 18.966 0l-6.8686-72.04c-1.8865-19.785-14.27-30.726-42.799-32.521v-5.3732c12.193-3.8849 21.028-15.36 21.028-28.914 0-16.748-13.49-30.323-30.135-30.323v-8.5e-4z"/>
   <path d="m290.54 596.85c-18.644 0-33.762 15.206-33.762 33.965 0 14.59 9.146 27.029 21.982 31.838v6.6964c-30.609 2.3902-43.991 14.591-45.912 36.296l-7.144 80.691c7.4532 11.941 14.906 5.6822 22.359 0l7.144-71.961c0.32152-3.2386 1.4544-6.2646 3.9327-8.7397l-5.7702 92.613c-0.20015 3.2126 1.2382 6.2119 3.3778 8.7422-0.37146 1.9948-0.46515 4.1849-0.58166 6.4794l-5.1145 100.71c-0.54673 10.766 3.9221 19.464 8.7984 19.464h11.317c4.8763 0 8.6481-8.6834 8.7983-19.464l1.3864-99.496h17.736c0 5e-3 -3e-5 7e-3 0 0.0107l1.2391 100.89c0.13238 10.781 3.922 19.464 8.7983 19.464h11.317c4.8762 0 9.3284-8.6974 8.7984-19.464l-4.9673-100.89c-0.14972-3.0411-0.35916-5.8909-0.98987-8.3559 1.8165-2.3871 3.0399-5.1499 2.8574-8.0909l-5.7702-92.975c-0.0487-0.78412-0.0895-1.554-0.2576-2.3034 4.4984 2.7957 6.8417 6.8912 7.3244 11.405l7.6936 71.961c9.4345 8.9094 15.981 6.8865 21.243 0l-7.6936-80.691c-2.113-22.161-15.984-34.416-47.939-36.426v-6.0184c13.657-4.3515 23.553-17.205 23.553-32.386 0-18.759-15.11-33.965-33.754-33.965v3e-4z"/>
   <path d="m401.24 623c-18.382 0-33.288 14.992-33.288 33.487 0 14.385 9.0173 26.649 21.673 31.39v6.6023c-30.178 2.3566-43.372 14.386-45.267 35.786l-7.0436 79.557c7.3484 11.773 14.697 5.6024 22.045 0l7.0436-70.949c0.31699-3.193 1.4339-6.1765 3.8774-8.6168l-5.6891 91.31c-0.19735 3.1674 1.2208 6.1246 3.3303 8.6193-0.36622 1.9668-0.45859 4.126-0.57349 6.3883l-5.0426 99.294c-0.53907 10.615 3.8669 19.191 8.6746 19.191h11.158c4.8077 0 8.5266-8.5612 8.6746-19.191l1.3669-98.097h17.487c0 4e-3 -6e-5 7e-3 0 0.0107l1.2216 99.473c0.13055 10.63 3.8669 19.191 8.6746 19.191h11.158c4.8077 0 9.1973-8.5752 8.6746-19.191l-4.8974-99.473c-0.14764-2.9983-0.35415-5.808-0.97598-8.2384 1.791-2.3535 2.9972-5.0775 2.8172-7.9771l-5.6891-91.668c-0.048-0.77307-0.0881-1.5321-0.25396-2.271 4.4351 2.7564 6.7456 6.7944 7.2214 11.245l7.5854 70.949c9.3018 8.7842 15.756 6.7897 20.944 0l-7.5854-79.556c-2.0832-21.849-15.759-33.932-47.265-35.914v-5.9338c13.465-4.2903 23.222-16.963 23.222-31.931 0-18.495-14.898-33.487-33.279-33.487z"/>
   <path d="m157.87 583.94c-18.382 0-33.288 14.992-33.288 33.487 0 14.385 9.0173 26.649 21.673 31.39v6.6022c-30.178 2.3566-43.372 14.386-45.267 35.786l-7.0436 79.557c7.3483 11.773 14.697 5.6024 22.045 0l7.0436-70.949c0.31698-3.1929 1.4339-6.1764 3.8773-8.6168l-5.689 91.31c-0.19735 3.1674 1.2208 6.1246 3.3303 8.6193-0.36624 1.9668-0.4586 4.126-0.57349 6.3883l-5.0426 99.294c-0.53906 10.615 3.8669 19.191 8.6746 19.191h11.158c4.8077 0 8.5265-8.5612 8.6747-19.191l1.3669-98.097h17.487c0 4e-3 -5e-5 7e-3 0 0.0107l1.2216 99.473c0.13054 10.63 3.8669 19.191 8.6746 19.191h11.158c4.8077 0 9.1973-8.5752 8.6746-19.191l-4.8974-99.473c-0.14763-2.9982-0.35415-5.808-0.97596-8.2383 1.791-2.3536 2.9971-5.0776 2.8172-7.9772l-5.6891-91.667c-0.0479-0.77313-0.0882-1.5321-0.25396-2.271 4.4351 2.7564 6.7456 6.7943 7.2214 11.245l7.5854 70.949c9.3018 8.7842 15.756 6.7897 20.945 0l-7.5854-79.557c-2.0832-21.849-15.759-33.932-47.265-35.914v-5.9338c13.465-4.2904 23.222-16.963 23.222-31.931 0-18.495-14.898-33.487-33.279-33.487h-1e-5z"/>
   <path d="m506.44 590.74c-18.382 0-33.288 14.992-33.288 33.487 0 14.385 9.0173 26.649 21.673 31.39v6.6022c-30.178 2.3566-43.372 14.386-45.267 35.786l-7.0436 79.557c7.3484 11.773 14.697 5.6023 22.045 0l7.0436-70.949c0.31698-3.1929 1.4339-6.1764 3.8774-8.6168l-5.689 91.31c-0.19736 3.1674 1.2208 6.1246 3.3303 8.6193-0.36621 1.9668-0.45859 4.126-0.57348 6.3883l-5.0426 99.294c-0.53903 10.615 3.867 19.191 8.6746 19.191h11.158c4.8077 0 8.5266-8.5612 8.6746-19.191l1.3669-98.097h17.487c0 4e-3 -6e-5 7e-3 0 0.0107l1.2217 99.473c0.13056 10.63 3.867 19.191 8.6746 19.191h11.158c4.8077 0 9.1973-8.5752 8.6747-19.191l-4.8974-99.473c-0.14764-2.9983-0.35419-5.808-0.97595-8.2384 1.791-2.3535 2.9971-5.0775 2.8172-7.9771l-5.6891-91.668c-0.0479-0.77313-0.0882-1.5321-0.25397-2.271 4.4351 2.7564 6.7456 6.7944 7.2214 11.245l7.5854 70.949c9.3018 8.7842 15.756 6.7897 20.945 0l-7.5854-79.556c-2.0833-21.849-15.759-33.932-47.265-35.914v-5.9338c13.465-4.2903 23.222-16.963 23.222-31.931 0-18.495-14.898-33.487-33.279-33.487h3e-5z"/>
  </g>
 </g>
</svg>
