<?xml version="1.0" encoding="UTF-8"?>
<svg width="300" height="300" viewBox="215 465 350 600" xmlns="http://www.w3.org/2000/svg" xmlns:xlink="http://www.w3.org/1999/xlink">
 <title>population</title>
 <metadata>
  <rdf:RDF xmlns:rdf="http://www.w3.org/1999/02/22-rdf-syntax-ns#"
           xmlns:rdfs="http://www.w3.org/2000/01/rdf-schema#"
           xmlns:dc="http://purl.org/dc/elements/1.1/">
    <rdf:Description rdf:about="https://img.clipartxtras.com/71db837d5c603de2ca206a62c3394edd_population-group-people-clip-art-at-clkercom-vector-clip-art-small-group-of-people-clipart_744-1052.svg">
      <dc:title>population</dc:title>
      <dc:creator>William Mitchelle</dc:creator>
      <dc:date>2010-12-26</dc:date>
	  <!--
      <dc:description></dc:description>
      <dc:rights></dc:rights>
	  -->
      <dc:format>image/svg+xml</dc:format> <!-- MIME-Type -->
      <dc:type>Image</dc:type>
    </rdf:Description>
  </rdf:RDF>
 </metadata>
 <defs>
  <linearGradient id="linearGradient3877">
   <stop stop-color="#19aeff" id="stop3879" offset="0"/>
   <stop stop-color="#005c94" id="stop3881" offset="1"/>
  </linearGradient>
  <linearGradient id="linearGradient3865">
   <stop stop-color="#dc0000" id="stop3867" offset="0"/>
   <stop stop-color="#ff4141" id="stop3869" offset="1"/>
  </linearGradient>
  <linearGradient id="linearGradient3855">
   <stop stop-color="#cccccc" id="stop3857" offset="0"/>
   <stop stop-color="#999999" id="stop3859" offset="1"/>
  </linearGradient>
  <linearGradient id="linearGradient3847">
   <stop stop-color="#005c94" id="stop3849" offset="0"/>
   <stop stop-color="#0084c8" id="stop3851" offset="1"/>
  </linearGradient>
  <linearGradient id="linearGradient3839">
   <stop stop-color="#0084c8" id="stop3841" offset="0"/>
   <stop stop-color="#0084c8" id="stop3843" offset="1"/>
  </linearGradient>
  <linearGradient id="linearGradient3831">
   <stop stop-color="#b50000" id="stop3833" offset="0"/>
   <stop stop-color="#ff6600" id="stop3835" offset="1"/>
  </linearGradient>
  <linearGradient id="linearGradient3819">
   <stop stop-color="#ff6600" id="stop3821" offset="0"/>
   <stop stop-color="#ff6600" stop-opacity="0" id="stop3823" offset="1"/>
  </linearGradient>
  <filter id="filter3812">
   <feGaussianBlur id="feGaussianBlur3814" stdDeviation="12.372394"/>
  </filter>
  <linearGradient gradientTransform="translate(-22.857143,-5.7142857)" gradientUnits="userSpaceOnUse" y2="646.64789" x2="-382.85715" y1="646.64789" x1="-245.71428" id="linearGradient3825" xlink:href="#linearGradient3819"/>
  <linearGradient gradientUnits="userSpaceOnUse" y2="452.36218" x2="-377.14285" y1="463.79074" x1="-222.85715" id="linearGradient3837" xlink:href="#linearGradient3831"/>
  <linearGradient gradientUnits="userSpaceOnUse" y2="189.50504" x2="142.85715" y1="166.6479" x1="-34.285713" id="linearGradient3845" xlink:href="#linearGradient3839"/>
  <linearGradient gradientUnits="userSpaceOnUse" y2="69.505043" x2="337.14285" y1="80.933609" x1="491.42856" id="linearGradient3853" xlink:href="#linearGradient3847"/>
  <linearGradient gradientUnits="userSpaceOnUse" y2="35.219326" x2="931.42859" y1="75.219322" x1="777.14288" id="linearGradient3861" xlink:href="#linearGradient3855"/>
  <linearGradient gradientTransform="translate(-5.7142857,17.142857)" gradientUnits="userSpaceOnUse" y2="789.50507" x2="222.85715" y1="783.79077" x1="22.857143" id="linearGradient3871" xlink:href="#linearGradient3865"/>
  <linearGradient gradientUnits="userSpaceOnUse" y2="772.36218" x2="1434.2858" y1="869.50507" x1="-765.71429" id="linearGradient3883" xlink:href="#linearGradient3877"/>
 </defs>
 <g>
  <title>Layer 1</title>
  <g id="layer1">
   <path fill="darkslategrey" stroke="#16150e" stroke-width="0" stroke-linecap="round" stroke-miterlimit="4" stroke-dashoffset="0" id="path3779" d="m182.642868,519.492737c-16.874374,0 -30.558105,13.762756 -30.558105,30.741333c0,13.20575 8.277802,24.463684 19.89534,28.816406l0,6.060852c-27.703659,2.16333 -39.815628,13.206421 -41.554947,32.851318l-6.465958,73.032776c6.745697,10.807922 13.491547,5.143005 20.237228,0l6.46611,-65.131042c0.290955,-2.93103 1.316269,-5.669922 3.559341,-7.910095l-5.222534,83.822876c-0.181168,2.907654 1.120743,5.622314 3.057236,7.912476c-0.336197,1.805542 -0.420975,3.787598 -0.526382,5.864441l-4.629181,91.151306c-0.494812,9.745239 3.54982,17.617065 7.963303,17.617065l10.243088,0c4.413498,0 7.827332,-7.858459 7.963318,-17.617065l1.254883,-90.052368l16.052826,0c0,0.003967 -0.000061,0.006958 0,0.01001l1.121414,91.316345c0.119797,9.757874 3.54982,17.617065 7.963287,17.617065l10.243103,0c4.413498,0 8.4431,-7.872498 7.963303,-17.617065l-4.495728,-91.316284c-0.135574,-2.75238 -0.32518,-5.331665 -0.89595,-7.562805c1.644104,-2.160522 2.751312,-4.661133 2.586151,-7.323059l-5.222534,-84.150635c-0.044098,-0.709656 -0.080994,-1.406433 -0.233109,-2.084717c4.071335,2.530396 6.192398,6.237244 6.629211,10.322815l6.963379,65.131042c8.539032,8.063843 14.464432,6.23291 19.227036,0l-6.963394,-73.032532c-1.912445,-20.057739 -14.466873,-31.149292 -43.389038,-32.969055l0,-5.447205c12.360703,-3.938416 21.317551,-15.572083 21.317551,-29.312317c0,-16.978577 -13.67601,-30.741333 -30.550247,-30.741333l0,-0.000549z"/>
   <path fill="darkslategrey" stroke="#16150e" stroke-width="0" stroke-linecap="round" stroke-miterlimit="4" stroke-dashoffset="0" filter="url(#filter3812)" id="path3791" d="m309.12616,786.155396c-4.876251,0 -8.668823,3.552429 -8.801239,7.956726l-1.236481,41.212646l-17.739868,0l-1.382446,-40.646118c-0.150208,-4.404236 -3.924957,-7.948303 -8.801239,-7.948303l-11.317108,0c-4.876266,0 -9.339417,3.550171 -8.792664,7.948303l5.109009,41.144958c0.116547,0.937439 0.212433,1.831726 0.583893,2.646606c-2.139587,1.033691 -3.574677,2.264343 -3.374527,3.576721l5.770187,37.830444c-2.478241,-1.011169 -3.611145,-2.245239 -3.932663,-3.568298l-7.144028,-29.400146c-7.453156,-2.321289 -14.906311,-4.878235 -22.359467,0l0.695511,3.196228c-1.672028,0.590698 -3.099319,1.645813 -3.966995,2.984863c-2.627396,-1.346069 -5.579437,-2.187073 -9.058838,-2.215454l1.545578,-12.810181c0.479797,-3.980835 -3.554871,-7.19574 -7.968353,-7.19574l-10.235199,0c-1.647903,0 -3.160919,0.449158 -4.413498,1.21759l3.726578,-30.871399c0.522629,-4.336609 -3.873352,-7.846863 -8.681046,-7.846863l-11.153961,0c-4.807724,0 -8.541901,3.504456 -8.672455,7.846863l-0.944519,31.285706c-1.213379,-0.70105 -2.656815,-1.107666 -4.224594,-1.107666l-10.235214,0c-1.277756,0 -2.525986,0.272949 -3.640701,0.752563l-1.030396,-30.364075c-0.148117,-4.342346 -3.873322,-7.846802 -8.68103,-7.846802l-11.153976,0c-4.807701,0 -9.211494,3.510437 -8.672447,7.846802l5.040329,40.561523c0.114876,0.924133 0.209061,1.800903 0.575294,2.60437c-2.109474,1.019104 -3.528938,2.231995 -3.331589,3.52594l5.358025,35.166931c-0.750427,0.148193 -1.499252,0.355408 -2.24968,0.634155c-0.721863,-0.633545 -1.125252,-1.315918 -1.296577,-2.020935l-7.041,-28.985779c-7.348335,-2.288696 -14.702003,-4.809631 -22.050339,0l7.041,32.503357c1.339035,6.178467 8.335304,10.440186 22.969101,12.751038l2.730537,12.6073c-1.352531,1.488892 -2.103714,3.094604 -2.103714,4.777405c0,7.555664 14.908531,13.681213 33.290184,13.681213c3.246857,0 6.384232,-0.193298 9.350784,-0.549683c0.6633,0.026245 1.327118,0.054382 2.009262,0.076172l0,2.477478c-11.617538,1.778137 -19.895111,6.375366 -19.895111,11.770203c0,6.936096 13.685257,12.55658 30.559647,12.55658c16.874222,0 30.551056,-5.620483 30.551056,-12.55658c0,-5.613098 -8.959793,-10.364197 -21.32048,-11.973145l0,-2.223816c5.705872,-0.146667 10.765427,-0.447266 15.24118,-0.887817l0.961685,4.456116c1.715683,7.916138 13.656677,12.36969 40.983765,13.241455l0,2.443665c-11.459579,1.753967 -19.620346,6.288086 -19.620346,11.609558c0,6.841797 13.493942,12.387451 30.138916,12.387451c16.644928,0 30.138885,-5.545654 30.138885,-12.387451c0,-5.536865 -8.835785,-10.225464 -21.028534,-11.8125l0,-2.198486c28.529083,-0.733276 40.909027,-5.201172 42.795532,-13.283691l2.198151,-9.411133l1.287994,5.944275c1.607605,7.417542 12.802246,11.587524 38.407776,12.404419l0,2.291443c-10.73764,1.643494 -18.383881,5.896179 -18.383881,10.882385c0,6.410828 12.644806,11.601074 28.241272,11.601074c15.596283,0.000061 28.241272,-5.190247 28.241272,-11.601074c0,-5.188049 -8.281647,-9.58136 -19.706207,-11.068359l0,-2.063232c5.777954,-0.148499 10.849121,-0.455627 15.266937,-0.930115c5.770813,4.250244 16.821564,7.119629 29.50351,7.119629l0,0.008362c12.494171,0.000061 23.39267,-2.795166 29.228729,-6.942078c5.429352,0.778992 11.898132,1.286865 19.534454,1.530457l0,2.545227c-11.910736,1.822998 -20.393127,6.535156 -20.393127,12.066101c0,7.111267 14.032104,12.87793 31.332458,12.87793c17.300232,0 31.315247,-5.766663 31.315247,-12.87793c0,-5.754761 -9.180084,-10.627991 -21.852844,-12.277527l0,-2.282959c29.652252,-0.762268 42.526215,-5.407288 44.487091,-13.808105l0.309082,-1.319031c10.821533,-2.257874 18.237915,-6.879578 18.237915,-12.2099c0,-4.394836 -5.036438,-8.303467 -12.871277,-10.806274l1.219299,-5.200256c23.344543,-1.647278 33.886536,-6.383301 35.694397,-14.129272l7.590576,-32.503357c-5.188049,-2.773743 -11.640869,-3.588501 -20.942688,0l-7.590515,28.98584c-0.47583,1.818054 -2.786255,3.465393 -7.221375,4.59137c0.165771,-0.301819 0.209656,-0.605835 0.257629,-0.921692l5.684326,-37.449829c0.179932,-1.18457 -1.025452,-2.302368 -2.816406,-3.263916c0.621765,-0.992798 0.831238,-2.140503 0.978882,-3.365295l4.894348,-40.629211c0.522644,-4.336548 -3.864746,-7.846802 -8.672485,-7.846802l-11.153931,0c-4.807739,0 -8.550476,3.504456 -8.68103,7.846802l-1.219299,40.629211c-0.000061,0.002258 0,0.005188 0,0.008362l-17.4823,0l-1.37384,-40.071106c-0.148102,-4.342346 -3.864746,-7.846802 -8.672455,-7.846802l-11.153961,0c-4.807709,0 -9.220093,3.510498 -8.68103,7.846802l5.048889,40.561523c0.114899,0.924194 0.2005,1.800842 0.566711,2.604309c-2.109467,1.019165 -3.520325,2.232117 -3.322998,3.526001l3.451813,22.669495c-1.480621,-0.781982 -3.062927,-1.414246 -4.782745,-1.826416l-3.906891,-16.048523c-2.376526,-0.740234 -4.750305,-1.49646 -7.126862,-2.029358l-0.025726,-0.854065c-0.139435,-4.086914 -3.640961,-7.373291 -8.165863,-7.373291l-5.993439,0l2.970947,-24.622681c0.53009,-4.398499 -3.924957,-7.948303 -8.801239,-7.948303l-11.317108,0c-4.876282,0 -8.660248,3.543945 -8.792664,7.948303l-1.245056,41.221069l-17.731293,0l-1.391022,-40.646118c-0.150208,-4.404175 -3.916382,-7.948242 -8.792664,-7.948242l-11.317108,0c-4.876251,0 -9.347992,3.550171 -8.801239,7.948242l4.044281,32.596375l-2.309784,0c-4.079285,0 -7.248016,2.970154 -7.358704,6.654602l-0.360657,12.049194c-5.43512,-1.638489 -10.870789,-2.854187 -16.305908,-0.676453l-0.094452,-2.883301l4.456421,-19.101257c-5.261993,-2.813293 -11.808716,-3.639648 -21.243195,0l-1.176361,4.481506c-3.726624,0.381409 -6.924896,3.194214 -6.500031,6.612244l1.536987,12.370605l-1.554169,5.935791c-0.482605,1.844055 -2.826019,3.516968 -7.324341,4.659058c0.168121,-0.306152 0.208923,-0.626709 0.257599,-0.947083l5.770172,-37.974121c0.182526,-1.201416 -1.042816,-2.330933 -2.859344,-3.306091c0.630707,-1.007019 0.837738,-2.173767 0.987457,-3.416077l4.971649,-41.212646c0.53009,-4.398438 -3.924988,-7.956726 -8.80127,-7.956726l-11.317108,0zm-87.411392,71.661255l3.305832,26.550598c-1.495529,0.352722 -3.076797,0.836731 -4.765549,1.48822l-4.327637,16.530701c-2.254684,-0.671631 -4.511536,-1.244507 -6.766235,-1.46283l1.287994,-8.497864c2.620819,-1.892395 4.154709,-4.110962 4.748367,-6.654541l6.517227,-27.954285zm257.863632,12.920227l1.957733,12.886292l-0.034332,1.344482c-2.260193,-0.975769 -3.309631,-2.151245 -3.61496,-3.407654l-0.429321,-1.758728l2.12088,-9.064392zm-126.926849,16.809692l0.970276,4.456116l-0.815704,0l-0.154572,-4.456116zm-104.077957,3.728943c2.536255,0.653137 5.397095,1.215027 8.61235,1.691162l-8.552246,0l-0.060104,-1.691162zm83.057999,0.295959l0.103058,0.84552c0.097351,0.784241 0.178589,1.533752 0.48941,2.215393c-1.789917,0.864746 -2.992432,1.886963 -2.824982,2.984802l4.825653,31.657837c-2.07312,-0.845886 -3.019775,-1.886536 -3.288635,-2.993286l-5.976288,-24.588867c-4.472839,-1.393127 -8.947906,-2.887207 -13.420807,-2.113953c-3.181854,-1.040588 -6.826569,-1.851257 -10.793335,-2.367554l0,-2.460571c13.265289,-0.341003 23.400879,-1.405945 30.885925,-3.179321zm-186.663696,8.768494c0.430878,0.015564 0.849976,0.036682 1.287994,0.050659l0,2.697388c-0.201965,0.030884 -0.400986,0.060547 -0.601074,0.093018l-0.68692,-2.841064zm297.628113,16.843567l1.648621,10.856995c-0.968048,-0.830078 -2.126892,-1.613647 -3.460419,-2.342224c-0.029205,-0.086975 -0.055939,-0.174316 -0.077271,-0.262085l-1.914795,-7.880676c1.309387,-0.11322 2.580109,-0.237671 3.803864,-0.372009zm-55.323364,0.202942c1.989136,0.193665 4.082306,0.357117 6.28537,0.49884l-1.442535,5.513062c-2.35672,0.812317 -4.43866,1.75354 -6.182343,2.798767l1.339508,-8.810669zm-160.045288,5.039551l1.571335,10.315796c-2.212555,-0.902649 -3.216293,-2.006653 -3.503326,-3.187744l-1.322327,-5.453918c1.215897,-0.518616 2.304428,-1.078308 3.254318,-1.674133zm57.573029,1.691101c1.866791,0.13147 3.786438,0.202942 5.744415,0.202942c0.204803,0 0.405731,-0.007019 0.60965,-0.008362l-1.37384,5.242493c-0.430969,1.646301 -2.527008,3.140442 -6.542999,4.160156c0.150055,-0.273376 0.188385,-0.559631 0.231842,-0.845581l1.330933,-8.751526l0,-0.000122zm216.493469,3.94873c1.07431,0.161377 2.174438,0.298462 3.297272,0.414368c-0.982513,0.47699 -2.197632,0.906006 -3.657898,1.276733c0.155975,-0.283997 0.195251,-0.573669 0.240417,-0.870911l0.120209,-0.82019z"/>
   <path fill="darkslategrey" stroke="#16150e" stroke-width="0" stroke-linecap="round" stroke-miterlimit="4" stroke-dashoffset="0" id="path3789" d="m473.495758,485.059418c-17.300323,0 -31.329498,14.110138 -31.329498,31.517426c0,13.539063 8.486816,25.081238 20.397583,29.543762l0,6.213806c-28.403015,2.218018 -40.82077,13.539856 -42.603973,33.680664l-6.629181,74.876526c6.916016,11.080688 13.832123,5.272827 20.748108,0l6.629333,-66.775269c0.298309,-3.005066 1.349518,-5.813049 3.6492,-8.109802l-5.35437,85.938965c-0.18573,2.981018 1.149017,5.76416 3.13446,8.112183c-0.344727,1.851013 -0.431671,3.88324 -0.539734,6.012451l-4.746033,93.452637c-0.507324,9.990601 3.639435,18.061584 8.164337,18.061584l10.501678,0c4.524902,0 8.024933,-8.057129 8.164337,-18.061584l1.28653,-92.325989l16.458069,0c0,0.005005 -0.000061,0.007019 0,0.01001l1.14975,93.621155c0.122833,10.004395 3.639435,18.062073 8.164337,18.062073l10.501678,0c4.524872,0 8.656219,-8.071106 8.164307,-18.062073l-4.609222,-93.620911c-0.138977,-2.821899 -0.333344,-5.46637 -0.918549,-7.753784c1.685577,-2.215027 2.82077,-4.778809 2.651428,-7.507874l-5.35437,-86.274902c-0.045227,-0.727539 -0.083008,-1.441895 -0.239014,-2.137329c4.174164,2.594238 6.348755,6.394653 6.79657,10.583313l7.13916,66.775269c8.754578,8.267456 14.829163,6.39032 19.712524,0l-7.139282,-74.876465c-1.960815,-20.564026 -14.832092,-31.935486 -44.484375,-33.801208l0,-5.584717c12.672729,-4.037903 21.855713,-15.96521 21.855713,-30.052246c0,-17.407288 -14.02124,-31.517426 -31.321503,-31.517426l0,-0.000244z"/>
   <path fill="darkslategrey" stroke="#16150e" stroke-width="0" stroke-linecap="round" stroke-miterlimit="4" stroke-dashoffset="0" d="m360.492828,493.720825c-15.596466,0 -28.243835,12.720459 -28.243835,28.413269c0,12.205566 7.650879,22.610962 18.38855,26.633972l0,5.601868c-25.60556,1.999512 -36.800232,12.206299 -38.407867,30.363403l-5.976227,67.50177c6.234772,9.989441 12.469788,4.753601 18.70459,0l5.97641,-60.198486c0.26889,-2.709167 1.216583,-5.240479 3.289734,-7.310974l-4.826996,77.474731c-0.16745,2.687439 1.035889,5.196472 2.825806,7.313232c-0.310852,1.668701 -0.389191,3.500732 -0.486542,5.420227l-4.278656,84.248474c-0.457336,9.006348 3.280914,16.282837 7.360168,16.282837l9.467377,0c4.079254,0 7.234528,-7.263977 7.360199,-16.282837l1.159912,-83.232788l14.837128,0c0,0.003967 -0.000061,0.006958 0,0.007996l1.036407,84.400452c0.110718,9.01886 3.280975,16.282776 7.360229,16.282776l9.467377,0c4.079224,0 7.80365,-7.27594 7.360199,-16.282776l-4.155182,-84.39978c-0.125427,-2.544006 -0.300659,-4.927979 -0.828094,-6.990112c1.519531,-1.996826 2.542877,-4.308044 2.390259,-6.768372l-4.827057,-77.777649c-0.040771,-0.655884 -0.074799,-1.299927 -0.215424,-1.92688c3.762939,2.338806 5.723297,5.764893 6.127197,9.540894l6.436005,60.198486c7.892365,7.453308 13.368896,5.761047 17.770782,0l-6.435913,-67.501709c-1.767639,-18.538757 -13.371246,-28.790039 -40.103027,-30.472046l0,-5.034668c11.424561,-3.640198 19.703094,-14.392761 19.703094,-27.092407c0,-15.69278 -12.64032,-28.413239 -28.236603,-28.413239l0,0.000336z" id="path3785"/>
   <path fill="darkslategrey" stroke="#16150e" stroke-width="0" stroke-linecap="round" stroke-miterlimit="4" stroke-dashoffset="0" id="path3783" d="m256.837006,479.115326c-16.644958,0 -30.142731,13.575653 -30.142731,30.323517c0,13.026184 8.16539,24.131165 19.624954,28.424622l0,5.978455c-27.327072,2.133972 -39.274429,13.026917 -40.990082,32.404785l-6.378052,72.040039c6.653992,10.661072 13.308136,5.07312 19.962128,0l6.378174,-64.245667c0.287048,-2.891296 1.298477,-5.592834 3.511017,-7.802551l-5.15155,82.683472c-0.178696,2.868103 1.105499,5.545776 3.015686,7.804871c-0.331635,1.780884 -0.415283,3.736145 -0.519302,5.784668l-4.566208,89.912598c-0.488083,9.611877 3.501602,17.377563 7.855087,17.377563l10.103867,0c4.35347,0 7.720947,-7.752319 7.855072,-17.377563l1.237732,-88.828613l15.83461,0c0,0.003967 -0.000031,0.006958 0,0.01001l1.106232,90.074707c0.118225,9.625244 3.501587,17.377502 7.855072,17.377502l10.103851,0c4.353485,0 8.328308,-7.765076 7.855042,-17.377502l-4.43457,-90.074158c-0.13382,-2.715088 -0.320801,-5.259338 -0.883789,-7.460083c1.621735,-2.131165 2.713898,-4.597717 2.550995,-7.223511l-5.151581,-83.006714c-0.043396,-0.700012 -0.079895,-1.387329 -0.229919,-2.056396c4.015991,2.495972 6.108124,6.152405 6.539124,10.182373l6.868744,64.245728c8.422943,7.954346 14.2677,6.148254 18.965546,0l-6.868591,-72.040039c-1.886536,-19.785095 -14.270294,-30.725708 -42.799347,-32.520752l0,-5.373169c12.192719,-3.884888 21.027832,-15.360413 21.027832,-28.913849c0,-16.747833 -13.490112,-30.323486 -30.13504,-30.323486l0,-0.000854z"/>
   <path fill="darkslategrey" stroke="#16150e" stroke-width="0" stroke-linecap="round" stroke-miterlimit="4" stroke-dashoffset="0" id="path2985" d="m290.541107,596.850891c-18.643768,0 -33.762451,15.205872 -33.762451,33.964966c0,14.590454 9.145966,27.028992 21.981659,31.838013l0,6.696411c-30.608688,2.390198 -43.990768,14.591187 -45.912445,36.296143l-7.144043,80.691101c7.453156,11.941162 14.906311,5.682251 22.359467,0l7.144028,-71.960693c0.321518,-3.238586 1.454422,-6.264587 3.932663,-8.739685l-5.770187,92.61261c-0.20015,3.212585 1.238251,6.211914 3.377823,8.742188c-0.37146,1.994812 -0.465149,4.184875 -0.581665,6.47937l-5.114532,100.7099c-0.546738,10.765991 3.922104,19.464355 8.79837,19.464355l11.3172,0c4.876251,0 8.648132,-8.683411 8.79834,-19.464355l1.386353,-99.495728l17.736145,0c0,0.005005 -0.000031,0.007019 0,0.010681l1.239105,100.891296c0.132385,10.78125 3.922058,19.464294 8.79834,19.464294l11.3172,0c4.876251,0 9.32843,-8.697388 8.79837,-19.464294l-4.967285,-100.891235c-0.149719,-3.041077 -0.359161,-5.890869 -0.989868,-8.355896c1.816498,-2.387085 3.039886,-5.149902 2.857391,-8.090942l-5.770203,-92.974792c-0.048676,-0.784119 -0.089478,-1.553955 -0.257599,-2.303345c4.498352,2.795654 6.841736,6.891235 7.324371,11.405212l7.693573,71.960754c9.434479,8.909363 15.981171,6.886475 21.243195,0l-7.693573,-80.691101c-2.112976,-22.161133 -15.983917,-34.415527 -47.938873,-36.426147l0,-6.018433c13.656891,-4.351501 23.552979,-17.205017 23.552979,-32.386047c0,-18.759033 -15.110077,-33.964905 -33.753845,-33.964905l0,0.000305z"/>
   <path fill="darkslategrey" stroke="#16150e" stroke-width="0" stroke-linecap="round" stroke-miterlimit="4" stroke-dashoffset="0" d="m401.241425,623.004883c-18.381622,0 -33.28772,14.992065 -33.28772,33.487366c0,14.385315 9.017334,26.648987 21.672577,31.390381l0,6.602295c-30.178345,2.356567 -43.372253,14.385986 -45.266907,35.785767l-7.043579,79.556519c7.348358,11.773315 14.696716,5.602356 22.045044,0l7.04361,-70.948853c0.316986,-3.192993 1.433929,-6.176514 3.87735,-8.616821l-5.689056,91.310425c-0.197357,3.167419 1.220825,6.124573 3.330322,8.619263c-0.366211,1.966797 -0.458588,4.126038 -0.573486,6.388306l-5.042603,99.293823c-0.539063,10.614746 3.866913,19.190674 8.674622,19.190674l11.158081,0c4.807709,0 8.52655,-8.561157 8.674652,-19.190674l1.366882,-98.096741l17.486755,0c0,0.004028 -0.000061,0.007019 0,0.010681l1.221649,99.472839c0.130554,10.629517 3.866943,19.190613 8.674652,19.190613l11.158081,0c4.807678,0 9.197266,-8.575195 8.674652,-19.190613l-4.8974,-99.472778c-0.147644,-2.998291 -0.354156,-5.807983 -0.975983,-8.238403c1.790955,-2.353516 2.997162,-5.077515 2.8172,-7.977112l-5.689056,-91.667542c-0.048004,-0.773071 -0.088104,-1.532104 -0.253967,-2.270996c4.435089,2.756409 6.745575,6.794373 7.221375,11.244873l7.585419,70.948914c9.301788,8.78418 15.75647,6.789734 20.944489,0l-7.585419,-79.556458c-2.083252,-21.849426 -15.759125,-33.93158 -47.264801,-35.91394l0,-5.933777c13.464874,-4.290283 23.221832,-16.963074 23.221832,-31.930664c0,-18.4953 -14.897644,-33.487366 -33.279266,-33.487366z" id="path3781"/>
   <path fill="darkslategrey" stroke="#16150e" stroke-width="0" stroke-linecap="round" stroke-miterlimit="4" stroke-dashoffset="0" d="m157.873184,583.943726c-18.381638,0 -33.287727,14.992065 -33.287727,33.487366c0,14.385315 9.017326,26.648926 21.672569,31.390381l0,6.602234c-30.178314,2.356628 -43.372238,14.386047 -45.266884,35.785828l-7.043571,79.556519c7.348328,11.773254 14.696701,5.602356 22.045036,0l7.04361,-70.948914c0.316986,-3.192932 1.433945,-6.176453 3.877342,-8.61676l-5.689041,91.310425c-0.19735,3.167419 1.22084,6.124573 3.330322,8.619263c-0.366241,1.966797 -0.458603,4.126038 -0.573486,6.388306l-5.04261,99.293762c-0.539063,10.614746 3.866928,19.190613 8.674637,19.190613l11.158073,0c4.807693,0 8.52652,-8.561157 8.674652,-19.190613l1.366867,-98.09668l17.486755,0c0,0.003967 -0.000046,0.006958 0,0.010681l1.221649,99.472778c0.130539,10.629578 3.866943,19.190674 8.674652,19.190674l11.158096,0c4.807678,0 9.197281,-8.575195 8.674637,-19.190674l-4.8974,-99.472717c-0.147629,-2.99823 -0.354156,-5.808044 -0.975967,-8.238342c1.79097,-2.353577 2.997147,-5.077576 2.8172,-7.977234l-5.689072,-91.66748c-0.047897,-0.773132 -0.088196,-1.532104 -0.253967,-2.270996c4.435104,2.756409 6.74556,6.794312 7.22139,11.244873l7.585388,70.948914c9.301819,8.78418 15.756485,6.789734 20.944504,0l-7.585403,-79.556519c-2.083237,-21.849426 -15.759155,-33.93158 -47.264816,-35.913879l0,-5.933777c13.46489,-4.290344 23.221817,-16.963135 23.221817,-31.930664c0,-18.4953 -14.897614,-33.487366 -33.279236,-33.487366l-0.000015,0z" id="path3787"/>
   <path fill="darkslategrey" stroke="#16150e" stroke-width="0" stroke-linecap="round" stroke-miterlimit="4" stroke-dashoffset="0" id="path3873" d="m506.439301,590.736938c-18.381622,0 -33.28772,14.992065 -33.28772,33.487366c0,14.385376 9.017334,26.648987 21.672577,31.390442l0,6.602234c-30.178314,2.356567 -43.372253,14.385986 -45.266907,35.785767l-7.043579,79.55658c7.348358,11.773254 14.696716,5.602295 22.045044,0l7.04361,-70.948975c0.316986,-3.192932 1.433929,-6.176453 3.87735,-8.61676l-5.689026,91.310425c-0.197357,3.167419 1.220825,6.124573 3.330292,8.619263c-0.366211,1.966797 -0.458588,4.126038 -0.573486,6.388306l-5.042603,99.293823c-0.539032,10.614746 3.866943,19.190613 8.674652,19.190613l11.158051,0c4.807739,0 8.52655,-8.561157 8.674652,-19.190613l1.366882,-98.096741l17.486755,0c0,0.004028 -0.000061,0.007019 0,0.010681l1.22168,99.472839c0.130554,10.629517 3.866943,19.190613 8.674622,19.190613l11.158081,0c4.807678,0 9.197327,-8.575195 8.674683,-19.190613l-4.8974,-99.472778c-0.147644,-2.998291 -0.354187,-5.808044 -0.975952,-8.238403c1.790955,-2.353516 2.997131,-5.077515 2.8172,-7.977112l-5.689087,-91.667542c-0.047913,-0.773132 -0.088196,-1.532104 -0.253967,-2.270996c4.435059,2.756409 6.745544,6.794373 7.221375,11.244873l7.585388,70.948914c9.301819,8.78418 15.75647,6.789734 20.944519,0l-7.585388,-79.556458c-2.083313,-21.849426 -15.759216,-33.93158 -47.264893,-35.91394l0,-5.933777c13.464905,-4.290283 23.221863,-16.963135 23.221863,-31.930664c0,-18.4953 -14.897644,-33.487366 -33.279297,-33.487366l0.000031,0z"/>
  </g>
 </g>
</svg>