<?xml version="1.0" encoding="UTF-8" standalone="no"?>
<!DOCTYPE svg PUBLIC "-//W3C//DTD SVG 1.0//EN" "http://www.w3.org/TR/2001/REC-SVG-20010904/DTD/svg10.dtd">
<!-- Generated by Microsoft Visio 11.0, SVG Export, v1.0 PDM.svg Page-1 -->
<svg xmlns="http://www.w3.org/2000/svg" xmlns:xlink="http://www.w3.org/1999/xlink" xmlns:ev="http://www.w3.org/2001/xml-events"
		xmlns:v="http://schemas.microsoft.com/visio/2003/SVGExtensions/" width="5.02394in" height="1.6263in"
		viewBox="0 0 361.723 117.094" xml:space="preserve" color-interpolation-filters="sRGB" class="st13">
	<v:documentProperties v:langID="1033" v:viewMarkup="false"/>

	<style type="text/css">
	<![CDATA[
		.st1 {fill:none;stroke:#000000;stroke-linecap:round;stroke-linejoin:round;stroke-width:0.72}
		.st2 {fill:#000000;font-family:Calibri;font-size:0.666664em}
		.st3 {fill:#ffffff}
		.st4 {stroke:#000000;stroke-linecap:round;stroke-linejoin:round;stroke-width:0.72}
		.st5 {fill:none;stroke:none;stroke-linecap:round;stroke-linejoin:round;stroke-width:0.75}
		.st6 {fill:#ffffff;stroke:#000000;stroke-linecap:round;stroke-linejoin:round;stroke-width:0.75}
		.st7 {font-size:1em}
		.st8 {marker-end:url(#mrkr26-40);stroke:#000000;stroke-linecap:round;stroke-linejoin:round;stroke-width:0.5}
		.st9 {fill:#000000;fill-opacity:1;stroke:#000000;stroke-opacity:1;stroke-width:0.13368983957219}
		.st10 {fill:#ffffff;stroke:#000000;stroke-linecap:round;stroke-linejoin:round;stroke-width:0.72}
		.st11 {marker-end:url(#mrkr11-77);stroke:#000000;stroke-linecap:round;stroke-linejoin:round;stroke-width:0.5}
		.st12 {fill:#000000;fill-opacity:1;stroke:#000000;stroke-opacity:1;stroke-width:0.21739130434783}
		.st13 {fill:none;fill-rule:evenodd;font-size:12px;overflow:visible;stroke-linecap:square;stroke-miterlimit:3}
	]]>
	</style>

	<defs id="Markers">
		<g id="lend26">
			<path d="M 1.5 -0.75 L 1.5 0.75 M 2.25 -0.75 L 2.25 0.75 M 3 -0.75 L 3 0.75 "
					style="stroke-linecap:round;stroke-linejoin:round;fill:none"/>
		</g>
		<marker id="mrkr26-40" class="st9" v:arrowType="26" v:arrowSize="3" orient="auto" markerUnits="strokeWidth"
				overflow="visible">
			<use xlink:href="#lend26" transform="scale(-7.48,-7.48) "/>
		</marker>
		<g id="lend11">
			<path d="M 0.75 -0.75 L 0.75 0.75 L -0.75 0.75 L -0.75 -0.75 L 0.75 -0.75 " style="stroke:none"/>
		</g>
		<marker id="mrkr11-77" class="st12" v:arrowType="11" v:arrowSize="1" v:setback="3.45" refX="-3.45" orient="auto"
				markerUnits="strokeWidth" overflow="visible">
			<use xlink:href="#lend11" transform="scale(-4.6,-4.6) "/>
		</marker>
	</defs>
	<g v:mID="0" v:index="1" v:groupContext="foregroundPage">
		<title>Page-1</title>
		<v:pageProperties v:drawingScale="0.0393701" v:pageScale="0.0393701" v:drawingUnits="24" v:shadowOffsetX="8.50394"
				v:shadowOffsetY="-8.50394"/>
		<v:layer v:name="Swimlanes" v:index="0" v:snap="false" v:glue="false"/>
		<g id="shape3-1" v:mID="3" v:groupContext="shape" v:layerMember="0" transform="translate(136.022,-0.72)">
			<title>Swimlane.19</title>
			<desc>PizzaMaker</desc>
			<v:userDefs>
				<v:ud v:nameU="UMLShapeType" v:val="VT0(63):26"/>
				<v:ud v:nameU="UMLObjectGUID" v:val="VT4({F481E636-ED32-4112-9327-808CCAB3C443})"/>
				<v:ud v:nameU="UMLError" v:val="VT0(0):26"/>
				<v:ud v:nameU="UMLPresOption1" v:val="VT0(1):26"/>
				<v:ud v:nameU="UMLVersion" v:val="VT0(2):26"/>
				<v:ud v:nameU="visDescription" v:val="VT4(Represents a partition for organizing responsibility for activities.)"/>
				<v:ud v:nameU="visVersion" v:val="VT0(14):26"/>
			</v:userDefs>
			<v:textBlock v:margins="rect(4,4,4,4)" v:tabSpace="42.5197" v:verticalAlign="0"/>
			<v:textRect cx="56.6929" cy="59.2668" width="113.39" height="115.654"/>
			<rect x="0" y="1.44" width="113.386" height="115.654" class="st1"/>
			<text x="38.09" y="12.64" class="st2" v:langID="1031"><v:paragraph v:horizAlign="1"/><v:tabList/>PizzaMaker</text>		</g>
		<g id="shape4-4" v:mID="4" v:groupContext="shape" v:layerMember="0" transform="translate(0.72,-0.72)">
			<title>Swimlane</title>
			<desc>OrderTaker</desc>
			<v:userDefs>
				<v:ud v:nameU="UMLShapeType" v:val="VT0(63):26"/>
				<v:ud v:nameU="UMLObjectGUID" v:val="VT4({686CBD4A-3506-41F5-B9FE-E464B84A45E4})"/>
				<v:ud v:nameU="UMLError" v:val="VT0(0):26"/>
				<v:ud v:nameU="UMLPresOption1" v:val="VT0(1):26"/>
				<v:ud v:nameU="UMLVersion" v:val="VT0(2):26"/>
				<v:ud v:nameU="visDescription" v:val="VT4(Represents a partition for organizing responsibility for activities.)"/>
				<v:ud v:nameU="visVersion" v:val="VT0(14):26"/>
			</v:userDefs>
			<v:textBlock v:margins="rect(4,4,4,4)" v:tabSpace="42.5197" v:verticalAlign="0"/>
			<v:textRect cx="67.6511" cy="59.2668" width="135.31" height="115.654"/>
			<rect x="0" y="1.44" width="135.302" height="115.654" class="st1"/>
			<text x="49.05" y="12.64" class="st2" v:langID="1031"><v:paragraph v:horizAlign="1"/><v:tabList/>OrderTaker</text>		</g>
		<g id="shape2-7" v:mID="2" v:groupContext="shape" v:layerMember="0" transform="translate(249.318,-0.72)">
			<title>Swimlane.20</title>
			<desc>ScooterDriver</desc>
			<v:userDefs>
				<v:ud v:nameU="UMLShapeType" v:val="VT0(63):26"/>
				<v:ud v:nameU="UMLObjectGUID" v:val="VT4({17342636-C9B0-45F3-8162-B8EA2FC230AC})"/>
				<v:ud v:nameU="UMLError" v:val="VT0(0):26"/>
				<v:ud v:nameU="UMLPresOption1" v:val="VT0(1):26"/>
				<v:ud v:nameU="UMLVersion" v:val="VT0(2):26"/>
				<v:ud v:nameU="visDescription" v:val="VT4(Represents a partition for organizing responsibility for activities.)"/>
				<v:ud v:nameU="visVersion" v:val="VT0(14):26"/>
			</v:userDefs>
			<v:textBlock v:margins="rect(4,4,4,4)" v:tabSpace="42.5197" v:verticalAlign="0"/>
			<v:textRect cx="55.8425" cy="59.2668" width="111.69" height="115.654"/>
			<rect x="0" y="1.44" width="111.685" height="115.654" class="st1"/>
			<text x="33.41" y="12.64" class="st2" v:langID="1031"><v:paragraph v:horizAlign="1"/><v:tabList/>ScooterDriver</text>		</g>
		<g id="group5-10" transform="translate(64.2239,-43.8942)" v:mID="5" v:groupContext="group">
			<v:userDefs>
				<v:ud v:nameU="UMLShapeType" v:val="VT0(40):26"/>
				<v:ud v:nameU="UMLObjectGUID" v:val="VT4({2B6B081B-0417-4743-88B0-B5D95A222402})"/>
				<v:ud v:nameU="UMLError" v:val="VT0(0):26"/>
				<v:ud v:nameU="UMLPresOption1" v:val="VT0(1):26"/>
				<v:ud v:nameU="UMLSuppressOption" v:val="VT0(0):26"/>
				<v:ud v:nameU="UMLVersion" v:val="VT0(2):26"/>
				<v:ud v:nameU="UMLAutoLockTextEdit" v:val="VT0(1):26"/>
				<v:ud v:nameU="visDescription"
						v:val="VT4(Represents a condition during which an object satisfies some condition, performs an action or waits for an event.)"/>
				<v:ud v:nameU="visVersion" v:val="VT0(14):26"/>
			</v:userDefs>
			<title>State</title>
			<g id="shape6-11" v:mID="6" v:groupContext="shape">
				<title>Sheet.6</title>
				<path d="M9 117.09 L52.85 117.09 A9 9 -180 0 0 61.85 108.09 L61.85 72.24 A9 9 -180 0 0 52.85 63.24 L9 63.24 A9 9
							 -180 0 0 0 72.24 L0 108.09 A9 9 -180 0 0 9 117.09 Z" class="st3"/>
				<path d="M9 117.09 L52.85 117.09 A9 9 -180 0 0 61.85 108.09 L61.85 72.24 A9 9 -180 0 0 52.85 63.24 L9 63.24 A9 9
							 -180 0 0 0 72.24 L0 108.09 A9 9 -180 0 0 9 117.09" class="st4"/>
				<path d="M0 91.87 L61.85 91.87" class="st4"/>
			</g>
			<g id="shape7-15" v:mID="7" v:groupContext="shape">
				<title>Transitions</title>
				<desc>duration=U(1,4)</desc>
				<v:textBlock v:margins="rect(4,4,4,4)" v:tabSpace="42.5197" v:verticalAlign="0"/>
				<v:textRect cx="30.9257" cy="104.479" width="61.86" height="25.2283"/>
				<rect x="0" y="91.8652" width="61.8514" height="25.2283" class="st5"/>
				<text x="4" y="103.07" class="st2" v:langID="1031"><v:paragraph/><v:tabList/>duration=U(1,4)</text>			</g>
			<g id="shape8-18" v:mID="8" v:groupContext="shape" transform="translate(3.92572,-25.2283)">
				<title>Name</title>
				<desc>TakeOrder</desc>
				<v:textBlock v:margins="rect(4,4,4,4)" v:tabSpace="42.5197"/>
				<v:textRect cx="27" cy="104.494" width="54" height="25.2"/>
				<rect x="0" y="91.8935" width="54" height="25.2" class="st5"/>
				<text x="9.8" y="106.89" class="st2" v:langID="1031"><v:paragraph v:horizAlign="1"/><v:tabList/>TakeOrder</text>			</g>
		</g>
		<g id="shape9-21" v:mID="9" v:groupContext="shape" transform="translate(17.3984,-62.3194)">
			<title>Initial State</title>
			<v:userDefs>
				<v:ud v:nameU="UMLShapeType" v:val="VT0(42):26"/>
				<v:ud v:nameU="UMLObjectGUID" v:val="VT4({548F7A68-F2D3-4E95-8C4F-9F5B9D773DDE})"/>
				<v:ud v:nameU="UMLError" v:val="VT0(0):26"/>
				<v:ud v:nameU="UMLPresOptions" v:val="VT0(3):26"/>
				<v:ud v:nameU="UMLVersion" v:val="VT0(2):26"/>
				<v:ud v:nameU="visDescription" v:val="VT4(Represents the point at which a newly created object starts. )"/>
				<v:ud v:nameU="visVersion" v:val="VT0(14):26"/>
			</v:userDefs>
			<path d="M0 108.59 A8.50394 8.50394 0 1 1 17.01 108.59 A8.50394 8.50394 0 0 1 0 108.59 Z" class="st6"/>
		</g>
		<g id="group10-23" transform="translate(159.124,-43.8219)" v:mID="10" v:groupContext="group">
			<v:userDefs>
				<v:ud v:nameU="UMLShapeType" v:val="VT0(40):26"/>
				<v:ud v:nameU="UMLObjectGUID" v:val="VT4({308F1E8D-3997-47F8-A0DF-D0E2A3BF0021})"/>
				<v:ud v:nameU="UMLError" v:val="VT0(0):26"/>
				<v:ud v:nameU="UMLPresOption1" v:val="VT0(1):26"/>
				<v:ud v:nameU="UMLSuppressOption" v:val="VT0(0):26"/>
				<v:ud v:nameU="UMLVersion" v:val="VT0(2):26"/>
				<v:ud v:nameU="UMLAutoLockTextEdit" v:val="VT0(1):26"/>
				<v:ud v:nameU="visDescription"
						v:val="VT4(Represents a condition during which an object satisfies some condition, performs an action or waits for an event.)"/>
				<v:ud v:nameU="visVersion" v:val="VT0(14):26"/>
			</v:userDefs>
			<title>State.9</title>
			<g id="shape11-24" v:mID="11" v:groupContext="shape">
				<title>Sheet.11</title>
				<path d="M9 117.09 L62.29 117.09 A9 9 -180 0 0 71.29 108.09 L71.29 72.24 A9 9 -180 0 0 62.29 63.24 L9 63.24 A9 9
							 -180 0 0 0 72.24 L0 108.09 A9 9 -180 0 0 9 117.09 Z" class="st3"/>
				<path d="M9 117.09 L62.29 117.09 A9 9 -180 0 0 71.29 108.09 L71.29 72.24 A9 9 -180 0 0 62.29 63.24 L9 63.24 A9 9
							 -180 0 0 0 72.24 L0 108.09 A9 9 -180 0 0 9 117.09" class="st4"/>
				<path d="M0 91.87 L71.29 91.87" class="st4"/>
			</g>
			<g id="shape12-28" v:mID="12" v:groupContext="shape">
				<title>Transitions</title>
				<desc>duration=Tri(3,4,6)</desc>
				<v:textBlock v:margins="rect(4,4,4,4)" v:tabSpace="42.5197" v:verticalAlign="0"/>
				<v:textRect cx="35.6465" cy="104.479" width="71.3" height="25.2283"/>
				<rect x="0" y="91.8652" width="71.2931" height="25.2283" class="st5"/>
				<text x="4" y="103.07" class="st2" v:langID="1031"><v:paragraph/><v:tabList/>duration=Tri(3,4,6)</text>			</g>
			<g id="shape13-31" v:mID="13" v:groupContext="shape" transform="translate(8.64654,-25.2283)">
				<title>Name</title>
				<desc>[2] MakePizza</desc>
				<v:textBlock v:margins="rect(4,4,4,4)" v:tabSpace="42.5197"/>
				<v:textRect cx="27" cy="103.492" width="54" height="27.2035"/>
				<rect x="0" y="89.89" width="54" height="27.2035" class="st5"/>
				<text x="22.52" y="101.09" class="st2" v:langID="1031"><v:paragraph v:horizAlign="1"/><v:tabList/>[2]<v:newlineChar/><tspan
							x="9.8" dy="1.2em" class="st7">MakePizza</tspan></text>			</g>
		</g>
		<g id="shape14-35" v:mID="14" v:groupContext="shape" transform="translate(126.332,-70.8231) rotate(0.125396)">
			<title>Sheet.14</title>
			<path d="M0 117.09 L33.05 117.09" class="st8"/>
		</g>
		<g id="group15-41" transform="translate(270.649,-43.9281)" v:mID="15" v:groupContext="group">
			<v:userDefs>
				<v:ud v:nameU="UMLShapeType" v:val="VT0(40):26"/>
				<v:ud v:nameU="UMLObjectGUID" v:val="VT4({EC4F8FD2-CEE3-4168-853B-167E7DC196B0})"/>
				<v:ud v:nameU="UMLError" v:val="VT0(0):26"/>
				<v:ud v:nameU="UMLPresOption1" v:val="VT0(1):26"/>
				<v:ud v:nameU="UMLSuppressOption" v:val="VT0(0):26"/>
				<v:ud v:nameU="UMLVersion" v:val="VT0(2):26"/>
				<v:ud v:nameU="UMLAutoLockTextEdit" v:val="VT0(1):26"/>
				<v:ud v:nameU="visDescription"
						v:val="VT4(Represents a condition during which an object satisfies some condition, performs an action or waits for an event.)"/>
				<v:ud v:nameU="visVersion" v:val="VT0(14):26"/>
			</v:userDefs>
			<title>State.17</title>
			<g id="shape16-42" v:mID="16" v:groupContext="shape">
				<title>Sheet.16</title>
				<path d="M9 117.09 L74.46 117.09 A9 9 -180 0 0 83.46 108.09 L83.46 72.24 A9 9 -180 0 0 74.46 63.24 L9 63.24 A9 9
							 -180 0 0 0 72.24 L0 108.09 A9 9 -180 0 0 9 117.09 Z" class="st3"/>
				<path d="M9 117.09 L74.46 117.09 A9 9 -180 0 0 83.46 108.09 L83.46 72.24 A9 9 -180 0 0 74.46 63.24 L9 63.24 A9 9
							 -180 0 0 0 72.24 L0 108.09 A9 9 -180 0 0 9 117.09" class="st4"/>
				<path d="M0 91.87 L83.46 91.87" class="st4"/>
			</g>
			<g id="shape17-46" v:mID="17" v:groupContext="shape">
				<title>Transitions</title>
				<desc>duration=Tri(10,15,30)</desc>
				<v:textBlock v:margins="rect(4,4,4,4)" v:tabSpace="42.5197" v:verticalAlign="0"/>
				<v:textRect cx="41.7287" cy="104.479" width="83.46" height="25.2283"/>
				<rect x="0" y="91.8652" width="83.4574" height="25.2283" class="st5"/>
				<text x="4" y="103.07" class="st2" v:langID="1031"><v:paragraph/><v:tabList/>duration=Tri(10,15,30)</text>			</g>
			<g id="shape18-49" v:mID="18" v:groupContext="shape" transform="translate(14.7287,-25.2283)">
				<title>Name</title>
				<desc>DeliverPizza</desc>
				<v:textBlock v:margins="rect(4,4,4,4)" v:tabSpace="42.5197"/>
				<v:textRect cx="27" cy="104.494" width="54" height="25.2"/>
				<rect x="0" y="91.8935" width="54" height="25.2" class="st5"/>
				<text x="7.46" y="106.89" class="st2" v:langID="1031"><v:paragraph v:horizAlign="1"/><v:tabList/>DeliverPizza</text>			</g>
		</g>
		<g id="shape19-52" v:mID="19" v:groupContext="shape" transform="translate(2.38044,-43.2397)">
			<title>Sheet.19</title>
			<desc>OrderCall {eventRate:0.5}</desc>
			<v:textBlock v:margins="rect(0,0,0,0)" v:tabSpace="42.5197"/>
			<v:textRect cx="27.5162" cy="111.424" width="55.04" height="11.3386"/>
			<rect x="0" y="105.755" width="55.0325" height="11.3386" class="st5"/>
			<text x="12.1" y="109.02" class="st2" v:langID="1031"><v:paragraph v:horizAlign="1"/><v:tabList/>OrderCall<v:newlineChar/><tspan
						x="2.22" dy="1.2em" class="st7">{</tspan>eventRate:0.5}</text>		</g>
		<g id="shape20-56" v:mID="20" v:groupContext="shape" transform="translate(34.4063,-70.8234)">
			<title>Sheet.20</title>
			<path d="M0 117.09 L29.82 117.09" class="st8"/>
		</g>
		<g id="shape21-61" v:mID="21" v:groupContext="shape" transform="translate(230.108,-70.7506) rotate(-0.151234)">
			<title>Sheet.21</title>
			<path d="M0 117.09 L40.23 117.09" class="st8"/>
		</g>
		<g id="group25-66" transform="translate(168.077,-6.38929)" v:mID="25" v:groupContext="group">
			<v:userDefs>
				<v:ud v:nameU="UMLSuppressOption" v:val="VT0(4):26"/>
				<v:ud v:nameU="UMLVersion" v:val="VT0(2):26"/>
				<v:ud v:nameU="UMLAutoLockTextEdit" v:val="VT0(1):26"/>
				<v:ud v:nameU="UMLShapeType" v:val="VT0(51):26"/>
				<v:ud v:nameU="UMLObjectGUID" v:val="VT4({E01CE4BF-1051-4C16-A9A7-CEB82C632170})"/>
				<v:ud v:nameU="UMLError" v:val="VT0(0):26"/>
				<v:ud v:nameU="UMLPresOption1" v:val="VT0(19):26"/>
				<v:ud v:nameU="UMLPresOption2" v:val="VT0(1024):26"/>
				<v:ud v:nameU="DefaultWidth" v:val="VT0(0.74803149606299):24"/>
				<v:ud v:nameU="EnsureWidthOK" v:val="VT0(0.75):0"/>
				<v:ud v:nameU="visDescription" v:val="VT4(Represents an instance of a class.)"/>
				<v:ud v:nameU="visVersion" v:val="VT0(14):26"/>
			</v:userDefs>
			<title>Object</title>
			<g id="shape26-67" v:mID="26" v:groupContext="shape">
				<title>Attributes</title>
			</g>
			<g id="shape27-69" v:mID="27" v:groupContext="shape">
				<title>Name</title>
				<desc>Oven</desc>
				<v:userDefs>
					<v:ud v:nameU="HeightRatio" v:val="VT0(1):24"/>
				</v:userDefs>
				<v:textBlock v:margins="rect(1,1,1,1)" v:tabSpace="42.5197"/>
				<v:textRect cx="26.9291" cy="109.865" width="53.86" height="14.4567"/>
				<rect x="0" y="102.637" width="53.8583" height="14.4567" class="st10"/>
				<text x="18.38" y="112.27" class="st2" v:langID="1031"><v:paragraph v:horizAlign="1"/><v:tabList/>Oven</text>			</g>
		</g>
		<g id="shape28-72" v:mID="28" v:groupContext="shape" transform="translate(311.858,72.0678) rotate(89.411)">
			<title>Sheet.28</title>
			<path d="M0 117.09 L21.25 117.09" class="st11"/>
		</g>
		<g id="shape29-78" v:mID="29" v:groupContext="shape" transform="translate(196.311,-22.1216)">
			<title>Sheet.29</title>
			<desc>1</desc>
			<v:textBlock v:margins="rect(0,0,0,0)" v:tabSpace="42.5197"/>
			<v:textRect cx="5.54173" cy="111.424" width="11.09" height="11.3386"/>
			<rect x="0" y="105.755" width="11.0835" height="11.3386" class="st5"/>
			<text x="3.51" y="113.82" class="st2" v:langID="1031"><v:paragraph v:horizAlign="1"/><v:tabList/>1</text>		</g>
		<g id="shape34-81" v:mID="34" v:groupContext="shape" transform="translate(177.495,-31.9011)">
			<title>Sheet.34</title>
			<desc>0..2</desc>
			<v:textBlock v:margins="rect(0,0,0,0)" v:tabSpace="42.5197"/>
			<v:textRect cx="7.47664" cy="111.424" width="14.96" height="11.3386"/>
			<rect x="0" y="105.755" width="14.9533" height="11.3386" class="st5"/>
			<text x="1.4" y="113.82" class="st2" v:langID="1031"><v:paragraph v:horizAlign="1"/><v:tabList/>0..2</text>		</g>
	</g>
</svg>
