<?xml version="1.0" encoding="UTF-8" standalone="no"?>
<!DOCTYPE svg PUBLIC "-//W3C//DTD SVG 1.0//EN" "http://www.w3.org/TR/2001/REC-SVG-20010904/DTD/svg10.dtd">
<!-- Generated by Microsoft Visio 11.0, SVG Export, v1.0 PDM.svg Page-1 -->
<svg xmlns="http://www.w3.org/2000/svg" xmlns:xlink="http://www.w3.org/1999/xlink" xmlns:ev="http://www.w3.org/2001/xml-events"
		xmlns:v="http://schemas.microsoft.com/visio/2003/SVGExtensions/" width="5.02394in" height="1.51606in"
		viewBox="0 0 361.723 109.157" xml:space="preserve" color-interpolation-filters="sRGB" class="st13">
	<v:documentProperties v:langID="1033" v:viewMarkup="false"/>

	<style type="text/css">
	<![CDATA[
		.st1 {fill:none;stroke:#000000;stroke-linecap:round;stroke-linejoin:round;stroke-width:0.72}
		.st2 {fill:#000000;font-family:Calibri;font-size:0.666664em}
		.st3 {fill:#ffffff}
		.st4 {stroke:#000000;stroke-linecap:round;stroke-linejoin:round;stroke-width:0.72}
		.st5 {fill:none;stroke:none;stroke-linecap:round;stroke-linejoin:round;stroke-width:0.75}
		.st6 {font-size:1em}
		.st7 {fill:#ffffff;stroke:#000000;stroke-linecap:round;stroke-linejoin:round;stroke-width:0.75}
		.st8 {marker-end:url(#mrkr26-40);stroke:#000000;stroke-linecap:round;stroke-linejoin:round;stroke-width:0.5}
		.st9 {fill:#000000;fill-opacity:1;stroke:#000000;stroke-opacity:1;stroke-width:0.13368983957219}
		.st10 {fill:#ffffff;stroke:#000000;stroke-linecap:round;stroke-linejoin:round;stroke-width:0.72}
		.st11 {marker-end:url(#mrkr11-77);stroke:#000000;stroke-linecap:round;stroke-linejoin:round;stroke-width:0.5}
		.st12 {fill:#000000;fill-opacity:1;stroke:#000000;stroke-opacity:1;stroke-width:0.21739130434783}
		.st13 {fill:none;fill-rule:evenodd;font-size:12px;overflow:visible;stroke-linecap:square;stroke-miterlimit:3}
	]]>
	</style>

	<defs id="Markers">
		<g id="lend26">
			<path d="M 1.5 -0.75 L 1.5 0.75 M 2.25 -0.75 L 2.25 0.75 M 3 -0.75 L 3 0.75 "
					style="stroke-linecap:round;stroke-linejoin:round;fill:none"/>
		</g>
		<marker id="mrkr26-40" class="st9" v:arrowType="26" v:arrowSize="3" orient="auto" markerUnits="strokeWidth"
				overflow="visible">
			<use xlink:href="#lend26" transform="scale(-7.48,-7.48) "/>
		</marker>
		<g id="lend11">
			<path d="M 0.75 -0.75 L 0.75 0.75 L -0.75 0.75 L -0.75 -0.75 L 0.75 -0.75 " style="stroke:none"/>
		</g>
		<marker id="mrkr11-77" class="st12" v:arrowType="11" v:arrowSize="1" v:setback="3.45" refX="-3.45" orient="auto"
				markerUnits="strokeWidth" overflow="visible">
			<use xlink:href="#lend11" transform="scale(-4.6,-4.6) "/>
		</marker>
	</defs>
	<g v:mID="0" v:index="1" v:groupContext="foregroundPage">
		<title>Page-1</title>
		<v:pageProperties v:drawingScale="0.0393701" v:pageScale="0.0393701" v:drawingUnits="24" v:shadowOffsetX="8.50394"
				v:shadowOffsetY="-8.50394"/>
		<v:layer v:name="Swimlanes" v:index="0" v:snap="false" v:glue="false"/>
		<g id="shape3-1" v:mID="3" v:groupContext="shape" v:layerMember="0" transform="translate(136.022,-0.72)">
			<title>Swimlane.19</title>
			<desc>pizzaMakers[2] : PizzaMaker</desc>
			<v:userDefs>
				<v:ud v:nameU="UMLShapeType" v:val="VT0(63):26"/>
				<v:ud v:nameU="UMLObjectGUID" v:val="VT4({F481E636-ED32-4112-9327-808CCAB3C443})"/>
				<v:ud v:nameU="UMLError" v:val="VT0(0):26"/>
				<v:ud v:nameU="UMLPresOption1" v:val="VT0(1):26"/>
				<v:ud v:nameU="UMLVersion" v:val="VT0(2):26"/>
				<v:ud v:nameU="visDescription" v:val="VT4(Represents a partition for organizing responsibility for activities.)"/>
				<v:ud v:nameU="visVersion" v:val="VT0(14):26"/>
			</v:userDefs>
			<v:textBlock v:margins="rect(4,4,4,4)" v:tabSpace="42.5197" v:verticalAlign="0"/>
			<v:textRect cx="56.6929" cy="55.2983" width="113.39" height="107.717"/>
			<rect x="0" y="1.44" width="113.386" height="107.717" class="st1"/>
			<text x="10.53" y="12.64" class="st2" v:langID="1031"><v:paragraph v:horizAlign="1"/><v:tabList/>pizzaMakers[2] : PizzaMaker</text>		</g>
		<g id="shape4-4" v:mID="4" v:groupContext="shape" v:layerMember="0" transform="translate(0.72,-0.72)">
			<title>Swimlane</title>
			<desc>OrderTaker</desc>
			<v:userDefs>
				<v:ud v:nameU="UMLShapeType" v:val="VT0(63):26"/>
				<v:ud v:nameU="UMLObjectGUID" v:val="VT4({686CBD4A-3506-41F5-B9FE-E464B84A45E4})"/>
				<v:ud v:nameU="UMLError" v:val="VT0(0):26"/>
				<v:ud v:nameU="UMLPresOption1" v:val="VT0(1):26"/>
				<v:ud v:nameU="UMLVersion" v:val="VT0(2):26"/>
				<v:ud v:nameU="visDescription" v:val="VT4(Represents a partition for organizing responsibility for activities.)"/>
				<v:ud v:nameU="visVersion" v:val="VT0(14):26"/>
			</v:userDefs>
			<v:textBlock v:margins="rect(4,4,4,4)" v:tabSpace="42.5197" v:verticalAlign="0"/>
			<v:textRect cx="67.6511" cy="55.2983" width="135.31" height="107.717"/>
			<rect x="0" y="1.44" width="135.302" height="107.717" class="st1"/>
			<text x="49.05" y="12.64" class="st2" v:langID="1031"><v:paragraph v:horizAlign="1"/><v:tabList/>OrderTaker</text>		</g>
		<g id="shape2-7" v:mID="2" v:groupContext="shape" v:layerMember="0" transform="translate(249.318,-0.72)">
			<title>Swimlane.20</title>
			<desc>ScooterDriver</desc>
			<v:userDefs>
				<v:ud v:nameU="UMLShapeType" v:val="VT0(63):26"/>
				<v:ud v:nameU="UMLObjectGUID" v:val="VT4({17342636-C9B0-45F3-8162-B8EA2FC230AC})"/>
				<v:ud v:nameU="UMLError" v:val="VT0(0):26"/>
				<v:ud v:nameU="UMLPresOption1" v:val="VT0(1):26"/>
				<v:ud v:nameU="UMLVersion" v:val="VT0(2):26"/>
				<v:ud v:nameU="visDescription" v:val="VT4(Represents a partition for organizing responsibility for activities.)"/>
				<v:ud v:nameU="visVersion" v:val="VT0(14):26"/>
			</v:userDefs>
			<v:textBlock v:margins="rect(4,4,4,4)" v:tabSpace="42.5197" v:verticalAlign="0"/>
			<v:textRect cx="55.8425" cy="55.2983" width="111.69" height="107.717"/>
			<rect x="0" y="1.44" width="111.685" height="107.717" class="st1"/>
			<text x="33.41" y="12.64" class="st2" v:langID="1031"><v:paragraph v:horizAlign="1"/><v:tabList/>ScooterDriver</text>		</g>
		<g id="group5-10" transform="translate(62.8002,-35.9572)" v:mID="5" v:groupContext="group">
			<v:userDefs>
				<v:ud v:nameU="UMLShapeType" v:val="VT0(40):26"/>
				<v:ud v:nameU="UMLObjectGUID" v:val="VT4({2B6B081B-0417-4743-88B0-B5D95A222402})"/>
				<v:ud v:nameU="UMLError" v:val="VT0(0):26"/>
				<v:ud v:nameU="UMLPresOption1" v:val="VT0(1):26"/>
				<v:ud v:nameU="UMLSuppressOption" v:val="VT0(0):26"/>
				<v:ud v:nameU="UMLVersion" v:val="VT0(2):26"/>
				<v:ud v:nameU="UMLAutoLockTextEdit" v:val="VT0(1):26"/>
				<v:ud v:nameU="visDescription"
						v:val="VT4(Represents a condition during which an object satisfies some condition, performs an action or waits for an event.)"/>
				<v:ud v:nameU="visVersion" v:val="VT0(14):26"/>
			</v:userDefs>
			<title>State</title>
			<g id="shape6-11" v:mID="6" v:groupContext="shape">
				<title>Sheet.6</title>
				<path d="M9 109.16 L55.7 109.16 A9 9 -180 0 0 64.7 100.16 L64.7 64.3 A9 9 -180 0 0 55.7 55.3 L9 55.3 A9 9 -180 0
							 0 0 64.3 L0 100.16 A9 9 -180 0 0 9 109.16 Z" class="st3"/>
				<path d="M9 109.16 L55.7 109.16 A9 9 -180 0 0 64.7 100.16 L64.7 64.3 A9 9 -180 0 0 55.7 55.3 L9 55.3 A9 9 -180 0
							 0 0 64.3 L0 100.16 A9 9 -180 0 0 9 109.16" class="st4"/>
				<path d="M0 81.95 L64.7 81.95" class="st4"/>
			</g>
			<g id="shape7-15" v:mID="7" v:groupContext="shape">
				<title>Transitions</title>
				<desc>duration=U(1,4) wtmout=DU(3,6)</desc>
				<v:textBlock v:margins="rect(4,4,4,4)" v:tabSpace="42.5197" v:verticalAlign="0"/>
				<v:textRect cx="32.3494" cy="95.5548" width="64.7" height="27.2035"/>
				<rect x="0" y="81.953" width="64.6988" height="27.2035" class="st5"/>
				<text x="4" y="93.15" class="st2" v:langID="1031"><v:paragraph/><v:tabList/>duration=U(1,4)<v:newlineChar/><tspan
							x="4" dy="1.2em" class="st6">wtmout</tspan>=DU(3,6)</text>			</g>
			<g id="shape8-19" v:mID="8" v:groupContext="shape" transform="translate(5.34941,-27.2035)">
				<title>Name</title>
				<desc>TakeOrder</desc>
				<v:textBlock v:margins="rect(4,4,4,4)" v:tabSpace="42.5197"/>
				<v:textRect cx="27" cy="96.5565" width="54" height="25.2"/>
				<rect x="0" y="83.9565" width="54" height="25.2" class="st5"/>
				<text x="9.8" y="98.96" class="st2" v:langID="1031"><v:paragraph v:horizAlign="1"/><v:tabList/>TakeOrder</text>			</g>
		</g>
		<g id="shape9-22" v:mID="9" v:groupContext="shape" transform="translate(17.3984,-54.3824)">
			<title>Initial State</title>
			<v:userDefs>
				<v:ud v:nameU="UMLShapeType" v:val="VT0(42):26"/>
				<v:ud v:nameU="UMLObjectGUID" v:val="VT4({548F7A68-F2D3-4E95-8C4F-9F5B9D773DDE})"/>
				<v:ud v:nameU="UMLError" v:val="VT0(0):26"/>
				<v:ud v:nameU="UMLPresOptions" v:val="VT0(3):26"/>
				<v:ud v:nameU="UMLVersion" v:val="VT0(2):26"/>
				<v:ud v:nameU="visDescription" v:val="VT4(Represents the point at which a newly created object starts. )"/>
				<v:ud v:nameU="visVersion" v:val="VT0(14):26"/>
			</v:userDefs>
			<path d="M0 100.65 A8.50394 8.50394 0 1 1 17.01 100.65 A8.50394 8.50394 0 0 1 0 100.65 Z" class="st7"/>
		</g>
		<g id="group10-24" transform="translate(159.124,-35.8849)" v:mID="10" v:groupContext="group">
			<v:userDefs>
				<v:ud v:nameU="UMLShapeType" v:val="VT0(40):26"/>
				<v:ud v:nameU="UMLObjectGUID" v:val="VT4({308F1E8D-3997-47F8-A0DF-D0E2A3BF0021})"/>
				<v:ud v:nameU="UMLError" v:val="VT0(0):26"/>
				<v:ud v:nameU="UMLPresOption1" v:val="VT0(1):26"/>
				<v:ud v:nameU="UMLSuppressOption" v:val="VT0(0):26"/>
				<v:ud v:nameU="UMLVersion" v:val="VT0(2):26"/>
				<v:ud v:nameU="UMLAutoLockTextEdit" v:val="VT0(1):26"/>
				<v:ud v:nameU="visDescription"
						v:val="VT4(Represents a condition during which an object satisfies some condition, performs an action or waits for an event.)"/>
				<v:ud v:nameU="visVersion" v:val="VT0(14):26"/>
			</v:userDefs>
			<title>State.9</title>
			<g id="shape11-25" v:mID="11" v:groupContext="shape">
				<title>Sheet.11</title>
				<path d="M9 109.16 L62.29 109.16 A9 9 -180 0 0 71.29 100.16 L71.29 64.3 A9 9 -180 0 0 62.29 55.3 L9 55.3 A9 9 -180
							 0 0 0 64.3 L0 100.16 A9 9 -180 0 0 9 109.16 Z" class="st3"/>
				<path d="M9 109.16 L62.29 109.16 A9 9 -180 0 0 71.29 100.16 L71.29 64.3 A9 9 -180 0 0 62.29 55.3 L9 55.3 A9 9 -180
							 0 0 0 64.3 L0 100.16 A9 9 -180 0 0 9 109.16" class="st4"/>
				<path d="M0 83.93 L71.29 83.93" class="st4"/>
			</g>
			<g id="shape12-29" v:mID="12" v:groupContext="shape">
				<title>Transitions</title>
				<desc>duration=Tri(3,4,6)</desc>
				<v:textBlock v:margins="rect(4,4,4,4)" v:tabSpace="42.5197" v:verticalAlign="0"/>
				<v:textRect cx="35.6465" cy="96.5424" width="71.3" height="25.2283"/>
				<rect x="0" y="83.9282" width="71.2931" height="25.2283" class="st5"/>
				<text x="4" y="95.13" class="st2" v:langID="1031"><v:paragraph/><v:tabList/>duration=Tri(3,4,6)</text>			</g>
			<g id="shape13-32" v:mID="13" v:groupContext="shape" transform="translate(8.64654,-25.2283)">
				<title>Name</title>
				<desc>MakePizza</desc>
				<v:textBlock v:margins="rect(4,4,4,4)" v:tabSpace="42.5197"/>
				<v:textRect cx="27" cy="96.5565" width="54" height="25.2"/>
				<rect x="0" y="83.9565" width="54" height="25.2" class="st5"/>
				<text x="9.8" y="98.96" class="st2" v:langID="1031"><v:paragraph v:horizAlign="1"/><v:tabList/>MakePizza</text>			</g>
		</g>
		<g id="shape14-35" v:mID="14" v:groupContext="shape" transform="translate(127.749,-62.8861) rotate(0.131041)">
			<title>Sheet.14</title>
			<path d="M0 109.16 L31.62 109.16" class="st8"/>
		</g>
		<g id="group15-41" transform="translate(270.649,-35.9911)" v:mID="15" v:groupContext="group">
			<v:userDefs>
				<v:ud v:nameU="UMLShapeType" v:val="VT0(40):26"/>
				<v:ud v:nameU="UMLObjectGUID" v:val="VT4({EC4F8FD2-CEE3-4168-853B-167E7DC196B0})"/>
				<v:ud v:nameU="UMLError" v:val="VT0(0):26"/>
				<v:ud v:nameU="UMLPresOption1" v:val="VT0(1):26"/>
				<v:ud v:nameU="UMLSuppressOption" v:val="VT0(0):26"/>
				<v:ud v:nameU="UMLVersion" v:val="VT0(2):26"/>
				<v:ud v:nameU="UMLAutoLockTextEdit" v:val="VT0(1):26"/>
				<v:ud v:nameU="visDescription"
						v:val="VT4(Represents a condition during which an object satisfies some condition, performs an action or waits for an event.)"/>
				<v:ud v:nameU="visVersion" v:val="VT0(14):26"/>
			</v:userDefs>
			<title>State.17</title>
			<g id="shape16-42" v:mID="16" v:groupContext="shape">
				<title>Sheet.16</title>
				<path d="M9 109.16 L74.46 109.16 A9 9 -180 0 0 83.46 100.16 L83.46 64.3 A9 9 -180 0 0 74.46 55.3 L9 55.3 A9 9 -180
							 0 0 0 64.3 L0 100.16 A9 9 -180 0 0 9 109.16 Z" class="st3"/>
				<path d="M9 109.16 L74.46 109.16 A9 9 -180 0 0 83.46 100.16 L83.46 64.3 A9 9 -180 0 0 74.46 55.3 L9 55.3 A9 9 -180
							 0 0 0 64.3 L0 100.16 A9 9 -180 0 0 9 109.16" class="st4"/>
				<path d="M0 83.93 L83.46 83.93" class="st4"/>
			</g>
			<g id="shape17-46" v:mID="17" v:groupContext="shape">
				<title>Transitions</title>
				<desc>duration=Tri(10,15,30)</desc>
				<v:textBlock v:margins="rect(4,4,4,4)" v:tabSpace="42.5197" v:verticalAlign="0"/>
				<v:textRect cx="41.7287" cy="96.5424" width="83.46" height="25.2283"/>
				<rect x="0" y="83.9282" width="83.4574" height="25.2283" class="st5"/>
				<text x="4" y="95.13" class="st2" v:langID="1031"><v:paragraph/><v:tabList/>duration=Tri(10,15,30)</text>			</g>
			<g id="shape18-49" v:mID="18" v:groupContext="shape" transform="translate(14.7287,-25.2283)">
				<title>Name</title>
				<desc>DeliverPizza</desc>
				<v:textBlock v:margins="rect(4,4,4,4)" v:tabSpace="42.5197"/>
				<v:textRect cx="27" cy="96.5565" width="54" height="25.2"/>
				<rect x="0" y="83.9565" width="54" height="25.2" class="st5"/>
				<text x="7.46" y="98.96" class="st2" v:langID="1031"><v:paragraph v:horizAlign="1"/><v:tabList/>DeliverPizza</text>			</g>
		</g>
		<g id="shape19-52" v:mID="19" v:groupContext="shape" transform="translate(2.38044,-35.3027)">
			<title>Sheet.19</title>
			<desc>OrderCall {eventRate:0.5}</desc>
			<v:textBlock v:margins="rect(0,0,0,0)" v:tabSpace="42.5197"/>
			<v:textRect cx="27.5162" cy="103.487" width="55.04" height="11.3386"/>
			<rect x="0" y="97.818" width="55.0325" height="11.3386" class="st5"/>
			<text x="12.1" y="101.09" class="st2" v:langID="1031"><v:paragraph v:horizAlign="1"/><v:tabList/>OrderCall<v:newlineChar/><tspan
						x="2.22" dy="1.2em" class="st6">{</tspan>eventRate:0.5}</text>		</g>
		<g id="shape20-56" v:mID="20" v:groupContext="shape" transform="translate(34.4063,-62.8864)">
			<title>Sheet.20</title>
			<path d="M0 109.16 L28.39 109.16" class="st8"/>
		</g>
		<g id="shape21-61" v:mID="21" v:groupContext="shape" transform="translate(230.129,-62.8137) rotate(-0.151234)">
			<title>Sheet.21</title>
			<path d="M0 109.16 L40.23 109.16" class="st8"/>
		</g>
		<g id="group25-66" transform="translate(168.077,-4.6885)" v:mID="25" v:groupContext="group">
			<v:userDefs>
				<v:ud v:nameU="UMLSuppressOption" v:val="VT0(4):26"/>
				<v:ud v:nameU="UMLVersion" v:val="VT0(2):26"/>
				<v:ud v:nameU="UMLAutoLockTextEdit" v:val="VT0(1):26"/>
				<v:ud v:nameU="UMLShapeType" v:val="VT0(51):26"/>
				<v:ud v:nameU="UMLObjectGUID" v:val="VT4({E01CE4BF-1051-4C16-A9A7-CEB82C632170})"/>
				<v:ud v:nameU="UMLError" v:val="VT0(0):26"/>
				<v:ud v:nameU="UMLPresOption1" v:val="VT0(19):26"/>
				<v:ud v:nameU="UMLPresOption2" v:val="VT0(1024):26"/>
				<v:ud v:nameU="DefaultWidth" v:val="VT0(0.74803149606299):24"/>
				<v:ud v:nameU="EnsureWidthOK" v:val="VT0(0.75):0"/>
				<v:ud v:nameU="visDescription" v:val="VT4(Represents an instance of a class.)"/>
				<v:ud v:nameU="visVersion" v:val="VT0(14):26"/>
			</v:userDefs>
			<title>Object</title>
			<g id="shape26-67" v:mID="26" v:groupContext="shape">
				<title>Attributes</title>
			</g>
			<g id="shape27-69" v:mID="27" v:groupContext="shape">
				<title>Name</title>
				<desc>Oven</desc>
				<v:userDefs>
					<v:ud v:nameU="HeightRatio" v:val="VT0(1):24"/>
				</v:userDefs>
				<v:textBlock v:margins="rect(1,1,1,1)" v:tabSpace="42.5197"/>
				<v:textRect cx="26.9291" cy="101.928" width="53.86" height="14.4567"/>
				<rect x="0" y="94.6998" width="53.8583" height="14.4567" class="st10"/>
				<text x="18.38" y="104.33" class="st2" v:langID="1031"><v:paragraph v:horizAlign="1"/><v:tabList/>Oven</text>			</g>
		</g>
		<g id="shape28-72" v:mID="28" v:groupContext="shape" transform="translate(303.916,71.7314) rotate(89.1915)">
			<title>Sheet.28</title>
			<path d="M0 109.16 L15.02 109.16" class="st11"/>
		</g>
		<g id="shape29-78" v:mID="29" v:groupContext="shape" transform="translate(183.668,-18.8617)">
			<title>Sheet.29</title>
			<desc>1</desc>
			<v:textBlock v:margins="rect(0,0,0,0)" v:tabSpace="42.5197"/>
			<v:textRect cx="5.54173" cy="103.487" width="11.09" height="11.3386"/>
			<rect x="0" y="97.818" width="11.0835" height="11.3386" class="st5"/>
			<text x="3.51" y="105.89" class="st2" v:langID="1031"><v:paragraph v:horizAlign="1"/><v:tabList/>1</text>		</g>
		<g id="group30-81" transform="translate(285.448,-4.6885)" v:mID="30" v:groupContext="group">
			<v:userDefs>
				<v:ud v:nameU="UMLSuppressOption" v:val="VT0(4):26"/>
				<v:ud v:nameU="UMLVersion" v:val="VT0(2):26"/>
				<v:ud v:nameU="UMLAutoLockTextEdit" v:val="VT0(1):26"/>
				<v:ud v:nameU="UMLShapeType" v:val="VT0(51):26"/>
				<v:ud v:nameU="UMLObjectGUID" v:val="VT4({A110428F-F8C5-442C-AA36-4E54A8643D41})"/>
				<v:ud v:nameU="UMLError" v:val="VT0(0):26"/>
				<v:ud v:nameU="UMLPresOption1" v:val="VT0(19):26"/>
				<v:ud v:nameU="UMLPresOption2" v:val="VT0(1024):26"/>
				<v:ud v:nameU="DefaultWidth" v:val="VT0(0.74803149606299):24"/>
				<v:ud v:nameU="EnsureWidthOK" v:val="VT0(0.75):0"/>
				<v:ud v:nameU="visDescription" v:val="VT4(Represents an instance of a class.)"/>
				<v:ud v:nameU="visVersion" v:val="VT0(14):26"/>
			</v:userDefs>
			<title>Object.33</title>
			<g id="shape31-82" v:mID="31" v:groupContext="shape">
				<title>Attributes</title>
			</g>
			<g id="shape32-84" v:mID="32" v:groupContext="shape">
				<title>Name</title>
				<desc>Scooter</desc>
				<v:userDefs>
					<v:ud v:nameU="HeightRatio" v:val="VT0(1):24"/>
				</v:userDefs>
				<v:textBlock v:margins="rect(1,1,1,1)" v:tabSpace="42.5197"/>
				<v:textRect cx="26.9291" cy="101.928" width="53.86" height="14.4567"/>
				<rect x="0" y="94.6998" width="53.8583" height="14.4567" class="st10"/>
				<text x="14.46" y="104.33" class="st2" v:langID="1031"><v:paragraph v:horizAlign="1"/><v:tabList/>Scooter</text>			</g>
		</g>
		<g id="shape33-87" v:mID="33" v:groupContext="shape" transform="translate(421.534,73.1654) rotate(90)">
			<title>Sheet.33</title>
			<path d="M0 109.16 L15.12 109.16" class="st11"/>
		</g>
		<g id="shape34-92" v:mID="34" v:groupContext="shape" transform="translate(300.412,-19.7121)">
			<title>Sheet.34</title>
			<desc>1</desc>
			<v:textBlock v:margins="rect(0,0,0,0)" v:tabSpace="42.5197"/>
			<v:textRect cx="5.54173" cy="103.487" width="11.09" height="11.3386"/>
			<rect x="0" y="97.818" width="11.0835" height="11.3386" class="st5"/>
			<text x="3.51" y="105.89" class="st2" v:langID="1031"><v:paragraph v:horizAlign="1"/><v:tabList/>1</text>		</g>
	</g>
</svg>
