<?xml version="1.0" encoding="UTF-8"?>
<svg class="st13" width="5.0139in" height="1.6163in" color-interpolation-filters="sRGB" version="1.1" viewBox="0 0 361 116.37" xml:space="preserve" xmlns="http://www.w3.org/2000/svg" xmlns:cc="http://creativecommons.org/ns#" xmlns:dc="http://purl.org/dc/elements/1.1/" xmlns:rdf="http://www.w3.org/1999/02/22-rdf-syntax-ns#" xmlns:v="http://schemas.microsoft.com/visio/2003/SVGExtensions/" xmlns:xlink="http://www.w3.org/1999/xlink"><metadata><rdf:RDF><cc:Work rdf:about=""><dc:format>image/svg+xml</dc:format><dc:type rdf:resource="http://purl.org/dc/dcmitype/StillImage"/><dc:title/></cc:Work></rdf:RDF></metadata>
	<v:documentProperties v:langID="1033" v:viewMarkup="false"/>

	<style type="text/css">
	<![CDATA[
		.st1 {fill:none;stroke:#000000;stroke-linecap:round;stroke-linejoin:round;stroke-width:0.72}
		.st2 {fill:#000000;font-family:Calibri;font-size:0.666664em}
		.st3 {fill:#ffffff}
		.st4 {stroke:#000000;stroke-linecap:round;stroke-linejoin:round;stroke-width:0.72}
		.st5 {fill:none;stroke:none;stroke-linecap:round;stroke-linejoin:round;stroke-width:0.75}
		.st6 {fill:#ffffff;stroke:#000000;stroke-linecap:round;stroke-linejoin:round;stroke-width:0.75}
		.st7 {marker-end:url(#mrkr26-39);stroke:#000000;stroke-linecap:round;stroke-linejoin:round;stroke-width:0.5}
		.st8 {fill:#000000;fill-opacity:1;stroke:#000000;stroke-opacity:1;stroke-width:0.13368983957219}
		.st9 {font-size:1em}
		.st10 {fill:#ffffff;stroke:#000000;stroke-linecap:round;stroke-linejoin:round;stroke-width:0.72}
		.st11 {marker-end:url(#mrkr11-76);stroke:#000000;stroke-linecap:round;stroke-linejoin:round;stroke-width:0.5}
		.st12 {fill:#000000;fill-opacity:1;stroke:#000000;stroke-opacity:1;stroke-width:0.21739130434783}
		.st13 {fill:none;fill-rule:evenodd;font-size:12px;overflow:visible;stroke-linecap:square;stroke-miterlimit:3}
	]]>
	</style>

	<defs id="Markers">
		<g id="lend26">
			<path d="m1.5-0.75v1.5m0.75-1.5v1.5m0.75-1.5v1.5" fill="none" stroke-linecap="round" stroke-linejoin="round"/>
		</g>
		<marker id="mrkr26-39" class="st8" overflow="visible" orient="auto" v:arrowSize="3" v:arrowType="26">
			<use transform="scale(-7.48)" width="100%" height="100%" xlink:href="#lend26"/>
		</marker>
		<g id="lend11">
			<path d="m0.75-0.75v1.5h-1.5v-1.5h1.5"/>
		</g>
		<marker id="mrkr11-76" class="st12" overflow="visible" orient="auto" refX="-3.45" v:arrowSize="1" v:arrowType="11" v:setback="3.45">
			<use transform="scale(-4.6)" width="100%" height="100%" xlink:href="#lend11"/>
		</marker>
	</defs>
	<g transform="translate(-.36096 -.36)" v:groupContext="foregroundPage" v:index="1" v:mID="0">
		<title>Page-1</title>
		<v:pageProperties v:drawingScale="0.0393701" v:drawingUnits="24" v:pageScale="0.0393701" v:shadowOffsetX="8.50394" v:shadowOffsetY="-8.50394"/>
		<v:layer v:glue="false" v:index="0" v:name="Swimlanes" v:snap="false"/>
		<g transform="translate(136.02 -.72)" v:groupContext="shape" v:layerMember="0" v:mID="3">
			<title>Swimlane.19</title>
			<desc>pizzaMakers[2] : PizzaMaker</desc>
			<v:userDefs>
				<v:ud v:nameU="UMLShapeType" v:val="VT0(63):26"/>
				<v:ud v:nameU="UMLObjectGUID" v:val="VT4({F481E636-ED32-4112-9327-808CCAB3C443})"/>
				<v:ud v:nameU="UMLError" v:val="VT0(0):26"/>
				<v:ud v:nameU="UMLPresOption1" v:val="VT0(1):26"/>
				<v:ud v:nameU="UMLVersion" v:val="VT0(2):26"/>
				<v:ud v:nameU="visDescription" v:val="VT4(Represents a partition for organizing responsibility for activities.)"/>
				<v:ud v:nameU="visVersion" v:val="VT0(14):26"/>
			</v:userDefs>
			<v:textBlock v:margins="rect(4,4,4,4)" v:tabSpace="42.5197" v:verticalAlign="0"/>
			<v:textRect width="113.39" height="115.654" cx="56.6929" cy="59.2668"/>
			<rect class="st1" y="1.44" width="113.39" height="115.65"/>
			<text class="st2" x="10.53" y="12.64" v:langID="1031"><v:paragraph v:horizAlign="1"/><v:tabList/>pizzaMakers[2] : PizzaMaker</text>		</g>
		<g transform="translate(.72 -.72)" v:groupContext="shape" v:layerMember="0" v:mID="4">
			<title>Swimlane</title>
			<desc>OrderTaker</desc>
			<v:userDefs>
				<v:ud v:nameU="UMLShapeType" v:val="VT0(63):26"/>
				<v:ud v:nameU="UMLObjectGUID" v:val="VT4({686CBD4A-3506-41F5-B9FE-E464B84A45E4})"/>
				<v:ud v:nameU="UMLError" v:val="VT0(0):26"/>
				<v:ud v:nameU="UMLPresOption1" v:val="VT0(1):26"/>
				<v:ud v:nameU="UMLVersion" v:val="VT0(2):26"/>
				<v:ud v:nameU="visDescription" v:val="VT4(Represents a partition for organizing responsibility for activities.)"/>
				<v:ud v:nameU="visVersion" v:val="VT0(14):26"/>
			</v:userDefs>
			<v:textBlock v:margins="rect(4,4,4,4)" v:tabSpace="42.5197" v:verticalAlign="0"/>
			<v:textRect width="135.31" height="115.654" cx="67.6511" cy="59.2668"/>
			<rect class="st1" y="1.44" width="135.3" height="115.65"/>
			<text class="st2" x="49.049999" y="12.64" v:langID="1031"><v:paragraph v:horizAlign="1"/><v:tabList/>OrderTaker</text>		</g>
		<g transform="translate(249.32 -.72)" v:groupContext="shape" v:layerMember="0" v:mID="2">
			<title>Swimlane.20</title>
			<desc>ScooterDriver</desc>
			<v:userDefs>
				<v:ud v:nameU="UMLShapeType" v:val="VT0(63):26"/>
				<v:ud v:nameU="UMLObjectGUID" v:val="VT4({17342636-C9B0-45F3-8162-B8EA2FC230AC})"/>
				<v:ud v:nameU="UMLError" v:val="VT0(0):26"/>
				<v:ud v:nameU="UMLPresOption1" v:val="VT0(1):26"/>
				<v:ud v:nameU="UMLVersion" v:val="VT0(2):26"/>
				<v:ud v:nameU="visDescription" v:val="VT4(Represents a partition for organizing responsibility for activities.)"/>
				<v:ud v:nameU="visVersion" v:val="VT0(14):26"/>
			</v:userDefs>
			<v:textBlock v:margins="rect(4,4,4,4)" v:tabSpace="42.5197" v:verticalAlign="0"/>
			<v:textRect width="111.69" height="115.654" cx="55.8425" cy="59.2668"/>
			<rect class="st1" y="1.44" width="111.68" height="115.65"/>
			<text class="st2" x="33.41" y="12.64" v:langID="1031"><v:paragraph v:horizAlign="1"/><v:tabList/>ScooterDriver</text>		</g>
		<g transform="translate(64.224 -43.894)" v:groupContext="group" v:mID="5">
			<v:userDefs>
				<v:ud v:nameU="UMLShapeType" v:val="VT0(40):26"/>
				<v:ud v:nameU="UMLObjectGUID" v:val="VT4({2B6B081B-0417-4743-88B0-B5D95A222402})"/>
				<v:ud v:nameU="UMLError" v:val="VT0(0):26"/>
				<v:ud v:nameU="UMLPresOption1" v:val="VT0(1):26"/>
				<v:ud v:nameU="UMLSuppressOption" v:val="VT0(0):26"/>
				<v:ud v:nameU="UMLVersion" v:val="VT0(2):26"/>
				<v:ud v:nameU="UMLAutoLockTextEdit" v:val="VT0(1):26"/>
				<v:ud v:nameU="visDescription" v:val="VT4(Represents a condition during which an object satisfies some condition, performs an action or waits for an event.)"/>
				<v:ud v:nameU="visVersion" v:val="VT0(14):26"/>
			</v:userDefs>
			<title>State</title>
			<g v:groupContext="shape" v:mID="6">
				<title>Sheet.6</title>
				<path class="st3" d="m9 117.09h43.85a9 9-180 0 0 9-9v-35.85a9 9-180 0 0-9-9h-43.85a9 9-180 0 0-9 9v35.85a9 9-180 0 0 9 9z"/>
				<path class="st4" d="m9 117.09h43.85a9 9-180 0 0 9-9v-35.85a9 9-180 0 0-9-9h-43.85a9 9-180 0 0-9 9v35.85a9 9-180 0 0 9 9"/>
				<path class="st4" d="m0 91.87h61.85"/>
			</g>
			<g v:groupContext="shape" v:mID="7">
				<title>Transitions</title>
				<desc>duration=U(1,4)</desc>
				<v:textBlock v:margins="rect(4,4,4,4)" v:tabSpace="42.5197" v:verticalAlign="0"/>
				<v:textRect width="61.86" height="25.2283" cx="30.9257" cy="104.479"/>
				<rect class="st5" y="91.865" width="61.851" height="25.228"/>
				<text class="st2" x="4" y="103.07" v:langID="1031"><v:paragraph/><v:tabList/>duration=U(1,4)</text>			</g>
			<g transform="translate(3.9257 -25.228)" v:groupContext="shape" v:mID="8">
				<title>Name</title>
				<desc>TakeOrder</desc>
				<v:textBlock v:margins="rect(4,4,4,4)" v:tabSpace="42.5197"/>
				<v:textRect width="54" height="25.2" cx="27" cy="104.494"/>
				<rect class="st5" y="91.894" width="54" height="25.2"/>
				<text class="st2" x="9.8000002" y="106.89" v:langID="1031"><v:paragraph v:horizAlign="1"/><v:tabList/>TakeOrder</text>			</g>
		</g>
		<g transform="translate(17.398 -62.319)" v:groupContext="shape" v:mID="9">
			<title>Initial State</title>
			<v:userDefs>
				<v:ud v:nameU="UMLShapeType" v:val="VT0(42):26"/>
				<v:ud v:nameU="UMLObjectGUID" v:val="VT4({548F7A68-F2D3-4E95-8C4F-9F5B9D773DDE})"/>
				<v:ud v:nameU="UMLError" v:val="VT0(0):26"/>
				<v:ud v:nameU="UMLPresOptions" v:val="VT0(3):26"/>
				<v:ud v:nameU="UMLVersion" v:val="VT0(2):26"/>
				<v:ud v:nameU="visDescription" v:val="VT4(Represents the point at which a newly created object starts. )"/>
				<v:ud v:nameU="visVersion" v:val="VT0(14):26"/>
			</v:userDefs>
			<path class="st6" d="m0 108.59a8.505 8.505 0 1 1 17.01 0 8.505 8.505 0 0 1-17.01 0z"/>
		</g>
		<g transform="translate(159.12 -43.822)" v:groupContext="group" v:mID="10">
			<v:userDefs>
				<v:ud v:nameU="UMLShapeType" v:val="VT0(40):26"/>
				<v:ud v:nameU="UMLObjectGUID" v:val="VT4({308F1E8D-3997-47F8-A0DF-D0E2A3BF0021})"/>
				<v:ud v:nameU="UMLError" v:val="VT0(0):26"/>
				<v:ud v:nameU="UMLPresOption1" v:val="VT0(1):26"/>
				<v:ud v:nameU="UMLSuppressOption" v:val="VT0(0):26"/>
				<v:ud v:nameU="UMLVersion" v:val="VT0(2):26"/>
				<v:ud v:nameU="UMLAutoLockTextEdit" v:val="VT0(1):26"/>
				<v:ud v:nameU="visDescription" v:val="VT4(Represents a condition during which an object satisfies some condition, performs an action or waits for an event.)"/>
				<v:ud v:nameU="visVersion" v:val="VT0(14):26"/>
			</v:userDefs>
			<title>State.9</title>
			<g v:groupContext="shape" v:mID="11">
				<title>Sheet.11</title>
				<path class="st3" d="m9 117.09h53.29a9 9-180 0 0 9-9v-35.85a9 9-180 0 0-9-9h-53.29a9 9-180 0 0-9 9v35.85a9 9-180 0 0 9 9z"/>
				<path class="st4" d="m9 117.09h53.29a9 9-180 0 0 9-9v-35.85a9 9-180 0 0-9-9h-53.29a9 9-180 0 0-9 9v35.85a9 9-180 0 0 9 9"/>
				<path class="st4" d="m0 91.87h71.29"/>
			</g>
			<g v:groupContext="shape" v:mID="12">
				<title>Transitions</title>
				<desc>duration=Tri(3,4,6)</desc>
				<v:textBlock v:margins="rect(4,4,4,4)" v:tabSpace="42.5197" v:verticalAlign="0"/>
				<v:textRect width="71.3" height="25.2283" cx="35.6465" cy="104.479"/>
				<rect class="st5" y="91.865" width="71.293" height="25.228"/>
				<text class="st2" x="4" y="103.07" v:langID="1031"><v:paragraph/><v:tabList/>duration=Tri(3,4,6)</text>			</g>
			<g transform="translate(8.6465 -25.228)" v:groupContext="shape" v:mID="13">
				<title>Name</title>
				<desc>MakePizza</desc>
				<v:textBlock v:margins="rect(4,4,4,4)" v:tabSpace="42.5197"/>
				<v:textRect width="54" height="25.2" cx="27" cy="104.494"/>
				<rect class="st5" y="91.894" width="54" height="25.2"/>
				<text class="st2" x="9.8000002" y="106.89" v:langID="1031"><v:paragraph v:horizAlign="1"/><v:tabList/>MakePizza</text>			</g>
		</g>
		<g transform="rotate(.1254 32424 57688)" v:groupContext="shape" v:mID="14">
			<title>Sheet.14</title>
			<path class="st7" d="m0 117.09h33.05"/>
		</g>
		<g transform="translate(270.65 -43.928)" v:groupContext="group" v:mID="15">
			<v:userDefs>
				<v:ud v:nameU="UMLShapeType" v:val="VT0(40):26"/>
				<v:ud v:nameU="UMLObjectGUID" v:val="VT4({EC4F8FD2-CEE3-4168-853B-167E7DC196B0})"/>
				<v:ud v:nameU="UMLError" v:val="VT0(0):26"/>
				<v:ud v:nameU="UMLPresOption1" v:val="VT0(1):26"/>
				<v:ud v:nameU="UMLSuppressOption" v:val="VT0(0):26"/>
				<v:ud v:nameU="UMLVersion" v:val="VT0(2):26"/>
				<v:ud v:nameU="UMLAutoLockTextEdit" v:val="VT0(1):26"/>
				<v:ud v:nameU="visDescription" v:val="VT4(Represents a condition during which an object satisfies some condition, performs an action or waits for an event.)"/>
				<v:ud v:nameU="visVersion" v:val="VT0(14):26"/>
			</v:userDefs>
			<title>State.17</title>
			<g v:groupContext="shape" v:mID="16">
				<title>Sheet.16</title>
				<path class="st3" d="m9 117.09h65.46a9 9-180 0 0 9-9v-35.85a9 9-180 0 0-9-9h-65.46a9 9-180 0 0-9 9v35.85a9 9-180 0 0 9 9z"/>
				<path class="st4" d="m9 117.09h65.46a9 9-180 0 0 9-9v-35.85a9 9-180 0 0-9-9h-65.46a9 9-180 0 0-9 9v35.85a9 9-180 0 0 9 9"/>
				<path class="st4" d="m0 91.87h83.46"/>
			</g>
			<g v:groupContext="shape" v:mID="17">
				<title>Transitions</title>
				<desc>duration=Tri(10,15,30)</desc>
				<v:textBlock v:margins="rect(4,4,4,4)" v:tabSpace="42.5197" v:verticalAlign="0"/>
				<v:textRect width="83.46" height="25.2283" cx="41.7287" cy="104.479"/>
				<rect class="st5" y="91.865" width="83.457" height="25.228"/>
				<text class="st2" x="4" y="103.07" v:langID="1031"><v:paragraph/><v:tabList/>duration=Tri(10,15,30)</text>			</g>
			<g transform="translate(14.729 -25.228)" v:groupContext="shape" v:mID="18">
				<title>Name</title>
				<desc>DeliverPizza</desc>
				<v:textBlock v:margins="rect(4,4,4,4)" v:tabSpace="42.5197"/>
				<v:textRect width="54" height="25.2" cx="27" cy="104.494"/>
				<rect class="st5" y="91.894" width="54" height="25.2"/>
				<text class="st2" x="7.46" y="106.89" v:langID="1031"><v:paragraph v:horizAlign="1"/><v:tabList/>DeliverPizza</text>			</g>
		</g>
		<g transform="translate(2.3804 -43.24)" v:groupContext="shape" v:mID="19">
			<title>Sheet.19</title>
			<desc>OrderCall {eventRate:0.5}</desc>
			<v:textBlock v:margins="rect(0,0,0,0)" v:tabSpace="42.5197"/>
			<v:textRect width="55.04" height="11.3386" cx="27.5162" cy="111.424"/>
			<rect class="st5" y="105.76" width="55.033" height="11.339"/>
			<text class="st2" x="12.1" y="109.02" v:langID="1031"><v:paragraph v:horizAlign="1"/><v:tabList/>OrderCall<v:newlineChar/><tspan class="st9" x="2.22" dy="1.2em">{</tspan>eventRate:0.5}</text>		</g>
		<g transform="translate(34.406 -70.823)" v:groupContext="shape" v:mID="20">
			<title>Sheet.20</title>
			<path class="st7" d="m0 117.09h29.82"/>
		</g>
		<g transform="rotate(-.15123 -26689 -87213)" v:groupContext="shape" v:mID="21">
			<title>Sheet.21</title>
			<path class="st7" d="m0 117.09h40.23"/>
		</g>
		<g transform="translate(168.08 -6.3893)" v:groupContext="group" v:mID="25">
			<v:userDefs>
				<v:ud v:nameU="UMLSuppressOption" v:val="VT0(4):26"/>
				<v:ud v:nameU="UMLVersion" v:val="VT0(2):26"/>
				<v:ud v:nameU="UMLAutoLockTextEdit" v:val="VT0(1):26"/>
				<v:ud v:nameU="UMLShapeType" v:val="VT0(51):26"/>
				<v:ud v:nameU="UMLObjectGUID" v:val="VT4({E01CE4BF-1051-4C16-A9A7-CEB82C632170})"/>
				<v:ud v:nameU="UMLError" v:val="VT0(0):26"/>
				<v:ud v:nameU="UMLPresOption1" v:val="VT0(19):26"/>
				<v:ud v:nameU="UMLPresOption2" v:val="VT0(1024):26"/>
				<v:ud v:nameU="DefaultWidth" v:val="VT0(0.74803149606299):24"/>
				<v:ud v:nameU="EnsureWidthOK" v:val="VT0(0.75):0"/>
				<v:ud v:nameU="visDescription" v:val="VT4(Represents an instance of a class.)"/>
				<v:ud v:nameU="visVersion" v:val="VT0(14):26"/>
			</v:userDefs>
			<title>Object</title>
			<g v:groupContext="shape" v:mID="26">
				<title>Attributes</title>
			</g>
			<g v:groupContext="shape" v:mID="27">
				<title>Name</title>
				<desc>Oven</desc>
				<v:userDefs>
					<v:ud v:nameU="HeightRatio" v:val="VT0(1):24"/>
				</v:userDefs>
				<v:textBlock v:margins="rect(1,1,1,1)" v:tabSpace="42.5197"/>
				<v:textRect width="53.86" height="14.4567" cx="26.9291" cy="109.865"/>
				<rect class="st10" y="102.64" width="53.858" height="14.457"/>
				<text class="st2" x="18.379999" y="112.27" v:langID="1031"><v:paragraph v:horizAlign="1"/><v:tabList/>Oven</text>			</g>
		</g>
		<g transform="rotate(89.411 119.52 193.57)" v:groupContext="shape" v:mID="28">
			<title>Sheet.28</title>
			<path class="st11" d="m0 117.09h21.25"/>
		</g>
		<g transform="translate(196.31 -22.122)" v:groupContext="shape" v:mID="29">
			<title>Sheet.29</title>
			<desc>1</desc>
			<v:textBlock v:margins="rect(0,0,0,0)" v:tabSpace="42.5197"/>
			<v:textRect width="11.09" height="11.3386" cx="5.54173" cy="111.424"/>
			<rect class="st5" y="105.76" width="11.084" height="11.339"/>
			<text class="st2" x="3.51" y="113.82" v:langID="1031"><v:paragraph v:horizAlign="1"/><v:tabList/>1</text>		</g>
		<g transform="translate(177.5 -31.901)" v:groupContext="shape" v:mID="34">
			<title>Sheet.34</title>
			<desc>0..2</desc>
			<v:textBlock v:margins="rect(0,0,0,0)" v:tabSpace="42.5197"/>
			<v:textRect width="14.96" height="11.3386" cx="7.47664" cy="111.424"/>
			<rect class="st5" y="105.76" width="14.953" height="11.339"/>
			<text class="st2" x="1.4" y="113.82" v:langID="1031"><v:paragraph v:horizAlign="1"/><v:tabList/>0..2</text>		</g>
	</g>
</svg>
