<svg height="512" viewBox="0 0 512 512" width="512" xmlns="http://www.w3.org/2000/svg">
<desc>By https://www.flaticon.com/authors/monkik</desc>
<g id="Filled_outline" data-name="Filled outline"><path d="m488 366.18v129.82h-256v-104l-16 40-56-32 23.05-51.85a47.967 47.967 0 0 1 30.07-26.48l58.88-17.67 16-8v-56h80v56l16 8 66.79 15.41a48.006 48.006 0 0 1 37.21 46.77z" fill="#fdc8a2"/><path d="m368 240v29.29a80.052 80.052 0 0 1 -80 0v-29.29z" fill="#fdbf92"/><path d="m232 496v-104l-16 40-56-32 23.046-51.854a48 48 0 0 1 30.07-26.481l58.884-17.665 16-8 40 64 40-64 16 8 66.793 15.414a48 48 0 0 1 37.207 46.771v49.815h-64v80" fill="#d65246"/><path d="m288 296-16 8v56l32-16 24 16z" fill="#df6257"/><path d="m368 296 16 8v56l-32-16-24 16z" fill="#df6257"/><path d="m160 400-19.086 41.989a32.544 32.544 0 0 0 29.627 46.011 32.543 32.543 0 0 0 29.912-19.724l15.547-36.276z" fill="#fdbf92"/><path d="m201.3 449.471-25.3-145.471h-104a32 32 0 0 0 32 32h32v119.107a32.893 32.893 0 0 0 32.893 32.893 32.892 32.892 0 0 0 32.407-38.529z" fill="#fdc8a2"/><path d="m248 104v80a80 80 0 0 0 80 80 80 80 0 0 0 80-80v-80z" fill="#fdc8a2"/><path d="m248 96v22a26 26 0 0 0 26 26 72.706 72.706 0 0 0 27-5.2 72.7 72.7 0 0 1 54 0 72.706 72.706 0 0 0 27 5.2 26 26 0 0 0 26-26v-22z" fill="#fdbf92"/><path d="m248 128v-24h32z" fill="#7a432a"/><path d="m408 128v-24h-32z" fill="#7a432a"/><path d="m368 168a16 16 0 1 1 16-16 16.019 16.019 0 0 1 -16 16z" fill="#91563a"/><path d="m288 168a16 16 0 1 1 16-16 16.019 16.019 0 0 1 -16 16z" fill="#91563a"/><path d="m296 24h64a48 48 0 0 1 48 48v32a0 0 0 0 1 0 0h-160a0 0 0 0 1 0 0v-32a48 48 0 0 1 48-48z" fill="#c7483c"/><path d="m382 128a72.706 72.706 0 0 1 -27-5.2 72.7 72.7 0 0 0 -54 0 72.706 72.706 0 0 1 -27 5.2 26 26 0 0 1 -26-26v-6l17.642-5.881a197.2 197.2 0 0 1 62.358-10.119 197.2 197.2 0 0 1 62.358 10.119l17.642 5.881v6a26 26 0 0 1 -26 26z" fill="#d65246"/><path d="m318.6 216h-6.6v-16h6.6a66.019 66.019 0 0 0 29.377-6.935l.441-.22 7.156 14.31-.44.22a82.1 82.1 0 0 1 -36.534 8.625z" fill="#fcb079"/><path d="m240 128h8a0 0 0 0 1 0 0v48a0 0 0 0 1 0 0h-8a24 24 0 0 1 -24-24 24 24 0 0 1 24-24z" fill="#fdb683"/><path d="m432 128h8a0 0 0 0 1 0 0v48a0 0 0 0 1 0 0h-8a24 24 0 0 1 -24-24 24 24 0 0 1 24-24z" fill="#fdb683" transform="matrix(-1 0 0 -1 848 304)"/><path d="m320 352h16v72h-16z" fill="#c7483c"/><path d="m288 376h16v16h-16z" fill="#df6257"/><path d="m416 384h16v32h-16z" fill="#c7483c"/><path d="m352 432h48v16h-48z" fill="#c7483c"/><path d="m24 208h224v48h-224z" fill="#ffb431"/><path d="m152 208h96v48h-96z" fill="#f99e0c"/><path d="m88 232a24 24 0 0 1 -24-24h48a24 24 0 0 1 -24 24z" fill="#f99e0c"/><path d="m24 256h224v48h-224z" fill="#ffb431"/><g fill="#f99e0c"><path d="m152 256h96v48h-96z"/><path d="m88 280a24 24 0 0 1 -24-24h48a24 24 0 0 1 -24 24z"/><path d="m24 248h128v16h-128z"/></g><path d="m152 248h96v16h-96z" fill="#f4970c"/><path d="m480 408h-48v-24h-16v112h16v-72h48v72h16v-112h-16z"/><path d="m352.575 353.231 27.847 13.924a8 8 0 0 0 11.578-7.155v-45.944l56.99 13.149a39.825 39.825 0 0 1 31.01 38.975h16a55.753 55.753 0 0 0 -43.411-54.565l-65.862-15.2-10.727-5.359v-33.31a88.327 88.327 0 0 0 40-73.746 32 32 0 0 0 0-64v-48a56.063 56.063 0 0 0 -56-56h-64a55.9 55.9 0 0 0 -37.335 14.261l10.67 11.922a39.935 39.935 0 0 1 26.665-10.183h64a40.045 40.045 0 0 1 40 40v12.9l-7.112-2.371a205.192 205.192 0 0 0 -129.776 0l-7.112 2.371v-12.9a39.961 39.961 0 0 1 5.347-19.994l-13.847-8.012a55.989 55.989 0 0 0 -7.5 28.006v48a32 32 0 0 0 0 64h16v-53.175a33.785 33.785 0 0 0 18 5.175 80.358 80.358 0 0 0 29.973-5.772 64.427 64.427 0 0 1 48.057 0 80.349 80.349 0 0 0 29.97 5.772 33.785 33.785 0 0 0 18-5.175v53.175a71.98 71.98 0 0 1 -123.413 50.4l-11.424 11.2a88.358 88.358 0 0 0 14.837 12.145v33.311l-10.961 5.48-13.039 3.913v-92.449a8 8 0 0 0 -8-8h-224a8 8 0 0 0 -8 8v8h49.376a24 24 0 0 0 45.248 0h33.376v32h-112v-16h-16v72a8 8 0 0 0 8 8h40.805a40.067 40.067 0 0 0 39.195 32h24v111.107a40.94 40.94 0 0 0 40.893 40.893c.548 0 27.107 1 38.911-24.571l16.196-37.888v62.459h16v-104a8 8 0 0 0 -15.428-2.971l-12.586 31.464-8.445-4.825-11.695-67.245a40.011 40.011 0 0 1 23.574-19.09l48.58-14.579v45.246a8 8 0 0 0 11.578 7.155l27.847-13.924 16.575 11.05v59.719h16v-59.719zm-112.575-185.231a16 16 0 0 1 0-32zm192-16a16.019 16.019 0 0 1 -16 16v-32a16.019 16.019 0 0 1 16 16zm-50-32c-18.632 0-35.164-10.426-54-10.426s-35.291 10.426-54 10.426a18.019 18.019 0 0 1 -18-18v-.235l12.173-4.058a189.2 189.2 0 0 1 119.654 0l12.173 4.059v.234a18.019 18.019 0 0 1 -18 18zm-6 227.056-20.422-10.211a7.993 7.993 0 0 0 -3.151-.834l18.5-29.6 5.073 2.533zm-16-81.082v27.731l-32 51.2-32-51.2v-27.731a87.978 87.978 0 0 0 64 0zm-200 30.026v-32h80v32zm80-80v32h-80v-32zm-208 48h33.376a24 24 0 0 0 45.248 0h33.376v32h-112zm112 191.107v-119.107a8 8 0 0 0 -8-8h-32a24.042 24.042 0 0 1 -22.629-16h87.9l24.147 138.842a24.893 24.893 0 1 1 -49.418 4.265zm66.82-141.1a56.049 56.049 0 0 0 -22.66 13.221l-2.649-15.228h32zm89.6 22.837-20.42 10.212v-38.112l5.071-2.535 18.5 29.6a7.993 7.993 0 0 0 -3.149.836z"/><path d="m288 376h16v16h-16z"/><circle cx="368" cy="152" r="16"/><circle cx="288" cy="152" r="16"/><path d="m347.981 193.065a66.019 66.019 0 0 1 -29.381 6.935h-6.6v16h6.6a82.1 82.1 0 0 0 36.534-8.625l.44-.22-7.156-14.31z"/><path d="m352 432h48v16h-48z"/></g></svg>